<?xml version="1.0" encoding="utf-8"?>
<!-- Generator: Adobe Illustrator 21.0.0, SVG Export Plug-In . SVG Version: 6.00 Build 0)  -->
<svg version="1.1" id="game-modalforest" xmlns="http://www.w3.org/2000/svg" xmlns:xlink="http://www.w3.org/1999/xlink" x="0px"
	 y="0px" viewBox="0 0 1390 2224" style="enable-background:new 0 0 1390 2224;" xml:space="preserve">
<style type="text/css">
	.st0{fill:#967A60;}
	.st1{fill:#C9D1D3;}
	.st2{fill:#635C55;}
	.st3{fill:#65868F;}
	.st4{fill:#6CC1A0;}
	.st5{fill:#EFCE8E;}
	.st6{fill:#60523B;}
	.st7{fill:#EFC58E;}
	.st8{fill:#6D5D41;}
	.st9{fill:#E8C192;}
	.st10{fill:#EFCA7F;}
	.st11{fill:#FFFFFF;}
	.st12{fill:#E5C57C;}
	.st13{fill:#59585E;}
	.st14{fill:#6FC9A9;}
	.st15{fill:#686770;}
	.st16{fill:#7F6752;}
	.st17{fill:#777770;}
	.st18{fill:#F29575;}
	.st19{fill:#3F3831;}
	.st20{fill:#86D1B1;}
	.st21{fill:#D98D31;}
	.st22{fill:#B5B5B5;}
</style>
<g id="modalforest">
	<g id="charackter">
		<g id="left-foot_4_">
			<path class="st0" d="M578.6,1812.2l-3.4,15.7c-1.5,4.6-6,9.1-6.3,13.9l-1,13.7l9,7.2l6.7,5.5c0.7,0.6,1.4,1,2.3,1.4l43.8,18.2
				c0.3,0.1,0.6,0.2,0.9,0.4l44.6,21.9c4.9,2.4,10,4.1,15.4,5.1l6.3,1.2c3.6,0.7,7.2,1,10.9,1h5c5.6,0,11.3-0.7,16.7-2.1l0,0
				c4.4-1.1,8.7-3,12.4-5.5l8.4-5.6c2.4-1.6,4.5-3.5,6.3-5.6l0.4-0.5c3.2-3.8,5-8.5,5-13.3v-2.2c0-2.6-0.5-5.1-1.5-7.5l0,0
				c-3-7-8.5-12.8-15.6-16.1l-34.5-16.4l-38.4-23.1l-6.7-9.8l-4.6-8.3l-8-3.8l-20.2-1.4h-19.7l-17.8,3l-9.5,4.3L578.6,1812.2z"/>
			<path class="st1" d="M567.9,1855.5l37.7,13.6l33.3,13.8l31.7,17.1c2.4,1.3,4.9,2.4,7.5,3.4l5.2,2c6.6,2.5,13.6,3.8,20.7,3.8h7.1
				c4,0,7.9-0.4,11.8-1.1l6.5-1.2c4.4-0.8,8.5-2.5,12.1-5l4.1-2.9c2.6-1.8,5-3.9,7.2-6.3l9-9.9v5.4c0,2.6-1,5.2-2.7,7.2l-5.5,6.4
				l-12.6,8.4c-3.4,2.2-7.1,3.9-11.1,4.9l-2.5,0.6c-4.3,1.1-8.7,1.6-13.1,1.6h-6.8c-3.7,0-7.4-0.3-11-1l-6.5-1.2
				c-5.2-1-10.2-2.7-14.8-5l-42.6-20.9c-1.8-0.9-3.6-1.7-5.4-2.5l-42.8-17.8l-10.2-3.4c-2.8-0.9-4.8-3.2-5.5-5.9L567.9,1855.5z"/>
			<g>
				<g>
					<path class="st2" d="M636.4,1825.3c6.9,0.7,13.5-0.4,20.4-0.8c6.5-0.4,12.7,1.2,19.1,0.9c1.9-0.1,1.9-3.1,0-3
						c-6.4,0.3-12.7-1.3-19.1-0.9c-6.8,0.4-13.5,1.5-20.4,0.8C634.5,1822.1,634.5,1825.1,636.4,1825.3L636.4,1825.3z"/>
				</g>
			</g>
			<g>
				<g>
					<path class="st2" d="M661.7,1809.8c-0.4,12.4,3.6,23.9,3.9,36.3c0,1.9,3,1.9,3,0c-0.1-5.5-0.3-11-1.5-16.3
						c-1.6-6.8-2.6-12.9-2.3-19.9C664.8,1807.8,661.8,1807.8,661.7,1809.8L661.7,1809.8z"/>
				</g>
			</g>
			<g>
				<g>
					<path class="st2" d="M671.3,1848.5c4.3,0.1,8.4-2,12.5-3.4c4.8-1.6,9.7-3.1,14.5-4.4c1.9-0.5,1.1-3.4-0.8-2.9
						c-4.3,1.2-8.5,2.5-12.7,3.8c-4.2,1.4-9,4-13.5,3.9C669.4,1845.4,669.4,1848.4,671.3,1848.5L671.3,1848.5z"/>
				</g>
			</g>
			<g>
				<g>
					<path class="st2" d="M679.8,1828.5c2,5.7,3.8,11.5,6.3,17c1.4,3.3,3,6,3.5,9.6c0.2,1.9,0.5,3.4,1.4,5.1s3.5,0.2,2.6-1.5
						c-1.1-2.1-0.9-4.4-1.4-6.7c-0.5-2.3-1.7-4.2-2.7-6.3c-2.7-5.7-4.6-12-6.7-18C682.1,1825.9,679.2,1826.6,679.8,1828.5
						L679.8,1828.5z"/>
				</g>
			</g>
		</g>
		<g id="right-foot_4_">
			<path class="st0" d="M354.5,1853.7l-2.7,2.3c-5.2,4.3-9.3,9.7-12.1,15.8l-1.3,2.9c-2.4,5.2-3.6,10.9-3.6,16.6v6.1
				c0,3.6,1.7,6.9,4.6,9.2l0,0c8.3,6.4,17.4,12,27,16.5l58.8,27.9c10.1,4.8,21.2,7.3,32.5,7.3h27l37-7.3c7.7-1.5,14.6-5.4,19.6-11.2
				l2.4-2.7c3-3.4,4.6-7.6,4.6-12v-4.4l-0.3-1.5c-1.1-4.8-4.1-8.9-8.4-11.5l-4.8-2.9c-3.5-2.1-7.2-3.9-11.1-5.3l-11.3-4.3l-23.2-10
				l-19-8.2c-4.1-1.8-7.5-4.9-9.5-8.8l-6.3-12.3l-6.9-5.5c-2.5-1.9-13.8-5.8-16.2-5.8l-15-2.6c-2.3,0-15.3,0.5-17.6,0l-17.8,1.7
				l-15.5,5.4L354.5,1853.7z"/>
			<path class="st1" d="M334.7,1891.4l13.7,10.6c6.3,4.9,13.2,9.2,20.4,12.7l54.5,26.8c7.3,3.6,15.3,5.7,23.5,6.2l23.3,1.4
				c6.5,0.4,13,0,19.4-1.1l32.1-5.8c2.9-0.5,5.8-1.6,8.4-3l3.8-2.2l14.4-16.4v5.8c0,3.5-1.3,6.9-3.7,9.6l-5.3,6.1
				c-3.8,4.3-8.9,7.2-14.6,8.3l-32.4,6.4c-5.1,1-10.3,1.5-15.5,1.5h-22.3c-9.2,0-18.3-2-26.5-5.9l-64.4-30.5
				c-7.7-3.7-15-8.1-21.8-13.3l-3.6-2.8c-2.2-1.7-3.4-4.2-3.4-6.8L334.7,1891.4L334.7,1891.4z"/>
			<g>
				<g>
					<path class="st2" d="M419.8,1880.3c15.6-0.5,31.3-0.2,46.9,0.8c1.9,0.1,1.9-2.9,0-3c-15.6-1-31.2-1.3-46.9-0.8
						C417.9,1877.4,417.8,1880.4,419.8,1880.3L419.8,1880.3z"/>
				</g>
			</g>
			<g>
				<g>
					<path class="st2" d="M450.7,1865.3c-2,11.9-3.1,23.2-9.6,33.6c-1,1.6,1.6,3.1,2.6,1.5c6.6-10.6,7.9-22.1,9.9-34.3
						C453.9,1864.2,451.1,1863.4,450.7,1865.3L450.7,1865.3z"/>
				</g>
			</g>
			<g>
				<g>
					<path class="st2" d="M450.5,1904.4c14-4.7,28.3-8.4,42.8-11c1.9-0.4,1.1-3.2-0.8-2.9c-14.5,2.7-28.8,6.4-42.8,11
						C447.9,1902.1,448.7,1905,450.5,1904.4L450.5,1904.4z"/>
				</g>
			</g>
			<g>
				<g>
					<path class="st2" d="M473.9,1883.6c1.8,10.7,2.8,21.5,3,32.4c0,1.9,3.1,1.9,3,0c-0.3-11.2-1.4-22.2-3.2-33.2
						C476.5,1880.9,473.6,1881.7,473.9,1883.6L473.9,1883.6z"/>
				</g>
			</g>
		</g>
		<path id="first-left-leg_4_" class="st3" d="M562.5,1624.9l4.3-10.8l9.6-8.4l14.6-7.1l18.9-3.6l25.3,0.5l16.3,3.1l9,5.7l0.4,0.5
			c3.9,4.7,6.2,9.8,6.8,14.9l0.2,1.4l1,189.4l0,0c-5.6,4.4-12.1,7.8-19.2,9.9l-3.5,1.1c-9.5,2.8-19.3,4.5-29.1,4.9l-2,0.1
			c-13.6,0.6-27.2-1.1-39.9-4.8l-2.3-0.7L562.5,1624.9z"/>
		<path id="first-right-leg_4_" class="st3" d="M368.3,1656.8l2.7-28.7l10.3-7.2l15.3-4.7l18.3-1.8l17.7,0.2l18.1,2.5l16,4.7
			l12.4,6.4l0,0c4.2,6,5.9,12.5,5.1,19l-27.6,207.6l0,0c-6.7,3.8-14.1,6.3-21.9,7.4l-1.2,0.2c-12.4,1.8-25.1,2-37.6,0.7l-5.9-0.6
			c-10.3-1.1-20.4-3.8-29.6-8.1l-8.2-3.8L368.3,1656.8z"/>
		<path id="second-left-leg_4_" class="st3" d="M562.5,1624.9L488.9,1431l-1.8-13.2l3.3-10.5l8.4-9.3c0.8-0.9,1.6-1.7,2.6-2.5
			l7.4-6.1l21.8-6l22,0.7l21.1,2.7l15.9,8.7l9.3,25.9l54.9,150.5l7.8,23.1l4.3,15l1.5,8.6l-10,11.8L638,1638l-27.5,3.2l-34-4.9
			L562.5,1624.9z"/>
		<path id="second-right-leg_4_" class="st3" d="M349.5,1438.5l22.2,206l8.8,9.4l13.4,5.5l19.4,3.4l19.2-0.3l18.1-2l16.5-4.8l7-3.8
			c2.5-1.4,4.6-3,6-4.8l0,0c4.2-5.5,6.1-11.5,5.6-17.5l-1.4-16.1l-9.5-162.8l-0.3-28.2l-16.2-5.8l-21.9-2.7l-28.9-1.7l-29.4,3.5
			l-17,4.1c-2.6,0.6-4.7,1.7-5.9,3.1l0,0C350.8,1427.8,348.9,1433.2,349.5,1438.5z"/>
		<g id="left-arm">
			<path id="second-left-arm" class="st4" d="M536.7,1117.2l5.1,10.4l6.7,8.2l109.3,106.9c1.9,1.8,8.8,5.2,8.8,5.2l7.7,2.1h8.3
				l9.1-1.1l9.1-1.4l7.5-3.4l4.6-4.9l2.4-5.2v-6.1l-2.6-6.4L586,1094.8c-4.8-4.8-13-11.4-16.7-14.4c-1.2-1-2.6-1.8-4-2.3l-0.8-0.3
				c-3.5-1.4-7.2-1.6-10.5-0.5l-2.9,1c-1.7,0.6-3.3,1.4-4.7,2.5l-5.6,4.3l-4.1,4l-2.5,7.7l0.1,10.7L536.7,1117.2z"/>
			<g id="first-left-arm">
				<path class="st5" d="M834.6,1347l7.2,1.6c1.4,0.5,2.9,1,4.2,1.7l10.6,4.9c1.7,0.8,3,2.1,3.8,3.7l2,4c0.7,1.5,0.8,3.2,0.3,4.7
					l-1.2,3.2c-0.4,1,0,2.1,0.9,2.7l4.8,3.3c1.9,1.3,3.2,3.4,3.3,5.7l0.2,2.4c0.2,2.5-0.1,5-0.9,7.3l-1.1,3.2
					c-0.9,2.7-2.5,5.2-4.6,7.2l-1.4,1.3c-1.9,1.8-4,3.3-6.2,4.7l-2.8,1.6c-3.2,1.8-6.8,2.9-10.5,3.1l-1.9,0.1
					c-3.2,0.1-6.4-0.3-9.4-1.4l-2.7-1c-2.7-1-5.2-2.6-7.2-4.6l-6.3-6.7c-2.5-2.6-4.5-5.5-6.2-8.6l-5.6-10.5
					c-0.1-0.2-0.2-0.4-0.3-0.7l-5.7-14.8l2.4-0.4l4-0.8l3.8-1l3.7-1l4.4-2.2l3.8-1.9l2.9-1.8l2.4-1.5l3.2-2.1l3-2.2L834.6,1347z"/>
				<path class="st4" d="M657.9,1242.8l128,118c2.7,2.5,6.1,4,9.3,4.1l0,0c5.9,0.3,16.5-3.1,16.5-3.1c5.4-2.5,26.8-13.8,23.1-17.4
					l-122.1-122.8l-6.5-2.2l-8.7-1.2l-9.6-0.6l-9.6,0.5l-8.3,1.8l-6.4,4l-3.9,4.1l-2.1,3.9l-0.9,3.9v3.2L657.9,1242.8z"/>
			</g>
		</g>
		<g id="headbody_4_">
			<g id="head_4_">
				<path class="st5" d="M494.7,1039.4l-0.7,6.2c-0.6,4.8-0.8,9.5-0.8,14.3l0,0c0,1.2,0.1,2.5,0.4,3.7l5,20.6l-14.3,8.7l-22.8,5.2
					h-25.1l-23.1-3.6l2.8-16.5c1.4-7.4,2.2-14.8,2.2-22.3l0,0c0-2.3-0.1-4.6-0.4-6.8l-1.4-10.8L494.7,1039.4z"/>
				<path class="st5" d="M427.3,729.6h21.2c15.5,0,31,1.1,46.4,3.3l0,0c11.5,1.7,22.8,4.6,33.7,8.7l0,0c8.3,3.2,15.7,8.2,21.5,14.7
					l0,0c4.8,5.4,8.7,11.6,11.4,18.3l0,0c6.2,15.6,10,32.1,11,48.8l0.3,4.4c1,16.5,1.1,33,0.1,49.5l-1.2,21.2
					c-0.5,8.2-1.3,16.3-2.6,24.5l-1.4,9.1c-5.4,35.4-19.1,69.2-40.2,98.7l-0.9,1.3c-5.4,7.6-12.1,14.2-19.9,19.6l0,0
					c-10,6.9-21.8,11-34,11.7l-3.4,0.2c-15.2,0.9-30.5-0.8-45-5l-2.6-0.8c-22.2-6.4-42.3-18.2-58.4-34.3l0,0
					c-13.3-13.3-24.4-28.5-32.9-45l-1.3-2.5c-9.3-18-16.2-37-20.3-56.7l0,0c-5.3-25-7.1-50.6-5.6-76.1l0.5-9.1
					c0.8-13.2,3.7-26.1,8.7-38.4l0,0c6.1-15.1,15.2-29,26.7-40.9l9-9.3c0.8-0.8,1.7-1.4,2.8-1.8l0,0
					C375.2,734.5,401.1,729.6,427.3,729.6z"/>
				<path class="st6" d="M486.7,837.4l8-2.4c5.4-1.6,11-2.4,16.6-2.4h0.5c8.4,0,16.7,0.6,25,1.8l0,0c3.4,0.5,6.7,1.4,9.9,2.6
					l8.7,3.4c1.6,0.6,3.3-0.5,3.3-2.2v-1.4c0-5.3-1.4-10.5-4-15.2l-1.1-1.9c-1.8-3.2-5.3-5.2-9.2-5.2h-6.2c-4.7,0-9.5,0.3-14.2,0.8
					l-11.7,1.3c-7.6,0.8-15.1,2.7-22.2,5.6l-3.2,1.3c-2.2,0.9-3.6,3-3.6,5.3v6.4C483.3,836.7,485,837.9,486.7,837.4z"/>
				<path class="st6" d="M463.1,834.1v-6.3c0-2.1-1.5-4-3.6-4.7l-11.5-3.4c-4.7-1.4-9.5-2.4-14.4-3.1l-6.5-0.9
					c-5.6-0.8-11.2-0.8-16.8,0.1l-1.7,0.3c-4,0.6-8,1.6-11.9,2.8l-5.8,1.8c-2.1,0.6-4.1,1.4-6.1,2.3l-5.5,2.5
					c-3.7,1.7-6.6,4.6-8.2,8.2l-0.8,1.8c-1.8,4.1-2.7,8.5-2.7,12.9v3.6c0,1.6,1.9,2.6,3.3,1.6l11-7.7c3.9-2.8,8.3-4.8,13-6l3.8-1
					c9.3-2.4,18.9-3.6,28.6-3.6h7.9c1.6,0,3.3,0.1,4.9,0.2l20,1.5C461.6,837,463.1,835.7,463.1,834.1z"/>
				<path class="st7" d="M483.5,896.8l3.3,10.7c2.1,6.8,4.8,13.3,8.1,19.6l2,3.9c2.1,4,4.9,7.5,8.5,10.4l5.2,4.3
					c2.3,1.9,3.6,4.6,3.6,7.5l0,0c0,2-1.1,3.7-3,4.6l0,0c-4.2,2-8.9,3.1-13.7,3.1H470c-2.9,0-5.7-0.7-8.1-2.2l0,0
					c-4.1-2.4-7.3-6-9.1-10.2l0,0c-0.8-1.9-0.6-4.1,0.5-5.9l0.8-1.3c0.9-1.5,2.3-2.6,4-3.3l0.5-0.2c2.3-0.9,4-2.8,4.7-5.1l1.7-6
					c0.9-3.2,1.4-6.4,1.6-9.6l0.9-19.5c0.1-2.5,1.7-4.8,4.2-5.7l0,0c2.6-1,5.5-0.9,8,0.4l0,0C481.6,893.3,483,894.9,483.5,896.8z"/>
				<path class="st8" d="M349.9,911.5v-9.3c0-6.2-0.7-12.5-2.1-18.5l-0.8-3.3c-0.8-3.3-1.4-6.7-1.9-10.1l-0.6-3.9
					c-1.4-9.1-2-18.3-2-27.5v-6.3c0-0.3,0.5-0.4,0.5-0.1l0.7,3.4c0,0.1,0.2,0.1,0.2,0l1.7-13.4c0.1-0.6,0.9-0.7,1.2-0.2l0.4,0.9
					c0.2,0.6,1.1,0.5,1.3-0.1l2.6-8.6c1.5-4.7,4.2-9,7.9-12.4l6.9-6.3c0.9-0.8,2.3-0.7,3,0.2l0,0c0.7,0.9,2,1,2.9,0.2l5.9-5
					c2.5-2.1,6-2.9,9.2-2.2l0,0c1.9,0.5,3.9,0.3,5.7-0.3l9.1-3.3c2.8-1,5.9-1,8.6,0.1l0,0c1.5,0.6,3.2,0.2,4.3-0.8l4.6-4.4
					c0.8-0.8,2.3-0.2,2.3,0.9v1.4l-1.2,4.3c-0.2,0.7,0.7,1.1,1.2,0.6l4.8-5.5l3-3.3c1-1.1,3-0.8,3.5,0.7l0.2,0.6
					c0.8,2.2,3.2,3.3,5.4,2.5l3.6-1.4c2.9-1.1,6-1.2,8.9-0.3l10.1,3.1c1.4,0.4,3,0.5,4.4,0.2l15.1-2.9c4.1-0.8,8.3-1.2,12.5-1.2h6.2
					c3.1,0,6,1.5,7.6,4.1l1.4,2.2c0.6,1,2.1,0.9,2.7,0l1.1-1.8c1.4-2.3,4.2-3.6,6.9-3.2l1.9,0.3c1.9,0.3,3.7,1,5.3,2.2l0,0
					c0.7,0.5,1.5,0.7,2.4,0.5h0.2c3-0.6,6.1-0.4,8.9,0.7l7.1,2.8l2.8,1.4c4.9,2.5,9.3,5.7,13.2,9.4l0,0c1,1,1.9,2.1,2.6,3.3l0,0
					c3.3,5.7,6,11.7,7.9,18l0,0c1,3.2,1.6,6.5,1.8,9.9l0.7,12.5v-16.6c0-4.5-0.4-9-1.1-13.4l-2.9-16.6l1.3,1.9l-4.5-13.1
					c-0.6-1.6-1.2-3.2-1.9-4.8l-5-11.4c-2.2-5.1-5.2-9.8-8.8-14.1l0,0l-7.7-7.4c-4.1-4.3-9.4-6.5-16.8-10.4l-7.4-3.2l-8.1-3.2
					c-6.8-1.8-5.4-2.6-13.5-3.9l-7.4-1.9c-1-0.1-7.8-1-8.8-1.3h-9.4c-5.2-1.4-8.1-0.6-8.1-0.6h-8.1c-0.6,0-9.5,0.1-10.1,0H436
					c-9.4,0-4.7-0.6-12.1,0l-10.1,0.6l-10.1,1.3c-9,0.5-13.6,3.4-22.2,5.8l-8.1,2.6c-4.1,1.2-6.8,3-10.8,4.5l-8,4.2
					c-5.5,2.1-10.4,5.6-14.2,10l-4.5,5.3c-1.2,1.4-2.5,2.8-3.9,4.1l0,0c-4.9,4.7-8.4,10.4-10.4,16.7l0,0c-0.3,0.8-0.6,1.6-1.1,2.3
					l-0.2,0.3c-6.1,9.5-10.8,19.8-13.9,30.5l0,0c-0.9,3-1.5,6.1-1.9,9.2l-1.5,12.2l-0.8,9.6c-0.8,10.4-0.8,20.9,0,31.4l0.7,8.9
					l1.3,16.6l33.7-12.7l4.4,10.8c0.2,0.6,0.4,1.1,0.5,1.7l0,0c0.8,4.1,1.2,8.4,1.2,12.6v5.8c0,1.4,1.6,2.2,2.8,1.3l0,0
					C348.7,916.4,349.9,914,349.9,911.5z"/>
				<ellipse class="st5" cx="322.6" cy="910" rx="19.9" ry="32.1"/>
				<ellipse class="st9" cx="322.6" cy="910" rx="11.8" ry="19"/>
				<path class="st10" d="M469,893.9l3.3,10.1c0.3,1,0.6,2,0.8,3l3.5,15.4c0.6,2.5,1.4,5,2.4,7.4l2.3,5.6c1,2.4,1.5,5,1.5,7.6v3.9
					c0,0.3-0.4,0.4-0.6,0.1l-2.6-5.1c-1-1.9-2.7-3.2-4.8-3.8l-6.2-1.7c-1.3-0.4-2.7-0.6-4.1-0.5h-2.9c-0.2,0-0.3-0.2-0.2-0.3l2-4.7
					c0.6-1.3,1-2.7,1.3-4l1-4.4c0.2-1,0.4-2,0.4-3l0.6-9.5l0.2-8.8c0-0.7,0.1-1.5,0.3-2.2L469,893.9z"/>
				<path class="st11" d="M493.5,866l0.6-1.2c1.7-3.3,4.4-6,7.6-7.8l1.2-0.7c4.3-2.4,9.1-3.6,14-3.6h5.1c3.7,0,7.4,0.5,10.9,1.6
					l4,1.2c3.6,1.1,6.6,3.3,8.8,6.2l1.8,2.4c1.9,2.6,3,5.8,3,9.1v4.8c0,2-0.9,3.9-2.4,5.3l0,0c-4.6,4.1-10.3,6.9-16.4,8.1l-5.8,1.1
					c-5.5,1.1-11.2,0.7-16.5-1.1l0,0c-6.1-2-11.1-6.1-14.1-11.6l-1.7-3C491.8,873.5,491.8,869.4,493.5,866z"/>
				<path class="st11" d="M451.5,866l-0.6-1.2c-1.7-3.3-4.4-6-7.6-7.8l-1.2-0.7c-4.3-2.4-9.1-3.6-14-3.6H423
					c-3.7,0-7.4,0.5-10.9,1.6l-4,1.2c-3.6,1.1-6.6,3.3-8.8,6.2l-1.8,2.4c-1.9,2.6-3,5.8-3,9.1v4.8c0,2,0.9,3.9,2.4,5.3l0,0
					c4.6,4.1,10.3,6.9,16.4,8.1l5.8,1.1c5.5,1.1,11.2,0.7,16.5-1.1l0,0c6.1-2,11.1-6.1,14.1-11.6l1.7-3
					C453.2,873.5,453.3,869.4,451.5,866z"/>
				<path class="st12" d="M395,869.1l1-1.8c0.5-0.9,1.1-1.7,1.8-2.5l0.5-0.6c1.2-1.4,2.6-2.6,4.1-3.7l0,0c1.6-1.1,3.4-2,5.2-2.7
					l0.2-0.1c1.6-0.6,3.3-1.1,4.9-1.4l1.5-0.3c1.3-0.3,2.7-0.5,4-0.7l0.6-0.1c1.8-0.2,3.7-0.3,5.5-0.3h1.5c1.2,0,2.4,0.1,3.6,0.2
					l2.4,0.3c1.2,0.1,2.4,0.3,3.6,0.6l1.1,0.2c2.1,0.4,4.1,1.1,6.1,2.1l1.7,0.8c0.5,0.2,1,0.5,1.5,0.9l0,0c1.8,1.4,3.3,3,4.6,4.8
					l1.2,1.8l-1.1-3.2l-1.2-2.1c-1-1.6-2.2-3.1-3.7-4.3l0,0c-1.7-1.4-3.5-2.5-5.5-3.3l0,0c-2-0.9-4.2-1.5-6.4-1.9l0,0
					c-2.7-0.5-5.5-0.7-8.3-0.7h-0.3c-2.4,0-4.8,0.2-7.1,0.6l-0.9,0.1c-2.4,0.4-4.8,1-7.1,1.7l-1.2,0.4c-2.3,0.7-4.3,1.9-6.1,3.4
					l-0.1,0.1c-1.7,1.4-3.2,3.1-4.4,4.9l-0.8,1.2l-0.8,1.6c-0.4,0.7-0.7,1.4-0.9,2.1L395,869.1z"/>
				<path class="st12" d="M492.4,869.1l1-1.8c0.5-0.9,1.1-1.7,1.8-2.5l0.5-0.6c1.2-1.4,2.6-2.6,4.1-3.7l0,0c1.6-1.1,3.4-2,5.2-2.7
					l0.2-0.1c1.6-0.6,3.3-1.1,4.9-1.4l1.5-0.3c1.3-0.3,2.7-0.5,4-0.7l0.6-0.1c1.8-0.2,3.7-0.3,5.5-0.3h1.5c1.2,0,2.4,0.1,3.6,0.2
					l2.4,0.3c1.2,0.1,2.4,0.3,3.6,0.6l1.1,0.2c2.1,0.4,4.1,1.1,6.1,2.1l1.7,0.8c0.5,0.2,1,0.5,1.5,0.9l0,0c1.8,1.4,3.3,3,4.6,4.8
					l1.2,1.8l-1.1-3.2l-1.2-2.1c-1-1.6-2.2-3.1-3.7-4.3l0,0c-1.7-1.4-3.5-2.5-5.5-3.3l0,0c-2-0.9-4.2-1.5-6.4-1.9l0,0
					c-2.7-0.5-5.5-0.7-8.3-0.7h-0.3c-2.4,0-4.8,0.2-7.1,0.6l-0.9,0.1c-2.4,0.4-4.8,1-7.1,1.7l-1.2,0.4c-2.3,0.7-4.3,1.9-6.1,3.4
					l-0.1,0.1c-1.7,1.4-3.2,3.1-4.4,4.9l-0.8,1.2L494,865c-0.4,0.7-0.7,1.4-0.9,2.1L492.4,869.1z"/>
			</g>
			<g id="body_4_">
				<path class="st13" d="M415.5,1081.4l-6.7,1.9c-3.5,1-6.8,2.7-9.6,4.9l-7.6,6.2c-1.3,1.1-2.3,2.5-2.9,4.1l-0.9,2.6
					c-0.9,2.6-1,5.4-0.4,8.1l1.4,5.7c0.4,1.8,1.6,3.3,3.2,4.2l2.5,1.5c4.2,2.6,8.9,4.4,13.8,5.4l6.4,1.3c2.5,0.5,5,0.7,7.6,0.7h16.3
					c1.3,0,2.6-0.1,3.8-0.2l15.2-1.4c1.5-0.1,3-0.1,4.4,0l13.1,1.1c3.1,0.3,6,1.2,8.6,2.8l6.8,4.1l7.2-6.9c2.1-2,4.3-3.9,6.7-5.6
					l8.6-6.1l6.9-4.9c2.9-2,5.3-4.6,7-7.6l0.8-1.3c0.7-1.2,1.2-2.4,1.5-3.7l0.9-4c0.6-2.6,0.5-5.4-0.3-7.9l-0.6-2
					c-0.6-2-1.6-4-2.9-5.7l-1.4-1.8c-2.3-3-5.4-5.3-9-6.6l-2.9-1.1c-2.1-0.8-4.3-1.1-6.5-1.1l-12.1-0.2l1.1,4.5l7,1.1l5.8,1l3.5,1.3
					l2.8,1.3l2.2,1.6l2.1,2.6l1.3,1.8l2.3,3.5l0.6,2l-0.3,2.4l-2.1,4l-1.6,2.2l-2.4,2.2l-2.6,1.7l-7,4.4l-16.4,10.5l-1.7,0.4
					l-12.4-1.1l-7.3-0.7l-3.3-0.1l-14.2,1.1l-10.3,1l-8,1.4l-6.8,1.2l-3.8,0.2h-7.4h-4.2l-3.8-0.3l-3.6-1.3l-3-2.1l-3.3-3.2
					l-1.7-3.2l-0.6-3.7l0.2-3.3l0.8-2.6l2.1-3.1l1.3-1.4c1.5-1.6,3.9-2.9,6.8-3.7l0,0l7.6-3L415.5,1081.4z"/>
				<path class="st14" d="M490.7,1134.5v54.5l7.9,52.9l7.7,61.7v44.1l-7.7,52.9l33-8.4c12.6-3.2,24.5-8.8,34.8-16.5l10.6-7.8
					c6.1-4.5,10.2-11.1,11.3-18.4l6-38.2c1.9-12,2.9-24.1,2.9-36.3v-32c0-11.6-1-23.1-2.9-34.5l-11.3-67.6
					c-0.7-4.3-1.6-8.6-2.6-12.8l-2.7-11.2c-1.7-7.1-4-14.1-6.8-20.9l-2.7-6.4c-1.7-4.2-4.9-7.7-8.9-10l-2-1.2
					c-6.8-3.9-14.5-6.3-22.4-6.9l-20-1.5l1,0.4c3.6,1.3,6.8,3.6,9,6.6l1.8,2.4c1,1.4,1.8,2.9,2.3,4.5l0.1,0.4
					c1.2,4.1,1.4,8.3,0.4,12.4l-0.8,3.7l-1.8,3.1c-1.7,2.9-4.1,5.5-6.9,7.5l-6.9,4.9l-12.1,8.6L490.7,1134.5z"/>
				<path class="st14" d="M453.5,1406.5l-23.9,3.7c-9.5,1.5-19.2,2.2-28.8,2.2h-15.9c-8.2,0-16.3-1.7-23.8-4.9l-3.5-1.5
					c-7.9-3.4-13.8-10.2-15.7-18.4l-5.3-22.5c-1.4-5.8-2.5-11.6-3.3-17.5l-3.2-22.5c-1.6-11.2-2.4-22.5-2.4-33.8v-33v-45.9
					c0-6.7,0.3-13.3,0.9-19.9l2.9-31.3c0.3-3.4,0.8-6.8,1.4-10.1l2.9-15.3c0.9-4.6,2.5-9,4.7-13.2l0,0c2.2-3.9,4.9-7.6,8-10.8
					l0.9-0.9c3.2-3.3,6.9-6,11-8.2l2.3-1.2c4.4-2.3,8.9-4.2,13.6-5.8l23.1-7.6l-6.5,5.3c-2.1,1.7-3.6,3.9-4.5,6.3l-0.1,0.2
					c-1.1,3.3-1.3,6.8-0.5,10.2l0.5,1.9c0.9,3.5,3.2,6.6,6.4,8.5l0,0c4.2,2.6,8.9,4.4,13.8,5.3l4.5,0.9c3.8,0.7,7.7,1.1,11.5,1.1
					h13.8c1.6,0,3.1-0.1,4.7-0.2l14.5-1.3c1.6-0.1,3.2-0.1,4.8,0l14.4,1.2c2.1,0.2,4.1,0.8,5.9,1.9l8.1,4.8v54.5l7.9,52.9l7.7,61.7
					v44.1l-7.7,52.9L453.5,1406.5z"/>
				<path class="st5" d="M414.3,1088.9l81.4-16.5l10.6,1.7c1.6,0.2,3.1,0.7,4.6,1.3l2.7,1.1c2.1,0.9,3.9,2.3,5.1,4.2l3.5,5.1
					c1.3,1.9,1.5,4.4,0.3,6.4l-1.2,2.1c-1.4,2.5-3.4,4.7-5.9,6.2l-9.2,5.8l-15.3,9.9c-0.5,0.3-1.1,0.5-1.7,0.4l-18.4-1.7
					c-2.7-0.3-5.4-0.3-8.2,0l-18.2,1.6c-1.3,0.1-2.7,0.3-4,0.5l-11.9,2.2c-1.8,0.3-3.7,0.5-5.5,0.5h-12.3c-3.3,0-6.5-1.1-9-3.1
					l-2-1.6c-2.8-2.2-4.4-5.5-4.4-9v-1.2c0-2.9,1.1-5.7,3.1-7.8l0.8-0.8c1.4-1.5,3.2-2.7,5.2-3.5L414.3,1088.9z"/>
				<path class="st15" d="M488.3,1133l2.4,1.4l2.6-2.5v38.8c0,12.9,1,25.8,2.9,38.6l5.3,35.3l5.6,49.2c0.8,7.3,1.2,14.6,1.2,21.9
					v18.6c0,10.3-0.8,20.6-2.5,30.8l-5.6,35l-1.7,0.4l-2.9,0.4l6-35.5c1.9-11.2,2.8-22.6,2.7-34l-0.1-15.3
					c-0.1-7.6-0.6-15.2-1.5-22.7l-6.1-48.5l-5.5-35.7c-2-13-3-26.1-3-39.3V1133H488.3z"/>
				<path class="st3" d="M349.4,1400.6v19c0,2.3,0.2,4.6,0.6,6.9l0,0c-0.3,5.1,5.2,9.7,13.7,11.3l14.6,2.8l53.1,0.9l120.9-26.6
					l37.2-19.4l-7.2-34l-7.4,7.1c-2.2,2.2-4.7,4.1-7.3,5.9l-10,6.7c-1.7,1.1-3.4,2.1-5.3,3l-8.5,4l-8.8,2.4
					c-2.3,1.1-4.7,1.9-7.2,2.5l-27.7,7l-16.9,2.4l-33.1,4.4l-24.5,3.7l-15.7,1.4c-1.8,0.2-3.6,0.2-5.4,0.2h-16.8
					c-1.9,0-3.7-0.1-5.5-0.3l-6.8-0.8c-3.4-0.4-6.7-1.2-9.9-2.3l-2.9-1c-3.3-1.2-6.5-2.8-9.4-4.7L349.4,1400.6z"/>
			</g>
		</g>
		<g id="mouthsmile">
			<path class="st16" d="M430.6,963.2l19.2,4.3c4.1,0.9,8.2,1.5,12.4,1.7l9.3,0.6c5.7,0.3,11.4,0.1,17-0.8l11.2-1.8
				c3.8-0.6,7.5-1.5,11.1-2.7l15.3-5c2.2-0.7,4.5-1.3,6.8-1.8l8.4-1.8c4.3-0.9,8.8-1,13.1-0.4l4.8,0.7c0.7,0.1,1.4,0.4,2,0.8l0,0
				c1.3,0.9,1.9,2.5,1.4,4l-3.4,11.3c-0.7,2.2-1.4,4.4-2.2,6.5l-3.4,9c-2,5.2-4.4,10.3-7.2,15.1l-5.6,9.6l-8.7,14.1
				c-1.4,2.3-3,4.6-4.6,6.8l0,0c-4.7,6.1-10.1,11.7-16.1,16.6l-1.4,1.2c-3.1,2.5-6.5,4.6-10.2,6.1l-5.7,2.4
				c-2.8,1.2-5.6,2.1-8.6,2.7l-7.9,1.5c-5.2,1-10.4,1.5-15.7,1.5h-6c-6.8,0-13.6-0.7-20.2-2l-1.7-0.3c-9.2-1.9-18.2-4.7-26.7-8.4
				l-8.3-3.7c-3.4-1.5-6.6-3.1-9.8-5l-5.3-3.1c-5.7-3.3-10.9-7.2-15.7-11.7l-3.9-3.6c-1.8-1.7-3.6-3.5-5.2-5.5l-11.7-14
				c-2-2.4-3.7-4.9-5.1-7.6l-3.3-6c-2.1-3.8-3.2-8.1-3.2-12.4v-1.8c0-3.5,1-6.9,3-9.8l0,0c2.3-3.5,5.5-6.4,9.2-8.4l3-1.6
				c3.2-1.8,6.7-3.1,10.3-3.9l0,0c7-1.6,14.2-2.4,21.5-2.4h6.6c5.5,0,11,0.6,16.3,1.8l6.8,1.5c1.2,0.3,2.3,0.6,3.4,1l6.5,2.2
				C425.3,961.9,427.9,962.6,430.6,963.2z"/>
			<path class="st5" d="M407.2,975l1.5-0.3c2.3-0.4,4.6-0.2,6.8,0.6l7.5,2.7c0.6,0.2,1.1,0.4,1.7,0.5l16.7,4.5
				c0.9,0.3,1.9,0.5,2.8,0.7l8.1,1.7c4,0.8,8.1,1.2,12.2,1.2h14.3c1.8,0,3.6-0.1,5.4-0.3l8-0.7c5-0.5,9.9-1.4,14.6-2.8l2.9-0.9
				c6.4-1.9,12.5-4.6,18.1-8l6-3.6l7-3.9c1.5-0.9,3.4-0.9,5-0.2l0,0c2.2,1,3.6,3,3.6,5.3v2.3c0,2.3-0.5,4.6-1.3,6.8l-4,9.7
				c-0.5,1.3-1.2,2.5-1.9,3.7l-8.4,13.7c-1,1.6-2.1,3-3.5,4.3l-7.3,7c-2.1,2-4.6,3.6-7.3,4.8l-15.5,6.5c-2.5,1.1-5.2,1.8-7.9,2.2
				l-12.1,1.8c-2.3,0.3-4.6,0.5-6.8,0.3l-14.4-0.7c-5-0.2-10-1.2-14.8-2.8l-8-2.7c-5-1.7-9.5-4.5-13.3-8l-3.1-2.9
				c-2.4-2.2-4.3-4.9-5.6-7.9l-5-11.3c-0.4-0.9-0.7-1.8-1-2.8l-3.3-11.2c-0.4-1.4-0.6-2.8-0.6-4.3v-1.3
				C404,976.9,405.3,975.3,407.2,975z"/>
			<path class="st17" d="M411,979.6L411,979.6c10.3,5.3,20.9,9,31.8,11l4.5,0.8c7.9,1.5,15.9,2.2,23.9,2.2h7.7
				c9.1,0,18.2-1.4,27.2-4l3.1-0.9c7-2.1,13.7-5.5,20.1-10l13.3-9.5c1.8-1.3,3.8,1.4,2.9,4.1l0,0c-2.9,8.8-6.8,17-11.3,24.3l-6.2,10
				c-3.1,4.9-6.9,8.5-11.3,10.6l-6.8,3.2c-5.3,2.5-10.7,4.2-16.2,5.1l-20.1,3.2c-6.2,1-12.4,0.8-18.6-0.6l-10.4-2.3
				c-8-1.8-15.6-6.8-21.7-14.4l-0.3-0.3c-4.4-5.5-7.8-12.4-10-20.1c0,0-2.2-7.8-2.9-10.4C409.3,980.4,410.1,979.2,411,979.6z"/>
			<path class="st18" d="M444.4,1026.9l5.4-5c6.3-5.9,13.1-10.2,20.4-12.9l0.7-0.3c4.8-1.8,9.9-0.4,13.9,3.7l0,0
				c2,2.1,4.9,1.6,6.5-1.2l0.5-0.8c2.8-4.8,7-7.5,11.3-7.5h1.8c5.6,0,11.1,1.1,16.4,3.3l5.9,2.4l0,0c-2.6,4.2-6,7.4-9.8,9.2
				l-9.7,4.6c-3.9,1.9-7.9,3.1-12,3.8l-24.1,3.9c-4.9,0.8-9.9,0.7-14.9-0.4L444.4,1026.9z"/>
			<path class="st11" d="M419.4,983.5l4.3,7.1l5.8,3.8c2.3,1.5,5,2.7,8.1,3.7l4.3,1.3c3,0.9,6.3,1.6,9.6,1.9l10.2,1.1
				c2.2,0.2,4.4,0.4,6.6,0.4h13c2.8,0,5.7-0.2,8.4-0.6l9.1-1.3c5.3-0.8,10.2-2.2,14.3-4.3l6.5-3.2c2.4-1.2,4.5-2.5,6.2-4l8.3-7.3
				c1.2-1.1,2.3-2.2,3.1-3.4l3-4.3l0.7-4.1l-4.7,3.4l-9.9,6.9c-1.1,0.7-2.2,1.4-3.5,2L516,986c-1.9,0.9-4,1.7-6.3,2.3l-10.5,2.9
				c-2,0.5-4.1,1-6.2,1.3l-4.4,0.6c-2,0.3-4,0.4-6,0.4l-12,0.2c-1.7,0-3.4,0-5-0.2l-11-0.9c-1.7-0.1-3.5-0.4-5.1-0.7l-10.7-2.1
				c-1.9-0.4-3.7-0.8-5.4-1.4L419.4,983.5z"/>
			<path class="st11" d="M426.6,1016.7l7,0.3l6,2.6c2.2,1,4.6,1.8,7.1,2.4l3.1,0.7c3.9,0.9,8,1.4,12.3,1.4h6.7
				c3.1,0,6.2-0.3,9.2-0.8l11.2-1.9c1.4-0.2,2.7-0.5,4-0.9l10.3-2.7c2.3-0.6,4.4-1.3,6.4-2.2l5.1-2.3c2.2-1,4.2-2.1,5.9-3.4l6.7-5.2
				h2.1l-4,5.9c-0.6,0.9-1.4,1.8-2.4,2.6l-2.8,2.4c-0.8,0.7-1.7,1.3-2.7,1.9l-4.3,2.5c-0.7,0.4-1.4,0.7-2.1,1.1l-4.3,1.9
				c-1.7,0.8-3.6,1.4-5.6,1.8l-5.4,1.2c-0.7,0.2-1.4,0.3-2.2,0.4l-7.9,1.3l-6.7,1.1l-5.6,1c-1.5,0.3-3,0.4-4.5,0.5l0,0
				c-2.1,0.1-4.3,0.1-6.4-0.1l-2.9-0.3c-1.3-0.1-2.6-0.3-3.8-0.6l-6.1-1.3l-4.9-1.1c-1.7-0.4-3.3-0.9-4.8-1.5l-2.3-1
				c-1.4-0.6-2.6-1.2-3.7-2l-2.5-1.7c-0.7-0.4-1.3-0.9-1.9-1.4L426.6,1016.7z"/>
		</g>
		<g id="pupils">
			<ellipse class="st19" cx="423.1" cy="872.9" rx="12.5" ry="12"/>
			<ellipse class="st19" cx="521.4" cy="872.9" rx="12.5" ry="12"/>
		</g>
		<g id="right-armex">
			<path id="second-right-arm" class="st20" d="M327.3,1159.8l5.7,11.5l7.4,9.1l120.5,117.9c2.1,2,9.7,5.7,9.7,5.7l8.5,2.3h9.1
				l10-1.3l10-1.6l8.3-3.7l5.1-5.4l2.6-5.7v-6.7l-2.9-7l-139.8-139.6c-5.3-5.3-14.3-12.6-18.4-15.8c-1.4-1.1-2.9-2-4.4-2.6l-0.9-0.3
				c-3.9-1.6-8-1.8-11.5-0.5l-3.2,1.1c-1.9,0.6-3.6,1.6-5.2,2.8l-6.2,4.7l-4.6,4.4l-2.7,8.5l0.1,11.8L327.3,1159.8z"/>
			<g id="first-right-arm">
				<path class="st21" d="M568.5,1488c-4.6-3-3.9-9.9,1.2-11.9l371.6-146.4l115.1-51.2l66.5-26.5l14.3,0.5l14,7.5l-0.4,10.3
					l-6.4,11.5l-30.3,15l-39.8,13.9l-32,7.9c-15.6,3.8-31,8.7-46.1,14.6L587.9,1492c-5.3,2-11.2,1.4-15.9-1.7L568.5,1488z"/>
				<path class="st5" d="M655.7,1413.2l8,1.7c1.6,0.5,3.2,1.1,4.7,1.9l11.6,5.5c1.8,0.9,3.3,2.3,4.2,4l2.2,4.4
					c0.8,1.6,0.9,3.5,0.3,5.2l-1.3,3.5c-0.4,1.1,0,2.3,1,2.9l5.3,3.6c2.1,1.5,3.5,3.8,3.7,6.3l0.2,2.6c0.2,2.7-0.1,5.5-1,8.1
					l-1.2,3.5c-1,3-2.7,5.7-5.1,7.9l-1.5,1.4c-2.1,2-4.4,3.7-6.9,5.1l-3.1,1.8c-3.5,2-7.5,3.2-11.5,3.4l-2.1,0.1
					c-3.5,0.2-7.1-0.4-10.4-1.5l-3-1.1c-3-1.1-5.7-2.8-7.9-5.1l-7-7.3c-2.7-2.8-5-6-6.8-9.4l-6.2-11.6c-0.1-0.2-0.2-0.5-0.4-0.7
					l-6.3-16.4l2.7-0.4l4.4-0.8l4.2-1.1l4-1.1l4.9-2.4l4.1-2.1l3.2-1.9l2.7-1.6l3.6-2.3l3.3-2.4L655.7,1413.2z"/>
				<path class="st20" d="M460.9,1298.3L602,1428.4c3,2.8,6.7,4.4,10.3,4.6l0,0c6.5,0.3,18.2-3.5,18.2-3.5
					c6-2.7,29.5-15.2,25.5-19.2l-134.7-135.4l-7.1-2.4l-9.6-1.3l-10.6-0.7l-10.6,0.6l-9.1,2l-7.1,4.4l-4.3,4.6l-2.3,4.3l-1,4.3v3.6
					L460.9,1298.3z"/>
				<path class="st22" d="M1068.7,1264.3l31.4-15.1c4.8-2.3,10.7-2,16,0.8l0,0c5.6,3,10.4,7.5,13.6,12.9l8.5,14.1
					c9.1,15.2,20.3,29.2,33.1,41.7l10.3,10c11.1,10.8,23.6,20,37.1,27.3l37.5,20.3c2.9,1.6,3.6,5.3,1.5,7.2l-25.4,22
					c-9.1,7.8-19,14.6-29.7,20.3l0,0c-12.7,6.7-26.4,11.9-40.8,15.4l-32.1,7.9c-2,0.5-4.2-1.1-4.4-3.2l-4.4-36.4
					c-2.6-21.4-8-42.8-16.1-63.6l-2.7-6.8c-2.9-7.5-6.7-14.7-11.2-21.6l-15.9-24.2c-4.7-7.1-7.8-14.9-9.2-22.8l0,0
					C1065.4,1267.8,1066.5,1265.4,1068.7,1264.3z"/>
			</g>
		</g>
	</g>
</g>
</svg>
