<?xml version="1.0" encoding="utf-8"?>
<!-- Generator: Adobe Illustrator 21.1.0, SVG Export Plug-In . SVG Version: 6.00 Build 0)  -->
<svg version="1.1" id="game" xmlns="http://www.w3.org/2000/svg" xmlns:xlink="http://www.w3.org/1999/xlink" x="0px" y="0px"
	 viewBox="0 0 1668 2224" style="enable-background:new 0 0 1668 2224;" xml:space="preserve">
<style type="text/css">
	.st0{fill:url(#gradient4_1_);}
	.st1{fill:url(#gradient5_1_);}
	.st2{fill:#66E2FF;}
	.st3{fill:none;stroke:#B28052;stroke-miterlimit:10;}
	.st4{fill:#96735C;}
	.st5{fill:#825D49;stroke:#BF8A5E;stroke-miterlimit:10;}
	.st6{fill:#AD7D5C;stroke:#B28052;stroke-miterlimit:10;}
	.st7{fill:#BC8864;stroke:#B28052;stroke-miterlimit:10;}
	.st8{fill:#A37B61;}
	.st9{fill:#BC8866;}
	.st10{fill:#E0A57E;stroke:#B28052;stroke-miterlimit:10;}
	.st11{fill:#D19A7C;stroke:#B28052;stroke-miterlimit:10;}
	.st12{fill:#F4DBCE;}
	.st13{fill:#DBC7BF;}
	.st14{fill:#8E684F;stroke:#BF8A5E;stroke-miterlimit:10;}
	.st15{fill:#AD753E;}
	.st16{fill:#966636;}
	.st17{fill:#A87339;}
	.st18{fill:#BC8651;}
	.st19{fill:#AA7A4F;}
	.st20{fill:#C99465;}
	.st21{fill:none;stroke:#634B2A;stroke-miterlimit:10;}
	.st22{fill:#B28052;}
	.st23{fill:#96674D;stroke:#A57758;stroke-width:3;stroke-miterlimit:10;}
	.st24{fill:none;stroke:#A57758;stroke-width:3;stroke-miterlimit:10;}
	.st25{fill:#5C7552;}
	.st26{fill:#E2CA96;}
	.st27{fill:#EAD7A2;}
	.st28{fill:#F9F2EF;}
	.st29{fill:#382C26;}
	.st30{fill:#936F5F;}
	.st31{fill:#7C655C;}
	.st32{fill:#F9A182;}
	.st33{fill:#DBC697;}
	.st34{fill:#8C7857;}
	.st35{fill:#6F8763;}
	.st36{fill:#635872;}
	.st37{fill:#6B7F60;}
	.st38{fill:#755D3F;}
	.st39{fill:#C9B8A7;}
	.st40{fill:#00CFFF;}
	.st41{fill:#03CDE2;}
	.st42{fill:#00DBFF;}
	.st43{fill:#00E7FF;}
	.st44{fill:#00F3FF;}
	.st45{fill:#2EFFF9;}
	.st46{fill:#78FFF8;}
	.st47{fill:#FFF0BF;}
	.st48{fill:#F7E4A6;}
	.st49{fill:#BCCC60;}
	.st50{fill:url(#sea_1_);}
	.st51{fill:#D6C8A3;}
	.st52{fill:#D3C7A7;}
	.st53{fill:#DBCDAF;}
	.st54{fill:#98958C;}
	.st55{fill:#C2BEB5;}
	.st56{fill:#ACA7A1;}
	.st57{fill:#ADA8A2;}
	.st58{fill:#D3CAB2;}
	.st59{fill:#8D8880;}
	.st60{fill:#99968D;}
	.st61{fill:#C2BDB3;}
	.st62{fill:#DDCFAF;}
	.st63{fill:#CCBFA6;}
	.st64{fill:#9B988F;}
	.st65{fill:#8B877E;}
	.st66{fill:#B9B2AA;}
	.st67{fill:#C3BFB6;}
	.st68{fill:#CED18B;}
	.st69{fill:#C6BBA5;}
	.st70{fill:#CEC2AA;}
	.st71{fill:#CCC1AA;}
	.st72{fill:#C4BFB3;}
	.st73{fill:#99968B;}
	.st74{fill:#969089;}
	.st75{fill:#939189;}
	.st76{fill:#B7B5AB;}
	.st77{fill:#C9BDA6;}
	.st78{fill:#C6BBA7;}
	.st79{fill:#BAB3A6;}
	.st80{fill:#9E9C95;}
	.st81{fill:#CCC0A8;}
	.st82{fill:#A5A299;}
	.st83{fill:#C4BCA9;}
	.st84{fill:#B5AD9E;}
	.st85{fill:#9A978E;}
	.st86{fill:#8D877F;}
	.st87{fill:#B8B1AA;}
	.st88{fill:#C3BFB4;}
	.st89{fill:#C5BEB6;}
	.st90{fill:#B5B3AC;}
	.st91{fill:#D5D1C6;}
	.st92{fill:#BCB4B1;}
	.st93{fill:#999793;}
	.st94{fill:#8E8E87;}
	.st95{fill:#A3A19D;}
	.st96{fill:#B5B4B1;}
	.st97{fill:#A8A7A7;}
	.st98{fill:#A09D97;}
	.st99{fill:#D3CFC3;}
	.st100{fill:#ADAAA6;}
	.st101{fill:#B2B1AF;}
	.st102{fill:#9B978F;}
	.st103{fill:#AAA7A0;}
	.st104{fill:#CCC8C4;}
	.st105{fill:#D3D0CD;}
	.st106{fill:#C9C3BD;}
	.st107{fill:#B2AFA8;}
	.st108{fill:#999692;}
	.st109{fill:#898683;}
	.st110{fill:#A3A29B;}
	.st111{fill:#B2AEAA;}
	.st112{fill:#D6D0C9;}
	.st113{fill:#918D87;}
	.st114{fill:#DBD5C6;}
	.st115{fill:#B7B3AE;}
	.st116{fill:#C4C1BB;}
	.st117{fill:#9B9891;}
	.st118{fill:#D8D5CB;}
	.st119{fill:#939089;}
	.st120{fill:#A8A6A0;}
	.st121{fill:#D8D5D0;}
	.st122{fill:#A8A49B;}
	.st123{fill:#96928A;}
	.st124{fill:#CEC8C2;}
	.st125{fill:#C4996C;}
	.st126{fill:#B7845A;}
	.st127{fill:#D5A776;}
	.st128{fill:#477F16;}
	.st129{fill:#436818;}
	.st130{fill:#AA7B43;}
	.st131{fill:#B79056;}
	.st132{fill:#AD9655;}
	.st133{fill:#DD9D68;}
	.st134{fill:#C18B59;stroke:#A87848;stroke-miterlimit:10;}
	.st135{fill:#B28056;}
	.st136{fill:#AD7D59;}
	.st137{fill:#AA7D5C;}
	.st138{fill:#DDCBBF;}
	.st139{fill:#DBDAD9;}
	.st140{fill:#D8A380;}
	.st141{fill:#CE987A;}
	.st142{fill:#CC9D85;}
	.st143{fill:#C6977F;}
	.st144{fill:#C19784;}
	.st145{fill:#C69B8B;}
	.st146{fill:#B7958B;}
	.st147{fill:#AF8958;}
	.st148{fill:url(#gradient_1_);}
	.st149{fill:#997933;}
	.st150{fill:#937334;}
	.st151{fill:#A9DB52;}
	.st152{fill:#96C639;}
	.st153{fill:#82B71C;}
	.st154{fill:#B6E55C;}
	.st155{fill:#90C125;}
	.st156{fill:#A9D146;}
	.st157{fill:#8E7036;}
	.st158{fill:#846939;}
	.st159{fill:#78A038;stroke:#81AD2B;stroke-width:3;stroke-miterlimit:10;}
	.st160{fill:#658E30;}
	.st161{fill:#85AA44;}
	.st162{fill:#7EAF31;}
	.st163{fill:url(#gradient2_1_);}
	.st164{fill:url(#gradient3_1_);}
	.st165{fill:#B67D56;}
	.st166{fill:#83492A;}
	.st167{fill:#9C6038;}
	.st168{fill:#683920;}
	.st169{fill:#563119;}
	.st170{fill:#CC9E75;}
	.st171{fill:#633A23;}
	.st172{fill:#967A60;}
	.st173{fill:#C9D1D3;}
	.st174{fill:#635C55;}
	.st175{fill:#65868F;}
	.st176{fill:#6CC1A0;}
	.st177{fill:#EFCE8E;}
	.st178{fill:#60523B;}
	.st179{fill:#EFC58E;}
	.st180{fill:#6D5D41;}
	.st181{fill:#E8C192;}
	.st182{fill:#EFCA7F;}
	.st183{fill:#FFFFFF;}
	.st184{fill:#E5C57C;}
	.st185{fill:#59585E;}
	.st186{fill:#6FC9A9;}
	.st187{fill:#686770;}
	.st188{fill:#3F3831;}
	.st189{fill:#7F6752;}
	.st190{fill:#777770;}
	.st191{fill:#F29575;}
	.st192{fill:#86D1B1;}
	.st193{fill:#D98D31;}
	.st194{fill:#B5B5B5;}
</style>
<g id="first-right-arm_2_">
	<path class="st193" d="M683.3,1389.4l38.5-16.9c2.7-1.2,5.3-2.7,7.9-4.4l253-176.3l75.9-59.7l43.9-31l9.4,0.6l9.2,8.7l-0.3,12
		l-4.2,13.4l-20,17.5l-26.3,16.2l-21.5,12.7L744,1384.7l-25.5,14.6c-3.5,2-6.8,4.7-10,8l-1.2,1.3c-2.6,2.8-5.6,4.1-8.6,3.9l-10-0.6
		c-2.9-0.2-5.6-3.2-6.9-7.8l-1.2-4.2C679.4,1395.7,680.7,1390.5,683.3,1389.4z"/>
	<path class="st177" d="M744.6,1324l5.3,2c1.1,0.6,2.1,1.3,3.1,2.2l7.7,6.4c1.2,1,2.2,2.7,2.8,4.7l1.5,5.1c0.5,1.9,0.6,4.1,0.2,6.1
		l-0.9,4.1c-0.3,1.3,0,2.7,0.6,3.4l3.5,4.2c1.4,1.7,2.3,4.4,2.4,7.3l0.1,3.1c0.1,3.2-0.1,6.4-0.7,9.4l-0.8,4.1
		c-0.7,3.5-1.8,6.6-3.3,9.2l-1,1.7c-1.4,2.3-2.9,4.3-4.5,6l-2.1,2.1c-2.3,2.4-4.9,3.7-7.6,3.9l-1.4,0.1c-2.3,0.2-4.7-0.4-6.8-1.8
		l-2-1.2c-2-1.3-3.8-3.3-5.2-6l-4.6-8.6c-1.8-3.3-3.3-7-4.5-11l-4.1-13.6c-0.1-0.3-0.2-0.6-0.2-0.8l-4.1-19.1l1.7-0.5l2.9-1l2.8-1.3
		l2.7-1.3l3.2-2.8l2.7-2.5l2.1-2.3l1.8-1.9l2.4-2.7l2.1-2.8L744.6,1324z"/>
	<path class="st192" d="M616.1,1190.1l93.1,151.7c2,3.2,4.4,5.1,6.8,5.3l0,0c4.3,0.3,12-4,12-4c3.9-3.2,19.5-17.8,16.8-22.4
		L656,1162.7l-4.7-2.8l-6.3-1.5l-7-0.8l-7,0.7l-6,2.3l-4.7,5.2l-2.8,5.3l-1.5,5l-0.7,5v4.2L616.1,1190.1z"/>
	<path class="st194" d="M1066.7,1115.5l20.7-17.6c3.2-2.7,7.1-2.3,10.6,0.9l0,0c3.7,3.5,6.8,8.7,9,15.1l5.6,16.4
		c6,17.7,13.4,34.1,21.8,48.6l6.8,11.7c7.3,12.6,15.6,23.3,24.5,31.9l24.7,23.7c1.9,1.8,2.4,6.2,1,8.4l-16.7,25.6
		c-6,9.1-12.5,17.1-19.6,23.6l0,0c-8.4,7.8-17.4,13.8-26.9,17.9l-21.2,9.2c-1.3,0.6-2.8-1.3-2.9-3.7l-2.9-42.5
		c-1.7-25-5.3-49.9-10.6-74.2l-1.8-8c-1.9-8.7-4.4-17.2-7.4-25.2l-10.5-28.2c-3.1-8.3-5.1-17.3-6.1-26.6l0,0
		C1064.5,1119.5,1065.3,1116.8,1066.7,1115.5z"/>
</g>
</svg>
