<?xml version="1.0" encoding="utf-8"?>
<!-- Generator: Adobe Illustrator 21.1.0, SVG Export Plug-In . SVG Version: 6.00 Build 0)  -->
<svg version="1.1" id="game" xmlns="http://www.w3.org/2000/svg" xmlns:xlink="http://www.w3.org/1999/xlink" x="0px" y="0px"
	 viewBox="0 0 1668 2224" style="enable-background:new 0 0 1668 2224;" xml:space="preserve">
<style type="text/css">
	.st0{fill:url(#gradient4_1_);}
	.st1{fill:url(#gradient5_1_);}
	.st2{fill:#66E2FF;}
	.st3{fill:none;stroke:#B28052;stroke-miterlimit:10;}
	.st4{fill:#96735C;}
	.st5{fill:#825D49;stroke:#BF8A5E;stroke-miterlimit:10;}
	.st6{fill:#AD7D5C;stroke:#B28052;stroke-miterlimit:10;}
	.st7{fill:#BC8864;stroke:#B28052;stroke-miterlimit:10;}
	.st8{fill:#A37B61;}
	.st9{fill:#BC8866;}
	.st10{fill:#E0A57E;stroke:#B28052;stroke-miterlimit:10;}
	.st11{fill:#D19A7C;stroke:#B28052;stroke-miterlimit:10;}
	.st12{fill:#F4DBCE;}
	.st13{fill:#DBC7BF;}
	.st14{fill:#8E684F;stroke:#BF8A5E;stroke-miterlimit:10;}
	.st15{fill:#AD753E;}
	.st16{fill:#966636;}
	.st17{fill:#A87339;}
	.st18{fill:#BC8651;}
	.st19{fill:#AA7A4F;}
	.st20{fill:#C99465;}
	.st21{fill:none;stroke:#634B2A;stroke-miterlimit:10;}
	.st22{fill:#B28052;}
	.st23{fill:#96674D;stroke:#A57758;stroke-width:3;stroke-miterlimit:10;}
	.st24{fill:none;stroke:#A57758;stroke-width:3;stroke-miterlimit:10;}
	.st25{fill:#5C7552;}
	.st26{fill:#E2CA96;}
	.st27{fill:#EAD7A2;}
	.st28{fill:#F9F2EF;}
	.st29{fill:#382C26;}
	.st30{fill:#936F5F;}
	.st31{fill:#7C655C;}
	.st32{fill:#F9A182;}
	.st33{fill:#DBC697;}
	.st34{fill:#8C7857;}
	.st35{fill:#6F8763;}
	.st36{fill:#635872;}
	.st37{fill:#6B7F60;}
	.st38{fill:#755D3F;}
	.st39{fill:#C9B8A7;}
	.st40{fill:#00CFFF;}
	.st41{fill:#03CDE2;}
	.st42{fill:#00DBFF;}
	.st43{fill:#00E7FF;}
	.st44{fill:#00F3FF;}
	.st45{fill:#2EFFF9;}
	.st46{fill:#78FFF8;}
	.st47{fill:#FFF0BF;}
	.st48{fill:#F7E4A6;}
	.st49{fill:#BCCC60;}
	.st50{fill:url(#sea_1_);}
	.st51{fill:#D6C8A3;}
	.st52{fill:#D3C7A7;}
	.st53{fill:#DBCDAF;}
	.st54{fill:#98958C;}
	.st55{fill:#C2BEB5;}
	.st56{fill:#ACA7A1;}
	.st57{fill:#ADA8A2;}
	.st58{fill:#D3CAB2;}
	.st59{fill:#8D8880;}
	.st60{fill:#99968D;}
	.st61{fill:#C2BDB3;}
	.st62{fill:#DDCFAF;}
	.st63{fill:#CCBFA6;}
	.st64{fill:#9B988F;}
	.st65{fill:#8B877E;}
	.st66{fill:#B9B2AA;}
	.st67{fill:#C3BFB6;}
	.st68{fill:#CED18B;}
	.st69{fill:#C6BBA5;}
	.st70{fill:#CEC2AA;}
	.st71{fill:#CCC1AA;}
	.st72{fill:#C4BFB3;}
	.st73{fill:#99968B;}
	.st74{fill:#969089;}
	.st75{fill:#939189;}
	.st76{fill:#B7B5AB;}
	.st77{fill:#C9BDA6;}
	.st78{fill:#C6BBA7;}
	.st79{fill:#BAB3A6;}
	.st80{fill:#9E9C95;}
	.st81{fill:#CCC0A8;}
	.st82{fill:#A5A299;}
	.st83{fill:#C4BCA9;}
	.st84{fill:#B5AD9E;}
	.st85{fill:#9A978E;}
	.st86{fill:#8D877F;}
	.st87{fill:#B8B1AA;}
	.st88{fill:#C3BFB4;}
	.st89{fill:#C5BEB6;}
	.st90{fill:#B5B3AC;}
	.st91{fill:#D5D1C6;}
	.st92{fill:#BCB4B1;}
	.st93{fill:#999793;}
	.st94{fill:#8E8E87;}
	.st95{fill:#A3A19D;}
	.st96{fill:#B5B4B1;}
	.st97{fill:#A8A7A7;}
	.st98{fill:#A09D97;}
	.st99{fill:#D3CFC3;}
	.st100{fill:#ADAAA6;}
	.st101{fill:#B2B1AF;}
	.st102{fill:#9B978F;}
	.st103{fill:#AAA7A0;}
	.st104{fill:#CCC8C4;}
	.st105{fill:#D3D0CD;}
	.st106{fill:#C9C3BD;}
	.st107{fill:#B2AFA8;}
	.st108{fill:#999692;}
	.st109{fill:#898683;}
	.st110{fill:#A3A29B;}
	.st111{fill:#B2AEAA;}
	.st112{fill:#D6D0C9;}
	.st113{fill:#918D87;}
	.st114{fill:#DBD5C6;}
	.st115{fill:#B7B3AE;}
	.st116{fill:#C4C1BB;}
	.st117{fill:#9B9891;}
	.st118{fill:#D8D5CB;}
	.st119{fill:#939089;}
	.st120{fill:#A8A6A0;}
	.st121{fill:#D8D5D0;}
	.st122{fill:#A8A49B;}
	.st123{fill:#96928A;}
	.st124{fill:#CEC8C2;}
	.st125{fill:#C4996C;}
	.st126{fill:#B7845A;}
	.st127{fill:#D5A776;}
	.st128{fill:#477F16;}
	.st129{fill:#436818;}
	.st130{fill:#AA7B43;}
	.st131{fill:#B79056;}
	.st132{fill:#AD9655;}
	.st133{fill:#DD9D68;}
	.st134{fill:#C18B59;stroke:#A87848;stroke-miterlimit:10;}
	.st135{fill:#B28056;}
	.st136{fill:#AD7D59;}
	.st137{fill:#AA7D5C;}
	.st138{fill:#DDCBBF;}
	.st139{fill:#DBDAD9;}
	.st140{fill:#D8A380;}
	.st141{fill:#CE987A;}
	.st142{fill:#CC9D85;}
	.st143{fill:#C6977F;}
	.st144{fill:#C19784;}
	.st145{fill:#C69B8B;}
	.st146{fill:#B7958B;}
	.st147{fill:#AF8958;}
	.st148{fill:url(#gradient_1_);}
	.st149{fill:#997933;}
	.st150{fill:#937334;}
	.st151{fill:#A9DB52;}
	.st152{fill:#96C639;}
	.st153{fill:#82B71C;}
	.st154{fill:#B6E55C;}
	.st155{fill:#90C125;}
	.st156{fill:#A9D146;}
	.st157{fill:#8E7036;}
	.st158{fill:#846939;}
	.st159{fill:#78A038;stroke:#81AD2B;stroke-width:3;stroke-miterlimit:10;}
	.st160{fill:#658E30;}
	.st161{fill:#85AA44;}
	.st162{fill:#7EAF31;}
	.st163{fill:url(#gradient2_1_);}
	.st164{fill:url(#gradient3_1_);}
	.st165{fill:#B67D56;}
	.st166{fill:#83492A;}
	.st167{fill:#9C6038;}
	.st168{fill:#683920;}
	.st169{fill:#563119;}
	.st170{fill:#CC9E75;}
	.st171{fill:#633A23;}
	.st172{fill:#967A60;}
	.st173{fill:#C9D1D3;}
	.st174{fill:#635C55;}
	.st175{fill:#65868F;}
	.st176{fill:#6CC1A0;}
	.st177{fill:#EFCE8E;}
	.st178{fill:#60523B;}
	.st179{fill:#EFC58E;}
	.st180{fill:#6D5D41;}
	.st181{fill:#E8C192;}
	.st182{fill:#EFCA7F;}
	.st183{fill:#FFFFFF;}
	.st184{fill:#E5C57C;}
	.st185{fill:#59585E;}
	.st186{fill:#6FC9A9;}
	.st187{fill:#686770;}
	.st188{fill:#3F3831;}
	.st189{fill:#7F6752;}
	.st190{fill:#777770;}
	.st191{fill:#F29575;}
	.st192{fill:#86D1B1;}
	.st193{fill:#D98D31;}
	.st194{fill:#B5B5B5;}
</style>
<g id="left-foot_1_">
	<path class="st172" d="M693.8,1789.4l-2.3,18.3c-1,5.4-4,10.6-4.2,16.2l-0.7,16l5.9,8.4l4.4,6.5c0.4,0.7,0.9,1.2,1.5,1.6l28.9,21.2
		c0.2,0.1,0.4,0.3,0.6,0.4l29.4,25.6c3.2,2.8,6.6,4.8,10.1,6l4.1,1.4c2.4,0.8,4.8,1.2,7.2,1.2h3.3c3.7,0,7.4-0.8,11-2.4l0,0
		c2.9-1.3,5.7-3.5,8.2-6.4l5.5-6.5c1.6-1.9,3-4.1,4.2-6.6l0.3-0.5c2.1-4.4,3.3-9.9,3.3-15.6v-2.6c0-3-0.3-6-1-8.7l0,0
		c-2-8.2-5.6-14.9-10.3-18.8l-22.8-19.1l-25.3-26.9l-4.4-11.5l-3-9.6l-5.3-4.4l-13.3-1.6h-13l-11.8,3.5l-6.3,5L693.8,1789.4z"/>
	<path class="st173" d="M686.7,1839.8l24.9,15.9l22,16.1l20.9,19.9c1.6,1.5,3.2,2.9,4.9,4l3.4,2.3c4.3,3,9,4.5,13.6,4.5h4.7
		c2.6,0,5.2-0.4,7.8-1.2l4.3-1.4c2.9-0.9,5.6-2.9,8-5.9l2.7-3.4c1.7-2.1,3.3-4.6,4.7-7.3l5.9-11.5v6.3c0,3.1-0.6,6.1-1.8,8.4
		l-3.6,7.4l-8.3,9.8c-2.2,2.6-4.7,4.6-7.3,5.7l-1.7,0.7c-2.8,1.3-5.7,1.9-8.6,1.9h-4.5c-2.4,0-4.8-0.4-7.2-1.2l-4.3-1.5
		c-3.4-1.2-6.7-3.1-9.8-5.8l-28.1-24.4c-1.2-1-2.4-2-3.6-2.9l-28.2-20.7l-6.7-4c-1.8-1.1-3.2-3.7-3.6-6.9L686.7,1839.8z"/>
	<g>
		<g>
			<path class="st174" d="M731.5,1804.4c4,0.7,7.6,0.1,11.6-0.5c5.2-0.8,9.7,0.9,14.8,0.7c1.9-0.1,1.9-3.1,0-3
				c-4,0.2-7.8-1.4-11.9-1.1c-4.7,0.4-9.1,1.9-13.8,1.1C730.4,1801.1,729.6,1804,731.5,1804.4L731.5,1804.4z"/>
		</g>
	</g>
	<g>
		<g>
			<path class="st174" d="M748,1786.5c-0.3,14.2,2.4,28.1,2.5,42.3c0,1.9,3,1.9,3,0c-0.1-14.2-2.8-28.1-2.5-42.3
				C751.1,1784.6,748.1,1784.6,748,1786.5L748,1786.5z"/>
		</g>
	</g>
	<g>
		<g>
			<path class="st174" d="M754.9,1831.4c3.1,0.2,5.8-2.4,8.3-3.9c3.2-1.9,6.6-3.7,9.9-5.4c1.7-0.9,0.2-3.5-1.5-2.6
				c-2.6,1.3-5.2,2.7-7.7,4.1c-2.4,1.4-6.2,4.9-9,4.7C752.9,1828.3,752.9,1831.3,754.9,1831.4L754.9,1831.4z"/>
		</g>
	</g>
	<g>
		<g>
			<path class="st174" d="M760,1808.2c1.3,6.3,2.4,12.8,3.9,19c0.8,3.2,2,6.3,2.3,9.6c0.3,2.7,0.2,5.2,1,7.8
				c0.5,1.8,3.4,1.1,2.9-0.8c-0.9-2.9-0.6-5.8-1-8.8c-0.4-3-1.5-5.8-2.2-8.7c-1.5-6.3-2.7-12.7-3.9-19
				C762.5,1805.6,759.6,1806.4,760,1808.2L760,1808.2z"/>
		</g>
	</g>
</g>
<g id="right-foot_1_">
	<path class="st172" d="M545.9,1837.7l-1.8,2.7c-3.4,5.1-6.1,11.3-8,18.4l-0.9,3.4c-1.6,6.1-2.4,12.7-2.4,19.3v7.1
		c0,4.2,1.1,8.1,3,10.7l0,0c5.5,7.5,11.5,13.9,17.8,19.2l38.8,32.5c6.7,5.6,14,8.5,21.5,8.5h17.8l24.4-8.5c5.1-1.8,9.6-6.3,12.9-13
		l1.6-3.2c2-3.9,3-8.9,3-14v-5.1l-0.2-1.7c-0.7-5.6-2.7-10.4-5.6-13.4l-3.2-3.3c-2.3-2.4-4.8-4.5-7.3-6.2l-7.4-5l-15.3-11.7
		l-12.6-9.6c-2.7-2.1-4.9-5.7-6.3-10.2l-4.2-14.3l-4.5-6.4c-1.7-2.3-9.1-6.7-10.7-6.8l-9.9-3c-1.5,0-10.1,0.5-11.6,0l-11.8,2
		l-10.3,6.3L545.9,1837.7z"/>
	<path class="st173" d="M532.9,1881.7l9.1,12.4c4.2,5.7,8.7,10.7,13.4,14.8l35.9,31.2c4.8,4.2,10.1,6.7,15.5,7.2l15.3,1.7
		c4.3,0.5,8.6,0,12.8-1.3l21.2-6.8c1.9-0.6,3.8-1.8,5.5-3.5l2.5-2.5l9.5-19.1v6.7c0,4.1-0.9,8.1-2.4,11.2l-3.5,7.1
		c-2.5,5-5.9,8.4-9.6,9.7l-21.4,7.4c-3.4,1.2-6.8,1.8-10.2,1.8h-14.7c-6.1,0-12.1-2.4-17.5-6.9l-42.5-35.6
		c-5.1-4.3-9.9-9.5-14.4-15.5l-2.4-3.2c-1.4-1.9-2.2-4.9-2.2-8V1881.7z"/>
	<g>
		<g>
			<path class="st174" d="M589,1868.5c10.3-0.5,20.6-0.2,30.9,0.9c1.9,0.2,1.9-2.8,0-3c-10.3-1.1-20.6-1.5-30.9-0.9
				C587.1,1865.6,587,1868.6,589,1868.5L589,1868.5z"/>
		</g>
	</g>
	<g>
		<g>
			<path class="st174" d="M608.9,1851.7c-1.2,13.3-1.9,26.5-6.4,39.2c-0.6,1.8,2.3,2.6,2.9,0.8c4.6-13,5.2-26.4,6.5-40
				C612,1849.8,609,1849.8,608.9,1851.7L608.9,1851.7z"/>
		</g>
	</g>
	<g>
		<g>
			<path class="st174" d="M609.8,1896.4c8.8-5.2,18.1-9.5,27.8-12.7c1.8-0.6,1-3.5-0.8-2.9c-10,3.3-19.5,7.7-28.6,13
				C606.6,1894.8,608.1,1897.4,609.8,1896.4L609.8,1896.4z"/>
		</g>
	</g>
	<g>
		<g>
			<path class="st174" d="M624.1,1872.1c1.2,12.7,1.9,25.5,2,38.3c0,1.9,3,1.9,3,0c-0.2-12.8-0.9-25.5-2-38.3
				C626.9,1870.2,623.9,1870.2,624.1,1872.1L624.1,1872.1z"/>
		</g>
	</g>
</g>
<path id="first-left-leg_1_" class="st175" d="M683.1,1571l2.8-12.6l6.4-9.8l9.6-8.3l12.5-4.2l16.7,0.6l10.7,3.6l5.9,6.7l0.3,0.5
	c2.6,5.5,4.1,11.4,4.5,17.4l0.1,1.6l0.6,220.8l0,0c-3.7,5.1-8,9.1-12.7,11.5l-2.3,1.2c-6.2,3.3-12.7,5.3-19.2,5.8l-1.3,0.1
	c-9,0.7-17.9-1.2-26.3-5.6l-1.5-0.8L683.1,1571z"/>
<path id="first-right-leg_1_" class="st175" d="M555,1608.2l1.8-33.4l6.8-8.4l10.1-5.5l12-2.1l11.7,0.2l12,2.9l10.6,5.5l8.2,7.5v0
	c2.8,7,3.9,14.6,3.4,22.2l-18.2,242l0,0c-4.4,4.4-9.3,7.4-14.4,8.7l-0.8,0.2c-8.2,2.1-16.6,2.4-24.8,0.8l-3.9-0.7
	c-6.8-1.3-13.4-4.5-19.6-9.5l-5.4-4.4L555,1608.2z"/>
<path id="second-left-leg_1_" class="st175" d="M683.1,1571l-48.5-226.1l-1.2-15.4l2.2-12.3l5.5-10.9c0.5-1,1.1-2,1.7-2.9l4.9-7.2
	l14.4-7l14.5,0.8l13.9,3.2l10.5,10.1l6.1,30.2l36.2,175.5l5.2,27l2.8,17.5l1,10l-6.6,13.8l-12.9,8.8l-18.1,3.7l-22.4-5.8L683.1,1571
	z"/>
<path id="second-right-leg_1_" class="st175" d="M542.6,1353.6l14.7,240.2l5.8,11l8.8,6.4l12.8,4l12.7-0.3l11.9-2.3l10.9-5.6
	l4.6-4.4c1.7-1.6,3-3.5,3.9-5.7l0,0c2.8-6.4,4.1-13.4,3.7-20.5l-0.9-18.8l-6.2-189.8l-0.2-32.9l-10.7-6.7l-14.5-3.1l-19.1-2l-19.4,4
	l-11.2,4.8c-1.7,0.7-3.1,2-3.9,3.7l0,0C543.5,1341.1,542.3,1347.3,542.6,1353.6z"/>
<g id="headbody_1_">
	<g id="head_1_">
		<path class="st177" d="M638.4,888.2l-0.5,7.3c-0.4,5.6-0.6,11.1-0.6,16.7l0,0c0,1.5,0.1,2.9,0.3,4.3l3.3,24.1l-9.5,10.1l-15,6
			h-16.6l-15.2-4.2l1.8-19.3c1-8.6,1.4-17.3,1.4-26v0c0-2.7-0.1-5.3-0.3-8l-0.9-12.6L638.4,888.2z"/>
		<path class="st177" d="M594,527h14c10.2,0,20.4,1.3,30.6,3.9h0c7.6,1.9,15.1,5.4,22.2,10.2l0,0c5.5,3.7,10.3,9.6,14.2,17.2v0
			c3.2,6.3,5.7,13.6,7.5,21.4v0c4.1,18.2,6.6,37.4,7.2,56.9l0.2,5.2c0.7,19.2,0.7,38.5,0.1,57.7l-0.8,24.8
			c-0.3,9.5-0.9,19.1-1.7,28.5l-0.9,10.7c-3.6,41.3-12.6,80.7-26.5,115.1l-0.6,1.5c-3.6,8.8-8,16.6-13.1,22.9l0,0
			c-6.6,8.1-14.3,12.8-22.4,13.6l-2.2,0.2c-10,1-20.1-1-29.7-5.9l-1.7-0.9c-14.7-7.4-27.9-21.2-38.5-40v0
			c-8.7-15.5-16.1-33.2-21.7-52.5l-0.9-2.9c-6.2-20.9-10.7-43.2-13.4-66.1v0c-3.5-29.2-4.7-59-3.7-88.8l0.4-10.6
			c0.5-15.4,2.5-30.5,5.8-44.8v0c4.1-17.6,10-33.8,17.6-47.7l5.9-10.8c0.5-0.9,1.1-1.7,1.8-2.1l0,0C559.6,532.6,576.7,527,594,527z"
			/>
		<path class="st178" d="M633.1,652.7l5.3-2.8c3.6-1.9,7.2-2.8,11-2.8h0.3c5.5,0,11,0.7,16.5,2.1l0,0c2.2,0.6,4.4,1.6,6.5,3l5.7,3.9
			c1.1,0.7,2.2-0.6,2.2-2.5V652c0-6.2-0.9-12.3-2.7-17.7l-0.7-2.2c-1.2-3.8-3.5-6.1-6-6.1h-4.1c-3.1,0-6.3,0.3-9.4,0.9l-7.7,1.5
			c-5,1-10,3.1-14.6,6.5l-2.1,1.5c-1.4,1-2.4,3.5-2.4,6.1v7.4C630.9,651.8,632,653.3,633.1,652.7z"/>
		<path class="st178" d="M617.5,648.8v-7.3c0-2.5-1-4.7-2.4-5.4l-7.6-3.9c-3.1-1.6-6.3-2.8-9.5-3.7l-4.3-1.1
			c-3.7-0.9-7.4-0.9-11.1,0.1l-1.1,0.3c-2.7,0.8-5.3,1.8-7.9,3.2l-3.9,2.1c-1.4,0.7-2.7,1.6-4,2.7l-3.6,2.9c-2.4,2-4.3,5.4-5.4,9.6
			l-0.5,2.1c-1.2,4.7-1.8,9.9-1.8,15v4.2c0,1.9,1.3,3,2.2,1.9l7.2-9c2.6-3.2,5.5-5.6,8.6-7l2.5-1.1c6.1-2.8,12.5-4.3,18.9-4.3h5.2
			c1.1,0,2.2,0.1,3.3,0.2l13.2,1.8C616.6,652.2,617.5,650.7,617.5,648.8z"/>
		<path class="st179" d="M631,721.9l2.2,12.5c1.4,7.9,3.2,15.5,5.3,22.9l1.3,4.5c1.4,4.6,3.3,8.7,5.6,12.1l3.4,5
			c1.5,2.2,2.4,5.4,2.4,8.7l0,0c0,2.3-0.8,4.4-2,5.4v0c-2.8,2.4-5.9,3.6-9,3.6h-18.1c-1.9,0-3.7-0.9-5.4-2.5h0
			c-2.7-2.8-4.8-7-6-11.9l0,0c-0.5-2.3-0.4-4.8,0.3-6.9l0.6-1.6c0.6-1.7,1.5-3.1,2.6-3.8l0.3-0.2c1.5-1,2.7-3.2,3.1-5.9l1.1-7
			c0.6-3.7,0.9-7.4,1-11.2l0.6-22.7c0.1-2.9,1.2-5.5,2.8-6.7l0,0c1.7-1.2,3.7-1,5.3,0.5l0,0C629.7,717.8,630.6,719.7,631,721.9z"/>
		<path class="st180" d="M542.9,739.1v-10.8c0-7.3-0.5-14.5-1.4-21.6l-0.5-3.9c-0.5-3.9-0.9-7.8-1.3-11.8l-0.4-4.6
			c-0.9-10.6-1.3-21.3-1.3-32v-7.3c0-0.4,0.3-0.4,0.3-0.1l0.5,3.9c0,0.1,0.1,0.1,0.1,0l1.1-15.7c0-0.7,0.6-0.8,0.8-0.2l0.3,1
			c0.2,0.6,0.7,0.6,0.8-0.1l1.7-10c1-5.5,2.8-10.5,5.2-14.5l4.5-7.3c0.6-0.9,1.5-0.8,2,0.2l0,0c0.5,1,1.3,1.1,1.9,0.3l3.9-5.8
			c1.7-2.5,3.9-3.4,6.1-2.5h0c1.2,0.5,2.5,0.4,3.7-0.4l6-3.8c1.8-1.2,3.9-1.1,5.7,0.1v0c1,0.7,2.1,0.3,2.8-1l3-5.2
			c0.6-0.9,1.5-0.3,1.5,1.1v1.7l-0.8,5c-0.1,0.8,0.5,1.3,0.8,0.7l3.1-6.4l2-3.8c0.7-1.3,2-0.9,2.3,0.8l0.1,0.7
			c0.5,2.5,2.1,3.8,3.6,2.9l2.4-1.6c1.9-1.2,4-1.4,5.9-0.3l6.7,3.6c0.9,0.5,2,0.6,2.9,0.3l10-3.4c2.7-0.9,5.5-1.4,8.2-1.4h4.1
			c2,0,3.9,1.8,5,4.8l0.9,2.6c0.4,1.1,1.4,1.1,1.8,0l0.7-2.1c0.9-2.7,2.7-4.2,4.6-3.8l1.3,0.3c1.3,0.3,2.5,1.2,3.5,2.5l0,0
			c0.4,0.6,1,0.8,1.6,0.6l0.1,0c2-0.7,4-0.4,5.8,0.9l4.7,3.3l1.8,1.7c3.2,2.9,6.2,6.6,8.7,11v0c0.7,1.1,1.2,2.4,1.7,3.8v0
			c2.2,6.6,3.9,13.7,5.2,21l0,0c0.6,3.7,1,7.6,1.2,11.5l0.5,14.5l0-19.3c0-5.3-0.2-10.5-0.8-15.7l-1.9-19.4l0.9,2.3l-3-15.3
			c-0.4-1.9-0.8-3.8-1.2-5.6l-3.3-13.3c-1.5-5.9-3.4-11.4-5.8-16.5l0,0l-5.1-8.7c-2.7-5-6.2-7.6-11.1-12.1l-4.9-3.8l-5.3-3.8
			c-4.5-2.1-3.6-3-8.9-4.5l-4.9-2.3c-0.6-0.1-5.2-1.2-5.8-1.5h-6.2c-3.5-1.7-5.3-0.8-5.3-0.8h-5.3c-0.4,0-6.3,0.1-6.7,0h-6.2
			c-6.2,0-3.1-0.8-8,0l-6.7,0.8l-6.7,1.5c-5.9,0.6-9,3.9-14.7,6.8l-5.3,3c-2.7,1.4-4.5,3.5-7.1,5.3l-5.3,4.9
			c-3.7,2.5-6.9,6.5-9.4,11.7l-3,6.2c-0.8,1.7-1.6,3.3-2.5,4.8l0,0c-3.2,5.4-5.6,12.2-6.9,19.5l0,0c-0.2,1-0.4,1.9-0.7,2.7l-0.1,0.3
			c-4,11.1-7.1,23.1-9.2,35.6v0c-0.6,3.5-1,7.1-1.2,10.7l-1,14.2l-0.5,11.2c-0.6,12.2-0.5,24.4,0,36.6l0.5,10.4l0.9,19.3l22.2-14.8
			l2.9,12.6c0.2,0.7,0.3,1.3,0.3,2l0,0c0.5,4.8,0.8,9.7,0.8,14.7v6.8c0,1.6,1.1,2.5,1.8,1.5l0,0C542.1,744.8,542.9,742,542.9,739.1z
			"/>
		<ellipse class="st177" cx="524.9" cy="737.3" rx="13.1" ry="37.4"/>
		<ellipse class="st181" cx="524.9" cy="737.3" rx="7.8" ry="22.2"/>
		<path class="st182" d="M621.5,718.6l2.2,11.8c0.2,1.1,0.4,2.3,0.5,3.5l2.3,18c0.4,3,0.9,5.9,1.6,8.7l1.5,6.6c0.7,2.8,1,5.9,1,8.9
			v4.5c0,0.4-0.3,0.5-0.4,0.2l-1.7-5.9c-0.6-2.2-1.8-3.8-3.1-4.5l-4.1-2c-0.9-0.4-1.8-0.7-2.7-0.6l-1.9,0.1c-0.1,0-0.2-0.2-0.1-0.4
			l1.3-5.5c0.4-1.5,0.7-3.1,0.9-4.7l0.7-5.1c0.1-1.1,0.2-2.3,0.3-3.5l0.4-11.1l0.1-10.3c0-0.9,0.1-1.7,0.2-2.6L621.5,718.6z"/>
		<path class="st183" d="M637.6,686l0.4-1.4c1.1-3.8,2.9-7,5-9.1l0.8-0.8c2.8-2.8,6-4.2,9.3-4.2h3.3c2.4,0,4.9,0.6,7.2,1.9l2.7,1.4
			c2.3,1.3,4.4,3.8,5.8,7.2l1.2,2.8c1.3,3.1,2,6.8,2,10.6v5.6c0,2.3-0.6,4.6-1.6,6.2v0c-3,4.8-6.8,8.1-10.8,9.4l-3.8,1.3
			c-3.6,1.2-7.4,0.8-10.9-1.3l0,0c-4-2.4-7.3-7.2-9.3-13.5l-1.1-3.5C636.5,694.7,636.5,690,637.6,686z"/>
		<path class="st183" d="M609.9,686l-0.4-1.4c-1.1-3.8-2.9-7-5-9.1l-0.8-0.8c-2.8-2.8-6-4.2-9.3-4.2H591c-2.4,0-4.9,0.6-7.2,1.9
			l-2.7,1.4c-2.3,1.3-4.4,3.8-5.8,7.2l-1.2,2.8c-1.3,3.1-2,6.8-2,10.6v5.6c0,2.3,0.6,4.6,1.6,6.2v0c3,4.8,6.8,8.1,10.8,9.4l3.8,1.3
			c3.6,1.2,7.4,0.8,10.9-1.3l0,0c4-2.4,7.3-7.2,9.3-13.5l1.1-3.5C611,694.7,611.1,690,609.9,686z"/>
		<path class="st184" d="M572.6,689.6l0.7-2.1c0.3-1,0.7-2,1.2-2.9l0.4-0.7c0.8-1.6,1.7-3.1,2.7-4.3l0,0c1.1-1.3,2.2-2.3,3.4-3.1
			l0.1-0.1c1.1-0.7,2.1-1.2,3.3-1.6l1-0.4c0.9-0.3,1.8-0.6,2.7-0.8l0.4-0.1c1.2-0.3,2.4-0.4,3.6-0.4h1c0.8,0,1.6,0.1,2.4,0.2
			l1.6,0.3c0.8,0.2,1.6,0.4,2.4,0.7l0.7,0.3c1.4,0.5,2.7,1.3,4,2.4l1.1,1c0.3,0.3,0.7,0.6,1,1l0,0c1.2,1.6,2.2,3.5,3,5.6l0.8,2.1
			l-0.8-3.7l-0.8-2.4c-0.6-1.9-1.5-3.6-2.4-5l0,0c-1.1-1.6-2.3-2.9-3.6-3.9l0,0c-1.3-1-2.8-1.8-4.2-2.2l0,0
			c-1.8-0.6-3.6-0.8-5.5-0.8h-0.2c-1.6,0-3.1,0.2-4.7,0.7l-0.6,0.2c-1.6,0.5-3.2,1.1-4.7,2l-0.8,0.4c-1.5,0.8-2.9,2.2-4.1,3.9
			l-0.1,0.1c-1.1,1.7-2.1,3.6-2.9,5.7l-0.5,1.4l-0.5,1.8c-0.2,0.8-0.4,1.6-0.6,2.4L572.6,689.6z"/>
		<path class="st184" d="M636.8,689.6l0.7-2.1c0.3-1,0.7-2,1.2-2.9l0.4-0.7c0.8-1.6,1.7-3.1,2.7-4.3l0,0c1.1-1.3,2.2-2.3,3.4-3.1
			l0.1-0.1c1.1-0.7,2.1-1.2,3.3-1.6l1-0.4c0.9-0.3,1.8-0.6,2.7-0.8l0.4-0.1c1.2-0.3,2.4-0.4,3.6-0.4h1c0.8,0,1.6,0.1,2.4,0.2
			l1.6,0.3c0.8,0.2,1.6,0.4,2.4,0.7l0.7,0.3c1.4,0.5,2.7,1.3,4,2.4l1.1,1c0.3,0.3,0.7,0.6,1,1l0,0c1.2,1.6,2.2,3.5,3,5.6l0.8,2.1
			l-0.8-3.7l-0.8-2.4c-0.6-1.9-1.5-3.6-2.4-5l0,0c-1.1-1.6-2.3-2.9-3.6-3.9l0,0c-1.3-1-2.8-1.8-4.2-2.2l0,0
			c-1.8-0.6-3.6-0.8-5.5-0.8h-0.2c-1.6,0-3.1,0.2-4.7,0.7l-0.6,0.2c-1.6,0.5-3.2,1.1-4.7,2l-0.8,0.4c-1.5,0.8-2.9,2.2-4.1,3.9
			l-0.1,0.1c-1.1,1.7-2.1,3.6-2.9,5.7l-0.5,1.4l-0.5,1.8c-0.2,0.8-0.4,1.6-0.6,2.4L636.8,689.6z"/>
	</g>
	<g id="body_1_">
		<path class="st185" d="M586.2,937.2l-4.4,2.2c-2.3,1.2-4.5,3.1-6.3,5.8l-5,7.2c-0.9,1.3-1.5,2.9-1.9,4.8l-0.6,3
			c-0.6,3-0.7,6.3-0.2,9.4l0.9,6.7c0.3,2,1,3.8,2.1,4.9l1.6,1.8c2.8,3,5.9,5.1,9.1,6.2l4.2,1.5c1.6,0.6,3.3,0.9,5,0.9h10.7
			c0.8,0,1.7-0.1,2.5-0.2l10-1.6c1-0.2,2-0.2,2.9,0l8.6,1.3c2,0.3,4,1.4,5.7,3.2l4.5,4.8l4.7-8.1c1.4-2.3,2.9-4.5,4.4-6.5l5.6-7.1
			l4.5-5.7c1.9-2.4,3.5-5.4,4.6-8.9l0.5-1.5c0.5-1.4,0.8-2.8,1-4.3l0.6-4.6c0.4-3.1,0.3-6.2-0.2-9.3l-0.4-2.3
			c-0.4-2.4-1.1-4.6-1.9-6.6l-0.9-2.1c-1.5-3.5-3.5-6.1-5.9-7.7l-1.9-1.3c-1.4-0.9-2.8-1.3-4.3-1.3l-7.9-0.3l0.7,5.2l4.6,1.3
			l3.8,1.2l2.3,1.6l1.9,1.5l1.4,1.9l1.4,3l0.8,2.1l1.5,4.1l0.4,2.4l-0.2,2.8l-1.4,4.7l-1.1,2.5l-1.6,2.6l-1.7,2l-4.6,5.1l-10.8,12.3
			l-1.1,0.5l-8.2-1.3l-4.8-0.8l-2.2-0.1l-9.4,1.3l-6.8,1.2l-5.3,1.7l-4.5,1.4l-2.5,0.3h-4.9h-2.8l-2.5-0.4l-2.4-1.5l-2-2.4l-2.2-3.7
			l-1.1-3.7l-0.4-4.3l0.1-3.8l0.6-3.1l1.4-3.7l0.9-1.7c1-1.9,2.5-3.4,4.5-4.3l0,0l5-3.5L586.2,937.2z"/>
		<path class="st186" d="M635.7,999v63.5l5.2,61.7l5.1,72v51.4l-5.1,61.7l21.8-9.8c8.3-3.7,16.1-10.3,22.9-19.2l7-9.1
			c4-5.3,6.7-13,7.5-21.5l4-44.5c1.3-14,1.9-28.1,1.9-42.3v-37.3c0-13.5-0.6-26.9-1.9-40.2l-7.5-78.9c-0.5-5-1-10-1.7-14.9l-1.8-13
			c-1.1-8.3-2.6-16.5-4.5-24.4l-1.8-7.5c-1.2-4.9-3.2-9-5.9-11.7l-1.3-1.4c-4.5-4.6-9.5-7.3-14.8-8l-13.2-1.8l0.7,0.4
			c2.4,1.5,4.5,4.2,6,7.7l1.2,2.7c0.7,1.6,1.2,3.4,1.5,5.2l0.1,0.5c0.8,4.7,0.9,9.7,0.3,14.5l-0.5,4.3l-1.2,3.6
			c-1.1,3.4-2.7,6.4-4.6,8.8l-4.6,5.7l-8,10.1L635.7,999z"/>
		<path class="st186" d="M611.2,1316.2l-15.8,4.3c-6.3,1.7-12.6,2.6-19,2.6H566c-5.4,0-10.8-1.9-15.7-5.7l-2.3-1.7
			c-5.2-4-9.1-11.9-10.4-21.4l-3.5-26.2c-0.9-6.7-1.6-13.5-2.2-20.4l-2.1-26.2c-1.1-13.1-1.6-26.2-1.6-39.4v-38.5v-53.5
			c0-7.8,0.2-15.5,0.6-23.2l1.9-36.5c0.2-4,0.5-7.9,0.9-11.8l1.9-17.9c0.6-5.4,1.6-10.5,3.1-15.3l0,0c1.4-4.6,3.2-8.8,5.3-12.6
			l0.6-1.1c2.1-3.8,4.5-7,7.2-9.5l1.5-1.4c2.9-2.7,5.9-4.9,9-6.7l15.3-8.9l-4.3,6.2c-1.4,2-2.4,4.5-3,7.4l0,0.2
			c-0.8,3.8-0.9,7.9-0.3,11.9l0.3,2.2c0.6,4.1,2.1,7.7,4.2,10l0,0c2.8,3,5.9,5.1,9.1,6.2l2.9,1c2.5,0.9,5,1.3,7.6,1.3h9.1
			c1,0,2.1-0.1,3.1-0.2l9.6-1.5c1.1-0.2,2.1-0.2,3.2,0l9.5,1.4c1.4,0.2,2.7,1,3.9,2.2l5.3,5.7v63.5l5.2,61.7l5.1,72v51.4l-5.1,61.7
			L611.2,1316.2z"/>
		<path class="st177" d="M585.3,945.9l53.7-19.3l7,1.9c1,0.3,2,0.8,3,1.5l1.8,1.3c1.4,1,2.6,2.7,3.4,4.9l2.3,5.9
			c0.9,2.2,1,5.1,0.2,7.5l-0.8,2.5c-0.9,2.9-2.3,5.4-3.9,7.3l-6.1,6.8l-10.1,11.5c-0.3,0.4-0.7,0.5-1.1,0.5l-12.1-2
			c-1.8-0.3-3.6-0.3-5.4,0l-12,1.9c-0.9,0.1-1.8,0.3-2.6,0.6l-7.8,2.5c-1.2,0.4-2.4,0.6-3.7,0.6h-8.1c-2.2,0-4.3-1.3-6-3.6l-1.3-1.8
			c-1.8-2.6-2.9-6.5-2.9-10.5v-1.4c0-3.4,0.7-6.6,2.1-9.1l0.5-1c0.9-1.8,2.1-3.2,3.4-4.1L585.3,945.9z"/>
		<path class="st187" d="M634.1,997.4l1.5,1.6l1.7-2.9v45.2c0,15.1,0.6,30.1,1.9,45l3.5,41.2l3.7,57.3c0.5,8.5,0.8,17,0.8,25.6v21.7
			c0,12-0.5,24.1-1.6,35.9l-3.7,40.8l-1.1,0.5l-1.9,0.4l4-41.4c1.3-13.1,1.9-26.4,1.8-39.6l-0.1-17.8c0-8.8-0.4-17.7-1-26.5l-4-56.5
			l-3.6-41.6c-1.3-15.2-2-30.5-2-45.8V997.4z"/>
		<path class="st175" d="M542.6,1309.4v22.1c0,2.7,0.1,5.4,0.4,8.1l0,0c-0.2,5.9,3.4,11.3,9,13.2l9.6,3.3l35,1l79.8-31l24.5-22.6
			l-4.7-39.6l-4.9,8.3c-1.5,2.5-3.1,4.8-4.8,6.8l-6.6,7.8c-1.1,1.3-2.3,2.5-3.5,3.5l-5.6,4.6l-5.8,2.8c-1.5,1.2-3.1,2.2-4.7,2.9
			l-18.3,8.2l-11.1,2.8l-21.8,5.1l-16.2,4.3l-10.4,1.6c-1.2,0.2-2.4,0.3-3.6,0.3h-11.1c-1.2,0-2.4-0.1-3.7-0.4l-4.5-1
			c-2.2-0.5-4.4-1.4-6.5-2.7l-1.9-1.2c-2.2-1.4-4.3-3.2-6.2-5.5L542.6,1309.4z"/>
	</g>
</g>
<g id="mouthsmile_1_">
	<path class="st189" d="M596.1,799.4l12.7,5c2.7,1.1,5.4,1.7,8.2,2l6.2,0.6c3.7,0.4,7.5,0.1,11.2-1l7.4-2.1c2.5-0.7,4.9-1.7,7.3-3.1
		l10.1-5.9c1.5-0.9,3-1.6,4.5-2.1l5.6-2.1c2.8-1.1,5.8-1.2,8.7-0.4l3.1,0.9c0.5,0.1,0.9,0.5,1.3,1l0,0c0.9,1.1,1.2,3,0.9,4.7
		l-2.2,13.2c-0.4,2.6-0.9,5.1-1.5,7.6l-2.2,10.5c-1.3,6.1-2.9,12-4.7,17.6l-3.7,11.2l-5.7,16.5c-0.9,2.7-2,5.3-3,7.9v0
		c-3.1,7.2-6.6,13.7-10.6,19.3l-0.9,1.3c-2,2.9-4.3,5.3-6.7,7.2l-3.7,2.9c-1.8,1.4-3.7,2.4-5.7,3.1l-5.2,1.8
		c-3.4,1.2-6.9,1.8-10.3,1.8h-4c-4.5,0-9-0.8-13.4-2.3l-1.1-0.4c-6.1-2.2-12-5.5-17.6-9.8l-5.5-4.3c-2.2-1.7-4.4-3.7-6.4-5.8
		l-3.5-3.6c-3.7-3.9-7.2-8.5-10.3-13.7l-2.5-4.2c-1.2-2-2.3-4.1-3.4-6.4l-7.7-16.3c-1.3-2.7-2.4-5.7-3.4-8.8l-2.2-7
		c-1.4-4.5-2.1-9.4-2.1-14.4v-2.1c0-4,0.7-8,2-11.4l0,0c1.5-4.1,3.6-7.4,6.1-9.8l2-1.9c2.1-2,4.4-3.6,6.8-4.5l0,0
		c4.6-1.9,9.4-2.8,14.2-2.8h4.3c3.6,0,7.2,0.7,10.8,2.1l4.5,1.7c0.8,0.3,1.5,0.7,2.3,1.1l4.3,2.6
		C592.6,797.8,594.4,798.7,596.1,799.4z"/>
	<path class="st177" d="M580.7,813.1l1-0.3c1.5-0.5,3-0.3,4.5,0.7l4.9,3.1c0.4,0.2,0.7,0.4,1.1,0.6l11,5.3c0.6,0.3,1.2,0.5,1.8,0.8
		l5.4,1.9c2.6,0.9,5.3,1.4,8,1.4h9.5c1.2,0,2.4-0.1,3.5-0.3l5.2-0.9c3.3-0.5,6.5-1.7,9.6-3.3l1.9-1c4.2-2.2,8.2-5.4,11.9-9.3l4-4.2
		l4.6-4.6c1-1,2.2-1.1,3.3-0.3l0,0c1.4,1.1,2.3,3.5,2.3,6.2v2.7c0,2.7-0.3,5.4-0.9,7.9l-2.6,11.3c-0.3,1.5-0.8,3-1.2,4.4l-5.5,16
		c-0.6,1.8-1.4,3.5-2.3,5.1l-4.8,8.2c-1.4,2.4-3,4.2-4.8,5.6l-10.2,7.6c-1.7,1.2-3.4,2.1-5.2,2.6l-8,2.1c-1.5,0.4-3,0.5-4.5,0.4
		l-9.5-0.8c-3.3-0.3-6.6-1.4-9.7-3.3l-5.2-3.2c-3.3-2-6.3-5.2-8.8-9.4l-2.1-3.4c-1.6-2.6-2.8-5.7-3.7-9.2l-3.3-13.2
		c-0.3-1.1-0.5-2.1-0.7-3.3l-2.2-13c-0.3-1.6-0.4-3.3-0.4-5v-1.6C578.6,815.3,579.5,813.5,580.7,813.1z"/>
	<path class="st190" d="M583.2,818.5L583.2,818.5c6.8,6.2,13.8,10.5,21,12.8l3,1c5.2,1.7,10.5,2.6,15.8,2.6h5.1c6,0,12-1.6,17.9-4.7
		l2-1.1c4.6-2.4,9-6.4,13.2-11.7l8.8-11.1c1.2-1.5,2.5,1.7,1.9,4.7v0c-1.9,10.3-4.5,19.9-7.5,28.4l-4.1,11.7c-2,5.7-4.6,10-7.4,12.4
		l-4.5,3.8c-3.5,2.9-7.1,4.9-10.7,6l-13.2,3.8c-4.1,1.2-8.2,1-12.3-0.6l-6.9-2.7c-5.3-2.1-10.3-7.9-14.3-16.8l-0.2-0.4
		c-2.9-6.4-5.2-14.4-6.6-23.5c0,0-1.4-9.1-1.9-12.1C582,819.4,582.6,818,583.2,818.5z"/>
	<path class="st191" d="M605.2,873.6l3.5-5.9c4.1-6.8,8.7-11.9,13.4-15l0.5-0.3c3.2-2.1,6.5-0.5,9.2,4.3l0,0
		c1.3,2.4,3.2,1.8,4.3-1.3l0.3-1c1.9-5.6,4.6-8.8,7.5-8.8h1.2c3.7,0,7.3,1.3,10.8,3.9l3.9,2.8l0,0c-1.7,4.9-4,8.6-6.4,10.7l-6.4,5.4
		c-2.6,2.2-5.2,3.7-7.9,4.4l-15.9,4.5c-3.3,0.9-6.6,0.8-9.8-0.5L605.2,873.6z"/>
	<path class="st183" d="M588.7,823.1l2.8,8.3l3.8,4.5c1.5,1.7,3.3,3.2,5.3,4.3l2.8,1.5c2,1.1,4.1,1.8,6.3,2.2l6.7,1.3
		c1.4,0.3,2.9,0.4,4.3,0.4h8.6c1.9,0,3.7-0.2,5.6-0.7l6-1.5c3.5-0.9,6.7-2.6,9.4-5l4.3-3.8c1.6-1.4,2.9-3,4.1-4.7l5.5-8.5
		c0.8-1.3,1.5-2.6,2.1-4l2-5l0.5-4.7l-3.1,3.9l-6.5,8c-0.7,0.9-1.5,1.6-2.3,2.4l-4.5,3.9c-1.3,1.1-2.6,2-4.1,2.7l-6.9,3.4
		c-1.3,0.6-2.7,1.1-4.1,1.5l-2.9,0.7c-1.3,0.3-2.6,0.5-4,0.5l-7.9,0.2c-1.1,0-2.2,0-3.3-0.2l-7.3-1.1c-1.2-0.2-2.3-0.5-3.4-0.8
		l-7.1-2.4c-1.2-0.4-2.5-1-3.6-1.7L588.7,823.1z"/>
	<path class="st183" d="M593.5,861.8l4.6,0.4l3.9,3.1c1.4,1.1,3,2,4.7,2.8l2,0.9c2.6,1.1,5.3,1.6,8.1,1.6h4.4c2,0,4.1-0.3,6-0.9
		l7.4-2.2c0.9-0.3,1.8-0.6,2.6-1l6.8-3.1c1.5-0.7,2.9-1.6,4.2-2.6l3.3-2.6c1.5-1.2,2.8-2.5,3.9-4l4.4-6h1.4l-2.7,6.9
		c-0.4,1.1-0.9,2.1-1.6,3l-1.8,2.7c-0.5,0.8-1.1,1.5-1.8,2.2l-2.9,2.9c-0.4,0.4-0.9,0.9-1.4,1.2l-2.9,2.2c-1.1,0.9-2.4,1.6-3.7,2.1
		l-3.6,1.4c-0.5,0.2-1,0.4-1.4,0.5l-5.2,1.5l-4.4,1.3l-3.7,1.2c-1,0.3-2,0.5-3,0.6l0,0c-1.4,0.1-2.8,0.1-4.2-0.2l-1.9-0.3
		c-0.9-0.2-1.7-0.4-2.5-0.7l-4-1.5l-3.2-1.3c-1.1-0.5-2.2-1.1-3.2-1.8l-1.5-1.1c-0.9-0.7-1.7-1.4-2.5-2.3l-1.7-2
		c-0.4-0.5-0.9-1.1-1.2-1.6L593.5,861.8z"/>
</g>
</svg>
