<?xml version="1.0" encoding="utf-8"?>
<!-- Generator: Adobe Illustrator 21.0.0, SVG Export Plug-In . SVG Version: 6.00 Build 0)  -->
<svg version="1.1" id="game" xmlns="http://www.w3.org/2000/svg" xmlns:xlink="http://www.w3.org/1999/xlink" x="0px" y="0px"
	 viewBox="0 0 1668 2224" style="enable-background:new 0 0 1668 2224;" xml:space="preserve">
<style type="text/css">
	.st0{fill:url(#gradient4_1_);}
	.st1{fill:url(#gradient5_1_);}
	.st2{fill:#66E2FF;}
	.st3{fill:none;stroke:#B28052;stroke-miterlimit:10;}
	.st4{fill:#96735C;}
	.st5{fill:#825D49;stroke:#BF8A5E;stroke-miterlimit:10;}
	.st6{fill:#AD7D5C;stroke:#B28052;stroke-miterlimit:10;}
	.st7{fill:#BC8864;stroke:#B28052;stroke-miterlimit:10;}
	.st8{fill:#A37B61;}
	.st9{fill:#BC8866;}
	.st10{fill:#E0A57E;stroke:#B28052;stroke-miterlimit:10;}
	.st11{fill:#D19A7C;stroke:#B28052;stroke-miterlimit:10;}
	.st12{fill:#F4DBCE;}
	.st13{fill:#DBC7BF;}
	.st14{fill:#8E684F;stroke:#BF8A5E;stroke-miterlimit:10;}
	.st15{fill:#AD753E;}
	.st16{fill:#966636;}
	.st17{fill:#A87339;}
	.st18{fill:#BC8651;}
	.st19{fill:#AA7A4F;}
	.st20{fill:#C99465;}
	.st21{fill:none;stroke:#634B2A;stroke-miterlimit:10;}
	.st22{fill:#B28052;}
	.st23{fill:#96674D;stroke:#A57758;stroke-width:3;stroke-miterlimit:10;}
	.st24{fill:none;stroke:#A57758;stroke-width:3;stroke-miterlimit:10;}
	.st25{fill:#5C7552;}
	.st26{fill:#E2CA96;}
	.st27{fill:#6F8763;}
	.st28{fill:#EAD7A2;}
	.st29{fill:#F9F2EF;}
	.st30{fill:#382C26;}
	.st31{fill:#936F5F;}
	.st32{fill:#7C655C;}
	.st33{fill:#F9A182;}
	.st34{fill:#DBC697;}
	.st35{fill:#8C7857;}
	.st36{fill:#635872;}
	.st37{fill:#6B7F60;}
	.st38{fill:#755D3F;}
	.st39{fill:#C9B8A7;}
	.st40{fill:#00CFFF;}
	.st41{fill:#03CDE2;}
	.st42{fill:#00DBFF;}
	.st43{fill:#00E7FF;}
	.st44{fill:#00F3FF;}
	.st45{fill:#2EFFF9;}
	.st46{fill:#78FFF8;}
	.st47{fill:#FFF0BF;}
	.st48{fill:#F7E4A6;}
	.st49{fill:#BCCC60;}
	.st50{fill:url(#sea_1_);}
	.st51{fill:#98958C;}
	.st52{fill:#ACA7A1;}
	.st53{fill:#C2BEB5;}
	.st54{fill:#D6C8A3;}
	.st55{fill:#D3C7A7;}
	.st56{fill:#DBCDAF;}
	.st57{fill:#ADA8A2;}
	.st58{fill:#99968D;}
	.st59{fill:#C2BDB3;}
	.st60{fill:#8D8880;}
	.st61{fill:#D3CAB2;}
	.st62{fill:#8B877E;}
	.st63{fill:#9B988F;}
	.st64{fill:#B9B2AA;}
	.st65{fill:#C3BFB6;}
	.st66{fill:#DDCFAF;}
	.st67{fill:#CCBFA6;}
	.st68{fill:#CED18B;}
	.st69{fill:#99968B;}
	.st70{fill:#969089;}
	.st71{fill:#C4BFB3;}
	.st72{fill:#939189;}
	.st73{fill:#B7B5AB;}
	.st74{fill:#C6BBA5;}
	.st75{fill:#CEC2AA;}
	.st76{fill:#CCC1AA;}
	.st77{fill:#9E9C95;}
	.st78{fill:#C9BDA6;}
	.st79{fill:#C6BBA7;}
	.st80{fill:#BAB3A6;}
	.st81{fill:#A5A299;}
	.st82{fill:#CCC0A8;}
	.st83{fill:#C3BFB4;}
	.st84{fill:#9A978E;}
	.st85{fill:#B8B1AA;}
	.st86{fill:#8D877F;}
	.st87{fill:#C4BCA9;}
	.st88{fill:#B5AD9E;}
	.st89{fill:#C5BEB6;}
	.st90{fill:#B5B3AC;}
	.st91{fill:#D5D1C6;}
	.st92{fill:#BCB4B1;}
	.st93{fill:#999793;}
	.st94{fill:#8E8E87;}
	.st95{fill:#A3A19D;}
	.st96{fill:#B5B4B1;}
	.st97{fill:#A8A7A7;}
	.st98{fill:#A09D97;}
	.st99{fill:#D3CFC3;}
	.st100{fill:#ADAAA6;}
	.st101{fill:#B2B1AF;}
	.st102{fill:#9B978F;}
	.st103{fill:#AAA7A0;}
	.st104{fill:#CCC8C4;}
	.st105{fill:#D3D0CD;}
	.st106{fill:#C9C3BD;}
	.st107{fill:#B2AFA8;}
	.st108{fill:#999692;}
	.st109{fill:#898683;}
	.st110{fill:#A3A29B;}
	.st111{fill:#B2AEAA;}
	.st112{fill:#D6D0C9;}
	.st113{fill:#918D87;}
	.st114{fill:#DBD5C6;}
	.st115{fill:#B7B3AE;}
	.st116{fill:#C4C1BB;}
	.st117{fill:#9B9891;}
	.st118{fill:#D8D5CB;}
	.st119{fill:#939089;}
	.st120{fill:#A8A6A0;}
	.st121{fill:#D8D5D0;}
	.st122{fill:#A8A49B;}
	.st123{fill:#96928A;}
	.st124{fill:#CEC8C2;}
	.st125{fill:#C4996C;}
	.st126{fill:#B7845A;}
	.st127{fill:#D5A776;}
	.st128{fill:#477F16;}
	.st129{fill:#436818;}
	.st130{fill:#AA7B43;}
	.st131{fill:#B79056;}
	.st132{fill:#AD9655;}
	.st133{fill:#DD9D68;}
	.st134{fill:#C18B59;stroke:#A87848;stroke-miterlimit:10;}
	.st135{fill:#B28056;}
	.st136{fill:#AD7D59;}
	.st137{fill:#AA7D5C;}
	.st138{fill:#DDCBBF;}
	.st139{fill:#DBDAD9;}
	.st140{fill:#D8A380;}
	.st141{fill:#CE987A;}
	.st142{fill:#CC9D85;}
	.st143{fill:#C6977F;}
	.st144{fill:#C19784;}
	.st145{fill:#C69B8B;}
	.st146{fill:#B7958B;}
	.st147{fill:#AF8958;}
	.st148{fill:#967A60;}
	.st149{fill:#C9D1D3;}
	.st150{fill:#635C55;}
	.st151{fill:#65868F;}
	.st152{fill:#6CC1A0;}
	.st153{fill:#EFCE8E;}
	.st154{fill:#60523B;}
	.st155{fill:#EFC58E;}
	.st156{fill:#6D5D41;}
	.st157{fill:#E8C192;}
	.st158{fill:#EFCA7F;}
	.st159{fill:#FFFFFF;}
	.st160{fill:#E5C57C;}
	.st161{fill:#59585E;}
	.st162{fill:#6FC9A9;}
	.st163{fill:#686770;}
	.st164{fill:#86D1B1;}
	.st165{fill:#2D2924;}
	.st166{fill:none;stroke:#2D2924;stroke-width:24;stroke-miterlimit:10;}
	.st167{fill:none;stroke:#2D2924;stroke-width:24;stroke-miterlimit:10;stroke-dasharray:10.0234,10.0234;}
	.st168{fill:#C0D3D7;}
	.st169{fill:#98A9B1;}
	.st170{fill:#D8372D;}
	.st171{fill:#414143;}
	.st172{fill:#EE5547;}
	.st173{fill:#A22921;}
	.st174{fill:#9C271F;}
	.st175{fill:#D2C4A9;}
	.st176{fill:#ABABAB;}
	.st177{fill:#4F4F4F;}
	.st178{fill:none;stroke:#2D2924;stroke-width:18;stroke-miterlimit:10;}
	.st179{fill:none;stroke:#2D2924;stroke-width:18;stroke-miterlimit:10;stroke-dasharray:8.8394,8.8394;}
	.st180{fill:none;stroke:#2D2924;stroke-width:18;stroke-miterlimit:10;stroke-dasharray:9.9611,9.9611;}
	.st181{fill:#E26B47;}
	.st182{fill:#FF8243;}
	.st183{fill:#47413F;}
	.st184{fill:#EF8424;}
	.st185{fill:#FDA83D;}
	.st186{fill:#994E22;}
	.st187{fill:#965F29;}
	.st188{fill:#7F7F7F;}
	.st189{fill:#D6D5D4;}
	.st190{fill:#C98235;}
	.st191{fill:#999999;}
	.st192{fill:#E2E1E0;}
	.st193{fill:#D98D31;}
	.st194{fill:#B5B5B5;}
	.st195{fill:#7F6752;}
	.st196{fill:#777770;}
	.st197{fill:#F29575;}
	.st198{fill:#3F3831;}
	.st199{fill:url(#gradient_1_);}
	.st200{fill:#997933;}
	.st201{fill:#937334;}
	.st202{fill:#A9DB52;}
	.st203{fill:#96C639;}
	.st204{fill:#82B71C;}
	.st205{fill:#B6E55C;}
	.st206{fill:#90C125;}
	.st207{fill:#A9D146;}
	.st208{fill:#8E7036;}
	.st209{fill:#846939;}
	.st210{fill:#78A038;stroke:#81AD2B;stroke-width:3;stroke-miterlimit:10;}
	.st211{fill:#658E30;}
	.st212{fill:#85AA44;}
	.st213{fill:#7EAF31;}
	.st214{fill:#018287;}
	.st215{fill:#0F0F0F;}
	.st216{fill:#303030;}
	.st217{fill:#333333;}
	.st218{fill:#1A1A1A;}
	.st219{fill:#424242;}
	.st220{fill:#00666A;}
	.st221{fill:#212121;}
	.st222{fill:#111111;}
	.st223{fill:#A3A3A3;}
	.st224{fill:#ACACAE;}
	.st225{fill:#161616;}
	.st226{fill:#00686B;}
	.st227{fill:#161616;stroke:#373737;stroke-miterlimit:10;}
	.st228{fill:none;stroke:#D98D31;stroke-miterlimit:10;}
	.st229{fill:#242424;}
	.st230{fill:#373737;}
	.st231{fill:url(#gradient2_1_);}
	.st232{fill:url(#gradient3_1_);}
	.st233{fill:#B67D56;}
	.st234{fill:#83492A;}
	.st235{fill:#9C6038;}
	.st236{fill:#683920;}
	.st237{fill:#563119;}
	.st238{fill:#CC9E75;}
	.st239{fill:#633A23;}
	.st240{fill:#F9F6CD;}
	.st241{fill:none;stroke:#000000;stroke-miterlimit:10;}
	.st242{fill:#EDFF85;stroke:#000000;stroke-miterlimit:10;}
	.st243{fill:none;stroke:#2D2924;stroke-width:18;stroke-miterlimit:10;stroke-dasharray:10.6132,10.6132;}
	.st244{fill:none;stroke:#2D2924;stroke-width:18;stroke-miterlimit:10;stroke-dasharray:9.9851,9.9851;}
	.st245{fill:none;stroke:#2D2924;stroke-width:24;stroke-miterlimit:10;stroke-dasharray:10.1023,10.1023;}
	.st246{fill:#A59D58;}
	.st247{fill:#CCA962;}
	.st248{fill:none;stroke:#EFCF97;stroke-miterlimit:10;}
	.st249{fill:#EFCF97;}
	.st250{fill:#846431;}
	.st251{fill:#75634C;}
	.st252{fill:#7A6A59;}
	.st253{fill:none;}
	.st254{font-family:'ArialMT';}
	.st255{font-size:56.4416px;}
	.st256{letter-spacing:10.7;}
	.st257{fill:#FFF980;stroke:#000000;stroke-miterlimit:10;}
	.st258{font-family:'MyriadPro-Regular';}
	.st259{font-size:94.0694px;}
	.st260{fill:#FFF980;stroke:#FFF980;stroke-miterlimit:10;}
	.st261{fill:#66633A;}
	.st262{font-family:'Arial-BoldMT';}
	.st263{font-size:114.5115px;}
	.st264{letter-spacing:68.5;}
	.st265{fill:#EDFF85;stroke:#EDFF85;stroke-miterlimit:10;}
	.st266{fill:#60663B;}
	.st267{fill:#E5DFA1;}
	.st268{fill:#56514C;}
	.st269{font-size:41.8506px;}
	.st270{letter-spacing:8.2;}
	.st271{fill:#F9F6CD;stroke:#000000;stroke-miterlimit:10;}
	.st272{fill:none;stroke:#2D2924;stroke-width:24;stroke-miterlimit:10;stroke-dasharray:9.8069,9.8069;}
	.st273{fill:none;stroke:#2D2924;stroke-width:18;stroke-miterlimit:10;stroke-dasharray:11.8613,11.8613;}
	.st274{fill:none;stroke:#2D2924;stroke-width:18;stroke-miterlimit:10;stroke-dasharray:10.2463,10.2463;}
</style>
<g id="menu">
	<g id="menu_x5F_sell_1_">
		<rect x="38.6" y="370.3" class="st240" width="1602.9" height="1693.6"/>
		<g id="wood_x5F_sell_2_">
			<line class="st241" x1="363.6" y1="370.3" x2="363.6" y2="794.1"/>
			<line class="st241" x1="910" y1="370.3" x2="910" y2="794.1"/>
			<line class="st241" x1="38.6" y1="794.1" x2="1501.3" y2="794.1"/>
			<rect x="82.8" y="675.1" class="st253" width="287.6" height="70.5"/>
			<text id="wood_5_" transform="matrix(1.0245 0 0 1 82.7715 715.5418)" class="st254 st255 st256">WOOD</text>
			<rect x="1056.5" y="675.1" class="st253" width="267.5" height="70.5"/>
			<text id="money_5_" transform="matrix(1.0245 0 0 1 1056.498 715.5418)" class="st254 st255 st256">MONEY</text>
			<path id="wood-minus_x5F_sell" class="st246" d="M571.6,728.9H414.3c-8.8,0-16-7.2-16-16v-32.6c0-8.8,7.2-16,16-16h157.3
				c8.8,0,16,7.2,16,16v32.6C587.6,721.7,580.5,728.9,571.6,728.9z"/>
			<path id="wood-plus_x5F_sell" class="st246" d="M866,664.3h-51.7v-44.5c0-8.3-6.1-15.1-13.7-15.1h-31.2
				c-7.5,0-13.7,6.7-13.7,15.1v44.5h-51.7c-7.5,0-13.7,6.7-13.7,15.1v34.5c0,8.3,6.1,15.1,13.7,15.1h51.7v44.5
				c0,8.3,6.1,15.1,13.7,15.1h31.2c7.5,0,13.7-6.7,13.7-15.1v-44.5H866c7.5,0,13.7-6.7,13.7-15.1v-34.5
				C879.6,671,873.5,664.3,866,664.3z"/>
			<g id="wood_x5F_pick_2_">
				<ellipse class="st247" cx="131" cy="546.4" rx="63.2" ry="58.3"/>
				<ellipse class="st248" cx="131" cy="546.4" rx="56.1" ry="51.8"/>
				<ellipse class="st248" cx="131" cy="546.4" rx="48.2" ry="44.5"/>
				<ellipse class="st248" cx="131" cy="546.4" rx="40.8" ry="37.7"/>
				<ellipse class="st248" cx="131" cy="546.4" rx="33.4" ry="30.9"/>
				<ellipse class="st248" cx="131" cy="546.4" rx="25.8" ry="23.8"/>
				<ellipse class="st248" cx="131" cy="546.4" rx="19.2" ry="17.7"/>
				<ellipse class="st249" cx="131" cy="546.4" rx="10.7" ry="9.9"/>
				<polygon class="st250" points="117.6,489.9 295.1,431.5 306.2,434.1 316,440.3 324.5,450.2 327.1,463.7 327.1,477.3 323.2,488 
					170.1,592.2 180.5,582.7 188.7,570.3 193.6,554.9 194.2,546.4 192.7,533.6 187.6,520.3 180.3,509.9 172.7,502.5 162.9,496 
					152.3,491.4 140.3,488.7 131,488 				"/>
			</g>
			<g id="sell_x5F_btn_x5F_wood_2_">
				<rect x="1501.3" y="370.3" class="st257" width="140.3" height="423.8"/>
				<rect x="1553.4" y="405" class="st253" width="69.4" height="455"/>
				<text id="sell_x5F_vertic_5_" transform="matrix(1.0245 0 0 1 1553.3848 445.3636)"><tspan x="0" y="0" class="st254 st255 st256"> </tspan><tspan x="0" y="67.7" class="st254 st255 st256">S</tspan><tspan x="0" y="135.5" class="st254 st255 st256">E</tspan><tspan x="0" y="203.2" class="st254 st255 st256">L</tspan><tspan x="0" y="270.9" class="st254 st255 st256">L</tspan></text>
			</g>
			<rect x="411.2" y="426.4" class="st253" width="462.6" height="163.7"/>
			<text id="quantity-wood_x5F_sell" transform="matrix(1.0245 0 0 1 617.7734 493.1483)" class="st258 st259">0</text>
			<rect x="949" y="423.8" class="st253" width="526.2" height="238.5"/>
			<text id="quantity-money-wood_x5F_sell" transform="matrix(1.0245 0 0 1 1187.3916 490.5999)" class="st258 st259">0</text>
		</g>
		<g id="stone_x5F_sell_2_">
			<line class="st241" x1="363.6" y1="794.1" x2="363.6" y2="1217.9"/>
			<line class="st241" x1="910" y1="794.1" x2="910" y2="1217.9"/>
			<line class="st241" x1="38.6" y1="1217.9" x2="1501.3" y2="1217.9"/>
			<rect x="74.9" y="1098.9" class="st253" width="287.6" height="70.5"/>
			<text id="wood_4_" transform="matrix(1.0245 0 0 1 74.8867 1139.3567)" class="st254 st255 st256">STONE</text>
			<rect x="1056.5" y="1098.9" class="st253" width="267.5" height="70.5"/>
			<text id="money_4_" transform="matrix(1.0245 0 0 1 1056.498 1139.3567)" class="st254 st255 st256">MONEY</text>
			<path id="stone_x5F_minus_x5F_sell" class="st246" d="M571.6,1152.7H414.3c-8.8,0-16-7.2-16-16v-32.6c0-8.8,7.2-16,16-16h157.3
				c8.8,0,16,7.2,16,16v32.6C587.6,1145.5,580.5,1152.7,571.6,1152.7z"/>
			<path id="stone-plus_x5F_sell" class="st246" d="M866,1088.1h-51.7v-44.5c0-8.3-6.1-15.1-13.7-15.1h-31.2
				c-7.5,0-13.7,6.7-13.7,15.1v44.5h-51.7c-7.5,0-13.7,6.7-13.7,15.1v34.5c0,8.3,6.1,15.1,13.7,15.1h51.7v44.5
				c0,8.3,6.1,15.1,13.7,15.1h31.2c7.5,0,13.7-6.7,13.7-15.1v-44.5H866c7.5,0,13.7-6.7,13.7-15.1v-34.5
				C879.6,1094.9,873.5,1088.1,866,1088.1z"/>
			<g id="sell-btn_x5F_stone">
				<rect x="1501.3" y="794.1" class="st257" width="140.3" height="423.8"/>
				<rect x="1553.4" y="828.8" class="st253" width="69.4" height="455"/>
				<text id="sell_x5F_vertic_4_" transform="matrix(1.0245 0 0 1 1553.3848 869.1785)"><tspan x="0" y="0" class="st254 st255 st256"> </tspan><tspan x="0" y="67.7" class="st254 st255 st256">S</tspan><tspan x="0" y="135.5" class="st254 st255 st256">E</tspan><tspan x="0" y="203.2" class="st254 st255 st256">L</tspan><tspan x="0" y="270.9" class="st254 st255 st256">L</tspan></text>
			</g>
			<g id="stone_x5F_pick_2_">
				<path class="st251" d="M92.8,1004.6l15.5,8.4c13.2,7.2,27.3,11.8,41.7,13.9l1.2,0.2c13.3,1.9,26.7,2,40.1,0.4l13-1.6
					c19.8-2.4,39.2-8,57.7-16.8l31.3-14.9c2.1-1,3-3.8,2.1-6.2l-20.3-50.1c-7.5-18.5-18.4-34.7-32-47.6l-1.7-1.6
					c-14.9-14.2-32.7-23.5-51.6-27.2l-11.8-2.3c-10.7-2.1-21.6,2.1-29.2,11.1l-15.5,18.6l-21.7,28.9c-6.8,9.1-11.3,20.1-13,32
					l-7.3,51.5C91,1002.6,91.7,1004,92.8,1004.6z"/>
				<path class="st252" d="M163.1,892.9L137,924c-3.1,3.7-5.2,8.1-6,12.8l-7.4,42.8c-0.6,3.2,1.3,6.3,4.5,7.4l29,9.9
					c2.2,0.7,4.5-0.6,4.9-2.8l12.7-63.6l12.5-37.6l-6.7-3.5c-3.6-1.9-8-1.8-11.5,0.2L163.1,892.9z"/>
			</g>
			<rect x="411.2" y="853.4" class="st253" width="462.6" height="163.7"/>
			<text id="quantity-stone_x5F_sell" transform="matrix(1.0245 0 0 1 617.7734 920.1644)" class="st258 st259">0</text>
			<rect x="949" y="853.4" class="st253" width="526.2" height="238.5"/>
			<text id="quantity-money-stone_x5F_sell" transform="matrix(1.0245 0 0 1 1187.3916 920.1644)" class="st258 st259">0</text>
		</g>
	</g>
	<g id="sell_x5F_btn">
		<path class="st260" d="M840.1,368.5H36.4v-152c0-28,22.7-50.6,50.6-50.6h753.1V368.5z"/>
		<rect x="255.6" y="206.7" class="st253" width="509.6" height="121.9"/>
		<text id="sell" transform="matrix(0.744 0 0 1 255.626 304.8997)" class="st261 st262 st263 st264">SELL</text>
	</g>
	<g id="buy_x5F_btn">
		<path class="st265" d="M840.1,368.5l803.7,0.1l0-152c0-28-22.7-50.6-50.6-50.7l-753.1-0.1L840.1,368.5z"/>
		<rect x="1075.1" y="206.3" class="st253" width="509.6" height="121.9"/>
		<text id="buy" transform="matrix(0.744 0 0 1 1075.1328 304.5286)" class="st266 st262 st263 st264">BUY</text>
	</g>
	<g id="close-menu">
		<path class="st267" d="M1186.5,148.3H497.8c-21.9,0-39.7-17.8-39.7-39.7V64.9c0-21.9,17.8-39.7,39.7-39.7h688.7
			c21.9,0,39.7,17.8,39.7,39.7v43.7C1226.1,130.6,1208.4,148.3,1186.5,148.3z"/>
		<rect x="491.4" y="62.9" class="st253" width="698.3" height="72.8"/>
		<text transform="matrix(1.8234 0 0 1 560.5635 92.6502)" class="st268 st258 st269 st270">CLOSE MENU</text>
	</g>
	<polygon class="st246" points="1588.1,2200.8 828.1,2200.8 1208.1,2092.8 	"/>
	<polygon class="st246" points="441.8,2198 64.5,2090 819.2,2090 	"/>
	<rect id="border" x="36.4" y="368.5" class="st241" width="1607.5" height="1695.3"/>
</g>
</svg>
