<?xml version="1.0" encoding="utf-8"?>
<!-- Generator: Adobe Illustrator 21.1.0, SVG Export Plug-In . SVG Version: 6.00 Build 0)  -->
<svg version="1.1" id="game" xmlns="http://www.w3.org/2000/svg" xmlns:xlink="http://www.w3.org/1999/xlink" x="0px" y="0px"
	 viewBox="0 0 1668 2224" style="enable-background:new 0 0 1668 2224;" xml:space="preserve">
<style type="text/css">
	.st0{fill:url(#gradient4_1_);}
	.st1{fill:url(#gradient5_1_);}
	.st2{fill:#66E2FF;}
	.st3{fill:none;stroke:#B28052;stroke-miterlimit:10;}
	.st4{fill:#96735C;}
	.st5{fill:#825D49;stroke:#BF8A5E;stroke-miterlimit:10;}
	.st6{fill:#AD7D5C;stroke:#B28052;stroke-miterlimit:10;}
	.st7{fill:#BC8864;stroke:#B28052;stroke-miterlimit:10;}
	.st8{fill:#A37B61;}
	.st9{fill:#BC8866;}
	.st10{fill:#E0A57E;stroke:#B28052;stroke-miterlimit:10;}
	.st11{fill:#D19A7C;stroke:#B28052;stroke-miterlimit:10;}
	.st12{fill:#F4DBCE;}
	.st13{fill:#DBC7BF;}
	.st14{fill:#8E684F;stroke:#BF8A5E;stroke-miterlimit:10;}
	.st15{fill:#AD753E;}
	.st16{fill:#966636;}
	.st17{fill:#A87339;}
	.st18{fill:#BC8651;}
	.st19{fill:#AA7A4F;}
	.st20{fill:#C99465;}
	.st21{fill:none;stroke:#634B2A;stroke-miterlimit:10;}
	.st22{fill:#B28052;}
	.st23{fill:#96674D;stroke:#A57758;stroke-width:3;stroke-miterlimit:10;}
	.st24{fill:none;stroke:#A57758;stroke-width:3;stroke-miterlimit:10;}
	.st25{fill:#5C7552;}
	.st26{fill:#E2CA96;}
	.st27{fill:#6F8763;}
	.st28{fill:#EAD7A2;}
	.st29{fill:#F9F2EF;}
	.st30{fill:#382C26;}
	.st31{fill:#936F5F;}
	.st32{fill:#7C655C;}
	.st33{fill:#F9A182;}
	.st34{fill:#DBC697;}
	.st35{fill:#8C7857;}
	.st36{fill:#635872;}
	.st37{fill:#6B7F60;}
	.st38{fill:#755D3F;}
	.st39{fill:#C9B8A7;}
	.st40{fill:#00CFFF;}
	.st41{fill:#03CDE2;}
	.st42{fill:#00DBFF;}
	.st43{fill:#00E7FF;}
	.st44{fill:#00F3FF;}
	.st45{fill:#2EFFF9;}
	.st46{fill:#78FFF8;}
	.st47{fill:#FFF0BF;}
	.st48{fill:#F7E4A6;}
	.st49{fill:#BCCC60;}
	.st50{fill:url(#sea_1_);}
	.st51{fill:#98958C;}
	.st52{fill:#ACA7A1;}
	.st53{fill:#C2BEB5;}
	.st54{fill:#D6C8A3;}
	.st55{fill:#D3C7A7;}
	.st56{fill:#DBCDAF;}
	.st57{fill:#ADA8A2;}
	.st58{fill:#99968D;}
	.st59{fill:#C2BDB3;}
	.st60{fill:#8D8880;}
	.st61{fill:#D3CAB2;}
	.st62{fill:#8B877E;}
	.st63{fill:#9B988F;}
	.st64{fill:#B9B2AA;}
	.st65{fill:#C3BFB6;}
	.st66{fill:#DDCFAF;}
	.st67{fill:#CCBFA6;}
	.st68{fill:#CED18B;}
	.st69{fill:#99968B;}
	.st70{fill:#969089;}
	.st71{fill:#C4BFB3;}
	.st72{fill:#939189;}
	.st73{fill:#B7B5AB;}
	.st74{fill:#C6BBA5;}
	.st75{fill:#CEC2AA;}
	.st76{fill:#CCC1AA;}
	.st77{fill:#9E9C95;}
	.st78{fill:#C9BDA6;}
	.st79{fill:#C6BBA7;}
	.st80{fill:#BAB3A6;}
	.st81{fill:#A5A299;}
	.st82{fill:#CCC0A8;}
	.st83{fill:#C3BFB4;}
	.st84{fill:#9A978E;}
	.st85{fill:#B8B1AA;}
	.st86{fill:#8D877F;}
	.st87{fill:#C4BCA9;}
	.st88{fill:#B5AD9E;}
	.st89{fill:#C5BEB6;}
	.st90{fill:#B5B3AC;}
	.st91{fill:#D5D1C6;}
	.st92{fill:#BCB4B1;}
	.st93{fill:#999793;}
	.st94{fill:#8E8E87;}
	.st95{fill:#A3A19D;}
	.st96{fill:#B5B4B1;}
	.st97{fill:#A8A7A7;}
	.st98{fill:#A09D97;}
	.st99{fill:#D3CFC3;}
	.st100{fill:#ADAAA6;}
	.st101{fill:#B2B1AF;}
	.st102{fill:#9B978F;}
	.st103{fill:#AAA7A0;}
	.st104{fill:#CCC8C4;}
	.st105{fill:#D3D0CD;}
	.st106{fill:#C9C3BD;}
	.st107{fill:#B2AFA8;}
	.st108{fill:#999692;}
	.st109{fill:#898683;}
	.st110{fill:#A3A29B;}
	.st111{fill:#B2AEAA;}
	.st112{fill:#D6D0C9;}
	.st113{fill:#918D87;}
	.st114{fill:#DBD5C6;}
	.st115{fill:#B7B3AE;}
	.st116{fill:#C4C1BB;}
	.st117{fill:#9B9891;}
	.st118{fill:#D8D5CB;}
	.st119{fill:#939089;}
	.st120{fill:#A8A6A0;}
	.st121{fill:#D8D5D0;}
	.st122{fill:#A8A49B;}
	.st123{fill:#96928A;}
	.st124{fill:#CEC8C2;}
	.st125{fill:#C4996C;}
	.st126{fill:#B7845A;}
	.st127{fill:#D5A776;}
	.st128{fill:#477F16;}
	.st129{fill:#436818;}
	.st130{fill:#AA7B43;}
	.st131{fill:#B79056;}
	.st132{fill:#AD9655;}
	.st133{fill:#DD9D68;}
	.st134{fill:#C18B59;stroke:#A87848;stroke-miterlimit:10;}
	.st135{fill:#B28056;}
	.st136{fill:#AD7D59;}
	.st137{fill:#AA7D5C;}
	.st138{fill:#DDCBBF;}
	.st139{fill:#DBDAD9;}
	.st140{fill:#D8A380;}
	.st141{fill:#CE987A;}
	.st142{fill:#CC9D85;}
	.st143{fill:#C6977F;}
	.st144{fill:#C19784;}
	.st145{fill:#C69B8B;}
	.st146{fill:#B7958B;}
	.st147{fill:#AF8958;}
	.st148{fill:#967A60;}
	.st149{fill:#C9D1D3;}
	.st150{fill:#635C55;}
	.st151{fill:#65868F;}
	.st152{fill:#6CC1A0;}
	.st153{fill:#EFCE8E;}
	.st154{fill:#60523B;}
	.st155{fill:#EFC58E;}
	.st156{fill:#6D5D41;}
	.st157{fill:#E8C192;}
	.st158{fill:#EFCA7F;}
	.st159{fill:#FFFFFF;}
	.st160{fill:#E5C57C;}
	.st161{fill:#59585E;}
	.st162{fill:#6FC9A9;}
	.st163{fill:#686770;}
	.st164{fill:#7F6752;}
	.st165{fill:#777770;}
	.st166{fill:#F29575;}
	.st167{fill:#CE6E6E;}
	.st168{fill:#3F3831;}
	.st169{fill:#86D1B1;}
	.st170{fill:#2D2924;}
	.st171{fill:none;stroke:#2D2924;stroke-width:24;stroke-miterlimit:10;}
	.st172{fill:none;stroke:#2D2924;stroke-width:24;stroke-miterlimit:10;stroke-dasharray:10.0234,10.0234;}
	.st173{fill:#C0D3D7;}
	.st174{fill:#98A9B1;}
	.st175{fill:#D8372D;}
	.st176{fill:#414143;}
	.st177{fill:#EE5547;}
	.st178{fill:#A22921;}
	.st179{fill:#9C271F;}
	.st180{fill:#D2C4A9;}
	.st181{fill:#ABABAB;}
	.st182{fill:#4F4F4F;}
	.st183{fill:none;stroke:#2D2924;stroke-width:18;stroke-miterlimit:10;}
	.st184{fill:none;stroke:#2D2924;stroke-width:18;stroke-miterlimit:10;stroke-dasharray:8.8394,8.8394;}
	.st185{fill:none;stroke:#2D2924;stroke-width:18;stroke-miterlimit:10;stroke-dasharray:9.9611,9.9611;}
	.st186{fill:#E26B47;}
	.st187{fill:#FF8243;}
	.st188{fill:#47413F;}
	.st189{fill:#EF8424;}
	.st190{fill:#FDA83D;}
	.st191{fill:#994E22;}
	.st192{fill:#965F29;}
	.st193{fill:#7F7F7F;}
	.st194{fill:#D6D5D4;}
	.st195{fill:#C98235;}
	.st196{fill:#999999;}
	.st197{fill:#E2E1E0;}
	.st198{fill:#D98D31;}
	.st199{fill:#B5B5B5;}
	.st200{fill:url(#gradient_1_);}
	.st201{fill:#997933;}
	.st202{fill:#937334;}
	.st203{fill:#A9DB52;}
	.st204{fill:#96C639;}
	.st205{fill:#82B71C;}
	.st206{fill:#B6E55C;}
	.st207{fill:#90C125;}
	.st208{fill:#A9D146;}
	.st209{fill:#8E7036;}
	.st210{fill:#846939;}
	.st211{fill:#78A038;stroke:#81AD2B;stroke-width:3;stroke-miterlimit:10;}
	.st212{fill:#658E30;}
	.st213{fill:#85AA44;}
	.st214{fill:#7EAF31;}
	.st215{fill:#018287;}
	.st216{fill:#0F0F0F;}
	.st217{fill:#303030;}
	.st218{fill:#333333;}
	.st219{fill:#1A1A1A;}
	.st220{fill:#424242;}
	.st221{fill:#00666A;}
	.st222{fill:#212121;}
	.st223{fill:#111111;}
	.st224{fill:#A3A3A3;}
	.st225{fill:#ACACAE;}
	.st226{fill:#161616;}
	.st227{fill:#00686B;}
	.st228{fill:#161616;stroke:#373737;stroke-miterlimit:10;}
	.st229{fill:none;stroke:#D98D31;stroke-miterlimit:10;}
	.st230{fill:#242424;}
	.st231{fill:#373737;}
	.st232{fill:url(#gradient2_1_);}
	.st233{fill:url(#gradient3_1_);}
	.st234{fill:#B67D56;}
	.st235{fill:#83492A;}
	.st236{fill:#9C6038;}
	.st237{fill:#683920;}
	.st238{fill:#563119;}
	.st239{fill:#CC9E75;}
	.st240{fill:#633A23;}
	.st241{fill:#F9F6CD;stroke:#000000;stroke-miterlimit:10;}
	.st242{fill:none;stroke:#2D2924;stroke-width:24;stroke-miterlimit:10;stroke-dasharray:9.8069,9.8069;}
	.st243{fill:none;stroke:#2D2924;stroke-width:18;stroke-miterlimit:10;stroke-dasharray:11.8613,11.8613;}
	.st244{fill:none;stroke:#2D2924;stroke-width:18;stroke-miterlimit:10;stroke-dasharray:10.2463,10.2463;}
	.st245{fill:#C4ED6B;stroke:#000000;stroke-miterlimit:10;}
	.st246{fill:#EAAB6C;stroke:#EAAB6C;stroke-miterlimit:10;}
	.st247{fill:none;stroke:#FFC088;stroke-miterlimit:10;}
	.st248{fill:#FFC088;stroke:#FFC088;stroke-miterlimit:10;}
	.st249{fill:#996531;}
	.st250{fill:#776947;}
	.st251{fill:#7F735C;}
	.st252{fill:#E1EA6C;stroke:#000000;stroke-miterlimit:10;}
	.st253{fill:#D6A3A3;}
	.st254{fill:#55B7BC;}
</style>
<g id="modalcliffs">
	<linearGradient id="gradient2_1_" gradientUnits="userSpaceOnUse" x1="837.9923" y1="431.5338" x2="837.9923" y2="2236.6379">
		<stop  offset="0" style="stop-color:#FFFFFF"/>
		<stop  offset="9.868443e-03" style="stop-color:#FFFDF9"/>
		<stop  offset="6.976128e-02" style="stop-color:#FEF4DA"/>
		<stop  offset="0.1375" style="stop-color:#FDEDBE"/>
		<stop  offset="0.2141" style="stop-color:#FCE7A8"/>
		<stop  offset="0.3035" style="stop-color:#FCE297"/>
		<stop  offset="0.4141" style="stop-color:#FBDE8C"/>
		<stop  offset="0.5693" style="stop-color:#FBDD85"/>
		<stop  offset="1" style="stop-color:#FBDC83"/>
	</linearGradient>
	<polygon id="gradient2" class="st232" points="-9.5,493.7 219.3,452.8 463.7,431.5 751.1,431.5 1033.3,461.7 1329.3,523.7 
		1544.4,608.9 1685.5,694 1685.5,2236.6 -9.5,2236.6 	"/>
	<linearGradient id="gradient3_1_" gradientUnits="userSpaceOnUse" x1="836.8057" y1="698.5299" x2="836.8057" y2="-34.2363">
		<stop  offset="0" style="stop-color:#FFFFFF"/>
		<stop  offset="8.858725e-02" style="stop-color:#F3FDFF"/>
		<stop  offset="0.2505" style="stop-color:#D2F8FF"/>
		<stop  offset="0.4677" style="stop-color:#9CEFFF"/>
		<stop  offset="0.7321" style="stop-color:#52E4FF"/>
		<stop  offset="1" style="stop-color:#00D7FF"/>
	</linearGradient>
	<path id="gradient3" class="st233" d="M-19.9,502.5h46.5h67.1l74-21.3l89.3-31.7h79.3h99.8h111.5c6,0,12-0.4,18-1.2L675.3,434
		c12.6-1.7,25.4-1.3,38,1l82.4,14.9c6.1,1.1,12.2,2.8,18.2,5l83.9,30.9c9.7,3.6,19.4,6,29.3,7.3l64.1,8.3c5.4,0.7,10.9,1.1,16.3,1.1
		h32.8c6.6,0,13.1-0.5,19.7-1.5l19.5-3c7.6-1.2,15.1-1.7,22.7-1.5l4.8,0.1c12.6,0.3,25.1,2.5,37.4,6.6l14.8,4.8
		c10.3,3.4,20.4,8,30.3,13.9l31.9,19c6.7,4,13.5,7.4,20.3,10.1l4.7,1.9c12,4.8,24.4,7,36.7,6.4l13.2-0.6c3.2-0.2,6.3-0.5,9.5-1
		c7.4-1.2,21.6-3.5,25.7-3.5c3.4,0,18.7,1.2,30.5,2.2c9.6,0.8,19.1,2.5,28.5,5l7.2,1.9c14.3,3.9,28.3,10.4,41.8,19.5l16.3,11
		l43.8,32.2c7.4,5.4,15,9.7,22.7,12.9l12.5,5.1c11.6,4.7,23.5,7.4,35.5,8.1l12.7,0.7c10.4,0.6,20.8,2.5,31,5.8l9.1,2.9
		c11.2,3.5,22.2,8.6,32.9,15l21,12.6l16.3,9.6V-16.4l-91.1-4.1l-91.5-5.2l-122.6-5.2l-117.3-3.4h-132.3H982.3H815.7l-147,4.4
		l-136.2,2.1l-138.2,3.3l-131.1,5l-113.1,4.1l-89.9,1.7l-74.1,0.2L-19.9,502.5z"/>
	<g>
		<path class="st234" d="M324.5,880.1c-5.1-33.2-4.1-45.9-34.9-82.2C246.5,739.4,165.4,669,165.4,669l-43.1,23.7
			c0,0-39,128.1-41.1,149.4c-1.7,17.4,2.8,157.5,4.5,185.8l59.7,4.2l65.3-12.7l60.2,3.2l36.8-23.2l25.1-34.1
			C331.4,944.8,328.2,904.2,324.5,880.1z"/>
		<g>
			<path class="st235" d="M-68.2,965.4l64.1,114.4l52-40.1l37.9-11.6c-0.3-4.2-0.6-72.2-0.9-78.3c-31.1-49.5-97.5-140.6-97.5-140.6
				S-75.3,923.6-68.2,965.4z"/>
			<path class="st236" d="M-12.7,809.1c0,0,66.5,91.2,97.5,140.6c-1.9-33.2-4.8-88.3-3.7-105.6C31.4,785.3-61.3,705.6-61.3,705.6
				L-12.7,809.1z"/>
		</g>
		<path class="st234" d="M-61.3,705.6c0,0,92.7,79.7,142.4,138.5c0-0.7,0.1-1.3,0.1-1.9c2.1-21.3,41.1-149.4,41.1-149.4L0.8,476.1
			L-61.3,705.6z"/>
		<g>
			<path class="st236" d="M126,544.9C112.6,499,37.2,310.5,37.2,310.5l-43.7,75l135,167.9C127.7,550.6,126.8,547.7,126,544.9z"/>
			<path class="st234" d="M153.7,654.1c0,0-12.6-55.8-25.2-100.6l-135-167.9l-0.3,0.6l7.7,89.9l121.5,216.7l43.1-23.7L153.7,654.1z"
				/>
		</g>
		<path class="st234" d="M77.4,167.6c-10.8-5.4-27.8,22.6-45.6,43.5c-9.2,12-12.6,16.3-13.1,20.5l148,122.7L80.9,168.9
			C79.7,168.5,78.5,168,77.4,167.6z"/>
		<path class="st236" d="M302.9,267l-4.6-6.4c0,0-154.7-67.7-217.4-91.6l85.8,185.3l89.5,74.2l-2.7-22.8
			C253.6,405.6,286.5,321.1,302.9,267z"/>
		<g>
			<path class="st235" d="M451.6,935.8c0,0-44.8-129.8-55.7-156c-10.8-26.2-10.8-47.6-10.8-47.6L256.3,428.4L18.7,231.6
				c-0.3,2.9,0.7,5.7,2.3,11.1c3.9,13.1,16.2,67.9,16.2,67.9S112.6,499,126,544.9c13.4,45.9,27.7,109.2,27.7,109.2l11.7,14.9
				c0,0,81.1,70.4,124.2,128.9c4.7,5.6,8.7,10.6,12.1,15.2c6.9,5,15.9,11.7,27.5,20.4C368.4,863,451.6,935.8,451.6,935.8z"/>
			<path class="st236" d="M329.1,833.5c-11.6-8.7-20.5-15.3-27.5-20.4c18.6,25.5,18.5,38.9,22.8,67c3.7,24,6.9,64.6,8.4,85.2
				l58.4,8.8h56.5l33.1-8.8l-29.3-29.5C451.6,935.8,368.4,863,329.1,833.5z"/>
			<polygon class="st236" points="60.4,302.2 159.3,583.3 307.8,752.4 261.4,583.3 245.9,447.5 			"/>
		</g>
		<path class="st235" d="M388,711.4l-2.9,20.7c0,0,0,21.4,10.8,47.6c10.8,26.2,55.7,156,55.7,156l29.3,29.5l37.2-4.8l63.1,13.6
			l44.1-8.8c-15-24.7-55.2-89.5-92.8-139.9C482,767.5,388,711.4,388,711.4z"/>
		<path class="st237" d="M551.5,727.1l-45-91.1l-61.8-171.8l-64.9-62.1L328,301.9l-0.7-0.5L302.9,267
			c-16.3,54.1-49.3,138.6-49.3,138.6l2.7,22.8l128.9,303.7l2.9-20.7c0,0,94.1,56.1,144.6,114c5.9,7.9,11.9,16.2,17.8,24.6l2.2-55.2
			L551.5,727.1z"/>
		<g>
			<path class="st238" d="M328,301.9l51.7,100.2l64.3,61.5c5.6-18.8,13.8-48.5,18-63.5L328,301.9z"/>
			<path class="st238" d="M676.8,792.6l-143.5-130l-67.8-259.9l-3.5-2.5c-4.1,15-12.4,44.7-18,63.5l0.6,0.6L506.5,636l45,91.1
				l1,67.8l-2.2,55.2c31.8,45.2,62.3,94.5,75,115.3l46.3,6l46.8-6L676.8,792.6z"/>
		</g>
		<polygon class="st239" points="-4.6,530.9 -38.6,680.9 41.8,773.8 54.2,702.4 		"/>
		<polygon class="st239" points="150.1,683.3 106.8,833.4 125.3,952.5 273.8,804.8 		"/>
		<polygon class="st239" points="17.1,438 17.1,488 129.3,690.2 71.6,500.4 		"/>
		<polygon class="st236" points="474.8,931.1 403.7,742.9 511.9,831 518.1,890.6 		"/>
		<polygon class="st235" points="314,328.4 289.2,418.9 406.8,697.6 391.3,523.7 431.5,488 357.3,423.7 		"/>
		<polygon class="st235" points="447.8,576.2 492.9,752.9 526.2,709.1 		"/>
	</g>
	<g>
		<g>
			<path class="st236" d="M855,341.4c-6.7,69.9-9.8,133.3-9.8,133.3l-0.1,0.3l68.7,25.3L855,341.4z"/>
			<path class="st234" d="M976.1,605.8l-11.5-43.5l-50.8-62L845.1,475l-41.4,142.2c0,0-31.7,70.3-17.4,200.6l104.1,48.6l53-37.9
				l0.6,0.3C942.7,765.1,976.1,605.8,976.1,605.8z"/>
			<path class="st239" d="M854.7,497l-55.5,181.4l3.8,127.2c0,0,46.8-99.7,49.2-104c2.4-4.4,86.6-33.5,86.6-33.5l17.2-62.5
				l-49.7-95.9L854.7,497z"/>
		</g>
		<path class="st234" d="M964.4,472.6C960.6,399,944,272.5,944,272.5l-29.3-36.8c0,0-51,77.1-59.3,101.5c-0.1,1.4-0.3,2.8-0.4,4.2
			l58.8,158.9l50.8,62l0.1,0.5C965.8,546,966.7,516.5,964.4,472.6z"/>
		<path class="st236" d="M1054.9,368.4l-2-24.6L944,272.5c0,0,16.6,126.5,20.4,200.1c2.3,43.8,1.4,73.4,0.3,90.1l11.4,43.1
			c0,0-33.4,159.2-32.1,222.9l84.2,48.5c0,0,65.2-49.6,65.2-50.9l-12-172L1054.9,368.4z"/>
		<g>
			<polygon class="st235" points="1094.5,476.8 1098.9,437.9 1054.9,368.4 1081.4,654.4 1081.6,657.2 1082,656.4 			"/>
			<path class="st236" d="M1157,517.1l-62.5-40.3L1082,656.4l-0.4,0.8l11.8,169.2c0-1.2,24.8,12.1,24.8,12.1l114-218.5L1157,517.1z"
				/>
			<path class="st234" d="M1105.3,507.4l-17.2,277.3c0,0,36.3-98,42.1-100.1c5.7-2.1,70.8-68.8,70.8-68.8l-54.5-87.2L1105.3,507.4z"
				/>
		</g>
		<g>
			<polygon class="st235" points="1232.2,620 1129,817.8 1147.9,879 1189.5,868.6 1219.1,840.4 1230.1,845.7 1232.2,651.9 			"/>
			<polygon class="st238" points="1232.2,651.9 1230.1,845.7 1231.1,852.4 1259.9,839.1 1268.8,834.9 1263.5,708.2 			"/>
		</g>
		<path class="st236" d="M786.3,817.8c-0.6,17.2,3.5,67.1,3.5,67.1l36.4,39.6l28.7,7.3l35.5,6.1h33.2l-33.2-71.5L786.3,817.8z"/>
		<polygon class="st235" points="943.4,828.4 890.4,866.3 923.7,937.8 956.1,945.8 983.7,947.1 1007.8,938.1 1031.3,929.2 
			1028.2,877.2 		"/>
		<path class="st237" d="M1028.2,877.2l3.1,52h29.5h17.7l14.9-102.8C1093.4,827.6,1028.2,877.2,1028.2,877.2z"/>
		<polygon class="st235" points="1051.8,330.2 914.7,235.7 944,272.5 1052.9,343.8 		"/>
		<path class="st237" d="M1093.4,826.4l-14.2,98l39-85.9C1118.2,838.5,1093.4,825.2,1093.4,826.4z"/>
		<polygon class="st240" points="1129,817.8 1118.2,838.5 1079.2,924.4 1078.5,929.2 1105.2,938.1 1147.6,878.2 		"/>
		<polygon class="st237" points="1147.9,879 1147.6,878.2 1105.2,938.1 1133.7,947.1 1156.9,938.1 1166.5,929.2 1189.5,868.6 		"/>
		<g>
			<polygon class="st238" points="1230.1,845.7 1219.1,840.4 1189.5,868.6 1166.5,929.2 1177.3,929.2 1231.1,852.4 			"/>
			<polygon class="st237" points="1268.8,834.9 1231.1,852.4 1177.3,929.2 1198.8,934.8 1221,934.8 1242.6,932.9 1259.9,929.2 			
				"/>
		</g>
		<polygon class="st239" points="914,257.2 864.3,338.5 917.9,486.5 915.9,392.7 937,351 		"/>
		<polygon class="st234" points="965.7,301 982.9,557.4 1007.8,642.9 1005.9,551.2 1049.9,449 1044.1,355.2 		"/>
	</g>
	<g>
		<g>
			<path class="st236" d="M1579.1,686.3c3.7,34.6,5,65.7,5,65.7l0.1,0.2l-45,4.9L1579.1,686.3z"/>
			<path class="st234" d="M1497.4,801.5l8-19.9l33.7-24.6l45-4.9l25.4,73.3c0,0,19.9,37.5,9.2,99l-68.3,12.4l-34.1-24.1l-0.4,0.1
				C1517.5,882.2,1497.4,801.5,1497.4,801.5z"/>
			<path class="st239" d="M1577.6,761.8l34.2,93.8l-3.8,61.2c0,0-29.4-53.3-31-55.7c-1.5-2.4-56.1-25.5-56.1-25.5l-10.6-32.1
				l33.4-41.1L1577.6,761.8z"/>
		</g>
		<path class="st234" d="M1506.4,738.2c3.3-35.3,15.4-94.8,15.4-94.8l19.5-14.7c0,0,32.4,42.8,37.6,55.5c0.1,0.7,0.2,1.4,0.2,2.1
			l-40,70.7l-33.7,24.6l-0.1,0.2C1504.7,773.6,1504.5,759.2,1506.4,738.2z"/>
		<path class="st236" d="M1448.5,678l1.6-11.7l71.7-22.9c0,0-12.1,59.5-15.4,94.8c-1.9,21-1.7,35.4-1.1,43.6l-7.9,19.7
			c0,0,20.1,80.7,18.6,111.4l-55.4,14.5c0,0-41.9-31-41.9-31.6l9.6-82.1L1448.5,678z"/>
		<g>
			<polygon class="st235" points="1421.6,726.3 1419.1,707 1448.5,678 1428.3,813.7 1428.1,815.1 1427.8,814.6 			"/>
			<path class="st236" d="M1380.5,739.2l41.1-12.8l6.2,88.3l0.3,0.4l-9.4,80.7c0-0.6-16.3,3.2-16.3,3.2l-72-118.1L1380.5,739.2z"/>
			<path class="st234" d="M1414.2,740l8.3,136.2c0,0-22.6-51.4-26.4-53c-3.7-1.6-45.4-40.9-45.4-40.9l36.4-36.4L1414.2,740z"/>
		</g>
		<g>
			<polygon class="st235" points="1330.4,780.9 1395.6,887.8 1382.6,915.5 1355.6,906 1336.6,889.2 1329.4,890.5 1330.1,796.4 			
				"/>
		</g>
		<path class="st236" d="M1618.8,924.5c0.2,8.4-3,32.1-3,32.1l-24.1,15.3l-18.8,0.5l-23.2-0.9l-21.6-3.6l22.4-31.1L1618.8,924.5z"/>
		<polygon class="st235" points="1516.3,912.8 1550.4,936.9 1528.1,968 1506.8,968.4 1488.8,966.1 1473.3,959.1 1458,952.3 
			1460.6,927.4 		"/>
		<path class="st237" d="M1460.6,927.4l-2.6,24.9l-19.2-3.2l-11.5-1.9l-8.6-51.4C1418.7,896.4,1460.6,927.4,1460.6,927.4z"/>
		<polygon class="st235" points="1451,659.8 1541.3,628.7 1521.8,643.4 1450.1,666.3 		"/>
		<path class="st237" d="M1418.7,895.8l8.2,49l-24.5-45.8C1402.4,899,1418.7,895.2,1418.7,895.8z"/>
		<polygon class="st238" points="1395.6,887.8 1402.4,899 1426.9,944.8 1427.3,947.2 1409.8,948.7 1382.8,915.1 		"/>
		<polygon class="st237" points="1382.6,915.5 1382.8,915.1 1409.8,948.7 1391.1,950 1376.1,943.1 1370,937.8 1355.6,906 		"/>
		<g>
			<polygon class="st238" points="1329.4,890.5 1336.6,889.2 1355.6,906 1370,937.8 1363,936.7 1328.7,893.7 			"/>
		</g>
		<polygon class="st239" points="1541.5,639.2 1573,684 1536.6,749.9 1538.8,704.7 1525.5,682.2 		"/>
		<polygon class="st234" points="1507.4,654.9 1493.5,777.3 1476.4,816.1 1478.6,771.8 1451,717.6 1455.7,672.8 		"/>
	</g>
	<g id="stone">
		<path class="st234" d="M1566.2,1295.8c-31.5,17.9-43.6,19.9-77,80.5c-54,87-117.7,239.2-117.7,239.2l24.5,63.2
			c0,0,124.1,26.4,144.5,23.5c16.7-2.3,150.3-50,177.3-61l88.2-50.6l-28.8-185.7l-32.5-126.5l-31.3-54.7l-66.1,33.9
			C1627.7,1265.9,1589,1282.8,1566.2,1295.8z"/>
		<g>
			<path class="st235" d="M1775.1,1888l-12.9-78.5c-3-18.2-3.5-37.7-1.4-57.4l3.9-37.2c2.5-23.2,7.3-46.5,14.3-69.3l15-48.2
				c-4,1.6-145.1,65.5-150.9,67.9c-45.9,64.8-130.1,199.2-130.1,199.2l22.6,12.9c25.8,14.7,53.8,23.9,83.2,27.4l38.3,4.5
				c16.6,1.9,33.7,0.7,51-3.8L1775.1,1888z"/>
			<path class="st236" d="M1513,1864.5c0,0,84.2-134.4,130.1-199.2c-31.6,12.7-84.2,33.3-100.8,36.6
				c-54,97.8-141.1,249.3-141.1,249.3L1513,1864.5z"/>
		</g>
		<path class="st234" d="M1401.3,1951.2c0,0,87-151.5,141.1-249.3c-0.7,0.1-1.3,0.2-1.8,0.3c-20.5,2.8-144.5-23.5-144.5-23.5
			l-201.7,260.1L1401.3,1951.2z"/>
		<g>
			<path class="st236" d="M1254.5,1715.4c-43.3,35.1-220.1,212.2-220.1,212.2l92.6,16.4l135.5-235
				C1259.9,1711.1,1257.2,1713.3,1254.5,1715.4z"/>
			<path class="st234" d="M1357.7,1638.8c0,0-52.8,36.6-95,70.1l-135.5,235l0,0l67.1-5.2l201.7-260.1l-24.5-63.2L1357.7,1638.8z"/>
		</g>
		<path class="st234" d="M896.2,1903.6c-4.7,19.1,82.9,35.8,82.9,35.8s-4.1,0.4,0,0l91.5-234.9l-173.3,193.1
			C896.9,1899.6,896.5,1901.6,896.2,1903.6z"/>
		<path class="st236" d="M981.4,1508.3l-5.9,9.3c0,0-58,271-78.1,379.9l173.3-193.1l67-167l-21.7,11
			C1115.9,1548.4,1033.7,1519.2,981.4,1508.3z"/>
		<g>
			<path class="st235" d="M1613.9,1073.1c0,0-122.1,110.4-146.7,135.6c-24.6,25.2-45.1,31.4-45.1,31.4l-284.6,297.3l-154.1,384.1
				c2.8-0.3-9.4,22-4.4,17.9c12.3-10.1,55.4-11.8,55.4-11.8s176.8-177.1,220.1-212.2c43.3-35.1,103.1-76.6,103.1-76.6l13.8-23.4
				c0,0,63.7-152.2,117.7-239.2c5.1-9.3,9.8-17.2,14-24c4.5-12.7,10.5-29.2,18.3-50.5C1548,1229.4,1613.9,1073.1,1613.9,1073.1z"/>
			<path class="st236" d="M1521.5,1301.8c-7.8,21.3-13.7,37.8-18.3,50.5c23.6-37.5,36.4-41.3,63-56.5c22.8-13,61.5-29.9,81.1-38.2
				l66.1-33.9l-14.6-144.3l-6.5-57.7l-78.4,51.4C1613.9,1073.1,1548,1229.4,1521.5,1301.8z"/>
			<polygon class="st236" points="1025.5,1892.3 1289.8,1650.2 1444.9,1359.9 1285.4,1484.3 1156.3,1548.7 			"/>
		</g>
		<path class="st237" d="M1402.3,1241.5l19.9-1.4c0,0,20.5-6.2,45.1-31.4c24.6-25.2,146.7-135.6,146.7-135.6l78.4-51.4l-13.6-62.1
			L1645,851.3l-40.6-26.9c-22.9,31.5-52.9,73.4-99.4,149.1C1451.8,1072.4,1402.3,1241.5,1402.3,1241.5z"/>
		<path class="st237" d="M1410.2,971.1l-85.1,99.6l-161.5,150.1l-56.5,123.5l-93.5,113.1l-0.5,1.3l-31.8,49.7
			c52.4,10.9,134.6,40.1,134.6,40.1l21.7-11l284.6-297.3l-19.9,1.4c0,0,49.5-169.1,102.7-268c7.3-11.9,15-24,22.8-36.1l-52.8,12.4
			L1410.2,971.1z"/>
		<polygon class="st239" points="1246.8,1931.7 1391.7,1943.6 1476.9,1786.1 1408.1,1786.6 		"/>
		<polygon class="st239" points="1385.8,1636.3 1531,1663.3 1644,1598.7 1496.5,1400.1 		"/>
		<polygon class="st239" points="1157.1,1923.4 1204.9,1909 1393.3,1668.1 1214.4,1816.7 		"/>
		<polygon class="st235" points="1039.5,1472.5 1127.1,1486.5 1388.3,1214.9 1222.8,1290.3 1186.9,1235.3 1128.7,1374.6 		"/>
		<polygon class="st235" points="1270.5,1183.4 1437.4,1058.9 1394.1,1017.4 		"/>
	</g>
	<g>
		<path class="st236" d="M153.2,1025.2L124.9,1154l158.1,12.4l0.8,0.8h140.9c-1.1,0.1,13.4-86.5,13.4-86.5L234.8,866.4L153.2,1025.2
			z"/>
		<path class="st234" d="M150.4,1130l123.2,4.9l99.5-16c0,0-68.3-40.1-70.8-51.5c-2.4-11.4-67.8-137.7-67.8-137.7l-70.2,116
			L150.4,1130z"/>
		<g>
			<polygon class="st235" points="234.8,866.4 418.8,1060.4 470.2,1018 456.5,935 428.7,877.2 432,854.7 262.7,864.2 			"/>
			<polygon class="st238" points="262.7,864.2 432,854.7 437.8,852.3 423,795.3 418.4,777.6 308.4,797.3 			"/>
		</g>
		<polygon class="st238" points="418.8,1060.4 438,1080.7 517.3,1153.1 521.6,1154.2 526.4,1099.8 469.5,1018.6 		"/>
		<polygon class="st237" points="470.2,1018 469.5,1018.6 526.4,1099.8 531.2,1041.8 520.7,995.7 512,977.1 456.5,935 		"/>
		<g>
			<polygon class="st238" points="432,854.7 428.7,877.2 456.5,935 512,977.1 510.8,955.3 437.8,852.3 			"/>
			<polygon class="st237" points="418.4,777.6 437.8,852.3 510.8,955.3 513.3,911.6 510.9,866.9 506.8,823.5 501.7,789 			"/>
		</g>
		<polygon class="st237" points="424.7,1167.2 517.3,1153.1 438,1080.7 		"/>
	</g>
</g>
</svg>
