<?xml version="1.0" encoding="utf-8"?>
<!-- Generator: Adobe Illustrator 21.1.0, SVG Export Plug-In . SVG Version: 6.00 Build 0)  -->
<svg version="1.1" id="game" xmlns="http://www.w3.org/2000/svg" xmlns:xlink="http://www.w3.org/1999/xlink" x="0px" y="0px"
	 viewBox="0 0 1668 2224" style="enable-background:new 0 0 1668 2224;" xml:space="preserve">
<style type="text/css">
	.st0{fill:url(#gradient4_1_);}
	.st1{fill:url(#gradient5_1_);}
	.st2{fill:#66E2FF;}
	.st3{fill:none;stroke:#B28052;stroke-miterlimit:10;}
	.st4{fill:#96735C;}
	.st5{fill:#825D49;stroke:#BF8A5E;stroke-miterlimit:10;}
	.st6{fill:#AD7D5C;stroke:#B28052;stroke-miterlimit:10;}
	.st7{fill:#BC8864;stroke:#B28052;stroke-miterlimit:10;}
	.st8{fill:#A37B61;}
	.st9{fill:#BC8866;}
	.st10{fill:#E0A57E;stroke:#B28052;stroke-miterlimit:10;}
	.st11{fill:#D19A7C;stroke:#B28052;stroke-miterlimit:10;}
	.st12{fill:#F4DBCE;}
	.st13{fill:#DBC7BF;}
	.st14{fill:#8E684F;stroke:#BF8A5E;stroke-miterlimit:10;}
	.st15{fill:#AD753E;}
	.st16{fill:#966636;}
	.st17{fill:#A87339;}
	.st18{fill:#BC8651;}
	.st19{fill:#AA7A4F;}
	.st20{fill:#C99465;}
	.st21{fill:none;stroke:#634B2A;stroke-miterlimit:10;}
	.st22{fill:#B28052;}
	.st23{fill:#96674D;stroke:#A57758;stroke-width:3;stroke-miterlimit:10;}
	.st24{fill:none;stroke:#A57758;stroke-width:3;stroke-miterlimit:10;}
	.st25{fill:#5C7552;}
	.st26{fill:#E2CA96;}
	.st27{fill:#6F8763;}
	.st28{fill:#EAD7A2;}
	.st29{fill:#F9F2EF;}
	.st30{fill:#382C26;}
	.st31{fill:#936F5F;}
	.st32{fill:#7C655C;}
	.st33{fill:#F9A182;}
	.st34{fill:#DBC697;}
	.st35{fill:#8C7857;}
	.st36{fill:#635872;}
	.st37{fill:#6B7F60;}
	.st38{fill:#755D3F;}
	.st39{fill:#C9B8A7;}
	.st40{fill:#00CFFF;}
	.st41{fill:#03CDE2;}
	.st42{fill:#00DBFF;}
	.st43{fill:#00E7FF;}
	.st44{fill:#00F3FF;}
	.st45{fill:#2EFFF9;}
	.st46{fill:#78FFF8;}
	.st47{fill:#FFF0BF;}
	.st48{fill:#F7E4A6;}
	.st49{fill:#BCCC60;}
	.st50{fill:url(#sea_1_);}
	.st51{fill:#98958C;}
	.st52{fill:#ACA7A1;}
	.st53{fill:#C2BEB5;}
	.st54{fill:#D6C8A3;}
	.st55{fill:#D3C7A7;}
	.st56{fill:#DBCDAF;}
	.st57{fill:#ADA8A2;}
	.st58{fill:#99968D;}
	.st59{fill:#C2BDB3;}
	.st60{fill:#8D8880;}
	.st61{fill:#D3CAB2;}
	.st62{fill:#8B877E;}
	.st63{fill:#9B988F;}
	.st64{fill:#B9B2AA;}
	.st65{fill:#C3BFB6;}
	.st66{fill:#DDCFAF;}
	.st67{fill:#CCBFA6;}
	.st68{fill:#CED18B;}
	.st69{fill:#99968B;}
	.st70{fill:#969089;}
	.st71{fill:#C4BFB3;}
	.st72{fill:#939189;}
	.st73{fill:#B7B5AB;}
	.st74{fill:#C6BBA5;}
	.st75{fill:#CEC2AA;}
	.st76{fill:#CCC1AA;}
	.st77{fill:#9E9C95;}
	.st78{fill:#C9BDA6;}
	.st79{fill:#C6BBA7;}
	.st80{fill:#BAB3A6;}
	.st81{fill:#A5A299;}
	.st82{fill:#CCC0A8;}
	.st83{fill:#C3BFB4;}
	.st84{fill:#9A978E;}
	.st85{fill:#B8B1AA;}
	.st86{fill:#8D877F;}
	.st87{fill:#C4BCA9;}
	.st88{fill:#B5AD9E;}
	.st89{fill:#C5BEB6;}
	.st90{fill:#B5B3AC;}
	.st91{fill:#D5D1C6;}
	.st92{fill:#BCB4B1;}
	.st93{fill:#999793;}
	.st94{fill:#8E8E87;}
	.st95{fill:#A3A19D;}
	.st96{fill:#B5B4B1;}
	.st97{fill:#A8A7A7;}
	.st98{fill:#A09D97;}
	.st99{fill:#D3CFC3;}
	.st100{fill:#ADAAA6;}
	.st101{fill:#B2B1AF;}
	.st102{fill:#9B978F;}
	.st103{fill:#AAA7A0;}
	.st104{fill:#CCC8C4;}
	.st105{fill:#D3D0CD;}
	.st106{fill:#C9C3BD;}
	.st107{fill:#B2AFA8;}
	.st108{fill:#999692;}
	.st109{fill:#898683;}
	.st110{fill:#A3A29B;}
	.st111{fill:#B2AEAA;}
	.st112{fill:#D6D0C9;}
	.st113{fill:#918D87;}
	.st114{fill:#DBD5C6;}
	.st115{fill:#B7B3AE;}
	.st116{fill:#C4C1BB;}
	.st117{fill:#9B9891;}
	.st118{fill:#D8D5CB;}
	.st119{fill:#939089;}
	.st120{fill:#A8A6A0;}
	.st121{fill:#D8D5D0;}
	.st122{fill:#A8A49B;}
	.st123{fill:#96928A;}
	.st124{fill:#CEC8C2;}
	.st125{fill:#C4996C;}
	.st126{fill:#B7845A;}
	.st127{fill:#D5A776;}
	.st128{fill:#477F16;}
	.st129{fill:#436818;}
	.st130{fill:#AA7B43;}
	.st131{fill:#B79056;}
	.st132{fill:#AD9655;}
	.st133{fill:#DD9D68;}
	.st134{fill:#C18B59;stroke:#A87848;stroke-miterlimit:10;}
	.st135{fill:#B28056;}
	.st136{fill:#AD7D59;}
	.st137{fill:#AA7D5C;}
	.st138{fill:#DDCBBF;}
	.st139{fill:#DBDAD9;}
	.st140{fill:#D8A380;}
	.st141{fill:#CE987A;}
	.st142{fill:#CC9D85;}
	.st143{fill:#C6977F;}
	.st144{fill:#C19784;}
	.st145{fill:#C69B8B;}
	.st146{fill:#B7958B;}
	.st147{fill:#AF8958;}
	.st148{fill:#967A60;}
	.st149{fill:#C9D1D3;}
	.st150{fill:#635C55;}
	.st151{fill:#65868F;}
	.st152{fill:#6CC1A0;}
	.st153{fill:#EFCE8E;}
	.st154{fill:#60523B;}
	.st155{fill:#EFC58E;}
	.st156{fill:#6D5D41;}
	.st157{fill:#E8C192;}
	.st158{fill:#EFCA7F;}
	.st159{fill:#FFFFFF;}
	.st160{fill:#E5C57C;}
	.st161{fill:#59585E;}
	.st162{fill:#6FC9A9;}
	.st163{fill:#686770;}
	.st164{fill:#86D1B1;}
	.st165{fill:#2D2924;}
	.st166{fill:none;stroke:#2D2924;stroke-width:24;stroke-miterlimit:10;}
	.st167{fill:none;stroke:#2D2924;stroke-width:24;stroke-miterlimit:10;stroke-dasharray:10.0234,10.0234;}
	.st168{fill:#C0D3D7;}
	.st169{fill:#98A9B1;}
	.st170{fill:#D8372D;}
	.st171{fill:#414143;}
	.st172{fill:#EE5547;}
	.st173{fill:#A22921;}
	.st174{fill:#9C271F;}
	.st175{fill:#D2C4A9;}
	.st176{fill:#ABABAB;}
	.st177{fill:#4F4F4F;}
	.st178{fill:none;stroke:#2D2924;stroke-width:18;stroke-miterlimit:10;}
	.st179{fill:none;stroke:#2D2924;stroke-width:18;stroke-miterlimit:10;stroke-dasharray:8.8394,8.8394;}
	.st180{fill:none;stroke:#2D2924;stroke-width:18;stroke-miterlimit:10;stroke-dasharray:9.9611,9.9611;}
	.st181{fill:#E26B47;}
	.st182{fill:#FF8243;}
	.st183{fill:#47413F;}
	.st184{fill:#EF8424;}
	.st185{fill:#FDA83D;}
	.st186{fill:#994E22;}
	.st187{fill:#965F29;}
	.st188{fill:#7F7F7F;}
	.st189{fill:#D6D5D4;}
	.st190{fill:#C98235;}
	.st191{fill:#999999;}
	.st192{fill:#E2E1E0;}
	.st193{fill:#D98D31;}
	.st194{fill:#B5B5B5;}
	.st195{fill:#7F6752;}
	.st196{fill:#777770;}
	.st197{fill:#F29575;}
	.st198{fill:#3F3831;}
	.st199{fill:url(#gradient_1_);}
	.st200{fill:#997933;}
	.st201{fill:#937334;}
	.st202{fill:#A9DB52;}
	.st203{fill:#96C639;}
	.st204{fill:#82B71C;}
	.st205{fill:#B6E55C;}
	.st206{fill:#90C125;}
	.st207{fill:#A9D146;}
	.st208{fill:#8E7036;}
	.st209{fill:#846939;}
	.st210{fill:#78A038;stroke:#81AD2B;stroke-width:3;stroke-miterlimit:10;}
	.st211{fill:#658E30;}
	.st212{fill:#85AA44;}
	.st213{fill:#7EAF31;}
	.st214{fill:#018287;}
	.st215{fill:#0F0F0F;}
	.st216{fill:#303030;}
	.st217{fill:#333333;}
	.st218{fill:#1A1A1A;}
	.st219{fill:#424242;}
	.st220{fill:#00666A;}
	.st221{fill:#212121;}
	.st222{fill:#111111;}
	.st223{fill:#A3A3A3;}
	.st224{fill:#ACACAE;}
	.st225{fill:#161616;}
	.st226{fill:#00686B;}
	.st227{fill:#161616;stroke:#373737;stroke-miterlimit:10;}
	.st228{fill:none;stroke:#D98D31;stroke-miterlimit:10;}
	.st229{fill:#242424;}
	.st230{fill:#373737;}
	.st231{fill:url(#gradient2_1_);}
	.st232{fill:url(#gradient3_1_);}
	.st233{fill:#B67D56;}
	.st234{fill:#83492A;}
	.st235{fill:#9C6038;}
	.st236{fill:#683920;}
	.st237{fill:#563119;}
	.st238{fill:#CC9E75;}
	.st239{fill:#633A23;}
	.st240{fill:#F9F6CD;}
	.st241{fill:none;stroke:#000000;stroke-miterlimit:10;}
	.st242{fill:#EDFF85;stroke:#000000;stroke-miterlimit:10;}
	.st243{fill:none;stroke:#2D2924;stroke-width:18;stroke-miterlimit:10;stroke-dasharray:10.6132,10.6132;}
	.st244{fill:none;stroke:#2D2924;stroke-width:18;stroke-miterlimit:10;stroke-dasharray:9.9851,9.9851;}
	.st245{fill:none;stroke:#2D2924;stroke-width:24;stroke-miterlimit:10;stroke-dasharray:10.1023,10.1023;}
	.st246{fill:#A59D58;}
	.st247{fill:#CCA962;}
	.st248{fill:none;stroke:#EFCF97;stroke-miterlimit:10;}
	.st249{fill:#EFCF97;}
	.st250{fill:#846431;}
	.st251{fill:#75634C;}
	.st252{fill:#7A6A59;}
	.st253{fill:#FFF980;stroke:#000000;stroke-miterlimit:10;}
	.st254{fill:#FFF980;stroke:#FFF980;stroke-miterlimit:10;}
	.st255{fill:#EDFF85;stroke:#EDFF85;stroke-miterlimit:10;}
	.st256{fill:#E5DFA1;}
	.st257{fill:#F9F6CD;stroke:#000000;stroke-miterlimit:10;}
	.st258{fill:none;stroke:#2D2924;stroke-width:24;stroke-miterlimit:10;stroke-dasharray:9.8069,9.8069;}
	.st259{fill:none;stroke:#2D2924;stroke-width:18;stroke-miterlimit:10;stroke-dasharray:11.8613,11.8613;}
	.st260{fill:none;stroke:#2D2924;stroke-width:18;stroke-miterlimit:10;stroke-dasharray:10.2463,10.2463;}
</style>
<g id="modalforest">
	<linearGradient id="gradient_1_" gradientUnits="userSpaceOnUse" x1="836.9823" y1="2235.6812" x2="836.9823" y2="-9.836">
		<stop  offset="4.950495e-03" style="stop-color:#90C125"/>
		<stop  offset="0.3715" style="stop-color:#B6E55C"/>
		<stop  offset="0.5207" style="stop-color:#B4E35A"/>
		<stop  offset="0.5859" style="stop-color:#ADDE55"/>
		<stop  offset="0.6038" style="stop-color:#A9DB52"/>
		<stop  offset="0.6201" style="stop-color:#96C249"/>
		<stop  offset="0.6536" style="stop-color:#739538"/>
		<stop  offset="0.6894" style="stop-color:#546D29"/>
		<stop  offset="0.7271" style="stop-color:#3A4B1C"/>
		<stop  offset="0.7671" style="stop-color:#253012"/>
		<stop  offset="0.8103" style="stop-color:#141A0A"/>
		<stop  offset="0.8581" style="stop-color:#090C04"/>
		<stop  offset="0.9144" style="stop-color:#020301"/>
		<stop  offset="1" style="stop-color:#000000"/>
	</linearGradient>
	<rect id="gradient" x="-7.9" y="-9.8" class="st199" width="1689.7" height="2245.5"/>
	<path class="st200" d="M881.3,523.9c0,0,26.1-26.6,33.7-49.2c7.5-22.6,37-169.8,37-169.8l-1-6.7c0,0-26,111.4-36.2,151l-8-88.4
		l-3,6.5l6.9,96.1c-4.4,8.6-25.5,32.6-34.4,32.6c-9,0-23.6-43.1-23.1-124.7h-2c0,0-7.9,88.7,10.1,135.3c0,0-28.9-9.4-37.4-24
		c-8.5-14.6-25.4-79.8-25.4-79.8l-1.5,6.7c0,0,14.1,70.5,21.6,82.5c7.5,12,29.1,38.6,29.1,38.6s5,75.6-1.7,168.6
		c-5,70.5-39.3,97.9-41.2,98.5c3.1-0.8,83.9-24,117.6,6.7c0,0-28.1-55.9-33.2-99.8C884.1,660.5,877.8,569.2,881.3,523.9z"/>
	<path class="st201" d="M387.6,840.1c0,0,30.1-7.3,32.4-46c2.3-38.7,5.3-168.2-6-186.4c-11.3-18.2-39.2-43.6-40.7-49.6
		c-1.5-6-15.8-70.2-15.8-70.2h6c0,0,21,60.5,26.3,66.6c5.3,6.1,32.4,29,37.7,26.6c5.3-2.4-13.6-60.5-13.6-60.5v-67.8h5.3
		c0,0,0,62.9,3.8,69c3.8,6.1,18.8,56.6,26.4,50.1c7.5-6.5,58-100.9,58-100.9l6,8.5c0,0-46.7,86.8-45.2,92.4c1.5,5.6,59.5,8,59.5,8
		l45.2-54.5l3,8.5c0,0-41.4,60.5-46.7,62.9c-5.3,2.4-55.7,7.3-57.2,13.3c-1.5,6.1-0.3,168,1.1,182c2.8,26.1,32,48,32,48
		S452.3,826.8,387.6,840.1z"/>
	<path class="st201" d="M204.2,857.8c0,0,28.3-44.1,27.8-105.8c-0.5-61.7-3.4-175.1-10.7-188.9c-7.3-13.9,51.2,3.8,51.2,3.8
		s-1.9,124.7,1,175.1c2.9,50.4,32.2,115.9,32.2,115.9S254.9,823.8,204.2,857.8z"/>
	<g id="modalforest_1_">
		<path class="st200" d="M1353.2,816.9c0,0,37.7-47.2,37-113.2c-0.7-66.1-4.5-187.4-14.3-202.2c-9.7-14.8-64.3-31-68.9-37.7
			c-4.5-6.7-33.8-133.1-33.8-133.1l7.1-5.7c0,0,27.9,117.3,33.1,124c5.2,6.7,46.1,2.7,46.1,2.7s-23.4-35-26-48.5
			c-2.6-13.5-9.1-86.3-9.1-86.3h4.5c0,0,11.7,71.4,14.9,80.9c3.2,9.4,34.5,51.2,46.1,56.6c11.7,5.4,27.3-55.3,29.9-78.2
			c2.6-22.9,7.1-83.6,7.1-83.6h3.2c0,0-6.5,128.1-3.9,141.5c2.6,13.5,41.6-12.1,48.1-24.3c6.5-12.1,33.1-84.9,33.1-84.9l5.2,5.7
			c0,0-29.9,98.1-32.5,102.1c-2.6,4-27.3,41.8-27.3,41.8s34.4,17.5,46.8,10.8c12.3-6.7,53.9-83.6,53.9-83.6l4.5,5.4
			c0,0-43.5,84.9-56.5,97.1c-13,12.1-57.8,1.3-57.8,1.3s-2.6,133.5,1.3,187.4c3.9,53.9,42.9,124,42.9,124S1420.8,780.6,1353.2,816.9
			z"/>
		<path class="st200" d="M1653.9,611.8c0,0,40.8-30.8,52.6-56.9c11.8-26.2,57.8-196.3,57.8-196.3l-1.6-7.7
			c0,0-40.6,128.8-56.6,174.6l-12.5-102.2l-4.7,7.5l10.7,111c-6.8,10-39.9,37.7-53.7,37.7c-14.1,0-36.9-49.8-36.1-144.1h-3.1
			c0,0-12.3,102.6,15.7,156.4c0,0-45.1-10.9-58.4-27.8c-13.3-16.9-39.7-92.2-39.7-92.2l-2.4,7.7c0,0,22,81.5,33.8,95.4
			c11.8,13.8,45.5,44.6,45.5,44.6s7.7,87.3-2.6,194.9c-7.8,81.5-61.4,113.2-64.4,113.9c4.9-0.9,131.1-27.7,183.7,7.7
			c0,0-44-64.6-51.8-115.4C1658.3,769.7,1648.4,664.1,1653.9,611.8z"/>
		<path class="st202" d="M1514.4,256.2c-28.8-24.6-99.4,2.1-82.2,158c0,0,16.4,114.4,80.6,66.7c0,0,29.3,67.7,74.8,33.9
			c0,0,59.7,67.7,98.9-46.2c39.2-113.9,6.7-280.8-67.3-292.7C1545.3,163.9,1514.4,256.2,1514.4,256.2z"/>
		<path class="st200" d="M891.2,847.4c0,0,34.6-8.9,37.2-56c2.6-47.2,6.1-204.9-6.9-227c-13-22.1-45-53.1-46.7-60.4
			c-1.7-7.4-18.2-85.5-18.2-85.5h6.9c0,0,24.1,73.7,30.2,81.1c6.1,7.4,37.3,35.4,43.3,32.4c6.1-2.9-15.6-73.7-15.6-73.7v-82.6h6.1
			c0,0,0,76.7,4.3,84c4.3,7.4,21.6,68.9,30.3,61c8.6-7.9,66.6-122.9,66.6-122.9l6.9,10.3c0,0-53.6,105.8-51.9,112.6
			c1.7,6.8,68.3,9.8,68.3,9.8l51.9-66.3l3.5,10.3c0,0-47.6,73.7-53.6,76.7c-6.1,2.9-64,8.9-65.7,16.2c-1.7,7.4-0.4,204.7,1.3,221.7
			c3.2,31.9,36.8,58.4,36.8,58.4S965.6,831.2,891.2,847.4z"/>
		<path class="st202" d="M1075.3,475.8c0,0-11.3,53.1-45.5,40.6c-33.8-12.3-40.7-46.5-40.7-46.5s-17.1,30.2-47.9,16.8
			c-30.8-13.4-38.7-50.3-38.7-50.3s2.2,44.9-24.2,65.5c-26.4,20.6-44.1,8.3-44.1,8.3s3.3,38.9-31.5,51.9
			c-34.8,13-62.5-49.6-56.6-104.4c5.9-54.8,31.6-76,31.6-76s-26-37.4-10.9-94.7c15.1-57.3,48.3-49.5,48.3-49.5s-13.9-52,9.2-93.9
			c24-43.6,51.8-28.6,60.4-25.3c0,0,12.9-66.5,60.7-49.6c42.1,14.8,46.9,79.9,39,110.1c0,0,46.1-5.6,59.7,54.3
			c17.4,76.4-16.4,118.5-16.4,118.5S1097,367.5,1075.3,475.8z"/>
		<path class="st200" d="M482.2,375c0,0,10.3,33.8,13.9,44.5c3.6,10.6,26,23.2,26,23.2l-3.6-80.4h3.6c0,0,4.5,77.5,7.6,80.4
			c3.1,2.9,34.5-20.3,34.5-20.3l24.6-60h6.7L568.2,433l-25.5,33c0,0,72.1,102.6,82.4,96.7c10.3-5.8,10.7-88.8,8.1-128.1
			c-5.1-77.5-43.1-285.3-43.1-285.3l5.8-4.8c0,0,31.8,157.8,38.1,169.4c6.3,11.6,0.9-134.6,0.9-134.6h9.5c0,0-1.6,49.4,1,54.2
			c2.6,4.8,50.1-55.2,50.1-55.2l7.5,3.9c0,0-46.3,60-45.3,69.7c1,9.7,2.3,69.7,2.3,69.7s31.7-45.4,45.2-69.7
			c13.6-24.3,43.4-119.1,45.2-137.5c1.8-18.4-9-108.4-9-108.4h5.4c0,0,12.4,97.8,15.1,100.7c2.8,2.9,30.5-56.2,30.5-56.2l6.7-1
			c0,0-29.6,65.8-31.3,73.6c-1.8,7.7-55.1,149.1-55.1,149.1s-48.4,99.7-50.6,114.2c-2.2,14.5,1.8,155.9,8.1,164.6
			c6.3,8.7,64-106.5,70.8-124.9c6.7-18.4-2.2-79.4-2.2-79.4l6.3,1.9c0,0,2.7,51.3,7.6,52.3c4.9,1,31.8-48.4,31.8-48.4l4.5,3.9
			c0,0-29.1,59.1-49.7,97.8C718.6,493,677,581.1,672.9,627.6c-4,46.5-14.3,204.3,28.7,257.5c0,0-62.7-17.4-98.1,0
			c0,0,24.6-40.7,26.4-140.4c1.8-99.7-0.9-129.7-4.5-138.5c-3.6-8.7-89.2-123.9-89.2-123.9L490.7,432l-13.4-65.8L482.2,375z"/>
		<path class="st200" d="M289.5,930.1c0,0,34.6-8.9,37.2-56c2.6-47.2,6.1-204.9-6.9-227c-13-22.1-45-53.1-46.7-60.4
			c-1.7-7.4-18.2-85.5-18.2-85.5h6.9c0,0,24.1,73.7,30.2,81.1c6.1,7.4,37.3,35.4,43.3,32.4c6.1-2.9-15.6-73.7-15.6-73.7v-82.6h6.1
			c0,0,0,76.7,4.3,84c4.3,7.4,21.6,68.9,30.3,61c8.6-7.9,66.6-122.9,66.6-122.9l6.9,10.3c0,0-53.6,105.8-51.9,112.6
			c1.7,6.8,68.3,9.8,68.3,9.8l51.9-66.3l3.5,10.3c0,0-47.6,73.7-53.6,76.7c-6.1,2.9-64,8.9-65.7,16.2c-1.7,7.4-0.4,204.7,1.3,221.7
			c3.2,31.9,36.8,58.4,36.8,58.4S363.9,913.9,289.5,930.1z"/>
		<path class="st203" d="M141.2,505.5c0,0,16,75.2,64.4,57.5c47.8-17.5,57.6-65.9,57.6-65.9s24.2,42.7,67.8,23.8
			c43.7-19,54.8-71.2,54.8-71.2s-3.1,63.5,34.2,92.7c37.3,29.2,62.4,11.8,62.4,11.8s-4.6,55,44.6,73.4
			c49.2,18.4,88.4-70.3,80.1-147.9c-8.4-77.6-44.8-107.7-44.8-107.7s36.8-53,15.4-134.1c-21.4-81.2-68.4-70.1-68.4-70.1
			s19.7-73.6-13-133C462.5-26.9,423.1-5.7,411-1c0,0-18.3-94.1-86-70.3c-59.7,21-66.3,113.1-55.2,155.8c0,0-65.3-7.9-84.5,76.9
			c-24.6,108.2,23.2,167.8,23.2,167.8S110.5,352.2,141.2,505.5z"/>
		<path class="st202" d="M473.7,558.5c0,0-11.3,53.1-45.5,40.6c-33.8-12.3-40.7-46.5-40.7-46.5s-17.1,30.2-47.9,16.8
			c-30.8-13.4-38.7-50.3-38.7-50.3s2.2,44.9-24.2,65.5c-26.4,20.6-44.1,8.3-44.1,8.3s3.3,38.9-31.5,51.9
			c-34.8,13-62.5-49.6-56.6-104.4c5.9-54.8,31.6-76,31.6-76s-26-37.4-10.9-94.7c15.1-57.3,48.3-49.5,48.3-49.5s-13.9-52,9.2-93.9
			c24-43.6,51.8-28.6,60.4-25.3c0,0,12.9-66.5,60.7-49.6c42.1,14.8,46.9,79.9,39,110.1c0,0,46.1-5.6,59.7,54.3
			c17.4,76.4-16.4,118.5-16.4,118.5S495.4,450.2,473.7,558.5z"/>
		<path class="st200" d="M-29,541.4c0,0,1.6,63.7,15.8,86.3C1,650.4,28.6,683,28.6,683s11,227.9-43.4,270.3c0,0,67.8-11.3,119.1-5.6
			c0,0-29.9-192.5-22-253.4c0,0,45.7-43.9,56.8-70.7c11-26.9,35.5-111.8,35.5-111.8l-13.4,0c0,0-23.7,82.1-30,93.4
			c-6.3,11.3-58.4,42.4-58.4,42.4s18.9-38.2,28.4-69.3c9.5-31.1,14.2-84.9,14.2-84.9l-8.7,0c0,0-15,65.1-21.3,80.7
			c-6.3,15.6-27.6,52.4-27.6,52.4s-28.4-36.8-33.9-53.8S3.4,472.1,3.4,472.1l-10.3,0l18.9,109l33.1,56.6c0,0-33.1-14.2-41.8-21.2
			c-8.7-7.1-24.4-79.3-24.4-79.3L-29,541.4z"/>
		<path class="st204" d="M25.4,514.6c0,0-59.9,63.3-115.1,15.4s-74.5-188.1-37.9-290c25.4-70.6,75.7-87.8,75.7-87.8
			S-71.7,41.8,4.5-20.5C80.6-82.7,149.2,41.8,150.8,97c0,0,70.2-51.9,121.4,59.9c51.3,111.8,31.9,329.4-69.4,356.3
			c0,0-40.2,89.2-98.6,84.9C45.9,593.8,25.4,514.6,25.4,514.6z"/>
		<path class="st203" d="M9.8,554.1c0,0,40.6,42.9,78,10.4c37.4-32.5,50.5-127.4,25.6-196.4c-17.2-47.8-51.3-59.4-51.3-59.4
			S75.6,233.9,24,191.8c-51.6-42.2-98,42.2-99.1,79.6c0,0-47.5-35.2-82.2,40.5c-34.7,75.7-21.6,223,47,241.2
			c0,0,27.2,60.4,66.7,57.5C-4.1,607.7,9.8,554.1,9.8,554.1z"/>
		<path class="st200" d="M38.8,480c0,0,28.9,72.6,55.1,103.4c26.2,30.8,64.7,69.1,69.3,118.7c4.6,49.6,0,230.2-37,341.1
			c0,0,61.6-24.6,112.5,0c0,0-38.5-172.4-33.9-264.8c4.6-92.4,3.1-162.2,50.8-207.3s127.9-65.7,127.9-65.7v-11.3
			c0,0-58.5,12.3-58.5,5.1c0-7.2,3.9-104.7,3.9-104.7H322c0,0-5.4,85.2-13.9,98.5c-8.5,13.3-77.8,54.4-95.5,97.5
			c0,0-5.4-80.1-6.9-126.2c-1.5-46.2,2.3-142.7,9.2-173.4S255.7,179,255.7,179l-8.5-5.1c0,0-40.8,111.9-51.6,114.9
			c-10.8,3.1-57.8-124.2-57.8-124.2l-7.7,5.1c0,0,40.8,116,47.8,161.1s-0.8,266.8-5.4,289.4c-4.6,22.6-88.6-84.7-94.8-164.5h-6.2
			c0,0,16.5,82.7,16.1,89.4C87,557.5,45,472.8,45,472.8L38.8,480z"/>
		<path class="st202" d="M-6.2,271.4c-44.1,3.5-76,0-110.9,52c-34.9,52-31.8,128.6,15.4,162.8c47.3,34.2,148.9,31.5,203.4,0
			s70.6-58.5,66.8-105.4C164.3,330.2,147.9,259.1-6.2,271.4z"/>
		<path class="st205" d="M-110,450.6c-10.9-12.7-18.8-63.4,4.1-104.7c19-34.2,52.9-51.3,84.2-54.7s98.6-5.5,102.2,11.6
			c3.6,17.1-7.7,27.4-52.4,27.4s-83.2-0.7-107.3,45.8C-95.7,408-84.8,480.1-110,450.6z"/>
		<path class="st203" d="M200.8-55C131.7-40.4,48.7-12.6,4.6,35.3c-44.2,47.9-43.2,164.1-8.2,198.4c35,34.3,111.4,8.4,164.1-17.7
			c52.7-26.1,98.9,31.4,166.7,28.7s78.1-41.1,79.1-80.7c1-39.7,15.4-46.5,0-79.4s-30.8-72.5-53.4-94.4"/>
		<path class="st202" d="M234.6,359.3c-5.1-25.7-3.1-80.7,39-88.9c42.1-8.2,77-17.8,112-38.3c34.9-20.5,93.5,4.1,116.1,84.8
			c22.6,80.7,6.2,213.5-63.7,235.4c-69.8,21.9-72.9-64.9-83.2-81.7C344.6,453.7,250.7,440,234.6,359.3z"/>
		<path class="st200" d="M1236.1,957.2c0,0,36.8-9.4,39.6-59.5c2.8-50.1,6.4-217.5-7.4-241c-13.8-23.5-47.8-56.3-49.7-64.2
			c-1.8-7.8-19.3-90.8-19.3-90.8h7.4c0,0,25.6,78.2,32.1,86.1c6.5,7.8,39.6,37.6,46.1,34.4c6.4-3.1-16.6-78.3-16.6-78.3v-87.6h6.4
			c0,0,0,81.4,4.6,89.2c4.6,7.8,23,73.2,32.2,64.8c9.2-8.4,70.8-130.5,70.8-130.5l7.4,11c0,0-57,112.3-55.2,119.5
			c1.8,7.2,72.7,10.4,72.7,10.4l55.2-70.4l3.7,11c0,0-50.6,78.2-57,81.4c-6.4,3.1-68.1,9.4-69.9,17.2c-1.8,7.8-0.4,217.3,1.4,235.3
			c3.4,33.8,39.1,62,39.1,62S1315.2,940,1236.1,957.2z"/>
		<path class="st203" d="M1078.3,506.5c0,0,17,79.8,68.5,61c50.8-18.5,61.3-69.9,61.3-69.9s25.7,45.4,72.1,25.2
			c46.4-20.2,58.3-75.6,58.3-75.6s-3.3,67.4,36.4,98.4c39.7,31,66.4,12.5,66.4,12.5s-4.9,58.4,47.4,78c52.4,19.5,94.1-74.6,85.2-157
			c-8.9-82.4-47.6-114.3-47.6-114.3s39.1-56.2,16.4-142.4C1520,136.2,1470,148,1470,148s20.9-78.1-13.8-141.2
			c-36.1-65.5-78.1-43.1-90.9-38c0,0-19.4-99.9-91.5-74.6c-63.5,22.3-70.6,120-58.7,165.4c0,0-69.4-8.4-89.9,81.7
			c-26.2,114.8,24.7,178.2,24.7,178.2S1045.6,343.7,1078.3,506.5z"/>
		<path class="st202" d="M1431.9,562.7c0,0-12,56.4-48.4,43.1c-35.9-13.1-43.3-49.4-43.3-49.4s-18.1,32-50.9,17.8
			c-32.8-14.2-41.2-53.4-41.2-53.4s2.3,47.6-25.7,69.5c-28,21.9-46.9,8.8-46.9,8.8s3.5,41.3-33.5,55.1
			c-37,13.8-66.4-52.7-60.2-110.8c6.3-58.2,33.6-80.7,33.6-80.7s-27.6-39.7-11.6-100.6c16.1-60.9,51.4-52.6,51.4-52.6
			s-14.8-55.2,9.8-99.7c25.5-46.3,55.1-30.4,64.2-26.9c0,0,13.7-70.6,64.6-52.7c44.8,15.7,49.8,84.8,41.5,116.8
			c0,0,49-5.9,63.5,57.7c18.5,81.1-17.4,125.8-17.4,125.8S1455,447.8,1431.9,562.7z"/>
		<path class="st200" d="M991,586.1c0,0,1.7,67.5,17.5,91.5c15.8,24,46.4,58.5,46.4,58.5s12.3,241.5-48.2,286.4c0,0,75.3-12,132.3-6
			c0,0-33.3-203.9-24.5-268.4c0,0,50.8-46.5,63.1-75c12.3-28.5,39.4-118.5,39.4-118.5h-14.9c0,0-26.3,87-33.3,99
			c-7,12-64.8,45-64.8,45s21-40.5,31.5-73.5c10.5-33,15.8-90,15.8-90h-9.6c0,0-16.6,69-23.7,85.5c-7,16.5-30.7,55.5-30.7,55.5
			s-31.5-39-37.7-57c-6.1-18-22.8-106.5-22.8-106.5h-11.4l21,115.5l36.8,60c0,0-36.8-15-46.4-22.5c-9.6-7.5-27.2-84-27.2-84
			L991,586.1z"/>
		<path class="st204" d="M1051.5,557.6c0,0-66.6,67.1-127.9,16.3s-82.8-199.3-42-307.2c28.2-74.8,84.1-93,84.1-93s-22-117,62.6-183
			c84.6-66,160.8,66,162.6,124.5c0,0,78-55,134.9,63.4c56.9,118.5,35.4,349-77.1,377.5c0,0-44.7,94.5-109.5,90
			C1074.2,641.6,1051.5,557.6,1051.5,557.6z"/>
		<path class="st203" d="M1034.1,599.4c0,0,45.1,45.4,86.6,11c41.5-34.4,56.1-134.9,28.5-208c-19.1-50.7-56.9-63-56.9-63
			s14.9-79.2-42.4-123.9c-57.3-44.7-108.9,44.7-110.1,84.3c0,0-52.8-37.3-91.3,43c-38.6,80.2-24,236.3,52.2,255.6
			c0,0,30.2,64,74.1,60.9C1018.7,656.3,1034.1,599.4,1034.1,599.4z"/>
		<path class="st200" d="M1374.6,514.6c0,0,11.6,36.8,15.7,48.4c4,11.6,29.3,25.3,29.3,25.3l-4-87.4h4c0,0,5.1,84.3,8.6,87.4
			c3.5,3.2,39-22.1,39-22.1l27.8-65.3h7.6l-30.9,76.9l-28.8,35.9c0,0,81.5,111.6,93.1,105.3c11.6-6.3,12.1-96.6,9.2-139.4
			c-5.7-84.3-48.7-310.4-48.7-310.4l6.6-5.3c0,0,35.9,171.7,43,184.3c7.1,12.6,1-146.4,1-146.4h10.7c0,0-1.8,53.7,1.1,59
			c2.9,5.3,56.6-60,56.6-60l8.5,4.2c0,0-52.3,65.3-51.2,75.8c1.1,10.5,2.6,75.8,2.6,75.8s35.8-49.4,51.1-75.8
			c15.3-26.4,49.1-129.6,51.1-149.6c2-20-10.1-118-10.1-118h6.1c0,0,14,106.4,17.1,109.6c3.1,3.2,34.5-61.1,34.5-61.1l7.6-1.1
			c0,0-33.4,71.6-35.4,80.1c-2,8.4-62.2,162.2-62.2,162.2s-54.6,108.5-57.2,124.3c-2.5,15.8,2,169.6,9.1,179.1
			c7.1,9.5,72.4-115.9,79.9-135.9c7.6-20-2.5-86.4-2.5-86.4l7.1,2.1c0,0,3,55.8,8.6,56.9c5.6,1.1,35.9-52.7,35.9-52.7l5.1,4.2
			c0,0-32.9,64.3-56.2,106.4c-23.3,42.1-70.3,138-74.9,188.6c-4.6,50.6-16.2,222.3,32.4,280.2c0,0-70.8-19-110.8,0
			c0,0,27.8-44.2,29.9-152.7c2-108.5-1-141.2-5.1-150.6c-4-9.5-100.8-134.8-100.8-134.8l-51.5-54.8L1369,505L1374.6,514.6z"/>
		<path class="st202" d="M1422.7,331.2c-29.4,4.4-101.8,8.4-101.5,102.2c0.2,65.6,15.1,124.2,101.2,117.9
			c86-6.3,124.8-43.9,122.8-113.5C1543.1,368.3,1492.5,320.7,1422.7,331.2z"/>
		<path class="st204" d="M1549.2,78.5c-40.3,7.8-112.2,38.6-126.4,96.4c-15.9,64.7-9,142.7,47.9,145.5
			c56.9,2.8,177.6,0.8,196.4-25.9C1707.5,237.1,1699.4,49.4,1549.2,78.5z"/>
		<path class="st206" d="M1692.9,331.6c-28.4,5.7-93.2,28.9-93.5,95.4c-0.3,66.5,26.3,107.7,105.9,95.5c64-9.7,81.8-35,80.7-86.4
			C1785.1,390.3,1764.4,317.3,1692.9,331.6z"/>
		<path class="st200" d="M722.2,963.9c0,0,44.8-53.9,44-129.4c-0.8-75.5-5.4-214.1-17-231.1c-11.6-16.9-76.5-35.4-81.9-43.1
			c-5.4-7.7-40.2-152.1-40.2-152.1l8.5-6.5c0,0,33.2,134,39.4,141.7c6.2,7.7,54.9,3.1,54.9,3.1S702.1,506.4,699,491
			c-3.1-15.4-10.8-98.6-10.8-98.6h5.4c0,0,13.9,81.7,17.8,92.4c3.9,10.8,41,58.5,54.9,64.7c13.9,6.2,32.4-63.2,35.5-89.4
			c3.1-26.2,8.5-95.5,8.5-95.5h3.9c0,0-7.7,146.4-4.6,161.8c3.1,15.4,49.5-13.9,57.2-27.7c7.7-13.9,39.4-97.1,39.4-97.1l6.2,6.5
			c0,0-35.5,112.1-38.6,116.7c-3.1,4.6-32.5,47.8-32.5,47.8s41,20,55.6,12.3c14.7-7.7,64.1-95.5,64.1-95.5l5.4,6.2
			c0,0-51.8,97.1-67.2,110.9c-15.5,13.9-68.8,1.5-68.8,1.5s-3.1,152.5,1.5,214.1c4.6,61.6,51,141.7,51,141.7
			S802.6,922.4,722.2,963.9z"/>
		<path class="st204" d="M650.5,459.4c0,0-3,98.6-91.2,114c-88.2,15.4-98.7-198.7-65-277.3c33.6-78.6,72.5-88.6,72.5-88.6
			S533.7,81.2,607.1-12c62.2-78.9,111.4,0,111.4,0s36.6-107.8,136.1-87.8s135.7,239.2,135.7,239.2s77.3-21.3,99,121
			c17.8,117-0.7,268.9-79.9,302.3c-79.2,33.3-105.4-80.1-115.1-123.2c0,0-71.8,89.4-119.6-20C774.6,419.3,705.1,530.2,650.5,459.4z"
			/>
		<path class="st200" d="M561.1,721.9c0,0,44.1-32.5,56.8-60.2c12.7-27.6,62.5-207.4,62.5-207.4l-1.7-8.1c0,0-43.9,136.1-61.2,184.5
			l-13.5-107.9l-5.1,7.9l11.6,117.3c-7.3,10.5-43.1,39.8-58,39.8c-15.3,0-39.9-52.6-39-152.3h-3.4c0,0-13.3,108.4,17,165.3
			c0,0-48.7-11.5-63.1-29.3c-14.4-17.9-42.9-97.5-42.9-97.5l-2.5,8.1c0,0,23.8,86.2,36.5,100.8c12.7,14.6,49.2,47.1,49.2,47.1
			s8.4,92.3-2.8,205.9c-8.5,86.2-66.4,119.6-69.6,120.3c5.3-1,141.7-29.3,198.5,8.1c0,0-47.5-68.3-56-121.9
			C565.9,888.8,555.2,777.2,561.1,721.9z"/>
		<path class="st204" d="M350.7,424.2c0,0-50.2-52-37.8-205.9C325.3,64.4,424.3,57.9,424.3,57.9s-9.6-147.4,66.2-188.6
			C566.2-171.8,645-62.1,630.2,81.8c0,0,70.7,34.7,71.8,145.2c1.1,110.5-76.9,164.2-76.9,164.2L350.7,424.2z"/>
		<path class="st206" d="M342.9,173.8c0,0,16.4-77,93.3-100.8c0,0,1.5-116.4,43.9-161.5c37.2-39.6,77.1-8.7,82.2,9.8
			c5.1,18.4-47-1.2-65.3,20.6c-38.7,46.1-18.4,126.3-41.8,162c-23.4,35.8-49.2,21.7-82.3,59.1C349.7,189.1,336.1,207.4,342.9,173.8z
			"/>
		<path class="st203" d="M670.8,228.5c31.1-26,107.5,2.2,88.8,166.9c0,0-17.7,120.9-87.1,70.4c0,0-31.7,71.5-80.9,35.8
			c0,0-64.5,71.5-106.9-48.8c-42.4-120.3-7.2-296.7,72.7-309.3C637.4,130.9,670.8,228.5,670.8,228.5z"/>
		<path class="st207" d="M745.5,309.8c-2.8-16.3-22.1-75.9-76.9-60.7c0,0-25.4-56.4-63.3-78c-37.9-21.7-72.4,0-75.2,23.8
			c-2.8,23.8,41,5.8,58.8,15.2c49.2,25.9,53.7,74.8,72.9,79.1c19.2,4.3,40.7,5.4,57.1,20.6C735.3,324.9,749.4,332.5,745.5,309.8z"/>
		<path class="st202" d="M410.4,346.2c-31.1-26-107.4,2.2-88.8,166.9c0,0,17.7,120.9,87.1,70.4c0,0,31.7,71.5,80.9,35.8
			c0,0,64.5,71.5,106.9-48.8c42.4-120.3,7.2-296.7-72.7-309.3C443.8,248.6,410.4,346.2,410.4,346.2z"/>
		<path class="st205" d="M335.8,427.5c2.8-16.3,22.1-75.9,76.9-60.7c0,0,25.4-56.4,63.3-78c37.9-21.7,72.4,0,75.2,23.8
			c2.8,23.8-41.1,4.5-58.8,15.2c-49.2,29.8-53.7,74.8-72.9,79.1c-19.2,4.3-40.7,5.4-57.1,20.6C345.9,442.6,331.8,450.2,335.8,427.5z
			"/>
	</g>
	<g id="tree">
		<path class="st208" d="M930.1,1841l38.4-31.5c19.8-16.3,36.2-39,47.5-66l9.1-21.8c15.8-37.6,26.1-78.8,30.5-121.5l12.4-119.5
			l18.1-245.4l14.6-196.3c5-67.4,7.5-135.1,7.5-202.8V690.5l-3.6-197.6c-0.1-5.8-3.1-10.9-7.3-12.5l-147.9-54.8
			c-9.4-3.5-18.6-7.5-27.7-12.1l-190.4-95.8l39.2-30.7l146.7,72.4c12.1,5.9,24.4,10.8,37,14.5l156.6,46.5l14.5-146.8l154.4,8.3
			l6.4,265.1l105.5-64l93.6-64.5c22.6-15.6,43-36,60.5-60.4l50.9-71.1l42.2,24l-84.7,117.7c-13,18.1-27.8,33.7-44,46.5l-111.5,87.8
			l-48,41.3c-17.1,14.7-30.3,36.3-37.6,61.6l-3.7,12.7c-2.1,7.3-3.8,14.9-5,22.5l-4.1,26.1c-9.4,59.2-14.1,119.6-14.1,180.1v32.7
			c0,46.4,1.7,92.8,5.2,138.9l10.7,142.2c2.8,36.8,4.6,73.8,5.6,110.8l4.3,170.2c1.6,63.6,8.8,126.7,21.6,188.1l0.7,3.3
			c6.7,32.5,19.9,62.1,38.2,85.6l43.5,56.1l-84.4-4.1c-16.6-0.8-33.2,2.3-49,9.2l-8.6,3.8c-34.6,15.1-65.1,43-88.1,80.5v0
			l-52.2-27.7c-5.4-2.9-10.9-5.2-16.6-7l-56.3-18.2c-9.1-2.9-18.4-4.6-27.7-4.9l-54-1.7c-11.5-0.4-23,1.5-34.1,5.5l-53.6,19.3
			l16.2-23.9C914,1856.4,921.7,1847.9,930.1,1841z"/>
		<path class="st209" d="M1008.1,1832.8l32.3-43.7c6.1-8.2,11-17.8,14.5-28.3l0,0c16.5-48.8,27.8-100.3,33.6-153.2l11.2-101.9
			c2.7-24.8,4.9-49.7,6.4-74.7l15-239.8c1.2-18.8,2.7-37.6,4.7-56.3l18.5-175.5c3.8-35.9,4.7-72.2,2.6-108.4l-10-177.8l-6-188.7
			c-0.1-3.8-2-7.1-4.6-8.4l-101.9-48.6c-18.8-8.9-37.9-16.6-57.2-23l-75.5-24.9l137.2,40.8l108.1,35.3l22.2-173.8l-8.8,186.3
			l-0.3,205l6.3,172.5c1.8,50.3-0.2,100.7-6,150.4l-14.7,126c-4.5,38.7-7.7,77.6-9.6,116.6l-9.2,189.2c-1.3,26.9-3.3,53.8-5.8,80.6
			l-11.2,117.1c-2,21.5-5,42.8-8.8,63.8v0c-6.8,37.4-18,73.3-33,106.3l-32.6,71.6l-14-9C1004,1853.7,1002.3,1840.6,1008.1,1832.8z"
			/>
		<path class="st209" d="M1159.1,1911.3l26.1,13.5l45.2-53.4l-31.4-13.6c-5.5-2.3-9.6-8.4-10.7-15.9l0,0
			c-6.8-45.2-10.4-91.1-10.7-137.2l-0.2-30.1c-0.2-29.8,0.6-59.6,2.5-89.4l10.3-166.2l-16.3,214.6c-2.5,33-3.8,66.2-3.8,99.4v29
			c0,29.2,1.9,58.3,5.7,87.1l0,0c1.5,11.7-0.1,23.8-4.5,34.1L1159.1,1911.3z"/>
		<path class="st209" d="M1286.5,1839.4l-15.2-93c-5.7-34.9-9.3-70.4-10.6-106.1l-6.1-167.8v-178.8l-4-218.8l12.1,248.2l4.2,167.2
			c1.2,48.6,4.4,97.1,9.5,145.3l8.6,81.1c1.2,11.5,3.4,22.8,6.5,33.7l0,0c9.4,32.8,25.8,61.3,47.3,81.9v0L1286.5,1839.4z"/>
		<path class="st210" d="M447.8-2.5l-18.3,17.5c-20.2,19.3-34.4,47.7-40,79.9l-2.6,14.8c-4.4,25.2-3.2,51.5,3.2,75.9v0
			c7.9,29.9,23.5,55.1,44,71.4l12,9.6c18.5,14.7,39.9,21.3,61.4,18.8l42-4.7c7.9-0.9,15.6-3,23.2-6.3l27.5-12l-0.7,33.2
			c-0.6,28.6,6.9,56.4,21,78l0,0c16.2,24.8,39.7,39.1,64.4,39.3L701,413c8.5,0.1,17-1.6,25.2-4.8l25.1-10c15-6,28.5-17.3,39-32.7
			l12.9-19c14.3-20.9,22.2-48.2,22.2-76.5l0-12.7c0-26.2-6.7-51.5-19.1-71.8L796.2,169c-14.1-23.2-34.5-38.1-56.8-41.5l-25.5-4
			l-1.1-14.6c-2.6-32.8-8.2-65-16.8-96l-11.2-40.1l-176.6-1C486.5-28.3,465.4-19.3,447.8-2.5z"/>
		<path class="st211" d="M641.2,38.5L641.2,38.5c-5.3,15.6-7.1,32.9-5.4,49.8l7.4,70.8c2,19.2,8.6,37.1,18.8,51.1l30.4,41.6
			c10.7,14.6,24.8,24.1,40,26.9l20.5,3.8c13.9,2.6,28-0.6,40.5-9l24.2-16.3c5.2-3.5,10.3-7.4,15.2-11.6l25.7-22l0,14.2
			c0.1,36.5,10.2,71.6,28.4,98.9l0,0c5.1,7.7,10.9,14.7,17.1,20.8l26.4,26c15.7,15.5,34.2,25.2,53.6,28.4l20.4,3.3
			c13.9,2.2,28,1,41.5-3.6l20.5-7c21.7-7.4,41.3-23.3,56.2-45.5l20.3-30.4l37,44.9l17.7,19.6c21.1,23.3,46.6,38.3,73.8,43.4l8,1.5
			c11.5,2.1,23.1,2.4,34.7,0.9l52-6.8c15.1-2,29.6-9.1,41.9-20.8v0c12.6-11.8,22-28.6,27.1-47.9L1452,300l14.5,17
			c19.2,22.5,43.6,35.7,69.1,37.4h0c24.7,1.7,49.1-7.4,69.5-25.9l8.7-7.8c20.4-18.5,35.7-45.3,43.6-76.4l23.5-93.3
			c4.6-18.1,6.5-37.2,5.7-56.3l-4.8-111.2l-977.8,0.9C676.8-15.6,652.2,5.6,641.2,38.5z"/>
		<path class="st212" d="M1548.2,154.4l-0.6,3.8c-7.4,45.9-3.8,93.8,10.2,136.8v0c2.8,8.7,7.9,15.9,14.2,20.3l30.4,21.2
			c24.3,16.9,51.7,23.9,79,20.1l47.4-6.6c13.8-1.9,26.5-11.3,35-25.9l8.5-14.6c10.3-17.8,16-39.6,16.1-62l0.1-18.4l2.5,2.9
			c5,6,10.9,10.4,17.3,12.9l0,0c4.9,2,10,2.8,15.1,2.5l8.3-0.5c3.4-0.2,6.8-1,10.1-2.2l5.3-2c5.2-1.9,10-5.1,14.4-9.3l3.1-3.1
			c2.9-2.8,5.5-6,7.9-9.7l5.1-7.9c3.6-5.6,6.5-12.1,8.4-19.2l0.2-0.7c1.9-7,2.9-14.4,2.9-21.9v-3.5c0-4.7-0.4-9.4-1.2-14l-1.8-10.8
			l5.9,1.9c4.7,1.5,9.6,2.2,14.5,2.2l0,0c4.5,0,8.9-1.3,12.9-3.7l9.9-5.9V-3.7L1881.8-16l-43.2-21.9L1576.1-27v0
			c-5.7,46,2.7,93,23.4,130.7l10.9,19.9L1548.2,154.4z"/>
		<path class="st213" d="M840.5-16.5l-11.1,34.1c-5.7,17.6-8.7,36.5-8.8,55.7l-0.1,21.2c-0.1,34.2,9.1,67.4,26,93.3l0,0
			c8.3,12.7,18.2,23.3,29.3,31.4l33.2,24.2c17,12.4,36.1,18.4,55.5,17.4l19.8-1c19.6-1,38.7-9.2,55.1-23.6l33.2-29.3l4.6,35.9
			c4.2,33,17.1,62.9,36.2,84.7l0,0c19.1,21.7,43.4,33.8,68.5,34.2l45.5,0.7l53-3.5c19.6-1.3,38.5-9.6,54.8-24.1l5-4.4
			c16-14.3,28.9-34.1,37.2-57.3l3.2-8.9c5.8-16.2,9.3-33.8,10.2-51.7l2.3-46.4l10.9,14.1c16,20.8,36.9,33.9,59.2,37.1l6.2,0.9
			c12.3,1.8,24.7,0.5,36.7-3.7l30.5-10.8c20-7.1,37.9-22.2,51.2-43.4l15.3-24.3c5.2-8.3,9.7-17.4,13.2-27.2l23.4-64.1v0
			c-16.5-48.6-53.1-79.4-93.3-78.5L840.5-16.5z"/>
		<path class="st209" d="M1468.7,459.6l-83.7,55.6c-30.6,20.3-59.8,44.1-87.4,71.2l-0.5,0.5c-24.8,24.4-46.9,53.5-65.4,86.6l-1.1,2
			l-7-90.2l-5-95.7v143.5l4.7,142c0.9,25.6,0.8,51.3-0.3,76.8L1220,923c-1,25.5-3,50.9-5.9,76.1l-14.7,126.6
			c-2.7,23.4-4.9,46.9-6.5,70.5l-7.7,113.6l18.1-174.9l19.4-136.5c5.2-36.5,8.4-73.5,9.6-110.6l1.7-54.1c1-30.6,0.6-61.3-1.1-91.8
			l-2.1-37.1c-0.2-3.8,0.5-7.5,2.2-10.6l6.1-11.7c13.7-26.3,29.8-50,48-70.7l3.6-4.1c24.2-27.5,50.3-51.8,77.9-72.6L1468.7,459.6z"
			/>
	</g>
</g>
</svg>
