<?xml version="1.0" encoding="utf-8"?>
<!-- Generator: Adobe Illustrator 21.1.0, SVG Export Plug-In . SVG Version: 6.00 Build 0)  -->
<svg version="1.1" id="game" xmlns="http://www.w3.org/2000/svg" xmlns:xlink="http://www.w3.org/1999/xlink" x="0px" y="0px"
	 viewBox="0 0 1668 2906.6" style="enable-background:new 0 0 1668 2906.6;" xml:space="preserve">
<style type="text/css">
	.st0{fill:url(#gradient4_1_);}
	.st1{fill:url(#gradient5_1_);}
	.st2{fill:#66E2FF;}
	.st3{fill:none;stroke:#B28052;stroke-miterlimit:10;}
	.st4{fill:#96735C;}
	.st5{fill:#825D49;stroke:#BF8A5E;stroke-miterlimit:10;}
	.st6{fill:#AD7D5C;stroke:#B28052;stroke-miterlimit:10;}
	.st7{fill:#BC8864;stroke:#B28052;stroke-miterlimit:10;}
	.st8{fill:#A37B61;}
	.st9{fill:#BC8866;}
	.st10{fill:#E0A57E;stroke:#B28052;stroke-miterlimit:10;}
	.st11{fill:#D19A7C;stroke:#B28052;stroke-miterlimit:10;}
	.st12{fill:#F4DBCE;}
	.st13{fill:#DBC7BF;}
	.st14{fill:#8E684F;stroke:#BF8A5E;stroke-miterlimit:10;}
	.st15{fill:#AD753E;}
	.st16{fill:#966636;}
	.st17{fill:#A87339;}
	.st18{fill:#BC8651;}
	.st19{fill:#AA7A4F;}
	.st20{fill:#C99465;}
	.st21{fill:none;stroke:#634B2A;stroke-miterlimit:10;}
	.st22{fill:#B28052;}
	.st23{fill:#96674D;stroke:#A57758;stroke-width:3;stroke-miterlimit:10;}
	.st24{fill:none;stroke:#A57758;stroke-width:3;stroke-miterlimit:10;}
	.st25{fill:#5C7552;}
	.st26{fill:#E2CA96;}
	.st27{fill:#6F8763;}
	.st28{fill:#EAD7A2;}
	.st29{fill:#F9F2EF;}
	.st30{fill:#382C26;}
	.st31{fill:#936F5F;}
	.st32{fill:#7C655C;}
	.st33{fill:#F9A182;}
	.st34{fill:#DBC697;}
	.st35{fill:#8C7857;}
	.st36{fill:#635872;}
	.st37{fill:#6B7F60;}
	.st38{fill:#755D3F;}
	.st39{fill:#C9B8A7;}
	.st40{fill:#00CFFF;}
	.st41{fill:#03CDE2;}
	.st42{fill:#00DBFF;}
	.st43{fill:#00E7FF;}
	.st44{fill:#00F3FF;}
	.st45{fill:#2EFFF9;}
	.st46{fill:#78FFF8;}
	.st47{fill:#FFF0BF;}
	.st48{fill:#F7E4A6;}
	.st49{fill:#BCCC60;}
	.st50{fill:url(#sea_1_);}
	.st51{fill:#98958C;}
	.st52{fill:#ACA7A1;}
	.st53{fill:#C2BEB5;}
	.st54{fill:#D6C8A3;}
	.st55{fill:#D3C7A7;}
	.st56{fill:#DBCDAF;}
	.st57{fill:#ADA8A2;}
	.st58{fill:#99968D;}
	.st59{fill:#C2BDB3;}
	.st60{fill:#8D8880;}
	.st61{fill:#D3CAB2;}
	.st62{fill:#8B877E;}
	.st63{fill:#9B988F;}
	.st64{fill:#B9B2AA;}
	.st65{fill:#C3BFB6;}
	.st66{fill:#DDCFAF;}
	.st67{fill:#CCBFA6;}
	.st68{fill:#CED18B;}
	.st69{fill:#99968B;}
	.st70{fill:#969089;}
	.st71{fill:#C4BFB3;}
	.st72{fill:#939189;}
	.st73{fill:#B7B5AB;}
	.st74{fill:#C6BBA5;}
	.st75{fill:#CEC2AA;}
	.st76{fill:#CCC1AA;}
	.st77{fill:#9E9C95;}
	.st78{fill:#C9BDA6;}
	.st79{fill:#C6BBA7;}
	.st80{fill:#BAB3A6;}
	.st81{fill:#A5A299;}
	.st82{fill:#CCC0A8;}
	.st83{fill:#C3BFB4;}
	.st84{fill:#9A978E;}
	.st85{fill:#B8B1AA;}
	.st86{fill:#8D877F;}
	.st87{fill:#C4BCA9;}
	.st88{fill:#B5AD9E;}
	.st89{fill:#C5BEB6;}
	.st90{fill:#B5B3AC;}
	.st91{fill:#D5D1C6;}
	.st92{fill:#BCB4B1;}
	.st93{fill:#999793;}
	.st94{fill:#8E8E87;}
	.st95{fill:#A3A19D;}
	.st96{fill:#B5B4B1;}
	.st97{fill:#A8A7A7;}
	.st98{fill:#A09D97;}
	.st99{fill:#D3CFC3;}
	.st100{fill:#ADAAA6;}
	.st101{fill:#B2B1AF;}
	.st102{fill:#9B978F;}
	.st103{fill:#AAA7A0;}
	.st104{fill:#CCC8C4;}
	.st105{fill:#D3D0CD;}
	.st106{fill:#C9C3BD;}
	.st107{fill:#B2AFA8;}
	.st108{fill:#999692;}
	.st109{fill:#898683;}
	.st110{fill:#A3A29B;}
	.st111{fill:#B2AEAA;}
	.st112{fill:#D6D0C9;}
	.st113{fill:#918D87;}
	.st114{fill:#DBD5C6;}
	.st115{fill:#B7B3AE;}
	.st116{fill:#C4C1BB;}
	.st117{fill:#9B9891;}
	.st118{fill:#D8D5CB;}
	.st119{fill:#939089;}
	.st120{fill:#A8A6A0;}
	.st121{fill:#D8D5D0;}
	.st122{fill:#A8A49B;}
	.st123{fill:#96928A;}
	.st124{fill:#CEC8C2;}
	.st125{fill:#C4996C;}
	.st126{fill:#B7845A;}
	.st127{fill:#D5A776;}
	.st128{fill:#477F16;}
	.st129{fill:#436818;}
	.st130{fill:#AA7B43;}
	.st131{fill:#B79056;}
	.st132{fill:#AD9655;}
	.st133{fill:#DD9D68;}
	.st134{fill:#C18B59;stroke:#A87848;stroke-miterlimit:10;}
	.st135{fill:#B28056;}
	.st136{fill:#AD7D59;}
	.st137{fill:#AA7D5C;}
	.st138{fill:#DDCBBF;}
	.st139{fill:#DBDAD9;}
	.st140{fill:#D8A380;}
	.st141{fill:#CE987A;}
	.st142{fill:#CC9D85;}
	.st143{fill:#C6977F;}
	.st144{fill:#C19784;}
	.st145{fill:#C69B8B;}
	.st146{fill:#B7958B;}
	.st147{fill:#AF8958;}
	.st148{fill:#967A60;}
	.st149{fill:#C9D1D3;}
	.st150{fill:#635C55;}
	.st151{fill:#65868F;}
	.st152{fill:#6CC1A0;}
	.st153{fill:#EFCE8E;}
	.st154{fill:#60523B;}
	.st155{fill:#EFC58E;}
	.st156{fill:#6D5D41;}
	.st157{fill:#E8C192;}
	.st158{fill:#EFCA7F;}
	.st159{fill:#FFFFFF;}
	.st160{fill:#E5C57C;}
	.st161{fill:#59585E;}
	.st162{fill:#6FC9A9;}
	.st163{fill:#686770;}
	.st164{fill:#7F6752;}
	.st165{fill:#777770;}
	.st166{fill:#F29575;}
	.st167{fill:#CE6E6E;}
	.st168{fill:#3F3831;}
	.st169{fill:#86D1B1;}
	.st170{fill:#2D2924;}
	.st171{fill:none;stroke:#2D2924;stroke-width:24;stroke-miterlimit:10;}
	.st172{fill:none;stroke:#2D2924;stroke-width:24;stroke-miterlimit:10;stroke-dasharray:10.0234,10.0234;}
	.st173{fill:#C0D3D7;}
	.st174{fill:#98A9B1;}
	.st175{fill:#D8372D;}
	.st176{fill:#414143;}
	.st177{fill:#EE5547;}
	.st178{fill:#A22921;}
	.st179{fill:#9C271F;}
	.st180{fill:#D2C4A9;}
	.st181{fill:#ABABAB;}
	.st182{fill:#4F4F4F;}
	.st183{fill:none;stroke:#2D2924;stroke-width:18;stroke-miterlimit:10;}
	.st184{fill:none;stroke:#2D2924;stroke-width:18;stroke-miterlimit:10;stroke-dasharray:8.8394,8.8394;}
	.st185{fill:none;stroke:#2D2924;stroke-width:18;stroke-miterlimit:10;stroke-dasharray:9.9611,9.9611;}
	.st186{fill:#E26B47;}
	.st187{fill:#FF8243;}
	.st188{fill:#47413F;}
	.st189{fill:#EF8424;}
	.st190{fill:#FDA83D;}
	.st191{fill:#994E22;}
	.st192{fill:#965F29;}
	.st193{fill:#7F7F7F;}
	.st194{fill:#D6D5D4;}
	.st195{fill:#C98235;}
	.st196{fill:#999999;}
	.st197{fill:#E2E1E0;}
	.st198{fill:#D98D31;}
	.st199{fill:#B5B5B5;}
	.st200{fill:url(#gradient_1_);}
	.st201{fill:#997933;}
	.st202{fill:#937334;}
	.st203{fill:#A9DB52;}
	.st204{fill:#96C639;}
	.st205{fill:#82B71C;}
	.st206{fill:#B6E55C;}
	.st207{fill:#90C125;}
	.st208{fill:#A9D146;}
	.st209{fill:#8E7036;}
	.st210{fill:#846939;}
	.st211{fill:#78A038;stroke:#81AD2B;stroke-width:3;stroke-miterlimit:10;}
	.st212{fill:#658E30;}
	.st213{fill:#85AA44;}
	.st214{fill:#7EAF31;}
	.st215{fill:#018287;}
	.st216{fill:#0F0F0F;}
	.st217{fill:#303030;}
	.st218{fill:#333333;}
	.st219{fill:#1A1A1A;}
	.st220{fill:#424242;}
	.st221{fill:#00666A;}
	.st222{fill:#212121;}
	.st223{fill:#111111;}
	.st224{fill:#A3A3A3;}
	.st225{fill:#ACACAE;}
	.st226{fill:#161616;}
	.st227{fill:#00686B;}
	.st228{fill:#161616;stroke:#373737;stroke-miterlimit:10;}
	.st229{fill:none;stroke:#D98D31;stroke-miterlimit:10;}
	.st230{fill:#242424;}
	.st231{fill:#373737;}
	.st232{fill:url(#gradient2_1_);}
	.st233{fill:url(#gradient3_1_);}
	.st234{fill:#B67D56;}
	.st235{fill:#83492A;}
	.st236{fill:#9C6038;}
	.st237{fill:#683920;}
	.st238{fill:#563119;}
	.st239{fill:#CC9E75;}
	.st240{fill:#633A23;}
	.st241{fill:#F9F6CD;stroke:#000000;stroke-miterlimit:10;}
	.st242{fill:none;stroke:#2D2924;stroke-width:24;stroke-miterlimit:10;stroke-dasharray:9.8069,9.8069;}
	.st243{fill:none;stroke:#2D2924;stroke-width:18;stroke-miterlimit:10;stroke-dasharray:11.8613,11.8613;}
	.st244{fill:none;stroke:#2D2924;stroke-width:18;stroke-miterlimit:10;stroke-dasharray:10.2463,10.2463;}
	.st245{fill:#C4ED6B;stroke:#000000;stroke-miterlimit:10;}
	.st246{fill:none;}
	.st247{font-family:'ArialMT';}
	.st248{font-size:60px;}
	.st249{letter-spacing:18;}
	.st250{font-size:48px;}
	.st251{letter-spacing:12;}
	.st252{fill:#EAAB6C;stroke:#EAAB6C;stroke-miterlimit:10;}
	.st253{fill:none;stroke:#FFC088;stroke-miterlimit:10;}
	.st254{fill:#FFC088;stroke:#FFC088;stroke-miterlimit:10;}
	.st255{fill:#996531;}
	.st256{letter-spacing:15;}
	.st257{fill:#776947;}
	.st258{fill:#7F735C;}
	.st259{fill:#E1EA6C;stroke:#000000;stroke-miterlimit:10;}
	.st260{font-family:'Arial-BoldMT';}
	.st261{font-size:72px;}
	.st262{letter-spacing:28;}
	.st263{fill:#D6A3A3;}
	.st264{fill:#55B7BC;}
</style>
<g id="menu_x5F_buy">
	<g id="ex2_x5F_buy">
		<rect x="125.4" y="966.1" class="st241" width="485.1" height="636.2"/>
		<g id="btn-buy_x5F_ex2">
			<rect x="125.2" y="1482.2" class="st245" width="485.1" height="120.2"/>
			<rect x="189.9" y="1518.8" class="st246" width="355.5" height="85.5"/>
			<text transform="matrix(1 0 0 1 287.9598 1561.7964)" class="st247 st248 st249">BUY</text>
		</g>
		<rect x="154.4" y="1272" class="st246" width="437" height="96"/>
		<text transform="matrix(1 0 0 1 154.3662 1306.3215)" class="st247 st250 st251">Need: Str 3</text>
		<rect x="154.4" y="1383.2" class="st246" width="437" height="96"/>
		<text transform="matrix(1 0 0 1 154.3662 1417.5551)"><tspan x="0" y="0" class="st247 st250 st251">Money:</tspan><tspan x="0" y="57.6" class="st247 st250 st251">150</tspan></text>
		<g id="ex2-pick_1_">
			<path class="st195" d="M243.3,1218.8c-2.3-0.6-3.1-4.1-1.4-6l125.8-143.1l38-47.2l22.5-25.8l5.8-2.5l6.8,0.9l1.5,5.1l-0.7,6.8
				l-9.8,13.2l-13.8,14.5l-11.6,10c-5.7,4.9-11.1,10.2-16.2,16L251.7,1217c-1.8,2-4.3,2.9-6.7,2.3L243.3,1218.8z"/>
			<path class="st196" d="M413.6,987.9l-3.2-0.8c-3.5-0.8-6.9-2.1-10.2-3.8l-8.9-4.6c-0.9-0.5-1.8,0.6-1.4,1.7l3.5,10.5
				c1.2,3.7,2.1,7.5,2.6,11.3l0.4,3.1c0.9,7,2.9,13.7,6,19.8l0,0c1.5,2.9,3.2,5.6,5.3,7.9h0c4.7,5.4,8.6,11.8,11.6,18.8l2.1,5.1
				c1.6,3.9,3,7.9,4,12l1.8,7.1c2.1,8.2,3.5,16.7,4.3,25.2l2.5,26.7l19.3-9.3c6.5-3.1,12.7-7.3,18.3-12.3l5.8-5.2
				c5.6-5,10.7-10.9,15.1-17.5l0,0c6.1-9.3,10.9-19.8,13.9-31.1l3.3-12.2l-14-1.2c-8.9-0.7-17.7-3.4-25.9-7.8l-5.2-2.8
				c-4.4-2.4-8.6-5.2-12.6-8.5l-12.4-10l-12.2-13.5l-1.3-1.4C422.4,991.5,418.1,989,413.6,987.9z"/>
			<path class="st197" d="M433,1118.7l0.9,9.2l19.3-9.3c6.5-3.1,12.7-7.3,18.3-12.3l5.8-5.2c5.6-5,10.7-10.9,15.1-17.5l0,0
				c6.1-9.3,10.9-19.8,13.9-31.1l3.3-12.2l-6.7-0.6l-3.8,9.6c-1.2,3.1-2.6,6.2-4.2,9.1l-3.2,6c-1.8,3.4-3.8,6.7-6,9.8l-4.1,5.8
				c-3.4,4.8-7.2,9.1-11.3,12.8l-4.6,4.2c-2.7,2.4-5.5,4.6-8.4,6.6l-9.1,6.1c-1.5,1-3.1,2-4.6,2.9L433,1118.7z"/>
		</g>
	</g>
	<g id="ex3_x5F_buy">
		<rect x="610.5" y="966.1" class="st241" width="485.1" height="636.2"/>
		<g id="btn-buy_x5F_ex3">
			<rect x="610.3" y="1482.2" class="st245" width="485.1" height="120.2"/>
			<rect x="675" y="1518.8" class="st246" width="355.5" height="85.5"/>
			<text transform="matrix(1 0 0 1 773.0642 1561.7965)" class="st247 st248 st249">BUY</text>
		</g>
		<rect x="639.5" y="1272" class="st246" width="437" height="96"/>
		<text transform="matrix(1 0 0 1 639.4703 1306.3215)" class="st247 st250 st251">Need: Str 6</text>
		<rect x="639.5" y="1383.2" class="st246" width="437" height="96"/>
		<text transform="matrix(1 0 0 1 639.4703 1417.5551)"><tspan x="0" y="0" class="st247 st250 st251">Money:</tspan><tspan x="0" y="57.6" class="st247 st250 st251">300</tspan></text>
		<g id="ex3-pick_1_">
			<path class="st192" d="M721.8,1231c-2-1-2.3-4.3-0.5-5.7l132.5-105.5l40.6-35.4l23.7-19l5.6-1.2l6,2.1l0.7,4.9l-1.6,6l-10.6,10.1
				l-14.4,10.5l-11.8,6.9c-5.8,3.4-11.4,7.2-16.7,11.4l-145.8,115c-1.9,1.5-4.2,1.8-6.3,0.8L721.8,1231z"/>
			<path class="st193" d="M973.5,1116.5c-8-2.4-15.6-6.4-22.4-12l-4.3-3.5c-3.7-3-7.1-6.4-10.3-10.1l-9.9-11.4l-4.8-7.4l-3.7-8.3
				l-4.6-15.6c-1.5-5-2.6-10.2-3.4-15.5l-0.9-6.2c-1.4-9.8-1.4-19.8,0.1-29.6l2.3-15.3l-9.7,0.8c-9,0.7-17.8,3.4-26,7.9h0
				c-5.9,3.2-11.4,7.3-16.3,12.3l-5.1,5.1c-5,4.9-9.4,10.6-13.2,16.9l-11.2,18.6l19.1,8.7c6.1,2.8,12,6.3,17.6,10.3l4.8,3.5
				c2.8,2.1,5.5,4.4,8,7l3.3,3.5c3.6,3.8,6.7,8.2,9.3,13c0.6,1.5,1.4,3,2.2,4.4c0.7,1.5,1.5,2.9,2.4,4.3c2.5,4.8,4.6,10.1,5.9,15.6
				l1.3,5c1,3.8,1.7,7.7,2,11.7l0.7,6.7c0.8,7.8,1,15.8,0.6,23.7l-1.3,24.6l18.7-4.7c6.3-1.6,12.4-4.2,18.2-7.7l5.9-3.6
				c5.8-3.5,11.1-7.9,16-13h0c6.8-7.2,12.4-15.8,16.7-25.4l4.6-10.4L973.5,1116.5z"/>
			<path class="st194" d="M910.3,991.1l1.5-9.6l-9.7,0.8c-9,0.7-17.8,3.4-26,7.9h0c-5.9,3.2-11.4,7.3-16.3,12.3l-5.1,5.1
				c-5,4.9-9.4,10.6-13.2,16.9l-11.2,18.6l8.4,3.9l4.1-6.5c3-4.7,6.3-9.1,9.9-13l3.5-3.8c1.7-1.8,3.4-3.5,5.2-5.2l6.3-5.8
				c3.1-2.8,6.3-5.4,9.7-7.6l2.9-1.9c4.3-2.9,8.9-5.2,13.6-7.1l1.5-0.6c2.8-1.1,5.6-2,8.4-2.7L910.3,991.1z"/>
			<path class="st194" d="M906.7,1173l-0.6,12l18.7-4.7c6.3-1.6,12.4-4.2,18.2-7.7l5.9-3.6c5.8-3.5,11.1-7.9,16-13h0
				c6.8-7.2,12.4-15.8,16.7-25.4l4.6-10.4l-8.9-2.7l-6.1,9c-0.9,1.3-1.9,2.5-2.9,3.7l-6.6,7.1c-1.4,1.5-2.8,3-4.3,4.4l-6.4,6
				c-3.2,3-6.6,5.7-10.2,8l-4.7,3.1c-1.9,1.3-3.9,2.4-5.9,3.5l-7.5,4c-2.4,1.3-4.8,2.4-7.3,3.4L906.7,1173z"/>
		</g>
	</g>
	<g id="saw_x5F_buy">
		<rect x="1095.6" y="966.1" class="st241" width="485.1" height="636.2"/>
		<g id="btn-buy_x5F_saw">
			<rect x="1095.6" y="1482.2" class="st245" width="485.1" height="120.2"/>
			<rect x="1160.4" y="1518.8" class="st246" width="355.5" height="85.5"/>
			<text transform="matrix(1 0 0 1 1258.4183 1561.7854)" class="st247 st248 st249">BUY</text>
		</g>
		<rect x="1124.6" y="1272" class="st246" width="437" height="96"/>
		<text transform="matrix(1 0 0 1 1124.5746 1306.3215)"><tspan x="0" y="0" class="st247 st250 st251">Need: Str 7 </tspan><tspan x="0" y="57.6" class="st247 st250 st251">Agi 4   </tspan></text>
		<rect x="1124.6" y="1383.2" class="st246" width="437" height="96"/>
		<text transform="matrix(1 0 0 1 1124.5746 1417.5551)"><tspan x="0" y="0" class="st247 st250 st251">Money:</tspan><tspan x="0" y="57.6" class="st247 st250 st251">1000   </tspan></text>
		<g id="saw-pick_1_">
			<g>
				<path class="st170" d="M1467.7,1057.4l-140.2,99l-19.8-41l140.2-99.1c8.5-6,19.4-2.5,24.4,7.7l1.8,3.7
					C1479.1,1038.2,1476.2,1051.4,1467.7,1057.4z"/>
				<g>
					<polyline class="st183" points="1331.6,1153.6 1327.5,1156.5 1325.4,1152 					"/>
					<line class="st243" x1="1320.2" y1="1141.3" x2="1312.5" y2="1125.3"/>
					<polyline class="st183" points="1309.9,1119.9 1307.7,1115.4 1311.8,1112.6 					"/>
					<path class="st244" d="M1320.2,1106.6l127.8-90.3c8.5-6,19.4-2.5,24.4,7.7l1.8,3.7c5,10.3,2.1,23.6-6.4,29.6l-131.9,93.2"/>
				</g>
			</g>
			<path class="st173" d="M1464.9,1054.7l-134.6,95.1l-16.6-34.3l134.6-95.1c7.1-5,16.2-2.1,20.4,6.5l1.5,3.1
				C1474.5,1038.6,1472.1,1049.6,1464.9,1054.7z"/>
			<path class="st174" d="M1461,1034.6c2.5,5.2,0.2,12.6-5.3,16.5s-11.9,2.7-14.5-2.5c-2.5-5.2-0.2-12.6,5.3-16.5
				C1452,1028.2,1458.5,1029.3,1461,1034.6z"/>
			<path class="st186" d="M1278.6,1123.7l-40.5,28.6c-4.3,3-5.7,9.7-3.2,14.8l4.1,8.5l-11.8,9.8c-3.5,2.9-6.8,6.1-9.8,9.6l-3.5,4.1
				c-2.4,2.7-4.2,6.1-5.3,9.9l0,0c-1,3.5-1.5,7.1-1.4,10.8l0,0.2c0.1,3.4,0.8,6.7,2.2,9.6l0.4,0.7c0.6,1.2,1.4,2.2,2.5,2.9
				c3.1,2,6.7,2.9,10.2,2.5l0,0c4.3-0.4,8.6-1.8,12.5-4.1l8.1-4.7l22.6-14.2l-0.4,0c0.6-0.2,1.2-0.5,1.7-0.9l40.5-28.6
				c4.3-3,5.7-9.7,3.2-14.8l-19.7-40.8C1288.4,1122.4,1282.9,1120.7,1278.6,1123.7z M1246.7,1213.4c-1.2,0.8-2.5,1.6-3.8,2.4
				l-6.2,3.6c-4.4,2.6-9.2,4.4-14,5.2l0,0c-1.2,0.2-2.3,0.2-3.5-0.1l-1.1-0.2c-1.3-0.3-2.4-1.3-2.9-2.8c-0.2-0.6-0.3-1.2-0.4-1.8
				l0-1.2c-0.1-2.6,0.4-5.1,1.3-7.4c1.3-3.1,3.1-5.9,5.3-8.3l4.1-4.5c1.4-1.6,2.9-3,4.5-4.3l12.8-10.4l11.8,24.4c0.7,1.5,0,0,0,0
				L1246.7,1213.4z M1260.1,1213L1260.1,1213C1260.1,1213,1260.1,1213,1260.1,1213L1260.1,1213z"/>
			<path class="st187" d="M1291.6,1128.4l-56.3,39.8l-0.5-0.9c-2.5-5.2-1.1-11.8,3.2-14.8l41.4-29.3c4-2.8,9-1.2,11.4,3.6
				L1291.6,1128.4z"/>
			<path class="st188" d="M1254.3,1145.1l-11.2,7.9c-1,0.7-2.2,0.3-2.7-0.9l-0.2-0.4c-0.6-1.2-0.2-2.6,0.7-3.3l11.2-7.9
				c1-0.7,2.2-0.3,2.7,0.9l0.2,0.4C1255.6,1143,1255.3,1144.5,1254.3,1145.1z"/>
			<path class="st189" d="M1329,1128c-7.3-15-20.3-22.1-29.6-16.3c-0.6,0.2-1.1,0.6-1.6,1.1l-5.7,5.4c-1.9,1.8-3.7,3.7-5.5,5.6
				l-4.7,5.3c-1.1,1.2-2.2,2.5-3.3,3.8l-3.1,3.8c-5.1,6.3-9.5,13.3-13.1,20.9l0,0c-3.4,7.2-6.1,14.9-8,22.9
				c-0.5,2.1-0.6,4.2-0.3,6.4l0,0.4c0.4,3,1.3,5.9,2.6,8.5l0,0.1c0.5,1,1.1,1.8,1.8,2.5c1,0.9,2.2,1.5,3.5,1.8
				c2.1,0.4,4.2,0.3,6.3-0.2l3.7-1c3.1-0.9,6.1-2,9-3.6l10.2-5.3c2.2-1.1,4.4-2.4,6.5-3.7l13.9-8.8l13.8-9.7c0,0,0.1-0.1,0.1-0.1
				c0,0,0.1-0.1,0.1-0.1l0.7-0.5c0.2-0.1,0.3-0.2,0.4-0.4C1335.1,1159.4,1336.1,1142.6,1329,1128z"/>
			<path class="st190" d="M1260.9,1199.6l-1.9-3c-0.6-0.9-1.1-1.9-1.5-2.9l-0.6-1.5c-0.8-2.1-1.2-4.5-1.1-6.8l0,0
				c0-0.8,0.1-1.5,0.3-2.2l1.5-6c0.4-1.7,1-3.4,1.7-5l4-9.6c0.5-1.3,1.1-2.5,1.8-3.7l5.4-10c1.2-2.1,2.5-4.2,3.9-6.1l6.6-9
				c0.5-0.7,1.1-1.4,1.6-2l5.4-6c0.8-0.9,3.7-4.1,3.7-4.1l3.5-3.5l2.9-2.5l1.9-1.5l2.4-1.6l2.9-1.3l2.1-0.6l2.4-0.5l-2.4-0.4l-2.2,0
				l-2,0.3l-1.9,0.6l-1.4,0.7l-1.6,0.9c0,0-1.2,1-2.1,1.9l-4.3,4.1l-2.7,2.7l-2.8,2.9l-4.7,5.3l-5.5,6.6c-0.6,0.7-1.1,1.4-1.7,2.2
				l-5,7c-0.6,0.8-1.1,1.6-1.6,2.5l-3.2,5.6c-0.4,0.6-0.7,1.3-1,1.9l-1.8,3.7c-0.3,0.7-0.7,1.5-1,2.2l-2.3,5.6
				c-0.4,0.9-0.7,1.9-1,2.9l-2,6.4c-0.2,0.6-0.4,1.3-0.5,2l-0.4,1.7c-0.5,2.2-0.6,4.5-0.5,6.7l0.2,1.9l0.5,2.3
				c0.3,1.5,0.8,2.9,1.4,4.2l0.3,0.6c0.8,1.6,1.9,2.9,3.2,3.9L1260.9,1199.6z"/>
			<path class="st191" d="M1284.7,1158.3l-16.5,11.7c-0.6,0.4-1.3,0.2-1.6-0.5l-0.1-0.2c-0.3-0.7-0.1-1.5,0.4-1.9l16.5-11.7
				c0.6-0.4,1.3-0.2,1.6,0.5l0.1,0.2C1285.4,1157,1285.2,1157.9,1284.7,1158.3z"/>
			<path class="st191" d="M1286.9,1163l-16.5,11.7c-0.6,0.4-1.3,0.2-1.6-0.5l-0.1-0.2c-0.3-0.7-0.1-1.5,0.4-1.9l16.5-11.7
				c0.6-0.4,1.3-0.2,1.6,0.5l0.1,0.2C1287.7,1161.7,1287.5,1162.6,1286.9,1163z"/>
			<path class="st191" d="M1289.2,1167.6l-16.5,11.7c-0.6,0.4-1.3,0.2-1.6-0.5l-0.1-0.2c-0.3-0.7-0.1-1.5,0.4-1.9l16.5-11.7
				c0.6-0.4,1.3-0.2,1.6,0.5l0.1,0.2C1289.9,1166.4,1289.8,1167.3,1289.2,1167.6z"/>
			<path class="st191" d="M1291.5,1172.4l-16.5,11.7c-0.6,0.4-1.3,0.2-1.6-0.5l-0.1-0.2c-0.3-0.7-0.1-1.5,0.4-1.9l16.5-11.7
				c0.6-0.4,1.3-0.2,1.6,0.5l0.1,0.2C1292.3,1171.2,1292.1,1172.1,1291.5,1172.4z"/>
			<path class="st191" d="M1293.7,1177l-16.5,11.7c-0.6,0.4-1.3,0.2-1.6-0.5l-0.1-0.2c-0.3-0.7-0.1-1.5,0.4-1.9l16.5-11.7
				c0.6-0.4,1.3-0.2,1.6,0.5l0.1,0.2C1294.5,1175.7,1294.3,1176.6,1293.7,1177z"/>
			<path class="st188" d="M1264.6,1139.7l0.4,0c0.7,0,1.4-0.4,1.9-1l0.2-0.2c0.4-0.4,0.6-1,0.6-1.7l0-1c0-0.4-0.1-0.7-0.2-1
				l-3.7-7.8c-0.3-0.7-0.6-1.4-0.9-2.2l-1.8-5.6c-0.6-1.9-0.9-3.8-0.8-5.7l0.1-1.7c0.1-2.5,0.8-4.7,2.1-6.4l1.5-2.1
				c0.5-0.7,1.1-1.3,1.8-1.8l3-2.2c1.2-0.8,2.5-1.2,3.9-1.2l0,0c1.9,0,3.9,0.9,5.7,2.5l1.6,1.4c0.8,0.7,1.5,1.6,2.1,2.5l2.9,4.3
				c0.4,0.6,0.7,1.2,1,1.8l3.9,8.1c0.2,0.3,0.4,0.6,0.6,0.8l0,0c0.5,0.4,1.1,0.5,1.6,0.4l0.5-0.1c0.4-0.1,0.8-0.3,1.2-0.6l0.1,0
				c0.6-0.5,1-1.3,1.1-2.4l0,0c0-0.2,0-0.3-0.1-0.5l-0.7-1.5l-4-8.3c-0.7-1.4-1.5-2.7-2.3-3.9l-3.3-4.4c-1.2-1.5-2.5-2.9-3.9-3.9
				l-0.9-0.7c-2.5-1.9-5.2-2.8-7.8-2.8l-0.5,0c-2.1,0-4,0.7-5.7,1.9l-3.5,2.5c-1.1,0.8-2.1,1.8-2.9,2.9l-2,2.9
				c-1.5,2.1-2.4,4.6-2.9,7.5v0c-0.4,2.7-0.3,5.6,0.3,8.5l0.5,2.7c0.3,1.4,0.7,2.7,1.1,4l2.1,5.7c0.3,0.7,0.6,1.5,0.9,2.2l2.7,5.6
				c0.3,0.7,0.8,1.3,1.3,1.8l0,0C1263.8,1139.6,1264.2,1139.7,1264.6,1139.7z"/>
		</g>
	</g>
	<g id="saw2_x5F_buy">
		<rect x="125.1" y="1602.3" class="st241" width="485.1" height="635.2"/>
		<g id="btn-buy_x5F_saw2">
			<rect x="125.1" y="2117.3" class="st245" width="485.1" height="120.2"/>
			<rect x="189.8" y="2154" class="st246" width="355.5" height="85.5"/>
			<text transform="matrix(1 0 0 1 287.8973 2196.9751)" class="st247 st248 st249">BUY</text>
		</g>
		<rect x="154.1" y="1908.2" class="st246" width="437" height="96"/>
		<text transform="matrix(1 0 0 1 154.0538 1942.5397)"><tspan x="0" y="0" class="st247 st250 st251">Need: Str 10 </tspan><tspan x="0" y="57.6" class="st247 st250 st251">Agi 8   </tspan></text>
		<rect x="154.1" y="2018.4" class="st246" width="437" height="96"/>
		<text transform="matrix(1 0 0 1 154.0538 2052.7532)"><tspan x="0" y="0" class="st247 st250 st251">Money:</tspan><tspan x="0" y="57.6" class="st247 st250 st251">1700   </tspan></text>
		<g id="saw2-pick_1_">
			<g>
				<path class="st170" d="M336.9,1738.1L473.7,1629c9.9-7.9,24.2-3.1,31.8,10.9l0.1,0.3c7.6,14,5.7,31.7-4.3,39.7l-136.8,109.1"/>
				<g>
					<line class="st171" x1="336.9" y1="1738.1" x2="340.8" y2="1735"/>
					<path class="st242" d="M348.4,1728.9l125.3-99.9c9.9-7.9,24.2-3.1,31.8,10.9l0.1,0.3c7.6,14,5.7,31.7-4.3,39.7l-129,102.9"/>
					<line class="st171" x1="368.5" y1="1785.7" x2="364.5" y2="1788.8"/>
				</g>
			</g>
			<path class="st173" d="M343.5,1738.6l132.1-105.3c8.1-6.5,19.7-2.5,25.9,8.8l0.7,1.3c6.2,11.3,4.6,25.8-3.5,32.2l-132.1,105.3"/>
			<path class="st174" d="M493.4,1649.6c3.5,6.5,2,15.2-3.4,19.6c-5.4,4.3-12.7,2.6-16.2-3.9c-3.5-6.5-2-15.2,3.4-19.6
				C482.6,1641.4,489.8,1643.2,493.4,1649.6z"/>
			<path class="st175" d="M333,1720L333,1720c-2.9-1.6-6.2-2.2-9.4-1.6l0,0c-1.1,0.2-2.2,0.6-3.3,1.2l-7.7,4.1l-8.4,1.9
				c-0.7,0.2-1.4,0.4-2,0.6l-2.9,1.1c-3.2,1.2-6.3,3-9.2,5.2l-3,2.4c-1.9,1.5-3.6,3.2-5.2,5.1l-2.9,3.6c-2.6,3.2-4.7,6.9-6.3,10.9
				l-5,12.8c-1.3,3.3-1.7,6.9-1.4,10.5l2.7,25.2l-24.3,28.2c-3.4,3.9-6.1,8.6-8.1,13.7l-0.2,0.4c-1.3,3.5-2,7.3-1.8,11.2l0,0
				c0.1,3.4,1,6.8,2.6,9.6l4.2,7.6c1.8,3.3,4.5,5.7,7.7,6.8l0,0c2.2,0.8,4.5,0.6,6.6-0.5l0.3-0.2c3.7-1.9,7.3-4.2,10.7-6.9
				l25.4-20.2l33.7-26.7l2.4-10.3c0.3-1.5,1.1-2.7,2.1-3.6l36.2-29.6c0.6-0.5,0.9-1.3,1-2.1l0,0c0-0.7-0.1-1.4-0.5-2l-27.8-51.2
				c-0.5-0.9-1-1.7-1.6-2.4l-2.2-2.8C334.9,1721.3,334,1720.5,333,1720z M261.3,1864.9l-5.4,3.5c-0.8,0.5-1.7,0.8-2.6,0.7l0,0
				c-1.7-0.1-3.2-1.1-4-2.8l-2.7-5.3c-0.7-1.3-1.2-2.8-1.5-4.4l0,0c-0.5-2.6-0.3-5.4,0.6-7.9l0.4-1.2c0.9-2.6,2.3-4.9,3.9-6.9
				l22.6-26.3c0.6-0.7,1.5-0.5,1.9,0.3l12.8,27.5c0.3,0.7,0.2,1.6-0.4,2.1l-25.2,20.4C261.6,1864.7,261.4,1864.8,261.3,1864.9z"/>
			<path class="st176" d="M326.1,1826.2l12.3-9.8c1.4-1.1,2.1-3.1,1.8-5.1l-0.9-6l-10.1,8L326.1,1826.2z"/>
			<path class="st176" d="M367.8,1779.6l2.9,8.1c0.5,1.4,0.1,3-0.9,3.8l-5.1,4.1c-1.5,1.2-3.5,1.5-5.2,0.6l-6-2.9l12.5-10
				C367.1,1782.5,367.8,1781.1,367.8,1779.6L367.8,1779.6z"/>
			<path class="st177" d="M266.6,1778.4l6.7-5.3c1.5-1.2,2.9-2.7,4-4.3l0.5-0.8c0.8-1.1,1.4-2.3,2-3.5l3.1-6.9
				c0.2-0.5,0.5-1,0.7-1.4l2.5-4.3c0.9-1.6,2.1-3.1,3.5-4.2l2.6-2.1c1.4-1.1,2.9-1.8,4.5-2.3h0c1.4-0.4,2.9-0.4,4.3-0.2l0.6,0.1
				c1.9,0.3,3.7,1.1,5.3,2.3l2.3,1.8l1.8,1.3c0.8,0.6,1.6,1,2.5,1.2l0.7,0.2c1.2,0.3,2.5,0.1,3.6-0.8l23.3-18.5l-1.8-3.4
				c-0.4-0.8-0.9-1.5-1.5-2.2l-1.9-2.3c-1.1-1.3-2.3-2.4-3.7-3.2l-0.5-0.3c-2.2-1.2-4.6-1.6-7-1.2l-1.3,0.2
				c-1.1,0.2-2.2,0.6-3.2,1.1l-5.4,2.9c-1.5,0.8-3.1,1.4-4.8,1.8l-4.5,1c-1.7,0.4-3.3,0.9-4.9,1.5l-0.5,0.2c-3.9,1.4-7.6,3.6-11,6.2
				l-1.1,0.9c-2.6,2.1-5,4.4-7.1,7.1l-0.8,1c-3.4,4.2-6.1,9-8.2,14.3l-5.2,13.3c-0.7,1.7-0.9,3.6-0.7,5.4L266.6,1778.4z"/>
			<path class="st178" d="M289.7,1777.8l-0.3,17.7c0,0.8,0.1,1.5,0.3,2.2l0.4,1.2c0.4,1.2,1.1,2.3,2,3l0,0c1.1,0.9,2.4,1.2,3.7,0.9
				l1.2-0.3c0.7-0.1,1.3-0.5,1.9-0.9l15.6-12.4c1.1-0.8,1.9-2.1,2.2-3.6l4.1-15.5c0.4-1.5,1.2-2.8,2.3-3.7l26.3-20.9l-6.8-12.5
				l-51,40.5C290.4,1774.5,289.7,1776.1,289.7,1777.8z"/>
			<path class="st179" d="M355.8,1757.6l-25.7,20.4c-1,0.8-1.6,2.3-1.5,3.8l0.9,12.9c0.1,1,1,1.6,1.7,1l27.9-22.2
				c0.6-0.4,1-1.1,1.3-1.8l0.3-0.9c0.2-0.5,0.3-1.1,0.3-1.7l0-0.5c0-0.8-0.2-1.7-0.6-2.4L355.8,1757.6z"/>
			<path class="st180" d="M342.7,1777.3c1.3,2.5,0.8,5.8-1.3,7.4c-2,1.6-4.8,0.9-6.1-1.5c-1.3-2.5-0.8-5.8,1.3-7.4
				C338.7,1774.1,341.4,1774.8,342.7,1777.3z"/>
			<path class="st180" d="M353.4,1768.8c1.3,2.5,0.8,5.8-1.3,7.4c-2,1.6-4.8,0.9-6.1-1.5c-1.3-2.5-0.8-5.8,1.3-7.4
				C349.3,1765.7,352,1766.4,353.4,1768.8z"/>
			<path class="st176" d="M276.9,1748.8c1.4,0.9,0.7,6-1.7,11.4s-5.4,9.1-6.8,8.2s-0.7-6,1.7-11.4
				C272.4,1751.6,275.5,1747.9,276.9,1748.8z"/>
			<polygon class="st181" points="311.8,1813.2 307.4,1813.7 303.9,1817.6 294.4,1784 300.3,1780.1 			"/>
			<path class="st182" d="M305,1799.1c0.9,0.9,1,2.5,0.2,3.5c-0.7,1-2,1.2-2.9,0.3c-0.9-0.9-1-2.5-0.2-3.5
				C302.8,1798.4,304.1,1798.2,305,1799.1z"/>
			<path class="st182" d="M307.7,1807c0.9,0.9,1,2.5,0.2,3.5c-0.7,1-2,1.2-2.9,0.3c-0.9-0.9-1-2.5-0.2-3.5
				C305.5,1806.2,306.8,1806.1,307.7,1807z"/>
			<path class="st182" d="M294.4,1784l-24.7-71.7c-0.8-2.3-1-4.8-0.6-7.2l0,0c0.3-2.1,1.1-4,2.2-5.7l2.5-3.7c0.9-1.3,2-2.4,3.2-3.2
				l3.2-2.1c1.6-1.1,3.5-1.6,5.3-1.5l0.5,0c1.7,0.1,3.3,0.6,4.8,1.6l1.2,0.8c1.5,1,2.7,2.4,3.6,4.1l2.4,4.5c0.3,0.5,0.5,1,0.7,1.6
				l8.9,23.2l-5.5,1.4l-8.2-21.7c-0.2-0.5-0.5-1-0.8-1.5l-2.1-3.2c-1.2-1.8-3-2.9-4.9-3l0,0c-1.3-0.1-2.6,0.4-3.8,1.2l-1.6,1.2
				c-0.8,0.6-1.5,1.4-2,2.4l-0.4,0.7c-0.8,1.5-1.2,3.2-1.1,5l0,0.5c0,0.8,0.2,1.7,0.4,2.4l22.6,69.8L294.4,1784z"/>
		</g>
	</g>
	<g id="pick2_x5F_buy">
		<rect x="610.5" y="1602.3" class="st241" width="485.1" height="635.2"/>
		<g id="btn-buy_x5F_pick2">
			<rect x="610.5" y="2117.2" class="st245" width="485.1" height="120.2"/>
			<rect x="675.3" y="2153.9" class="st246" width="355.5" height="85.5"/>
			<text transform="matrix(1 0 0 1 773.3141 2196.8418)" class="st247 st248 st249">BUY</text>
		</g>
		<rect x="639.5" y="1908.2" class="st246" width="437" height="96"/>
		<text transform="matrix(1 0 0 1 639.4703 1942.5397)" class="st247 st250 st251">Need: Str 3    </text>
		<rect x="639.5" y="2018.4" class="st246" width="437" height="96"/>
		<text transform="matrix(1 0 0 1 639.4703 2052.7532)"><tspan x="0" y="0" class="st247 st250 st251">Money:</tspan><tspan x="0" y="57.6" class="st247 st250 st251">150    </tspan></text>
		<g id="pick2-pick_1_">
			<path class="st195" d="M717.1,1873c-2.3-0.8-2.9-4.5-1-6.3L856,1735l42.6-43.8l25-23.8l4.3-1.3c1.2-0.4,2.4-0.4,3.6-0.1l2.2,0.6
				c1.7,0.4,3.1,2,3.5,4.1l0,0c0.3,1.3,0.3,2.6,0,3.8l-0.2,1.2c-0.5,2.5-1.5,4.7-3.1,6.4l-8.7,9.7l-15.2,13.2l-12.6,8.9
				c-6.2,4.4-12.1,9.2-17.8,14.5L725.8,1872c-2,1.9-4.6,2.4-7,1.6L717.1,1873z"/>
			<path class="st196" d="M928.2,1674.2l11.4,14.6c2.3,2.9,4.3,6.1,6.2,9.5l8.7,16c2.3,4.3,4.3,8.9,5.8,13.7l6.5,20.2
				c1.3,4,2.3,8.1,3.1,12.2l3.7,19.4c0.2,1-0.8,1.5-1.2,0.6l-9.9-20.5c-1.6-3.3-3.3-6.5-5-9.6l-10.5-18.7
				c-3.3-5.8-6.8-11.3-10.6-16.6l-7.8-10.8l-13.2-17.1l-5.9-6.5c-8.8-9.6-18.7-17.4-29.2-23.2l-6-3.3c-1.2-0.7-1.6-2.6-0.8-3.8
				l7.1-11.4c1.6-2.5,3.5-4.7,5.6-6.4l11.2-8.7c1-0.8,2.4-0.3,3,1.1l4.6,10.3c4.4,9.8,9.5,19.1,15.4,27.6L928.2,1674.2z"/>
		</g>
	</g>
	<g id="pick3_x5F_buy">
		<rect x="1095.6" y="1602.3" class="st241" width="485.1" height="635.2"/>
		<g id="btn-buy_x5F_pick3">
			<rect x="1095.6" y="2117.2" class="st245" width="485.1" height="120.2"/>
			<rect x="1160.4" y="2153.9" class="st246" width="355.5" height="85.5"/>
			<text transform="matrix(1 0 0 1 1258.4183 2196.8306)" class="st247 st248 st249">BUY</text>
		</g>
		<rect x="1124.6" y="1908.2" class="st246" width="437" height="96"/>
		<text transform="matrix(1 0 0 1 1124.5746 1942.5286)" class="st247 st250 st251">Need: Str 6    </text>
		<rect x="1124.6" y="2018.4" class="st246" width="437" height="96"/>
		<text transform="matrix(1 0 0 1 1124.5746 2052.7422)"><tspan x="0" y="0" class="st247 st250 st251">Money:</tspan><tspan x="0" y="57.6" class="st247 st250 st251">300    </tspan></text>
		<g id="pick3-pick_1_">
			<path class="st192" d="M1195.5,1870c-2.1-1.1-2.3-4.6-0.4-6.1l143.6-107l44-36.1l25.7-19.3l4.2-0.7c1.2-0.2,2.3-0.1,3.5,0.4
				l2.1,0.8c1.6,0.6,2.8,2.3,3,4.3l0,0c0.1,1.2,0,2.5-0.3,3.6l-0.3,1.1c-0.6,2.3-1.8,4.2-3.4,5.7l-9.1,8.1l-15.5,10.6l-12.7,6.8
				c-6.2,3.3-12.3,7.2-18.1,11.5l-157.9,116.6c-2,1.5-4.5,1.7-6.7,0.6L1195.5,1870z"/>
			<path class="st193" d="M1430.3,1736l-3.1-6.5c-2.5-5.1-5.3-10-8.6-14.5l-3.6-5c-0.8-1.1-1.4-2.3-1.9-3.7l-0.8-2.2
				c-3-7.9-6.6-15.5-10.8-22.6l-1.9-3.3c-3.4-5.8-7.3-11.3-11.6-16.2l-4.7-5.4c-4-4.6-8.2-8.8-12.8-12.5l-5.2-4.3
				c-2.8-2.3-5.7-4.5-8.8-6.4l-3.2-2c-4.4-2.8-9-4.9-13.7-6.5l0,0c-0.8-0.3-1.3,1.1-0.6,1.7l7.2,6.2c3.9,3.4,7.5,7.1,10.9,11.2
				l5.4,6.7c3.5,4.3,6.7,8.8,9.7,13.5l4.6,7.3c3.1,5,5.8,10.3,8,16l3.9,9.9c1.4,3.6,2.7,7.3,3.8,11.1l4.1,13.4
				c0.2,0.7,0.6,1.4,1.1,1.9l6.3,7.1c3,3.4,5.9,7.1,8.6,10.9l2.9,4.1c4.8,6.8,9,14.2,12.4,22.1l1.1,2.4c3,6.7,5.6,13.6,7.8,20.7
				l2.1,6.7c1.7,5.2,2.9,10.6,3.8,16.1l2.2,13.7c0.1,0.4,0.6,0.4,0.6,0l0,0c1.1-7.8,1.5-15.8,1.1-23.7l0-0.7
				c-0.2-4.6-0.6-9.1-1.3-13.6l-0.8-5.3c-1.1-7.6-2.7-15.1-4.8-22.4l-1.5-5.3C1436.1,1749.5,1433.4,1742.6,1430.3,1736z"/>
		</g>
	</g>
	<g id="perf_x5F_buy">
		<rect x="125" y="2237.5" class="st241" width="485.1" height="635.2"/>
		<g id="btn-buy_x5F_perf">
			<rect x="125" y="2752.4" class="st245" width="485.1" height="120.2"/>
			<rect x="189.8" y="2789.1" class="st246" width="355.5" height="85.5"/>
			<text transform="matrix(1 0 0 1 287.8348 2832.0291)" class="st247 st248 st249">BUY</text>
		</g>
		<rect x="154" y="2543.4" class="st246" width="437" height="96"/>
		<text transform="matrix(1 0 0 1 153.9913 2577.7268)"><tspan x="0" y="0" class="st247 st250 st251">Need: Str 7  </tspan><tspan x="0" y="57.6" class="st247 st250 st251">Agi 4    </tspan></text>
		<rect x="154" y="2653.6" class="st246" width="437" height="96"/>
		<text transform="matrix(1 0 0 1 153.9913 2687.9402)"><tspan x="0" y="0" class="st247 st250 st251">Money:</tspan><tspan x="0" y="57.6" class="st247 st250 st251">1000    </tspan></text>
		<g id="perforator-pick_1_">
			<path class="st215" d="M334.6,2358.7l-98.8,68c-0.3,0.2-0.7,0.5-0.9,0.9l-1.1,1.4c-0.3,0.4-0.5,0.8-0.7,1.3l-0.7,2
				c-0.2,0.5-0.3,1.1-0.3,1.7l0,0.4c0,0.9,0.1,1.8,0.5,2.6l0,0c0.3,0.7,0.8,1.3,1.5,1.8l0.4,0.3c0.5,0.3,1,0.5,1.5,0.6l1.3,0.2
				c0.1,0,0.3,0,0.4,0.1l1.3,0.4c0.6,0.2,1.2,0.5,1.7,1l0,0c0.6,0.6,1,1.5,1.1,2.4l0.6,3.2l-0.1,7.2l1.1,11.1l3.2,13l13.3,38
				c0.2,0.7,0.6,1.2,1.1,1.6l0,0c0.9,0.8,2.1,1.1,3.2,0.9l0.7-0.1c0.6-0.1,1.1-0.3,1.6-0.7l9.3-6.4c0.6-0.4,1.1-1,1.4-1.8l0,0
				c0.3-0.7,0.4-1.5,0.4-2.3l-0.1-2.8c0-0.6-0.1-1.2-0.3-1.7l-14.7-42.5c-0.2-0.6-0.3-1.3-0.2-2l0,0c0.2-1.5,0.7-2.9,1.6-4l0.8-1
				l9.5-6.3c0.5-0.3,0.9-0.5,1.4-0.7l6.2-2.1l13.6-4.4l17.5-8.5c0.7-0.3,1.3-0.7,1.9-1.1l20.2-14.3c1.2-0.9,2.3-1.8,3.4-2.9l4.4-4.5
				c3.8-3.9,6.7-8.9,8.4-14.6l0.1-0.2c0.4-1.3,0.6-2.7,0.6-4.1l0-0.8c0-1.8-0.4-3.6-1.1-5.2l-10.9-23.1c-0.3-0.6-0.7-1.2-1.3-1.5
				l-0.4-0.3c-0.3-0.2-0.6-0.4-1-0.4l0,0C336.2,2358.1,335.3,2358.2,334.6,2358.7z"/>
			<path class="st226" d="M293.2,2440.6l-6.9-48.6l48.4-33.3c0.7-0.5,1.6-0.7,2.4-0.5l0,0c0.3,0.1,0.7,0.2,1,0.4l0.4,0.3
				c0.5,0.4,1,0.9,1.3,1.5l11.3,24c0.5,1,0.7,2.1,0.7,3.3l0,2.6c0,0.9-0.1,1.8-0.4,2.6l-0.9,3c-1.3,4.3-3.5,8.1-6.4,11.1l-5.8,5.9
				c-1,1.1-2.2,2-3.4,2.9l-19.4,13.8c-1.2,0.8-2.4,1.5-3.6,2.1l-16.7,8.1L293.2,2440.6z"/>
			<polygon class="st227" points="236.2,2439.7 288,2404.1 287.5,2400.6 233,2438.1 235.1,2439.5 			"/>
			<path class="st226" d="M242.2,2446.9l3.5,13.8c0.4,1.7,0.9,3.3,1.5,4.9l3.4,9.1c1.3,3.4,3,6.5,5.1,9.2l1.5,2
				c1.3,1.6,2.9,2.8,4.6,3.4l2.5,0.8c1.2,0.4,2.4,0.5,3.5,0.5l4.6-0.2l4.3,12.4c0.2,0.6,0.3,1.3,0.4,1.9l0.1,2.9
				c0,0.6-0.1,1.3-0.3,1.9l-0.1,0.4c-0.3,0.7-0.7,1.2-1.2,1.6l-9.3,6.4c-0.5,0.4-1.1,0.6-1.8,0.7l-1.2,0.2c-0.7,0.1-1.4-0.1-2-0.5
				l-0.5-0.4c-0.6-0.5-1-1.1-1.3-1.8l-12.5-35.6c-0.5-1.5-1-3-1.3-4.5l-1.9-7.6c-0.5-2.1-0.9-4.2-1.1-6.3l-0.7-6.7
				c-0.1-0.8-0.1-1.6-0.1-2.5L242.2,2446.9z"/>
			<path class="st228" d="M254.7,2464.9c0.7,1.5,2.3,2,3.5,1.2c1.2-0.8,1.7-2.7,1-4.2c-0.7-1.5-2.3-2-3.5-1.2
				C254.5,2461.5,254,2463.4,254.7,2464.9z"/>
			<path class="st226" d="M262.1,2458.2l0.1-0.4c0.1-1,0.5-2,1.1-2.8l0.8-1.1c0.2-0.3,0.5-0.5,0.7-0.7l4.4-2.9l-2,2.1
				c-0.8,0.8-1.3,2-1.4,3.3l0,0.7c0,0.6,0,1.3,0.3,1.9l4.1,11.9c0.2,0.7,0.3,1.4,0.1,2.1l0,0c-0.1,0.5-0.4,0.9-0.8,1.2l-1.2,0.8
				c-0.4,0.3-1,0.1-1.2-0.5l-4.6-13.3C262,2459.9,261.9,2459,262.1,2458.2z"/>
			<path class="st230" d="M257.4,2446.7l4.5-3.1c1-0.7,1.4-2.3,0.8-3.6l-3.8-8.1c-0.6-1.3-1.9-1.7-3-1l-4.5,3.1
				c-1,0.7-1.4,2.3-0.8,3.6l3.8,8.1C255,2447,256.3,2447.4,257.4,2446.7z"/>
			<path class="st215" d="M256.7,2445l4.4-3c0.7-0.5,1-1.6,0.6-2.5l0,0c-0.4-0.9-1.3-1.2-2-0.7l-4.4,3c-0.7,0.5-1,1.6-0.6,2.5l0,0
				C255.1,2445.2,256,2445.5,256.7,2445z"/>
			<path class="st231" d="M315.8,2404.3c3.2,6.8,10.3,9.2,16,5.3c5.6-3.9,7.6-12.5,4.4-19.3s-10.3-9.2-16-5.3
				S312.6,2397.6,315.8,2404.3z"/>
			<path class="st230" d="M329,2408.4l3.4-2.3c0.6-0.4,0.8-1.4,0.5-2.2l-8.2-17.4c-0.4-0.8-1.2-1-1.8-0.6l-3.4,2.3
				c-0.6,0.4-0.8,1.4-0.5,2.2l8.2,17.4C327.6,2408.6,328.4,2408.9,329,2408.4z"/>
			<polygon class="st231" points="346,2355.1 339.3,2359.7 351.1,2384.7 357.7,2380.1 			"/>
			<polygon class="st226" points="350.4,2353.6 346.6,2356.3 357.3,2379.2 361.2,2376.5 			"/>
			<polygon class="st231" points="359.8,2346 350,2352.8 361.6,2377.3 371.4,2370.6 			"/>
			<polygon class="st230" points="371.4,2370.6 373.1,2363.8 365.6,2348 359.8,2346 			"/>
			<polygon class="st226" points="373.1,2363.8 383.9,2353.7 384.7,2351 380.7,2342.3 378.5,2342.2 365.6,2348 			"/>
			<polygon class="st224" points="391,2344.8 384.2,2349.6 381.2,2343.6 388,2338.8 			"/>
			<path class="st225" d="M503,2262.1l-7.5,10.8c-0.7,1-1.6,1.9-2.6,2.6l-92.8,65.7c-2.8,2-6,3.2-9.2,3.6l0,0l-2.9-6l0,0
				c1.9-3.3,4.4-6,7.3-8.1l92.6-65.6c1-0.7,2.1-1.2,3.2-1.4l11.4-2.6C502.9,2261,503.3,2261.7,503,2262.1z"/>
		</g>
	</g>
	<g id="perf2_x5F_buy">
		<rect x="610.5" y="2237.4" class="st241" width="485.1" height="635.2"/>
		<g id="btn-buy_x5F_perf2">
			<rect x="610.5" y="2752.3" class="st245" width="485.1" height="120.2"/>
			<rect x="675.3" y="2788.9" class="st246" width="355.5" height="85.5"/>
			<text transform="matrix(1 0 0 1 773.3141 2831.8875)" class="st247 st248 st249">BUY</text>
		</g>
		<rect x="639.5" y="2543.2" class="st246" width="437" height="96"/>
		<text transform="matrix(1 0 0 1 639.4703 2577.5852)"><tspan x="0" y="0" class="st247 st250 st251">Need: Str 10  </tspan><tspan x="0" y="57.6" class="st247 st250 st251">Agi 8    </tspan></text>
		<rect x="639.5" y="2653.4" class="st246" width="437" height="96"/>
		<text transform="matrix(1 0 0 1 639.4703 2687.7986)"><tspan x="0" y="0" class="st247 st250 st251">Money:</tspan><tspan x="0" y="57.6" class="st247 st250 st251">1700    </tspan></text>
		<g id="perf2-pick_1_">
			<path class="st215" d="M713.9,2479.5c0.8,2.5,1.8,4.8,2.9,7.1l2.9,5.9c0.7,1.5,1.5,2.9,2.4,4.3l2.7,4.4c2.1,3.4,4.5,6.5,7.1,9.2
				l0.8,0.8c2.5,2.5,5.5,4.1,8.6,4.5c2.4,0.4,4.9,0.1,7.2-0.9l3.3-1.3c1.1-0.5,2.3-1.1,3.3-1.8l22.9-16.4l3.1-0.6l2.2,0.9l12,16.8
				c0.2,0.2,0.4,0.5,0.6,0.7c1.1,1,2.5,1,3.6,0.2l38.1-27.4c0.5-0.3,0.6-1.1,0.3-1.7l0,0c0.1-0.4,0.2-0.9,0.2-1.3l0-0.1
				c0-1-0.2-1.9-0.6-2.7l-28.4-57.8l1.8-16l3.1-2.3c1.1-0.8,1.5-2.5,0.8-3.9l-14-27.9c-0.7-1.3-2.1-1.8-3.2-0.9l-92.8,71.1
				c-0.5,0.4-0.9,0.8-1.2,1.3l-1,1.5c-0.2,0.3-0.4,0.7-0.6,1.1l-0.9,2c-0.4,0.9-0.6,2-0.6,3.1l0,0.1c0,1.2,0.3,2.3,0.8,3.3
				c0.5,1,1.2,1.8,2,2.3l4,2.7l2,2.1l1.3,2.6l0.1,0.8c0.5,4.3,1.4,8.6,2.8,12.6L713.9,2479.5z M730.1,2472.2l-2.1-5.5
				c-0.2-0.5-0.3-1-0.5-1.5l-1.1-4.4c-0.2-0.8-0.3-1.7-0.3-2.6l-0.1-2c0-0.7,0-1.3,0.1-1.9l0.1-1.2c0.1-1.2,0.5-2.3,0.9-3.4l0,0
				c0.6-1.3,1.4-2.5,2.3-3.4l1.5-1.4c0.3-0.3,0.6-0.6,1-0.8l8.9-6.4l5.9,0.8c0.9,0.1,1.7,0.7,2.1,1.7l0.1,0.3
				c0.3,0.6,0.4,1.2,0.4,1.9l-0.1,2.2c-0.1,2.6,0.4,5.3,1.6,7.5l14.8,30.1l-15.2,10.9c-0.2,0.2-0.5,0.3-0.8,0.4l-2.6,1.1
				c-1.1,0.4-2.2,0.4-3.2-0.2c-0.4-0.2-0.7-0.5-1.1-0.8l-2-2.1c-0.2-0.2-0.4-0.5-0.6-0.7l-4.4-6.7L730.1,2472.2z"/>
			<path class="st216" d="M730.1,2470.4l-2.1,0.9c-1.1,0.5-2.3,0.5-3.4,0l-0.4-0.2c-1-0.4-1.9-1.1-2.5-2.1l-3-4.5
				c-0.9-1.4-2.1-2.6-3.4-3.4l-1.8-1.2c-1.2-0.8-2.1-1.9-2.8-3.2l-0.9-1.7c-0.5-1.1-0.9-2.3-1-3.5l-1-11.1l-2.8,2.1
				c-0.5,0.4-0.9,0.8-1.2,1.3l-1,1.5c-0.2,0.3-0.4,0.7-0.6,1.1l-0.9,2c-0.4,0.9-0.6,2-0.6,3.1l0,0.1c0,1.2,0.3,2.3,0.8,3.3l0,0
				c0.5,1,1.2,1.8,2,2.3l3.4,2.3c0.4,0.3,0.8,0.6,1.1,1l0.6,0.7c0.6,0.6,1.1,1.3,1.4,2.1l0.5,0.9c0.2,0.3,0.3,0.7,0.3,1.1l0,0
				c0.5,4.5,1.5,8.8,2.9,13l0.4,1.1c0.8,2.5,1.9,5,3,7.3l2.8,5.7c0.8,1.5,1.6,3,2.4,4.4l5.3,8.6c0.3,0.4,0.8,0.5,1.2,0.2l13.3-13.2
				l-1.2-1.3l-4.4-6.7c-0.2-0.2-0.3-0.5-0.4-0.8l-4.9-10c-0.5-1-1.3-3.1-1.3-3.1L730.1,2470.4z"/>
			<path class="st216" d="M771.9,2499.7l-5.5-11.2c-0.2-0.5,0-1.1,0.4-1.2l16.1-3.5c3.9-0.8,7.6-2.5,11-4.9l32.1-22.5l11.6,23.6
				c0.4,0.8,0.6,1.8,0.6,2.7l0,0.1c0,0.4-0.1,0.9-0.2,1.3l0,0c-0.3,1.1-0.9,2.1-1.8,2.7l-36.7,26.3c-0.7,0.5-1.5,0.7-2.2,0.5l0,0
				c-0.8-0.2-1.5-0.6-2-1.3l-11.2-15.6c-0.5-0.8-1.3-1.3-2-1.6l0,0c-0.7-0.3-1.4-0.3-2.1-0.2l-1.2,0.2c-0.6,0.1-1.1,0.3-1.6,0.7
				L771.9,2499.7z"/>
			<path class="st217" d="M823.9,2472.5l1.7-1.2c0.6-0.5,1.5-0.2,1.8,0.6l7,14.3c0.4,0.8,0.2,1.8-0.5,2.2l-1.7,1.2
				c-0.6,0.5-1.5,0.2-1.8-0.6l-7-14.3C823.1,2474,823.3,2473,823.9,2472.5z"/>
			<path class="st217" d="M817.5,2477.1l2-1.4c0.6-0.4,1.3-0.2,1.6,0.5l7.2,14.7c0.3,0.7,0.1,1.5-0.4,1.9l-2,1.4
				c-0.6,0.4-1.3,0.2-1.6-0.5l-7.2-14.7C816.8,2478.4,817,2477.5,817.5,2477.1z"/>
			<path class="st217" d="M811.5,2481.4l1.7-1.2c0.6-0.5,1.5-0.2,1.8,0.6l7,14.3c0.4,0.8,0.2,1.8-0.5,2.2l-1.7,1.2
				c-0.6,0.5-1.5,0.2-1.8-0.6l-7-14.3C810.7,2482.9,810.9,2481.9,811.5,2481.4z"/>
			<path class="st217" d="M805.4,2485.8l1.9-1.3c0.6-0.4,1.4-0.2,1.7,0.5l7.1,14.5c0.3,0.7,0.2,1.6-0.4,2.1l-1.9,1.3
				c-0.6,0.4-1.4,0.2-1.7-0.5l-7.1-14.5C804.6,2487.2,804.8,2486.2,805.4,2485.8z"/>
			<path class="st217" d="M799.2,2490.3l2.2-1.6c0.5-0.4,1.1-0.2,1.4,0.4l7.4,15c0.3,0.6,0.1,1.4-0.4,1.7l-2.2,1.6
				c-0.5,0.4-1.1,0.2-1.4-0.4l-7.4-15C798.6,2491.4,798.7,2490.6,799.2,2490.3z"/>
			<path class="st217" d="M793.3,2494.5l2.1-1.5c0.5-0.4,1.2-0.2,1.6,0.5l7.2,14.8c0.3,0.7,0.1,1.5-0.4,1.9l-2.1,1.5
				c-0.5,0.4-1.2,0.2-1.6-0.5l-7.2-14.8C792.6,2495.8,792.8,2494.9,793.3,2494.5z"/>
			<path class="st218" d="M757.4,2465.2l53.9-38.7l-2.1-4.2l1.8-16l3.4-2.4c1-0.7,1.3-2.3,0.7-3.5l-14.3-28.4
				c-0.6-1.2-1.9-1.6-2.9-0.8l-64.8,49.6l7.8,16.9l6.1,0.9c0.7,0.1,1.4,0.6,1.8,1.4l0.3,0.7c0.2,0.5,0.4,1,0.3,1.6l-0.1,2.9
				c-0.1,2.3,0.4,4.6,1.4,6.6L757.4,2465.2z"/>
			<polygon class="st219" points="827.3,2391.9 815.2,2400.6 800.6,2371.5 813,2362.6 			"/>
			<path class="st220" d="M829.1,2391.5l4.6-3.3c1.9-1.4,2.5-4.4,1.4-6.7l-11-22.5c-1.1-2.3-3.6-3.1-5.5-1.7l-4.6,3.3
				c-0.8,0.6-1.1,1.8-0.6,2.8l13.4,27.4C827.3,2391.8,828.3,2392.1,829.1,2391.5z"/>
			<polygon class="st219" points="850.2,2369.8 834.8,2380.9 824.3,2359.6 839.7,2348.5 			"/>
			<path class="st215" d="M862.9,2363.2l-9.9,7.1c-1.1,0.8-2.5,0.3-3.1-1l-10.2-20.8c-0.6-1.3-0.3-3,0.8-3.8l9.9-7.1L862.9,2363.2z"
				/>
			<path class="st219" d="M863.6,2359.1l-2,1.4l-9.3-19l2.2-1.6c2.4-1.7,5.4-0.8,6.8,2.1l4.1,8.4
				C866.9,2353.5,866.1,2357.3,863.6,2359.1z"/>
			<path class="st221" d="M863.3,2363l-0.3,0.2l-12.5-25.5l0.1-0.1c1.6-1.1,3.6-0.5,4.5,1.4l9.3,19
				C865.2,2359.8,864.7,2362,863.3,2363z"/>
			<path class="st222" d="M797.3,2396.9c3.8,7.4,1.9,17-4.2,21.6s-14.1,2.3-17.8-5.1c-3.8-7.4-1.9-17,4.2-21.6
				S793.5,2389.6,797.3,2396.9z"/>
			<path class="st223" d="M793.6,2414.6l-3.9,2.9c-0.6,0.5-1.4,0.2-1.8-0.5l-9.8-19.2c-0.4-0.7-0.2-1.7,0.4-2.2l3.9-2.9
				c0.6-0.5,1.4-0.2,1.8,0.5l9.8,19.2C794.4,2413.2,794.2,2414.1,793.6,2414.6z"/>
			<path class="st221" d="M843.3,2348.8l6.9-5c0.6-0.4,0.7-1.3,0.4-2l0-0.1c-0.3-0.7-1.1-0.9-1.6-0.5l-6.9,5c-0.6,0.4-0.7,1.3-0.4,2
				l0,0.1C842,2349,842.7,2349.2,843.3,2348.8z"/>
			<path class="st221" d="M845.2,2352.8l6.9-5c0.6-0.4,0.7-1.3,0.4-2l0-0.1c-0.3-0.7-1.1-0.9-1.6-0.5l-6.9,5c-0.6,0.4-0.7,1.3-0.4,2
				l0,0.1C844,2353,844.7,2353.2,845.2,2352.8z"/>
			<path class="st221" d="M847.2,2356.9l6.9-5c0.6-0.4,0.7-1.3,0.4-2l0-0.1c-0.3-0.7-1.1-0.9-1.6-0.5l-6.9,5c-0.6,0.4-0.7,1.3-0.4,2
				l0,0.1C845.9,2357.1,846.6,2357.3,847.2,2356.9z"/>
			<path class="st221" d="M849.1,2361l6.9-5c0.6-0.4,0.7-1.3,0.4-2l0-0.1c-0.3-0.7-1.1-0.9-1.6-0.5l-6.9,5c-0.6,0.4-0.7,1.3-0.4,2
				l0,0.1C847.9,2361.1,848.6,2361.4,849.1,2361z"/>
			<path class="st221" d="M851.2,2364.9l6.9-5c0.6-0.4,0.7-1.3,0.4-2l0-0.1c-0.3-0.7-1.1-0.9-1.6-0.5l-6.9,5c-0.6,0.4-0.7,1.3-0.4,2
				l0,0.1C849.9,2365.1,850.6,2365.4,851.2,2364.9z"/>
			<path class="st221" d="M853.2,2369l6.9-5c0.6-0.4,0.7-1.3,0.4-2l0-0.1c-0.3-0.7-1.1-0.9-1.6-0.5l-6.9,5c-0.6,0.4-0.7,1.3-0.4,2
				l0,0.1C851.9,2369.2,852.6,2369.4,853.2,2369z"/>
			<polygon class="st224" points="872.6,2345.6 865.5,2350.7 861,2341.7 868.1,2336.6 			"/>
			<path class="st225" d="M987.7,2257.2l-6.7,13.2c-0.7,1.3-1.5,2.3-2.5,3l-95.8,69.4c-2.9,2.1-6.4,3.1-10,2.8l0,0l-4.5-9l0,0
				c1.6-4.1,4-7.3,7-9.5l95.7-69.2c1-0.7,2.2-1.2,3.4-1.2l12.7-0.9C987.5,2255.6,988,2256.6,987.7,2257.2z"/>
		</g>
	</g>
	<g id="wood_x5F_buy">
		<rect x="125.2" y="436.6" class="st241" width="727.7" height="529.5"/>
		<path id="minus-wood_x5F_buy" class="st245" d="M550.7,633.8h-88c-5.5,0-10-4.5-10-10v-13c0-5.5,4.5-10,10-10h88
			c5.5,0,10,4.5,10,10v13C560.7,629.4,556.2,633.8,550.7,633.8z"/>
		<path id="plus-wood_x5F_buy" class="st245" d="M754.7,600.8h-27.5v-27.5c0-5.5-4.5-10-10-10h-13c-5.5,0-10,4.5-10,10v27.5h-27.5
			c-5.5,0-10,4.5-10,10v13c0,5.5,4.5,10,10,10h27.5v27.5c0,5.5,4.5,10,10,10h13c5.5,0,10-4.5,10-10v-27.5h27.5c5.5,0,10-4.5,10-10
			v-13C764.7,605.3,760.2,600.8,754.7,600.8z"/>
		<g id="wood-pick">
			<circle class="st252" cx="238.7" cy="611.8" r="56.7"/>
			<circle class="st253" cx="238.7" cy="611.8" r="41"/>
			<circle class="st253" cx="238.7" cy="611.8" r="23.3"/>
			<circle class="st254" cx="238.7" cy="611.8" r="9.5"/>
			<path class="st255" d="M215.2,560.1L326.3,503c3-1.5,6.3-2.3,9.6-2.3h6.4c3.3,0,6.5,0.8,9.4,2.2l4,2c3.1,1.6,5.8,3.8,7.8,6.7
				l1,1.4c2.5,3.5,3.8,7.8,3.8,12.1v2c0,4.6-1.5,9-4.2,12.6l-80.4,106.8l8.1-14.5l3.7-11.9l-0.3-13.9l-3.4-14.5l-6.2-11.9
				l-11.9-12.7l-14.2-8.1l-16.5-3.9l-13.9,0.8L215.2,560.1z"/>
		</g>
		<rect x="431.6" y="475.7" class="st246" width="357" height="67.5"/>
		<text id="quantity-wood-buy" transform="matrix(1 0 0 1 593.4523 518.666)" class="st247 st248 st256">1</text>
		<g id="btn-buy_x5F_wood">
			<rect x="125.3" y="845.9" class="st245" width="727.7" height="120.2"/>
			<rect x="311.4" y="882.6" class="st246" width="355.5" height="85.5"/>
			<text transform="matrix(1 0 0 1 409.432 925.5782)" class="st247 st248 st249">BUY</text>
		</g>
		<rect x="167.2" y="700.4" class="st246" width="644" height="136"/>
		<text id="money-wood_x5F_buy" transform="matrix(1 0 0 1 167.1788 743.3916)"><tspan x="0" y="0" class="st247 st248 st256">Money:</tspan><tspan x="0" y="72" class="st247 st248 st256">6</tspan></text>
	</g>
	<g id="stone_x5F_buy">
		<rect x="852.9" y="436.6" class="st241" width="727.7" height="529.5"/>
		<path id="minus-stone_x5F_buy" class="st245" d="M1278.4,633.8h-88c-5.5,0-10-4.5-10-10v-13c0-5.5,4.5-10,10-10h88
			c5.5,0,10,4.5,10,10v13C1288.4,629.4,1283.9,633.8,1278.4,633.8z"/>
		<path id="plus-stone_x5F_buy" class="st245" d="M1482.4,600.8h-27.5v-27.5c0-5.5-4.5-10-10-10h-13c-5.5,0-10,4.5-10,10v27.5h-27.5
			c-5.5,0-10,4.5-10,10v13c0,5.5,4.5,10,10,10h27.5v27.5c0,5.5,4.5,10,10,10h13c5.5,0,10-4.5,10-10v-27.5h27.5c5.5,0,10-4.5,10-10
			v-13C1492.4,605.3,1487.9,600.8,1482.4,600.8z"/>
		<g id="stone-pick">
			<path class="st257" d="M910.8,644.6l5-28c1.6-9,4.5-17.7,8.7-25.9l12.1-23.6c7.5-14.6,19.2-26.7,33.5-34.6l22.2-12.3
				c9.4-5.2,20.3-7.3,31-6l24.2,2.9c11.2,1.4,21.6,6.4,29.6,14.3l7.9,7.9c8.4,8.3,13.1,19.7,13.1,31.5v68.6l-18.4,7.8
				c-18,7.6-37.2,12.2-56.8,13.4l-33.8,2.1c-22.4,1.4-44.7-2.8-65.1-12.1L910.8,644.6z"/>
			<path class="st258" d="M999.8,525.3l-25.2,14.6c-9.3,5.4-17.1,13.3-22.3,22.8l-15.6,28.1c-3,5.4-5.2,11.1-6.5,17.1l-5.8,25.7
				l18,10.1c7.7,4.3,16.5,6.6,25.3,6.6h11.1v-41.5c0-9.1,2.1-18,6.1-26.2l9.3-18.9c2.6-5.4,6.2-10.4,10.4-14.6l30.3-30.4h-10.3
				C1015.8,518.6,1007.3,520.9,999.8,525.3z"/>
		</g>
		<rect x="1159.3" y="475.7" class="st246" width="357" height="67.5"/>
		<text id="quantity-stone-buy" transform="matrix(1 0 0 1 1321.1085 518.666)" class="st247 st248 st256">1</text>
		<g id="btn-buy_x5F_stone">
			<rect x="853" y="845.9" class="st245" width="727.7" height="120.2"/>
			<rect x="1039" y="882.6" class="st246" width="355.5" height="85.5"/>
			<text transform="matrix(1 0 0 1 1137.0884 925.5782)" class="st247 st248 st249">BUY</text>
		</g>
		<rect x="894.8" y="700.4" class="st246" width="644" height="136"/>
		<text id="money-stone_x5F_buy" transform="matrix(1 0 0 1 894.8351 743.3916)"><tspan x="0" y="0" class="st247 st248 st256">Money:</tspan><tspan x="0" y="72" class="st247 st248 st256">6</tspan></text>
	</g>
</g>
<g id="menu_x5F_sell">
	<g id="wood_x5F_sell">
		<rect x="125.1" y="436.6" class="st241" width="727.7" height="529.5"/>
		<path id="minus-wood_x5F_sell" class="st259" d="M550.6,633.8h-88c-5.5,0-10-4.5-10-10v-13c0-5.5,4.5-10,10-10h88
			c5.5,0,10,4.5,10,10v13C560.6,629.4,556.1,633.8,550.6,633.8z"/>
		<path id="plus-wood_x5F_sell" class="st259" d="M754.6,600.8h-27.5v-27.5c0-5.5-4.5-10-10-10h-13c-5.5,0-10,4.5-10,10v27.5h-27.5
			c-5.5,0-10,4.5-10,10v13c0,5.5,4.5,10,10,10h27.5v27.5c0,5.5,4.5,10,10,10h13c5.5,0,10-4.5,10-10v-27.5h27.5c5.5,0,10-4.5,10-10
			v-13C764.6,605.3,760.1,600.8,754.6,600.8z"/>
		<g id="wood-pick_1_">
			<circle class="st252" cx="238.5" cy="611.8" r="56.7"/>
			<circle class="st253" cx="238.5" cy="611.8" r="41"/>
			<circle class="st253" cx="238.5" cy="611.8" r="23.3"/>
			<circle class="st254" cx="238.5" cy="611.8" r="9.5"/>
			<path class="st255" d="M215.1,560.1L326.2,503c3-1.5,6.3-2.3,9.6-2.3h6.4c3.3,0,6.5,0.8,9.4,2.2l4,2c3.1,1.6,5.8,3.8,7.8,6.7
				l1,1.4c2.5,3.5,3.8,7.8,3.8,12.1v2c0,4.6-1.5,9-4.2,12.6l-80.4,106.8l8.1-14.5l3.7-11.9l-0.3-13.9l-3.4-14.5l-6.2-11.9
				l-11.9-12.7l-14.2-8.1l-16.5-3.9l-13.9,0.8L215.1,560.1z"/>
		</g>
		<rect x="431.5" y="475.7" class="st246" width="357" height="67.5"/>
		<text id="quantity-wood-sell" transform="matrix(1 0 0 1 593.3273 518.6661)" class="st247 st248 st256">1</text>
		<g id="btn-sell_x5F_wood">
			<rect x="125.2" y="845.9" class="st259" width="727.7" height="120.2"/>
			<rect x="311.3" y="882.6" class="st246" width="355.5" height="85.5"/>
			<text transform="matrix(1 0 0 1 388.6029 925.5781)" class="st247 st248 st249">SELL</text>
		</g>
		<rect x="167.1" y="700.4" class="st246" width="644" height="136"/>
		<text id="money-wood_x5F_sell" transform="matrix(1 0 0 1 167.0538 743.3917)"><tspan x="0" y="0" class="st247 st248 st256">Money:</tspan><tspan x="0" y="72" class="st247 st248 st256">3</tspan></text>
	</g>
	<g id="stone_x5F_sell">
		<rect x="852.7" y="436.6" class="st241" width="727.7" height="529.5"/>
		<path id="minus-stone_x5F_sell" class="st259" d="M1278.2,633.8h-88c-5.5,0-10-4.5-10-10v-13c0-5.5,4.5-10,10-10h88
			c5.5,0,10,4.5,10,10v13C1288.2,629.4,1283.8,633.8,1278.2,633.8z"/>
		<path id="plus-stone_x5F_sell" class="st259" d="M1482.2,600.8h-27.5v-27.5c0-5.5-4.5-10-10-10h-13c-5.5,0-10,4.5-10,10v27.5
			h-27.5c-5.5,0-10,4.5-10,10v13c0,5.5,4.5,10,10,10h27.5v27.5c0,5.5,4.5,10,10,10h13c5.5,0,10-4.5,10-10v-27.5h27.5
			c5.5,0,10-4.5,10-10v-13C1492.2,605.3,1487.8,600.8,1482.2,600.8z"/>
		<g id="stone-pick_1_">
			<path class="st257" d="M910.7,644.6l5-28c1.6-9,4.5-17.7,8.7-25.9l12.1-23.6c7.5-14.6,19.2-26.7,33.5-34.6l22.2-12.3
				c9.4-5.2,20.3-7.3,31-6l24.2,2.9c11.2,1.4,21.6,6.4,29.6,14.3l7.9,7.9c8.4,8.3,13.1,19.7,13.1,31.5v68.6l-18.4,7.8
				c-18,7.6-37.2,12.2-56.8,13.4l-33.8,2.1c-22.4,1.4-44.7-2.8-65.1-12.1L910.7,644.6z"/>
			<path class="st258" d="M999.6,525.3l-25.2,14.6c-9.3,5.4-17.1,13.3-22.3,22.8l-15.6,28.1c-3,5.4-5.2,11.1-6.5,17.1l-5.8,25.7
				l18,10.1c7.7,4.3,16.5,6.6,25.3,6.6h11.1v-41.5c0-9.1,2.1-18,6.1-26.2l9.3-18.9c2.6-5.4,6.2-10.4,10.4-14.6l30.3-30.4h-10.3
				C1015.7,518.6,1007.2,520.9,999.6,525.3z"/>
		</g>
		<rect x="1159.2" y="475.7" class="st246" width="357" height="67.5"/>
		<text id="quantity-stone-sell" transform="matrix(1 0 0 1 1320.9833 518.6661)" class="st247 st248 st256">1</text>
		<g id="btn-sell_x5F_stone">
			<rect x="852.9" y="845.9" class="st259" width="727.7" height="120.2"/>
			<rect x="1038.9" y="882.6" class="st246" width="355.5" height="85.5"/>
			<text transform="matrix(1 0 0 1 1116.2593 925.5781)" class="st247 st248 st249">SELL</text>
		</g>
		<rect x="894.7" y="700.4" class="st246" width="644" height="136"/>
		<text id="money-stone_x5F_sell" transform="matrix(1 0 0 1 894.7098 743.3917)"><tspan x="0" y="0" class="st247 st248 st256">Money:</tspan><tspan x="0" y="72" class="st247 st248 st256">3</tspan></text>
	</g>
</g>
<g id="menu">
	<g id="btn-buy_x5F_menu">
		<path class="st245" d="M1580.5,436.6H852.9V247.7h687c22.5,0,40.7,18.2,40.7,40.7V436.6z"/>
		<rect x="1030.3" y="318.8" class="st246" width="355.5" height="85.5"/>
		<text transform="matrix(1 0 0 1 1103.2035 370.313)" class="st260 st261 st262">BUY</text>
	</g>
	<g id="btn-sell_x5F_menu">
		<path class="st259" d="M852.9,436.6H125.2V288.4c0-22.4,18.2-40.6,40.6-40.6h687V436.6z"/>
		<rect x="303.6" y="318.8" class="st246" width="355.5" height="85.5"/>
		<text transform="matrix(1 0 0 1 346.1216 370.313)" class="st260 st261 st262">SELL</text>
	</g>
	<g id="btn-close_x5F_menu">
		<path class="st263" d="M727,196H235.6c-22.6,0-41-18.3-41-41V107c0-22.6,18.3-41,41-41H727c22.6,0,41,18.3,41,41V155
			C768,177.7,749.7,196,727,196z"/>
		<rect x="336.9" y="107.3" class="st246" width="310" height="56"/>
		<text transform="matrix(1 0 0 1 336.9017 150.2928)" class="st247 st248 st256">CLOSE</text>
	</g>
	<g id="btn-premium_x5F_menu">
		<path class="st264" d="M1543.1,227.3H890.5c-20.8,0-37.6-16.8-37.6-37.6V74.4c0-20.8,16.8-37.6,37.6-37.6h652.6
			c20.8,0,37.6,16.8,37.6,37.6v115.2C1580.7,210.4,1563.9,227.3,1543.1,227.3z"/>
		<rect x="919.2" y="103.3" class="st246" width="598" height="96"/>
		<text transform="matrix(1 0 0 1 994.1808 154.8846)" class="st260 st261 st249">PREMIUM</text>
	</g>
</g>
</svg>
