<?xml version="1.0" encoding="utf-8"?>
<!-- Generator: Adobe Illustrator 21.1.0, SVG Export Plug-In . SVG Version: 6.00 Build 0)  -->
<svg version="1.1" id="game" xmlns="http://www.w3.org/2000/svg" xmlns:xlink="http://www.w3.org/1999/xlink" x="0px" y="0px"
	 viewBox="0 0 1668 2224" style="enable-background:new 0 0 1668 2224;" xml:space="preserve">
<style type="text/css">
	.st0{fill:url(#gradient4_1_);}
	.st1{fill:url(#gradient5_1_);}
	.st2{fill:#66E2FF;}
	.st3{fill:none;stroke:#B28052;stroke-miterlimit:10;}
	.st4{fill:#96735C;}
	.st5{fill:#825D49;stroke:#BF8A5E;stroke-miterlimit:10;}
	.st6{fill:#AD7D5C;stroke:#B28052;stroke-miterlimit:10;}
	.st7{fill:#BC8864;stroke:#B28052;stroke-miterlimit:10;}
	.st8{fill:#A37B61;}
	.st9{fill:#BC8866;}
	.st10{fill:#E0A57E;stroke:#B28052;stroke-miterlimit:10;}
	.st11{fill:#D19A7C;stroke:#B28052;stroke-miterlimit:10;}
	.st12{fill:#F4DBCE;}
	.st13{fill:#DBC7BF;}
	.st14{fill:#8E684F;stroke:#BF8A5E;stroke-miterlimit:10;}
	.st15{fill:#AD753E;}
	.st16{fill:#966636;}
	.st17{fill:#A87339;}
	.st18{fill:#BC8651;}
	.st19{fill:#AA7A4F;}
	.st20{fill:#C99465;}
	.st21{fill:none;stroke:#634B2A;stroke-miterlimit:10;}
	.st22{fill:#B28052;}
	.st23{fill:#96674D;stroke:#A57758;stroke-width:3;stroke-miterlimit:10;}
	.st24{fill:none;stroke:#A57758;stroke-width:3;stroke-miterlimit:10;}
	.st25{fill:#5C7552;}
	.st26{fill:#E2CA96;}
	.st27{fill:#6F8763;}
	.st28{fill:#EAD7A2;}
	.st29{fill:#F9F2EF;}
	.st30{fill:#382C26;}
	.st31{fill:#936F5F;}
	.st32{fill:#7C655C;}
	.st33{fill:#F9A182;}
	.st34{fill:#DBC697;}
	.st35{fill:#8C7857;}
	.st36{fill:#635872;}
	.st37{fill:#6B7F60;}
	.st38{fill:#755D3F;}
	.st39{fill:#C9B8A7;}
	.st40{fill:#00CFFF;}
	.st41{fill:#03CDE2;}
	.st42{fill:#00DBFF;}
	.st43{fill:#00E7FF;}
	.st44{fill:#00F3FF;}
	.st45{fill:#2EFFF9;}
	.st46{fill:#78FFF8;}
	.st47{fill:#FFF0BF;}
	.st48{fill:#F7E4A6;}
	.st49{fill:#BCCC60;}
	.st50{fill:url(#sea_1_);}
	.st51{fill:#98958C;}
	.st52{fill:#ACA7A1;}
	.st53{fill:#C2BEB5;}
	.st54{fill:#D6C8A3;}
	.st55{fill:#D3C7A7;}
	.st56{fill:#DBCDAF;}
	.st57{fill:#ADA8A2;}
	.st58{fill:#99968D;}
	.st59{fill:#C2BDB3;}
	.st60{fill:#8D8880;}
	.st61{fill:#D3CAB2;}
	.st62{fill:#8B877E;}
	.st63{fill:#9B988F;}
	.st64{fill:#B9B2AA;}
	.st65{fill:#C3BFB6;}
	.st66{fill:#DDCFAF;}
	.st67{fill:#CCBFA6;}
	.st68{fill:#CED18B;}
	.st69{fill:#99968B;}
	.st70{fill:#969089;}
	.st71{fill:#C4BFB3;}
	.st72{fill:#939189;}
	.st73{fill:#B7B5AB;}
	.st74{fill:#C6BBA5;}
	.st75{fill:#CEC2AA;}
	.st76{fill:#CCC1AA;}
	.st77{fill:#9E9C95;}
	.st78{fill:#C9BDA6;}
	.st79{fill:#C6BBA7;}
	.st80{fill:#BAB3A6;}
	.st81{fill:#A5A299;}
	.st82{fill:#CCC0A8;}
	.st83{fill:#C3BFB4;}
	.st84{fill:#9A978E;}
	.st85{fill:#B8B1AA;}
	.st86{fill:#8D877F;}
	.st87{fill:#C4BCA9;}
	.st88{fill:#B5AD9E;}
	.st89{fill:#C5BEB6;}
	.st90{fill:#B5B3AC;}
	.st91{fill:#D5D1C6;}
	.st92{fill:#BCB4B1;}
	.st93{fill:#999793;}
	.st94{fill:#8E8E87;}
	.st95{fill:#A3A19D;}
	.st96{fill:#B5B4B1;}
	.st97{fill:#A8A7A7;}
	.st98{fill:#A09D97;}
	.st99{fill:#D3CFC3;}
	.st100{fill:#ADAAA6;}
	.st101{fill:#B2B1AF;}
	.st102{fill:#9B978F;}
	.st103{fill:#AAA7A0;}
	.st104{fill:#CCC8C4;}
	.st105{fill:#D3D0CD;}
	.st106{fill:#C9C3BD;}
	.st107{fill:#B2AFA8;}
	.st108{fill:#999692;}
	.st109{fill:#898683;}
	.st110{fill:#A3A29B;}
	.st111{fill:#B2AEAA;}
	.st112{fill:#D6D0C9;}
	.st113{fill:#918D87;}
	.st114{fill:#DBD5C6;}
	.st115{fill:#B7B3AE;}
	.st116{fill:#C4C1BB;}
	.st117{fill:#9B9891;}
	.st118{fill:#D8D5CB;}
	.st119{fill:#939089;}
	.st120{fill:#A8A6A0;}
	.st121{fill:#D8D5D0;}
	.st122{fill:#A8A49B;}
	.st123{fill:#96928A;}
	.st124{fill:#CEC8C2;}
	.st125{fill:#C4996C;}
	.st126{fill:#B7845A;}
	.st127{fill:#D5A776;}
	.st128{fill:#477F16;}
	.st129{fill:#436818;}
	.st130{fill:#AA7B43;}
	.st131{fill:#B79056;}
	.st132{fill:#AD9655;}
	.st133{fill:#DD9D68;}
	.st134{fill:#C18B59;stroke:#A87848;stroke-miterlimit:10;}
	.st135{fill:#B28056;}
	.st136{fill:#AD7D59;}
	.st137{fill:#AA7D5C;}
	.st138{fill:#DDCBBF;}
	.st139{fill:#DBDAD9;}
	.st140{fill:#D8A380;}
	.st141{fill:#CE987A;}
	.st142{fill:#CC9D85;}
	.st143{fill:#C6977F;}
	.st144{fill:#C19784;}
	.st145{fill:#C69B8B;}
	.st146{fill:#B7958B;}
	.st147{fill:#AF8958;}
	.st148{fill:#967A60;}
	.st149{fill:#C9D1D3;}
	.st150{fill:#635C55;}
	.st151{fill:#65868F;}
	.st152{fill:#6CC1A0;}
	.st153{fill:#EFCE8E;}
	.st154{fill:#60523B;}
	.st155{fill:#EFC58E;}
	.st156{fill:#6D5D41;}
	.st157{fill:#E8C192;}
	.st158{fill:#EFCA7F;}
	.st159{fill:#FFFFFF;}
	.st160{fill:#E5C57C;}
	.st161{fill:#59585E;}
	.st162{fill:#6FC9A9;}
	.st163{fill:#686770;}
	.st164{fill:#86D1B1;}
	.st165{fill:#2D2924;}
	.st166{fill:none;stroke:#2D2924;stroke-width:24;stroke-miterlimit:10;}
	.st167{fill:none;stroke:#2D2924;stroke-width:24;stroke-miterlimit:10;stroke-dasharray:10.0234,10.0234;}
	.st168{fill:#C0D3D7;}
	.st169{fill:#98A9B1;}
	.st170{fill:#D8372D;}
	.st171{fill:#414143;}
	.st172{fill:#EE5547;}
	.st173{fill:#A22921;}
	.st174{fill:#9C271F;}
	.st175{fill:#D2C4A9;}
	.st176{fill:#ABABAB;}
	.st177{fill:#4F4F4F;}
	.st178{fill:none;stroke:#2D2924;stroke-width:18;stroke-miterlimit:10;}
	.st179{fill:none;stroke:#2D2924;stroke-width:18;stroke-miterlimit:10;stroke-dasharray:8.8394,8.8394;}
	.st180{fill:none;stroke:#2D2924;stroke-width:18;stroke-miterlimit:10;stroke-dasharray:9.9611,9.9611;}
	.st181{fill:#E26B47;}
	.st182{fill:#FF8243;}
	.st183{fill:#47413F;}
	.st184{fill:#EF8424;}
	.st185{fill:#FDA83D;}
	.st186{fill:#994E22;}
	.st187{fill:#965F29;}
	.st188{fill:#7F7F7F;}
	.st189{fill:#D6D5D4;}
	.st190{fill:#C98235;}
	.st191{fill:#999999;}
	.st192{fill:#E2E1E0;}
	.st193{fill:#D98D31;}
	.st194{fill:#B5B5B5;}
	.st195{fill:#7F6752;}
	.st196{fill:#777770;}
	.st197{fill:#F29575;}
	.st198{fill:#3F3831;}
	.st199{fill:url(#gradient_1_);}
	.st200{fill:#997933;}
	.st201{fill:#937334;}
	.st202{fill:#A9DB52;}
	.st203{fill:#96C639;}
	.st204{fill:#82B71C;}
	.st205{fill:#B6E55C;}
	.st206{fill:#90C125;}
	.st207{fill:#A9D146;}
	.st208{fill:#8E7036;}
	.st209{fill:#846939;}
	.st210{fill:#78A038;stroke:#81AD2B;stroke-width:3;stroke-miterlimit:10;}
	.st211{fill:#658E30;}
	.st212{fill:#85AA44;}
	.st213{fill:#7EAF31;}
	.st214{fill:#018287;}
	.st215{fill:#0F0F0F;}
	.st216{fill:#303030;}
	.st217{fill:#333333;}
	.st218{fill:#1A1A1A;}
	.st219{fill:#424242;}
	.st220{fill:#00666A;}
	.st221{fill:#212121;}
	.st222{fill:#111111;}
	.st223{fill:#A3A3A3;}
	.st224{fill:#ACACAE;}
	.st225{fill:#161616;}
	.st226{fill:#00686B;}
	.st227{fill:#161616;stroke:#373737;stroke-miterlimit:10;}
	.st228{fill:none;stroke:#D98D31;stroke-miterlimit:10;}
	.st229{fill:#242424;}
	.st230{fill:#373737;}
	.st231{fill:url(#gradient2_1_);}
	.st232{fill:url(#gradient3_1_);}
	.st233{fill:#B67D56;}
	.st234{fill:#83492A;}
	.st235{fill:#9C6038;}
	.st236{fill:#683920;}
	.st237{fill:#563119;}
	.st238{fill:#CC9E75;}
	.st239{fill:#633A23;}
	.st240{fill:#F9F6CD;}
	.st241{fill:none;stroke:#000000;stroke-miterlimit:10;}
	.st242{fill:none;}
	.st243{font-family:'ArialMT';}
	.st244{font-size:56.4416px;}
	.st245{letter-spacing:10.7;}
	.st246{fill:#EDFF85;stroke:#000000;stroke-miterlimit:10;}
	.st247{font-family:'MyriadPro-Regular';}
	.st248{font-size:94.0694px;}
	.st249{fill:none;stroke:#2D2924;stroke-width:18;stroke-miterlimit:10;stroke-dasharray:10.6132,10.6132;}
	.st250{fill:none;stroke:#2D2924;stroke-width:18;stroke-miterlimit:10;stroke-dasharray:9.9851,9.9851;}
	.st251{fill:none;stroke:#2D2924;stroke-width:24;stroke-miterlimit:10;stroke-dasharray:10.1023,10.1023;}
	.st252{fill:#A59D58;}
	.st253{fill:#CCA962;}
	.st254{fill:none;stroke:#EFCF97;stroke-miterlimit:10;}
	.st255{fill:#EFCF97;}
	.st256{fill:#846431;}
	.st257{fill:#75634C;}
	.st258{fill:#7A6A59;}
	.st259{fill:#FFF980;stroke:#000000;stroke-miterlimit:10;}
	.st260{fill:#FFF980;stroke:#FFF980;stroke-miterlimit:10;}
	.st261{fill:#66633A;}
	.st262{font-family:'Arial-BoldMT';}
	.st263{font-size:114.5115px;}
	.st264{letter-spacing:68.5;}
	.st265{fill:#EDFF85;stroke:#EDFF85;stroke-miterlimit:10;}
	.st266{fill:#60663B;}
	.st267{fill:#E5DFA1;}
	.st268{fill:#56514C;}
	.st269{font-size:41.8506px;}
	.st270{letter-spacing:8.2;}
	.st271{fill:#F9F6CD;stroke:#000000;stroke-miterlimit:10;}
	.st272{fill:none;stroke:#2D2924;stroke-width:24;stroke-miterlimit:10;stroke-dasharray:9.8069,9.8069;}
	.st273{fill:none;stroke:#2D2924;stroke-width:18;stroke-miterlimit:10;stroke-dasharray:11.8613,11.8613;}
	.st274{fill:none;stroke:#2D2924;stroke-width:18;stroke-miterlimit:10;stroke-dasharray:10.2463,10.2463;}
</style>
<g id="menu">
	<g id="menu_x5F_buy3">
		<rect x="38.4" y="371.4" class="st240" width="1607.5" height="1695.3"/>
		<g id="perforator_x5F_buy">
			<line class="st241" x1="909.7" y1="370.7" x2="909.7" y2="794.5"/>
			<line class="st241" x1="38.4" y1="794.5" x2="1505.6" y2="794.5"/>
			<rect x="1062" y="675.5" class="st242" width="267.5" height="70.5"/>
			<text id="money_8_" transform="matrix(1.0245 0 0 1 1062.0303 715.9258)" class="st243 st244 st245">MONEY</text>
			<g id="buy-btn_x5F_perf">
				<rect x="1505.6" y="370.7" class="st246" width="140.3" height="423.8"/>
				<rect x="1557.7" y="422.5" class="st242" width="69.4" height="455"/>
				<text id="sell_x5F_vertic_8_" transform="matrix(1.0245 0 0 1 1557.7041 462.8672)"><tspan x="0" y="0" class="st243 st244 st245"> </tspan><tspan x="0" y="67.7" class="st243 st244 st245">B</tspan><tspan x="0" y="135.5" class="st243 st244 st245">U</tspan><tspan x="0" y="203.2" class="st243 st244 st245">Y</tspan></text>
			</g>
			<g id="perforator_x5F_pick">
				<path class="st214" d="M447.6,489.8l-259.8,31.9c-0.9,0.1-1.8,0.4-2.6,0.7l-3.3,1.5c-0.9,0.4-1.7,1-2.5,1.6l-3,2.7
					c-0.8,0.8-1.5,1.7-2,2.7l-0.3,0.7c-0.7,1.5-1,3.2-0.8,4.9l0,0c0.2,1.6,0.8,3,1.8,4.3l0.7,0.8c0.8,1,1.7,1.8,2.8,2.4l2.6,1.4
					c0.3,0.1,0.5,0.3,0.8,0.5l2.6,1.8c1.2,0.8,2.1,1.9,2.8,3.2l0,0c0.8,1.6,1,3.4,0.7,5.1l-1.1,6.1l-5.5,12.3l-5.7,20l-2.7,25.1
					l0.6,76.7c0,1.3,0.4,2.6,1.2,3.7h0c1.5,2.1,3.7,3.6,6.2,4.3l1.5,0.4c1.3,0.3,2.6,0.4,3.8,0.2l24.4-3c1.6-0.2,3.1-0.9,4.3-1.9
					l0,0c1.1-1,2-2.3,2.5-3.7l1.8-4.8c0.4-1,0.6-2.1,0.6-3.2l-0.4-85.6c0-1.3,0.3-2.5,1-3.6l0,0c1.5-2.4,3.7-4.3,6.3-5.5l2.3-1
					l24.8-2.7c1.2-0.1,2.4-0.1,3.5,0l14.7,1.6l32.2,4.2l43.5,0.5c1.6,0,3.3-0.1,4.9-0.3l53.5-7.2c3.2-0.4,6.3-1.1,9.4-2.1l12.6-4
					c10.9-3.5,20.8-9.6,28.6-17.8l0.3-0.3c1.8-1.9,3.3-4.1,4.3-6.5l0.6-1.4c1.4-3.1,1.8-6.5,1.4-9.8l-6.3-49.1
					c-0.2-1.4-0.7-2.7-1.6-3.8l-0.7-0.9c-0.5-0.6-1.1-1.2-1.8-1.6l0,0C451.4,490,449.4,489.6,447.6,489.8z"/>
				<path class="st225" d="M299.8,594.9l20.6-89.4l127.2-15.6c1.9-0.2,3.8,0.2,5.4,1.2l0,0c0.7,0.4,1.3,1,1.8,1.6l0.7,0.9
					c0.9,1.1,1.4,2.4,1.6,3.8l6.6,51c0.3,2.1,0,4.2-0.9,6.2l-2,4.5c-0.7,1.5-1.6,2.9-2.8,4.2l-4.1,4.3c-6,6.3-13.5,10.9-21.8,13.6
					l-16.6,5.3c-3,1-6.1,1.7-9.3,2.1l-51.4,7c-3.1,0.4-6.1,0.6-9.2,0.6l-41.3-0.5L299.8,594.9z"/>
				<polygon class="st226" points="179.2,544.4 315.3,527.7 316.7,521.3 173.6,538.9 176.9,543.2 				"/>
				<path class="st225" d="M186.8,562l-2.6,26.8c-0.3,3.2-0.4,6.5-0.3,9.8l0.7,18.5c0.2,6.9,1.6,13.7,4.1,20.1l1.8,4.7
					c1.5,3.9,4,7.3,7.4,9.8l4.7,3.6c2.2,1.7,4.6,3,7.2,3.9l10,3.5l0.1,25.1c0,1.2-0.2,2.5-0.7,3.6l-1.9,5c-0.4,1.1-1.1,2.1-2.1,3
					l-0.6,0.5c-1,0.9-2.3,1.5-3.7,1.7l-24.5,3c-1.4,0.2-2.9,0.1-4.3-0.3l-2.8-0.7c-1.6-0.4-2.9-1.3-3.8-2.6l-0.7-1
					c-0.9-1.3-1.3-2.7-1.3-4.3l-0.6-71.9c0-3,0.1-5.9,0.4-8.9l1.6-14.6c0.4-4,1.2-7.9,2.3-11.8l3.4-12c0.4-1.5,1-2.9,1.6-4.3
					L186.8,562z"/>
				<path class="st227" d="M200.3,603.7c0.4,3.1,3.4,5.4,6.6,5c3.2-0.4,5.5-3.3,5.1-6.4c-0.4-3.1-3.4-5.4-6.6-5
					C202.2,597.7,199.9,600.5,200.3,603.7z"/>
				<path class="st225" d="M220.8,598.4l0.4-0.7c1-1.7,2.6-3,4.4-3.8l2.5-1.1c0.7-0.3,1.4-0.5,2.1-0.6l11.4-1.2l-5.8,1.8
					c-2.4,0.7-4.3,2.4-5.4,4.5l-0.6,1.2c-0.5,1.1-0.8,2.2-0.8,3.4l0,24c0,1.4-0.5,2.7-1.4,3.7l0,0c-0.7,0.8-1.6,1.3-2.6,1.4
					l-3.2,0.4c-1.1,0.1-2.1-0.7-2.1-1.8l-0.1-26.7C219.5,601.3,219.9,599.8,220.8,598.4z"/>
				<path class="st229" d="M216.8,574.9l16.8-2.1c1.4-0.2,2.4-1.4,2.2-2.8l-2.8-22.1c-0.2-1.3-1.4-2.3-2.8-2.1l-16.8,2.1
					c-1.4,0.2-2.4,1.4-2.2,2.8l2.8,22.1C214.1,574.1,215.4,575.1,216.8,574.9z"/>
				<path class="st214" d="M217.5,571.3l14.4-1.8c1.1-0.1,1.8-1.1,1.7-2.1l-0.4-2.9c-0.1-1-1.1-1.8-2.2-1.7l-14.4,1.8
					c-1.1,0.1-1.8,1.1-1.7,2.1l0.4,2.9C215.4,570.7,216.4,571.4,217.5,571.3z"/>
				<path class="st230" d="M374.2,552c1.9,14.4,15.3,24.6,30.1,22.8c14.8-1.8,25.2-15,23.4-29.4c-1.9-14.4-15.3-24.6-30.1-22.8
					C382.8,524.5,372.4,537.6,374.2,552z"/>
				<path class="st229" d="M398,570.6l11.8-1.4c0.8-0.1,1.4-0.8,1.3-1.7l-5.1-39.8c-0.1-0.8-0.9-1.4-1.7-1.3l-11.8,1.4
					c-0.8,0.1-1.4,0.8-1.3,1.7l5.1,39.8C396.4,570.2,397.2,570.7,398,570.6z"/>
				<polygon class="st230" points="474.4,493.4 456.8,495.6 463.6,548.6 481.3,546.4 				"/>
				<polygon class="st225" points="484.9,494.7 474.7,495.9 481,544.4 491.2,543.2 				"/>
				<polygon class="st230" points="510.4,489.7 484.7,492.8 491.4,545 517.1,541.9 				"/>
				<polygon class="st229" points="517.1,541.9 525.7,531.6 521.4,498 510.4,489.7 				"/>
				<polygon class="st225" points="525.7,531.6 556.1,523.6 559.8,519.6 557.5,501.3 552.9,499.1 521.4,498 				"/>
				<polygon class="st223" points="577.6,514.3 559.6,516.8 557.8,503.9 575.8,501.5 				"/>
				<path class="st224" d="M876.1,468.5l-23.8,12.1c-2.3,1.2-4.8,2-7.4,2.3l-245.2,33.2c-7.5,1-15.1,0.4-22.2-1.7h0l-1.8-12.9v0
					c6.4-4,13.7-6.6,21.4-7.6l244.8-33.1c2.6-0.4,5.2-0.3,7.8,0.3l26.1,5.4C876.9,466.6,877.1,468,876.1,468.5z"/>
			</g>
			<rect x="947" y="408.8" class="st242" width="526.2" height="238.5"/>
			<text id="quantity-money-perf_x5F_buy" transform="matrix(1.0245 0 0 1 1185.4141 475.5811)" class="st247 st248">0</text>
		</g>
		<g id="perforator2_x5F_buy">
			<line class="st241" x1="909.7" y1="794.5" x2="909.7" y2="1218.3"/>
			<line class="st241" x1="38.4" y1="1218.3" x2="1505.6" y2="1218.3"/>
			<rect x="1062" y="1099.3" class="st242" width="267.5" height="70.5"/>
			<text id="money_12_" transform="matrix(1.0245 0 0 1 1062.0303 1139.7402)" class="st243 st244 st245">MONEY</text>
			<g id="buy-btn_x5F_perf2">
				<rect x="1505.6" y="794.5" class="st246" width="140.3" height="423.8"/>
				<rect x="1557.7" y="846.3" class="st242" width="69.4" height="455"/>
				<text id="sell_x5F_vertic_12_" transform="matrix(1.0245 0 0 1 1557.7041 886.6807)"><tspan x="0" y="0" class="st243 st244 st245"> </tspan><tspan x="0" y="67.7" class="st243 st244 st245">B</tspan><tspan x="0" y="135.5" class="st243 st244 st245">U</tspan><tspan x="0" y="203.2" class="st243 st244 st245">Y</tspan></text>
			</g>
			<g id="perf2-pick_1_">
				<path class="st214" d="M174.2,1016.3c-0.1,4.5,0.2,8.9,0.8,13.4l1.6,11.5c0.4,2.9,0.9,5.7,1.6,8.6l2.2,9
					c1.7,6.9,4.2,13.6,7.5,20l0.9,1.8c3.1,5.8,7.8,10.7,13.6,13.9c4.4,2.5,9.3,4,14.4,4.4l7.2,0.6c2.5,0.2,5.1,0.1,7.6-0.2l55.1-7.3
					l6.4,1.6l3.7,3.1l11.9,35.7c0.2,0.5,0.4,1,0.7,1.5c1.5,2.4,4.2,3.5,6.9,3.2l92-12.2c1.1-0.2,1.9-1.2,1.8-2.3l0,0
					c0.5-0.6,0.9-1.2,1.3-1.9l0.1-0.2c0.7-1.5,1-3.1,0.7-4.7l-15.7-112.5l14.2-23.5l7.6-1c2.7-0.4,4.5-2.8,4.1-5.4l-8.2-54.6
					c-0.4-2.6-2.9-4.4-5.6-4l-226.9,36.7c-1.1,0.2-2.2,0.5-3.2,1l-3,1.5c-0.7,0.3-1.3,0.7-1.9,1.2l-3.1,2.4
					c-1.5,1.1-2.6,2.6-3.3,4.3l-0.1,0.2c-0.8,1.8-1.1,3.8-0.8,5.8c0.3,1.9,1,3.7,2.3,5.2l5.9,7.5l2.5,4.9l0.7,5.1l-0.4,1.4
					c-2,7.1-3,14.4-3.2,21.8L174.2,1016.3z M210.4,1017.8l-0.3-10.3c0-0.9,0-1.8,0.1-2.7l1-7.7c0.2-1.5,0.5-2.9,1.1-4.3l1.3-3.2
					c0.4-1,0.9-2,1.5-3l1.1-1.7c1.1-1.7,2.5-3.3,4.1-4.6l0,0c2-1.6,4.3-2.8,6.8-3.4l3.9-1c0.8-0.2,1.6-0.4,2.4-0.5l21.4-2.8l10.8,6
					c1.6,0.9,2.7,2.5,2.9,4.3l0.1,0.6c0.2,1.1,0,2.3-0.5,3.3l-1.7,3.4c-2,4-2.7,8.6-2.1,13l8.2,58.6l-36.6,4.9
					c-0.6,0.1-1.2,0.1-1.8,0.1l-5.8-0.4c-2.3-0.1-4.5-1.2-6.1-2.8c-0.6-0.6-1.1-1.3-1.5-2.1l-2.4-4.8c-0.3-0.5-0.5-1-0.6-1.6
					l-3.9-13.9L210.4,1017.8z"/>
				<path class="st215" d="M211.4,1015l-4.7-0.3c-2.5-0.2-4.8-1.1-6.6-2.7l-0.7-0.6c-1.6-1.4-2.8-3.2-3.4-5.3l-2.7-9.4
					c-0.8-3-2.3-5.7-4.3-8.1l-2.7-3.3c-1.7-2.1-2.9-4.6-3.2-7.3l-0.5-3.4c-0.3-2.1-0.1-4.2,0.5-6.2l5.6-18.1l-6.7,1.1
					c-1.1,0.2-2.2,0.5-3.2,1l-3,1.5c-0.7,0.3-1.3,0.7-1.9,1.2l-3.1,2.4c-1.5,1.1-2.6,2.6-3.3,4.3l-0.1,0.2c-0.8,1.8-1.1,3.8-0.8,5.8
					l0,0c0.3,1.9,1,3.7,2.3,5.2l5,6.4c0.6,0.7,1.1,1.5,1.5,2.4l0.8,1.5c0.7,1.4,1.2,2.8,1.4,4.4l0.3,1.8c0.1,0.7,0,1.4-0.1,2v0
					c-2,7.4-3.1,14.9-3.3,22.6l0,2.1c-0.1,4.6,0.2,9.2,0.8,13.8l1.5,11.1c0.4,3,1,5.9,1.7,8.8l4.3,17.6c0.2,0.9,1.2,1.5,2.1,1.2
					l34.5-10l-1.5-2.9l-3.9-13.9c-0.1-0.5-0.3-1-0.3-1.6l-2.7-19.4c-0.3-2-0.5-5.9-0.5-5.9L211.4,1015z"/>
				<path class="st215" d="M272.3,1093.8l-3-21.7c-0.1-0.9,0.7-1.7,1.7-1.5l33.4,7.4c8,1.8,16.3,2.2,24.5,1.2l77-9.5l6.4,46
					c0.2,1.6,0,3.2-0.7,4.7l-0.1,0.2c-0.3,0.7-0.8,1.3-1.3,1.9l0,0c-1.3,1.5-3.2,2.5-5.2,2.8l-88.5,11.7c-1.6,0.2-3.3-0.1-4.7-1l0,0
					c-1.4-0.8-2.4-2.1-2.9-3.6l-11.1-33.2c-0.5-1.6-1.5-3.1-2.8-4.2l0,0c-1.1-0.9-2.4-1.6-3.9-2l-2.4-0.6c-1.2-0.3-2.4-0.4-3.6-0.2
					L272.3,1093.8z"/>
				<path class="st216" d="M389.7,1093.2l6.6-0.9c0.9-0.1,1.6,0.5,1.8,1.3l4.2,30.3c0.1,0.8-0.5,1.6-1.3,1.7l-6.6,0.9
					c-0.9,0.1-1.6-0.5-1.8-1.3l-4.2-30.3C388.2,1094.1,388.8,1093.4,389.7,1093.2z"/>
				<path class="st216" d="M374.4,1095.3l7-0.9c0.7-0.1,1.4,0.4,1.5,1.1l4.3,30.7c0.1,0.7-0.4,1.4-1.2,1.5l-7,0.9
					c-0.7,0.1-1.4-0.4-1.5-1.1l-4.3-30.7C373.1,1096,373.7,1095.4,374.4,1095.3z"/>
				<path class="st216" d="M359.8,1097.2l6.6-0.9c0.9-0.1,1.6,0.5,1.8,1.3l4.2,30.3c0.1,0.8-0.5,1.6-1.3,1.7l-6.6,0.9
					c-0.9,0.1-1.6-0.5-1.8-1.3l-4.2-30.3C358.4,1098.1,359,1097.3,359.8,1097.2z"/>
				<path class="st216" d="M345.2,1099.1l6.8-0.9c0.8-0.1,1.5,0.4,1.6,1.2l4.3,30.5c0.1,0.8-0.4,1.5-1.2,1.6l-6.8,0.9
					c-0.8,0.1-1.5-0.4-1.6-1.2l-4.3-30.5C343.8,1100,344.4,1099.2,345.2,1099.1z"/>
				<path class="st216" d="M330.4,1101.1l7.3-1c0.7-0.1,1.3,0.4,1.4,1l4.3,31c0.1,0.6-0.4,1.2-1,1.3l-7.3,1c-0.7,0.1-1.3-0.4-1.4-1
					l-4.3-31C329.3,1101.8,329.8,1101.2,330.4,1101.1z"/>
				<path class="st216" d="M316,1103l7.1-0.9c0.7-0.1,1.4,0.4,1.5,1.1l4.3,30.8c0.1,0.7-0.4,1.4-1.1,1.5l-7.1,0.9
					c-0.7,0.1-1.4-0.4-1.5-1.1l-4.3-30.8C314.8,1103.8,315.3,1103.1,316,1103z"/>
				<path class="st217" d="M267.8,1028.7l130-17.2l-1.2-8.3l14.2-23.5l8.1-1.1c2.4-0.3,4.1-2.5,3.7-4.8l-8.3-55.6
					c-0.4-2.3-2.6-4-5-3.6l-158.4,25.6l3.7,32.5l11.2,6.3c1.4,0.8,2.3,2.1,2.5,3.6l0.2,1.3c0.1,0.9,0,1.9-0.4,2.8l-2.2,4.4
					c-1.7,3.5-2.3,7.5-1.8,11.3L267.8,1028.7z"/>
				<polygon class="st218" points="451.9,970.3 422.7,974.2 414.2,917.3 444,913.3 				"/>
				<path class="st219" d="M454.1,971.3l16.4-2.2c2.6-0.3,4.4-2.7,4-5.2l-7.1-51c-0.3-2.5-2.7-4.3-5.3-3.9l-16.4,2.2
					c-1.1,0.1-1.8,1.1-1.7,2.2l7.8,56.3C452,970.8,453,971.5,454.1,971.3z"/>
				<polygon class="st218" points="510.9,954.2 473.8,959.1 468,917.6 505.1,912.7 				"/>
				<path class="st214" d="M539.9,954.1l-25.9,3.4c-1.5,0.2-2.8-0.8-3-2.2l-6.2-44.5c-0.2-1.4,0.8-2.7,2.3-2.9l25.9-3.4L539.9,954.1
					z"/>
				<path class="st218" d="M548.7,947.6l-9.6,1.3l-5.2-37l9.9-1.3c3.2-0.4,6.1,1.7,6.5,4.8l3.6,25.5
					C554.4,944.1,552.1,947.1,548.7,947.6z"/>
				<path class="st220" d="M541.1,953.9l-1.2,0.2l-6.9-49.6l0.6-0.1c3.5-0.5,6.7,1.9,7.2,5.4l5.3,37.8
					C546.6,950.6,544.3,953.5,541.1,953.9z"/>
				<path class="st221" d="M390.6,954.2c2.3,14.4-7.9,28-22.7,30.2s-28.6-7.7-30.9-22.1c-2.3-14.4,7.9-28,22.7-30.2
					S388.3,939.7,390.6,954.2z"/>
				<path class="st222" d="M372.9,978.6l-11.8,1.8c-0.8,0.1-1.6-0.4-1.7-1.2l-6.3-39.9c-0.1-0.8,0.4-1.6,1.3-1.7l11.8-1.8
					c0.8-0.1,1.6,0.4,1.7,1.2l6.3,39.9C374.3,977.7,373.7,978.4,372.9,978.6z"/>
				<path class="st220" d="M511.2,916l17.8-2.4c1.1-0.1,1.8-1.1,1.7-2.1l-0.2-1.2c-0.1-1-1.1-1.8-2.2-1.6l-17.8,2.4
					c-1.1,0.1-1.8,1.1-1.7,2.1l0.2,1.2C509.2,915.4,510.2,916.1,511.2,916z"/>
				<path class="st220" d="M512.3,923.8l17.8-2.4c1.1-0.1,1.8-1.1,1.7-2.1l-0.2-1.2c-0.1-1-1.1-1.8-2.2-1.6l-17.8,2.4
					c-1.1,0.1-1.8,1.1-1.7,2.1l0.2,1.2C510.3,923.3,511.3,924,512.3,923.8z"/>
				<path class="st220" d="M513.2,931.7l17.8-2.4c1.1-0.1,1.8-1.1,1.7-2.1l-0.2-1.2c-0.1-1-1.1-1.8-2.2-1.6l-17.8,2.4
					c-1.1,0.1-1.8,1.1-1.7,2.1l0.2,1.2C511.2,931.2,512.2,931.9,513.2,931.7z"/>
				<path class="st220" d="M514.3,939.6l17.8-2.4c1.1-0.1,1.8-1.1,1.7-2.1l-0.2-1.2c-0.1-1-1.1-1.8-2.2-1.6l-17.8,2.4
					c-1.1,0.1-1.8,1.1-1.7,2.1l0.2,1.2C512.3,939,513.3,939.8,514.3,939.6z"/>
				<path class="st220" d="M515.6,947.5l17.8-2.4c1.1-0.1,1.8-1.1,1.7-2.1l-0.2-1.2c-0.1-1-1.1-1.8-2.2-1.6l-17.8,2.4
					c-1.1,0.1-1.8,1.1-1.7,2.1l0.2,1.2C513.6,946.9,514.5,947.6,515.6,947.5z"/>
				<path class="st220" d="M516.7,955.4l17.8-2.4c1.1-0.1,1.8-1.1,1.7-2.1l-0.2-1.2c-0.1-1-1.1-1.8-2.2-1.6l-17.8,2.4
					c-1.1,0.1-1.8,1.1-1.7,2.1l0.2,1.2C514.7,954.8,515.6,955.5,516.7,955.4z"/>
				<polygon class="st223" points="570.3,934.3 553.4,936.6 550.9,919 567.8,916.7 				"/>
				<path class="st224" d="M851.9,888.5L830,903.7c-2.1,1.5-4.4,2.4-6.9,2.7l-231.6,31.5c-7.1,1-14.3-0.3-21.2-3.6l0,0l-2.5-17.6
					l0,0c5.9-5.1,12.7-8.2,19.9-9.2L818.9,876c2.5-0.3,5-0.1,7.5,0.8l25.1,8.8C852.6,885.9,852.8,887.9,851.9,888.5z"/>
			</g>
			<rect x="947" y="832.6" class="st242" width="526.2" height="238.5"/>
			<text id="quantity-money-perf2_x5F_buy" transform="matrix(1.0245 0 0 1 1185.4141 899.3936)" class="st247 st248">0</text>
		</g>
	</g>
	<g id="menu_x5F_buy2">
		<rect x="38.4" y="369.9" class="st240" width="1607.5" height="1695.3"/>
		<g id="chainsaw_x5F_buy">
			<line class="st241" x1="909.7" y1="371" x2="909.7" y2="794.8"/>
			<line class="st241" x1="38.4" y1="794.8" x2="1505.6" y2="794.9"/>
			<rect x="1062" y="675.8" class="st242" width="267.5" height="70.5"/>
			<text id="money_7_" transform="matrix(1.0245 0 0 1 1062.0303 716.2532)" class="st243 st244 st245">MONEY</text>
			<g id="buy-btn_x5F_saw">
				<rect x="1505.6" y="371" class="st246" width="140.3" height="423.8"/>
				<rect x="1557.7" y="422.8" class="st242" width="69.4" height="455"/>
				<text id="sell_x5F_vertic_7_" transform="matrix(1.0245 0 0 1 1557.7041 463.1936)"><tspan x="0" y="0" class="st243 st244 st245"> </tspan><tspan x="0" y="67.7" class="st243 st244 st245">B</tspan><tspan x="0" y="135.5" class="st243 st244 st245">U</tspan><tspan x="0" y="203.2" class="st243 st244 st245">Y</tspan></text>
			</g>
			<g id="saw_x5F_pick">
				<g>
					<path class="st165" d="M795.1,581.3L446.6,634l-13.2-83.3L782,498.1c23.4-3.5,45.3,12.1,48.9,35l0.1,0.4
						C834.6,556.3,818.6,577.8,795.1,581.3z"/>
					<g>
						<polyline class="st178" points="451.5,633.3 446.6,634 445.8,629.1 						"/>
						<line class="st249" x1="444.1" y1="618.6" x2="435" y2="561"/>
						<polyline class="st178" points="434.1,555.7 433.3,550.8 438.3,550 						"/>
						<path class="st250" d="M448.2,548.5L782,498.1c23.4-3.5,45.3,12.1,48.9,35l0.1,0.4c3.6,22.9-12.4,44.3-35.9,47.9l-338.7,51.2"
							/>
					</g>
				</g>
				<path class="st168" d="M792.8,574.4l-336.1,50.8l-11-69.5l336.1-50.8c19.1-2.9,36.9,9.9,39.9,28.5l0.3,2.1
					C824.9,554.1,811.8,571.5,792.8,574.4z"/>
				<path class="st169" d="M800.3,537.8c1.7,10.6-8.1,20.9-21.8,23c-13.7,2.1-26.2-4.8-27.9-15.5c-1.7-10.6,8.1-20.9,21.8-23
					S798.6,527.2,800.3,537.8z"/>
				<path class="st181" d="M368.4,541.5l-101.7,15.4c-10.7,1.6-18.1,11.4-16.4,21.9l2.7,17.2l-30.7,6.8c-9.1,2-17.9,4.8-26.5,8.2
					l-10,4c-6.7,2.7-12.6,6.8-17.3,12.1l0,0c-4.4,4.9-7.8,10.6-10.1,16.7l-0.1,0.4c-2.1,5.6-2.7,11.7-1.8,17.6l0.2,1.5
					c0.4,2.5,1.5,4.8,3.1,6.6c5.1,5.7,11.7,9.9,19.1,12.1l0,0c9.2,2.7,18.7,3.7,28.3,3.1l19.7-1.3l55.7-5.6l-0.8-0.3
					c1.3,0.1,2.7,0,4.1-0.2l101.7-15.4c10.7-1.6,18.1-11.4,16.4-21.9l-13.1-82.9C389.2,547.1,379.1,539.9,368.4,541.5z M243.5,664.3
					c-3.1,0.4-6.2,0.7-9.3,1l-15,1.2c-10.8,0.8-21.6,0-32.1-2.5h0c-2.5-0.6-4.9-1.6-7-2.9l-2.1-1.3c-2.5-1.5-4-4-4.2-6.9
					c-0.1-1.1,0.1-2.2,0.5-3.2l0.7-2.1c1.5-4.3,4.2-8.2,7.7-11.2c4.8-4.1,10.3-7.3,16.2-9.5l11.5-4.2c3.9-1.5,8-2.6,12.1-3.5
					l33.1-7.1l7.9,49.5c0.5,3,0,0,0,0L243.5,664.3z M271.2,674.2L271.2,674.2C271.2,674.2,271.2,674.2,271.2,674.2L271.2,674.2z"/>
				<path class="st182" d="M391.8,559.4l-141.6,21.4l0,0c-1.8-11.5,6.3-22.4,18.1-24.1l100.3-15.2c11-1.7,21.2,5.7,22.9,16.4
					L391.8,559.4z"/>
				<path class="st183" d="M304.1,557.9l-27.3,4.1c-2.6,0.4-5.1-1.4-5.5-3.9l0,0c-0.4-2.6,1.4-5,4-5.4l27.3-4.1
					c2.6-0.4,5.1,1.4,5.5,3.9l0,0C308.6,555.1,306.8,557.5,304.1,557.9z"/>
				<path class="st184" d="M468.6,588.3c-4.8-30.4-26.8-52.5-49.6-50c-1.3-0.1-2.7,0.1-4,0.5l-15.2,4.4c-5,1.4-10,3.1-14.9,5
					l-13.1,5c-3.1,1.2-6.2,2.4-9.2,3.8l-8.8,3.9c-14.5,6.4-28.2,14.5-40.6,24.3l0,0c-11.8,9.2-22.4,19.8-31.6,31.4
					c-2.4,3-4,6.5-4.8,10.2l-0.1,0.6c-1.1,5.3-1.3,10.7-0.5,16l0,0.1c0.3,1.9,1,3.8,2.1,5.5c1.5,2.3,3.5,4.3,5.9,5.7
					c4,2.3,8.4,3.9,12.9,4.6l8.2,1.2c6.9,1,13.9,1.4,20.8,1.2l24.3-0.7c5.3-0.2,10.5-0.5,15.8-1.1l34.3-3.6l34.6-5.2
					c0.1,0,0.2,0,0.3,0c0.1,0,0.2,0,0.3-0.1l1.7-0.3c0.4-0.1,0.8-0.2,1.1-0.3C460,644.7,473.3,617.9,468.6,588.3z"/>
				<path class="st185" d="M281.8,652.9l-1.9-6.4c-0.6-2-0.9-4-1-6l-0.2-2.9c-0.2-4.2,0.5-8.3,2.2-12.1l0,0c0.5-1.2,1.2-2.4,2.1-3.4
					l7.1-8.7c2-2.5,4.3-4.9,6.8-7l14.5-12.7c1.9-1.7,4-3.3,6.1-4.7l17.8-12.2c3.8-2.6,7.8-4.9,12-7l19.5-9.6c1.5-0.7,3.1-1.4,4.7-2
					l15-5.7c2.3-0.9,10.2-3.9,10.2-3.9l9.5-3.1l7.6-1.9l5-1l6-0.7l6.9,0.2l4.6,0.6l5.4,1l-4.7-2.5l-4.4-1.7l-4.2-1l-4.2-0.5l-3.4,0
					l-3.7,0.2c0,0-3.1,0.7-5.5,1.4l-11.6,3.3l-7.3,2.3l-7.6,2.7l-13.1,5l-15.6,6.6c-1.7,0.7-3.3,1.5-4.9,2.3l-14.8,7.6
					c-1.7,0.9-3.3,1.8-4.9,2.9l-10.4,6.7c-1.1,0.7-2.3,1.5-3.3,2.4l-6.2,4.7c-1.2,0.9-2.3,1.9-3.5,2.9l-8.4,7.5
					c-1.4,1.3-2.8,2.6-4.1,4l-8.4,8.9c-0.9,0.9-1.7,1.9-2.4,2.8l-1.9,2.5c-2.5,3.2-4.3,6.9-5.4,10.7l-1,3.3l-0.6,4.1
					c-0.4,2.7-0.4,5.4,0.1,8.1l0.2,1.1c0.5,3.2,1.8,6.3,3.9,8.9L281.8,652.9z"/>
				<path class="st186" d="M358.5,603.3l-43,6.5c-1,0.2-2-0.5-2.1-1.5l-0.3-1.9c-0.2-1,0.5-1.9,1.6-2.1l43-6.5c1-0.2,2,0.5,2.1,1.5
					l0.3,1.9C360.2,602.2,359.5,603.1,358.5,603.3z"/>
				<path class="st186" d="M360,612.8l-43,6.5c-1,0.2-2-0.5-2.1-1.5l-0.3-1.9c-0.2-1,0.5-1.9,1.6-2.1l43-6.5c1-0.2,2,0.5,2.1,1.5
					l0.3,1.9C361.7,611.7,361,612.6,360,612.8z"/>
				<path class="st186" d="M361.5,622.2l-43,6.5c-1,0.2-2-0.5-2.1-1.5l-0.3-1.9c-0.2-1,0.5-1.9,1.6-2.1l43-6.5c1-0.2,2,0.5,2.1,1.5
					l0.3,1.9C363.2,621.1,362.5,622.1,361.5,622.2z"/>
				<path class="st186" d="M363.1,632l-43,6.5c-1,0.2-2-0.5-2.1-1.5l-0.3-1.9c-0.2-1,0.5-1.9,1.6-2.1l43-6.5c1-0.2,2,0.5,2.1,1.5
					l0.3,1.9C364.8,630.9,364.1,631.8,363.1,632z"/>
				<path class="st186" d="M364.5,641.2l-43,6.5c-1,0.2-2-0.5-2.1-1.5l-0.3-1.9c-0.2-1,0.5-1.9,1.6-2.1l43-6.5c1-0.2,2,0.5,2.1,1.5
					l0.3,1.9C366.3,640.1,365.6,641.1,364.5,641.2z"/>
				<path class="st183" d="M329.1,557l0.9,0.3c1.5,0.5,3.1,0.5,4.6-0.1l0.6-0.2c1-0.4,1.8-1.2,2.3-2.3l0.7-1.6
					c0.2-0.6,0.3-1.2,0.2-1.9l-2.5-15.7c-0.2-1.4-0.3-2.9-0.3-4.3l0.1-10.7c0-3.6,0.8-7,2.2-10.1l1.3-2.7c1.9-4,4.9-7.1,8.5-8.9
					l4.5-2.3c1.5-0.8,3.1-1.3,4.8-1.5l7.6-1.2c2.9-0.4,5.9-0.1,8.7,1.1v0c3.9,1.6,7.4,4.6,9.9,8.6l2.3,3.6c1.1,1.8,2,3.7,2.7,5.8
					l3,9.4c0.4,1.2,0.7,2.5,0.9,3.7l2.6,16.5c0.1,0.7,0.4,1.3,0.8,1.8l0,0c0.8,1,1.8,1.7,3,1.9l1.2,0.2c1,0.2,1.9,0.2,2.9,0l0.1,0
					c1.6-0.2,3-1.4,3.8-3.1l0,0c0.1-0.3,0.1-0.6,0.1-0.9l-0.5-3l-2.7-16.8c-0.4-2.8-1.2-5.6-2.2-8.2l-3.7-9.8
					c-1.3-3.5-3.1-6.7-5.3-9.5l-1.4-1.8c-3.8-5-8.7-8.8-14.1-10.8l-1-0.4c-4.2-1.6-8.7-2.1-13-1.4l-8.7,1.3
					c-2.7,0.4-5.4,1.3-7.9,2.6l-6.1,3.2c-4.3,2.3-8.1,5.7-10.9,10.2l0,0c-2.6,4.2-4.4,9-5.1,14.2l-0.7,4.9c-0.3,2.5-0.4,5-0.3,7.5
					l0.6,11.1c0.1,1.4,0.2,2.9,0.5,4.3l1.8,11.4c0.2,1.4,0.8,2.8,1.5,3.9l0,0C327.7,556.2,328.4,556.7,329.1,557z"/>
			</g>
			<rect x="947" y="415.3" class="st242" width="526.2" height="238.5"/>
			<text id="quantity-money-saw_x5F_buy" transform="matrix(1.0245 0 0 1 1185.4141 482.1184)" class="st247 st248">0</text>
		</g>
		<g id="chainsaw2_x5F_buy">
			<line class="st241" x1="909.7" y1="794.8" x2="909.7" y2="1218.6"/>
			<line class="st241" x1="38.4" y1="1218.6" x2="1505.6" y2="1218.7"/>
			<rect x="1062" y="1099.7" class="st242" width="267.5" height="70.5"/>
			<text id="money_11_" transform="matrix(1.0245 0 0 1 1062.0303 1140.0681)" class="st243 st244 st245">MONEY</text>
			<g id="buy-btn_x5F_saw2">
				<rect x="1505.6" y="794.9" class="st246" width="140.3" height="423.8"/>
				<rect x="1557.7" y="846.6" class="st242" width="69.4" height="455"/>
				<text id="sell_x5F_vertic_11_" transform="matrix(1.0245 0 0 1 1557.7041 887.009)"><tspan x="0" y="0" class="st243 st244 st245"> </tspan><tspan x="0" y="67.7" class="st243 st244 st245">B</tspan><tspan x="0" y="135.5" class="st243 st244 st245">U</tspan><tspan x="0" y="203.2" class="st243 st244 st245">Y</tspan></text>
			</g>
			<g id="saw2-pick_1_">
				<g>
					<path class="st165" d="M432,969.7l334.8-53.6c24.3-3.9,47.8,15.3,52.4,42.8l0.1,0.5c4.6,27.6-11.4,53.1-35.8,57L448.8,1070"/>
					<g>
						<line class="st166" x1="432" y1="969.7" x2="436.9" y2="969"/>
						<path class="st251" d="M446.9,967.4l319.9-51.2c24.3-3.9,47.8,15.3,52.4,42.8l0.1,0.5c4.6,27.6-11.4,53.1-35.8,57l-324.8,52"
							/>
						<line class="st166" x1="453.8" y1="1069.2" x2="448.8" y2="1070"/>
					</g>
				</g>
				<path class="st168" d="M444.3,976l323.2-51.7c19.8-3.2,38.9,12.4,42.7,34.8l0.4,2.5c3.8,22.4-9.2,43.1-29.1,46.3l-323.2,51.7"/>
				<path class="st169" d="M789.6,963.9c2.1,12.8-6.9,24.9-20.2,27s-25.8-6.5-27.9-19.3s6.9-24.9,20.2-27S787.4,951.1,789.6,963.9z"
					/>
				<path class="st170" d="M437.4,939L437.4,939c-4.4-4.9-10.2-8.4-16.6-10.2h0c-2.3-0.6-4.6-0.9-7-0.9l-17.4,0l-17.2-4.1
					c-1.4-0.3-2.8-0.6-4.3-0.8l-6.2-0.7c-7-0.8-14-0.7-21,0.4l-7.4,1.2c-4.6,0.7-9,1.9-13.4,3.6l-8,3.1c-7.1,2.7-13.7,6.6-19.5,11.5
					l-18.3,15.4c-4.7,3.9-8.1,9.1-9.9,14.9l-12.5,40.7l-65.6,23c-9.1,3.2-17.5,8-24.8,14.2l-0.6,0.5c-5,4.2-8.8,9.6-11.3,15.6l0,0
					c-2.1,5.3-2.8,11.1-1.8,16.8l2.5,15.1c1.1,6.6,4.6,12.5,9.8,16.8h0c3.6,3,8.1,4.6,12.8,4.8l0.7,0c8.4,0.2,16.8-0.3,25.1-1.6
					l62.2-9.8l82.3-13l11.7-13.8c1.7-2,4-3.3,6.5-3.7l89.2-15.2c1.4-0.2,2.7-1.1,3.3-2.4l0,0c0.5-1,0.7-2.2,0.5-3.4l-16.8-101
					c-0.3-1.7-0.7-3.4-1.4-5.1l-2.3-6.1C440,942.5,438.9,940.6,437.4,939z M200.5,1100.8l-12.6,0.9c-1.8,0.1-3.7-0.2-5.3-1l0,0
					c-3.1-1.5-5.2-4.4-5.7-7.7l-1.5-10.3c-0.4-2.6-0.3-5.3,0.2-7.9h0c0.9-4.5,3.2-8.5,6.6-11.6l1.6-1.5c3.6-3.2,7.7-5.6,12.3-7.2
					l61.2-21.5c1.6-0.5,3.2,0.5,3.4,2.1l5,52.5c0.1,1.4-0.9,2.6-2.3,2.9l-61.9,10.2C201.2,1100.7,200.9,1100.8,200.5,1100.8z"/>
				<path class="st171" d="M350,1095.3l30.1-4.8c3.4-0.5,6.1-3,6.9-6.3l2.5-10l-24.7,3.9L350,1095.3z"/>
				<path class="st171" d="M461.5,1058.5l-0.2,14.8c0,2.5-1.9,4.6-4.4,5l-12.5,2c-3.8,0.6-7.6-0.6-10.2-3.3l-9.3-9.3l30.6-4.8
					C458.2,1062.4,460.4,1060.8,461.5,1058.5L461.5,1058.5z"/>
				<path class="st172" d="M271.1,973.2l16.3-2.6c3.7-0.6,7.3-1.7,10.6-3.3l1.6-0.7c2.2-1.1,4.3-2.3,6.2-3.7l10.7-7.9
					c0.8-0.6,1.6-1.1,2.4-1.6l7.7-4.5c2.9-1.7,6.2-2.9,9.6-3.4l6.3-1c3.3-0.5,6.7-0.4,10,0.3l0,0c2.9,0.6,5.8,1.7,8.3,3.3l1.1,0.7
					c3.4,2,6.2,4.7,8.4,7.9l3.1,4.6l2.5,3.4c1.1,1.5,2.4,2.8,3.9,3.9l1.2,0.9c2.1,1.5,4.7,2.2,7.3,1.8l57-9l-1.1-6.6
					c-0.3-1.6-0.7-3.1-1.2-4.6l-1.9-5.1c-1.1-2.9-2.7-5.6-4.8-7.9l-0.8-0.9c-3.3-3.7-7.6-6.3-12.4-7.6l-2.6-0.7
					c-2.2-0.6-4.5-0.9-6.9-0.9l-12.3,0c-3.5,0-6.9-0.4-10.3-1.2l-9.2-2.2c-3.4-0.8-6.8-1.4-10.3-1.8l-1.2-0.1
					c-8.3-1-16.8-0.8-25.1,0.5l-2.7,0.4c-6.3,1-12.5,2.7-18.5,5l-2.2,0.9c-9.3,3.6-17.9,8.7-25.5,15l-19.1,16c-2.4,2-4.2,4.7-5,7.7
					L271.1,973.2z"/>
				<path class="st173" d="M315.1,991.3l-12.9,26.8c-0.6,1.2-0.9,2.4-1,3.7l-0.1,2.1c-0.2,2.2,0.4,4.3,1.6,6.2l0,0
					c1.5,2.2,3.7,3.9,6.4,4.5l2.5,0.6c1.4,0.3,2.8,0.4,4.2,0.2l38.2-6.1c2.6-0.4,5-1.7,6.7-3.6l18.5-20.3c1.8-2,4.2-3.3,6.9-3.7
					l64.2-10.2l-4.1-24.8l-124.6,19.7C318.8,987,316.3,988.8,315.1,991.3z"/>
				<path class="st174" d="M454.2,1015.1l-62.8,9.9c-2.6,0.4-4.7,2.1-5.5,4.5l-7.3,20.5c-0.6,1.6,0.8,3.2,2.6,3l68.3-10.8
					c1.4-0.2,2.7-0.8,3.7-1.7l1.3-1.1c0.7-0.7,1.3-1.5,1.8-2.3l0.4-0.8c0.6-1.3,0.8-2.7,0.6-4.1L454.2,1015.1z"/>
				<path class="st175" d="M415.7,1034.4c0.8,4.9-2.6,9.5-7.6,10.3c-5,0.8-9.7-2.5-10.5-7.4c-0.8-4.9,2.6-9.5,7.6-10.3
					C410.2,1026.2,414.9,1029.5,415.7,1034.4z"/>
				<path class="st175" d="M441.7,1030.2c0.8,4.9-2.6,9.5-7.6,10.3c-5,0.8-9.7-2.5-10.5-7.4c-0.8-4.9,2.6-9.5,7.6-10.3
					C436.2,1022.1,440.9,1025.4,441.7,1030.2z"/>
				<path class="st171" d="M311.1,936.6c2,2.5-3,9.7-11.2,16s-16.5,9.5-18.5,7s3-9.7,11.2-16C300.8,937.2,309.1,934.1,311.1,936.6z"
					/>
				<polygon class="st176" points="332.2,1063.7 323.5,1060.9 314.1,1063.9 319.6,1004.8 333.6,1003.6 				"/>
				<path class="st177" d="M329,1036.5c1,2.1,0.1,4.5-2,5.5c-2.1,1-4.7,0.1-5.7-2c-1-2.1-0.1-4.5,2-5.5
					C325.5,1033.6,328,1034.4,329,1036.5z"/>
				<path class="st177" d="M328.6,1050.8c1,2.1,0.1,4.5-2,5.5c-2.1,1-4.7,0.1-5.7-2c-1-2.1-0.1-4.5,2-5.5
					C325.1,1047.8,327.6,1048.7,328.6,1050.8z"/>
				<path class="st177" d="M319.6,1004.8l3.4-129.7c0.1-4.1,1.5-8.1,3.9-11.5l0,0c2.1-2.9,4.9-5.3,8.1-6.9l7.4-3.6
					c2.6-1.3,5.4-2,8.2-2.2l7.5-0.5c3.8-0.3,7.7,0.5,11.1,2.1l0.9,0.4c3.1,1.5,5.9,3.7,7.9,6.5l1.7,2.2c2.1,2.7,3.4,5.9,4,9.2
					l1.5,8.9c0.2,1,0.3,2,0.3,3.1l0.7,42.7l-11.3-2.4l-0.3-39.9c0-1-0.2-2-0.4-2.9l-1.8-6.6c-1-3.8-3.7-6.9-7.2-8.7l0,0
					c-2.5-1.2-5.2-1.6-8-1.3l-4,0.5c-2,0.3-3.9,0.9-5.5,2l-1.2,0.7c-2.6,1.6-4.5,3.9-5.6,6.7l-0.3,0.8c-0.5,1.3-0.8,2.7-0.9,4.1
					l-6,125.1L319.6,1004.8z"/>
			</g>
			<rect x="947" y="839.1" class="st242" width="526.2" height="238.5"/>
			<text id="quantity-money-saw2_x5F_buy" transform="matrix(1.0245 0 0 1 1185.4141 905.9333)" class="st247 st248">0</text>
		</g>
		<g id="pick2_x5F_buy">
			<line class="st241" x1="909.7" y1="1218.6" x2="909.7" y2="1642.5"/>
			<line class="st241" x1="38.4" y1="1642.5" x2="1505.6" y2="1642.5"/>
			<rect x="1062" y="1523.5" class="st242" width="267.5" height="70.5"/>
			<text id="money_10_" transform="matrix(1.0245 0 0 1 1062.0303 1563.8831)" class="st243 st244 st245">MONEY</text>
			<g id="buy-btn_x5F_pick2">
				<rect x="1505.6" y="1218.7" class="st246" width="140.3" height="423.8"/>
				<rect x="1557.7" y="1273" class="st242" width="69.4" height="455"/>
				<text id="sell_x5F_vertic_10_" transform="matrix(1.0245 0 0 1 1557.7041 1313.4587)"><tspan x="0" y="0" class="st243 st244 st245"> </tspan><tspan x="0" y="67.7" class="st243 st244 st245">B</tspan><tspan x="0" y="135.5" class="st243 st244 st245">U</tspan><tspan x="0" y="203.2" class="st243 st244 st245">Y</tspan></text>
			</g>
			<g id="pick2_x5F_pick">
				<path class="st190" d="M179,1583.8c-4.4-2.8-3.7-9.3,1.2-11.2l358.1-137.7l110.9-48.2l64.1-25l9.7,0.3c2.7,0.1,5.3,0.8,7.6,2
					l4.3,2.3c3.4,1.8,5.5,5.3,5.3,9l0,0.1c-0.1,2.3-0.7,4.5-1.9,6.5l-1.1,1.9c-2.2,3.8-5.5,7-9.6,8.9l-23,11.1l-38.4,13.1l-30.8,7.4
					c-15.1,3.6-29.9,8.2-44.4,13.7l-393.5,149.4c-5.1,1.9-10.8,1.3-15.4-1.6L179,1583.8z"/>
				<path class="st191" d="M719.5,1376l16.4,31.4c3.3,6.2,5.9,12.8,8,19.6l9.9,32.1c2.7,8.6,4.4,17.5,5.2,26.4l3.3,37.8
					c0.7,7.5,0.7,15,0.3,22.4l-2.2,34.9c-0.1,1.7-2.4,2-2.8,0.3l-10.3-40.3c-1.6-6.5-3.5-12.8-5.6-19.2l-12.3-37.6
					c-3.8-11.7-8.4-23.1-13.6-34.2l-10.8-22.9l-18.8-36.6l-9.1-14.4c-13.5-21.4-30-40.5-48.9-56.5l-10.8-9.2c-2.1-1.8-2-5.3,0.2-7
					l20.6-14.9c4.6-3.3,9.6-5.8,15-7.3l27.7-8c2.5-0.7,5,0.9,5.6,3.6l4.3,20c4.1,19.2,10.2,37.8,18.1,55.6L719.5,1376z"/>
			</g>
			<rect x="947" y="1262" class="st242" width="526.2" height="238.5"/>
			<text id="quantity-money-pick2_x5F_buy" transform="matrix(1.0245 0 0 1 1185.4141 1328.8074)" class="st247 st248">0</text>
		</g>
		<g id="pick3_x5F_buy">
			<line class="st241" x1="909.7" y1="1642.5" x2="909.7" y2="2066.3"/>
			<line class="st241" x1="38.4" y1="2066.3" x2="1505.6" y2="2066.3"/>
			<rect x="1062" y="1947.3" class="st242" width="267.5" height="70.5"/>
			<text id="money_9_" transform="matrix(1.0245 0 0 1 1062.0303 1987.698)" class="st243 st244 st245">MONEY</text>
			<g id="buy-btn_x5F_pick3">
				<rect x="1505.6" y="1642.5" class="st246" width="140.3" height="423.8"/>
				<rect x="1557.7" y="1694.2" class="st242" width="69.4" height="455"/>
				<text id="sell_x5F_vertic_9_" transform="matrix(1.0245 0 0 1 1557.7041 1734.6394)"><tspan x="0" y="0" class="st243 st244 st245"> </tspan><tspan x="0" y="67.7" class="st243 st244 st245">B</tspan><tspan x="0" y="135.5" class="st243 st244 st245">U</tspan><tspan x="0" y="203.2" class="st243 st244 st245">Y</tspan></text>
			</g>
			<g id="pick3_x5F_pick">
				<path class="st187" d="M200.3,2039.7c-4.4-2.8-3.7-9.3,1.2-11.2l358.1-137.7l110.9-48.2l64.1-25l9.7,0.3c2.7,0.1,5.3,0.8,7.6,2
					l4.3,2.3c3.4,1.8,5.5,5.3,5.3,9l0,0.1c-0.1,2.3-0.7,4.5-1.9,6.5l-1.1,1.9c-2.2,3.8-5.5,7-9.6,8.9l-23,11.1l-38.4,13.1l-30.8,7.4
					c-15.1,3.6-29.9,8.2-44.4,13.7l-393.5,149.4c-5.1,1.9-10.8,1.3-15.4-1.6L200.3,2039.7z"/>
				<path class="st188" d="M772.3,1888.9l-4.9-13.1c-3.9-10.3-8.7-20.2-14.4-29.7l-6.3-10.4c-1.4-2.3-2.5-4.8-3.2-7.4l-1.2-4.3
					c-4.1-15.5-9.7-30.6-16.7-45.2l-3.3-6.8c-5.7-11.9-12.7-23.3-20.7-33.9l-8.8-11.7c-7.4-9.8-15.6-19.1-24.5-27.7l-10.3-9.9
					c-5.5-5.4-11.4-10.4-17.6-15.1l-6.5-4.9c-8.9-6.7-18.5-12.5-28.7-17.1l0,0c-1.8-0.8-3.4,1.4-2,2.8l14.1,14.1
					c7.6,7.6,14.6,15.9,20.7,24.7l10,14.3c6.4,9.1,12.1,18.6,17.3,28.3l7.9,15.1c5.4,10.2,9.7,21,12.7,32.1l5.4,19.6
					c2,7.1,3.6,14.3,4.9,21.6l4.7,26c0.3,1.4,0.8,2.7,1.7,3.9l11.8,15.4c5.7,7.4,10.9,15.1,15.6,23.1l5.2,8.6
					c8.5,14.2,15.4,29.3,20.6,44.9l1.6,4.7c4.4,13.3,8,26.9,10.7,40.6l2.6,13c2,10.1,3.1,20.4,3.2,30.8l0.4,25.7
					c0,0.8,1.2,1,1.4,0.2l0,0c5.1-13.8,8.5-28.1,10.4-42.6l0.2-1.3c1.1-8.4,1.6-16.8,1.6-25.3v-9.8c0-14.2-1.1-28.4-3.4-42.5
					l-1.6-10.1C780.8,1915.6,777.2,1902.1,772.3,1888.9z"/>
			</g>
			<rect x="947" y="1683.2" class="st242" width="526.2" height="238.5"/>
			<text id="quantity-money-pick3_x5F_buy" transform="matrix(1.0245 0 0 1 1185.4141 1749.988)" class="st247 st248">0</text>
		</g>
	</g>
	<g id="menu_x5F_buy">
		<polyline class="st240" points="36.3,368.5 1643.8,368.5 1643.8,2063.8 36.3,2063.8 		"/>
		<g id="wood_x5F_buy">
			<line class="st241" x1="361.3" y1="367.6" x2="361.3" y2="791.4"/>
			<line class="st241" x1="907.7" y1="367.6" x2="907.7" y2="791.4"/>
			<line class="st241" x1="36.3" y1="791.4" x2="1503.6" y2="791.4"/>
			<rect x="80.5" y="672.4" class="st242" width="287.6" height="70.5"/>
			<text id="wood_3_" transform="matrix(1.0245 0 0 1 80.4824 712.8587)" class="st243 st244 st245">WOOD</text>
			<rect x="1060" y="672.4" class="st242" width="267.5" height="70.5"/>
			<text id="money_3_" transform="matrix(1.0245 0 0 1 1059.999 712.8587)" class="st243 st244 st245">MONEY</text>
			<path id="wood-minus_x5F_buy" class="st252" d="M569.3,726.2H412c-8.8,0-16-7.2-16-16v-32.6c0-8.8,7.2-16,16-16h157.3
				c8.8,0,16,7.2,16,16v32.6C585.3,719,578.2,726.2,569.3,726.2z"/>
			<path id="wood-plus_x5F_buy" class="st252" d="M863.7,661.6h-51.7v-44.5c0-8.3-6.1-15.1-13.7-15.1H767c-7.5,0-13.7,6.7-13.7,15.1
				v44.5h-51.7c-7.5,0-13.7,6.7-13.7,15.1v34.5c0,8.3,6.1,15.1,13.7,15.1h51.7v44.5c0,8.3,6.1,15.1,13.7,15.1h31.2
				c7.5,0,13.7-6.7,13.7-15.1v-44.5h51.7c7.5,0,13.7-6.7,13.7-15.1v-34.5C877.3,668.4,871.2,661.6,863.7,661.6z"/>
			<g id="wood_x5F_pick_1_">
				<ellipse class="st253" cx="128.7" cy="544.3" rx="63.2" ry="58.7"/>
				<ellipse class="st254" cx="128.7" cy="544.3" rx="56.1" ry="52.1"/>
				<ellipse class="st254" cx="128.7" cy="544.3" rx="48.2" ry="44.8"/>
				<ellipse class="st254" cx="128.7" cy="544.3" rx="40.8" ry="37.9"/>
				<ellipse class="st254" cx="128.7" cy="544.3" rx="33.4" ry="31"/>
				<ellipse class="st254" cx="128.7" cy="544.3" rx="25.8" ry="23.9"/>
				<ellipse class="st254" cx="128.7" cy="544.3" rx="19.2" ry="17.8"/>
				<ellipse class="st255" cx="128.7" cy="544.3" rx="10.7" ry="10"/>
				<polygon class="st256" points="115.3,487.5 292.9,428.8 303.9,431.4 313.7,437.7 322.2,447.6 324.8,461.2 324.8,474.8 
					320.9,485.7 167.8,590.4 178.2,580.8 186.4,568.4 191.3,552.9 191.9,544.3 190.4,531.4 185.3,518.1 178,507.6 170.4,500.2 
					160.7,493.7 150,489.1 138,486.3 128.7,485.7 				"/>
			</g>
			<g id="buy-btn_x5F_wood">
				<rect x="1503.6" y="367.6" class="st246" width="140.3" height="423.8"/>
				<rect x="1555.7" y="422" class="st242" width="69.4" height="455"/>
				<text id="sell_x5F_vertic_3_" transform="matrix(1.0245 0 0 1 1555.6729 462.4349)"><tspan x="0" y="0" class="st243 st244 st245"> </tspan><tspan x="0" y="67.7" class="st243 st244 st245">B</tspan><tspan x="0" y="135.5" class="st243 st244 st245">U</tspan><tspan x="0" y="203.2" class="st243 st244 st245">Y</tspan></text>
			</g>
			<rect x="400.2" y="425.1" class="st242" width="462.6" height="163.7"/>
			<text id="quantity-wood_x5F_buy" transform="matrix(1.0245 0 0 1 606.8232 491.9271)" class="st247 st248">0</text>
			<rect x="945" y="425.1" class="st242" width="526.2" height="238.5"/>
			<text id="quantity-money-wood_x5F_buy" transform="matrix(1.0245 0 0 1 1183.3828 491.8426)" class="st247 st248">0</text>
		</g>
		<g id="stone_x5F_buy">
			<line class="st241" x1="361.3" y1="792.4" x2="361.3" y2="1216.2"/>
			<line class="st241" x1="907.7" y1="792.4" x2="907.7" y2="1216.2"/>
			<line class="st241" x1="36.3" y1="1216.2" x2="1503.6" y2="1216.2"/>
			<rect x="72.6" y="1097.2" class="st242" width="287.6" height="70.5"/>
			<text id="wood_2_" transform="matrix(1.0245 0 0 1 72.5986 1137.6145)" class="st243 st244 st245">STONE</text>
			<rect x="1060" y="1097.2" class="st242" width="267.5" height="70.5"/>
			<text id="money_2_" transform="matrix(1.0245 0 0 1 1059.999 1137.6145)" class="st243 st244 st245">MONEY</text>
			<path id="stone-minus_x5F_buy" class="st252" d="M569.3,1151H412c-8.8,0-16-7.2-16-16v-32.6c0-8.8,7.2-16,16-16h157.3
				c8.8,0,16,7.2,16,16v32.6C585.3,1143.8,578.2,1151,569.3,1151z"/>
			<path id="stone-plus_x5F_buy" class="st252" d="M863.7,1086.4h-51.7v-44.5c0-8.3-6.1-15.1-13.7-15.1H767
				c-7.5,0-13.7,6.7-13.7,15.1v44.5h-51.7c-7.5,0-13.7,6.7-13.7,15.1v34.5c0,8.3,6.1,15.1,13.7,15.1h51.7v44.5
				c0,8.3,6.1,15.1,13.7,15.1h31.2c7.5,0,13.7-6.7,13.7-15.1V1151h51.7c7.5,0,13.7-6.7,13.7-15.1v-34.5
				C877.3,1093.1,871.2,1086.4,863.7,1086.4z"/>
			<g id="buy-btn_x5F_stone">
				<rect x="1503.6" y="792.4" class="st246" width="140.3" height="423.8"/>
				<rect x="1555.7" y="844.1" class="st242" width="69.4" height="455"/>
				<text id="sell_x5F_vertic_2_" transform="matrix(1.0245 0 0 1 1555.6729 884.555)"><tspan x="0" y="0" class="st243 st244 st245"> </tspan><tspan x="0" y="67.7" class="st243 st244 st245">B</tspan><tspan x="0" y="135.5" class="st243 st244 st245">U</tspan><tspan x="0" y="203.2" class="st243 st244 st245">Y</tspan></text>
			</g>
			<g id="stone_x5F_pick_1_">
				<path class="st257" d="M90.5,1002.8l15.5,8.4c13.2,7.2,27.3,11.8,41.7,13.9l1.2,0.2c13.3,1.9,26.7,2,40.1,0.4l13-1.6
					c19.8-2.4,39.2-8,57.7-16.8l31.3-14.9c2.1-1,3-3.8,2.1-6.2l-20.3-50.1c-7.5-18.5-18.4-34.7-32-47.6l-1.7-1.6
					c-14.9-14.2-32.7-23.5-51.6-27.2l-11.8-2.3c-10.7-2.1-21.6,2.1-29.2,11.1L131,887l-21.7,28.9c-6.8,9.1-11.3,20.1-13,32
					l-7.3,51.5C88.7,1000.9,89.4,1002.2,90.5,1002.8z"/>
				<path class="st258" d="M160.8,891.2l-26.1,31.1c-3.1,3.7-5.2,8.1-6,12.8l-7.4,42.8c-0.6,3.2,1.3,6.3,4.5,7.4l29,9.9
					c2.2,0.7,4.5-0.6,4.9-2.8l12.7-63.6l12.5-37.6l-6.7-3.5c-3.6-1.9-8-1.8-11.5,0.2L160.8,891.2z"/>
			</g>
			<rect x="400.2" y="844.1" class="st242" width="462.6" height="163.7"/>
			<text id="quantity-stone_x5F_buy" transform="matrix(1.0245 0 0 1 606.8232 910.9319)" class="st247 st248">0</text>
			<rect x="945" y="844.1" class="st242" width="526.2" height="238.5"/>
			<text id="quantity-money-stone_x5F_buy" transform="matrix(1.0245 0 0 1 1183.3828 910.9319)" class="st247 st248">0</text>
		</g>
		<g id="ex2_x5F_buy">
			<line class="st241" x1="907.7" y1="1216.2" x2="907.7" y2="1640"/>
			<line class="st241" x1="36.3" y1="1640" x2="1503.6" y2="1640"/>
			<rect x="1060" y="1521" class="st242" width="267.5" height="70.5"/>
			<text id="money_6_" transform="matrix(1.0245 0 0 1 1059.999 1561.4294)" class="st243 st244 st245">MONEY</text>
			<g id="buy-btn_x5F_ex2">
				<rect x="1503.6" y="1216.2" class="st246" width="140.3" height="423.8"/>
				<rect x="1555.7" y="1270.6" class="st242" width="69.4" height="455"/>
				<text id="sell_x5F_vertic_6_" transform="matrix(1.0245 0 0 1 1555.6729 1311.0051)"><tspan x="0" y="0" class="st243 st244 st245"> </tspan><tspan x="0" y="67.7" class="st243 st244 st245">B</tspan><tspan x="0" y="135.5" class="st243 st244 st245">U</tspan><tspan x="0" y="203.2" class="st243 st244 st245">Y</tspan></text>
			</g>
			<g id="ex2_x5F_pick">
				<path class="st190" d="M120.9,1566c-4.4-2.8-3.7-9.3,1.2-11.2l358.1-137.7l110.9-48.2l64.1-25l13.7,0.5l13.5,7l-0.4,9.7
					l-6.2,10.8l-29.2,14.1l-38.4,13.1l-30.8,7.4c-15.1,3.6-29.9,8.2-44.4,13.7l-393.5,149.4c-5.1,1.9-10.8,1.3-15.4-1.6L120.9,1566z
					"/>
				<path class="st191" d="M631.1,1317.4l-6-3.8c-6.7-4.2-12.9-9.1-18.5-14.6l-15.3-14.9c-1.5-1.5-4.1-0.4-4.1,1.7v20.3
					c0,7.1-0.8,14.1-2.4,21l-1.3,5.5c-2.9,12.4-3.3,25.3-1.1,37.9l0,0c1,6,2.9,11.9,5.5,17.4l0,0c6.1,12.9,9.8,26.7,11.2,40.8
					l1,10.2c0.7,7.8,0.7,15.6,0.1,23.4l-1.2,13.3c-1.4,15.4-4.2,30.7-8.4,45.6l-13.1,46.6h46.3c15.6,0,31.2-2,46.3-5.8l15.5-4
					c15.1-3.9,29.6-9.6,43.2-17.1h0c19-10.5,36-24.3,50-40.7l15.2-17.7l-28.1-13.2c-18-8.4-34.3-19.9-48.2-33.9l-8.8-8.9
					c-7.5-7.5-14.3-15.7-20.4-24.3l-18.7-26.7l-16.1-32.4l-1.8-3.3C646.9,1330.5,639.8,1322.9,631.1,1317.4z"/>
				<path class="st192" d="M581.9,1551.5l-4.5,16.1h46.3c15.6,0,31.2-2,46.3-5.8l15.5-4c15.1-3.9,29.6-9.6,43.2-17.1h0
					c19-10.5,36-24.3,50-40.7l15.2-17.7l-13.4-6.3l-14.4,13c-4.7,4.2-9.7,8.2-14.8,11.8l-10.7,7.5c-6.1,4.3-12.5,8.2-19.2,11.6
					l-12.5,6.4c-10.2,5.2-21,9.4-32.1,12.4l-12.3,3.3c-7.2,1.9-14.5,3.3-21.9,4.3l-23,2.9c-3.8,0.5-7.7,0.8-11.6,1L581.9,1551.5z"/>
			</g>
			<rect x="945" y="1259.6" class="st242" width="526.2" height="238.5"/>
			<text id="quantity-money-ex2_x5F_buy" transform="matrix(1.0245 0 0 1 1183.3828 1326.3538)" class="st247 st248">0</text>
		</g>
		<g id="ex3_x5F_buy">
			<line class="st241" x1="907.7" y1="1640" x2="907.7" y2="2063.8"/>
			<line class="st241" x1="36.3" y1="2063.8" x2="1503.6" y2="2063.8"/>
			<rect x="1060" y="1944.8" class="st242" width="267.5" height="70.5"/>
			<text id="money_1_" transform="matrix(1.0245 0 0 1 1059.999 1985.2444)" class="st243 st244 st245">MONEY</text>
			<g id="buy-btn_x5F_ex3">
				<rect x="1503.6" y="1640" class="st246" width="140.3" height="423.8"/>
				<rect x="1555.7" y="1691.8" class="st242" width="69.4" height="455"/>
				<text id="sell_x5F_vertic_1_" transform="matrix(1.0245 0 0 1 1555.6729 1732.1853)"><tspan x="0" y="0" class="st243 st244 st245"> </tspan><tspan x="0" y="67.7" class="st243 st244 st245">B</tspan><tspan x="0" y="135.5" class="st243 st244 st245">U</tspan><tspan x="0" y="203.2" class="st243 st244 st245">Y</tspan></text>
			</g>
			<g id="ex3_x5F_pick">
				<path class="st187" d="M155.6,2045c-4.4-2.8-3.7-9.3,1.2-11.2l358.1-137.7l110.9-48.2l64.1-25l13.7,0.5l13.5,7l-0.4,9.7
					l-6.2,10.8l-29.2,14.1l-38.4,13.1l-30.8,7.4c-15.1,3.6-29.9,8.2-44.4,13.7l-393.5,149.4c-5.1,1.9-10.8,1.3-15.4-1.6L155.6,2045z
					"/>
				<path class="st188" d="M800.5,1948c-18-8.4-34.3-19.9-48.2-33.9l-8.8-8.9c-7.5-7.5-14.3-15.7-20.4-24.3l-18.7-26.7l-8.2-16.6
					l-5.3-17.7l-4.4-32.1c-1.4-10.4-2-20.9-1.6-31.4l0.5-12.4c0.7-19.5,5-38.7,12.5-56.7l11.8-28.2l-23.5-3.2
					c-21.7-3-43.7-2.1-65.1,2.5h0c-15.2,3.3-30,8.6-43.9,15.6l-14.3,7.2c-13.9,7-26.8,15.7-38.4,26l-34.4,30.3l41.7,26
					c13.4,8.3,25.9,17.8,37.5,28.4l10,9.1c5.8,5.3,11.2,11.1,16,17.4l6.3,8.2c6.9,9.1,12.6,19,16.8,29.5c0.9,3.2,2,6.4,3.4,9.5
					c1.1,3.2,2.5,6.4,4,9.4c4.1,10.5,6.7,21.5,7.7,32.7l1,10.2c0.7,7.8,0.7,15.6,0.1,23.4l-1.2,13.3c-1.4,15.4-4.2,30.7-8.4,45.6
					l-13.1,46.6h46.3c15.6,0,31.2-2,46.3-5.8l15.5-4c15.1-3.9,29.6-9.6,43.2-17.1h0c19-10.5,36-24.3,50-40.7l15.2-17.7L800.5,1948z"
					/>
				<path class="st189" d="M702.2,1676.8l7.4-17.7l-23.5-3.2c-21.7-3-43.7-2.1-65.1,2.5h0c-15.2,3.3-30,8.6-43.9,15.6l-14.3,7.2
					c-13.9,7-26.8,15.7-38.4,26l-34.4,30.3l18.5,11.5l12.4-10.5c9-7.6,18.6-14.3,28.9-20.2l9.8-5.6c4.7-2.7,9.5-5.1,14.4-7.4
					l17.5-8.1c8.5-3.9,17.3-7.2,26.2-9.9l7.8-2.3c11.5-3.4,23.2-5.7,35.2-6.9l3.8-0.4c7-0.7,14.1-1,21.1-1L702.2,1676.8z"/>
				<path class="st189" d="M618.4,2023.8l-6.4,22.8h46.3c15.6,0,31.2-2,46.3-5.8l15.5-4c15.1-3.9,29.6-9.6,43.2-17.1h0
					c19-10.5,36-24.3,50-40.7l15.2-17.7l-20.1-9.4l-18.1,14.3c-2.6,2.1-5.4,4-8.4,5.6l-18.6,10.5c-4,2.2-8,4.3-12.1,6.3l-17.7,8.4
					c-8.9,4.2-18,7.7-27.5,10.4l-12.4,3.6c-5.1,1.5-10.2,2.8-15.4,3.8l-19.5,4c-6.2,1.3-12.5,2.2-18.8,2.9L618.4,2023.8z"/>
			</g>
			<rect x="945" y="1680.7" class="st242" width="526.2" height="238.5"/>
			<text id="quantity-money-ex3_x5F_buy" transform="matrix(1.0245 0 0 1 1183.3828 1747.5339)" class="st247 st248">0</text>
		</g>
	</g>
	<g id="menu_x5F_sell_1_">
		<rect x="38.6" y="370.3" class="st240" width="1602.9" height="1693.6"/>
		<g id="wood_x5F_sell_2_">
			<line class="st241" x1="363.6" y1="370.3" x2="363.6" y2="794.1"/>
			<line class="st241" x1="910" y1="370.3" x2="910" y2="794.1"/>
			<line class="st241" x1="38.6" y1="794.1" x2="1501.3" y2="794.1"/>
			<rect x="82.8" y="675.1" class="st242" width="287.6" height="70.5"/>
			<text id="wood_5_" transform="matrix(1.0245 0 0 1 82.7715 715.5418)" class="st243 st244 st245">WOOD</text>
			<rect x="1056.5" y="675.1" class="st242" width="267.5" height="70.5"/>
			<text id="money_5_" transform="matrix(1.0245 0 0 1 1056.498 715.5418)" class="st243 st244 st245">MONEY</text>
			<path id="wood-minus_x5F_sell" class="st252" d="M571.6,728.9H414.3c-8.8,0-16-7.2-16-16v-32.6c0-8.8,7.2-16,16-16h157.3
				c8.8,0,16,7.2,16,16v32.6C587.6,721.7,580.5,728.9,571.6,728.9z"/>
			<path id="wood-plus_x5F_sell" class="st252" d="M866,664.3h-51.7v-44.5c0-8.3-6.1-15.1-13.7-15.1h-31.2
				c-7.5,0-13.7,6.7-13.7,15.1v44.5h-51.7c-7.5,0-13.7,6.7-13.7,15.1v34.5c0,8.3,6.1,15.1,13.7,15.1h51.7v44.5
				c0,8.3,6.1,15.1,13.7,15.1h31.2c7.5,0,13.7-6.7,13.7-15.1v-44.5H866c7.5,0,13.7-6.7,13.7-15.1v-34.5
				C879.6,671,873.5,664.3,866,664.3z"/>
			<g id="wood_x5F_pick_2_">
				<ellipse class="st253" cx="131" cy="546.4" rx="63.2" ry="58.3"/>
				<ellipse class="st254" cx="131" cy="546.4" rx="56.1" ry="51.8"/>
				<ellipse class="st254" cx="131" cy="546.4" rx="48.2" ry="44.5"/>
				<ellipse class="st254" cx="131" cy="546.4" rx="40.8" ry="37.7"/>
				<ellipse class="st254" cx="131" cy="546.4" rx="33.4" ry="30.9"/>
				<ellipse class="st254" cx="131" cy="546.4" rx="25.8" ry="23.8"/>
				<ellipse class="st254" cx="131" cy="546.4" rx="19.2" ry="17.7"/>
				<ellipse class="st255" cx="131" cy="546.4" rx="10.7" ry="9.9"/>
				<polygon class="st256" points="117.6,489.9 295.1,431.5 306.2,434.1 316,440.3 324.5,450.2 327.1,463.7 327.1,477.3 323.2,488 
					170.1,592.2 180.5,582.7 188.7,570.3 193.6,554.9 194.2,546.4 192.7,533.6 187.6,520.3 180.3,509.9 172.7,502.5 162.9,496 
					152.3,491.4 140.3,488.7 131,488 				"/>
			</g>
			<g id="sell_x5F_btn_x5F_wood_2_">
				<rect x="1501.3" y="370.3" class="st259" width="140.3" height="423.8"/>
				<rect x="1553.4" y="405" class="st242" width="69.4" height="455"/>
				<text id="sell_x5F_vertic_5_" transform="matrix(1.0245 0 0 1 1553.3848 445.3636)"><tspan x="0" y="0" class="st243 st244 st245"> </tspan><tspan x="0" y="67.7" class="st243 st244 st245">S</tspan><tspan x="0" y="135.5" class="st243 st244 st245">E</tspan><tspan x="0" y="203.2" class="st243 st244 st245">L</tspan><tspan x="0" y="270.9" class="st243 st244 st245">L</tspan></text>
			</g>
			<rect x="411.2" y="426.4" class="st242" width="462.6" height="163.7"/>
			<text id="quantity-wood_x5F_sell" transform="matrix(1.0245 0 0 1 617.7734 493.1483)" class="st247 st248">0</text>
			<rect x="949" y="423.8" class="st242" width="526.2" height="238.5"/>
			<text id="quantity-money-wood_x5F_sell" transform="matrix(1.0245 0 0 1 1187.3916 490.5999)" class="st247 st248">0</text>
		</g>
		<g id="stone_x5F_sell_2_">
			<line class="st241" x1="363.6" y1="794.1" x2="363.6" y2="1217.9"/>
			<line class="st241" x1="910" y1="794.1" x2="910" y2="1217.9"/>
			<line class="st241" x1="38.6" y1="1217.9" x2="1501.3" y2="1217.9"/>
			<rect x="74.9" y="1098.9" class="st242" width="287.6" height="70.5"/>
			<text id="wood_4_" transform="matrix(1.0245 0 0 1 74.8867 1139.3567)" class="st243 st244 st245">STONE</text>
			<rect x="1056.5" y="1098.9" class="st242" width="267.5" height="70.5"/>
			<text id="money_4_" transform="matrix(1.0245 0 0 1 1056.498 1139.3567)" class="st243 st244 st245">MONEY</text>
			<path id="stone_x5F_minus_x5F_sell" class="st252" d="M571.6,1152.7H414.3c-8.8,0-16-7.2-16-16v-32.6c0-8.8,7.2-16,16-16h157.3
				c8.8,0,16,7.2,16,16v32.6C587.6,1145.5,580.5,1152.7,571.6,1152.7z"/>
			<path id="stone-plus_x5F_sell" class="st252" d="M866,1088.1h-51.7v-44.5c0-8.3-6.1-15.1-13.7-15.1h-31.2
				c-7.5,0-13.7,6.7-13.7,15.1v44.5h-51.7c-7.5,0-13.7,6.7-13.7,15.1v34.5c0,8.3,6.1,15.1,13.7,15.1h51.7v44.5
				c0,8.3,6.1,15.1,13.7,15.1h31.2c7.5,0,13.7-6.7,13.7-15.1v-44.5H866c7.5,0,13.7-6.7,13.7-15.1v-34.5
				C879.6,1094.9,873.5,1088.1,866,1088.1z"/>
			<g id="sell-btn_x5F_stone">
				<rect x="1501.3" y="794.1" class="st259" width="140.3" height="423.8"/>
				<rect x="1553.4" y="828.8" class="st242" width="69.4" height="455"/>
				<text id="sell_x5F_vertic_4_" transform="matrix(1.0245 0 0 1 1553.3848 869.1785)"><tspan x="0" y="0" class="st243 st244 st245"> </tspan><tspan x="0" y="67.7" class="st243 st244 st245">S</tspan><tspan x="0" y="135.5" class="st243 st244 st245">E</tspan><tspan x="0" y="203.2" class="st243 st244 st245">L</tspan><tspan x="0" y="270.9" class="st243 st244 st245">L</tspan></text>
			</g>
			<g id="stone_x5F_pick_2_">
				<path class="st257" d="M92.8,1004.6l15.5,8.4c13.2,7.2,27.3,11.8,41.7,13.9l1.2,0.2c13.3,1.9,26.7,2,40.1,0.4l13-1.6
					c19.8-2.4,39.2-8,57.7-16.8l31.3-14.9c2.1-1,3-3.8,2.1-6.2l-20.3-50.1c-7.5-18.5-18.4-34.7-32-47.6l-1.7-1.6
					c-14.9-14.2-32.7-23.5-51.6-27.2l-11.8-2.3c-10.7-2.1-21.6,2.1-29.2,11.1l-15.5,18.6l-21.7,28.9c-6.8,9.1-11.3,20.1-13,32
					l-7.3,51.5C91,1002.6,91.7,1004,92.8,1004.6z"/>
				<path class="st258" d="M163.1,892.9L137,924c-3.1,3.7-5.2,8.1-6,12.8l-7.4,42.8c-0.6,3.2,1.3,6.3,4.5,7.4l29,9.9
					c2.2,0.7,4.5-0.6,4.9-2.8l12.7-63.6l12.5-37.6l-6.7-3.5c-3.6-1.9-8-1.8-11.5,0.2L163.1,892.9z"/>
			</g>
			<rect x="411.2" y="853.4" class="st242" width="462.6" height="163.7"/>
			<text id="quantity-stone_x5F_sell" transform="matrix(1.0245 0 0 1 617.7734 920.1644)" class="st247 st248">0</text>
			<rect x="949" y="853.4" class="st242" width="526.2" height="238.5"/>
			<text id="quantity-money-stone_x5F_sell" transform="matrix(1.0245 0 0 1 1187.3916 920.1644)" class="st247 st248">0</text>
		</g>
	</g>
	<g id="sell_x5F_btn">
		<path class="st260" d="M840.1,368.5H36.4v-152c0-28,22.7-50.6,50.6-50.6h753.1V368.5z"/>
		<rect x="255.6" y="206.7" class="st242" width="509.6" height="121.9"/>
		<text id="sell" transform="matrix(0.744 0 0 1 255.626 304.8997)" class="st261 st262 st263 st264">SELL</text>
	</g>
	<g id="buy_x5F_btn">
		<path class="st265" d="M840.1,368.5l803.7,0.1l0-152c0-28-22.7-50.6-50.6-50.7l-753.1-0.1L840.1,368.5z"/>
		<rect x="1075.1" y="206.3" class="st242" width="509.6" height="121.9"/>
		<text id="buy" transform="matrix(0.744 0 0 1 1075.1328 304.5286)" class="st266 st262 st263 st264">BUY</text>
	</g>
	<g id="close-menu">
		<path class="st267" d="M1186.5,148.3H497.8c-21.9,0-39.7-17.8-39.7-39.7V64.9c0-21.9,17.8-39.7,39.7-39.7h688.7
			c21.9,0,39.7,17.8,39.7,39.7v43.7C1226.1,130.6,1208.4,148.3,1186.5,148.3z"/>
		<rect x="491.4" y="62.9" class="st242" width="698.3" height="72.8"/>
		<text transform="matrix(1.8234 0 0 1 560.5645 92.6502)" class="st268 st247 st269 st270">CLOSE MENU</text>
	</g>
	<polygon class="st252" points="1588.1,2200.8 828.1,2200.8 1208.1,2092.8 	"/>
	<polygon class="st252" points="441.8,2198 64.5,2090 819.2,2090 	"/>
	<rect id="border" x="36.4" y="368.5" class="st241" width="1607.5" height="1695.3"/>
</g>
</svg>
