<?xml version="1.0" encoding="utf-8"?>
<!-- Generator: Adobe Illustrator 21.1.0, SVG Export Plug-In . SVG Version: 6.00 Build 0)  -->
<svg version="1.1" id="game" xmlns="http://www.w3.org/2000/svg" xmlns:xlink="http://www.w3.org/1999/xlink" x="0px" y="0px"
	 viewBox="0 0 200 168" enable-background="new 0 0 200 168" xml:space="preserve">
<g id="outstone">
	<path fill="#776947" d="M6.325,140.106l4.987-27.951c1.607-9.009,4.544-17.73,8.714-25.876l12.068-23.575
		c7.486-14.624,19.168-26.679,33.549-34.62l22.236-12.279c9.433-5.209,20.267-7.315,30.965-6.018l24.24,2.938
		c11.171,1.354,21.57,6.397,29.55,14.329l7.943,7.895c8.383,8.333,13.097,19.665,13.097,31.485v68.632l-18.394,7.782
		c-18.036,7.631-37.234,12.151-56.78,13.369l-33.824,2.108c-22.369,1.394-44.734-2.773-65.1-12.13L6.325,140.106z"/>
	<path fill="#7F735C" d="M95.312,20.74L70.153,35.379c-9.349,5.44-17.056,13.304-22.306,22.761L32.273,86.195
		c-2.981,5.369-5.184,11.134-6.546,17.122l-5.847,25.716l18.038,10.08c7.741,4.326,16.461,6.597,25.329,6.597h11.053v-41.506
		c0-9.075,2.072-18.03,6.058-26.183L89.609,59.1c2.65-5.42,6.176-10.366,10.435-14.638l30.303-30.393h-10.304
		C111.355,14.068,102.821,16.371,95.312,20.74z"/>
</g>
</svg>
