<?xml version="1.0" encoding="utf-8"?>
<!-- Generator: Adobe Illustrator 21.0.0, SVG Export Plug-In . SVG Version: 6.00 Build 0)  -->
<svg version="1.1" id="game" xmlns="http://www.w3.org/2000/svg" xmlns:xlink="http://www.w3.org/1999/xlink" x="0px" y="0px"
	 viewBox="0 0 1668 2224" style="enable-background:new 0 0 1668 2224;" xml:space="preserve">
<style type="text/css">
	.st0{fill:url(#gradient4_1_);}
	.st1{fill:url(#gradient5_1_);}
	.st2{fill:#66E2FF;}
	.st3{fill:none;stroke:#B28052;stroke-miterlimit:10;}
	.st4{fill:#96735C;}
	.st5{fill:#825D49;stroke:#BF8A5E;stroke-miterlimit:10;}
	.st6{fill:#AD7D5C;stroke:#B28052;stroke-miterlimit:10;}
	.st7{fill:#BC8864;stroke:#B28052;stroke-miterlimit:10;}
	.st8{fill:#A37B61;}
	.st9{fill:#BC8866;}
	.st10{fill:#E0A57E;stroke:#B28052;stroke-miterlimit:10;}
	.st11{fill:#D19A7C;stroke:#B28052;stroke-miterlimit:10;}
	.st12{fill:#F4DBCE;}
	.st13{fill:#DBC7BF;}
	.st14{fill:#8E684F;stroke:#BF8A5E;stroke-miterlimit:10;}
	.st15{fill:#AD753E;}
	.st16{fill:#966636;}
	.st17{fill:#A87339;}
	.st18{fill:#BC8651;}
	.st19{fill:#AA7A4F;}
	.st20{fill:#C99465;}
	.st21{fill:none;stroke:#634B2A;stroke-miterlimit:10;}
	.st22{fill:#B28052;}
	.st23{fill:#96674D;stroke:#A57758;stroke-width:3;stroke-miterlimit:10;}
	.st24{fill:none;stroke:#A57758;stroke-width:3;stroke-miterlimit:10;}
	.st25{fill:#5C7552;}
	.st26{fill:#E2CA96;}
	.st27{fill:#6F8763;}
	.st28{fill:#EAD7A2;}
	.st29{fill:#F9F2EF;}
	.st30{fill:#382C26;}
	.st31{fill:#936F5F;}
	.st32{fill:#7C655C;}
	.st33{fill:#F9A182;}
	.st34{fill:#DBC697;}
	.st35{fill:#8C7857;}
	.st36{fill:#635872;}
	.st37{fill:#6B7F60;}
	.st38{fill:#755D3F;}
	.st39{fill:#C9B8A7;}
	.st40{fill:#00CFFF;}
	.st41{fill:#03CDE2;}
	.st42{fill:#00DBFF;}
	.st43{fill:#00E7FF;}
	.st44{fill:#00F3FF;}
	.st45{fill:#2EFFF9;}
	.st46{fill:#78FFF8;}
	.st47{fill:#FFF0BF;}
	.st48{fill:#F7E4A6;}
	.st49{fill:#BCCC60;}
	.st50{fill:url(#sea_1_);}
	.st51{fill:#98958C;}
	.st52{fill:#ACA7A1;}
	.st53{fill:#C2BEB5;}
	.st54{fill:#D6C8A3;}
	.st55{fill:#D3C7A7;}
	.st56{fill:#DBCDAF;}
	.st57{fill:#ADA8A2;}
	.st58{fill:#99968D;}
	.st59{fill:#C2BDB3;}
	.st60{fill:#8D8880;}
	.st61{fill:#D3CAB2;}
	.st62{fill:#8B877E;}
	.st63{fill:#9B988F;}
	.st64{fill:#B9B2AA;}
	.st65{fill:#C3BFB6;}
	.st66{fill:#DDCFAF;}
	.st67{fill:#CCBFA6;}
	.st68{fill:#CED18B;}
	.st69{fill:#99968B;}
	.st70{fill:#969089;}
	.st71{fill:#C4BFB3;}
	.st72{fill:#939189;}
	.st73{fill:#B7B5AB;}
	.st74{fill:#C6BBA5;}
	.st75{fill:#CEC2AA;}
	.st76{fill:#CCC1AA;}
	.st77{fill:#9E9C95;}
	.st78{fill:#C9BDA6;}
	.st79{fill:#C6BBA7;}
	.st80{fill:#BAB3A6;}
	.st81{fill:#A5A299;}
	.st82{fill:#CCC0A8;}
	.st83{fill:#C3BFB4;}
	.st84{fill:#9A978E;}
	.st85{fill:#B8B1AA;}
	.st86{fill:#8D877F;}
	.st87{fill:#C4BCA9;}
	.st88{fill:#B5AD9E;}
	.st89{fill:#C5BEB6;}
	.st90{fill:#B5B3AC;}
	.st91{fill:#D5D1C6;}
	.st92{fill:#BCB4B1;}
	.st93{fill:#999793;}
	.st94{fill:#8E8E87;}
	.st95{fill:#A3A19D;}
	.st96{fill:#B5B4B1;}
	.st97{fill:#A8A7A7;}
	.st98{fill:#A09D97;}
	.st99{fill:#D3CFC3;}
	.st100{fill:#ADAAA6;}
	.st101{fill:#B2B1AF;}
	.st102{fill:#9B978F;}
	.st103{fill:#AAA7A0;}
	.st104{fill:#CCC8C4;}
	.st105{fill:#D3D0CD;}
	.st106{fill:#C9C3BD;}
	.st107{fill:#B2AFA8;}
	.st108{fill:#999692;}
	.st109{fill:#898683;}
	.st110{fill:#A3A29B;}
	.st111{fill:#B2AEAA;}
	.st112{fill:#D6D0C9;}
	.st113{fill:#918D87;}
	.st114{fill:#DBD5C6;}
	.st115{fill:#B7B3AE;}
	.st116{fill:#C4C1BB;}
	.st117{fill:#9B9891;}
	.st118{fill:#D8D5CB;}
	.st119{fill:#939089;}
	.st120{fill:#A8A6A0;}
	.st121{fill:#D8D5D0;}
	.st122{fill:#A8A49B;}
	.st123{fill:#96928A;}
	.st124{fill:#CEC8C2;}
	.st125{fill:#C4996C;}
	.st126{fill:#B7845A;}
	.st127{fill:#D5A776;}
	.st128{fill:#477F16;}
	.st129{fill:#436818;}
	.st130{fill:#AA7B43;}
	.st131{fill:#B79056;}
	.st132{fill:#AD9655;}
	.st133{fill:#DD9D68;}
	.st134{fill:#C18B59;stroke:#A87848;stroke-miterlimit:10;}
	.st135{fill:#B28056;}
	.st136{fill:#AD7D59;}
	.st137{fill:#AA7D5C;}
	.st138{fill:#DDCBBF;}
	.st139{fill:#DBDAD9;}
	.st140{fill:#D8A380;}
	.st141{fill:#CE987A;}
	.st142{fill:#CC9D85;}
	.st143{fill:#C6977F;}
	.st144{fill:#C19784;}
	.st145{fill:#C69B8B;}
	.st146{fill:#B7958B;}
	.st147{fill:#AF8958;}
	.st148{fill:#967A60;}
	.st149{fill:#C9D1D3;}
	.st150{fill:#635C55;}
	.st151{fill:#65868F;}
	.st152{fill:#6CC1A0;}
	.st153{fill:#EFCE8E;}
	.st154{fill:#60523B;}
	.st155{fill:#EFC58E;}
	.st156{fill:#6D5D41;}
	.st157{fill:#E8C192;}
	.st158{fill:#EFCA7F;}
	.st159{fill:#FFFFFF;}
	.st160{fill:#E5C57C;}
	.st161{fill:#59585E;}
	.st162{fill:#6FC9A9;}
	.st163{fill:#686770;}
	.st164{fill:#86D1B1;}
	.st165{fill:#2D2924;}
	.st166{fill:none;stroke:#2D2924;stroke-width:24;stroke-miterlimit:10;}
	.st167{fill:none;stroke:#2D2924;stroke-width:24;stroke-miterlimit:10;stroke-dasharray:10.0234,10.0234;}
	.st168{fill:#C0D3D7;}
	.st169{fill:#98A9B1;}
	.st170{fill:#D8372D;}
	.st171{fill:#414143;}
	.st172{fill:#EE5547;}
	.st173{fill:#A22921;}
	.st174{fill:#9C271F;}
	.st175{fill:#D2C4A9;}
	.st176{fill:#ABABAB;}
	.st177{fill:#4F4F4F;}
	.st178{fill:none;stroke:#2D2924;stroke-width:18;stroke-miterlimit:10;}
	.st179{fill:none;stroke:#2D2924;stroke-width:18;stroke-miterlimit:10;stroke-dasharray:8.8394,8.8394;}
	.st180{fill:none;stroke:#2D2924;stroke-width:18;stroke-miterlimit:10;stroke-dasharray:9.9611,9.9611;}
	.st181{fill:#E26B47;}
	.st182{fill:#FF8243;}
	.st183{fill:#47413F;}
	.st184{fill:#EF8424;}
	.st185{fill:#FDA83D;}
	.st186{fill:#994E22;}
	.st187{fill:#965F29;}
	.st188{fill:#7F7F7F;}
	.st189{fill:#D6D5D4;}
	.st190{fill:#C98235;}
	.st191{fill:#999999;}
	.st192{fill:#E2E1E0;}
	.st193{fill:#D98D31;}
	.st194{fill:#B5B5B5;}
	.st195{fill:#7F6752;}
	.st196{fill:#777770;}
	.st197{fill:#F29575;}
	.st198{fill:#3F3831;}
	.st199{fill:url(#gradient_1_);}
	.st200{fill:#997933;}
	.st201{fill:#937334;}
	.st202{fill:#A9DB52;}
	.st203{fill:#96C639;}
	.st204{fill:#82B71C;}
	.st205{fill:#B6E55C;}
	.st206{fill:#90C125;}
	.st207{fill:#A9D146;}
	.st208{fill:#8E7036;}
	.st209{fill:#846939;}
	.st210{fill:#78A038;stroke:#81AD2B;stroke-width:3;stroke-miterlimit:10;}
	.st211{fill:#658E30;}
	.st212{fill:#85AA44;}
	.st213{fill:#7EAF31;}
	.st214{fill:#018287;}
	.st215{fill:#0F0F0F;}
	.st216{fill:#303030;}
	.st217{fill:#333333;}
	.st218{fill:#1A1A1A;}
	.st219{fill:#424242;}
	.st220{fill:#00666A;}
	.st221{fill:#212121;}
	.st222{fill:#111111;}
	.st223{fill:#A3A3A3;}
	.st224{fill:#ACACAE;}
	.st225{fill:#161616;}
	.st226{fill:#00686B;}
	.st227{fill:#161616;stroke:#373737;stroke-miterlimit:10;}
	.st228{fill:none;stroke:#D98D31;stroke-miterlimit:10;}
	.st229{fill:#242424;}
	.st230{fill:#373737;}
	.st231{fill:url(#gradient2_1_);}
	.st232{fill:url(#gradient3_1_);}
	.st233{fill:#B67D56;}
	.st234{fill:#83492A;}
	.st235{fill:#9C6038;}
	.st236{fill:#683920;}
	.st237{fill:#563119;}
	.st238{fill:#CC9E75;}
	.st239{fill:#633A23;}
	.st240{fill:#F9F6CD;}
	.st241{fill:none;stroke:#000000;stroke-miterlimit:10;}
	.st242{fill:#EDFF85;stroke:#000000;stroke-miterlimit:10;}
	.st243{fill:none;stroke:#2D2924;stroke-width:18;stroke-miterlimit:10;stroke-dasharray:10.6132,10.6132;}
	.st244{fill:none;stroke:#2D2924;stroke-width:18;stroke-miterlimit:10;stroke-dasharray:9.9851,9.9851;}
	.st245{fill:none;stroke:#2D2924;stroke-width:24;stroke-miterlimit:10;stroke-dasharray:10.1023,10.1023;}
	.st246{fill:#A59D58;}
	.st247{fill:#CCA962;}
	.st248{fill:none;stroke:#EFCF97;stroke-miterlimit:10;}
	.st249{fill:#EFCF97;}
	.st250{fill:#846431;}
	.st251{fill:#75634C;}
	.st252{fill:#7A6A59;}
	.st253{fill:#FFF980;stroke:#000000;stroke-miterlimit:10;}
	.st254{fill:#FFF980;stroke:#FFF980;stroke-miterlimit:10;}
	.st255{fill:#EDFF85;stroke:#EDFF85;stroke-miterlimit:10;}
	.st256{fill:#E5DFA1;}
	.st257{fill:#F9F6CD;stroke:#000000;stroke-miterlimit:10;}
	.st258{fill:none;stroke:#2D2924;stroke-width:24;stroke-miterlimit:10;stroke-dasharray:9.8069,9.8069;}
	.st259{fill:none;stroke:#2D2924;stroke-width:18;stroke-miterlimit:10;stroke-dasharray:11.8613,11.8613;}
	.st260{fill:none;stroke:#2D2924;stroke-width:18;stroke-miterlimit:10;stroke-dasharray:10.2463,10.2463;}
</style>
<g id="modalpier">
	<g id="fon">
		<linearGradient id="gradient4_1_" gradientUnits="userSpaceOnUse" x1="839.7307" y1="2236.6379" x2="839.7307" y2="1531.6805">
			<stop  offset="0" style="stop-color:#FBC457"/>
			<stop  offset="0.2238" style="stop-color:#FBC65A"/>
			<stop  offset="0.4136" style="stop-color:#FBCC65"/>
			<stop  offset="0.5911" style="stop-color:#FBD576"/>
			<stop  offset="0.761" style="stop-color:#FBE38F"/>
			<stop  offset="0.9242" style="stop-color:#FBF4AF"/>
			<stop  offset="1" style="stop-color:#FBFEC0"/>
		</linearGradient>
		<polygon id="gradient4" class="st0" points="-14.6,1547.7 -7.1,2236.6 1679.1,2236.6 1694.1,1549.4 1420.9,1536.6 1122,1531.7 
			776.9,1531.7 449.6,1536.6 193.4,1542.6 		"/>
		<linearGradient id="gradient5_1_" gradientUnits="userSpaceOnUse" x1="834.4955" y1="1576.5719" x2="834.4955" y2="2.356">
			<stop  offset="0" style="stop-color:#EAFFFF"/>
			<stop  offset="3.430277e-02" style="stop-color:#DCFCFF"/>
			<stop  offset="0.1825" style="stop-color:#A2EEFF"/>
			<stop  offset="0.3308" style="stop-color:#71E2FF"/>
			<stop  offset="0.4761" style="stop-color:#48D8FF"/>
			<stop  offset="0.6176" style="stop-color:#29D1FF"/>
			<stop  offset="0.7544" style="stop-color:#12CBFF"/>
			<stop  offset="0.8842" style="stop-color:#05C8FF"/>
			<stop  offset="1" style="stop-color:#00C7FF"/>
		</linearGradient>
		<polygon id="gradient5" class="st1" points="-14.6,2.4 -14.6,1576.6 42.2,1568 172.4,1548.7 289.1,1548.7 438.2,1558.3 
			580.6,1568.6 737.6,1558.3 844.1,1548.7 1014.1,1531.5 1185.4,1531.5 1344.8,1548.7 1518.1,1562.2 1683.6,1556.4 1683.6,2.4 		"/>
		<polygon id="sky" class="st2" points="-25.1,-21.9 -25.1,364.9 190.4,339.3 399.1,321.2 620.4,310.5 880.1,299.6 1216.3,299.6 
			1513,310.5 1694.1,326.3 1694.1,-37.6 		"/>
	</g>
	<g id="shipinmodal">
		<polygon class="st3" points="1087.3,896.5 1057.2,890.2 926.5,893.8 795,924.5 663.7,949.9 631.5,955.1 638.3,963.4 698,986.9 
			829.4,988.7 986.6,939.9 		"/>
		<path class="st4" d="M565.3,890.2l9.4-10.4l9.3,13.6l-9.8,95.4l-3.6,73.3c-0.3,6-0.3,12.1,0,18.1l2.8,61.9
			c0.6,12.4,1.7,24.7,3.4,36.7l4.7,33.4c1.5,10.8,3.7,21.3,6.6,31.3l19.5,67.8l-12,1.3l-12.5-13.3l-18.5-69.4l-8.6-74.6l-3.7-89.5
			l3.7-84.9L565.3,890.2z"/>
		<path class="st5" d="M555,1004.6l-20,17.1c-8.8,7.6-17.9,14.1-27.3,19.6h0c-9,5.3-17.6,12.8-25.5,22.2l-4.1,4.8v-44.5
			c0-11,2.1-21.8,6-30.5l0,0c4.5-10.2,10.5-18.1,17.3-23.1l0,0c12.9-9.4,25-21.8,36-36.9l27.1-37.2L555,1004.6z"/>
		<path class="st5" d="M553.9,1105.1l-0.6-15.6c-0.7-15.9-0.6-31.8,0.1-47.7l1.6-37.2l-28.6,24.5c-3.1,2.7-6.3,5-9.6,6.9l-13.2,7.8
			c-6.3,3.7-12.3,8.9-17.8,15.5l-7.6,9.1l0,0c0,8.4,0.9,16.7,2.6,24.5l9.5,43.3l13-10c8.8-6.8,18.1-11.5,27.6-14l8-2.1L553.9,1105.1
			z"/>
		<path class="st5" d="M560.4,1192.9l-19.2,4.5c-3.2,0.8-6.3,2.1-9.4,4l-13.8,8.8l-13-25.4c-4.5-8.9-8.1-19.1-10.6-30.2l-4.1-18.5
			l14.9-11.5c7.5-5.8,15.5-9.8,23.6-12l10-2.6l15.1-4.9l1.4,33.1c0.5,11.4,1.4,22.6,2.7,33.8L560.4,1192.9z"/>
		<path class="st5" d="M560.4,1192.9l0.7,5.8c2.4,20.7,6.2,40.8,11.2,59.9l3.8,14.3l-22.4-5.2l-6.7-7.2c-4.7-5.1-9-11.3-12.7-18.5
			l-16.3-31.7l11-7c4.9-3.1,10-5.3,15.2-6.5L560.4,1192.9z"/>
		<polygon class="st5" points="576.1,1272.8 583.1,1299.2 553.7,1267.6 		"/>
		<polygon class="st6" points="963.3,947.1 1072.5,899.1 1087.3,896.5 986.6,939.9 		"/>
		<polygon class="st6" points="1077.1,898.3 1056.2,896.5 926.7,903.3 795.5,932.7 638.3,963.4 631.5,955.1 795,924.5 926.5,893.8 
			1057.2,890.2 1087.3,896.5 		"/>
		<polygon class="st8" points="926.7,903.3 926.7,958.5 963.3,947.1 1077.1,898.3 1056.2,896.5 		"/>
		<polygon class="st9" points="926.7,903.3 926.7,958.5 829.4,988.7 698,986.9 638.3,963.4 638.3,963.4 795.5,932.7 		"/>
		<polygon class="st10" points="829.4,988.7 837.6,107.8 859.4,107.8 850.2,981.4 		"/>
		<polygon class="st11" points="663.5,220.4 1058.9,361.5 1058.9,395.4 663.5,244.8 		"/>
		<path class="st12" d="M663.5,244.8l-7.1,19.3c-2.2,6-3.4,13-3.4,20.2l0,0c0,3.7,1.6,6.6,3.6,6.6h6.8h10.4l11.9,8.1l5.6,8.9
			c4.2,6.7,7.6,14.8,10.1,23.8v0c1.9,7,4.9,12.8,8.6,16.6l0,0c6.6,6.9,13.8,11.7,21.2,14.3l3,1.1c5.9,2.1,11.9,3.1,17.9,3.1l0,0
			c5.7,0,11.2-3.9,15.4-11v0c3.1-5.3,6.7-9.6,10.6-12.7l4.2-3.4l10.8,4.1l3.8,16.8c0.9,4.2,2,8.3,3.2,12.3v0
			c2.8,9.5,6.3,18.2,10.5,25.9h0c4.7,8.5,10.3,15.2,16.5,19.5l0,0c9.1,6.4,18.8,9.7,28.5,9.7l0,0c3.6,0,7.2-0.7,10.7-2.1l1.8-0.7
			c9.2-3.6,18.1-9,26.6-16.2l5.6-4.7c1.7-1.4,3.4-2.8,5.1-4l16.1-11.7l12.7,6.8l0.2,0.5c4.8,13.2,8.8,27.3,11.8,42.2v0
			c1.9,9.4,5,17.8,9.1,24.5v0c5.2,8.5,11.3,14.8,18,18.4v0c4.7,2.6,9.6,2.8,14.3,0.6l0,0c7.1-3.2,13.7-8.8,19.6-16.6v0
			c6.4-8.4,12.2-18.4,17.2-29.6l5.2-11.6l11.2-2.7l8.5,8.8c1.3,1.3,2.8,1.5,4.1,0.5l0,0c3.2-2.3,5.3-8,5.3-14.3v-20.8L663.5,244.8z"
			/>
		<polygon class="st13" points="685.4,228.3 681.1,251.6 673.9,291 685.9,299.1 694.3,256.6 698.9,233.1 		"/>
		<polygon class="st13" points="789.1,265.3 784.6,291 782.5,339.8 793.3,343.9 796.3,295.4 801.8,269.8 		"/>
		<polygon class="st13" points="921.6,388.7 923.6,343.9 926.7,314.3 939.2,318.8 935.8,348.5 934.3,395.4 		"/>
		<polygon class="st13" points="1029.8,423.9 1029.8,384.4 1035.1,354.9 1045.4,356.7 1043.1,389.4 1041,421.2 		"/>
		<polygon class="st13" points="837.4,124.1 859.2,124.1 859,149.9 837.2,149.9 		"/>
		<polygon class="st13" points="696.1,232.1 837.3,139 837.3,132.2 689.2,229.6 		"/>
		<polygon class="st13" points="793.5,266.8 844.4,135.3 848.2,137 798.3,268.5 		"/>
		<polygon class="st13" points="930.4,315.7 849.8,145.1 852.9,141.1 936,317.7 		"/>
		<polygon class="st13" points="1036.4,355.1 857.8,141.1 859.3,137 1044.2,356.5 		"/>
		<path class="st14" d="M584,893.3l-9.8,95.4l-1.1,22.6l19.6,11.7c23.3,13.9,47.2,23.7,71.6,29.2l5.1,1.2c19.9,4.5,40,5.8,60,3.8
			l75.1-7.5c20.9-2.1,41.6-7.3,61.9-15.7l114.4-47c6.8-2.8,13.7-6,20.4-9.5l86.1-44.9v-36.2l-100.7,43.4L833,987.6
			c-2.4,0.7-4.8,1.1-7.2,1.1l-119.1-1.6c-5.7-0.1-11.4-1.2-16.9-3.4l-34.5-13.6c-11.1-4.4-21.6-12.8-30.8-24.6L584,893.3z"/>
		<path class="st14" d="M573.1,1011.3l-2.4,48.9c-0.3,7.2-0.4,14.4,0,21.6l1,21.7l35.8,7.3c16.1,3.3,32.2,4.9,48.4,4.9h33.6
			c10.5,0,21.1-0.7,31.6-2.2l91.4-12.8c22-3.1,43.8-9.7,65.2-19.8l120.8-57.1c8-3.8,16-8.1,23.8-13l65.1-40.2v-38l-86.1,44.9
			c-6.8,3.5-13.6,6.7-20.4,9.5l-112.6,46.2c-21.5,8.8-43.4,14.4-65.5,16.6l-68.3,6.8c-23.4,2.3-46.8,0.8-70-4.4l-0.5-0.1
			c-24.1-5.5-47.8-15.2-70.8-28.9L573.1,1011.3z"/>
		<path class="st14" d="M571.7,1103.5l1.7,37.6c0.6,12.9,1.8,25.8,3.5,38.4l1.3,9.3h45.7c14.5,0,28.9-1.3,43.3-3.8l61.2-10.9
			l94-20.1c24.6-5.3,48.9-14.5,72.6-27.7l99.3-55.2c13.2-7.4,26.2-15.9,39-25.6l54-41.1v-33.9l-64.3,39.7
			c-8.4,5.2-16.9,9.8-25.5,13.9L888,1076.1c-28.2,13.4-57.1,22.1-86.3,26.2l-79.4,11.1c-11.4,1.6-22.8,2.4-34.2,2.4h-27.6
			c-19.3,0-38.6-2-57.8-5.9L571.7,1103.5z"/>
		<path class="st14" d="M578.2,1188.8l1.8,13.1c2.5,17.6,6.1,34.7,10.8,50.9l4.3,14.8l58-9c13.4-2.1,26.8-5.3,40-9.7l149.4-49.5
			c21.4-7.1,42.5-17.2,63.1-30.1l87.7-55.3c11-7,21.8-15,32.3-24l54.6-47l5-18.8c1.5-5.5,2.2-11.5,2.2-17.6v-2.1l-60.3,45.9
			c-8.5,6.5-17.3,12.2-26.1,17.2l-104,57.8c-24.9,13.8-50.5,23.4-76.4,28.6l-150.6,30c-16.1,3.2-32.4,4.8-48.6,4.8H578.2z"/>
		<path class="st14" d="M595,1267.6l12.6,43.6l89.5-14.9c9.6-1.6,19.1-4.3,28.5-8l78.1-31.3c22.5-9,44.8-20.1,66.6-33.4l57.5-34.8
			c33-20,64.6-46.9,93.9-80l58.3-65.8l-47.7,41c-15.1,13-30.7,24.6-46.5,34.6l-84.6,53.4c-17.7,11.2-36,19.9-54.5,26l-152.7,50.6
			c-13.9,4.6-28,8-42.1,10.2L595,1267.6z"/>
	</g>
	<g id="pierinmodal">
		<rect x="681.1" y="1636.6" class="st15" width="77.5" height="64.7"/>
		<rect x="1481.3" y="1636.6" class="st15" width="77.5" height="64.7"/>
		<polygon class="st16" points="758.5,1636.6 1145.9,888.3 1145.9,906.8 758.5,1701.3 		"/>
		<polygon class="st17" points="681.1,1636.6 1123,888.3 1145.9,888.3 758.5,1636.6 		"/>
		<polygon class="st17" points="1481.3,1636.6 1408.2,888.3 1429.3,888.3 1558.7,1636.6 		"/>
		<polygon class="st16" points="1481.3,1701.3 1408.2,916 1408.2,888.3 1481.3,1636.6 		"/>
		<polygon class="st18" points="733,1414.4 758.5,1414.4 792,1366.7 769.1,1366.7 		"/>
		<polygon class="st19" points="758.5,1505.5 758.5,1414.4 792,1366.7 792,1448.8 		"/>
		<polygon class="st20" points="733,1414.4 733,1548.7 758.5,1505.5 758.5,1414.4 		"/>
		<polygon class="st21" points="881.9,1180.4 904,1180.4 933,1139.1 913.2,1139.1 		"/>
		<polygon class="st21" points="904,1259.2 904,1180.4 933,1139.1 933,1210.2 		"/>
		<polygon class="st21" points="881.9,1180.4 881.9,1296.6 904,1259.2 904,1180.4 		"/>
		<polygon class="st18" points="881.9,1180.4 904,1180.4 933,1139.1 913.2,1139.1 		"/>
		<polygon class="st19" points="904,1259.2 904,1180.4 933,1139.1 933,1210.2 		"/>
		<polygon class="st20" points="881.9,1180.4 881.9,1296.6 904,1259.2 904,1180.4 		"/>
		<polygon class="st18" points="1005.4,1009.9 1020.1,1009.9 1039.3,982.3 1026.2,982.3 		"/>
		<polygon class="st19" points="1020.1,1062.5 1020.1,1009.9 1039.3,982.3 1039.3,1029.8 		"/>
		<polygon class="st20" points="1005.4,1009.9 1005.4,1087.5 1020.1,1062.5 1020.1,1009.9 		"/>
		<polygon class="st18" points="1098.2,875.1 1108.7,875.1 1122.5,855.3 1113.1,855.3 		"/>
		<polygon class="st19" points="1108.7,912.8 1108.7,875.1 1122.5,855.3 1122.5,889.3 		"/>
		<polygon class="st20" points="1098.2,875.1 1098.2,930.7 1108.7,912.8 1108.7,875.1 		"/>
		<polygon class="st20" points="1538.1,1517.2 1538.1,1425.8 1562.2,1425.8 1562.2,1664.3 1558.7,1664.3 1558.7,1636.6 
			1553.7,1607.4 		"/>
		<polygon class="st19" points="1526.1,1447.9 1526.1,1373.3 1538.1,1425.8 1538.1,1517.2 		"/>
		<polygon class="st18" points="1562.2,1425.8 1545.5,1373.3 1526.1,1373.3 1538.1,1425.8 		"/>
		<polygon class="st20" points="1491.7,1250.5 1491.7,1170.3 1512.9,1170.3 1512.9,1371.4 1505.3,1329.5 		"/>
		<polygon class="st19" points="1481.2,1189.7 1481.2,1124.4 1491.7,1170.3 1491.7,1250.5 		"/>
		<polygon class="st18" points="1512.9,1170.3 1498.2,1124.4 1481.2,1124.4 1491.7,1170.3 		"/>
		<polygon class="st20" points="1457.8,1056.6 1457.8,994.4 1474.2,994.4 1474.2,1147.9 1468.4,1117.9 		"/>
		<polygon class="st19" points="1449.6,1009.5 1449.6,958.7 1457.8,994.4 1457.8,1056.6 		"/>
		<polygon class="st18" points="1474.2,994.4 1462.8,958.7 1449.6,958.7 1457.8,994.4 		"/>
		<polygon class="st20" points="1435.7,925.9 1435.7,877.7 1448.4,877.7 1448.4,973.5 1446.5,987.7 1443.9,973.5 		"/>
		<polygon class="st19" points="1429.4,889.3 1429.4,850 1435.7,877.7 1435.7,925.9 		"/>
		<polygon class="st18" points="1448.4,877.7 1439.6,850 1429.4,850 1435.7,877.7 		"/>
		<polygon class="st18" points="704.8,1621.2 1544.2,1613.5 1544.2,1593.5 704.8,1607.4 		"/>
		<polygon class="st22" points="762.5,1522.7 704.8,1607.4 1544.2,1593.5 1532.1,1516.6 		"/>
		<polygon class="st22" points="762.5,1505.5 1526.1,1498.1 1512.9,1414.4 815.7,1414.4 		"/>
		<polygon class="st18" points="762.5,1505.5 762.5,1516.6 1131.8,1516.6 1526.1,1511 1526.1,1498.1 		"/>
		<polygon class="st22" points="828.9,1405.7 1512.9,1390.5 1497,1311.7 875.6,1329.5 		"/>
		<polygon class="st18" points="1512.9,1390.5 1512.9,1405.7 828.9,1414.4 828.9,1405.7 		"/>
		<polygon class="st22" points="875.3,1316.4 1491.7,1306.1 1483.5,1249.9 916.4,1249.9 		"/>
		<polygon class="st18" points="875.3,1316.4 875.6,1329.5 1491.7,1311.7 1491.7,1306.1 		"/>
		<polygon class="st22" points="921.7,1244.5 1486.4,1244.5 1476.9,1187.4 952.2,1187.4 		"/>
		<polygon class="st18" points="921.7,1244.5 921.7,1250.5 1486.4,1249.9 1486.4,1244.5 		"/>
		<polygon class="st22" points="952.2,1180.9 1005.4,1183.9 1478.2,1183.9 1467.6,1124.4 983.9,1133.1 		"/>
		<polygon class="st18" points="952.2,1180.9 952.2,1187.4 1476.9,1187.4 1478.2,1183.9 		"/>
		<polygon class="st22" points="986.1,1129.3 1009.4,1087.5 1457.8,1080.8 1467.6,1124.4 		"/>
		<polygon class="st18" points="1467.6,1124.4 986.1,1129.3 986.1,1133.1 		"/>
		<polygon class="st22" points="1009.7,1084.9 1031.7,1045.4 1364.2,1041.3 1453.7,1041.3 1459.2,1078.2 		"/>
		<polygon class="st18" points="1009.7,1084.9 1012.8,1087.5 1457.8,1080.8 1455.7,1078.3 		"/>
		<polygon class="st22" points="1034.4,1043.6 1060.9,999.9 1444.7,994.4 1449.6,1041.3 		"/>
		<polygon class="st18" points="1034.4,1043.6 1034.4,1045.3 1449.6,1041.3 		"/>
		<polygon class="st22" points="1059.9,999.2 1084.7,958.7 1435.7,954.5 1445.3,993.2 		"/>
		<polygon class="st18" points="1445.3,993.2 1444.7,994.4 1060.9,999.9 1059.9,999.2 		"/>
		<polygon class="st22" points="1084.7,958.7 1103.5,925.9 1432.5,923.2 1438.9,954.5 		"/>
		<polygon class="st22" points="1105.4,925.6 1122.5,895 1427.6,892.4 1432.5,923.2 		"/>
	</g>
	<g id="barrels">
		<g id="barrel_2_">
			<ellipse class="st23" cx="1258" cy="718.7" rx="47.8" ry="7.3"/>
			<path class="st24" d="M1305.8,926.4c0,4-21.4,7.3-47.8,7.3s-47.8-3.3-47.8-7.3l-5.5-28.6l-3.9-31.1l-1.5-26.2v-27.1l1.8-32.5
				l4.1-33.4l5-28.8l1.5,1.8l11.7,3.2l19.3,2.3h22.8l16.4-1l11.5-1.4l5.7-1.2l4.1-1.4l2.5-2.3l4.2,22l4.4,25.3l2.3,28.5v31.7
				l-1.5,31.8l-2.1,25.2l-3.3,23.3L1305.8,926.4z"/>
			<polygon class="st23" points="1228.7,932.1 1222.7,881.7 1219.9,833.2 1221.2,777.5 1224.3,739.2 1226.1,724 1218.4,722.3 
				1213,721.3 1211.8,720.5 1210.3,718.7 1205.3,747.5 1201.2,780.9 1199.4,813.4 1199.4,840.5 1200.9,866.7 1204.8,897.7 
				1210.3,926.4 1214,929.7 1218,930.3 1221.8,931.1 1225.8,931.8 			"/>
			<polygon class="st23" points="1246.6,933.5 1243.9,880.3 1242.8,826.2 1243.7,773.8 1246.6,725.7 1239.1,725.9 1230.8,724.8 
				1226.1,724 1224.3,739.2 1221.2,777.5 1219.9,833.2 1222.7,881.7 1228.7,932.1 1235.8,932.8 1242.4,933.3 			"/>
			<polygon class="st23" points="1264.7,933.5 1265.5,878.8 1265.5,788 1263.9,725.9 1255.5,725.9 1246.6,725.7 1243.7,773.8 
				1242.8,826.2 1243.9,880.3 1246.6,933.5 1255.5,933.7 			"/>
			<polygon class="st23" points="1281.7,932.7 1285.3,883.6 1286.5,829.7 1284.9,771.2 1282,725 1274.1,725.9 1263.9,725.9 
				1265.5,788 1265.5,878.8 1264.7,933.5 1273.2,933.7 			"/>
			<polygon class="st23" points="1297.6,930.5 1303.8,880.3 1305.8,829.7 1303.2,771.2 1296.3,723 1288.6,724.4 1282,725 
				1284.9,771.2 1286.5,829.7 1285.3,883.6 1281.7,932.7 1287.4,932.1 1293.7,931.2 			"/>
			<polygon class="st23" points="1305.8,926.4 1309.8,906.4 1313.1,883.1 1315.2,857.9 1316.7,826.2 1316.7,794.5 1314.4,766 
				1310,740.7 1305.8,718.7 1304.4,720.4 1301.5,721.9 1298.4,722.6 1296.3,723 1303.2,771.2 1305.8,829.7 1303.8,880.3 
				1297.6,930.5 1300.5,929.7 1303.2,928.8 1305,927.7 			"/>
			<ellipse class="st23" cx="1242.9" cy="718.6" rx="9.7" ry="4.4"/>
		</g>
		<g id="barrel">
			<ellipse class="st23" cx="1359.4" cy="737.5" rx="60.6" ry="8.2"/>
			<path class="st24" d="M1420,972.3c0,4.5-27.1,8.2-60.6,8.2s-60.6-3.7-60.6-8.2l-7-32.4l-4.9-35.1l-2-29.6v-30.7l2.3-36.7
				l5.2-37.8l6.4-32.6l1.9,2l14.9,3.6l24.5,2.6h29l20.9-1.1l14.6-1.6l7.2-1.3l5.2-1.5l3.2-2.6l5.4,24.9l5.5,28.6l2.9,32.2V859
				l-2,35.9l-2.6,28.5l-4.2,26.3L1420,972.3z"/>
			<polygon class="st23" points="1322.1,978.8 1314.6,921.8 1311,867 1312.6,804 1316.5,760.7 1318.8,743.5 1309,741.6 
				1302.2,740.5 1300.6,739.5 1298.7,737.5 1292.4,770.1 1287.2,807.9 1284.9,844.6 1284.9,875.2 1286.9,904.8 1291.7,940 
				1298.7,972.3 1303.5,976.1 1308.5,976.8 1313.3,977.7 1318.5,978.4 			"/>
			<polygon class="st23" points="1344.9,980.3 1341.4,920.2 1340,859 1341.2,799.8 1344.9,745.5 1335.3,745.7 1324.8,744.4 
				1318.8,743.5 1316.5,760.7 1312.6,804 1311,867 1314.6,921.8 1322.1,978.8 1331.2,979.6 1339.5,980.1 			"/>
			<polygon class="st23" points="1367.8,980.3 1368.8,918.5 1368.8,815.9 1366.9,745.7 1356.1,745.7 1344.9,745.5 1341.2,799.8 
				1340,859 1341.4,920.2 1344.9,980.3 1356.1,980.6 			"/>
			<polygon class="st23" points="1389.3,979.5 1394,923.9 1395.5,863 1393.5,796.9 1389.8,744.6 1379.8,745.7 1366.9,745.7 
				1368.8,815.9 1368.8,918.5 1367.8,980.3 1378.6,980.6 			"/>
			<polygon class="st23" points="1409.6,977 1417.5,920.2 1420,863 1416.7,796.9 1407.9,742.3 1398.1,744 1389.8,744.6 
				1393.5,796.9 1395.5,863 1394,923.9 1389.3,979.5 1396.7,978.8 1404.7,977.8 			"/>
			<polygon class="st23" points="1420,972.3 1425,949.7 1429.3,923.4 1431.9,895 1433.8,859 1433.8,823.2 1430.9,791 1425.4,762.4 
				1420,737.5 1418.2,739.5 1414.5,741.1 1410.6,741.9 1407.9,742.3 1416.7,796.9 1420,863 1417.5,920.2 1409.6,977 1413.3,976.1 
				1416.7,975 1419,973.8 			"/>
			<ellipse class="st23" cx="1340.2" cy="737.4" rx="12.3" ry="4.9"/>
		</g>
		<g id="barrel_3_">
			<ellipse class="st23" cx="1375.9" cy="835.1" rx="47.8" ry="7.3"/>
			<path class="st24" d="M1423.7,1042.9c0,4-21.4,7.3-47.8,7.3s-47.8-3.3-47.8-7.3l-5.5-28.6l-3.9-31.1l-1.5-26.2v-27.1l1.8-32.5
				l4.1-33.4l5-28.8l1.5,1.8l11.7,3.2l19.3,2.3h22.8l16.4-1l11.5-1.4l5.7-1.2l4.1-1.4l2.5-2.3l4.2,22l4.4,25.3l2.3,28.5v31.7
				l-1.5,31.8l-2.1,25.2l-3.3,23.3L1423.7,1042.9z"/>
			<polygon class="st23" points="1346.6,1048.6 1340.6,998.2 1337.8,949.7 1339.1,894 1342.2,855.7 1344,840.5 1336.3,838.8 
				1330.9,837.8 1329.7,836.9 1328.2,835.1 1323.2,864 1319.1,897.4 1317.3,929.9 1317.3,957 1318.8,983.1 1322.7,1014.2 
				1328.2,1042.9 1331.9,1046.2 1335.8,1046.8 1339.7,1047.6 1343.7,1048.2 			"/>
			<polygon class="st23" points="1364.5,1049.9 1361.8,996.8 1360.7,942.6 1361.6,890.3 1364.5,842.2 1357,842.4 1348.7,841.3 
				1344,840.5 1342.2,855.7 1339.1,894 1337.8,949.7 1340.6,998.2 1346.6,1048.6 1353.7,1049.3 1360.3,1049.7 			"/>
			<polygon class="st23" points="1382.6,1049.9 1383.4,995.3 1383.4,904.5 1381.8,842.4 1373.4,842.4 1364.5,842.2 1361.6,890.3 
				1360.7,942.6 1361.8,996.8 1364.5,1049.9 1373.4,1050.2 			"/>
			<polygon class="st23" points="1399.6,1049.2 1403.2,1000 1404.4,946.2 1402.8,887.7 1399.9,841.4 1392,842.4 1381.8,842.4 
				1383.4,904.5 1383.4,995.3 1382.6,1049.9 1391.1,1050.2 			"/>
			<polygon class="st23" points="1415.5,1046.9 1421.7,996.8 1423.7,946.2 1421.1,887.7 1414.2,839.4 1406.5,840.9 1399.9,841.4 
				1402.8,887.7 1404.4,946.2 1403.2,1000 1399.6,1049.2 1405.3,1048.6 1411.6,1047.7 			"/>
			<polygon class="st23" points="1423.7,1042.9 1427.7,1022.9 1431,999.6 1433.1,974.4 1434.6,942.6 1434.6,911 1432.3,882.5 
				1427.9,857.2 1423.7,835.1 1422.3,836.9 1419.4,838.4 1416.3,839.1 1414.2,839.4 1421.1,887.7 1423.7,946.2 1421.7,996.8 
				1415.5,1046.9 1418.4,1046.2 1421.1,1045.2 1422.9,1044.2 			"/>
			<ellipse class="st23" cx="1360.8" cy="835.1" rx="9.7" ry="4.4"/>
		</g>
		<g id="barrel_1_">
			<ellipse class="st23" cx="1348.9" cy="554.8" rx="54.7" ry="6.6"/>
			<path class="st24" d="M1403.6,742.3c0,3.6-24.5,6.6-54.7,6.6c-30.2,0-54.7-2.9-54.7-6.6l-6.3-25.9l-4.4-28.1l-1.8-23.6v-24.5
				l2.1-29.3l4.7-30.2l5.7-26l1.7,1.6l13.4,2.9l22.1,2h26.2l18.8-0.9l13.2-1.3l6.5-1.1l4.7-1.2l2.8-2.1l4.9,19.9l5,22.9l2.6,25.7
				v28.6l-1.8,28.7l-2.4,22.7l-3.8,21L1403.6,742.3z"/>
			<polygon class="st23" points="1315.2,747.5 1308.4,702 1305.2,658.2 1306.7,608 1310.2,573.4 1312.3,559.6 1303.4,558.1 
				1297.3,557.2 1295.9,556.5 1294.2,554.8 1288.4,580.8 1283.7,611 1281.7,640.3 1281.7,664.8 1283.4,688.4 1287.9,716.5 
				1294.2,742.3 1298.5,745.3 1303,745.9 1307.3,746.6 1312,747.2 			"/>
			<polygon class="st23" points="1335.8,748.7 1332.7,700.7 1331.4,651.9 1332.5,604.6 1335.8,561.2 1327.2,561.4 1317.7,560.4 
				1312.3,559.6 1310.2,573.4 1306.7,608 1305.2,658.2 1308.4,702 1315.2,747.5 1323.4,748.1 1330.9,748.5 			"/>
			<polygon class="st23" points="1356.5,748.7 1357.4,699.3 1357.4,617.4 1355.6,561.4 1345.9,561.4 1335.8,561.2 1332.5,604.6 
				1331.4,651.9 1332.7,700.7 1335.8,748.7 1345.9,748.9 			"/>
			<polygon class="st23" points="1375.9,748 1380.1,703.7 1381.5,655 1379.7,602.3 1376.4,560.5 1367.3,561.4 1355.6,561.4 
				1357.4,617.4 1357.4,699.3 1356.5,748.7 1366.2,748.9 			"/>
			<polygon class="st23" points="1394.3,746 1401.3,700.7 1403.6,655 1400.6,602.3 1392.7,558.7 1383.9,560 1376.4,560.5 
				1379.7,602.3 1381.5,655 1380.1,703.7 1375.9,748 1382.6,747.5 1389.8,746.7 			"/>
			<polygon class="st23" points="1403.6,742.3 1408.2,724.3 1412,703.3 1414.3,680.5 1416.1,651.9 1416.1,623.3 1413.5,597.6 
				1408.5,574.7 1403.6,554.8 1402,556.4 1398.7,557.7 1395.1,558.4 1392.7,558.7 1400.6,602.3 1403.6,655 1401.3,700.7 1394.3,746 
				1397.6,745.3 1400.6,744.5 1402.7,743.5 			"/>
			<ellipse class="st23" cx="1331.6" cy="554.8" rx="11.1" ry="3.9"/>
		</g>
	</g>
	<g id="dealer_1_">
		<g id="body_x5F_dealer">
			<path class="st25" d="M406.2,1130.8l-7.2,1.6c-9.2,2.1-17.9,6-25.5,11.5l-14.2,10.2l38.8,28.2l48.9,21.7l44-18.3l24-31.6
				l-16-11.4c-7.4-5.3-15.6-9.3-24.3-12l0,0H406.2z"/>
			<polygon class="st26" points="406.8,1081.2 406.8,1125.2 403.5,1154.1 476.4,1154.1 473.9,1121.9 473.8,1083.2 			"/>
			<path class="st26" d="M380.2,1146.5l-7.6,4.3c-1.9,1.1-1.9,5.7,0,6.9l21.8,13.4c3.4,2.1,7,3.6,10.6,4.5l34,8.2
				c5.5,1.3,11.1,1.4,16.6,0.3l15.4-3.2c10.7-2.2,20.9-9.3,29.5-20.5l0,0c2-2.6,1.5-8.1-0.9-9.5l-10.3-6c-1.4-0.8-2.7-1.4-4.1-2
				l-40.6-6.8l-54.3,6.6C386.8,1143.3,383.4,1144.6,380.2,1146.5z"/>
			<path class="st27" d="M359.3,1154.1l-42.2,20.1l-15,22.5l-9.2,35.4l-4.8,116.3c-0.6,14.7-3,29.3-7.1,43.4l-3.9,13.4
				c-3.9,13.3-6.7,27-8.4,40.8l-2.7,22c-0.7,5.9-0.7,11.8,0.2,17.7l0,0c2.2,15.3,8.6,29.6,18.6,41.4l2.4,2.9l36.7,12.9l62.8,11.3
				l17.2,1.8c28.6,3.1,57.5,2.4,85.9-1.8l10.8-1.6l45.3-8.1c5.9-1.1,11.7-3.2,16.9-6.2h0c18.2-10.7,33.8-25.4,45.7-42.8l0,0
				c1.1-1.6,1.7-3.5,1.7-5.4v-23.4c0-5.6-0.4-11.1-1.2-16.6l-3.4-24.7c-1.1-7.7-2.7-15.2-4.8-22.7l-3.6-12.5
				c-4.4-15.1-7-30.7-7.7-46.4l-6.1-127.7l-7.2-30.3l-17.4-18.1l-43.7-13.5l-13.7,18.1c-6.7,8.9-15.7,15.8-26,20.1l-14,5.8
				c-9.1,3.8-19.4,3.7-28.4-0.4l-30.4-13.5c-2.9-1.3-5.6-2.9-8.2-4.7L359.3,1154.1z"/>
			<g id="headdealer_1_">
				<path class="st28" d="M333.1,874v-40.5l2.5-41.3l11.5-41.3l18.1-26.3c0,0,21.1-18.4,22.6-18.4c1.5,0,29-8.8,29-8.8l30.2-4.4
					l30.2,5.3l27,14.1l23.1,21.1l11,20.2l8,34.2l2.5,44.8l-2,77.3l5.5,42.3c1,7.5,1.5,15.2,1.5,22.9v17.7c0,11.1-1,22.2-3.1,32.8
					l-2,10.4c-2.6,13.5-6.8,25.9-12.3,36.4l-5.8,11c-5.6,10.8-12.6,19.3-20.2,25l-9.5,7c-4,3-8.2,5.2-12.5,6.5l-18.8,6
					c-3.5,1.1-6.9,2.7-10.2,4.9l-7.3,4.8c-3.5,2.3-7.2,3.4-10.9,3.4h-4.8c-2.4,0-4.7-1.1-6.8-3.2l0,0c-5-5.1-10.6-8.4-16.3-9.7
					l-5-1.1c-7.1-1.6-14.2-4.2-21.1-7.7l-3.2-1.6c-7.7-3.9-15.1-9.5-22-16.6l-5.8-6c-6.2-6.4-11.7-14.7-16.2-24.6l-1.7-3.7
					c-6.1-13.3-10.4-28.8-12.7-45.4l-0.5-3.8c-1.6-11.4-2.2-23.2-1.8-34.9l0.9-24.6c0.3-7.8,1.1-15.5,2.6-22.9l6-30.4V874z"/>
				<ellipse class="st29" cx="405.9" cy="874" rx="27.1" ry="26.5"/>
				<ellipse class="st30" cx="405.9" cy="874" rx="10.9" ry="19.1"/>
				<ellipse class="st29" cx="488.2" cy="874" rx="27.1" ry="26.5"/>
				<ellipse class="st30" cx="488.2" cy="874" rx="10.9" ry="19.1"/>
				<path class="st31" d="M370.2,815.3l1.2,10.5c0.2,1.8,1.2,2.9,2.2,2.4l14.3-6.9c1.6-0.8,3.3-1.4,4.9-1.7l14.6-3.1
					c1.5-0.3,3.1-0.4,4.6-0.1l21.1,3.8l7.2,1.6c0.5,0.1,0.9-1.1,0.4-1.7l-3.6-5.5c-1.5-2.3-3.2-4-5.1-5.1l-11.1-6.8
					c-3.6-2.2-7.4-3.3-11.2-3.3h-13c-3.9,0-7.7,1.1-11.4,3.1l-13.2,7.4C370.8,810.5,370,812.9,370.2,815.3z"/>
				<path class="st31" d="M522.3,813.5l-1.3,12.9c-0.1,1.2-0.8,2-1.5,1.7l-15.1-6.7c-1.6-0.7-3.2-1.2-4.8-1.5l-13.9-2.5
					c-2-0.4-4.1-0.3-6.1,0.1l-20.3,4.3l-6.8,1.7c-0.7,0.2-1-1.3-0.5-2l2.7-4.3c1.8-2.9,4-5.2,6.3-6.7l11.6-7.6
					c2.7-1.7,5.5-2.7,8.4-2.8l14.9-0.5c3.6-0.1,7.1,0.7,10.6,2.5l14.4,7.6C521.9,810.3,522.5,811.9,522.3,813.5z"/>
				<path class="st26" d="M442.4,906.7l-3,19.5c-0.4,2.8-1.2,5.5-2.1,7.9L432,947c-1,2.4-2.2,4.5-3.6,6.3l-3.8,4.8
					c-1.6,2-2.8,4.8-3.5,8l-0.2,0.8c-0.6,2.7-0.3,5.8,0.7,8.2l0,0c1.3,3,3.2,5.1,5.4,5.9l6,2.3l8.9,2.3c0.7,0.2,1.5,0.3,2.2,0.3h6.7
					c1.2,0,2.3-0.2,3.5-0.5l4.8-1.5c2.1-0.7,4.2-2.2,5.9-4.5l0.5-0.6c1.4-1.9,2.4-4.5,2.8-7.5l0,0c0.4-3,0.1-6.1-0.8-8.7l-1.7-4.8
					c-0.4-1.2-0.9-2.2-1.5-3.2l-4.6-8.1c-0.9-1.5-1.6-3.3-2.1-5.2l-3.6-13.3c-0.6-2.1-1-4.2-1.3-6.5l-1.7-13.5c-0.3-2.5-1-4.8-2-6.6
					l0,0c-0.9-1.7-2.4-2.1-3.6-1h0C443.9,901.6,442.8,903.9,442.4,906.7z"/>
				<polygon class="st32" points="393.7,1009.5 409.6,1023.6 432.2,1033.2 457,1033.2 478.3,1024.9 495.2,1013 483.6,1054.3 
					464.8,1073.6 441.9,1082.4 422.4,1076.3 405.3,1059.1 398.6,1038.5 				"/>
				<path class="st29" d="M404.4,1019l5.2,4.6l22.6,9.7H457l21.3-8.3l6.4-4.5l-1.8,7.6c-0.8,3.3-2.4,5.9-4.4,7l-11.2,6.2l-13.3,4.4
					c-0.9,0.3-1.9,0.5-2.9,0.5h-15.9l-13-2.4c-1.5-0.3-3-1-4.4-2l-8.8-6.7c-1.9-1.5-3.4-4.5-3.8-8.2L404.4,1019z"/>
				<path class="st29" d="M408.8,1062.7l13.5,13.6l19.6,6.1l22.8-8.8l15.5-15.9l-1.6-3.2c-0.8-1.6-2.2-2.1-3.2-1l-8.8,8.2
					c-1.3,1.3-2.8,2.1-4.3,2.6l-17.8,5.7c-1.7,0.6-3.5,0.6-5.2,0.3l-12.1-2.5c-2.2-0.5-4.4-1.7-6.4-3.6l-6.5-6.2
					c-1.1-1-2.4-0.7-3.3,0.7L408.8,1062.7z"/>
				<path class="st33" d="M424,1067l18.1,3.7l22.6-7.2l-4-3.7c-2.6-2.3-5.4-3.6-8.3-3.6h-4.3h-10.9h-2.7c-3.6,0-6.9,2.8-9.1,7.7
					L424,1067z"/>
				<ellipse class="st28" cx="325.9" cy="893.1" rx="12.2" ry="43.6"/>
				<ellipse class="st34" cx="325" cy="889.2" rx="6.6" ry="27.7"/>
				<ellipse class="st28" cx="554" cy="893.1" rx="12.2" ry="43.6"/>
				<ellipse class="st34" cx="555.9" cy="889.2" rx="5.9" ry="27.7"/>
				<path class="st35" d="M329.1,851l4,6.9l2.3,16.1l2.8,19.1l8.3,3.6l-2-35.2l0.3-26.3l3.8-35.5l10-28.2l16.6-12.3h9l7.8,12.3
					l-1-12.3l-3-7l10,2.2l10.3,7l1.5-9.2v-7l11,1.8l19.2,4.8l-3.3-9.2l18.6,2.2l13.4,7.5l5.7,10.1v-11l-1-8.8l8.8,5.3l8.3,8.8
					l6,12.7l2.9-13.2l5.4-4l6.3,2.2l8.5,12.7l7.5,15.4l4,17.2l2-10.2l2.5,19.3l1.8,19.4l2.3,29.8v18.4l6.5-4.8l2.4-16.8l1.5-7.4
					l1.8-19.3l4.1-21.6l-1.8-15.4l-5.3-34.2l5.3,5.7l-8.5-22l-12.8-14.1l9.1-11l-12.4-4.4l-10-16.2l-2.5,7.9l-6.8-20.6l-8,4.4
					l-11.5-14.1l-23.8,2.2l-10.3-18.9l1.3,19.8L435.5,653l9,14.5v7.5l-13.8-6.6c0,0-8.7,4.8-10.1,6.1s-24.5,7.5-24.5,7.5l4-11
					l-12.6,5.3l-5.5,12.7h-20.6l-11.5,7.5l11,1.3l6.3,2.6l-10.8,12.7l-12.8,14.9l-12.1,18.4l-2.4,14.5l6.5-9.7l6.5-3.1l-5.8,15.8
					l-4.8,21.5l-4.2,19.3l-1.4,19.8L329.1,851z"/>
			</g>
			<path class="st36" d="M287.2,1530.1l2.9,91.2l4.3,81.6l4.9,63.3l3.1,29l22.1,7.5h33.1h22.7l12.9-5.4l10.1-67.6
				c3.1-20.7,7.8-41.2,14.1-61.2l6.7-21.3c4.8-15.1,10.5-29.9,17.2-44.2l6.7-14.2c1.1-2.4,4.6-2.4,5.8,0l11.3,23.8
				c2.4,5.1,4.6,10.4,6.4,15.7l13.6,39.9c5.4,16,9.4,32.4,11.9,49.1l11,74.7l6.9,6.4l21.3,4.3h28.2l25.8-7.5l3.1-30.1l4.3-65.5
				l3.7-92.3l-4.8-96.5l-17.2,14.7c-16,11.5-34.3,19.2-53.7,22.7l-24.9,4.4l-0.5,0.1c-35.3,5.3-71.1,6.1-106.6,2.3l-6.8-0.7l-51-9.2
				c-7.8-1.4-15.5-3.4-22.9-6L287.2,1530.1z"/>
			<path class="st37" d="M316.6,1174.3l-15.2,7.5l-17,29.4l-19.7,48.5l-21.6,60.5l-20.7,76.3l-16.2,74.9c-1.6,7.2-1,15.3,1.6,21.6h0
				c2.8,7,6.9,12,11.7,14.2l5.6,2.6c4.5,2.2,9.2,3.2,13.9,3.2h0c1.9,0,3.7-2.1,4.4-5.2l12-53.5l13.1-58.7l16.9-52l22.5-40.3
				l14.1-43.7l10.3-53.5v-24.3L316.6,1174.3z"/>
			<path class="st38" d="M295.2,1815l3.5-6.7c3.8-7.4,8.9-12.8,14.4-15.2l5-2.2c2.4-1.1,4.9-1.6,7.4-1.6h17.9H365h10.7
				c4.9,0,9.6,3.2,13.2,9.1l1.2,1.9c2.5,4,4.6,8.7,6.2,13.9l0.8,2.6c1.3,4.3,2.3,9,2.9,13.8l3.1,26.8l-15.7,6.8L364,1870
				c-2.8,0.7-5.7,1-8.5,1h-20.9c-2.2,0-4.5-0.4-6.7-1.1l-23.2-7.5l-16.4-6.8l1.7-21.3C290.6,1827.2,292.4,1820.4,295.2,1815z"/>
			<path class="st39" d="M288.3,1855.7v15.3l22.7,8.1c13.5,4.8,27.2,7.2,40.9,7.2h0c7.4,0,14.8-1.4,22-4.2l29.1-11.2v-13.6
				l-37.5,11.8c-3.9,1.2-7.8,1.8-11.7,1.8h-12.6c-6.7,0-13.3-1.2-19.8-3.5L288.3,1855.7z"/>
			<path class="st38" d="M602,1815.5l-4.1-7.7c-3.4-6.4-7.8-10.9-12.7-13l-5.9-2.5c-2.5-1.1-5.2-1.6-7.8-1.5l-17.7,0.5l-21.6,0.6
				l-10.6,0.3c-5,0.1-9.8,3.6-13.4,9.6l-2,3.3c-1.8,3.1-3.4,6.7-4.5,10.6l-1.7,5.8c-1.1,3.6-1.8,7.5-2.3,11.5l-3,28.2l15.8,6.4
				l22.3,4.9c3.6,0.8,7.1,1.1,10.7,1l16.5-0.4c4.4-0.1,8.8-0.9,13.1-2.4l20-7l16.3-7.2l-1.9-20.8C606.9,1828,605,1821,602,1815.5z"
				/>
			<path class="st39" d="M609.5,1856.3l0.1,15.3l-27.7,10.7c-10,3.9-20.2,5.9-30.5,6.2h0c-10.9,0.3-21.8-1.5-32.4-5.3l-24.1-8.6
				l-0.1-13.6l37.5,10.8c3.9,1.1,7.9,1.7,11.9,1.6l14.8-0.4c5.2-0.1,10.3-1.2,15.3-3.1L609.5,1856.3z"/>
			<path class="st28" d="M238.9,1513.1l3.1,27.5c0.1,2.9,0.2,5.7,0.4,8.5l1.7,23.1c0.3,3.6-0.1,7.3-1.1,10.7l-0.4,1.3
				c-0.5,1.6-1.6,2.3-2.6,1.5h0c-2.2-1.6-3.9-4.6-4.8-8.2l-2.7-11.2l-1.4,30.2c-0.1,3.2-1.1,6.2-2.6,8.3h0
				c-3.7,5.2-8.7,7.2-13.4,5.4l-4-1.5c-5.8-2.2-11-7.4-14.9-15l-4.6-9.1c-2.7-5.3-3.8-12.3-3.1-19.1l2.9-28.6
				c0.6-5.9,1.8-11.6,3.4-16.8l12.8-27.1l6,8.9l7.7,6.3l10.9,4.3L238.9,1513.1z"/>
		</g>
		<g id="arm_x5F_dealer_1_">
			<g id="first-arm-dealer_1_">
				<path class="st37" d="M653.2,1301.1l-13.4-11.7l-10.7,4.8l-5.3,9.4l0.6,12.7l4,19.2l10.4,20.6l19.3,30.6l18.6,26.3l21.8,28.4
					l15,17.8c0,0,6.5-5.6,8.3-8.5l1.3-2c0.8-1.3,1.5-2.7,2.2-4.2l0,0c2.8-6.7,6.5-14.7,6.1-23.9l-25.5-42.7l-26.2-41.1L653.2,1301.1
					z"/>
				<path class="st28" d="M731,1423.6l18.3,5.6c1.7,1.3,3.4,2.4,5.1,3.4l14.1,8.4c2.2,1.3,4.3,3.6,6,6.6l0.7,1.2
					c0.8,1.4,1,3.5,0.3,4.6l0,0c-1.5,2.5-3.6,3.6-6,3.2l-7.2-1.2l17.5,16.4c1.9,1.8,3.4,4.6,4.3,7.8l0,0c2.2,8,2.1,16.4-0.1,22.6
					l-6.6,9.4c-5.1,7.3-11.3,12.5-18.3,15.4l-7.3,3c-2.4,1-5.4-0.8-7.5-4.5l-5.9-10.6l-8.2-15.9c0,0-4.7-10.1-6.7-15.6l-8.8-25
					l4.9-5.4l5.6-8.5l5.2-14.2L731,1423.6z"/>
			</g>
			<polygon id="second-arm-dealer_1_" class="st37" points="575,1178.2 588.6,1192.1 607.7,1217.3 632.8,1256.1 651,1291.3 
				651.5,1317.5 644,1333.3 633.5,1339.1 616.7,1325.6 592.3,1300.8 563.5,1258 543.2,1224.3 537.8,1209 537.8,1198.5 541.1,1191.8 
				546.2,1184.7 557.2,1178.7 568.5,1176.4 			"/>
		</g>
	</g>
</g>
<g id="menu">
</g>
</svg>
