<?xml version="1.0" encoding="utf-8"?>
<!-- Generator: Adobe Illustrator 21.1.0, SVG Export Plug-In . SVG Version: 6.00 Build 0)  -->
<svg version="1.1" id="game" xmlns="http://www.w3.org/2000/svg" xmlns:xlink="http://www.w3.org/1999/xlink" x="0px" y="0px"
	 viewBox="0 0 1668 2224" style="enable-background:new 0 0 1668 2224;" xml:space="preserve">
<style type="text/css">
	.st0{fill:url(#gradient4_1_);}
	.st1{fill:url(#gradient5_1_);}
	.st2{fill:#66E2FF;}
	.st3{fill:none;stroke:#B28052;stroke-miterlimit:10;}
	.st4{fill:#96735C;}
	.st5{fill:#825D49;stroke:#BF8A5E;stroke-miterlimit:10;}
	.st6{fill:#AD7D5C;stroke:#B28052;stroke-miterlimit:10;}
	.st7{fill:#BC8864;stroke:#B28052;stroke-miterlimit:10;}
	.st8{fill:#A37B61;}
	.st9{fill:#BC8866;}
	.st10{fill:#E0A57E;stroke:#B28052;stroke-miterlimit:10;}
	.st11{fill:#D19A7C;stroke:#B28052;stroke-miterlimit:10;}
	.st12{fill:#F4DBCE;}
	.st13{fill:#DBC7BF;}
	.st14{fill:#8E684F;stroke:#BF8A5E;stroke-miterlimit:10;}
	.st15{fill:#AD753E;}
	.st16{fill:#966636;}
	.st17{fill:#A87339;}
	.st18{fill:#BC8651;}
	.st19{fill:#AA7A4F;}
	.st20{fill:#C99465;}
	.st21{fill:none;stroke:#634B2A;stroke-miterlimit:10;}
	.st22{fill:#B28052;}
	.st23{fill:#96674D;stroke:#A57758;stroke-width:3;stroke-miterlimit:10;}
	.st24{fill:none;stroke:#A57758;stroke-width:3;stroke-miterlimit:10;}
	.st25{fill:#5C7552;}
	.st26{fill:#E2CA96;}
	.st27{fill:#6F8763;}
	.st28{fill:#EAD7A2;}
	.st29{fill:#F9F2EF;}
	.st30{fill:#382C26;}
	.st31{fill:#936F5F;}
	.st32{fill:#7C655C;}
	.st33{fill:#F9A182;}
	.st34{fill:#DBC697;}
	.st35{fill:#8C7857;}
	.st36{fill:#635872;}
	.st37{fill:#6B7F60;}
	.st38{fill:#755D3F;}
	.st39{fill:#C9B8A7;}
	.st40{fill:#00CFFF;}
	.st41{fill:#03CDE2;}
	.st42{fill:#00DBFF;}
	.st43{fill:#00E7FF;}
	.st44{fill:#00F3FF;}
	.st45{fill:#2EFFF9;}
	.st46{fill:#78FFF8;}
	.st47{fill:#FFF0BF;}
	.st48{fill:#F7E4A6;}
	.st49{fill:#BCCC60;}
	.st50{fill:url(#sea_1_);}
	.st51{fill:#98958C;}
	.st52{fill:#ACA7A1;}
	.st53{fill:#C2BEB5;}
	.st54{fill:#D6C8A3;}
	.st55{fill:#D3C7A7;}
	.st56{fill:#DBCDAF;}
	.st57{fill:#ADA8A2;}
	.st58{fill:#99968D;}
	.st59{fill:#C2BDB3;}
	.st60{fill:#8D8880;}
	.st61{fill:#D3CAB2;}
	.st62{fill:#8B877E;}
	.st63{fill:#9B988F;}
	.st64{fill:#B9B2AA;}
	.st65{fill:#C3BFB6;}
	.st66{fill:#DDCFAF;}
	.st67{fill:#CCBFA6;}
	.st68{fill:#CED18B;}
	.st69{fill:#99968B;}
	.st70{fill:#969089;}
	.st71{fill:#C4BFB3;}
	.st72{fill:#939189;}
	.st73{fill:#B7B5AB;}
	.st74{fill:#C6BBA5;}
	.st75{fill:#CEC2AA;}
	.st76{fill:#CCC1AA;}
	.st77{fill:#9E9C95;}
	.st78{fill:#C9BDA6;}
	.st79{fill:#C6BBA7;}
	.st80{fill:#BAB3A6;}
	.st81{fill:#A5A299;}
	.st82{fill:#CCC0A8;}
	.st83{fill:#C3BFB4;}
	.st84{fill:#9A978E;}
	.st85{fill:#B8B1AA;}
	.st86{fill:#8D877F;}
	.st87{fill:#C4BCA9;}
	.st88{fill:#B5AD9E;}
	.st89{fill:#C5BEB6;}
	.st90{fill:#B5B3AC;}
	.st91{fill:#D5D1C6;}
	.st92{fill:#BCB4B1;}
	.st93{fill:#999793;}
	.st94{fill:#8E8E87;}
	.st95{fill:#A3A19D;}
	.st96{fill:#B5B4B1;}
	.st97{fill:#A8A7A7;}
	.st98{fill:#A09D97;}
	.st99{fill:#D3CFC3;}
	.st100{fill:#ADAAA6;}
	.st101{fill:#B2B1AF;}
	.st102{fill:#9B978F;}
	.st103{fill:#AAA7A0;}
	.st104{fill:#CCC8C4;}
	.st105{fill:#D3D0CD;}
	.st106{fill:#C9C3BD;}
	.st107{fill:#B2AFA8;}
	.st108{fill:#999692;}
	.st109{fill:#898683;}
	.st110{fill:#A3A29B;}
	.st111{fill:#B2AEAA;}
	.st112{fill:#D6D0C9;}
	.st113{fill:#918D87;}
	.st114{fill:#DBD5C6;}
	.st115{fill:#B7B3AE;}
	.st116{fill:#C4C1BB;}
	.st117{fill:#9B9891;}
	.st118{fill:#D8D5CB;}
	.st119{fill:#939089;}
	.st120{fill:#A8A6A0;}
	.st121{fill:#D8D5D0;}
	.st122{fill:#A8A49B;}
	.st123{fill:#96928A;}
	.st124{fill:#CEC8C2;}
	.st125{fill:#C4996C;}
	.st126{fill:#B7845A;}
	.st127{fill:#D5A776;}
	.st128{fill:#477F16;}
	.st129{fill:#436818;}
	.st130{fill:#AA7B43;}
	.st131{fill:#B79056;}
	.st132{fill:#AD9655;}
	.st133{fill:#DD9D68;}
	.st134{fill:#C18B59;stroke:#A87848;stroke-miterlimit:10;}
	.st135{fill:#B28056;}
	.st136{fill:#AD7D59;}
	.st137{fill:#AA7D5C;}
	.st138{fill:#DDCBBF;}
	.st139{fill:#DBDAD9;}
	.st140{fill:#D8A380;}
	.st141{fill:#CE987A;}
	.st142{fill:#CC9D85;}
	.st143{fill:#C6977F;}
	.st144{fill:#C19784;}
	.st145{fill:#C69B8B;}
	.st146{fill:#B7958B;}
	.st147{fill:#AF8958;}
	.st148{fill:#967A60;}
	.st149{fill:#C9D1D3;}
	.st150{fill:#635C55;}
	.st151{fill:#65868F;}
	.st152{fill:#6CC1A0;}
	.st153{fill:#EFCE8E;}
	.st154{fill:#60523B;}
	.st155{fill:#EFC58E;}
	.st156{fill:#6D5D41;}
	.st157{fill:#E8C192;}
	.st158{fill:#EFCA7F;}
	.st159{fill:#FFFFFF;}
	.st160{fill:#E5C57C;}
	.st161{fill:#59585E;}
	.st162{fill:#6FC9A9;}
	.st163{fill:#686770;}
	.st164{fill:#7F6752;}
	.st165{fill:#777770;}
	.st166{fill:#F29575;}
	.st167{fill:#CE6E6E;}
	.st168{fill:#3F3831;}
	.st169{fill:#86D1B1;}
	.st170{fill:#2D2924;}
	.st171{fill:none;stroke:#2D2924;stroke-width:24;stroke-miterlimit:10;}
	.st172{fill:none;stroke:#2D2924;stroke-width:24;stroke-miterlimit:10;stroke-dasharray:10.0234,10.0234;}
	.st173{fill:#C0D3D7;}
	.st174{fill:#98A9B1;}
	.st175{fill:#D8372D;}
	.st176{fill:#414143;}
	.st177{fill:#EE5547;}
	.st178{fill:#A22921;}
	.st179{fill:#9C271F;}
	.st180{fill:#D2C4A9;}
	.st181{fill:#ABABAB;}
	.st182{fill:#4F4F4F;}
	.st183{fill:none;stroke:#2D2924;stroke-width:18;stroke-miterlimit:10;}
	.st184{fill:none;stroke:#2D2924;stroke-width:18;stroke-miterlimit:10;stroke-dasharray:8.8394,8.8394;}
	.st185{fill:none;stroke:#2D2924;stroke-width:18;stroke-miterlimit:10;stroke-dasharray:9.9611,9.9611;}
	.st186{fill:#E26B47;}
	.st187{fill:#FF8243;}
	.st188{fill:#47413F;}
	.st189{fill:#EF8424;}
	.st190{fill:#FDA83D;}
	.st191{fill:#994E22;}
	.st192{fill:#965F29;}
	.st193{fill:#7F7F7F;}
	.st194{fill:#D6D5D4;}
	.st195{fill:#C98235;}
	.st196{fill:#999999;}
	.st197{fill:#E2E1E0;}
	.st198{fill:#D98D31;}
	.st199{fill:#B5B5B5;}
	.st200{fill:url(#gradient_1_);}
	.st201{fill:#997933;}
	.st202{fill:#937334;}
	.st203{fill:#A9DB52;}
	.st204{fill:#96C639;}
	.st205{fill:#82B71C;}
	.st206{fill:#B6E55C;}
	.st207{fill:#90C125;}
	.st208{fill:#A9D146;}
	.st209{fill:#8E7036;}
	.st210{fill:#846939;}
	.st211{fill:#78A038;stroke:#81AD2B;stroke-width:3;stroke-miterlimit:10;}
	.st212{fill:#658E30;}
	.st213{fill:#85AA44;}
	.st214{fill:#7EAF31;}
	.st215{fill:#018287;}
	.st216{fill:#0F0F0F;}
	.st217{fill:#303030;}
	.st218{fill:#333333;}
	.st219{fill:#1A1A1A;}
	.st220{fill:#424242;}
	.st221{fill:#00666A;}
	.st222{fill:#212121;}
	.st223{fill:#111111;}
	.st224{fill:#A3A3A3;}
	.st225{fill:#ACACAE;}
	.st226{fill:#161616;}
	.st227{fill:#00686B;}
	.st228{fill:#161616;stroke:#373737;stroke-miterlimit:10;}
	.st229{fill:none;stroke:#D98D31;stroke-miterlimit:10;}
	.st230{fill:#242424;}
	.st231{fill:#373737;}
	.st232{fill:url(#gradient2_1_);}
	.st233{fill:url(#gradient3_1_);}
	.st234{fill:#B67D56;}
	.st235{fill:#83492A;}
	.st236{fill:#9C6038;}
	.st237{fill:#683920;}
	.st238{fill:#563119;}
	.st239{fill:#CC9E75;}
	.st240{fill:#633A23;}
	.st241{fill:#C4ED6B;stroke:#000000;stroke-miterlimit:10;}
	.st242{fill:#435E60;}
	.st243{fill:#E1EA6C;stroke:#000000;stroke-miterlimit:10;}
	.st244{fill:#D6A3A3;}
	.st245{fill:#F94848;}
	.st246{fill:#F9F6CD;stroke:#000000;stroke-miterlimit:10;}
	.st247{fill:#EAAB6C;stroke:#EAAB6C;stroke-miterlimit:10;}
	.st248{fill:none;stroke:#FFC088;stroke-miterlimit:10;}
	.st249{fill:#FFC088;stroke:#FFC088;stroke-miterlimit:10;}
	.st250{fill:#996531;}
	.st251{fill:#EDC500;}
	.st252{fill:#D1AF02;}
	.st253{fill:none;stroke:#2D2924;stroke-width:18;stroke-miterlimit:10;stroke-dasharray:11.8613,11.8613;}
	.st254{fill:none;stroke:#2D2924;stroke-width:18;stroke-miterlimit:10;stroke-dasharray:10.2463,10.2463;}
	.st255{fill:none;stroke:#2D2924;stroke-width:24;stroke-miterlimit:10;stroke-dasharray:9.8069,9.8069;}
	.st256{fill:#776947;}
	.st257{fill:#7F735C;}
	.st258{fill:#FFFFFF;stroke:#000000;stroke-miterlimit:10;}
	.st259{font-family:'MyriadPro-Regular';}
	.st260{font-size:100px;}
	.st261{letter-spacing:20;}
	.st262{fill:#5D91ED;}
	.st263{font-size:90px;}
	.st264{letter-spacing:9;}
	.st265{font-size:72px;}
	.st266{letter-spacing:14;}
</style>
<g id="menu_x5F_char">
	<g id="bag_x5F_char">
		<g id="perf2-pick_x5F_bag">
			<rect id="perf2-fon" x="1319.1" y="1475" class="st246" width="323.4" height="308"/>
			<g id="perf2-pick">
				<path class="st215" d="M1352.5,1716c0.8,2.5,1.8,4.8,2.9,7.1l2.9,5.9c0.7,1.5,1.5,2.9,2.4,4.3l2.7,4.4c2.1,3.4,4.5,6.5,7.1,9.2
					l0.8,0.8c2.5,2.5,5.5,4.1,8.6,4.5c2.4,0.4,4.9,0.1,7.2-0.9l3.3-1.3c1.1-0.5,2.3-1.1,3.3-1.8l22.9-16.4l3.1-0.6l2.2,0.9l12,16.8
					c0.2,0.2,0.4,0.5,0.6,0.7c1.1,1,2.5,1,3.6,0.2l38.1-27.4c0.5-0.3,0.6-1.1,0.3-1.7l0,0c0.1-0.4,0.2-0.9,0.2-1.3l0-0.1
					c0-1-0.2-1.9-0.6-2.7l-28.4-57.8l1.8-16l3.1-2.3c1.1-0.8,1.5-2.5,0.8-3.9l-14-27.9c-0.7-1.3-2.1-1.8-3.2-0.9l-92.8,71.1
					c-0.5,0.4-0.9,0.8-1.2,1.3l-1,1.5c-0.2,0.3-0.4,0.7-0.6,1.1l-0.9,2c-0.4,0.9-0.6,2-0.6,3.1l0,0.1c0,1.2,0.3,2.3,0.8,3.3
					c0.5,1,1.2,1.8,2,2.3l4,2.7l2,2.1l1.3,2.6l0.1,0.8c0.5,4.3,1.4,8.6,2.8,12.6L1352.5,1716z M1368.7,1708.7l-2.1-5.5
					c-0.2-0.5-0.3-1-0.5-1.5l-1.1-4.4c-0.2-0.8-0.3-1.7-0.3-2.6l-0.1-2c0-0.7,0-1.3,0.1-1.9l0.1-1.2c0.1-1.2,0.5-2.3,0.9-3.4l0,0
					c0.6-1.3,1.4-2.5,2.3-3.4l1.5-1.4c0.3-0.3,0.6-0.6,1-0.8l8.9-6.4l5.9,0.8c0.9,0.1,1.7,0.7,2.1,1.7l0.1,0.3
					c0.3,0.6,0.4,1.2,0.4,1.9l-0.1,2.2c-0.1,2.6,0.4,5.3,1.6,7.5l14.8,30.1l-15.2,10.9c-0.2,0.2-0.5,0.3-0.8,0.4l-2.6,1.1
					c-1.1,0.4-2.2,0.4-3.2-0.2c-0.4-0.2-0.7-0.5-1.1-0.8l-2-2.1c-0.2-0.2-0.4-0.5-0.6-0.7l-4.4-6.7L1368.7,1708.7z"/>
				<path class="st216" d="M1368.6,1706.9l-2.1,0.9c-1.1,0.5-2.3,0.5-3.4,0l-0.4-0.2c-1-0.4-1.9-1.1-2.5-2.1l-3-4.5
					c-0.9-1.4-2.1-2.6-3.4-3.4l-1.8-1.2c-1.2-0.8-2.1-1.9-2.8-3.2l-0.9-1.7c-0.5-1.1-0.9-2.3-1-3.5l-1-11.1l-2.8,2.1
					c-0.5,0.4-0.9,0.8-1.2,1.3l-1,1.5c-0.2,0.3-0.4,0.7-0.6,1.1l-0.9,2c-0.4,0.9-0.6,2-0.6,3.1l0,0.1c0,1.2,0.3,2.3,0.8,3.3l0,0
					c0.5,1,1.2,1.8,2,2.3l3.4,2.3c0.4,0.3,0.8,0.6,1.1,1l0.6,0.7c0.6,0.6,1.1,1.3,1.4,2.1l0.5,0.9c0.2,0.3,0.3,0.7,0.3,1.1l0,0
					c0.5,4.5,1.5,8.8,2.9,13l0.4,1.1c0.8,2.5,1.9,5,3,7.3l2.8,5.7c0.8,1.5,1.6,3,2.4,4.4l5.3,8.6c0.3,0.4,0.8,0.5,1.2,0.2l13.3-13.2
					l-1.2-1.3l-4.4-6.7c-0.2-0.2-0.3-0.5-0.4-0.8l-4.9-10c-0.5-1-1.3-3.1-1.3-3.1L1368.6,1706.9z"/>
				<path class="st216" d="M1410.4,1736.1l-5.5-11.2c-0.2-0.5,0-1.1,0.4-1.2l16.1-3.5c3.9-0.8,7.6-2.5,11-4.9l32.1-22.5l11.6,23.6
					c0.4,0.8,0.6,1.8,0.6,2.7l0,0.1c0,0.4-0.1,0.9-0.2,1.3l0,0c-0.3,1.1-0.9,2.1-1.8,2.7l-36.7,26.3c-0.7,0.5-1.5,0.7-2.2,0.5l0,0
					c-0.8-0.2-1.5-0.6-2-1.3l-11.2-15.6c-0.5-0.8-1.3-1.3-2-1.6l0,0c-0.7-0.3-1.4-0.3-2.1-0.2l-1.2,0.2c-0.6,0.1-1.1,0.3-1.6,0.7
					L1410.4,1736.1z"/>
				<path class="st217" d="M1462.5,1709l1.7-1.2c0.6-0.5,1.5-0.2,1.8,0.6l7,14.3c0.4,0.8,0.2,1.8-0.5,2.2l-1.7,1.2
					c-0.6,0.5-1.5,0.2-1.8-0.6l-7-14.3C1461.6,1710.4,1461.8,1709.4,1462.5,1709z"/>
				<path class="st217" d="M1456.1,1713.6l2-1.4c0.6-0.4,1.3-0.2,1.6,0.5l7.2,14.7c0.3,0.7,0.1,1.5-0.4,1.9l-2,1.4
					c-0.6,0.4-1.3,0.2-1.6-0.5l-7.2-14.7C1455.3,1714.8,1455.5,1714,1456.1,1713.6z"/>
				<path class="st217" d="M1450.1,1717.9l1.7-1.2c0.6-0.5,1.5-0.2,1.8,0.6l7,14.3c0.4,0.8,0.2,1.8-0.5,2.2l-1.7,1.2
					c-0.6,0.5-1.5,0.2-1.8-0.6l-7-14.3C1449.2,1719.3,1449.4,1718.3,1450.1,1717.9z"/>
				<path class="st217" d="M1444,1722.3l1.9-1.3c0.6-0.4,1.4-0.2,1.7,0.5l7.1,14.5c0.3,0.7,0.2,1.6-0.4,2.1l-1.9,1.3
					c-0.6,0.4-1.4,0.2-1.7-0.5l-7.1-14.5C1443.2,1723.6,1443.4,1722.7,1444,1722.3z"/>
				<path class="st217" d="M1437.8,1726.7l2.2-1.6c0.5-0.4,1.1-0.2,1.4,0.4l7.4,15c0.3,0.6,0.1,1.4-0.4,1.7l-2.2,1.6
					c-0.5,0.4-1.1,0.2-1.4-0.4l-7.4-15C1437.1,1727.8,1437.3,1727.1,1437.8,1726.7z"/>
				<path class="st217" d="M1431.8,1731l2.1-1.5c0.5-0.4,1.2-0.2,1.6,0.5l7.2,14.8c0.3,0.7,0.1,1.5-0.4,1.9l-2.1,1.5
					c-0.5,0.4-1.2,0.2-1.6-0.5l-7.2-14.8C1431.1,1732.2,1431.3,1731.3,1431.8,1731z"/>
				<path class="st218" d="M1396,1701.6l53.9-38.7l-2.1-4.2l1.8-16l3.4-2.4c1-0.7,1.3-2.3,0.7-3.5l-14.3-28.4
					c-0.6-1.2-1.9-1.6-2.9-0.8l-64.8,49.6l7.8,16.9l6.1,0.9c0.7,0.1,1.4,0.6,1.8,1.4l0.3,0.7c0.2,0.5,0.4,1,0.3,1.6l-0.1,2.9
					c-0.1,2.3,0.4,4.6,1.4,6.6L1396,1701.6z"/>
				<polygon class="st219" points="1465.9,1628.3 1453.8,1637 1439.1,1607.9 1451.5,1599.1 				"/>
				<path class="st220" d="M1467.6,1628l4.6-3.3c1.9-1.4,2.5-4.4,1.4-6.7l-11-22.5c-1.1-2.3-3.6-3.1-5.5-1.7l-4.6,3.3
					c-0.8,0.6-1.1,1.8-0.6,2.8l13.4,27.4C1465.8,1628.2,1466.8,1628.5,1467.6,1628z"/>
				<polygon class="st219" points="1488.7,1606.3 1473.3,1617.3 1462.9,1596 1478.3,1585 				"/>
				<path class="st215" d="M1501.5,1599.7l-9.9,7.1c-1.1,0.8-2.5,0.3-3.1-1l-10.2-20.8c-0.6-1.3-0.3-3,0.8-3.8l9.9-7.1
					L1501.5,1599.7z"/>
				<path class="st219" d="M1502.1,1595.6l-2,1.4l-9.3-19l2.2-1.6c2.4-1.7,5.4-0.8,6.8,2.1l4.1,8.4
					C1505.4,1589.9,1504.6,1593.8,1502.1,1595.6z"/>
				<path class="st221" d="M1501.8,1599.4l-0.3,0.2l-12.5-25.5l0.1-0.1c1.6-1.1,3.6-0.5,4.5,1.4l9.3,19
					C1503.7,1596.2,1503.2,1598.4,1501.8,1599.4z"/>
				<path class="st222" d="M1435.8,1633.4c3.8,7.4,1.9,17-4.2,21.6c-6.1,4.5-14.1,2.3-17.8-5.1s-1.9-17,4.2-21.6
					C1424.1,1623.7,1432.1,1626,1435.8,1633.4z"/>
				<path class="st223" d="M1432.2,1651l-3.9,2.9c-0.6,0.5-1.4,0.2-1.8-0.5l-9.8-19.2c-0.4-0.7-0.2-1.7,0.4-2.2l3.9-2.9
					c0.6-0.5,1.4-0.2,1.8,0.5l9.8,19.2C1433,1649.6,1432.8,1650.6,1432.2,1651z"/>
				<path class="st221" d="M1481.8,1585.2l6.9-5c0.6-0.4,0.7-1.3,0.4-2l0-0.1c-0.3-0.7-1.1-0.9-1.6-0.5l-6.9,5
					c-0.6,0.4-0.7,1.3-0.4,2l0,0.1C1480.5,1585.4,1481.2,1585.6,1481.8,1585.2z"/>
				<path class="st221" d="M1483.8,1589.3l6.9-5c0.6-0.4,0.7-1.3,0.4-2l0-0.1c-0.3-0.7-1.1-0.9-1.6-0.5l-6.9,5
					c-0.6,0.4-0.7,1.3-0.4,2l0,0.1C1482.5,1589.4,1483.2,1589.7,1483.8,1589.3z"/>
				<path class="st221" d="M1485.7,1593.3l6.9-5c0.6-0.4,0.7-1.3,0.4-2l0-0.1c-0.3-0.7-1.1-0.9-1.6-0.5l-6.9,5
					c-0.6,0.4-0.7,1.3-0.4,2l0,0.1C1484.4,1593.5,1485.1,1593.7,1485.7,1593.3z"/>
				<path class="st221" d="M1487.7,1597.4l6.9-5c0.6-0.4,0.7-1.3,0.4-2l0-0.1c-0.3-0.7-1.1-0.9-1.6-0.5l-6.9,5
					c-0.6,0.4-0.7,1.3-0.4,2l0,0.1C1486.4,1597.6,1487.1,1597.8,1487.7,1597.4z"/>
				<path class="st221" d="M1489.7,1601.4l6.9-5c0.6-0.4,0.7-1.3,0.4-2l0-0.1c-0.3-0.7-1.1-0.9-1.6-0.5l-6.9,5
					c-0.6,0.4-0.7,1.3-0.4,2l0,0.1C1488.5,1601.6,1489.2,1601.8,1489.7,1601.4z"/>
				<path class="st221" d="M1491.7,1605.4l6.9-5c0.6-0.4,0.7-1.3,0.4-2l0-0.1c-0.3-0.7-1.1-0.9-1.6-0.5l-6.9,5
					c-0.6,0.4-0.7,1.3-0.4,2l0,0.1C1490.4,1605.6,1491.2,1605.8,1491.7,1605.4z"/>
				<polygon class="st224" points="1511.1,1582.1 1504.1,1587.1 1499.6,1578.1 1506.6,1573 				"/>
				<path class="st225" d="M1626.2,1493.6l-6.7,13.2c-0.7,1.3-1.5,2.3-2.5,3l-95.8,69.4c-2.9,2.1-6.4,3.1-10,2.8l0,0l-4.5-9l0,0
					c1.6-4.1,4-7.3,7-9.5l95.7-69.2c1-0.7,2.2-1.2,3.4-1.2l12.7-0.9C1626,1492.1,1626.5,1493.1,1626.2,1493.6z"/>
			</g>
		</g>
		<g id="perf-pick_x5F_bag">
			<rect id="perf-fon" x="995.7" y="1475" class="st246" width="323.4" height="308"/>
			<g id="perf-pick">
				<path class="st215" d="M1124.5,1597.7l-98.8,68c-0.3,0.2-0.7,0.5-0.9,0.9l-1.1,1.4c-0.3,0.4-0.5,0.8-0.7,1.3l-0.7,2
					c-0.2,0.5-0.3,1.1-0.3,1.7l0,0.4c0,0.9,0.1,1.8,0.5,2.6l0,0c0.3,0.7,0.8,1.3,1.5,1.8l0.4,0.3c0.5,0.3,1,0.5,1.5,0.6l1.3,0.2
					c0.1,0,0.3,0,0.4,0.1l1.3,0.4c0.6,0.2,1.2,0.5,1.7,1l0,0c0.6,0.6,1,1.5,1.1,2.4l0.6,3.2l-0.1,7.2l1.1,11.1l3.2,13l13.3,38
					c0.2,0.7,0.6,1.2,1.1,1.6l0,0c0.9,0.8,2.1,1.1,3.2,0.9l0.7-0.1c0.6-0.1,1.1-0.3,1.6-0.7l9.3-6.4c0.6-0.4,1.1-1,1.4-1.8l0,0
					c0.3-0.7,0.4-1.5,0.4-2.3l-0.1-2.8c0-0.6-0.1-1.2-0.3-1.7l-14.7-42.5c-0.2-0.6-0.3-1.3-0.2-2h0c0.2-1.5,0.7-2.9,1.6-4l0.8-1
					l9.5-6.3c0.5-0.3,0.9-0.5,1.4-0.7l6.2-2.1l13.6-4.4l17.5-8.5c0.7-0.3,1.3-0.7,1.9-1.1l20.2-14.3c1.2-0.9,2.3-1.8,3.4-2.9
					l4.4-4.5c3.8-3.9,6.7-8.9,8.4-14.6l0.1-0.2c0.4-1.3,0.6-2.7,0.6-4.1l0-0.8c0-1.8-0.4-3.6-1.1-5.2l-10.9-23.1
					c-0.3-0.6-0.7-1.2-1.3-1.5l-0.4-0.3c-0.3-0.2-0.6-0.4-1-0.4l0,0C1126,1597.1,1125.2,1597.2,1124.5,1597.7z"/>
				<path class="st226" d="M1083,1679.6l-6.9-48.6l48.4-33.3c0.7-0.5,1.6-0.7,2.4-0.5l0,0c0.3,0.1,0.7,0.2,1,0.4l0.4,0.3
					c0.5,0.4,1,0.9,1.3,1.5l11.3,24c0.5,1,0.7,2.1,0.7,3.3l0,2.6c0,0.9-0.1,1.8-0.4,2.6l-0.9,3c-1.3,4.3-3.5,8.1-6.4,11.1l-5.8,5.9
					c-1,1.1-2.2,2-3.4,2.9l-19.4,13.8c-1.2,0.8-2.4,1.5-3.6,2.1l-16.7,8.1L1083,1679.6z"/>
				<polygon class="st227" points="1026,1678.7 1077.8,1643.1 1077.3,1639.6 1022.9,1677.1 1024.9,1678.5 				"/>
				<path class="st226" d="M1032.1,1685.9l3.5,13.8c0.4,1.7,0.9,3.3,1.5,4.9l3.4,9.1c1.3,3.4,3,6.5,5.1,9.2l1.5,2
					c1.3,1.6,2.9,2.8,4.6,3.4l2.5,0.8c1.2,0.4,2.4,0.5,3.5,0.5l4.6-0.2l4.3,12.4c0.2,0.6,0.3,1.3,0.4,1.9l0.1,2.9
					c0,0.7-0.1,1.3-0.3,1.9l-0.1,0.4c-0.3,0.7-0.7,1.2-1.2,1.6l-9.3,6.4c-0.5,0.4-1.1,0.6-1.8,0.7l-1.2,0.2c-0.7,0.1-1.4-0.1-2-0.5
					l-0.5-0.4c-0.6-0.5-1-1.1-1.3-1.8l-12.5-35.6c-0.5-1.5-1-3-1.3-4.5l-1.9-7.6c-0.5-2.1-0.9-4.2-1.1-6.3l-0.7-6.7
					c-0.1-0.8-0.1-1.6-0.1-2.5L1032.1,1685.9z"/>
				<path class="st228" d="M1044.6,1703.9c0.7,1.5,2.3,2,3.5,1.2c1.2-0.8,1.7-2.7,1-4.2c-0.7-1.5-2.3-2-3.5-1.2
					C1044.3,1700.5,1043.9,1702.4,1044.6,1703.9z"/>
				<path class="st226" d="M1051.9,1697.2l0.1-0.4c0.1-1,0.5-2,1.1-2.8l0.8-1.1c0.2-0.3,0.5-0.5,0.7-0.7l4.4-2.9l-2,2.1
					c-0.8,0.8-1.3,2-1.4,3.3l0,0.7c0,0.6,0,1.3,0.3,1.9l4.1,11.9c0.2,0.7,0.3,1.4,0.1,2.1l0,0c-0.1,0.5-0.4,0.9-0.8,1.2l-1.2,0.8
					c-0.4,0.3-1,0.1-1.2-0.5l-4.6-13.3C1051.9,1698.9,1051.8,1698,1051.9,1697.2z"/>
				<path class="st230" d="M1047.3,1685.7l4.5-3.1c1-0.7,1.4-2.3,0.8-3.6l-3.8-8.1c-0.6-1.3-1.9-1.7-3-1l-4.5,3.1
					c-1,0.7-1.4,2.3-0.8,3.6l3.8,8.1C1044.9,1686,1046.2,1686.4,1047.3,1685.7z"/>
				<path class="st215" d="M1046.6,1684l4.4-3c0.7-0.5,1-1.6,0.6-2.5l0,0c-0.4-0.9-1.3-1.2-2-0.7l-4.4,3c-0.7,0.5-1,1.6-0.6,2.5l0,0
					C1044.9,1684.2,1045.8,1684.5,1046.6,1684z"/>
				<path class="st231" d="M1105.6,1643.4c3.2,6.8,10.3,9.2,16,5.3c5.6-3.9,7.6-12.5,4.4-19.3c-3.2-6.8-10.3-9.2-16-5.3
					C1104.4,1627.9,1102.4,1636.6,1105.6,1643.4z"/>
				<path class="st230" d="M1118.9,1647.4l3.4-2.3c0.6-0.4,0.8-1.4,0.5-2.2l-8.2-17.4c-0.4-0.8-1.2-1-1.8-0.6l-3.4,2.3
					c-0.6,0.4-0.8,1.4-0.5,2.2l8.2,17.4C1117.5,1647.6,1118.3,1647.9,1118.9,1647.4z"/>
				<polygon class="st231" points="1135.9,1594.1 1129.2,1598.7 1140.9,1623.7 1147.6,1619.1 				"/>
				<polygon class="st226" points="1140.3,1592.6 1136.4,1595.3 1147.2,1618.2 1151.1,1615.5 				"/>
				<polygon class="st231" points="1149.7,1585 1139.9,1591.8 1151.5,1616.4 1161.2,1609.6 				"/>
				<polygon class="st230" points="1161.2,1609.6 1162.9,1602.8 1155.5,1587 1149.7,1585 				"/>
				<polygon class="st226" points="1162.9,1602.8 1173.8,1592.7 1174.6,1590 1170.5,1581.4 1168.3,1581.2 1155.5,1587 				"/>
				<polygon class="st224" points="1180.8,1583.8 1174,1588.6 1171.1,1582.6 1177.9,1577.8 				"/>
				<path class="st225" d="M1292.8,1501.1l-7.5,10.8c-0.7,1-1.6,1.9-2.6,2.6l-92.8,65.7c-2.8,2-6,3.2-9.2,3.6l0,0l-2.9-6l0,0
					c1.9-3.3,4.4-6,7.3-8.1l92.6-65.6c1-0.7,2.1-1.2,3.2-1.4l11.4-2.6C1292.8,1500,1293.1,1500.7,1292.8,1501.1z"/>
			</g>
		</g>
		<g id="pick3-pick_x5F_bag">
			<rect id="pick3-fon" x="672.3" y="1475" class="st246" width="323.4" height="308"/>
			<g id="pick3-pick">
				<path class="st192" d="M709.3,1750.8c-2.1-1.1-2.3-4.6-0.4-6.1l143.6-107l44-36.1l25.7-19.3l4.2-0.7c1.2-0.2,2.3-0.1,3.5,0.4
					l2.1,0.8c1.6,0.6,2.8,2.3,3,4.3l0,0c0.1,1.2,0,2.5-0.3,3.6l-0.3,1.1c-0.6,2.3-1.8,4.2-3.4,5.7l-9.1,8.1l-15.5,10.6l-12.7,6.8
					c-6.2,3.3-12.3,7.2-18.1,11.5L717.6,1751c-2,1.5-4.5,1.7-6.7,0.6L709.3,1750.8z"/>
				<path class="st193" d="M944,1616.8l-3.1-6.5c-2.5-5.1-5.3-10-8.6-14.5l-3.6-5c-0.8-1.1-1.4-2.3-1.9-3.7l-0.8-2.2
					c-3-7.9-6.6-15.5-10.8-22.6l-1.9-3.3c-3.4-5.8-7.3-11.3-11.6-16.2l-4.7-5.4c-4-4.6-8.2-8.8-12.8-12.5l-5.2-4.3
					c-2.8-2.3-5.7-4.5-8.8-6.4l-3.2-2c-4.4-2.8-9-4.9-13.7-6.5h0c-0.8-0.3-1.3,1.1-0.6,1.7l7.2,6.2c3.9,3.4,7.5,7.1,10.9,11.2
					l5.4,6.7c3.5,4.3,6.7,8.8,9.7,13.5l4.6,7.3c3.1,5,5.8,10.3,8,16l3.9,9.9c1.4,3.6,2.7,7.3,3.8,11.1l4.1,13.4
					c0.2,0.7,0.6,1.4,1.1,1.9l6.3,7.1c3,3.4,5.9,7.1,8.6,10.9l2.9,4.1c4.8,6.8,9,14.2,12.4,22.1l1.1,2.4c3,6.7,5.6,13.6,7.8,20.7
					l2.1,6.7c1.7,5.2,2.9,10.6,3.8,16.1l2.2,13.7c0.1,0.4,0.6,0.4,0.6,0l0,0c1.1-7.8,1.5-15.8,1.1-23.7l0-0.7
					c-0.2-4.6-0.6-9.1-1.3-13.6l-0.8-5.3c-1.1-7.6-2.7-15.1-4.8-22.4l-1.5-5.3C949.8,1630.3,947.2,1623.4,944,1616.8z"/>
			</g>
		</g>
		<g id="pick2-pick_x5F_bag">
			<rect id="pick2-fon" x="348.9" y="1475" class="st246" width="323.4" height="308"/>
			<g id="pick2-pick">
				<path class="st195" d="M388.9,1752.2c-2.3-0.8-2.9-4.5-1-6.3l139.9-131.7l42.6-43.8l25-23.8l4.3-1.3c1.2-0.4,2.4-0.4,3.6-0.1
					l2.2,0.6c1.7,0.4,3.1,2,3.5,4.1l0,0c0.3,1.3,0.3,2.6,0,3.8l-0.2,1.2c-0.5,2.5-1.5,4.7-3.1,6.4l-8.7,9.7l-15.2,13.2l-12.6,8.9
					c-6.2,4.4-12.1,9.2-17.8,14.5l-153.9,143.7c-2,1.9-4.6,2.4-7,1.6L388.9,1752.2z"/>
				<path class="st196" d="M600,1553.4l11.4,14.6c2.3,2.9,4.3,6.1,6.2,9.5l8.7,16c2.3,4.3,4.3,8.9,5.8,13.7l6.5,20.2
					c1.3,4,2.3,8.1,3.1,12.2l3.7,19.4c0.2,1-0.8,1.5-1.2,0.6l-9.9-20.5c-1.6-3.3-3.3-6.5-5-9.6l-10.5-18.7
					c-3.3-5.8-6.8-11.3-10.6-16.6l-7.8-10.8l-13.2-17.1l-5.9-6.5c-8.8-9.6-18.7-17.4-29.2-23.2l-6-3.3c-1.2-0.7-1.6-2.6-0.8-3.8
					l7.1-11.4c1.6-2.5,3.5-4.7,5.6-6.4l11.2-8.7c1-0.8,2.4-0.3,3,1.1l4.6,10.3c4.4,9.8,9.5,19.1,15.4,27.6L600,1553.4z"/>
			</g>
		</g>
		<g id="pick-pick_x5F_bag">
			<rect id="pick-fon" x="25.5" y="1475" class="st246" width="323.4" height="308"/>
			<g id="pick-pick">
				<path class="st198" d="M55,1759.9c-2.8-0.4-4-3.7-2.1-5.8l139.7-149.5l42-49l24.9-26.9l6.7-2.9l8.1,0.4l2.1,4.8l-0.4,6.7
					l-10.7,13.6l-15.4,15.2l-13.1,10.7c-6.4,5.2-12.4,10.9-18.1,16.9L64.8,1757.4c-2,2.1-4.9,3.1-7.7,2.7L55,1759.9z"/>
				<path class="st199" d="M224,1530.8l13.6-18.2c0.8-1.1,2.4-1.1,3.5-0.1l26.4,23.9c7.2,6.5,13.7,13.8,19.4,21.9l35.2,49.8
					c0.9,1.2-0.2,2.7-1.4,1.9l-50.5-32.9c-6.8-4.4-13.2-9.6-19.1-15.5l-26.5-26.6C223.4,1533.8,223.1,1532,224,1530.8z"/>
			</g>
		</g>
		<g id="saw2-pick_x5F_bag_1_">
			<rect id="saw2-fon" x="1319.1" y="1167" class="st246" width="323.4" height="308"/>
			<g id="saw2-pick">
				<g>
					<path class="st170" d="M1443.5,1309.1l136.8-109.1c9.9-7.9,24.2-3.1,31.8,10.9l0.1,0.3c7.6,14,5.7,31.7-4.3,39.7l-136.8,109.1"
						/>
					<g>
						<line class="st171" x1="1443.5" y1="1309.1" x2="1447.4" y2="1306"/>
						<path class="st255" d="M1455.1,1299.8l125.3-99.9c9.9-7.9,24.2-3.1,31.8,10.9l0.1,0.3c7.6,14,5.7,31.7-4.3,39.7l-129,102.9"/>
						<line class="st171" x1="1475.1" y1="1356.7" x2="1471.2" y2="1359.8"/>
					</g>
				</g>
				<path class="st173" d="M1450.2,1309.6l132.1-105.3c8.1-6.5,19.7-2.5,25.9,8.8l0.7,1.3c6.2,11.3,4.6,25.8-3.5,32.2l-132.1,105.3"
					/>
				<path class="st174" d="M1600,1220.6c3.5,6.5,2,15.2-3.4,19.6c-5.4,4.3-12.7,2.6-16.2-3.9c-3.5-6.5-2-15.2,3.4-19.6
					S1596.5,1214.1,1600,1220.6z"/>
				<path class="st175" d="M1439.7,1291L1439.7,1291c-2.9-1.6-6.2-2.2-9.4-1.6l0,0c-1.1,0.2-2.2,0.6-3.3,1.2l-7.7,4.1l-8.4,1.9
					c-0.7,0.2-1.4,0.4-2,0.6l-2.9,1.1c-3.2,1.2-6.3,3-9.2,5.2l-3,2.4c-1.9,1.5-3.6,3.2-5.2,5.1l-2.9,3.6c-2.6,3.2-4.7,6.9-6.3,10.9
					l-5,12.8c-1.3,3.3-1.7,6.9-1.4,10.5l2.7,25.2l-24.3,28.2c-3.4,3.9-6.1,8.6-8.1,13.7l-0.2,0.4c-1.3,3.5-2,7.3-1.8,11.2l0,0
					c0.1,3.4,1,6.8,2.6,9.6l4.2,7.6c1.8,3.3,4.5,5.7,7.7,6.8l0,0c2.2,0.8,4.5,0.6,6.6-0.5l0.3-0.2c3.7-1.9,7.3-4.2,10.7-6.9
					l25.4-20.2l33.7-26.7l2.4-10.3c0.3-1.5,1.1-2.7,2.1-3.6l36.2-29.6c0.6-0.5,0.9-1.3,1-2.1l0,0c0-0.7-0.1-1.4-0.5-2l-27.8-51.2
					c-0.5-0.9-1-1.7-1.6-2.4l-2.2-2.8C1441.5,1292.3,1440.6,1291.5,1439.7,1291z M1367.9,1435.8l-5.4,3.5c-0.8,0.5-1.7,0.8-2.6,0.7
					l0,0c-1.7-0.1-3.2-1.1-4-2.8l-2.7-5.3c-0.7-1.3-1.2-2.8-1.5-4.4l0,0c-0.5-2.6-0.3-5.4,0.6-7.9l0.4-1.2c0.9-2.6,2.3-4.9,3.9-6.9
					l22.6-26.3c0.6-0.7,1.5-0.5,1.9,0.3l12.8,27.5c0.3,0.7,0.2,1.6-0.4,2.1l-25.2,20.4C1368.2,1435.6,1368,1435.7,1367.9,1435.8z"/>
				<path class="st176" d="M1432.7,1397.2l12.3-9.8c1.4-1.1,2.1-3.1,1.8-5.1l-0.9-6l-10.1,8L1432.7,1397.2z"/>
				<path class="st176" d="M1474.5,1350.5l2.9,8.1c0.5,1.4,0.1,3-0.9,3.8l-5.1,4.1c-1.5,1.2-3.5,1.5-5.2,0.6l-6-2.9l12.5-10
					C1473.8,1353.4,1474.4,1352.1,1474.5,1350.5L1474.5,1350.5z"/>
				<path class="st177" d="M1373.3,1349.3l6.7-5.3c1.5-1.2,2.9-2.7,4-4.3l0.5-0.8c0.8-1.1,1.4-2.3,2-3.5l3.1-6.9
					c0.2-0.5,0.5-1,0.7-1.4l2.5-4.3c0.9-1.6,2.1-3.1,3.5-4.2l2.6-2.1c1.4-1.1,2.9-1.8,4.5-2.3l0,0c1.4-0.4,2.9-0.4,4.3-0.2l0.6,0.1
					c1.9,0.3,3.7,1.1,5.3,2.3l2.3,1.8l1.8,1.3c0.8,0.6,1.6,1,2.5,1.2l0.7,0.2c1.2,0.3,2.5,0.1,3.6-0.8l23.3-18.5l-1.8-3.4
					c-0.4-0.8-0.9-1.5-1.5-2.2l-1.9-2.3c-1.1-1.3-2.3-2.4-3.7-3.2l-0.5-0.3c-2.2-1.2-4.6-1.6-7-1.2l-1.3,0.2
					c-1.1,0.2-2.2,0.6-3.2,1.1l-5.4,2.9c-1.5,0.8-3.1,1.4-4.8,1.8l-4.5,1c-1.7,0.4-3.3,0.9-4.9,1.5l-0.5,0.2
					c-3.9,1.4-7.6,3.6-11,6.2l-1.1,0.9c-2.6,2.1-5,4.4-7.1,7.1l-0.8,1c-3.4,4.2-6.1,9-8.2,14.3l-5.2,13.3c-0.7,1.7-0.9,3.6-0.7,5.4
					L1373.3,1349.3z"/>
				<path class="st178" d="M1396.3,1348.7l-0.3,17.7c0,0.8,0.1,1.5,0.3,2.2l0.4,1.2c0.4,1.2,1.1,2.3,2,3l0,0
					c1.1,0.9,2.4,1.2,3.7,0.9l1.2-0.3c0.7-0.1,1.3-0.5,1.9-0.9l15.6-12.4c1.1-0.8,1.9-2.1,2.2-3.6l4.1-15.5c0.4-1.5,1.2-2.8,2.3-3.7
					l26.3-20.9l-6.8-12.5l-51,40.5C1397,1345.5,1396.3,1347,1396.3,1348.7z"/>
				<path class="st179" d="M1462.4,1328.6l-25.7,20.4c-1,0.8-1.6,2.3-1.5,3.8l0.9,12.9c0.1,1,1,1.6,1.7,1l27.9-22.2
					c0.6-0.4,1-1.1,1.3-1.8l0.3-0.9c0.2-0.5,0.3-1.1,0.3-1.7l0-0.5c0-0.8-0.2-1.7-0.6-2.4L1462.4,1328.6z"/>
				<path class="st180" d="M1449.4,1348.2c1.3,2.5,0.8,5.8-1.3,7.4c-2,1.6-4.8,0.9-6.1-1.5c-1.3-2.5-0.8-5.8,1.3-7.4
					C1445.3,1345.1,1448,1345.8,1449.4,1348.2z"/>
				<path class="st180" d="M1460,1339.8c1.3,2.5,0.8,5.8-1.3,7.4c-2,1.6-4.8,0.9-6.1-1.5c-1.3-2.5-0.8-5.8,1.3-7.4
					C1455.9,1336.6,1458.6,1337.3,1460,1339.8z"/>
				<path class="st176" d="M1383.5,1319.8c1.4,0.9,0.7,6-1.7,11.4c-2.3,5.4-5.4,9.1-6.8,8.2s-0.7-6,1.7-11.4
					C1379,1322.6,1382.1,1318.9,1383.5,1319.8z"/>
				<polygon class="st181" points="1418.5,1384.2 1414,1384.7 1410.5,1388.6 1401,1355 1407,1351 				"/>
				<path class="st182" d="M1411.6,1370.1c0.9,0.9,1,2.5,0.2,3.5c-0.7,1-2,1.2-2.9,0.3c-0.9-0.9-1-2.5-0.2-3.5
					C1409.4,1369.3,1410.7,1369.2,1411.6,1370.1z"/>
				<path class="st182" d="M1414.3,1378c0.9,0.9,1,2.5,0.2,3.5c-0.7,1-2,1.2-2.9,0.3c-0.9-0.9-1-2.5-0.2-3.5
					C1412.1,1377.2,1413.4,1377.1,1414.3,1378z"/>
				<path class="st182" d="M1401,1355l-24.7-71.7c-0.8-2.3-1-4.8-0.6-7.2l0,0c0.3-2.1,1.1-4,2.2-5.7l2.5-3.7c0.9-1.3,2-2.4,3.2-3.2
					l3.2-2.1c1.6-1.1,3.5-1.6,5.3-1.5l0.5,0c1.7,0.1,3.3,0.6,4.8,1.6l1.2,0.8c1.5,1,2.7,2.4,3.6,4.1l2.4,4.5c0.3,0.5,0.5,1,0.7,1.6
					l8.9,23.2l-5.5,1.4l-8.2-21.7c-0.2-0.5-0.5-1-0.8-1.5l-2.1-3.2c-1.2-1.8-3-2.9-4.9-3l0,0c-1.3-0.1-2.6,0.4-3.8,1.2l-1.6,1.2
					c-0.8,0.6-1.5,1.4-2,2.4l-0.4,0.7c-0.8,1.5-1.2,3.2-1.1,5l0,0.5c0,0.8,0.2,1.7,0.4,2.4l22.6,69.8L1401,1355z"/>
			</g>
		</g>
		<g id="saw-pick_x5F_bag">
			<rect id="saw-fon" x="995.7" y="1167" class="st246" width="323.4" height="308"/>
			<g id="saw-pick">
				<g>
					<path class="st170" d="M1281.1,1259.4l-140.2,99l-19.8-41l140.2-99.1c8.5-6,19.4-2.5,24.4,7.7l1.8,3.7
						C1292.5,1240.1,1289.6,1253.3,1281.1,1259.4z"/>
					<g>
						<polyline class="st183" points="1145,1355.5 1140.9,1358.4 1138.7,1353.9 						"/>
						<line class="st253" x1="1133.5" y1="1343.2" x2="1125.8" y2="1327.2"/>
						<polyline class="st183" points="1123.2,1321.9 1121,1317.4 1125.1,1314.5 						"/>
						<path class="st254" d="M1133.5,1308.6l127.8-90.3c8.5-6,19.4-2.5,24.4,7.7l1.8,3.7c5,10.3,2.1,23.6-6.4,29.6l-131.9,93.2"/>
					</g>
				</g>
				<path class="st173" d="M1278.3,1256.6l-134.6,95.1l-16.6-34.3l134.6-95.1c7.1-5,16.2-2.1,20.4,6.5l1.5,3.1
					C1287.8,1240.5,1285.4,1251.6,1278.3,1256.6z"/>
				<path class="st174" d="M1274.3,1236.5c2.5,5.2,0.2,12.6-5.3,16.5c-5.5,3.9-11.9,2.7-14.5-2.5c-2.5-5.2-0.2-12.6,5.3-16.5
					C1265.3,1230.2,1271.8,1231.3,1274.3,1236.5z"/>
				<path class="st186" d="M1091.9,1325.6l-40.5,28.6c-4.3,3-5.7,9.7-3.2,14.8l4.1,8.5l-11.8,9.8c-3.5,2.9-6.8,6.1-9.8,9.6l-3.5,4.1
					c-2.4,2.7-4.2,6.1-5.3,9.9l0,0c-1,3.5-1.5,7.1-1.4,10.8l0,0.2c0.1,3.4,0.8,6.7,2.2,9.6l0.4,0.7c0.6,1.2,1.4,2.2,2.5,2.9
					c3.1,2,6.7,2.9,10.2,2.5l0,0c4.3-0.4,8.6-1.8,12.5-4.1l8.1-4.7l22.6-14.2l-0.4,0c0.6-0.2,1.2-0.5,1.7-0.9l40.5-28.6
					c4.3-3,5.7-9.7,3.2-14.8l-19.7-40.8C1101.7,1324.3,1096.2,1322.6,1091.9,1325.6z M1060,1415.3c-1.2,0.8-2.5,1.6-3.8,2.4
					l-6.2,3.6c-4.4,2.6-9.2,4.4-14,5.2h0c-1.2,0.2-2.3,0.2-3.5-0.1l-1.1-0.2c-1.3-0.3-2.4-1.3-2.9-2.8c-0.2-0.6-0.3-1.2-0.4-1.8
					l0-1.2c-0.1-2.6,0.4-5.1,1.3-7.4c1.3-3.1,3.1-5.9,5.3-8.3l4.1-4.5c1.4-1.6,2.9-3,4.5-4.3l12.8-10.4l11.8,24.4c0.7,1.5,0,0,0,0
					L1060,1415.3z M1073.4,1414.9L1073.4,1414.9C1073.4,1414.9,1073.4,1414.9,1073.4,1414.9L1073.4,1414.9z"/>
				<path class="st187" d="M1104.9,1330.3l-56.3,39.8l-0.5-0.9c-2.5-5.2-1.1-11.8,3.2-14.8l41.4-29.3c4-2.8,9-1.2,11.4,3.6
					L1104.9,1330.3z"/>
				<path class="st188" d="M1067.7,1347.1l-11.2,7.9c-1,0.7-2.2,0.3-2.7-0.9l-0.2-0.4c-0.6-1.2-0.2-2.6,0.7-3.3l11.2-7.9
					c1-0.7,2.2-0.3,2.7,0.9l0.2,0.4C1068.9,1344.9,1068.6,1346.4,1067.7,1347.1z"/>
				<path class="st189" d="M1142.4,1329.9c-7.3-15-20.3-22.1-29.6-16.3c-0.6,0.2-1.1,0.6-1.6,1.1l-5.7,5.4c-1.9,1.8-3.7,3.7-5.5,5.6
					l-4.7,5.3c-1.1,1.2-2.2,2.5-3.3,3.8l-3.1,3.8c-5.1,6.3-9.5,13.3-13.1,20.9l0,0c-3.4,7.2-6.1,14.9-8,22.9
					c-0.5,2.1-0.6,4.2-0.3,6.4l0,0.4c0.4,3,1.3,5.9,2.6,8.5l0,0.1c0.5,1,1.1,1.8,1.8,2.5c1,0.9,2.2,1.5,3.5,1.8
					c2.1,0.4,4.2,0.3,6.3-0.2l3.7-1c3.1-0.9,6.1-2,9-3.6l10.2-5.3c2.2-1.1,4.4-2.4,6.5-3.7l13.9-8.8l13.8-9.7c0,0,0.1-0.1,0.1-0.1
					c0,0,0.1-0.1,0.1-0.1l0.7-0.5c0.2-0.1,0.3-0.2,0.4-0.4C1148.4,1361.3,1149.4,1344.5,1142.4,1329.9z"/>
				<path class="st190" d="M1074.3,1401.6l-1.9-3c-0.6-0.9-1.1-1.9-1.5-2.9l-0.6-1.5c-0.8-2.1-1.2-4.5-1.1-6.8l0,0
					c0-0.8,0.1-1.5,0.3-2.2l1.5-6c0.4-1.7,1-3.4,1.7-5l4-9.6c0.5-1.3,1.1-2.5,1.8-3.7l5.4-10c1.2-2.1,2.5-4.2,3.9-6.1l6.6-9
					c0.5-0.7,1.1-1.4,1.6-2l5.4-6c0.8-0.9,3.7-4.1,3.7-4.1l3.5-3.5l2.9-2.5l1.9-1.5l2.4-1.6l2.9-1.3l2.1-0.6l2.4-0.5l-2.4-0.4
					l-2.2,0l-2,0.3l-1.9,0.6l-1.4,0.7l-1.6,0.9c0,0-1.2,1-2.1,1.9l-4.3,4.1l-2.7,2.7l-2.8,2.9l-4.7,5.3l-5.5,6.6
					c-0.6,0.7-1.1,1.4-1.7,2.2l-5,7c-0.6,0.8-1.1,1.6-1.6,2.5l-3.2,5.6c-0.4,0.6-0.7,1.3-1,1.9l-1.8,3.7c-0.3,0.7-0.7,1.5-1,2.2
					l-2.3,5.6c-0.4,0.9-0.7,1.9-1,2.9l-2,6.4c-0.2,0.6-0.4,1.3-0.5,2l-0.4,1.7c-0.5,2.2-0.6,4.5-0.5,6.7l0.2,1.9l0.5,2.3
					c0.3,1.5,0.8,2.9,1.4,4.2l0.3,0.6c0.8,1.6,1.9,2.9,3.2,3.9L1074.3,1401.6z"/>
				<path class="st191" d="M1098,1360.2l-16.5,11.7c-0.6,0.4-1.3,0.2-1.6-0.5l-0.1-0.2c-0.3-0.7-0.1-1.5,0.4-1.9l16.5-11.7
					c0.6-0.4,1.3-0.2,1.6,0.5l0.1,0.2C1098.8,1359,1098.6,1359.8,1098,1360.2z"/>
				<path class="st191" d="M1100.3,1364.9l-16.5,11.7c-0.6,0.4-1.3,0.2-1.6-0.5l-0.1-0.2c-0.3-0.7-0.1-1.5,0.4-1.9l16.5-11.7
					c0.6-0.4,1.3-0.2,1.6,0.5l0.1,0.2C1101,1363.6,1100.8,1364.5,1100.3,1364.9z"/>
				<path class="st191" d="M1102.5,1369.6l-16.5,11.7c-0.6,0.4-1.3,0.2-1.6-0.5l-0.1-0.2c-0.3-0.7-0.1-1.5,0.4-1.9l16.5-11.7
					c0.6-0.4,1.3-0.2,1.6,0.5l0.1,0.2C1103.3,1368.3,1103.1,1369.2,1102.5,1369.6z"/>
				<path class="st191" d="M1104.9,1374.4l-16.5,11.7c-0.6,0.4-1.3,0.2-1.6-0.5l-0.1-0.2c-0.3-0.7-0.1-1.5,0.4-1.9l16.5-11.7
					c0.6-0.4,1.3-0.2,1.6,0.5l0.1,0.2C1105.6,1373.1,1105.4,1374,1104.9,1374.4z"/>
				<path class="st191" d="M1107.1,1378.9l-16.5,11.7c-0.6,0.4-1.3,0.2-1.6-0.5l-0.1-0.2c-0.3-0.7-0.1-1.5,0.4-1.9l16.5-11.7
					c0.6-0.4,1.3-0.2,1.6,0.5l0.1,0.2C1107.8,1377.7,1107.6,1378.5,1107.1,1378.9z"/>
				<path class="st188" d="M1077.9,1341.6l0.4,0c0.7,0,1.4-0.4,1.9-1l0.2-0.2c0.4-0.4,0.6-1,0.6-1.7l0-1c0-0.4-0.1-0.7-0.2-1
					l-3.7-7.8c-0.3-0.7-0.6-1.4-0.9-2.2l-1.8-5.6c-0.6-1.9-0.9-3.8-0.8-5.7l0.1-1.7c0.1-2.5,0.8-4.7,2.1-6.4l1.5-2.1
					c0.5-0.7,1.1-1.3,1.8-1.8l3-2.2c1.2-0.8,2.5-1.2,3.9-1.2l0,0c1.9,0,3.9,0.9,5.7,2.5l1.6,1.4c0.8,0.7,1.5,1.6,2.1,2.5l2.9,4.3
					c0.4,0.6,0.7,1.2,1,1.8l3.9,8.1c0.2,0.3,0.4,0.6,0.6,0.8l0,0c0.5,0.4,1.1,0.5,1.6,0.4l0.5-0.1c0.4-0.1,0.8-0.3,1.2-0.6l0.1,0
					c0.6-0.5,1-1.3,1.1-2.4l0,0c0-0.2,0-0.3-0.1-0.5l-0.7-1.5l-4-8.3c-0.7-1.4-1.5-2.7-2.3-3.9l-3.3-4.4c-1.2-1.5-2.5-2.9-3.9-3.9
					l-0.9-0.7c-2.5-1.9-5.2-2.8-7.8-2.8l-0.5,0c-2.1,0-4,0.7-5.7,1.9l-3.5,2.5c-1.1,0.8-2.1,1.8-2.9,2.9l-2,2.9
					c-1.5,2.1-2.4,4.6-2.9,7.5l0,0c-0.4,2.7-0.3,5.6,0.3,8.5l0.5,2.7c0.3,1.4,0.7,2.7,1.1,4l2.1,5.7c0.3,0.7,0.6,1.5,0.9,2.2
					l2.7,5.6c0.3,0.7,0.8,1.3,1.3,1.8l0,0C1077.2,1341.5,1077.6,1341.7,1077.9,1341.6z"/>
			</g>
		</g>
		<g id="ex3-pick_x5F_bag">
			<rect id="ex3-fon" x="672.3" y="1167" class="st246" width="323.4" height="308"/>
			<g id="ex3-pick">
				<path class="st192" d="M703.4,1448.2c-2-1-2.3-4.3-0.5-5.7L835.4,1337l40.6-35.4l23.7-19l5.6-1.2l6,2.1l0.7,4.9l-1.6,6
					l-10.6,10.1l-14.4,10.5l-11.8,6.9c-5.8,3.4-11.4,7.2-16.7,11.4l-145.8,115c-1.9,1.5-4.2,1.8-6.3,0.8L703.4,1448.2z"/>
				<path class="st193" d="M955.1,1333.7c-8-2.4-15.6-6.4-22.4-12l-4.3-3.5c-3.7-3-7.1-6.4-10.3-10.1l-9.9-11.4l-4.8-7.4l-3.7-8.3
					l-4.6-15.6c-1.5-5-2.6-10.2-3.4-15.5l-0.9-6.2c-1.4-9.8-1.4-19.8,0.1-29.6l2.3-15.3l-9.7,0.8c-9,0.7-17.8,3.4-26,7.9h0
					c-5.9,3.2-11.4,7.3-16.3,12.3l-5.1,5.1c-5,4.9-9.4,10.6-13.2,16.9l-11.2,18.6l19.1,8.7c6.1,2.8,12,6.3,17.6,10.3l4.8,3.5
					c2.8,2.1,5.5,4.4,8,7l3.3,3.5c3.6,3.8,6.7,8.2,9.3,13c0.6,1.5,1.4,3,2.2,4.4c0.7,1.5,1.5,2.9,2.4,4.3c2.5,4.8,4.6,10.1,5.9,15.6
					l1.3,5c1,3.8,1.7,7.7,2,11.7l0.7,6.7c0.8,7.8,1,15.8,0.6,23.7l-1.3,24.6l18.7-4.7c6.3-1.6,12.4-4.2,18.2-7.7l5.9-3.6
					c5.8-3.5,11.1-7.9,16-13h0c6.8-7.2,12.4-15.8,16.7-25.4l4.6-10.4L955.1,1333.7z"/>
				<path class="st194" d="M891.9,1208.2l1.5-9.6l-9.7,0.8c-9,0.7-17.8,3.4-26,7.9h0c-5.9,3.2-11.4,7.3-16.3,12.3l-5.1,5.1
					c-5,4.9-9.4,10.6-13.2,16.9l-11.2,18.6l8.4,3.9l4.1-6.5c3-4.7,6.3-9.1,9.9-13l3.5-3.8c1.7-1.8,3.4-3.5,5.2-5.2l6.3-5.8
					c3.1-2.8,6.3-5.4,9.7-7.6l2.9-1.9c4.3-2.9,8.9-5.2,13.6-7.1l1.5-0.6c2.8-1.1,5.6-2,8.4-2.7L891.9,1208.2z"/>
				<path class="st194" d="M888.3,1390.2l-0.6,12l18.7-4.7c6.3-1.6,12.4-4.2,18.2-7.7l5.9-3.6c5.8-3.5,11.1-7.9,16-13h0
					c6.8-7.2,12.4-15.8,16.7-25.4l4.6-10.4l-8.9-2.7l-6.1,9c-0.9,1.3-1.9,2.5-2.9,3.7l-6.6,7.1c-1.4,1.5-2.8,3-4.3,4.4l-6.4,6
					c-3.2,3-6.6,5.7-10.2,8l-4.7,3.1c-1.9,1.3-3.9,2.4-5.9,3.5l-7.5,4c-2.4,1.3-4.8,2.4-7.3,3.4L888.3,1390.2z"/>
			</g>
		</g>
		<g id="ex2-pick_x5F_bag">
			<rect id="ex2-fon" x="348.9" y="1167" class="st246" width="323.4" height="308"/>
			<g id="ex2-pick">
				<path class="st195" d="M379.2,1437.1c-2.3-0.6-3.1-4.1-1.4-6L503.5,1288l38-47.2l22.5-25.8l5.8-2.5l6.8,0.9l1.5,5.1l-0.7,6.8
					l-9.8,13.2l-13.8,14.5l-11.6,10c-5.7,4.9-11.1,10.2-16.2,16l-138.5,156.3c-1.8,2-4.3,2.9-6.7,2.3L379.2,1437.1z"/>
				<path class="st196" d="M549.4,1206.2l-3.2-0.8c-3.5-0.8-6.9-2.1-10.2-3.8l-8.9-4.6c-0.9-0.5-1.8,0.6-1.4,1.7l3.5,10.5
					c1.2,3.7,2.1,7.5,2.6,11.3l0.4,3.1c0.9,7,2.9,13.7,6,19.8v0c1.5,2.9,3.2,5.6,5.3,7.9l0,0c4.7,5.4,8.6,11.8,11.6,18.8l2.1,5.1
					c1.6,3.9,3,7.9,4,12l1.8,7.1c2.1,8.2,3.5,16.7,4.3,25.2l2.5,26.7l19.3-9.3c6.5-3.1,12.7-7.3,18.3-12.3l5.8-5.2
					c5.6-5,10.7-10.9,15.1-17.5v0c6.1-9.3,10.9-19.8,13.9-31l3.3-12.2l-14-1.2c-8.9-0.7-17.7-3.4-25.9-7.8l-5.2-2.8
					c-4.4-2.4-8.6-5.2-12.6-8.5l-12.4-10l-12.2-13.5l-1.3-1.4C558.2,1209.8,554,1207.3,549.4,1206.2z"/>
				<path class="st197" d="M568.8,1336.9l0.9,9.2l19.3-9.3c6.5-3.1,12.7-7.3,18.3-12.3l5.8-5.2c5.6-5,10.7-10.9,15.1-17.5v0
					c6.1-9.3,10.9-19.8,13.9-31l3.3-12.2l-6.7-0.6l-3.8,9.6c-1.2,3.1-2.6,6.2-4.2,9.1l-3.2,6c-1.8,3.4-3.8,6.7-6,9.8l-4.1,5.8
					c-3.4,4.8-7.2,9.1-11.3,12.8l-4.6,4.2c-2.7,2.4-5.5,4.6-8.4,6.6l-9.1,6.1c-1.5,1-3.1,2-4.6,2.9L568.8,1336.9z"/>
			</g>
		</g>
		<g id="ex-pick_x5F_bag">
			<rect id="ex-fon" x="25.5" y="1167" class="st246" width="323.4" height="308"/>
			<g id="ex-pick">
				<path class="st198" d="M45,1442.1c-2.6-0.4-3.6-3.7-1.8-5.5l137.3-137.3l41.4-45.1l24.5-24.7l6.5-2.5l7.7,0.6l1.8,4.7l-0.6,6.3
					l-10.6,12.6L236,1265l-12.7,9.7c-6.2,4.7-12.1,9.9-17.7,15.4L54.3,1440.1c-2,1.9-4.7,2.8-7.4,2.4L45,1442.1z"/>
				<path class="st199" d="M224.6,1245.4l11.1-12.8c1.7-2,4.4-3,7.3-2.8h0c3.1,0.2,6.1,1.3,8.6,3.1l6.5,4.6c7,5,14.7,9.1,22.8,12.2
					l6.5,2.5c7,2.7,14.4,4.3,21.8,5l20.7,1.8c1.6,0.1,2.7,1.7,2,2.9l-7.1,14.7c-2.5,5.2-5.6,10.2-9.3,14.8h0
					c-4.4,5.5-9.5,10.4-15.2,14.8l-12.8,9.7c-0.8,0.6-2.1,0.3-2.6-0.6l-9-15.4c-5.3-9.1-11.9-17.5-19.5-25.2l-2.5-2.5
					c-2.8-2.8-5.8-5.3-9.2-7.5l-11.8-7.7c-3.4-2.3-6.4-5.1-8.5-8.4l0,0C223.8,1247.6,223.9,1246.4,224.6,1245.4z"/>
			</g>
		</g>
	</g>
	<g id="status_x5F_char">
		<rect x="25.5" y="473.5" class="st258" width="1616.9" height="693.5"/>
		<g id="status_x5F_str">
			<text transform="matrix(1 0 0 1 83.9137 587.7064)" class="st259 st260 st261">STR</text>
			<text id="quantity-status_x5F_str" transform="matrix(1 0 0 1 578.1148 587.7064)" class="st259 st260 st261">1</text>
			<g id="up-pick_x5F_str">
				<polygon class="st262" points="489.9,580 355.5,580 422.7,507.9 				"/>
				<g>
					<g>
						<path d="M377.5,587.9c-3.4,7.3-1.8,12,2.8,18.2c3.4,4.7,7.9,7.4,13.8,7.8c5.1,0.3,12.6-0.9,16.2-5.1
							c4.3-5.1,2.4-13.9,0.7-19.6c-0.5-1.9-3.4-1.1-2.9,0.8c1.2,4.2,2.8,10.3,1,14.7c-1.9,4.9-9,6.2-13.6,6.2
							c-4.7,0-8.8-1.7-11.8-5.4c-1.2-1.5-2.4-3.1-3.3-4.8c-2.4-4.3-2.3-7.1-0.3-11.4C380.9,587.7,378.3,586.1,377.5,587.9
							L377.5,587.9z"/>
					</g>
				</g>
				<g>
					<g>
						<path d="M434.8,616.2c1.7-9.4,2.4-18.2-1.3-27.2c-0.7-1.8-3.6-1-2.9,0.8c3.6,8.5,3,16.7,1.3,25.6
							C431.5,617.3,434.4,618.1,434.8,616.2L434.8,616.2z"/>
					</g>
				</g>
				<g>
					<g>
						<path d="M431.9,590c4.3-0.5,8.7-1,13-1.3c4.7-0.3,9.8-1.4,13.6,2.1c0.8,0.8,1.5,1.7,2.2,2.6c0.9,3.7,0,5.6-2.6,5.9
							c-1.7,1.1-4.8,0.9-6.8,1c-4.7,0.4-9.4,0.2-14.1-0.5c-1.9-0.3-2.7,2.6-0.8,2.9c5.6,0.9,30.8,3.7,28.4-7.6
							c-3.1-14.3-23.2-9.2-32.9-8C430,587.2,430,590.2,431.9,590L431.9,590z"/>
					</g>
				</g>
			</g>
		</g>
		<g id="status_x5F_agi">
			<text transform="matrix(1 0 0 1 85.074 781.5241)" class="st259 st260 st261">AGI</text>
			<text id="quantity-status_x5F_agi" transform="matrix(1 0 0 1 579.275 781.5241)" class="st259 st260 st261">1</text>
			<g id="up-pick_x5F_agi">
				<polygon class="st262" points="491,773.9 356.7,773.9 423.9,701.7 				"/>
				<g>
					<g>
						<path d="M378.7,781.7c-3.4,7.3-1.8,12,2.8,18.2c3.4,4.7,7.9,7.4,13.8,7.8c5.1,0.3,12.6-0.9,16.2-5.1
							c4.3-5.1,2.4-13.9,0.7-19.6c-0.5-1.9-3.4-1.1-2.9,0.8c1.2,4.2,2.8,10.3,1,14.7c-1.9,4.9-9,6.2-13.6,6.2
							c-4.7,0-8.8-1.7-11.8-5.4c-1.2-1.5-2.4-3.1-3.3-4.8c-2.4-4.3-2.3-7.1-0.3-11.4C382.1,781.5,379.5,779.9,378.7,781.7
							L378.7,781.7z"/>
					</g>
				</g>
				<g>
					<g>
						<path d="M435.9,810.1c1.7-9.4,2.4-18.2-1.3-27.2c-0.7-1.8-3.6-1-2.9,0.8c3.6,8.5,3,16.7,1.3,25.6
							C432.7,811.1,435.6,812,435.9,810.1L435.9,810.1z"/>
					</g>
				</g>
				<g>
					<g>
						<path d="M433,783.8c4.3-0.5,8.7-1,13-1.3c4.7-0.3,9.8-1.4,13.6,2.1c0.8,0.8,1.5,1.7,2.2,2.6c0.9,3.7,0,5.6-2.6,5.9
							c-1.7,1.1-4.8,0.9-6.8,1c-4.7,0.4-9.4,0.2-14.1-0.5c-1.9-0.3-2.7,2.6-0.8,2.9c5.6,0.9,30.8,3.7,28.4-7.6
							c-3.1-14.3-23.2-9.2-32.9-8C431.1,781,431.1,784,433,783.8L433,783.8z"/>
					</g>
				</g>
			</g>
		</g>
		<g id="status_x5F_int">
			<text transform="matrix(1 0 0 1 83.056 979.2551)" class="st259 st260 st261">INT</text>
			<text id="quantity-status_x5F_int" transform="matrix(1 0 0 1 577.2571 979.2551)" class="st259 st260 st261">1</text>
			<g id="up-pick_x5F_int">
				<polygon class="st262" points="489,971.6 354.7,971.6 421.8,899.5 				"/>
				<g>
					<g>
						<path d="M376.7,979.4c-3.4,7.3-1.8,12,2.8,18.2c3.4,4.7,7.9,7.4,13.8,7.8c5.1,0.3,12.6-0.9,16.2-5.1
							c4.3-5.1,2.4-13.9,0.7-19.6c-0.5-1.9-3.4-1.1-2.9,0.8c1.2,4.2,2.8,10.3,1,14.7c-1.9,4.9-9,6.2-13.6,6.2
							c-4.7,0-8.8-1.7-11.8-5.4c-1.2-1.5-2.4-3.1-3.3-4.8c-2.4-4.3-2.3-7.1-0.3-11.4C380.1,979.2,377.5,977.7,376.7,979.4
							L376.7,979.4z"/>
					</g>
				</g>
				<g>
					<g>
						<path d="M433.9,1007.8c1.7-9.4,2.4-18.2-1.3-27.2c-0.7-1.8-3.6-1-2.9,0.8c3.6,8.5,3,16.7,1.3,25.6
							C430.7,1008.9,433.5,1009.7,433.9,1007.8L433.9,1007.8z"/>
					</g>
				</g>
				<g>
					<g>
						<path d="M431,981.5c4.3-0.5,8.7-1,13-1.3c4.7-0.3,9.8-1.4,13.6,2.1c0.8,0.8,1.5,1.7,2.2,2.6c0.9,3.7,0,5.6-2.6,5.9
							c-1.7,1.1-4.8,0.9-6.8,1c-4.7,0.4-9.4,0.2-14.1-0.5c-1.9-0.3-2.7,2.6-0.8,2.9c5.6,0.9,30.8,3.7,28.4-7.6
							c-3.1-14.3-23.2-9.2-32.9-8C429.1,978.8,429.1,981.8,431,981.5L431,981.5z"/>
					</g>
				</g>
			</g>
		</g>
		<g id="status-point">
			<text id="quantity-status-point" transform="matrix(1 0 0 1 1375.5259 1118.2537)" class="st259 st263 st264">1</text>
			<text transform="matrix(1 0 0 1 751.8806 1118.2538)" class="st259 st265 st266">Status points:</text>
		</g>
	</g>
	<g id="btn-close_x5F_menu_1_">
		<path class="st244" d="M380.3,308.2v116.3c0,19.1-15.5,34.6-34.6,34.6H99.3c-19.1,0-34.6-15.5-34.6-34.6V308.2
			c0-19.1,15.5-34.6,34.6-34.6h246.4C364.8,273.6,380.3,289.1,380.3,308.2z"/>
		<path class="st245" d="M327.4,295.5l-105.5,52.4l-105.8-51.6c-5.4-2.7-11.6,0.6-13.8,7.2l-2.6,8c-2.2,6.6,0.5,14.2,5.9,16.8
			l78.5,38.3l-78.3,38.9c-5.4,2.7-8,10.2-5.8,16.9l2.7,8c2.2,6.6,8.4,9.8,13.8,7.1L222,385.1l105.8,51.6c5.4,2.7,11.6-0.6,13.8-7.2
			l2.6-8c2.2-6.6-0.5-14.2-5.9-16.8l-78.5-38.3l78.3-38.9c5.4-2.7,8-10.2,5.8-16.9l-2.7-8C339,296,332.8,292.8,327.4,295.5z"/>
	</g>
</g>
</svg>
