<?xml version="1.0" encoding="utf-8"?>
<!-- Generator: Adobe Illustrator 21.1.0, SVG Export Plug-In . SVG Version: 6.00 Build 0)  -->
<svg version="1.1" id="game" xmlns="http://www.w3.org/2000/svg" xmlns:xlink="http://www.w3.org/1999/xlink" x="0px" y="0px"
	 viewBox="0 0 1668 2224" style="enable-background:new 0 0 1668 2224;" xml:space="preserve">
<style type="text/css">
	.st0{fill:url(#gradient4_1_);}
	.st1{fill:url(#gradient5_1_);}
	.st2{fill:#66E2FF;}
	.st3{fill:none;stroke:#B28052;stroke-miterlimit:10;}
	.st4{fill:#96735C;}
	.st5{fill:#825D49;stroke:#BF8A5E;stroke-miterlimit:10;}
	.st6{fill:#AD7D5C;stroke:#B28052;stroke-miterlimit:10;}
	.st7{fill:#BC8864;stroke:#B28052;stroke-miterlimit:10;}
	.st8{fill:#A37B61;}
	.st9{fill:#BC8866;}
	.st10{fill:#E0A57E;stroke:#B28052;stroke-miterlimit:10;}
	.st11{fill:#D19A7C;stroke:#B28052;stroke-miterlimit:10;}
	.st12{fill:#F4DBCE;}
	.st13{fill:#DBC7BF;}
	.st14{fill:#8E684F;stroke:#BF8A5E;stroke-miterlimit:10;}
	.st15{fill:#AD753E;}
	.st16{fill:#966636;}
	.st17{fill:#A87339;}
	.st18{fill:#BC8651;}
	.st19{fill:#AA7A4F;}
	.st20{fill:#C99465;}
	.st21{fill:none;stroke:#634B2A;stroke-miterlimit:10;}
	.st22{fill:#B28052;}
	.st23{fill:#96674D;stroke:#A57758;stroke-width:3;stroke-miterlimit:10;}
	.st24{fill:none;stroke:#A57758;stroke-width:3;stroke-miterlimit:10;}
	.st25{fill:#5C7552;}
	.st26{fill:#E2CA96;}
	.st27{fill:#6F8763;}
	.st28{fill:#EAD7A2;}
	.st29{fill:#F9F2EF;}
	.st30{fill:#382C26;}
	.st31{fill:#936F5F;}
	.st32{fill:#7C655C;}
	.st33{fill:#F9A182;}
	.st34{fill:#DBC697;}
	.st35{fill:#8C7857;}
	.st36{fill:#635872;}
	.st37{fill:#6B7F60;}
	.st38{fill:#755D3F;}
	.st39{fill:#C9B8A7;}
	.st40{fill:#00CFFF;}
	.st41{fill:#03CDE2;}
	.st42{fill:#00DBFF;}
	.st43{fill:#00E7FF;}
	.st44{fill:#00F3FF;}
	.st45{fill:#2EFFF9;}
	.st46{fill:#78FFF8;}
	.st47{fill:#FFF0BF;}
	.st48{fill:#F7E4A6;}
	.st49{fill:#BCCC60;}
	.st50{fill:url(#sea_1_);}
	.st51{fill:#98958C;}
	.st52{fill:#ACA7A1;}
	.st53{fill:#C2BEB5;}
	.st54{fill:#D6C8A3;}
	.st55{fill:#D3C7A7;}
	.st56{fill:#DBCDAF;}
	.st57{fill:#ADA8A2;}
	.st58{fill:#99968D;}
	.st59{fill:#C2BDB3;}
	.st60{fill:#8D8880;}
	.st61{fill:#D3CAB2;}
	.st62{fill:#8B877E;}
	.st63{fill:#9B988F;}
	.st64{fill:#B9B2AA;}
	.st65{fill:#C3BFB6;}
	.st66{fill:#DDCFAF;}
	.st67{fill:#CCBFA6;}
	.st68{fill:#CED18B;}
	.st69{fill:#99968B;}
	.st70{fill:#969089;}
	.st71{fill:#C4BFB3;}
	.st72{fill:#939189;}
	.st73{fill:#B7B5AB;}
	.st74{fill:#C6BBA5;}
	.st75{fill:#CEC2AA;}
	.st76{fill:#CCC1AA;}
	.st77{fill:#9E9C95;}
	.st78{fill:#C9BDA6;}
	.st79{fill:#C6BBA7;}
	.st80{fill:#BAB3A6;}
	.st81{fill:#A5A299;}
	.st82{fill:#CCC0A8;}
	.st83{fill:#C3BFB4;}
	.st84{fill:#9A978E;}
	.st85{fill:#B8B1AA;}
	.st86{fill:#8D877F;}
	.st87{fill:#C4BCA9;}
	.st88{fill:#B5AD9E;}
	.st89{fill:#C5BEB6;}
	.st90{fill:#B5B3AC;}
	.st91{fill:#D5D1C6;}
	.st92{fill:#BCB4B1;}
	.st93{fill:#999793;}
	.st94{fill:#8E8E87;}
	.st95{fill:#A3A19D;}
	.st96{fill:#B5B4B1;}
	.st97{fill:#A8A7A7;}
	.st98{fill:#A09D97;}
	.st99{fill:#D3CFC3;}
	.st100{fill:#ADAAA6;}
	.st101{fill:#B2B1AF;}
	.st102{fill:#9B978F;}
	.st103{fill:#AAA7A0;}
	.st104{fill:#CCC8C4;}
	.st105{fill:#D3D0CD;}
	.st106{fill:#C9C3BD;}
	.st107{fill:#B2AFA8;}
	.st108{fill:#999692;}
	.st109{fill:#898683;}
	.st110{fill:#A3A29B;}
	.st111{fill:#B2AEAA;}
	.st112{fill:#D6D0C9;}
	.st113{fill:#918D87;}
	.st114{fill:#DBD5C6;}
	.st115{fill:#B7B3AE;}
	.st116{fill:#C4C1BB;}
	.st117{fill:#9B9891;}
	.st118{fill:#D8D5CB;}
	.st119{fill:#939089;}
	.st120{fill:#A8A6A0;}
	.st121{fill:#D8D5D0;}
	.st122{fill:#A8A49B;}
	.st123{fill:#96928A;}
	.st124{fill:#CEC8C2;}
	.st125{fill:#C4996C;}
	.st126{fill:#B7845A;}
	.st127{fill:#D5A776;}
	.st128{fill:#477F16;}
	.st129{fill:#436818;}
	.st130{fill:#AA7B43;}
	.st131{fill:#B79056;}
	.st132{fill:#AD9655;}
	.st133{fill:#DD9D68;}
	.st134{fill:#C18B59;stroke:#A87848;stroke-miterlimit:10;}
	.st135{fill:#B28056;}
	.st136{fill:#AD7D59;}
	.st137{fill:#AA7D5C;}
	.st138{fill:#DDCBBF;}
	.st139{fill:#DBDAD9;}
	.st140{fill:#D8A380;}
	.st141{fill:#CE987A;}
	.st142{fill:#CC9D85;}
	.st143{fill:#C6977F;}
	.st144{fill:#C19784;}
	.st145{fill:#C69B8B;}
	.st146{fill:#B7958B;}
	.st147{fill:#AF8958;}
	.st148{fill:#967A60;}
	.st149{fill:#C9D1D3;}
	.st150{fill:#635C55;}
	.st151{fill:#65868F;}
	.st152{fill:#6CC1A0;}
	.st153{fill:#EFCE8E;}
	.st154{fill:#60523B;}
	.st155{fill:#EFC58E;}
	.st156{fill:#6D5D41;}
	.st157{fill:#E8C192;}
	.st158{fill:#EFCA7F;}
	.st159{fill:#FFFFFF;}
	.st160{fill:#E5C57C;}
	.st161{fill:#59585E;}
	.st162{fill:#6FC9A9;}
	.st163{fill:#686770;}
	.st164{fill:#86D1B1;}
	.st165{fill:#2D2924;}
	.st166{fill:none;stroke:#2D2924;stroke-width:24;stroke-miterlimit:10;}
	.st167{fill:none;stroke:#2D2924;stroke-width:24;stroke-miterlimit:10;stroke-dasharray:10.0234,10.0234;}
	.st168{fill:#C0D3D7;}
	.st169{fill:#98A9B1;}
	.st170{fill:#D8372D;}
	.st171{fill:#414143;}
	.st172{fill:#EE5547;}
	.st173{fill:#A22921;}
	.st174{fill:#9C271F;}
	.st175{fill:#D2C4A9;}
	.st176{fill:#ABABAB;}
	.st177{fill:#4F4F4F;}
	.st178{fill:none;stroke:#2D2924;stroke-width:18;stroke-miterlimit:10;}
	.st179{fill:none;stroke:#2D2924;stroke-width:18;stroke-miterlimit:10;stroke-dasharray:8.8394,8.8394;}
	.st180{fill:none;stroke:#2D2924;stroke-width:18;stroke-miterlimit:10;stroke-dasharray:9.9611,9.9611;}
	.st181{fill:#E26B47;}
	.st182{fill:#FF8243;}
	.st183{fill:#47413F;}
	.st184{fill:#EF8424;}
	.st185{fill:#FDA83D;}
	.st186{fill:#994E22;}
	.st187{fill:#965F29;}
	.st188{fill:#7F7F7F;}
	.st189{fill:#D6D5D4;}
	.st190{fill:#C98235;}
	.st191{fill:#999999;}
	.st192{fill:#E2E1E0;}
	.st193{fill:#D98D31;}
	.st194{fill:#B5B5B5;}
	.st195{fill:#7F6752;}
	.st196{fill:#777770;}
	.st197{fill:#F29575;}
	.st198{fill:#3F3831;}
	.st199{fill:url(#gradient_1_);}
	.st200{fill:#997933;}
	.st201{fill:#937334;}
	.st202{fill:#A9DB52;}
	.st203{fill:#96C639;}
	.st204{fill:#82B71C;}
	.st205{fill:#B6E55C;}
	.st206{fill:#90C125;}
	.st207{fill:#A9D146;}
	.st208{fill:#8E7036;}
	.st209{fill:#846939;}
	.st210{fill:#78A038;stroke:#81AD2B;stroke-width:3;stroke-miterlimit:10;}
	.st211{fill:#658E30;}
	.st212{fill:#85AA44;}
	.st213{fill:#7EAF31;}
	.st214{fill:#018287;}
	.st215{fill:#0F0F0F;}
	.st216{fill:#303030;}
	.st217{fill:#333333;}
	.st218{fill:#1A1A1A;}
	.st219{fill:#424242;}
	.st220{fill:#00666A;}
	.st221{fill:#212121;}
	.st222{fill:#111111;}
	.st223{fill:#A3A3A3;}
	.st224{fill:#ACACAE;}
	.st225{fill:#161616;}
	.st226{fill:#00686B;}
	.st227{fill:#161616;stroke:#373737;stroke-miterlimit:10;}
	.st228{fill:none;stroke:#D98D31;stroke-miterlimit:10;}
	.st229{fill:#242424;}
	.st230{fill:#373737;}
	.st231{fill:url(#gradient2_1_);}
	.st232{fill:url(#gradient3_1_);}
	.st233{fill:#B67D56;}
	.st234{fill:#83492A;}
	.st235{fill:#9C6038;}
	.st236{fill:#683920;}
	.st237{fill:#563119;}
	.st238{fill:#CC9E75;}
	.st239{fill:#633A23;}
	.st240{fill:#F9F6CD;}
	.st241{fill:none;stroke:#000000;stroke-miterlimit:10;}
	.st242{fill:#EDFF85;stroke:#000000;stroke-miterlimit:10;}
	.st243{fill:none;stroke:#2D2924;stroke-width:18;stroke-miterlimit:10;stroke-dasharray:10.6132,10.6132;}
	.st244{fill:none;stroke:#2D2924;stroke-width:18;stroke-miterlimit:10;stroke-dasharray:9.9851,9.9851;}
	.st245{fill:none;stroke:#2D2924;stroke-width:24;stroke-miterlimit:10;stroke-dasharray:10.1023,10.1023;}
	.st246{fill:#A59D58;}
	.st247{fill:#CCA962;}
	.st248{fill:none;stroke:#EFCF97;stroke-miterlimit:10;}
	.st249{fill:#EFCF97;}
	.st250{fill:#846431;}
	.st251{fill:#75634C;}
	.st252{fill:#7A6A59;}
	.st253{fill:#FFF980;stroke:#000000;stroke-miterlimit:10;}
	.st254{fill:#FFF980;stroke:#FFF980;stroke-miterlimit:10;}
	.st255{fill:#EDFF85;stroke:#EDFF85;stroke-miterlimit:10;}
	.st256{fill:#E5DFA1;}
	.st257{fill:#F9F6CD;stroke:#000000;stroke-miterlimit:10;}
	.st258{fill:none;stroke:#2D2924;stroke-width:24;stroke-miterlimit:10;stroke-dasharray:9.8069,9.8069;}
	.st259{fill:none;stroke:#2D2924;stroke-width:18;stroke-miterlimit:10;stroke-dasharray:11.8613,11.8613;}
	.st260{fill:none;stroke:#2D2924;stroke-width:18;stroke-miterlimit:10;stroke-dasharray:10.2463,10.2463;}
</style>
<g id="charackter_x5F_forest">
	<g id="legs_1_">
		<g id="left-foot_1_">
			<path class="st148" d="M578.6,1812.2l-3.4,15.7c-1.5,4.6-6,9.1-6.3,13.9l-1,13.7l9,7.2l6.7,5.5c0.7,0.6,1.4,1,2.3,1.4l43.8,18.2
				c0.3,0.1,0.6,0.2,0.9,0.4l44.6,21.9c4.9,2.4,10,4.1,15.4,5.1l6.3,1.2c3.6,0.7,7.2,1,10.9,1h5c5.6,0,11.3-0.7,16.7-2.1l0,0
				c4.4-1.1,8.7-3,12.4-5.5l8.4-5.6c2.4-1.6,4.5-3.5,6.3-5.6l0.4-0.5c3.2-3.8,5-8.5,5-13.3v-2.2c0-2.6-0.5-5.1-1.5-7.5l0,0
				c-3-7-8.5-12.8-15.6-16.1l-34.5-16.4l-38.4-23.1l-6.7-9.8l-4.6-8.3l-8-3.8l-20.2-1.4h-19.7l-17.8,3l-9.5,4.3L578.6,1812.2z"/>
			<path class="st149" d="M567.9,1855.5l37.7,13.6l33.3,13.8l31.7,17.1c2.4,1.3,4.9,2.4,7.5,3.4l5.2,2c6.6,2.5,13.6,3.8,20.7,3.8
				h7.1c4,0,7.9-0.4,11.8-1.1l6.5-1.2c4.4-0.8,8.5-2.5,12.1-5l4.1-2.9c2.6-1.8,5-3.9,7.2-6.3l9-9.9v5.4c0,2.6-1,5.2-2.7,7.2
				l-5.5,6.4l-12.6,8.4c-3.4,2.2-7.1,3.9-11.1,4.9l-2.5,0.6c-4.3,1.1-8.7,1.6-13.1,1.6h-6.8c-3.7,0-7.4-0.3-11-1l-6.5-1.2
				c-5.2-1-10.2-2.7-14.8-5l-42.6-20.9c-1.8-0.9-3.6-1.7-5.4-2.5l-42.8-17.8l-10.2-3.4c-2.8-0.9-4.8-3.2-5.5-5.9L567.9,1855.5z"/>
			<g>
				<g>
					<path class="st150" d="M636.4,1825.3c6.9,0.7,13.5-0.4,20.4-0.8c6.5-0.4,12.7,1.2,19.1,0.9c1.9-0.1,1.9-3.1,0-3
						c-6.4,0.3-12.7-1.3-19.1-0.9c-6.8,0.4-13.5,1.5-20.4,0.8C634.5,1822.1,634.5,1825.1,636.4,1825.3L636.4,1825.3z"/>
				</g>
			</g>
			<g>
				<g>
					<path class="st150" d="M661.7,1809.8c-0.4,12.4,3.6,23.9,3.9,36.3c0,1.9,3,1.9,3,0c-0.1-5.5-0.3-11-1.5-16.3
						c-1.6-6.8-2.6-12.9-2.3-19.9C664.8,1807.8,661.8,1807.8,661.7,1809.8L661.7,1809.8z"/>
				</g>
			</g>
			<g>
				<g>
					<path class="st150" d="M671.3,1848.5c4.3,0.1,8.4-2,12.5-3.4c4.8-1.6,9.7-3.1,14.5-4.4c1.9-0.5,1.1-3.4-0.8-2.9
						c-4.3,1.2-8.5,2.5-12.7,3.8c-4.2,1.4-9,4-13.5,3.9C669.4,1845.4,669.4,1848.4,671.3,1848.5L671.3,1848.5z"/>
				</g>
			</g>
			<g>
				<g>
					<path class="st150" d="M679.8,1828.5c2,5.7,3.8,11.5,6.3,17c1.4,3.3,3,6,3.5,9.6c0.2,1.9,0.5,3.4,1.4,5.1
						c0.9,1.7,3.5,0.2,2.6-1.5c-1.1-2.1-0.9-4.4-1.4-6.7c-0.5-2.3-1.7-4.2-2.7-6.3c-2.7-5.7-4.6-12-6.7-18
						C682.1,1825.9,679.2,1826.6,679.8,1828.5L679.8,1828.5z"/>
				</g>
			</g>
		</g>
		<g id="right-foot_1_">
			<path class="st148" d="M354.5,1853.7l-2.7,2.3c-5.2,4.3-9.3,9.7-12.1,15.8l-1.3,2.9c-2.4,5.2-3.6,10.9-3.6,16.6v6.1
				c0,3.6,1.7,6.9,4.6,9.2l0,0c8.3,6.4,17.4,12,27,16.5l58.8,27.9c10.1,4.8,21.2,7.3,32.5,7.3h27l37-7.3c7.7-1.5,14.6-5.4,19.6-11.2
				l2.4-2.7c3-3.4,4.6-7.6,4.6-12v-4.4l-0.3-1.5c-1.1-4.8-4.1-8.9-8.4-11.5l-4.8-2.9c-3.5-2.1-7.2-3.9-11.1-5.3l-11.3-4.3l-23.2-10
				l-19-8.2c-4.1-1.8-7.5-4.9-9.5-8.8l-6.3-12.3l-6.9-5.5c-2.5-1.9-13.8-5.8-16.2-5.8l-15-2.6c-2.3,0-15.3,0.5-17.6,0l-17.8,1.7
				l-15.5,5.4L354.5,1853.7z"/>
			<path class="st149" d="M334.7,1891.4l13.7,10.6c6.3,4.9,13.2,9.2,20.4,12.7l54.5,26.8c7.3,3.6,15.3,5.7,23.5,6.2l23.3,1.4
				c6.5,0.4,13,0,19.4-1.1l32.1-5.8c2.9-0.5,5.8-1.6,8.4-3l3.8-2.2l14.4-16.4v5.8c0,3.5-1.3,6.9-3.7,9.6l-5.3,6.1
				c-3.8,4.3-8.9,7.2-14.6,8.3l-32.4,6.4c-5.1,1-10.3,1.5-15.5,1.5h-22.3c-9.2,0-18.3-2-26.5-5.9l-64.4-30.5
				c-7.7-3.7-15-8.1-21.8-13.3l-3.6-2.8c-2.2-1.7-3.4-4.2-3.4-6.8V1891.4z"/>
			<g>
				<g>
					<path class="st150" d="M419.8,1880.3c15.6-0.5,31.3-0.2,46.9,0.8c1.9,0.1,1.9-2.9,0-3c-15.6-1-31.2-1.3-46.9-0.8
						C417.9,1877.4,417.8,1880.4,419.8,1880.3L419.8,1880.3z"/>
				</g>
			</g>
			<g>
				<g>
					<path class="st150" d="M450.7,1865.3c-2,11.9-3.1,23.2-9.6,33.6c-1,1.6,1.6,3.1,2.6,1.5c6.6-10.6,7.9-22.1,9.9-34.3
						C453.9,1864.2,451.1,1863.4,450.7,1865.3L450.7,1865.3z"/>
				</g>
			</g>
			<g>
				<g>
					<path class="st150" d="M450.5,1904.4c14-4.7,28.3-8.4,42.8-11c1.9-0.4,1.1-3.2-0.8-2.9c-14.5,2.7-28.8,6.4-42.8,11
						C447.9,1902.1,448.7,1905,450.5,1904.4L450.5,1904.4z"/>
				</g>
			</g>
			<g>
				<g>
					<path class="st150" d="M473.9,1883.6c1.8,10.7,2.8,21.5,3,32.4c0,1.9,3.1,1.9,3,0c-0.3-11.2-1.4-22.2-3.2-33.2
						C476.5,1880.9,473.6,1881.7,473.9,1883.6L473.9,1883.6z"/>
				</g>
			</g>
		</g>
		<path id="first-left-leg_1_" class="st151" d="M562.5,1624.9l4.3-10.8l9.6-8.4l14.6-7.1l18.9-3.6l25.3,0.5l16.3,3.1l9,5.7l0.4,0.5
			c3.9,4.7,6.2,9.8,6.8,14.9l0.2,1.4l1,189.4l0,0c-5.6,4.4-12.1,7.8-19.2,9.9l-3.5,1.1c-9.5,2.8-19.3,4.5-29.1,4.9l-2,0.1
			c-13.6,0.6-27.2-1.1-39.9-4.8l-2.3-0.7L562.5,1624.9z"/>
		<path id="first-right-leg_1_" class="st151" d="M368.3,1656.8l2.7-28.7l10.3-7.2l15.3-4.7l18.3-1.8l17.7,0.2l18.1,2.5l16,4.7
			l12.4,6.4h0c4.2,6,5.9,12.5,5.1,19l-27.6,207.6l0,0c-6.7,3.8-14.1,6.3-21.9,7.4l-1.2,0.2c-12.4,1.8-25.1,2-37.6,0.7l-5.9-0.6
			c-10.3-1.1-20.4-3.8-29.6-8.1l-8.2-3.8L368.3,1656.8z"/>
		<path id="second-left-leg_1_" class="st151" d="M562.5,1624.9L488.9,1431l-1.8-13.2l3.3-10.5l8.4-9.3c0.8-0.9,1.6-1.7,2.6-2.5
			l7.4-6.1l21.8-6l22,0.7l21.1,2.7l15.9,8.7l9.3,25.9l54.9,150.5l7.8,23.1l4.3,15l1.5,8.6l-10,11.8L638,1638l-27.5,3.2l-34-4.9
			L562.5,1624.9z"/>
		<path id="second-right-leg_1_" class="st151" d="M349.5,1438.5l22.2,206l8.8,9.4l13.4,5.5l19.4,3.4l19.2-0.3l18.1-2l16.5-4.8
			l7-3.8c2.5-1.4,4.6-3,6-4.8l0,0c4.2-5.5,6.1-11.5,5.6-17.5l-1.4-16.1l-9.5-162.8l-0.3-28.2l-16.2-5.8l-21.9-2.7l-28.9-1.7
			l-29.4,3.5l-17,4.1c-2.6,0.6-4.7,1.7-5.9,3.1l0,0C350.8,1427.8,348.9,1433.2,349.5,1438.5z"/>
	</g>
	<g id="left-arm_x5F_saw2">
		<path id="second-left-arm_7_" class="st152" d="M542.7,1118.5l7.1,9.2l8.2,6.7l128.2,83.3c2.2,1.4,9.5,5.8,9.5,5.8l8.8,3.1
			l9.2-1.8l9.8-3.7l8.3-4.9l6.5-6.3l3.3-8.5l-1.9-9.7l-3.8-5.8l-149.2-99.3c-5.7-3.7-15-8.6-19.2-10.8c-1.4-0.7-2.9-1.2-4.4-1.5
			l-0.8-0.2c-3.8-0.7-7.4-0.1-10.4,1.6l-2.6,1.5c-1.6,0.9-3,2.1-4.1,3.4l-4.7,5.3l-3.3,4.8l-0.9,8l2.2,10.5L542.7,1118.5z"/>
		<g id="first-left-arm_7_">
			<path class="st153" d="M806.4,1040.7l0.9-7.4c0.3-1.5,0.8-2.9,1.3-4.4l3.9-11c0.6-1.7,1.8-3.2,3.3-4.1l3.8-2.4
				c1.4-0.9,3.1-1.1,4.7-0.7l3.3,0.9c1,0.3,2.1-0.2,2.6-1.1l2.8-5.1c1.1-2.1,3.1-3.5,5.3-3.8l2.4-0.4c2.5-0.4,5-0.3,7.4,0.2l3.2,0.8
				c2.8,0.7,5.4,2,7.6,3.9l1.4,1.2c2,1.7,3.7,3.6,5.2,5.8l1.9,2.7c2.1,3,3.5,6.5,4,10.1l0.3,1.9c0.4,3.2,0.3,6.4-0.5,9.5l-0.7,2.8
				c-0.7,2.8-2.1,5.4-3.9,7.6l-6,6.9c-2.3,2.7-5,5-7.9,7l-10,6.6c-0.2,0.1-0.4,0.3-0.6,0.4l-14.2,7l-0.6-2.4l-1.1-3.9l-1.4-3.7
				l-1.3-3.6l-2.6-4.2l-2.3-3.6l-2-2.7l-1.7-2.3l-2.4-3l-2.4-2.7L806.4,1040.7z"/>
			<path class="st152" d="M719.7,1224.4c1.3-0.7,2.4-1.6,3.3-2.8l101.7-133.7c2.2-3,3.4-6.4,3.2-9.7l0,0c-0.3-5.9-4.7-16.2-4.7-16.2
				c-3-5.1-16.3-25.4-19.5-21.4l-110.8,133.2l-5.6,8.6l-1.9,11.9l1.1,11.6l2.9,7.1c1,2.4,2.7,4.5,4.8,6l6.3,4.4l7.4,2.8l3.6,0.1
				C714.4,1226.3,717.2,1225.7,719.7,1224.4L719.7,1224.4z"/>
		</g>
	</g>
	<g id="left-arm_x5F_saw">
		<path id="second-left-arm_1_" class="st152" d="M542.7,1118.5l7.1,9.2l8.2,6.7l128.2,83.3c2.2,1.4,9.5,5.8,9.5,5.8l8.8,3.1
			l9.2-1.8l9.8-3.7l8.3-4.9l6.5-6.3l3.3-8.5l-1.9-9.7l-3.8-5.8l-149.2-99.3c-5.7-3.7-15-8.6-19.2-10.8c-1.4-0.7-2.9-1.2-4.4-1.5
			l-0.8-0.2c-3.8-0.7-7.4-0.1-10.4,1.6l-2.6,1.5c-1.6,0.9-3,2.1-4.1,3.4l-4.7,5.3l-3.3,4.8l-0.9,8l2.2,10.5L542.7,1118.5z"/>
		<g id="first-left-arm_2_">
			<path class="st153" d="M806.4,1040.7l0.9-7.4c0.3-1.5,0.8-2.9,1.3-4.4l3.9-11c0.6-1.7,1.8-3.2,3.3-4.1l3.8-2.4
				c1.4-0.9,3.1-1.1,4.7-0.7l3.3,0.9c1,0.3,2.1-0.2,2.6-1.1l2.8-5.1c1.1-2.1,3.1-3.5,5.3-3.8l2.4-0.4c2.5-0.4,5-0.3,7.4,0.2l3.2,0.8
				c2.8,0.7,5.4,2,7.6,3.9l1.4,1.2c2,1.7,3.7,3.6,5.2,5.8l1.9,2.7c2.1,3,3.5,6.5,4,10.1l0.3,1.9c0.4,3.2,0.3,6.4-0.5,9.5l-0.7,2.8
				c-0.7,2.8-2.1,5.4-3.9,7.6l-6,6.9c-2.3,2.7-5,5-7.9,7l-10,6.6c-0.2,0.1-0.4,0.3-0.6,0.4l-14.2,7l-0.6-2.4l-1.1-3.9l-1.4-3.7
				l-1.3-3.6l-2.6-4.2l-2.3-3.6l-2-2.7l-1.7-2.3l-2.4-3l-2.4-2.7L806.4,1040.7z"/>
			<path class="st152" d="M719.7,1224.4c1.3-0.7,2.4-1.6,3.3-2.8l101.7-133.7c2.2-3,3.4-6.4,3.2-9.7l0,0c-0.3-5.9-4.7-16.2-4.7-16.2
				c-3-5.1-16.3-25.4-19.5-21.4l-110.8,133.2l-5.6,8.6l-1.9,11.9l1.1,11.6l2.9,7.1c1,2.4,2.7,4.5,4.8,6l6.3,4.4l7.4,2.8l3.6,0.1
				C714.4,1226.3,717.2,1225.7,719.7,1224.4L719.7,1224.4z"/>
		</g>
	</g>
	<g id="left-arm_3_">
		<path id="second-left-arm_3_" class="st152" d="M536.7,1117.2l5.1,10.4l6.7,8.2l109.3,106.9c1.9,1.8,8.8,5.2,8.8,5.2l7.7,2.1h8.3
			l9.1-1.1l9.1-1.4l7.5-3.4l4.6-4.9l2.4-5.2v-6.1l-2.6-6.4L586,1094.8c-4.8-4.8-13-11.4-16.7-14.4c-1.2-1-2.6-1.8-4-2.3l-0.8-0.3
			c-3.5-1.4-7.2-1.6-10.5-0.5l-2.9,1c-1.7,0.6-3.3,1.4-4.7,2.5l-5.6,4.3l-4.1,4l-2.5,7.7l0.1,10.7L536.7,1117.2z"/>
		<g id="first-left-arm_3_">
			<path class="st153" d="M834.6,1347l7.2,1.6c1.4,0.5,2.9,1,4.2,1.7l10.6,4.9c1.7,0.8,3,2.1,3.8,3.7l2,4c0.7,1.5,0.8,3.2,0.3,4.7
				l-1.2,3.2c-0.4,1,0,2.1,0.9,2.7l4.8,3.3c1.9,1.3,3.2,3.4,3.3,5.7l0.2,2.4c0.2,2.5-0.1,5-0.9,7.3l-1.1,3.2
				c-0.9,2.7-2.5,5.2-4.6,7.2l-1.4,1.3c-1.9,1.8-4,3.3-6.2,4.7l-2.8,1.6c-3.2,1.8-6.8,2.9-10.5,3.1l-1.9,0.1
				c-3.2,0.1-6.4-0.3-9.4-1.4l-2.7-1c-2.7-1-5.2-2.6-7.2-4.6l-6.3-6.7c-2.5-2.6-4.5-5.5-6.2-8.6l-5.6-10.5c-0.1-0.2-0.2-0.4-0.3-0.7
				l-5.7-14.8l2.4-0.4l4-0.8l3.8-1l3.7-1l4.4-2.2l3.8-1.9l2.9-1.8l2.4-1.5l3.2-2.1l3-2.2L834.6,1347z"/>
			<path class="st152" d="M657.9,1242.8l128,118c2.7,2.5,6.1,4,9.3,4.1l0,0c5.9,0.3,16.5-3.1,16.5-3.1c5.4-2.5,26.8-13.8,23.1-17.4
				l-122.1-122.8l-6.5-2.2l-8.7-1.2l-9.6-0.6l-9.6,0.5l-8.3,1.8l-6.4,4l-3.9,4.1l-2.1,3.9l-0.9,3.9v3.2L657.9,1242.8z"/>
		</g>
	</g>
	<g id="headbody_1_">
		<g id="head_1_">
			<path class="st153" d="M494.7,1039.4l-0.7,6.2c-0.6,4.8-0.8,9.5-0.8,14.3l0,0c0,1.2,0.1,2.5,0.4,3.7l5,20.6l-14.3,8.7l-22.8,5.2
				h-25.1l-23.1-3.6l2.8-16.5c1.4-7.4,2.2-14.8,2.2-22.3l0,0c0-2.3-0.1-4.6-0.4-6.8l-1.4-10.8L494.7,1039.4z"/>
			<path class="st153" d="M427.3,729.6h21.2c15.5,0,31,1.1,46.4,3.3h0c11.5,1.7,22.8,4.6,33.7,8.7l0,0c8.3,3.2,15.7,8.2,21.5,14.7h0
				c4.8,5.4,8.7,11.6,11.4,18.3l0,0c6.2,15.6,10,32.1,11,48.8l0.3,4.4c1,16.5,1.1,33,0.1,49.5l-1.2,21.2c-0.5,8.2-1.3,16.3-2.6,24.5
				l-1.4,9.1c-5.4,35.4-19.1,69.2-40.2,98.7l-0.9,1.3c-5.4,7.6-12.1,14.2-19.9,19.6h0c-10,6.9-21.8,11-34,11.7l-3.4,0.2
				c-15.2,0.9-30.5-0.8-45-5l-2.6-0.8c-22.2-6.4-42.3-18.2-58.4-34.3l0,0c-13.3-13.3-24.4-28.5-32.9-45l-1.3-2.5
				c-9.3-18-16.2-37-20.3-56.7v0c-5.3-25-7.1-50.6-5.6-76.1l0.5-9.1c0.8-13.2,3.7-26.1,8.7-38.4v0c6.1-15.1,15.2-29,26.7-40.9l9-9.3
				c0.8-0.8,1.7-1.4,2.8-1.8l0,0C375.2,734.5,401.1,729.6,427.3,729.6z"/>
			<path class="st154" d="M486.7,837.4l8-2.4c5.4-1.6,11-2.4,16.6-2.4h0.5c8.4,0,16.7,0.6,25,1.8l0,0c3.4,0.5,6.7,1.4,9.9,2.6
				l8.7,3.4c1.6,0.6,3.3-0.5,3.3-2.2v-1.4c0-5.3-1.4-10.5-4-15.2l-1.1-1.9c-1.8-3.2-5.3-5.2-9.2-5.2h-6.2c-4.7,0-9.5,0.3-14.2,0.8
				l-11.7,1.3c-7.6,0.8-15.1,2.7-22.2,5.6l-3.2,1.3c-2.2,0.9-3.6,3-3.6,5.3v6.4C483.3,836.7,485,837.9,486.7,837.4z"/>
			<path class="st154" d="M463.1,834.1v-6.3c0-2.1-1.5-4-3.6-4.7l-11.5-3.4c-4.7-1.4-9.5-2.4-14.4-3.1l-6.5-0.9
				c-5.6-0.8-11.2-0.8-16.8,0.1l-1.7,0.3c-4,0.6-8,1.6-11.9,2.8l-5.8,1.8c-2.1,0.6-4.1,1.4-6.1,2.3l-5.5,2.5
				c-3.7,1.7-6.6,4.6-8.2,8.2l-0.8,1.8c-1.8,4.1-2.7,8.5-2.7,12.9v3.6c0,1.6,1.9,2.6,3.3,1.6l11-7.7c3.9-2.8,8.3-4.8,13-6l3.8-1
				c9.3-2.4,18.9-3.6,28.6-3.6h7.9c1.6,0,3.3,0.1,4.9,0.2l20,1.5C461.6,837,463.1,835.7,463.1,834.1z"/>
			<path class="st155" d="M483.5,896.8l3.3,10.7c2.1,6.8,4.8,13.3,8.1,19.6l2,3.9c2.1,4,4.9,7.5,8.5,10.4l5.2,4.3
				c2.3,1.9,3.6,4.6,3.6,7.5l0,0c0,2-1.1,3.7-3,4.6l0,0c-4.2,2-8.9,3.1-13.7,3.1h-27.5c-2.9,0-5.7-0.7-8.1-2.2l0,0
				c-4.1-2.4-7.3-6-9.1-10.2l0,0c-0.8-1.9-0.6-4.1,0.5-5.9l0.8-1.3c0.9-1.5,2.3-2.6,4-3.3l0.5-0.2c2.3-0.9,4-2.8,4.7-5.1l1.7-6
				c0.9-3.2,1.4-6.4,1.6-9.6l0.9-19.5c0.1-2.5,1.7-4.8,4.2-5.7l0,0c2.6-1,5.5-0.9,8,0.4l0,0C481.6,893.3,483,894.9,483.5,896.8z"/>
			<path class="st156" d="M349.9,911.5v-9.3c0-6.2-0.7-12.5-2.1-18.5l-0.8-3.3c-0.8-3.3-1.4-6.7-1.9-10.1l-0.6-3.9
				c-1.4-9.1-2-18.3-2-27.5v-6.3c0-0.3,0.5-0.4,0.5-0.1l0.7,3.4c0,0.1,0.2,0.1,0.2,0l1.7-13.4c0.1-0.6,0.9-0.7,1.2-0.2l0.4,0.9
				c0.2,0.6,1.1,0.5,1.3-0.1l2.6-8.6c1.5-4.7,4.2-9,7.9-12.4l6.9-6.3c0.9-0.8,2.3-0.7,3,0.2l0,0c0.7,0.9,2,1,2.9,0.2l5.9-5
				c2.5-2.1,6-2.9,9.2-2.2l0,0c1.9,0.5,3.9,0.3,5.7-0.3l9.1-3.3c2.8-1,5.9-1,8.6,0.1h0c1.5,0.6,3.2,0.2,4.3-0.8l4.6-4.4
				c0.8-0.8,2.3-0.2,2.3,0.9v1.4l-1.2,4.3c-0.2,0.7,0.7,1.1,1.2,0.6l4.8-5.5l3-3.3c1-1.1,3-0.8,3.5,0.7l0.2,0.6
				c0.8,2.2,3.2,3.3,5.4,2.5l3.6-1.4c2.9-1.1,6-1.2,8.9-0.3l10.1,3.1c1.4,0.4,3,0.5,4.4,0.2l15.1-2.9c4.1-0.8,8.3-1.2,12.5-1.2h6.2
				c3.1,0,6,1.5,7.6,4.1l1.4,2.2c0.6,1,2.1,0.9,2.7,0l1.1-1.8c1.4-2.3,4.2-3.6,6.9-3.2l1.9,0.3c1.9,0.3,3.7,1,5.3,2.2l0,0
				c0.7,0.5,1.5,0.7,2.4,0.5l0.2,0c3-0.6,6.1-0.4,8.9,0.7l7.1,2.8l2.8,1.4c4.9,2.5,9.3,5.7,13.2,9.4l0,0c1,1,1.9,2.1,2.6,3.3v0
				c3.3,5.7,6,11.7,7.9,18l0,0c1,3.2,1.6,6.5,1.8,9.9l0.7,12.5l0-16.6c0-4.5-0.4-9-1.1-13.4l-2.9-16.6l1.3,1.9l-4.5-13.1
				c-0.6-1.6-1.2-3.2-1.9-4.8l-5-11.4c-2.2-5.1-5.2-9.8-8.8-14.1l0,0l-7.7-7.4c-4.1-4.3-9.4-6.5-16.8-10.4l-7.4-3.2l-8.1-3.2
				c-6.8-1.8-5.4-2.6-13.5-3.9l-7.4-1.9c-1-0.1-7.8-1-8.8-1.3h-9.4c-5.2-1.4-8.1-0.6-8.1-0.6h-8.1c-0.6,0-9.5,0.1-10.1,0h-9.4
				c-9.4,0-4.7-0.6-12.1,0l-10.1,0.6l-10.1,1.3c-9,0.5-13.6,3.4-22.2,5.8l-8.1,2.6c-4.1,1.2-6.8,3-10.8,4.5l-8,4.2
				c-5.5,2.1-10.4,5.6-14.2,10l-4.5,5.3c-1.2,1.4-2.5,2.8-3.9,4.1l0,0c-4.9,4.7-8.4,10.4-10.4,16.7l0,0c-0.3,0.8-0.6,1.6-1.1,2.3
				l-0.2,0.3c-6.1,9.5-10.8,19.8-13.9,30.5h0c-0.9,3-1.5,6.1-1.9,9.2l-1.5,12.2l-0.8,9.6c-0.8,10.4-0.8,20.9,0,31.4l0.7,8.9
				l1.3,16.6l33.7-12.7l4.4,10.8c0.2,0.6,0.4,1.1,0.5,1.7v0c0.8,4.1,1.2,8.4,1.2,12.6v5.8c0,1.4,1.6,2.2,2.8,1.3h0
				C348.7,916.4,349.9,914,349.9,911.5z"/>
			<ellipse class="st153" cx="322.6" cy="910" rx="19.9" ry="32.1"/>
			<ellipse class="st157" cx="322.6" cy="910" rx="11.8" ry="19"/>
			<path class="st158" d="M469,893.9l3.3,10.1c0.3,1,0.6,2,0.8,3l3.5,15.4c0.6,2.5,1.4,5,2.4,7.4l2.3,5.6c1,2.4,1.5,5,1.5,7.6v3.9
				c0,0.3-0.4,0.4-0.6,0.1l-2.6-5.1c-1-1.9-2.7-3.2-4.8-3.8l-6.2-1.7c-1.3-0.4-2.7-0.6-4.1-0.5l-2.9,0c-0.2,0-0.3-0.2-0.2-0.3l2-4.7
				c0.6-1.3,1-2.7,1.3-4l1-4.4c0.2-1,0.4-2,0.4-3l0.6-9.5l0.2-8.8c0-0.7,0.1-1.5,0.3-2.2L469,893.9z"/>
			<path class="st159" d="M493.5,866l0.6-1.2c1.7-3.3,4.4-6,7.6-7.8l1.2-0.7c4.3-2.4,9.1-3.6,14-3.6h5.1c3.7,0,7.4,0.5,10.9,1.6
				l4,1.2c3.6,1.1,6.6,3.3,8.8,6.2l1.8,2.4c1.9,2.6,3,5.8,3,9.1v4.8c0,2-0.9,3.9-2.4,5.3l0,0c-4.6,4.1-10.3,6.9-16.4,8.1l-5.8,1.1
				c-5.5,1.1-11.2,0.7-16.5-1.1v0c-6.1-2-11.1-6.1-14.1-11.6l-1.7-3C491.8,873.5,491.8,869.4,493.5,866z"/>
			<path class="st159" d="M451.5,866l-0.6-1.2c-1.7-3.3-4.4-6-7.6-7.8l-1.2-0.7c-4.3-2.4-9.1-3.6-14-3.6h-5.1
				c-3.7,0-7.4,0.5-10.9,1.6l-4,1.2c-3.6,1.1-6.6,3.3-8.8,6.2l-1.8,2.4c-1.9,2.6-3,5.8-3,9.1v4.8c0,2,0.9,3.9,2.4,5.3l0,0
				c4.6,4.1,10.3,6.9,16.4,8.1l5.8,1.1c5.5,1.1,11.2,0.7,16.5-1.1l0,0c6.1-2,11.1-6.1,14.1-11.6l1.7-3
				C453.2,873.5,453.3,869.4,451.5,866z"/>
			<path class="st160" d="M395,869.1l1-1.8c0.5-0.9,1.1-1.7,1.8-2.5l0.5-0.6c1.2-1.4,2.6-2.6,4.1-3.7l0,0c1.6-1.1,3.4-2,5.2-2.7
				l0.2-0.1c1.6-0.6,3.3-1.1,4.9-1.4l1.5-0.3c1.3-0.3,2.7-0.5,4-0.7l0.6-0.1c1.8-0.2,3.7-0.3,5.5-0.3h1.5c1.2,0,2.4,0.1,3.6,0.2
				l2.4,0.3c1.2,0.1,2.4,0.3,3.6,0.6l1.1,0.2c2.1,0.4,4.1,1.1,6.1,2.1l1.7,0.8c0.5,0.2,1,0.5,1.5,0.9l0,0c1.8,1.4,3.3,3,4.6,4.8
				l1.2,1.8l-1.1-3.2l-1.2-2.1c-1-1.6-2.2-3.1-3.7-4.3l0,0c-1.7-1.4-3.5-2.5-5.5-3.3h0c-2-0.9-4.2-1.5-6.4-1.9l0,0
				c-2.7-0.5-5.5-0.7-8.3-0.7h-0.3c-2.4,0-4.8,0.2-7.1,0.6l-0.9,0.1c-2.4,0.4-4.8,1-7.1,1.7l-1.2,0.4c-2.3,0.7-4.3,1.9-6.1,3.4
				l-0.1,0.1c-1.7,1.4-3.2,3.1-4.4,4.9l-0.8,1.2l-0.8,1.6c-0.4,0.7-0.7,1.4-0.9,2.1L395,869.1z"/>
			<path class="st160" d="M492.4,869.1l1-1.8c0.5-0.9,1.1-1.7,1.8-2.5l0.5-0.6c1.2-1.4,2.6-2.6,4.1-3.7l0,0c1.6-1.1,3.4-2,5.2-2.7
				l0.2-0.1c1.6-0.6,3.3-1.1,4.9-1.4l1.5-0.3c1.3-0.3,2.7-0.5,4-0.7l0.6-0.1c1.8-0.2,3.7-0.3,5.5-0.3h1.5c1.2,0,2.4,0.1,3.6,0.2
				l2.4,0.3c1.2,0.1,2.4,0.3,3.6,0.6l1.1,0.2c2.1,0.4,4.1,1.1,6.1,2.1l1.7,0.8c0.5,0.2,1,0.5,1.5,0.9l0,0c1.8,1.4,3.3,3,4.6,4.8
				l1.2,1.8l-1.1-3.2l-1.2-2.1c-1-1.6-2.2-3.1-3.7-4.3l0,0c-1.7-1.4-3.5-2.5-5.5-3.3l0,0c-2-0.9-4.2-1.5-6.4-1.9h0
				c-2.7-0.5-5.5-0.7-8.3-0.7h-0.3c-2.4,0-4.8,0.2-7.1,0.6l-0.9,0.1c-2.4,0.4-4.8,1-7.1,1.7l-1.2,0.4c-2.3,0.7-4.3,1.9-6.1,3.4
				l-0.1,0.1c-1.7,1.4-3.2,3.1-4.4,4.9l-0.8,1.2L494,865c-0.4,0.7-0.7,1.4-0.9,2.1L492.4,869.1z"/>
		</g>
		<g id="body_1_">
			<path class="st161" d="M415.5,1081.4l-6.7,1.9c-3.5,1-6.8,2.7-9.6,4.9l-7.6,6.2c-1.3,1.1-2.3,2.5-2.9,4.1l-0.9,2.6
				c-0.9,2.6-1,5.4-0.4,8.1l1.4,5.7c0.4,1.8,1.6,3.3,3.2,4.2l2.5,1.5c4.2,2.6,8.9,4.4,13.8,5.4l6.4,1.3c2.5,0.5,5,0.7,7.6,0.7h16.3
				c1.3,0,2.6-0.1,3.8-0.2l15.2-1.4c1.5-0.1,3-0.1,4.4,0l13.1,1.1c3.1,0.3,6,1.2,8.6,2.8l6.8,4.1l7.2-6.9c2.1-2,4.3-3.9,6.7-5.6
				l8.6-6.1l6.9-4.9c2.9-2,5.3-4.6,7-7.6l0.8-1.3c0.7-1.2,1.2-2.4,1.5-3.7l0.9-4c0.6-2.6,0.5-5.4-0.3-7.9l-0.6-2
				c-0.6-2-1.6-4-2.9-5.7l-1.4-1.8c-2.3-3-5.4-5.3-9-6.6l-2.9-1.1c-2.1-0.8-4.3-1.1-6.5-1.1l-12.1-0.2l1.1,4.5l7,1.1l5.8,1l3.5,1.3
				l2.8,1.3l2.2,1.6l2.1,2.6l1.3,1.8l2.3,3.5l0.6,2l-0.3,2.4l-2.1,4l-1.6,2.2l-2.4,2.2l-2.6,1.7l-7,4.4l-16.4,10.5l-1.7,0.4
				l-12.4-1.1l-7.3-0.7l-3.3-0.1l-14.2,1.1l-10.3,1l-8,1.4l-6.8,1.2l-3.8,0.2h-7.4h-4.2l-3.8-0.3l-3.6-1.3l-3-2.1l-3.3-3.2l-1.7-3.2
				l-0.6-3.7l0.2-3.3l0.8-2.6l2.1-3.1l1.3-1.4c1.5-1.6,3.9-2.9,6.8-3.7l0,0l7.6-3L415.5,1081.4z"/>
			<path class="st162" d="M490.7,1134.5v54.5l7.9,52.9l7.7,61.7v44.1l-7.7,52.9l33-8.4c12.6-3.2,24.5-8.8,34.8-16.5l10.6-7.8
				c6.1-4.5,10.2-11.1,11.3-18.4l6-38.2c1.9-12,2.9-24.1,2.9-36.3v-32c0-11.6-1-23.1-2.9-34.5l-11.3-67.6c-0.7-4.3-1.6-8.6-2.6-12.8
				l-2.7-11.2c-1.7-7.1-4-14.1-6.8-20.9l-2.7-6.4c-1.7-4.2-4.9-7.7-8.9-10l-2-1.2c-6.8-3.9-14.5-6.3-22.4-6.9l-20-1.5l1,0.4
				c3.6,1.3,6.8,3.6,9,6.6l1.8,2.4c1,1.4,1.8,2.9,2.3,4.5l0.1,0.4c1.2,4.1,1.4,8.3,0.4,12.4l-0.8,3.7l-1.8,3.1
				c-1.7,2.9-4.1,5.5-6.9,7.5l-6.9,4.9l-12.1,8.6L490.7,1134.5z"/>
			<path class="st162" d="M453.5,1406.5l-23.9,3.7c-9.5,1.5-19.2,2.2-28.8,2.2h-15.9c-8.2,0-16.3-1.7-23.8-4.9l-3.5-1.5
				c-7.9-3.4-13.8-10.2-15.7-18.4l-5.3-22.5c-1.4-5.8-2.5-11.6-3.3-17.5l-3.2-22.5c-1.6-11.2-2.4-22.5-2.4-33.8v-33v-45.9
				c0-6.7,0.3-13.3,0.9-19.9l2.9-31.3c0.3-3.4,0.8-6.8,1.4-10.1l2.9-15.3c0.9-4.6,2.5-9,4.7-13.2v0c2.2-3.9,4.9-7.6,8-10.8l0.9-0.9
				c3.2-3.3,6.9-6,11-8.2l2.3-1.2c4.4-2.3,8.9-4.2,13.6-5.8l23.1-7.6l-6.5,5.3c-2.1,1.7-3.6,3.9-4.5,6.3l-0.1,0.2
				c-1.1,3.3-1.3,6.8-0.5,10.2l0.5,1.9c0.9,3.5,3.2,6.6,6.4,8.5l0,0c4.2,2.6,8.9,4.4,13.8,5.3l4.5,0.9c3.8,0.7,7.7,1.1,11.5,1.1
				h13.8c1.6,0,3.1-0.1,4.7-0.2l14.5-1.3c1.6-0.1,3.2-0.1,4.8,0l14.4,1.2c2.1,0.2,4.1,0.8,5.9,1.9l8.1,4.8v54.5l7.9,52.9l7.7,61.7
				v44.1l-7.7,52.9L453.5,1406.5z"/>
			<path class="st153" d="M414.3,1088.9l81.4-16.5l10.6,1.7c1.6,0.2,3.1,0.7,4.6,1.3l2.7,1.1c2.1,0.9,3.9,2.3,5.1,4.2l3.5,5.1
				c1.3,1.9,1.5,4.4,0.3,6.4l-1.2,2.1c-1.4,2.5-3.4,4.7-5.9,6.2l-9.2,5.8l-15.3,9.9c-0.5,0.3-1.1,0.5-1.7,0.4l-18.4-1.7
				c-2.7-0.3-5.4-0.3-8.2,0l-18.2,1.6c-1.3,0.1-2.7,0.3-4,0.5l-11.9,2.2c-1.8,0.3-3.7,0.5-5.5,0.5h-12.3c-3.3,0-6.5-1.1-9-3.1
				l-2-1.6c-2.8-2.2-4.4-5.5-4.4-9v-1.2c0-2.9,1.1-5.7,3.1-7.8l0.8-0.8c1.4-1.5,3.2-2.7,5.2-3.5L414.3,1088.9z"/>
			<path class="st163" d="M488.3,1133l2.4,1.4l2.6-2.5v38.8c0,12.9,1,25.8,2.9,38.6l5.3,35.3l5.6,49.2c0.8,7.3,1.2,14.6,1.2,21.9
				v18.6c0,10.3-0.8,20.6-2.5,30.8l-5.6,35l-1.7,0.4l-2.9,0.4l6-35.5c1.9-11.2,2.8-22.6,2.7-34l-0.1-15.3
				c-0.1-7.6-0.6-15.2-1.5-22.7l-6.1-48.5l-5.5-35.7c-2-13-3-26.1-3-39.3V1133z"/>
			<path class="st151" d="M349.4,1400.6v19c0,2.3,0.2,4.6,0.6,6.9l0,0c-0.3,5.1,5.2,9.7,13.7,11.3l14.6,2.8l53.1,0.9l120.9-26.6
				l37.2-19.4l-7.2-34l-7.4,7.1c-2.2,2.2-4.7,4.1-7.3,5.9l-10,6.7c-1.7,1.1-3.4,2.1-5.3,3l-8.5,4l-8.8,2.4c-2.3,1.1-4.7,1.9-7.2,2.5
				l-27.7,7l-16.9,2.4l-33.1,4.4l-24.5,3.7l-15.7,1.4c-1.8,0.2-3.6,0.2-5.4,0.2h-16.8c-1.9,0-3.7-0.1-5.5-0.3l-6.8-0.8
				c-3.4-0.4-6.7-1.2-9.9-2.3l-2.9-1c-3.3-1.2-6.5-2.8-9.4-4.7L349.4,1400.6z"/>
		</g>
	</g>
	<g id="right-arm_x5F_saw2">
		<path id="second-right-arm_7_" class="st164" d="M333.6,1160.1l7.6,10.3l8.9,7.6l139.3,94.9c2.4,1.6,10.6,3.9,10.6,3.9l8.8,0.8
			l9-1.6l9.6-3l9.6-3.3l7.5-5.1l4-6.2l1.6-6.1l-1.2-6.6l-4-6.4l-162.1-112.9c-6.2-4.3-16.3-9.9-20.9-12.3c-1.5-0.8-3.2-1.4-4.8-1.8
			l-0.9-0.2c-4.1-0.9-8.2-0.3-11.5,1.5l-2.9,1.6c-1.7,1-3.3,2.2-4.6,3.7l-5.3,5.8l-3.7,5.2l-1.2,8.8l2.2,11.6L333.6,1160.1z"/>
		<g id="first-right-arm_x5F_saw2">
			<g id="saw2">
				<g>
					<path class="st165" d="M747,925.5l65-346c4.7-25.1,32.2-41.1,61.3-35.6l0.5,0.1c29.2,5.5,49,30.4,44.3,55.6l-64.9,345.9"/>
					<g>
						<line class="st166" x1="747" y1="925.5" x2="747.9" y2="920.6"/>
						<path class="st167" d="M749.8,910.8L812,579.5c4.7-25.1,32.2-41.1,61.3-35.6l0.5,0.1c29.2,5.5,49,30.4,44.3,55.6L855,935.6"/>
						<line class="st166" x1="854" y1="940.6" x2="853.1" y2="945.5"/>
					</g>
				</g>
				<path class="st168" d="M757.6,915.8l62.7-334c3.8-20.5,26.2-33.5,49.9-29l2.6,0.5c23.7,4.5,39.8,24.7,36,45.1l-62.7,334"/>
				
					<ellipse transform="matrix(0.1845 -0.9828 0.9828 0.1845 114.5574 1337.0768)" class="st169" cx="863" cy="599.5" rx="25.3" ry="24.9"/>
				<path class="st170" d="M718.1,909.1L718.1,909.1c-6.5,2.5-12,6.9-16.1,12.5l0,0c-1.4,2-2.6,4.2-3.4,6.5l-6.2,17l-10.1,15.3
					c-0.8,1.3-1.6,2.6-2.3,3.9l-3,5.8c-3.3,6.5-5.7,13.4-7,20.6l-1.5,7.7c-0.9,4.7-1.3,9.5-1.1,14.3l0.2,8.9
					c0.2,7.9,1.8,15.8,4.6,23.2l8.9,23.4c2.3,6,6.2,11.3,11.4,15.1l36.3,26.9l-0.2,72.3c0,10,1.8,20,5.4,29.4l0.3,0.8
					c2.5,6.4,6.5,12.1,11.6,16.6l0,0c4.6,4,10.2,6.8,16.2,7.9l16,3c6.9,1.3,14.1,0.1,20.2-3.4l0,0c4.2-2.4,7.5-6.2,9.3-10.8l0.3-0.7
					c3.2-8.1,5.6-16.5,7.2-25.1l12.2-64.3l16.1-85l-9.6-16.4c-1.4-2.3-1.9-5.1-1.4-7.7l16.3-92.5c0.3-1.5-0.2-3-1.2-4.1l0,0
					c-0.9-0.9-2-1.5-3.2-1.7l-106.9-20.3c-1.8-0.3-3.7-0.5-5.5-0.5l-6.9,0C722.6,907.8,720.3,908.3,718.1,909.1z M796,1198.8
					l-3.6,12.6c-0.5,1.8-1.5,3.5-2.9,4.8h0c-2.6,2.5-6.2,3.5-9.7,2.7l-10.8-2.3c-2.8-0.6-5.4-1.6-7.8-3.1l0,0
					c-4.2-2.5-7.4-6.2-9.3-10.7l-0.9-2.1c-1.9-4.6-2.9-9.6-2.9-14.6l0.2-67.5c0-1.7,1.6-3,3.3-2.5l54.3,14.2
					c1.4,0.4,2.3,1.8,2.1,3.2l-11.7,64.1C796.2,1198.1,796.1,1198.5,796,1198.8z"/>
				<path class="st171" d="M843.4,1051l5.9-31.1c0.7-3.5-0.8-7-3.8-9l-9.1-6l-4.8,25.5L843.4,1051z"/>
				<path class="st171" d="M846.2,928.9l14.7,5.5c2.5,0.9,3.9,3.5,3.4,6.1l-2.4,12.9c-0.7,3.9-3.3,7.1-6.9,8.8l-12.6,5.7l6-31.6
					C848.9,933.6,848.1,930.9,846.2,928.9L846.2,928.9z"/>
				<path class="st172" d="M693.5,1083.7l3.2-16.8c0.7-3.8,0.9-7.7,0.5-11.6l-0.2-1.8c-0.3-2.5-0.8-5-1.5-7.4l-4.1-13.3
					c-0.3-0.9-0.5-1.9-0.7-2.9l-1.8-9.1c-0.7-3.5-0.7-7.1,0-10.6l1.2-6.5c0.7-3.4,1.9-6.7,3.8-9.7v0c1.7-2.6,3.8-5,6.2-7l1.1-0.9
					c3.2-2.6,6.9-4.4,10.9-5.3l5.7-1.4l4.3-1.2c1.9-0.5,3.7-1.3,5.3-2.4l1.3-0.8c2.3-1.5,3.9-3.8,4.4-6.5l11.2-58.9l-7-1.3
					c-1.7-0.3-3.3-0.5-5-0.5l-5.8,0c-3.3,0-6.5,0.6-9.6,1.8l-1.2,0.5c-4.8,1.9-9,5.1-12,9.3l-1.6,2.3c-1.4,2-2.5,4.1-3.3,6.4
					l-4.4,12c-1.2,3.4-2.8,6.6-4.8,9.6l-5.4,8.2c-2,3-3.8,6.1-5.4,9.3l-0.6,1.1c-3.9,7.8-6.8,16.1-8.4,24.6l-0.5,2.8
					c-1.2,6.5-1.8,13.2-1.6,19.8l0.1,2.5c0.3,10.4,2.3,20.6,6,30.3l9.3,24.5c1.2,3.1,3.3,5.8,6,7.7L693.5,1083.7z"/>
				<path class="st173" d="M727.2,1047.4l22.2,22.3c1,1,2.1,1.7,3.3,2.3l2.1,0.9c2.1,0.9,4.5,1.2,6.7,0.7l0,0
					c2.8-0.6,5.2-2.2,6.8-4.6l1.5-2.3c0.8-1.2,1.4-2.6,1.7-4l7.5-39.5c0.5-2.7,0.1-5.5-1.2-7.9L764,989.9c-1.3-2.5-1.8-5.3-1.3-8.1
					l12.6-66.3l-26.2-5l-24.4,128.7C724.1,1042.2,725.1,1045.3,727.2,1047.4z"/>
				<path class="st174" d="M800.1,920.4l-12.3,64.8c-0.5,2.6,0.5,5.3,2.6,7l17.9,14.6c1.4,1.1,3.5,0.4,3.9-1.4l13.4-70.5
					c0.3-1.4,0.1-2.9-0.4-4.2l-0.7-1.6c-0.4-1-1-1.8-1.7-2.6l-0.7-0.7c-1.1-1-2.4-1.8-3.9-2L800.1,920.4z"/>
				
					<ellipse transform="matrix(0.1862 -0.9825 0.9825 0.1862 -302.843 1582.769)" class="st175" cx="804" cy="974.2" rx="9.5" ry="9.5"/>
				
					<ellipse transform="matrix(0.1862 -0.9825 0.9825 0.1862 -272.3156 1565.9141)" class="st175" cx="809.1" cy="947.3" rx="9.5" ry="9.5"/>
				
					<ellipse transform="matrix(0.9484 -0.317 0.317 0.9484 -297.9579 268.8847)" class="st171" cx="677.3" cy="1050.1" rx="6.2" ry="19.7"/>
				<polygon class="st176" points="805.5,1057 799.6,1064.4 799.4,1074.6 742.3,1047.8 746,1033.8 				"/>
				
					<ellipse transform="matrix(0.9952 -9.818540e-02 9.818540e-02 0.9952 -99.7844 81.4543)" class="st177" cx="777.7" cy="1054.6" rx="4.4" ry="4.4"/>
				
					<ellipse transform="matrix(0.9952 -9.818540e-02 9.818540e-02 0.9952 -100.2628 82.8671)" class="st177" cx="791.8" cy="1060.1" rx="4.4" ry="4.4"/>
				<path class="st177" d="M742.3,1047.8l-128.4-50.3c-4.1-1.6-7.6-4.4-10.2-8l0,0c-2.2-3.1-3.6-6.7-4-10.4l-1-8.5
					c-0.4-3-0.1-6,0.7-8.8l2.1-7.5c1.1-3.8,3.2-7.3,6.1-10.1l0.8-0.7c2.6-2.5,5.8-4.4,9.3-5.4l2.8-0.8c3.4-1,7.1-1.2,10.6-0.5
					l9.4,1.8c1.1,0.2,2.1,0.5,3.2,0.8l42.9,14.8l-6.4,10.2l-40-14.1c-1-0.3-2-0.5-3.1-0.6l-7.3-0.7c-4.1-0.4-8.2,1.1-11.2,3.9v0
					c-2.1,2-3.5,4.5-4.1,7.3l-0.9,4c-0.4,2-0.4,4.1,0,6.1l0.3,1.4c0.7,3.1,2.3,5.8,4.7,7.9l0.7,0.6c1.1,1,2.4,1.8,3.8,2.3
					l122.9,51.3L742.3,1047.8z"/>
			</g>
			<path class="st153" d="M697.8,1152.2l4.9-6.6c1.1-1.2,2.3-2.4,3.6-3.5l9.8-8.4c1.5-1.3,3.4-2.1,5.4-2.1l4.9-0.2
				c1.8-0.1,3.6,0.6,4.9,1.9l2.7,2.7c0.8,0.8,2.1,0.9,3.1,0.3l5.5-3.4c2.2-1.3,4.9-1.6,7.2-0.8l2.5,0.9c2.6,0.9,4.9,2.4,6.9,4.3
				l2.7,2.5c2.3,2.1,4.1,4.8,5.1,7.9l0.7,2c0.9,2.7,1.6,5.5,1.8,8.4l0.4,3.6c0.4,4-0.2,8.1-1.7,11.9l-0.8,2
				c-1.3,3.3-3.2,6.3-5.7,8.8l-2.2,2.3c-2.2,2.3-4.9,4.1-7.9,5.1l-9.6,3.3c-3.7,1.3-7.5,2.1-11.4,2.3l-13.1,0.8c-0.3,0-0.5,0-0.8,0
				l-17.5-1l0.7-2.6l1-4.3l0.7-4.3l0.7-4.1l-0.2-5.5l-0.2-4.7l-0.5-3.7l-0.4-3.1l-0.6-4.2l-0.8-4L697.8,1152.2z"/>
			<path class="st164" d="M510.6,1281.5c2.3,0.1,4.5-0.3,6.6-1.1l172.2-73c3.8-1.6,6.8-4.3,8.4-7.5l0,0c2.9-5.8,4.4-18,4.4-18
				c0-6.6-1.7-33.2-7-31.2l-178.9,66.9l-10.5,5.7l-7,6.7l-6.4,9.3l-4.2,9.7l-1.6,9.4l2.3,9l4.5,5.9l4.8,3.5c0.8,0.6,1.6,1,2.4,1.4
				l4.9,2.2c1.4,0.6,2.9,1,4.4,1.1L510.6,1281.5z"/>
		</g>
	</g>
	<g id="right-arm_x5F_saw">
		<path id="second-right-arm_1_" class="st164" d="M333.6,1160.1l7.6,10.3l8.9,7.6l139.3,94.9c2.4,1.6,10.6,3.9,10.6,3.9l8.8,0.8
			l9-1.6l9.6-3l9.6-3.3l7.5-5.1l4-6.2l1.6-6.1l-1.2-6.6l-4-6.4l-162.1-112.9c-6.2-4.3-16.3-9.9-20.9-12.3c-1.5-0.8-3.2-1.4-4.8-1.8
			l-0.9-0.2c-4.1-0.9-8.2-0.3-11.5,1.5l-2.9,1.6c-1.7,1-3.3,2.2-4.6,3.7l-5.3,5.8l-3.7,5.2l-1.2,8.8l2.2,11.6L333.6,1160.1z"/>
		<g id="first-right-arm_x5F_saw">
			<g id="chainsaw">
				<g>
					<path class="st165" d="M905.9,607.2L838,938.5l-87.7-18l67.9-331.4c4.9-24.1,28.5-39.6,52.5-34.7l0.4,0.1
						C895.3,559.5,910.8,583,905.9,607.2z"/>
					<g>
						<polyline class="st178" points="839,933.6 838,938.5 833.1,937.5 						"/>
						<line class="st179" x1="824.4" y1="935.7" x2="759.5" y2="922.4"/>
						<polyline class="st178" points="755.1,921.5 750.2,920.5 751.2,915.6 						"/>
						<path class="st180" d="M753.2,905.8l64.9-316.7c4.9-24.1,28.5-39.6,52.5-34.7l0.4,0.1c24.1,4.9,39.7,28.5,34.7,52.7L840,928.7
							"/>
					</g>
				</g>
				<path class="st168" d="M898.2,606.2l-65.6,319.9l-73.2-15L825,591.2c4-19.6,23.2-32.3,42.8-28.2l2.2,0.4
					C889.6,567.4,902.3,586.6,898.2,606.2z"/>
				
					<ellipse transform="matrix(0.2008 -0.9796 0.9796 0.2008 91.9557 1328.0708)" class="st169" cx="860" cy="607.7" rx="24.3" ry="20.7"/>
				<path class="st181" d="M717.6,980.2l-21.5,104.7c-2.3,11,4.9,21.8,15.9,24.1l18.2,3.7l-4.3,32.4c-1.3,9.6-1.7,19.2-1.4,28.8
					l0.3,11.2c0.2,7.5,2.2,14.8,5.8,21.3l0,0c3.3,6.1,7.7,11.5,13,16l0.3,0.3c4.8,4.1,10.6,7,16.9,8.3l1.6,0.3
					c2.6,0.5,5.3,0.3,7.8-0.6c7.5-2.8,14.1-7.7,19-14.1h0c6-7.9,10.5-16.8,13.3-26.4l5.8-19.6l14.6-56.2l-0.6,0.7
					c0.6-1.3,1-2.6,1.3-4.1l21.5-104.7c2.3-11-4.9-21.8-15.9-24.1l-87.3-17.9C730.6,962,719.8,969.2,717.6,980.2z M794.8,1147.2
					c-0.7,3.2-1.5,6.3-2.4,9.4l-4.3,15.1c-3.1,10.8-7.8,21-14.1,30.3v0c-1.5,2.2-3.3,4.2-5.4,5.8l-2,1.6c-2.4,1.9-5.5,2.4-8.3,1.5
					c-1.1-0.3-2.1-0.9-3-1.6l-1.8-1.5c-3.7-3.1-6.6-7.1-8.4-11.6c-2.4-6.2-3.6-12.7-3.6-19.3l-0.1-12.7c0-4.4,0.3-8.7,0.9-13.1
					l4.9-34.8l52.2,10.7c3.2,0.7,0,0,0,0L794.8,1147.2z M814.6,1123.9L814.6,1123.9C814.6,1123.9,814.6,1123.9,814.6,1123.9
					L814.6,1123.9z"/>
				<path class="st182" d="M743.8,964.1L714,1109.7v0c-12.2-2.5-20-14.4-17.5-26.5l21.2-103.2c2.3-11.3,13.3-18.5,24.6-16.2
					L743.8,964.1z"/>
				<path class="st183" d="M710.6,1048.8l-5.8,28.1c-0.6,2.7-3.2,4.4-5.9,3.9h0c-2.7-0.6-4.4-3.2-3.9-5.9l5.8-28.1
					c0.6-2.7,3.2-4.4,5.9-3.9l0,0C709.4,1043.4,711.2,1046.1,710.6,1048.8z"/>
				<path class="st184" d="M800.3,900.1c-32.1-6.6-62,6.7-67.8,29.7c-0.5,1.3-0.9,2.7-1,4.1l-1.1,16.4c-0.4,5.4-0.5,10.9-0.5,16.3
					l0.2,14.6c0,3.5,0.2,6.9,0.4,10.4l0.7,10c1.1,16.5,4.3,32.8,9.5,48.5l0,0c4.9,14.9,11.6,29.1,19.9,42.3c2.1,3.4,5,6.3,8.5,8.5
					l0.6,0.4c4.8,3.1,10.2,5.2,15.8,6.4l0.1,0c2.1,0.4,4.2,0.4,6.2,0c2.9-0.6,5.5-1.8,7.8-3.7c3.8-3,6.9-6.7,9.2-10.9l4.2-7.5
					c3.5-6.3,6.4-13,8.8-19.8l8.1-23.9c1.8-5.2,3.3-10.4,4.6-15.7l8.8-34.7l7.3-35.6c0-0.1,0.1-0.2,0.1-0.3c0-0.1,0-0.2,0.1-0.4
					l0.4-1.7c0.1-0.4,0.1-0.8,0.1-1.2C853.5,929.4,831.5,906.5,800.3,900.1z"/>
				<path class="st185" d="M797.2,1105.7l-7-0.5c-2.2-0.2-4.3-0.6-6.4-1.2l-2.9-0.9c-4.2-1.3-8.1-3.6-11.3-6.6l0,0
					c-1-1-1.9-2.1-2.7-3.3l-6.1-10.1c-1.8-2.9-3.3-6-4.5-9.2l-7.4-18.8c-1-2.5-1.8-5.1-2.5-7.7l-5.7-21.8c-1.2-4.7-2.1-9.4-2.6-14.2
					l-2.5-22.5c-0.2-1.8-0.3-3.5-0.3-5.3l-0.2-16.7c0-2.6-0.2-11.4-0.2-11.4l0.3-10.4l0.9-8.1l0.8-5.2l1.5-6.1l2.6-6.6l2.3-4.3
					l3-4.8l-4.2,3.6l-3.3,3.7l-2.6,3.7l-2,3.9l-1.2,3.3l-1.1,3.7c0,0-0.4,3.2-0.6,5.9l-0.9,12.5l-0.4,8l-0.1,8.4l0.2,14.6l0.9,17.6
					c0.1,1.9,0.3,3.7,0.5,5.6l2.2,17.2c0.3,2,0.6,3.9,1.1,5.9l3,12.6c0.3,1.4,0.7,2.8,1.1,4.1l2.5,7.8c0.5,1.5,1,3,1.6,4.4l4.4,10.9
					c0.7,1.8,1.6,3.6,2.5,5.4l5.9,11.4c0.6,1.2,1.3,2.3,2,3.4l1.8,2.8c2.3,3.6,5.3,6.7,8.7,9.2l2.9,2.1l3.9,2.1
					c2.5,1.4,5.3,2.3,8.1,2.9l1.2,0.2c3.4,0.7,6.9,0.5,10.2-0.5L797.2,1105.7z"/>
				<path class="st186" d="M775.5,1012.7l-9.1,44.2c-0.2,1.1-1.2,1.7-2.3,1.5l-2-0.4c-1.1-0.2-1.7-1.2-1.5-2.3l9.1-44.2
					c0.2-1.1,1.2-1.7,2.3-1.5l2,0.4C775,1010.6,775.7,1011.6,775.5,1012.7z"/>
				<path class="st186" d="M785.5,1014.8l-9.1,44.2c-0.2,1.1-1.2,1.7-2.3,1.5l-2-0.4c-1.1-0.2-1.7-1.2-1.5-2.3l9.1-44.2
					c0.2-1.1,1.2-1.7,2.3-1.5l2,0.4C785,1012.7,785.7,1013.7,785.5,1014.8z"/>
				<path class="st186" d="M795.5,1016.8l-9.1,44.2c-0.2,1.1-1.2,1.7-2.3,1.5l-2-0.4c-1.1-0.2-1.7-1.2-1.5-2.3l9.1-44.2
					c0.2-1.1,1.2-1.7,2.3-1.5l2,0.4C795,1014.7,795.7,1015.7,795.5,1016.8z"/>
				<path class="st186" d="M805.7,1018.9l-9.1,44.2c-0.2,1.1-1.2,1.7-2.3,1.5l-2-0.4c-1.1-0.2-1.7-1.2-1.5-2.3l9.1-44.2
					c0.2-1.1,1.2-1.7,2.3-1.5l2,0.4C805.3,1016.8,805.9,1017.8,805.7,1018.9z"/>
				<path class="st186" d="M815.5,1020.9l-9.1,44.2c-0.2,1.1-1.2,1.7-2.3,1.5l-2-0.4c-1.1-0.2-1.7-1.2-1.5-2.3l9.1-44.2
					c0.2-1.1,1.2-1.7,2.3-1.5l2,0.4C815,1018.8,815.7,1019.8,815.5,1020.9z"/>
				<path class="st183" d="M718.7,1024.1l0.6-0.8c1.1-1.3,1.6-2.9,1.6-4.5l0-0.6c0-1.1-0.6-2.2-1.5-3.1l-1.4-1.3
					c-0.5-0.5-1.1-0.8-1.8-0.9l-16.6-3.4c-1.5-0.3-3-0.7-4.4-1.3l-10.6-4c-3.5-1.3-6.7-3.4-9.2-5.9l-2.2-2.2
					c-3.3-3.3-5.3-7.4-5.8-11.5l-0.6-5.3c-0.2-1.8-0.1-3.5,0.2-5.2l1.6-7.9c0.6-3,2-5.7,4.2-8.1l0,0c3-3.3,7.2-5.5,12.1-6.5l4.4-0.9
					c2.2-0.4,4.4-0.6,6.7-0.4l10.5,0.6c1.4,0.1,2.7,0.3,4,0.5l17.3,3.6c0.7,0.1,1.4,0.1,2.1-0.1l0,0c1.3-0.4,2.4-1.1,3-2.2l0.6-1.1
					c0.5-0.9,0.9-1.8,1.1-2.8l0-0.1c0.3-1.7-0.3-3.5-1.7-4.8l0,0c-0.2-0.2-0.5-0.4-0.8-0.4l-3.2-0.7l-17.7-3.6c-3-0.6-6-0.9-9-0.9
					l-11.1,0c-3.9,0-7.8,0.6-11.4,1.6l-2.3,0.7c-6.4,1.9-11.9,5.2-15.9,9.8l-0.7,0.8c-3.1,3.5-5.2,7.7-6.1,12.1l-1.8,9
					c-0.6,2.8-0.7,5.7-0.3,8.6l1,7.1c0.7,5,2.8,10,6.2,14.3h0c3.2,4.1,7.4,7.6,12.3,10.2l4.6,2.5c2.3,1.2,4.8,2.3,7.3,3.1l11.3,3.6
					c1.5,0.5,2.9,0.8,4.4,1.2l12,2.5c1.5,0.3,3,0.3,4.5,0l0,0C717.4,1025.2,718.2,1024.8,718.7,1024.1z"/>
			</g>
			<path class="st153" d="M697.8,1152.2l4.9-6.6c1.1-1.2,2.3-2.4,3.6-3.5l9.8-8.4c1.5-1.3,3.4-2.1,5.4-2.1l4.9-0.2
				c1.8-0.1,3.6,0.6,4.9,1.9l2.7,2.7c0.8,0.8,2.1,0.9,3.1,0.3l5.5-3.4c2.2-1.3,4.9-1.6,7.2-0.8l2.5,0.9c2.6,0.9,4.9,2.4,6.9,4.3
				l2.7,2.5c2.3,2.1,4.1,4.8,5.1,7.9l0.7,2c0.9,2.7,1.6,5.5,1.8,8.4l0.4,3.6c0.4,4-0.2,8.1-1.7,11.9l-0.8,2
				c-1.3,3.3-3.2,6.3-5.7,8.8l-2.2,2.3c-2.2,2.3-4.9,4.1-7.9,5.1l-9.6,3.3c-3.7,1.3-7.5,2.1-11.4,2.3l-13.1,0.8c-0.3,0-0.5,0-0.8,0
				l-17.5-1l0.7-2.6l1-4.3l0.7-4.3l0.7-4.1l-0.2-5.5l-0.2-4.7l-0.5-3.7l-0.4-3.1l-0.6-4.2l-0.8-4L697.8,1152.2z"/>
			<path class="st164" d="M510.6,1281.5c2.3,0.1,4.5-0.3,6.6-1.1l172.2-73c3.8-1.6,6.8-4.3,8.4-7.5l0,0c2.9-5.8,4.4-18,4.4-18
				c0-6.6-1.7-33.2-7-31.2l-178.9,66.9l-10.5,5.7l-7,6.7l-6.4,9.3l-4.2,9.7l-1.6,9.4l2.3,9l4.5,5.9l4.8,3.5c0.8,0.6,1.6,1,2.4,1.4
				l4.9,2.2c1.4,0.6,2.9,1,4.4,1.1L510.6,1281.5z"/>
		</g>
	</g>
	<g id="right-arm_x5F_ex">
		<path id="second-right-arm_3_" class="st164" d="M327.3,1159.8l5.7,11.5l7.4,9.1l120.5,117.9c2.1,2,9.7,5.7,9.7,5.7l8.5,2.3h9.1
			l10-1.3l10-1.6l8.3-3.7l5.1-5.4l2.6-5.7v-6.7l-2.9-7l-139.8-139.6c-5.3-5.3-14.3-12.6-18.4-15.8c-1.4-1.1-2.9-2-4.4-2.6l-0.9-0.3
			c-3.9-1.6-8-1.8-11.5-0.5l-3.2,1.1c-1.9,0.6-3.6,1.6-5.2,2.8l-6.2,4.7l-4.6,4.4l-2.7,8.5l0.1,11.8L327.3,1159.8z"/>
		<g id="first-right-arm_x5F_ex3">
			<path class="st187" d="M568.5,1488c-4.6-3-3.9-9.9,1.2-11.9l371.6-146.4l115.1-51.2l66.5-26.5l14.3,0.5l14,7.5l-0.4,10.3
				l-6.4,11.5l-30.3,15l-39.8,13.9l-32,7.9c-15.6,3.8-31,8.7-46.1,14.6l-408.3,158.8c-5.3,2-11.2,1.4-15.9-1.7L568.5,1488z"/>
			<path class="st188" d="M1237.7,1384.9c-18.7-9-35.6-21.2-50-36l-9.2-9.5c-7.8-8-14.8-16.7-21.1-25.9l-19.4-28.4l-8.5-17.6
				l-5.5-18.8l-4.6-34.1c-1.5-11.1-2-22.2-1.6-33.4l0.5-13.2c0.7-20.7,5.1-41.1,13-60.3l12.3-30l-24.3-3.4
				c-22.5-3.2-45.3-2.3-67.5,2.7h0c-15.8,3.5-31.1,9.1-45.5,16.5l-14.8,7.7c-14.4,7.4-27.8,16.7-39.8,27.6l-35.6,32.2l43.3,27.6
				c13.9,8.9,26.9,18.9,39,30.2l10.3,9.6c6.1,5.7,11.6,11.8,16.6,18.5l6.6,8.7c7.2,9.6,13.1,20.2,17.4,31.4
				c0.9,3.4,2.1,6.8,3.5,10.1c1.2,3.4,2.6,6.8,4.2,10c4.2,11.2,6.9,22.9,8,34.8l1,10.9c0.8,8.3,0.8,16.6,0.1,24.8l-1.2,14.1
				c-1.4,16.4-4.3,32.6-8.7,48.5l-13.6,49.5h48c16.2,0,32.4-2.1,48.1-6.2l16.1-4.2c15.7-4.1,30.8-10.3,44.9-18.2l0,0
				c19.8-11.2,37.4-25.8,51.9-43.2l15.8-18.9L1237.7,1384.9z"/>
			<path class="st189" d="M1135.7,1096.6l7.7-18.8l-24.3-3.4c-22.5-3.2-45.3-2.3-67.5,2.7h0c-15.8,3.5-31.1,9.1-45.5,16.5l-14.8,7.7
				c-14.4,7.4-27.8,16.7-39.8,27.6l-35.6,32.2l19.2,12.2l12.9-11.2c9.3-8.1,19.3-15.3,30-21.5l10.2-5.9c4.9-2.8,9.9-5.5,15-7.9
				l18.1-8.6c8.8-4.2,17.9-7.7,27.2-10.5l8.1-2.4c11.9-3.6,24.1-6.1,36.5-7.3l4-0.4c7.3-0.8,14.6-1.1,21.9-1.1L1135.7,1096.6z"/>
			<path class="st189" d="M1048.8,1465.5l-6.7,24.2h48c16.2,0,32.4-2.1,48.1-6.2l16.1-4.2c15.7-4.1,30.8-10.3,44.9-18.2l0,0
				c19.8-11.2,37.4-25.8,51.9-43.2l15.8-18.9l-20.9-10l-18.8,15.2c-2.7,2.2-5.6,4.2-8.7,6l-19.3,11.1c-4.1,2.4-8.3,4.6-12.6,6.7
				l-18.4,8.9c-9.2,4.4-18.7,8.2-28.5,11.1l-12.8,3.9c-5.3,1.6-10.6,2.9-16,4.1l-20.3,4.3c-6.4,1.4-12.9,2.4-19.5,3.1L1048.8,1465.5
				z"/>
			<path class="st153" d="M655.7,1413.2l8,1.7c1.6,0.5,3.2,1.1,4.7,1.9l11.6,5.5c1.8,0.9,3.3,2.3,4.2,4l2.2,4.4
				c0.8,1.6,0.9,3.5,0.3,5.2l-1.3,3.5c-0.4,1.1,0,2.3,1,2.9l5.3,3.6c2.1,1.5,3.5,3.8,3.7,6.3l0.2,2.6c0.2,2.7-0.1,5.5-1,8.1
				l-1.2,3.5c-1,3-2.7,5.7-5.1,7.9l-1.5,1.4c-2.1,2-4.4,3.7-6.9,5.1l-3.1,1.8c-3.5,2-7.5,3.2-11.5,3.4l-2.1,0.1
				c-3.5,0.2-7.1-0.4-10.4-1.5l-3-1.1c-3-1.1-5.7-2.8-7.9-5.1l-7-7.3c-2.7-2.8-5-6-6.8-9.4l-6.2-11.6c-0.1-0.2-0.2-0.5-0.4-0.7
				l-6.3-16.4l2.7-0.4l4.4-0.8l4.2-1.1l4-1.1l4.9-2.4l4.1-2.1l3.2-1.9l2.7-1.6l3.6-2.3l3.3-2.4L655.7,1413.2z"/>
			<path class="st164" d="M460.9,1298.3L602,1428.4c3,2.8,6.7,4.4,10.3,4.6h0c6.5,0.3,18.2-3.5,18.2-3.5c6-2.7,29.5-15.2,25.5-19.2
				l-134.7-135.4l-7.1-2.4l-9.6-1.3l-10.6-0.7l-10.6,0.6l-9.1,2l-7.1,4.4l-4.3,4.6l-2.3,4.3l-1,4.3v3.6L460.9,1298.3z"/>
		</g>
		<g id="first-right-arm_x5F_ex2">
			<path class="st190" d="M568.5,1488c-4.6-3-3.9-9.9,1.2-11.9l371.6-146.4l115.1-51.2l66.5-26.5l14.3,0.5l14,7.5l-0.4,10.3
				l-6.4,11.5l-30.3,15l-39.8,13.9l-32,7.9c-15.6,3.8-31,8.7-46.1,14.6l-408.3,158.8c-5.3,2-11.2,1.4-15.9-1.7L568.5,1488z"/>
			<path class="st191" d="M1097.9,1223.7l-6.3-4.1c-6.9-4.5-13.3-9.7-19.2-15.6l-15.9-15.9c-1.6-1.6-4.2-0.5-4.2,1.8v21.6
				c0,7.5-0.8,15-2.5,22.3l-1.3,5.8c-3,13.2-3.4,26.9-1.1,40.2l0,0c1.1,6.4,3,12.6,5.7,18.5v0c6.3,13.7,10.2,28.4,11.6,43.4l1,10.9
				c0.8,8.3,0.8,16.6,0.1,24.8l-1.2,14.1c-1.4,16.4-4.3,32.6-8.7,48.5l-13.6,49.5h48c16.2,0,32.4-2.1,48.1-6.2l16.1-4.2
				c15.7-4.1,30.8-10.3,44.9-18.2l0,0c19.8-11.2,37.4-25.8,51.9-43.2l15.8-18.9l-29.2-14c-18.7-9-35.6-21.2-50-36l-9.2-9.5
				c-7.8-8-14.8-16.7-21.1-25.9l-19.4-28.4l-16.7-34.5l-1.9-3.5C1114.2,1237.6,1106.9,1229.6,1097.9,1223.7z"/>
			<path class="st192" d="M1046.8,1472.6l-4.7,17.1h48c16.2,0,32.4-2.1,48.1-6.2l16.1-4.2c15.7-4.1,30.8-10.3,44.9-18.2l0,0
				c19.8-11.2,37.4-25.8,51.9-43.2l15.8-18.9l-13.9-6.7l-15,13.8c-4.9,4.5-10,8.7-15.4,12.6l-11.1,8c-6.3,4.6-13,8.7-19.9,12.3
				l-13,6.8c-10.6,5.6-21.8,10-33.3,13.2l-12.8,3.5c-7.4,2-15,3.6-22.7,4.5l-23.9,3.1c-4,0.5-8,0.9-12,1.1L1046.8,1472.6z"/>
			<path class="st153" d="M655.7,1413.2l8,1.7c1.6,0.5,3.2,1.1,4.7,1.9l11.6,5.5c1.8,0.9,3.3,2.3,4.2,4l2.2,4.4
				c0.8,1.6,0.9,3.5,0.3,5.2l-1.3,3.5c-0.4,1.1,0,2.3,1,2.9l5.3,3.6c2.1,1.5,3.5,3.8,3.7,6.3l0.2,2.6c0.2,2.7-0.1,5.5-1,8.1
				l-1.2,3.5c-1,3-2.7,5.7-5.1,7.9l-1.5,1.4c-2.1,2-4.4,3.7-6.9,5.1l-3.1,1.8c-3.5,2-7.5,3.2-11.5,3.4l-2.1,0.1
				c-3.5,0.2-7.1-0.4-10.4-1.5l-3-1.1c-3-1.1-5.7-2.8-7.9-5.1l-7-7.3c-2.7-2.8-5-6-6.8-9.4l-6.2-11.6c-0.1-0.2-0.2-0.5-0.4-0.7
				l-6.3-16.4l2.7-0.4l4.4-0.8l4.2-1.1l4-1.1l4.9-2.4l4.1-2.1l3.2-1.9l2.7-1.6l3.6-2.3l3.3-2.4L655.7,1413.2z"/>
			<path class="st164" d="M460.9,1298.3L602,1428.4c3,2.8,6.7,4.4,10.3,4.6h0c6.5,0.3,18.2-3.5,18.2-3.5c6-2.7,29.5-15.2,25.5-19.2
				l-134.7-135.4l-7.1-2.4l-9.6-1.3l-10.6-0.7l-10.6,0.6l-9.1,2l-7.1,4.4l-4.3,4.6l-2.3,4.3l-1,4.3v3.6L460.9,1298.3z"/>
		</g>
		<g id="first-right-arm_3_">
			<path class="st193" d="M568.5,1488c-4.6-3-3.9-9.9,1.2-11.9l371.6-146.4l115.1-51.2l66.5-26.5l14.3,0.5l14,7.5l-0.4,10.3
				l-6.4,11.5l-30.3,15l-39.8,13.9l-32,7.9c-15.6,3.8-31,8.7-46.1,14.6l-408.3,158.8c-5.3,2-11.2,1.4-15.9-1.7L568.5,1488z"/>
			<path class="st153" d="M655.7,1413.2l8,1.7c1.6,0.5,3.2,1.1,4.7,1.9l11.6,5.5c1.8,0.9,3.3,2.3,4.2,4l2.2,4.4
				c0.8,1.6,0.9,3.5,0.3,5.2l-1.3,3.5c-0.4,1.1,0,2.3,1,2.9l5.3,3.6c2.1,1.5,3.5,3.8,3.7,6.3l0.2,2.6c0.2,2.7-0.1,5.5-1,8.1
				l-1.2,3.5c-1,3-2.7,5.7-5.1,7.9l-1.5,1.4c-2.1,2-4.4,3.7-6.9,5.1l-3.1,1.8c-3.5,2-7.5,3.2-11.5,3.4l-2.1,0.1
				c-3.5,0.2-7.1-0.4-10.4-1.5l-3-1.1c-3-1.1-5.7-2.8-7.9-5.1l-7-7.3c-2.7-2.8-5-6-6.8-9.4l-6.2-11.6c-0.1-0.2-0.2-0.5-0.4-0.7
				l-6.3-16.4l2.7-0.4l4.4-0.8l4.2-1.1l4-1.1l4.9-2.4l4.1-2.1l3.2-1.9l2.7-1.6l3.6-2.3l3.3-2.4L655.7,1413.2z"/>
			<path class="st164" d="M460.9,1298.3L602,1428.4c3,2.8,6.7,4.4,10.3,4.6h0c6.5,0.3,18.2-3.5,18.2-3.5c6-2.7,29.5-15.2,25.5-19.2
				l-134.7-135.4l-7.1-2.4l-9.6-1.3l-10.6-0.7l-10.6,0.6l-9.1,2l-7.1,4.4l-4.3,4.6l-2.3,4.3l-1,4.3v3.6L460.9,1298.3z"/>
			<path class="st194" d="M1068.7,1264.3l31.4-15.1c4.8-2.3,10.7-2,16,0.8h0c5.6,3,10.4,7.5,13.6,12.9l8.5,14.1
				c9.1,15.2,20.3,29.2,33.1,41.7l10.3,10c11.1,10.8,23.6,20,37.1,27.3l37.5,20.3c2.9,1.6,3.6,5.3,1.5,7.2l-25.4,22
				c-9.1,7.8-19,14.6-29.7,20.3l0,0c-12.7,6.7-26.4,11.9-40.8,15.4l-32.1,7.9c-2,0.5-4.2-1.1-4.4-3.2l-4.4-36.4
				c-2.6-21.4-8-42.8-16.1-63.6l-2.7-6.8c-2.9-7.5-6.7-14.7-11.2-21.6l-15.9-24.2c-4.7-7.1-7.8-14.9-9.2-22.8l0,0
				C1065.4,1267.8,1066.5,1265.4,1068.7,1264.3z"/>
		</g>
	</g>
	<g id="mouthsmile_1_">
		<path class="st195" d="M430.6,963.2l19.2,4.3c4.1,0.9,8.2,1.5,12.4,1.7l9.3,0.6c5.7,0.3,11.4,0.1,17-0.8l11.2-1.8
			c3.8-0.6,7.5-1.5,11.1-2.7l15.3-5c2.2-0.7,4.5-1.3,6.8-1.8l8.4-1.8c4.3-0.9,8.8-1,13.1-0.4l4.8,0.7c0.7,0.1,1.4,0.4,2,0.8l0,0
			c1.3,0.9,1.9,2.5,1.4,4l-3.4,11.3c-0.7,2.2-1.4,4.4-2.2,6.5l-3.4,9c-2,5.2-4.4,10.3-7.2,15.1l-5.6,9.6l-8.7,14.1
			c-1.4,2.3-3,4.6-4.6,6.8l0,0c-4.7,6.1-10.1,11.7-16.1,16.6l-1.4,1.2c-3.1,2.5-6.5,4.6-10.2,6.1l-5.7,2.4c-2.8,1.2-5.6,2.1-8.6,2.7
			l-7.9,1.5c-5.2,1-10.4,1.5-15.7,1.5h-6c-6.8,0-13.6-0.7-20.2-2l-1.7-0.3c-9.2-1.9-18.2-4.7-26.7-8.4l-8.3-3.7
			c-3.4-1.5-6.6-3.1-9.8-5l-5.3-3.1c-5.7-3.3-10.9-7.2-15.7-11.7l-3.9-3.6c-1.8-1.7-3.6-3.5-5.2-5.5l-11.7-14
			c-2-2.4-3.7-4.9-5.1-7.6l-3.3-6c-2.1-3.8-3.2-8.1-3.2-12.4v-1.8c0-3.5,1-6.9,3-9.8h0c2.3-3.5,5.5-6.4,9.2-8.4l3-1.6
			c3.2-1.8,6.7-3.1,10.3-3.9h0c7-1.6,14.2-2.4,21.5-2.4h6.6c5.5,0,11,0.6,16.3,1.8l6.8,1.5c1.2,0.3,2.3,0.6,3.4,1l6.5,2.2
			C425.3,961.9,427.9,962.6,430.6,963.2z"/>
		<path class="st153" d="M407.2,975l1.5-0.3c2.3-0.4,4.6-0.2,6.8,0.6l7.5,2.7c0.6,0.2,1.1,0.4,1.7,0.5l16.7,4.5
			c0.9,0.3,1.9,0.5,2.8,0.7l8.1,1.7c4,0.8,8.1,1.2,12.2,1.2h14.3c1.8,0,3.6-0.1,5.4-0.3l8-0.7c5-0.5,9.9-1.4,14.6-2.8l2.9-0.9
			c6.4-1.9,12.5-4.6,18.1-8l6-3.6l7-3.9c1.5-0.9,3.4-0.9,5-0.2l0,0c2.2,1,3.6,3,3.6,5.3v2.3c0,2.3-0.5,4.6-1.3,6.8l-4,9.7
			c-0.5,1.3-1.2,2.5-1.9,3.7l-8.4,13.7c-1,1.6-2.1,3-3.5,4.3l-7.3,7c-2.1,2-4.6,3.6-7.3,4.8l-15.5,6.5c-2.5,1.1-5.2,1.8-7.9,2.2
			l-12.1,1.8c-2.3,0.3-4.6,0.5-6.8,0.3l-14.4-0.7c-5-0.2-10-1.2-14.8-2.8l-8-2.7c-5-1.7-9.5-4.5-13.3-8l-3.1-2.9
			c-2.4-2.2-4.3-4.9-5.6-7.9l-5-11.3c-0.4-0.9-0.7-1.8-1-2.8l-3.3-11.2c-0.4-1.4-0.6-2.8-0.6-4.3v-1.3
			C404,976.9,405.3,975.3,407.2,975z"/>
		<path class="st196" d="M411,979.6L411,979.6c10.3,5.3,20.9,9,31.8,11l4.5,0.8c7.9,1.5,15.9,2.2,23.9,2.2h7.7
			c9.1,0,18.2-1.4,27.2-4l3.1-0.9c7-2.1,13.7-5.5,20.1-10l13.3-9.5c1.8-1.3,3.8,1.4,2.9,4.1v0c-2.9,8.8-6.8,17-11.3,24.3l-6.2,10
			c-3.1,4.9-6.9,8.5-11.3,10.6l-6.8,3.2c-5.3,2.5-10.7,4.2-16.2,5.1l-20.1,3.2c-6.2,1-12.4,0.8-18.6-0.6l-10.4-2.3
			c-8-1.8-15.6-6.8-21.7-14.4l-0.3-0.3c-4.4-5.5-7.8-12.4-10-20.1c0,0-2.2-7.8-2.9-10.4C409.3,980.4,410.1,979.2,411,979.6z"/>
		<path class="st197" d="M444.4,1026.9l5.4-5c6.3-5.9,13.1-10.2,20.4-12.9l0.7-0.3c4.8-1.8,9.9-0.4,13.9,3.7l0,0
			c2,2.1,4.9,1.6,6.5-1.2l0.5-0.8c2.8-4.8,7-7.5,11.3-7.5h1.8c5.6,0,11.1,1.1,16.4,3.3l5.9,2.4l0,0c-2.6,4.2-6,7.4-9.8,9.2l-9.7,4.6
			c-3.9,1.9-7.9,3.1-12,3.8l-24.1,3.9c-4.9,0.8-9.9,0.7-14.9-0.4L444.4,1026.9z"/>
		<path class="st159" d="M419.4,983.5l4.3,7.1l5.8,3.8c2.3,1.5,5,2.7,8.1,3.7l4.3,1.3c3,0.9,6.3,1.6,9.6,1.9l10.2,1.1
			c2.2,0.2,4.4,0.4,6.6,0.4h13c2.8,0,5.7-0.2,8.4-0.6l9.1-1.3c5.3-0.8,10.2-2.2,14.3-4.3l6.5-3.2c2.4-1.2,4.5-2.5,6.2-4l8.3-7.3
			c1.2-1.1,2.3-2.2,3.1-3.4l3-4.3l0.7-4.1l-4.7,3.4l-9.9,6.9c-1.1,0.7-2.2,1.4-3.5,2l-6.8,3.4c-1.9,0.9-4,1.7-6.3,2.3l-10.5,2.9
			c-2,0.5-4.1,1-6.2,1.3l-4.4,0.6c-2,0.3-4,0.4-6,0.4l-12,0.2c-1.7,0-3.4,0-5-0.2l-11-0.9c-1.7-0.1-3.5-0.4-5.1-0.7l-10.7-2.1
			c-1.9-0.4-3.7-0.8-5.4-1.4L419.4,983.5z"/>
		<path class="st159" d="M426.6,1016.7l7,0.3l6,2.6c2.2,1,4.6,1.8,7.1,2.4l3.1,0.7c3.9,0.9,8,1.4,12.3,1.4h6.7
			c3.1,0,6.2-0.3,9.2-0.8l11.2-1.9c1.4-0.2,2.7-0.5,4-0.9l10.3-2.7c2.3-0.6,4.4-1.3,6.4-2.2l5.1-2.3c2.2-1,4.2-2.1,5.9-3.4l6.7-5.2
			h2.1l-4,5.9c-0.6,0.9-1.4,1.8-2.4,2.6l-2.8,2.4c-0.8,0.7-1.7,1.3-2.7,1.9l-4.3,2.5c-0.7,0.4-1.4,0.7-2.1,1.1l-4.3,1.9
			c-1.7,0.8-3.6,1.4-5.6,1.8l-5.4,1.2c-0.7,0.2-1.4,0.3-2.2,0.4l-7.9,1.3l-6.7,1.1l-5.6,1c-1.5,0.3-3,0.4-4.5,0.5l0,0
			c-2.1,0.1-4.3,0.1-6.4-0.1l-2.9-0.3c-1.3-0.1-2.6-0.3-3.8-0.6l-6.1-1.3l-4.9-1.1c-1.7-0.4-3.3-0.9-4.8-1.5l-2.3-1
			c-1.4-0.6-2.6-1.2-3.7-2l-2.5-1.7c-0.7-0.4-1.3-0.9-1.9-1.4L426.6,1016.7z"/>
	</g>
	<g id="pupils_1_">
		<ellipse class="st198" cx="423.1" cy="872.9" rx="12.5" ry="12"/>
		<ellipse class="st198" cx="521.4" cy="872.9" rx="12.5" ry="12"/>
	</g>
</g>
</svg>
