<?xml version="1.0" encoding="utf-8"?>
<!-- Generator: Adobe Illustrator 21.0.0, SVG Export Plug-In . SVG Version: 6.00 Build 0)  -->
<svg version="1.1" id="game" xmlns="http://www.w3.org/2000/svg" xmlns:xlink="http://www.w3.org/1999/xlink" x="0px" y="0px"
	 viewBox="0 0 1448.5 2224" style="enable-background:new 0 0 1448.5 2224;" xml:space="preserve">
<style type="text/css">
	.st0{fill:url(#gradient4_1_);}
	.st1{fill:url(#gradient5_1_);}
	.st2{fill:#66E2FF;}
	.st3{fill:none;stroke:#B28052;stroke-miterlimit:10;}
	.st4{fill:#96735C;}
	.st5{fill:#825D49;stroke:#BF8A5E;stroke-miterlimit:10;}
	.st6{fill:#AD7D5C;stroke:#B28052;stroke-miterlimit:10;}
	.st7{fill:#BC8864;stroke:#B28052;stroke-miterlimit:10;}
	.st8{fill:#A37B61;}
	.st9{fill:#BC8866;}
	.st10{fill:#E0A57E;stroke:#B28052;stroke-miterlimit:10;}
	.st11{fill:#D19A7C;stroke:#B28052;stroke-miterlimit:10;}
	.st12{fill:#F4DBCE;}
	.st13{fill:#DBC7BF;}
	.st14{fill:#8E684F;stroke:#BF8A5E;stroke-miterlimit:10;}
	.st15{fill:#AD753E;}
	.st16{fill:#966636;}
	.st17{fill:#A87339;}
	.st18{fill:#BC8651;}
	.st19{fill:#AA7A4F;}
	.st20{fill:#C99465;}
	.st21{fill:none;stroke:#634B2A;stroke-miterlimit:10;}
	.st22{fill:#B28052;}
	.st23{fill:#96674D;stroke:#A57758;stroke-width:3;stroke-miterlimit:10;}
	.st24{fill:none;stroke:#A57758;stroke-width:3;stroke-miterlimit:10;}
	.st25{fill:#5C7552;}
	.st26{fill:#E2CA96;}
	.st27{fill:#6F8763;}
	.st28{fill:#EAD7A2;}
	.st29{fill:#F9F2EF;}
	.st30{fill:#382C26;}
	.st31{fill:#936F5F;}
	.st32{fill:#7C655C;}
	.st33{fill:#F9A182;}
	.st34{fill:#DBC697;}
	.st35{fill:#8C7857;}
	.st36{fill:#635872;}
	.st37{fill:#6B7F60;}
	.st38{fill:#755D3F;}
	.st39{fill:#C9B8A7;}
	.st40{fill:#00CFFF;}
	.st41{fill:#03CDE2;}
	.st42{fill:#00DBFF;}
	.st43{fill:#00E7FF;}
	.st44{fill:#00F3FF;}
	.st45{fill:#2EFFF9;}
	.st46{fill:#78FFF8;}
	.st47{fill:#FFF0BF;}
	.st48{fill:#F7E4A6;}
	.st49{fill:#BCCC60;}
	.st50{fill:url(#sea_1_);}
	.st51{fill:#98958C;}
	.st52{fill:#ACA7A1;}
	.st53{fill:#C2BEB5;}
	.st54{fill:#D6C8A3;}
	.st55{fill:#D3C7A7;}
	.st56{fill:#DBCDAF;}
	.st57{fill:#ADA8A2;}
	.st58{fill:#99968D;}
	.st59{fill:#C2BDB3;}
	.st60{fill:#8D8880;}
	.st61{fill:#D3CAB2;}
	.st62{fill:#8B877E;}
	.st63{fill:#9B988F;}
	.st64{fill:#B9B2AA;}
	.st65{fill:#C3BFB6;}
	.st66{fill:#DDCFAF;}
	.st67{fill:#CCBFA6;}
	.st68{fill:#CED18B;}
	.st69{fill:#99968B;}
	.st70{fill:#969089;}
	.st71{fill:#C4BFB3;}
	.st72{fill:#939189;}
	.st73{fill:#B7B5AB;}
	.st74{fill:#C6BBA5;}
	.st75{fill:#CEC2AA;}
	.st76{fill:#CCC1AA;}
	.st77{fill:#9E9C95;}
	.st78{fill:#C9BDA6;}
	.st79{fill:#C6BBA7;}
	.st80{fill:#BAB3A6;}
	.st81{fill:#A5A299;}
	.st82{fill:#CCC0A8;}
	.st83{fill:#C3BFB4;}
	.st84{fill:#9A978E;}
	.st85{fill:#B8B1AA;}
	.st86{fill:#8D877F;}
	.st87{fill:#C4BCA9;}
	.st88{fill:#B5AD9E;}
	.st89{fill:#C5BEB6;}
	.st90{fill:#B5B3AC;}
	.st91{fill:#D5D1C6;}
	.st92{fill:#BCB4B1;}
	.st93{fill:#999793;}
	.st94{fill:#8E8E87;}
	.st95{fill:#A3A19D;}
	.st96{fill:#B5B4B1;}
	.st97{fill:#A8A7A7;}
	.st98{fill:#A09D97;}
	.st99{fill:#D3CFC3;}
	.st100{fill:#ADAAA6;}
	.st101{fill:#B2B1AF;}
	.st102{fill:#9B978F;}
	.st103{fill:#AAA7A0;}
	.st104{fill:#CCC8C4;}
	.st105{fill:#D3D0CD;}
	.st106{fill:#C9C3BD;}
	.st107{fill:#B2AFA8;}
	.st108{fill:#999692;}
	.st109{fill:#898683;}
	.st110{fill:#A3A29B;}
	.st111{fill:#B2AEAA;}
	.st112{fill:#D6D0C9;}
	.st113{fill:#918D87;}
	.st114{fill:#DBD5C6;}
	.st115{fill:#B7B3AE;}
	.st116{fill:#C4C1BB;}
	.st117{fill:#9B9891;}
	.st118{fill:#D8D5CB;}
	.st119{fill:#939089;}
	.st120{fill:#A8A6A0;}
	.st121{fill:#D8D5D0;}
	.st122{fill:#A8A49B;}
	.st123{fill:#96928A;}
	.st124{fill:#CEC8C2;}
	.st125{fill:#C4996C;}
	.st126{fill:#B7845A;}
	.st127{fill:#D5A776;}
	.st128{fill:#477F16;}
	.st129{fill:#436818;}
	.st130{fill:#AA7B43;}
	.st131{fill:#B79056;}
	.st132{fill:#AD9655;}
	.st133{fill:#DD9D68;}
	.st134{fill:#C18B59;stroke:#A87848;stroke-miterlimit:10;}
	.st135{fill:#B28056;}
	.st136{fill:#AD7D59;}
	.st137{fill:#AA7D5C;}
	.st138{fill:#DDCBBF;}
	.st139{fill:#DBDAD9;}
	.st140{fill:#D8A380;}
	.st141{fill:#CE987A;}
	.st142{fill:#CC9D85;}
	.st143{fill:#C6977F;}
	.st144{fill:#C19784;}
	.st145{fill:#C69B8B;}
	.st146{fill:#B7958B;}
	.st147{fill:#AF8958;}
	.st148{fill:#967A60;}
	.st149{fill:#C9D1D3;}
	.st150{fill:#635C55;}
	.st151{fill:#65868F;}
	.st152{fill:#6CC1A0;}
	.st153{fill:#EFCE8E;}
	.st154{fill:#60523B;}
	.st155{fill:#EFC58E;}
	.st156{fill:#6D5D41;}
	.st157{fill:#E8C192;}
	.st158{fill:#EFCA7F;}
	.st159{fill:#FFFFFF;}
	.st160{fill:#E5C57C;}
	.st161{fill:#59585E;}
	.st162{fill:#6FC9A9;}
	.st163{fill:#686770;}
	.st164{fill:#86D1B1;}
	.st165{fill:#2D2924;}
	.st166{fill:none;stroke:#2D2924;stroke-width:24;stroke-miterlimit:10;}
	.st167{fill:none;stroke:#2D2924;stroke-width:24;stroke-miterlimit:10;stroke-dasharray:10.0234,10.0234;}
	.st168{fill:#C0D3D7;}
	.st169{fill:#98A9B1;}
	.st170{fill:#D8372D;}
	.st171{fill:#414143;}
	.st172{fill:#EE5547;}
	.st173{fill:#A22921;}
	.st174{fill:#9C271F;}
	.st175{fill:#D2C4A9;}
	.st176{fill:#ABABAB;}
	.st177{fill:#4F4F4F;}
	.st178{fill:none;stroke:#2D2924;stroke-width:18;stroke-miterlimit:10;}
	.st179{fill:none;stroke:#2D2924;stroke-width:18;stroke-miterlimit:10;stroke-dasharray:8.8394,8.8394;}
	.st180{fill:none;stroke:#2D2924;stroke-width:18;stroke-miterlimit:10;stroke-dasharray:9.9611,9.9611;}
	.st181{fill:#E26B47;}
	.st182{fill:#FF8243;}
	.st183{fill:#47413F;}
	.st184{fill:#EF8424;}
	.st185{fill:#FDA83D;}
	.st186{fill:#994E22;}
	.st187{fill:#965F29;}
	.st188{fill:#7F7F7F;}
	.st189{fill:#D6D5D4;}
	.st190{fill:#C98235;}
	.st191{fill:#999999;}
	.st192{fill:#E2E1E0;}
	.st193{fill:#D98D31;}
	.st194{fill:#B5B5B5;}
	.st195{fill:#7F6752;}
	.st196{fill:#777770;}
	.st197{fill:#F29575;}
	.st198{fill:#3F3831;}
	.st199{fill:url(#gradient_1_);}
	.st200{fill:#997933;}
	.st201{fill:#937334;}
	.st202{fill:#A9DB52;}
	.st203{fill:#96C639;}
	.st204{fill:#82B71C;}
	.st205{fill:#B6E55C;}
	.st206{fill:#90C125;}
	.st207{fill:#A9D146;}
	.st208{fill:#8E7036;}
	.st209{fill:#846939;}
	.st210{fill:#78A038;stroke:#81AD2B;stroke-width:3;stroke-miterlimit:10;}
	.st211{fill:#658E30;}
	.st212{fill:#85AA44;}
	.st213{fill:#7EAF31;}
	.st214{fill:#018287;}
	.st215{fill:#0F0F0F;}
	.st216{fill:#303030;}
	.st217{fill:#333333;}
	.st218{fill:#1A1A1A;}
	.st219{fill:#424242;}
	.st220{fill:#00666A;}
	.st221{fill:#212121;}
	.st222{fill:#111111;}
	.st223{fill:#A3A3A3;}
	.st224{fill:#ACACAE;}
	.st225{fill:#161616;}
	.st226{fill:#00686B;}
	.st227{fill:#161616;stroke:#373737;stroke-miterlimit:10;}
	.st228{fill:none;stroke:#D98D31;stroke-miterlimit:10;}
	.st229{fill:#242424;}
	.st230{fill:#373737;}
	.st231{fill:url(#gradient2_1_);}
	.st232{fill:url(#gradient3_1_);}
	.st233{fill:#B67D56;}
	.st234{fill:#83492A;}
	.st235{fill:#9C6038;}
	.st236{fill:#683920;}
	.st237{fill:#563119;}
	.st238{fill:#CC9E75;}
	.st239{fill:#633A23;}
	.st240{fill:#F9F6CD;}
	.st241{fill:none;stroke:#000000;stroke-miterlimit:10;}
	.st242{fill:#EDFF85;stroke:#000000;stroke-miterlimit:10;}
	.st243{fill:none;stroke:#2D2924;stroke-width:18;stroke-miterlimit:10;stroke-dasharray:10.6132,10.6132;}
	.st244{fill:none;stroke:#2D2924;stroke-width:18;stroke-miterlimit:10;stroke-dasharray:9.9851,9.9851;}
	.st245{fill:none;stroke:#2D2924;stroke-width:24;stroke-miterlimit:10;stroke-dasharray:10.1023,10.1023;}
	.st246{fill:#A59D58;}
	.st247{fill:#CCA962;}
	.st248{fill:none;stroke:#EFCF97;stroke-miterlimit:10;}
	.st249{fill:#EFCF97;}
	.st250{fill:#846431;}
	.st251{fill:#75634C;}
	.st252{fill:#7A6A59;}
	.st253{fill:#FFF980;stroke:#000000;stroke-miterlimit:10;}
	.st254{fill:#FFF980;stroke:#FFF980;stroke-miterlimit:10;}
	.st255{fill:#EDFF85;stroke:#EDFF85;stroke-miterlimit:10;}
	.st256{fill:#E5DFA1;}
	.st257{fill:#F9F6CD;stroke:#000000;stroke-miterlimit:10;}
	.st258{fill:none;stroke:#2D2924;stroke-width:24;stroke-miterlimit:10;stroke-dasharray:9.8069,9.8069;}
	.st259{fill:none;stroke:#2D2924;stroke-width:18;stroke-miterlimit:10;stroke-dasharray:11.8613,11.8613;}
	.st260{fill:none;stroke:#2D2924;stroke-width:18;stroke-miterlimit:10;stroke-dasharray:10.2463,10.2463;}
</style>
<g id="charackter_x5F_cliffs">
	<g id="legs">
		<g id="left-foot_3_">
			<path class="st148" d="M581.6,1812.2l-3.4,15.7c-1.5,4.6-6,9.1-6.3,13.9l-1,13.7l9,7.2l6.7,5.5c0.7,0.6,1.4,1,2.3,1.4l43.8,18.2
				c0.3,0.1,0.6,0.2,0.9,0.4l44.6,21.9c4.9,2.4,10,4.1,15.4,5.1l6.3,1.2c3.6,0.7,7.2,1,10.9,1h5c5.6,0,11.3-0.7,16.7-2.1l0,0
				c4.4-1.1,8.7-3,12.4-5.5l8.4-5.6c2.4-1.6,4.5-3.5,6.3-5.6l0.4-0.5c3.2-3.8,5-8.5,5-13.3v-2.2c0-2.6-0.5-5.1-1.5-7.5v0
				c-3-7-8.5-12.8-15.6-16.1l-34.5-16.4l-38.4-23.1l-6.7-9.8l-4.6-8.3l-8-3.8l-20.2-1.4h-19.7l-17.8,3l-9.5,4.3L581.6,1812.2z"/>
			<path class="st149" d="M570.8,1855.5l37.7,13.6l33.3,13.8l31.7,17.1c2.4,1.3,4.9,2.4,7.5,3.4l5.2,2c6.6,2.5,13.6,3.8,20.7,3.8
				h7.1c4,0,7.9-0.4,11.8-1.1l6.5-1.2c4.4-0.8,8.5-2.5,12.1-5l4.1-2.9c2.6-1.8,5-3.9,7.2-6.3l9-9.9v5.4c0,2.6-1,5.2-2.7,7.2
				l-5.5,6.4l-12.6,8.4c-3.4,2.2-7.1,3.9-11.1,4.9l-2.5,0.6c-4.3,1.1-8.7,1.6-13.1,1.6h-6.8c-3.7,0-7.4-0.3-11-1l-6.5-1.2
				c-5.2-1-10.2-2.7-14.8-5l-42.6-20.9c-1.8-0.9-3.6-1.7-5.4-2.5l-42.8-17.8l-10.2-3.4c-2.8-0.9-4.8-3.2-5.5-5.9L570.8,1855.5z"/>
			<g>
				<g>
					<path class="st150" d="M639.4,1825.3c6.9,0.7,13.5-0.4,20.4-0.8c6.5-0.4,12.7,1.2,19.1,0.9c1.9-0.1,1.9-3.1,0-3
						c-6.4,0.3-12.7-1.3-19.1-0.9c-6.8,0.4-13.5,1.5-20.4,0.8C637.5,1822.1,637.5,1825.1,639.4,1825.3L639.4,1825.3z"/>
				</g>
			</g>
			<g>
				<g>
					<path class="st150" d="M664.7,1809.8c-0.4,12.4,3.6,23.9,3.9,36.3c0,1.9,3,1.9,3,0c-0.1-5.5-0.3-11-1.5-16.3
						c-1.6-6.8-2.6-12.9-2.3-19.9C667.7,1807.8,664.7,1807.8,664.7,1809.8L664.7,1809.8z"/>
				</g>
			</g>
			<g>
				<g>
					<path class="st150" d="M674.3,1848.5c4.3,0.1,8.4-2,12.5-3.4c4.8-1.6,9.7-3.1,14.5-4.4c1.9-0.5,1.1-3.4-0.8-2.9
						c-4.3,1.2-8.5,2.5-12.7,3.8c-4.2,1.4-9,4-13.5,3.9C672.3,1845.4,672.3,1848.4,674.3,1848.5L674.3,1848.5z"/>
				</g>
			</g>
			<g>
				<g>
					<path class="st150" d="M682.8,1828.5c2,5.7,3.8,11.5,6.3,17c1.4,3.3,3,6,3.5,9.6c0.2,1.9,0.5,3.4,1.4,5.1
						c0.9,1.7,3.5,0.2,2.6-1.5c-1.1-2.1-0.9-4.4-1.4-6.7c-0.5-2.3-1.7-4.2-2.7-6.3c-2.7-5.7-4.6-12-6.7-18
						C685,1825.9,682.1,1826.6,682.8,1828.5L682.8,1828.5z"/>
				</g>
			</g>
		</g>
		<g id="right-foot_3_">
			<path class="st148" d="M357.4,1853.7l-2.7,2.3c-5.2,4.3-9.3,9.7-12.1,15.8l-1.3,2.9c-2.4,5.2-3.6,10.9-3.6,16.6v6.1
				c0,3.6,1.7,6.9,4.6,9.2l0,0c8.3,6.4,17.4,12,27,16.5l58.8,27.9c10.1,4.8,21.2,7.3,32.5,7.3h27l37-7.3c7.7-1.5,14.6-5.4,19.6-11.2
				l2.4-2.7c3-3.4,4.6-7.6,4.6-12v-4.4l-0.3-1.5c-1.1-4.8-4.1-8.9-8.4-11.5l-4.8-2.9c-3.5-2.1-7.2-3.9-11.1-5.3l-11.3-4.3l-23.2-10
				l-19-8.2c-4.1-1.8-7.5-4.9-9.5-8.8l-6.3-12.3l-6.9-5.5c-2.5-1.9-13.8-5.8-16.2-5.8l-15-2.6c-2.3,0-15.3,0.5-17.6,0l-17.8,1.7
				l-15.5,5.4L357.4,1853.7z"/>
			<path class="st149" d="M337.6,1891.4l13.7,10.6c6.3,4.9,13.2,9.2,20.4,12.7l54.5,26.8c7.3,3.6,15.3,5.7,23.5,6.2l23.3,1.4
				c6.5,0.4,13,0,19.4-1.1l32.1-5.8c2.9-0.5,5.8-1.6,8.4-3l3.8-2.2l14.4-16.4v5.8c0,3.5-1.3,6.9-3.7,9.6l-5.3,6.1
				c-3.8,4.3-8.9,7.2-14.6,8.3l-32.4,6.4c-5.1,1-10.3,1.5-15.5,1.5h-22.3c-9.2,0-18.3-2-26.5-5.9l-64.4-30.5
				c-7.7-3.7-15-8.1-21.8-13.3l-3.6-2.8c-2.2-1.7-3.4-4.2-3.4-6.8V1891.4z"/>
			<g>
				<g>
					<path class="st150" d="M422.7,1880.3c15.6-0.5,31.3-0.2,46.9,0.8c1.9,0.1,1.9-2.9,0-3c-15.6-1-31.2-1.3-46.9-0.8
						C420.8,1877.4,420.8,1880.4,422.7,1880.3L422.7,1880.3z"/>
				</g>
			</g>
			<g>
				<g>
					<path class="st150" d="M453.7,1865.3c-2,11.9-3.1,23.2-9.6,33.6c-1,1.6,1.6,3.1,2.6,1.5c6.6-10.6,7.9-22.1,9.9-34.3
						C456.9,1864.2,454,1863.4,453.7,1865.3L453.7,1865.3z"/>
				</g>
			</g>
			<g>
				<g>
					<path class="st150" d="M453.5,1904.4c14-4.7,28.3-8.4,42.8-11c1.9-0.4,1.1-3.2-0.8-2.9c-14.5,2.7-28.8,6.4-42.8,11
						C450.9,1902.1,451.6,1905,453.5,1904.4L453.5,1904.4z"/>
				</g>
			</g>
			<g>
				<g>
					<path class="st150" d="M476.8,1883.6c1.8,10.7,2.8,21.5,3,32.4c0,1.9,3.1,1.9,3,0c-0.3-11.2-1.4-22.2-3.2-33.2
						C479.4,1880.9,476.5,1881.7,476.8,1883.6L476.8,1883.6z"/>
				</g>
			</g>
		</g>
		<path id="first-left-leg_3_" class="st151" d="M565.4,1624.9l4.3-10.8l9.6-8.4l14.6-7.1l18.9-3.6l25.3,0.5l16.3,3.1l9,5.7l0.4,0.5
			c3.9,4.7,6.2,9.8,6.8,14.9l0.2,1.4l1,189.4l0,0c-5.6,4.4-12.1,7.8-19.2,9.9l-3.5,1.1c-9.5,2.8-19.3,4.5-29.1,4.9l-2,0.1
			c-13.6,0.6-27.2-1.1-39.9-4.8l-2.3-0.7L565.4,1624.9z"/>
		<path id="first-right-leg_3_" class="st151" d="M371.2,1656.8l2.7-28.7l10.3-7.2l15.3-4.7l18.3-1.8l17.7,0.2l18.1,2.5l16,4.7
			l12.4,6.4l0,0c4.2,6,5.9,12.5,5.1,19l-27.6,207.6l0,0c-6.7,3.8-14.1,6.3-21.9,7.4l-1.2,0.2c-12.4,1.8-25.1,2-37.6,0.7l-5.9-0.6
			c-10.3-1.1-20.4-3.8-29.6-8.1l-8.2-3.8L371.2,1656.8z"/>
		<path id="second-left-leg_3_" class="st151" d="M565.4,1624.9L491.8,1431l-1.8-13.2l3.3-10.5l8.4-9.3c0.8-0.9,1.6-1.7,2.6-2.5
			l7.4-6.1l21.8-6l22,0.7l21.1,2.7l15.9,8.7l9.3,25.9l54.9,150.5l7.8,23.1l4.3,15l1.5,8.6l-10,11.8l-19.5,7.6l-27.5,3.2l-34-4.9
			L565.4,1624.9z"/>
		<path id="second-right-leg_3_" class="st151" d="M352.4,1438.5l22.2,206l8.8,9.4l13.4,5.5l19.4,3.4l19.2-0.3l18.1-2l16.5-4.8
			l7-3.8c2.5-1.4,4.6-3,6-4.8l0,0c4.2-5.5,6.1-11.5,5.6-17.5l-1.4-16.1l-9.5-162.8l-0.3-28.2l-16.2-5.8l-21.9-2.7l-28.9-1.7
			l-29.4,3.5l-17,4.1c-2.6,0.6-4.7,1.7-5.9,3.1h0C353.8,1427.8,351.9,1433.2,352.4,1438.5z"/>
	</g>
	<g id="left-arm_x5F_perf2">
		<path id="second-left-arm_6_" class="st152" d="M533.9,1112.8l3.1,11.2l5.1,9.3l87.5,125.4c1.5,2.1,6.8,7.9,6.8,7.9l7.8,3.7
			l8.4,1.6l8.2,0.4l7.1-1.7l7.3-3.4l4.3-4.9l2.9-7.4l0.6-6.5l-0.7-6.3l-3.1-6.1l-92.7-135.9c-3.8-5.6-10.7-13.6-13.7-17.2
			c-1-1.2-2.2-2.2-3.5-3l-0.7-0.5c-3.2-2.1-6.8-2.9-10.2-2.4l-3,0.4c-1.8,0.3-3.5,0.8-5.1,1.6l-6.3,3.2l-4.8,3.2l-3.9,7.1l-1.9,10.5
			L533.9,1112.8z"/>
		<g id="first-left-arm_6_">
			<path class="st153" d="M701.1,1429l4.7,5.8c0.8,1.3,1.6,2.6,2.2,4l5.1,10.5c0.8,1.6,1,3.5,0.6,5.2l-0.9,4.3
				c-0.4,1.6-1.4,3-2.8,3.9l-2.9,1.7c-0.9,0.5-1.3,1.6-1,2.6l1.7,5.6c0.7,2.2,0.3,4.6-1,6.5l-1.4,2c-1.4,2-3.2,3.8-5.3,5.1l-2.8,1.8
				c-2.4,1.5-5.2,2.5-8.1,2.7l-1.9,0.1c-2.6,0.2-5.2,0.1-7.8-0.3l-3.2-0.5c-3.6-0.6-7.1-2-10.1-4.2l-1.6-1.1c-2.6-1.9-4.8-4.3-6.4-7
				l-1.5-2.5c-1.5-2.5-2.4-5.3-2.7-8.1l-0.7-9.2c-0.3-3.5-0.1-7.1,0.6-10.5l2.3-11.7c0-0.2,0.1-0.5,0.2-0.7l4.9-15.1l2.1,1.2
				l3.6,1.9l3.6,1.6l3.5,1.5l4.8,1.1l4.1,0.9l3.3,0.4l2.8,0.4l3.8,0.4l3.7,0.2L701.1,1429z"/>
			<path class="st152" d="M632,1255.2l22.6,153.8c0.6,3.7,2.2,6.9,4.6,9.1l0,0c4.4,3.9,14.8,8,14.8,8c5.8,1.5,29.5,6.1,29,1
				l-17.7-172.3l-2.5-5.8l-4.1-5.4l-5.4-4.4l-7.1-4.7l-6.4-2.2l-6.7,0.4l-6.1,1.7l-5.5,3.9l-4.5,4.7l-3.7,6.4L632,1255.2z"/>
		</g>
	</g>
	<g id="left-arm_x5F_perf">
		<path id="second-left-arm_5_" class="st152" d="M533.9,1112.8l3.1,11.2l5.1,9.3l87.5,125.4c1.5,2.1,6.8,7.9,6.8,7.9l7.8,3.7
			l8.4,1.6l8.2,0.4l7.1-1.7l7.3-3.4l4.3-4.9l2.9-7.4l0.6-6.5l-0.7-6.3l-3.1-6.1l-92.7-135.9c-3.8-5.6-10.7-13.6-13.7-17.2
			c-1-1.2-2.2-2.2-3.5-3l-0.7-0.5c-3.2-2.1-6.8-2.9-10.2-2.4l-3,0.4c-1.8,0.3-3.5,0.8-5.1,1.6l-6.3,3.2l-4.8,3.2l-3.9,7.1l-1.9,10.5
			L533.9,1112.8z"/>
		<g id="first-left-arm_5_">
			<path class="st153" d="M701.1,1429l4.7,5.8c0.8,1.3,1.6,2.6,2.2,4l5.1,10.5c0.8,1.6,1,3.5,0.6,5.2l-0.9,4.3
				c-0.4,1.6-1.4,3-2.8,3.9l-2.9,1.7c-0.9,0.5-1.3,1.6-1,2.6l1.7,5.6c0.7,2.2,0.3,4.6-1,6.5l-1.4,2c-1.4,2-3.2,3.8-5.3,5.1l-2.8,1.8
				c-2.4,1.5-5.2,2.5-8.1,2.7l-1.9,0.1c-2.6,0.2-5.2,0.1-7.8-0.3l-3.2-0.5c-3.6-0.6-7.1-2-10.1-4.2l-1.6-1.1c-2.6-1.9-4.8-4.3-6.4-7
				l-1.5-2.5c-1.5-2.5-2.4-5.3-2.7-8.1l-0.7-9.2c-0.3-3.5-0.1-7.1,0.6-10.5l2.3-11.7c0-0.2,0.1-0.5,0.2-0.7l4.9-15.1l2.1,1.2
				l3.6,1.9l3.6,1.6l3.5,1.5l4.8,1.1l4.1,0.9l3.3,0.4l2.8,0.4l3.8,0.4l3.7,0.2L701.1,1429z"/>
			<path class="st152" d="M632,1255.2l22.6,153.8c0.6,3.7,2.2,6.9,4.6,9.1l0,0c4.4,3.9,14.8,8,14.8,8c5.8,1.5,29.5,6.1,29,1
				l-17.7-172.3l-2.5-5.8l-4.1-5.4l-5.4-4.4l-7.1-4.7l-6.4-2.2l-6.7,0.4l-6.1,1.7l-5.5,3.9l-4.5,4.7l-3.7,6.4L632,1255.2z"/>
		</g>
	</g>
	<g id="left-arm_2_">
		<path id="second-left-arm_4_" class="st152" d="M539.7,1117.2l5.1,10.4l6.7,8.2l109.3,106.9c1.9,1.8,8.8,5.2,8.8,5.2l7.7,2.1h8.3
			l9.1-1.1l9.1-1.4l7.5-3.4l4.6-4.9l2.4-5.2v-6.1l-2.6-6.4l-126.8-126.6c-4.8-4.8-13-11.4-16.7-14.4c-1.2-1-2.6-1.8-4-2.3l-0.8-0.3
			c-3.5-1.4-7.2-1.6-10.5-0.5l-2.9,1c-1.7,0.6-3.3,1.4-4.7,2.5l-5.6,4.3l-4.1,4l-2.5,7.7l0.1,10.7L539.7,1117.2z"/>
		<g id="first-left-arm_4_">
			<path class="st153" d="M837.6,1347l7.2,1.6c1.4,0.5,2.9,1,4.2,1.7l10.6,4.9c1.7,0.8,3,2.1,3.8,3.7l2,4c0.7,1.5,0.8,3.2,0.3,4.7
				l-1.2,3.2c-0.4,1,0,2.1,0.9,2.7l4.8,3.3c1.9,1.3,3.2,3.4,3.3,5.7l0.2,2.4c0.2,2.5-0.1,5-0.9,7.3l-1.1,3.2
				c-0.9,2.7-2.5,5.2-4.6,7.2l-1.4,1.3c-1.9,1.8-4,3.3-6.2,4.7l-2.8,1.6c-3.2,1.8-6.8,2.9-10.5,3.1l-1.9,0.1
				c-3.2,0.1-6.4-0.3-9.4-1.4l-2.7-1c-2.7-1-5.2-2.6-7.2-4.6l-6.3-6.7c-2.5-2.6-4.5-5.5-6.2-8.6l-5.6-10.5c-0.1-0.2-0.2-0.4-0.3-0.7
				l-5.7-14.8l2.4-0.4l4-0.8l3.8-1l3.7-1l4.4-2.2l3.8-1.9l2.9-1.8l2.4-1.5l3.2-2.1l3-2.2L837.6,1347z"/>
			<path class="st152" d="M660.8,1242.8l128,118c2.7,2.5,6.1,4,9.3,4.1l0,0c5.9,0.3,16.5-3.1,16.5-3.1c5.4-2.5,26.8-13.8,23.1-17.4
				l-122.1-122.8l-6.5-2.2l-8.7-1.2l-9.6-0.6l-9.6,0.5l-8.3,1.8l-6.4,4l-3.9,4.1l-2.1,3.9l-0.9,3.9v3.2L660.8,1242.8z"/>
		</g>
	</g>
	<g id="headbody_3_">
		<g id="head_3_">
			<path class="st153" d="M497.6,1039.4l-0.7,6.2c-0.6,4.8-0.8,9.5-0.8,14.3l0,0c0,1.2,0.1,2.5,0.4,3.7l5,20.6l-14.3,8.7l-22.8,5.2
				h-25.1l-23.1-3.6l2.8-16.5c1.4-7.4,2.2-14.8,2.2-22.3l0,0c0-2.3-0.1-4.6-0.4-6.8l-1.4-10.8L497.6,1039.4z"/>
			<path class="st153" d="M430.3,729.6h21.2c15.5,0,31,1.1,46.4,3.3h0c11.5,1.7,22.8,4.6,33.7,8.7h0c8.3,3.2,15.7,8.2,21.5,14.7l0,0
				c4.8,5.4,8.7,11.6,11.4,18.3l0,0c6.2,15.6,10,32.1,11,48.8l0.3,4.4c1,16.5,1.1,33,0.1,49.5l-1.2,21.2c-0.5,8.2-1.3,16.3-2.6,24.5
				l-1.4,9.1c-5.4,35.4-19.1,69.2-40.2,98.7l-0.9,1.3c-5.4,7.6-12.1,14.2-19.9,19.6h0c-10,6.9-21.8,11-34,11.7l-3.4,0.2
				c-15.2,0.9-30.5-0.8-45-5l-2.6-0.8c-22.2-6.4-42.3-18.2-58.4-34.3l0,0c-13.3-13.3-24.4-28.5-32.9-45l-1.3-2.5
				c-9.3-18-16.2-37-20.3-56.7v0c-5.3-25-7.1-50.6-5.6-76.1l0.5-9.1c0.8-13.2,3.7-26.1,8.7-38.4l0,0c6.1-15.1,15.2-29,26.7-40.9
				l9-9.3c0.8-0.8,1.7-1.4,2.8-1.8l0,0C378.1,734.5,404.1,729.6,430.3,729.6z"/>
			<path class="st154" d="M489.7,837.4l8-2.4c5.4-1.6,11-2.4,16.6-2.4h0.5c8.4,0,16.7,0.6,25,1.8l0,0c3.4,0.5,6.7,1.4,9.9,2.6
				l8.7,3.4c1.6,0.6,3.3-0.5,3.3-2.2v-1.4c0-5.3-1.4-10.5-4-15.2l-1.1-1.9c-1.8-3.2-5.3-5.2-9.2-5.2h-6.2c-4.7,0-9.5,0.3-14.2,0.8
				l-11.7,1.3c-7.6,0.8-15.1,2.7-22.2,5.6l-3.2,1.3c-2.2,0.9-3.6,3-3.6,5.3v6.4C486.2,836.7,488,837.9,489.7,837.4z"/>
			<path class="st154" d="M466,834.1v-6.3c0-2.1-1.5-4-3.6-4.7l-11.5-3.4c-4.7-1.4-9.5-2.4-14.4-3.1l-6.5-0.9
				c-5.6-0.8-11.2-0.8-16.8,0.1l-1.7,0.3c-4,0.6-8,1.6-11.9,2.8l-5.8,1.8c-2.1,0.6-4.1,1.4-6.1,2.3l-5.5,2.5
				c-3.7,1.7-6.6,4.6-8.2,8.2l-0.8,1.8c-1.8,4.1-2.7,8.5-2.7,12.9v3.6c0,1.6,1.9,2.6,3.3,1.6l11-7.7c3.9-2.8,8.3-4.8,13-6l3.8-1
				c9.3-2.4,18.9-3.6,28.6-3.6h7.9c1.6,0,3.3,0.1,4.9,0.2l20,1.5C464.6,837,466,835.7,466,834.1z"/>
			<path class="st155" d="M486.5,896.8l3.3,10.7c2.1,6.8,4.8,13.3,8.1,19.6l2,3.9c2.1,4,4.9,7.5,8.5,10.4l5.2,4.3
				c2.3,1.9,3.6,4.6,3.6,7.5l0,0c0,2-1.2,3.7-3,4.6l0,0c-4.2,2-8.9,3.1-13.7,3.1h-27.5c-2.9,0-5.7-0.7-8.1-2.2l0,0
				c-4.1-2.4-7.3-6-9.1-10.2l0,0c-0.8-1.9-0.6-4.1,0.5-5.9l0.8-1.3c0.9-1.5,2.3-2.6,4-3.3l0.5-0.2c2.3-0.9,4-2.8,4.7-5.1l1.7-6
				c0.9-3.2,1.4-6.4,1.6-9.6l0.9-19.5c0.1-2.5,1.7-4.8,4.2-5.7l0,0c2.6-1,5.5-0.9,8,0.4h0C484.5,893.3,485.9,894.9,486.5,896.8z"/>
			<path class="st156" d="M352.9,911.5v-9.3c0-6.2-0.7-12.5-2.1-18.5l-0.8-3.3c-0.8-3.3-1.4-6.7-1.9-10.1l-0.6-3.9
				c-1.4-9.1-2-18.3-2-27.5v-6.3c0-0.3,0.5-0.4,0.5-0.1l0.7,3.4c0,0.1,0.2,0.1,0.2,0l1.7-13.4c0.1-0.6,0.9-0.7,1.2-0.2l0.4,0.9
				c0.2,0.6,1.1,0.5,1.3-0.1l2.6-8.6c1.5-4.7,4.2-9,7.9-12.4l6.9-6.3c0.9-0.8,2.3-0.7,3,0.2l0,0c0.7,0.9,2,1,2.9,0.2l5.9-5
				c2.5-2.1,6-2.9,9.2-2.2l0,0c1.9,0.5,3.9,0.3,5.7-0.3l9.1-3.3c2.8-1,5.9-1,8.6,0.1l0,0c1.5,0.6,3.2,0.2,4.3-0.8l4.6-4.4
				c0.8-0.8,2.3-0.2,2.3,0.9v1.4l-1.2,4.3c-0.2,0.7,0.7,1.1,1.2,0.6l4.8-5.5l3-3.3c1-1.1,3-0.8,3.5,0.7l0.2,0.6
				c0.8,2.2,3.2,3.3,5.4,2.5l3.6-1.4c2.9-1.1,6-1.2,8.9-0.3l10.1,3.1c1.4,0.4,3,0.5,4.4,0.2l15.1-2.9c4.1-0.8,8.3-1.2,12.5-1.2h6.2
				c3.1,0,6,1.5,7.6,4.1l1.4,2.2c0.6,1,2.1,0.9,2.7,0l1.1-1.8c1.4-2.3,4.2-3.6,6.9-3.2l1.9,0.3c1.9,0.3,3.7,1,5.3,2.2l0,0
				c0.7,0.5,1.5,0.7,2.4,0.5l0.2,0c3-0.6,6.1-0.4,8.9,0.7l7.1,2.8l2.8,1.4c4.9,2.5,9.3,5.7,13.2,9.4l0,0c1,1,1.9,2.1,2.6,3.3v0
				c3.3,5.7,6,11.7,7.9,18l0,0c1,3.2,1.6,6.5,1.8,9.9l0.7,12.5l0-16.6c0-4.5-0.4-9-1.1-13.4l-2.9-16.6l1.3,1.9l-4.5-13.1
				c-0.6-1.6-1.2-3.2-1.9-4.8l-5-11.4c-2.2-5.1-5.2-9.8-8.8-14.1l0,0l-7.7-7.4c-4.1-4.3-9.4-6.5-16.8-10.4l-7.4-3.2l-8.1-3.2
				c-6.8-1.8-5.4-2.6-13.5-3.9l-7.4-1.9c-1-0.1-7.8-1-8.8-1.3h-9.4c-5.2-1.4-8.1-0.6-8.1-0.6h-8.1c-0.6,0-9.5,0.1-10.1,0h-9.4
				c-9.4,0-4.7-0.6-12.1,0l-10.1,0.6l-10.1,1.3c-9,0.5-13.6,3.4-22.2,5.8l-8.1,2.6c-4.1,1.2-6.8,3-10.8,4.5l-8,4.2
				c-5.5,2.1-10.4,5.6-14.2,10l-4.5,5.3c-1.2,1.4-2.5,2.8-3.9,4.1h0c-4.9,4.7-8.4,10.4-10.4,16.7l0,0c-0.3,0.8-0.6,1.6-1.1,2.3
				l-0.2,0.3c-6.1,9.5-10.8,19.8-13.9,30.5l0,0c-0.9,3-1.5,6.1-1.9,9.2l-1.5,12.2l-0.8,9.6c-0.8,10.4-0.8,20.9,0,31.4l0.7,8.9
				l1.3,16.6l33.7-12.7l4.4,10.8c0.2,0.6,0.4,1.1,0.5,1.7v0c0.8,4.1,1.2,8.4,1.2,12.6v5.8c0,1.4,1.6,2.2,2.8,1.3l0,0
				C351.7,916.4,352.9,914,352.9,911.5z"/>
			<ellipse class="st153" cx="325.6" cy="910" rx="19.9" ry="32.1"/>
			<ellipse class="st157" cx="325.6" cy="910" rx="11.8" ry="19"/>
			<path class="st158" d="M472,893.9l3.3,10.1c0.3,1,0.6,2,0.8,3l3.5,15.4c0.6,2.5,1.4,5,2.4,7.4l2.3,5.6c1,2.4,1.5,5,1.5,7.6v3.9
				c0,0.3-0.4,0.4-0.6,0.1l-2.6-5.1c-1-1.9-2.7-3.2-4.8-3.8l-6.2-1.7c-1.3-0.4-2.7-0.6-4.1-0.5l-2.9,0c-0.2,0-0.3-0.2-0.2-0.3l2-4.7
				c0.6-1.3,1-2.7,1.3-4l1-4.4c0.2-1,0.4-2,0.4-3l0.6-9.5l0.2-8.8c0-0.7,0.1-1.5,0.3-2.2L472,893.9z"/>
			<path class="st159" d="M496.5,866l0.6-1.2c1.7-3.3,4.4-6,7.6-7.8l1.2-0.7c4.3-2.4,9.1-3.6,14-3.6h5.1c3.7,0,7.4,0.5,10.9,1.6
				l4,1.2c3.6,1.1,6.6,3.3,8.8,6.2l1.8,2.4c1.9,2.6,3,5.8,3,9.1v4.8c0,2-0.9,3.9-2.4,5.3h0c-4.6,4.1-10.3,6.9-16.4,8.1l-5.8,1.1
				c-5.5,1.1-11.2,0.7-16.5-1.1v0c-6.1-2-11.1-6.1-14.1-11.6l-1.7-3C494.8,873.5,494.7,869.4,496.5,866z"/>
			<path class="st159" d="M454.4,866l-0.6-1.2c-1.7-3.3-4.4-6-7.6-7.8l-1.2-0.7c-4.3-2.4-9.1-3.6-14-3.6h-5.1
				c-3.7,0-7.4,0.5-10.9,1.6l-4,1.2c-3.6,1.1-6.6,3.3-8.8,6.2l-1.8,2.4c-1.9,2.6-3,5.8-3,9.1v4.8c0,2,0.9,3.9,2.4,5.3h0
				c4.6,4.1,10.3,6.9,16.4,8.1l5.8,1.1c5.5,1.1,11.2,0.7,16.5-1.1l0,0c6.1-2,11.1-6.1,14.1-11.6l1.7-3
				C456.1,873.5,456.2,869.4,454.4,866z"/>
			<path class="st160" d="M397.9,869.1l1-1.8c0.5-0.9,1.1-1.7,1.8-2.5l0.5-0.6c1.2-1.4,2.6-2.6,4.1-3.7h0c1.6-1.1,3.4-2,5.2-2.7
				l0.2-0.1c1.6-0.6,3.3-1.1,4.9-1.4l1.5-0.3c1.3-0.3,2.7-0.5,4-0.7l0.6-0.1c1.8-0.2,3.7-0.3,5.5-0.3h1.5c1.2,0,2.4,0.1,3.6,0.2
				l2.4,0.3c1.2,0.1,2.4,0.3,3.6,0.6l1.1,0.2c2.1,0.4,4.1,1.1,6.1,2.1l1.7,0.8c0.5,0.2,1,0.5,1.5,0.9l0,0c1.8,1.4,3.3,3,4.6,4.8
				l1.2,1.8l-1.1-3.2l-1.2-2.1c-1-1.6-2.2-3.1-3.7-4.3l0,0c-1.7-1.4-3.5-2.5-5.5-3.3l0,0c-2-0.9-4.2-1.5-6.4-1.9l0,0
				c-2.7-0.5-5.5-0.7-8.3-0.7h-0.3c-2.4,0-4.8,0.2-7.1,0.6l-0.9,0.1c-2.4,0.4-4.8,1-7.1,1.7l-1.2,0.4c-2.3,0.7-4.3,1.9-6.1,3.4
				l-0.1,0.1c-1.7,1.4-3.2,3.1-4.4,4.9l-0.8,1.2l-0.8,1.6c-0.4,0.7-0.7,1.4-0.9,2.1L397.9,869.1z"/>
			<path class="st160" d="M495.3,869.1l1-1.8c0.5-0.9,1.1-1.7,1.8-2.5l0.5-0.6c1.2-1.4,2.6-2.6,4.1-3.7h0c1.6-1.1,3.4-2,5.2-2.7
				l0.2-0.1c1.6-0.6,3.3-1.1,4.9-1.4l1.5-0.3c1.3-0.3,2.7-0.5,4-0.7l0.6-0.1c1.8-0.2,3.7-0.3,5.5-0.3h1.5c1.2,0,2.4,0.1,3.6,0.2
				l2.4,0.3c1.2,0.1,2.4,0.3,3.6,0.6l1.1,0.2c2.1,0.4,4.1,1.1,6.1,2.1l1.7,0.8c0.5,0.2,1,0.5,1.5,0.9l0,0c1.8,1.4,3.3,3,4.6,4.8
				l1.2,1.8l-1.1-3.2l-1.2-2.1c-1-1.6-2.2-3.1-3.7-4.3l0,0c-1.7-1.4-3.5-2.5-5.5-3.3l0,0c-2-0.9-4.2-1.5-6.4-1.9l0,0
				c-2.7-0.5-5.5-0.7-8.3-0.7h-0.3c-2.4,0-4.8,0.2-7.1,0.6l-0.9,0.1c-2.4,0.4-4.8,1-7.1,1.7l-1.2,0.4c-2.3,0.7-4.3,1.9-6.1,3.4
				l-0.1,0.1c-1.7,1.4-3.2,3.1-4.4,4.9l-0.8,1.2l-0.8,1.6c-0.4,0.7-0.7,1.4-0.9,2.1L495.3,869.1z"/>
		</g>
		<g id="body_3_">
			<path class="st161" d="M418.5,1081.4l-6.7,1.9c-3.5,1-6.8,2.7-9.6,4.9l-7.6,6.2c-1.3,1.1-2.3,2.5-2.9,4.1l-0.9,2.6
				c-0.9,2.6-1,5.4-0.4,8.1l1.4,5.7c0.4,1.8,1.6,3.3,3.2,4.2l2.5,1.5c4.2,2.6,8.9,4.4,13.8,5.4l6.4,1.3c2.5,0.5,5,0.7,7.6,0.7h16.3
				c1.3,0,2.6-0.1,3.8-0.2l15.2-1.4c1.5-0.1,3-0.1,4.4,0l13.1,1.1c3.1,0.3,6,1.2,8.6,2.8l6.8,4.1l7.2-6.9c2.1-2,4.3-3.9,6.7-5.6
				l8.6-6.1l6.9-4.9c2.9-2,5.3-4.6,7-7.6l0.8-1.3c0.7-1.2,1.2-2.4,1.5-3.7l0.9-4c0.6-2.6,0.5-5.4-0.3-7.9l-0.6-2
				c-0.6-2-1.6-4-2.9-5.7l-1.4-1.8c-2.3-3-5.4-5.3-9-6.6l-2.9-1.1c-2.1-0.8-4.3-1.1-6.5-1.1l-12.1-0.2l1.1,4.5l7,1.1l5.8,1l3.5,1.3
				l2.8,1.3l2.2,1.6l2.1,2.6l1.3,1.8l2.3,3.5l0.6,2l-0.3,2.4l-2.1,4l-1.6,2.2l-2.4,2.2l-2.6,1.7l-7,4.4l-16.4,10.5l-1.7,0.4
				l-12.4-1.1l-7.3-0.7l-3.3-0.1l-14.2,1.1l-10.3,1l-8,1.4l-6.8,1.2l-3.8,0.2h-7.4h-4.2l-3.8-0.3l-3.6-1.3l-3-2.1l-3.3-3.2l-1.7-3.2
				l-0.6-3.7l0.2-3.3l0.8-2.6l2.1-3.1l1.3-1.4c1.5-1.6,3.9-2.9,6.8-3.7l0,0l7.6-3L418.5,1081.4z"/>
			<path class="st162" d="M493.6,1134.5v54.5l7.9,52.9l7.7,61.7v44.1l-7.7,52.9l33-8.4c12.6-3.2,24.5-8.8,34.8-16.5l10.6-7.8
				c6.1-4.5,10.2-11.1,11.3-18.4l6-38.2c1.9-12,2.9-24.1,2.9-36.3v-32c0-11.6-1-23.1-2.9-34.5l-11.3-67.6c-0.7-4.3-1.6-8.6-2.6-12.8
				l-2.7-11.2c-1.7-7.1-4-14.1-6.8-20.9l-2.7-6.4c-1.7-4.2-4.9-7.7-8.9-10l-2-1.2c-6.8-3.9-14.5-6.3-22.4-6.9l-20-1.5l1,0.4
				c3.6,1.3,6.8,3.6,9,6.6l1.8,2.4c1,1.4,1.8,2.9,2.3,4.5l0.1,0.4c1.2,4.1,1.4,8.3,0.4,12.4l-0.8,3.7l-1.8,3.1
				c-1.7,2.9-4.1,5.5-6.9,7.5l-6.9,4.9l-12.1,8.6L493.6,1134.5z"/>
			<path class="st162" d="M456.5,1406.5l-23.9,3.7c-9.5,1.5-19.2,2.2-28.8,2.2h-15.9c-8.2,0-16.3-1.7-23.8-4.9l-3.5-1.5
				c-7.9-3.4-13.8-10.2-15.7-18.4l-5.3-22.5c-1.4-5.8-2.5-11.6-3.3-17.5l-3.2-22.5c-1.6-11.2-2.4-22.5-2.4-33.8v-33v-45.9
				c0-6.7,0.3-13.3,0.9-19.9l2.9-31.3c0.3-3.4,0.8-6.8,1.4-10.1l2.9-15.3c0.9-4.6,2.5-9,4.7-13.2v0c2.2-3.9,4.9-7.6,8-10.8l0.9-0.9
				c3.2-3.3,6.9-6,11-8.2l2.3-1.2c4.4-2.3,8.9-4.2,13.6-5.8l23.1-7.6l-6.5,5.3c-2.1,1.7-3.6,3.9-4.5,6.3l-0.1,0.2
				c-1.1,3.3-1.3,6.8-0.5,10.2l0.5,1.9c0.9,3.5,3.2,6.6,6.4,8.5l0,0c4.2,2.6,8.9,4.4,13.8,5.3l4.5,0.9c3.8,0.7,7.7,1.1,11.5,1.1
				h13.8c1.6,0,3.1-0.1,4.7-0.2l14.5-1.3c1.6-0.1,3.2-0.1,4.8,0l14.4,1.2c2.1,0.2,4.1,0.8,5.9,1.9l8.1,4.8v54.5l7.9,52.9l7.7,61.7
				v44.1l-7.7,52.9L456.5,1406.5z"/>
			<path class="st153" d="M417.2,1088.9l81.4-16.5l10.6,1.7c1.6,0.2,3.1,0.7,4.6,1.3l2.7,1.1c2.1,0.9,3.9,2.3,5.1,4.2l3.5,5.1
				c1.3,1.9,1.5,4.4,0.3,6.4l-1.2,2.1c-1.4,2.5-3.4,4.7-5.9,6.2l-9.2,5.8l-15.3,9.9c-0.5,0.3-1.1,0.5-1.7,0.4l-18.4-1.7
				c-2.7-0.3-5.4-0.3-8.2,0l-18.2,1.6c-1.3,0.1-2.7,0.3-4,0.5l-11.9,2.2c-1.8,0.3-3.7,0.5-5.5,0.5h-12.3c-3.3,0-6.5-1.1-9-3.1
				l-2-1.6c-2.8-2.2-4.4-5.5-4.4-9v-1.2c0-2.9,1.1-5.7,3.1-7.8l0.8-0.8c1.4-1.5,3.2-2.7,5.2-3.5L417.2,1088.9z"/>
			<path class="st163" d="M491.2,1133l2.4,1.4l2.6-2.5v38.8c0,12.9,1,25.8,2.9,38.6l5.3,35.3l5.6,49.2c0.8,7.3,1.2,14.6,1.2,21.9
				v18.6c0,10.3-0.8,20.6-2.5,30.8l-5.6,35l-1.7,0.4l-2.9,0.4l6-35.5c1.9-11.2,2.8-22.6,2.7-34l-0.1-15.3
				c-0.1-7.6-0.6-15.2-1.5-22.7l-6.1-48.5l-5.5-35.7c-2-13-3-26.1-3-39.3V1133z"/>
			<path class="st151" d="M352.3,1400.6v19c0,2.3,0.2,4.6,0.6,6.9l0,0c-0.3,5.1,5.2,9.7,13.7,11.3l14.6,2.8l53.1,0.9l120.9-26.6
				l37.2-19.4l-7.2-34l-7.4,7.1c-2.2,2.2-4.7,4.1-7.3,5.9l-10,6.7c-1.7,1.1-3.4,2.1-5.3,3l-8.5,4l-8.8,2.4c-2.3,1.1-4.7,1.9-7.2,2.5
				l-27.7,7l-16.9,2.4l-33.1,4.4l-24.5,3.7l-15.7,1.4c-1.8,0.2-3.6,0.2-5.4,0.2h-16.8c-1.9,0-3.7-0.1-5.5-0.3l-6.8-0.8
				c-3.4-0.4-6.7-1.2-9.9-2.3l-2.9-1c-3.3-1.2-6.5-2.8-9.4-4.7L352.3,1400.6z"/>
		</g>
	</g>
	<g id="right-arm_x5F_perf2">
		<path id="second-right-arm_6_" class="st164" d="M316.6,1109.7l-10.5,7.3l-7.8,8.7l-98.1,137.1c-1.7,2.3-4.2,10.5-4.2,10.5l-1,8.8
			l1.4,9l5.7,8.6l7,4.5l6.7,3.1l9.2,1.7l6.6-0.1l6.4-1.6l5.2-3l105.9-144.6c4.4-6.1,10.3-16.1,12.8-20.6c0.9-1.5,1.5-3.1,1.9-4.7
			l0.2-0.9c1-4.1,0.5-8.1-1.2-11.5l-1.5-3c-0.9-1.8-2.1-3.4-3.5-4.7l-5.6-5.4l-5.1-3.8l-8.8-1.4l-11.6,1.9L316.6,1109.7z"/>
		<g id="first-right-arm_x5F_perf2">
			<g id="perf2">
				<path class="st214" d="M413.6,1375.2c-2.3,3.7-4.2,7.5-5.9,11.5l-4.3,10.3c-1.1,2.6-2,5.2-2.9,7.9l-2.6,8.6
					c-2,6.6-3.3,13.3-3.7,20.2l-0.1,1.9c-0.4,6.3,1.1,12.6,4.2,18.1c2.4,4.2,5.6,7.8,9.5,10.5l5.6,3.9c1.9,1.4,4,2.5,6.2,3.5
					l48.3,20.3l4.4,4.4l1.5,4.4l-7.8,35.3c-0.1,0.5-0.2,1-0.2,1.6c0.1,2.7,1.7,5,4,5.9l80.6,33.9c1,0.4,2.2,0,2.6-1.1l0,0
					c0.7-0.2,1.3-0.5,1.9-0.9l0.2-0.1c1.3-0.9,2.3-2.1,2.9-3.5l42.5-101l23.1-12.8l6.6,2.8c2.3,1,5-0.1,6-2.5l20.1-49.3
					c1-2.4-0.2-5.1-2.6-6l-202-78.1c-1-0.4-2-0.6-3.1-0.7l-3.2-0.2c-0.7,0-1.5,0-2.2,0.1l-3.7,0.5c-1.7,0.2-3.4,0.9-4.8,2l-0.2,0.1
					c-1.5,1.1-2.7,2.7-3.5,4.4c-0.7,1.7-1,3.6-0.7,5.4l1.1,9l-0.4,5.2l-1.9,4.6l-1,1c-5.1,5-9.5,10.5-13.3,16.6L413.6,1375.2z
					 M442.2,1393.7l4.8-8.7c0.4-0.8,0.9-1.5,1.4-2.2l4.6-6c0.9-1.1,1.9-2.2,3-3l2.6-2c0.8-0.7,1.7-1.2,2.7-1.7l1.7-0.9
					c1.7-0.9,3.6-1.5,5.6-1.8l0,0c2.4-0.4,4.9-0.2,7.2,0.4l3.7,1c0.7,0.2,1.5,0.4,2.2,0.7l18.7,7.9l5.8,10.2c0.9,1.5,1,3.3,0.3,4.9
					l-0.2,0.5c-0.4,1-1.1,1.9-2,2.5l-3,2c-3.6,2.4-6.4,5.8-8.1,9.8l-22.1,52.6l-32.1-13.5c-0.5-0.2-1-0.5-1.5-0.8l-4.5-3.1
					c-1.8-1.2-3.1-3.1-3.6-5.3c-0.2-0.8-0.2-1.6-0.2-2.5l0.4-5.2c0-0.5,0.1-1.1,0.3-1.6l3.7-13.4L442.2,1393.7z"/>
				<path class="st215" d="M444.5,1391.9l-3.7-2.5c-1.9-1.3-3.3-3.2-4-5.4l-0.3-0.9c-0.6-2-0.7-4-0.2-6l2.4-9.1
					c0.8-2.9,0.9-5.8,0.5-8.8l-0.6-4c-0.4-2.6-0.1-5.2,1-7.6l1.3-3c0.8-1.9,2-3.6,3.5-4.9l13.4-12.4l-6-2.3c-1-0.4-2-0.6-3.1-0.7
					l-3.2-0.2c-0.7,0-1.5,0-2.2,0.1l-3.7,0.5c-1.7,0.2-3.4,0.9-4.8,2l-0.2,0.1c-1.5,1.1-2.7,2.7-3.5,4.4l0,0c-0.7,1.7-1,3.6-0.7,5.4
					l1,7.7c0.1,0.9,0.1,1.8,0.1,2.7l-0.1,1.7c-0.1,1.5-0.5,2.9-1,4.3l-0.7,1.6c-0.3,0.6-0.6,1.2-1.1,1.6l0,0
					c-5.3,5.1-9.9,10.9-13.7,17.2l-1,1.7c-2.3,3.8-4.4,7.8-6.1,11.9l-4.2,10c-1.1,2.7-2.1,5.4-3,8.2l-5.2,16.7
					c-0.3,0.9,0.2,1.8,1.1,2l32.9,8.2l0.2-3.1l3.7-13.4c0.1-0.5,0.3-1,0.5-1.5l7.3-17.4c0.7-1.8,2.5-5.1,2.5-5.1L444.5,1391.9z"/>
				<path class="st215" d="M455.2,1486.5l8.2-19.5c0.3-0.8,1.4-1.1,2.1-0.4l23.4,22.2c5.6,5.3,12.2,9.6,19.3,12.7l67.1,29
					l-17.4,41.3c-0.6,1.4-1.6,2.7-2.9,3.5l-0.2,0.1c-0.6,0.4-1.2,0.7-1.9,0.9l0,0c-1.8,0.6-3.8,0.5-5.6-0.2l-77.5-32.6
					c-1.4-0.6-2.6-1.7-3.3-3.1h0c-0.7-1.4-0.9-2.9-0.6-4.4l7.3-32.9c0.4-1.6,0.3-3.3-0.3-4.8l0,0c-0.4-1.3-1.2-2.5-2.2-3.5l-1.7-1.7
					c-0.8-0.8-1.8-1.4-2.8-1.9L455.2,1486.5z"/>
				<path class="st216" d="M550.7,1542.3l5.5,2.3c0.8,0.3,1.2,1.3,0.9,2.1l-11.3,26.9c-0.3,0.8-1.3,1.2-2.1,0.9l-5.5-2.3
					c-0.8-0.3-1.2-1.3-0.9-2.1l11.3-26.9C549,1542.3,549.9,1541.9,550.7,1542.3z"/>
				<path class="st216" d="M537.4,1536.6l5.9,2.5c0.7,0.3,1.1,1.1,0.8,1.9l-11.5,27.3c-0.3,0.7-1.1,1.1-1.9,0.8l-5.9-2.5
					c-0.7-0.3-1.1-1.1-0.8-1.9l11.5-27.3C535.8,1536.7,536.6,1536.3,537.4,1536.6z"/>
				<path class="st216" d="M524.6,1531.3l5.5,2.3c0.8,0.3,1.2,1.3,0.9,2.1l-11.3,26.9c-0.3,0.8-1.3,1.2-2.1,0.9l-5.5-2.3
					c-0.8-0.3-1.2-1.3-0.9-2.1l11.3-26.9C522.8,1531.3,523.8,1530.9,524.6,1531.3z"/>
				<path class="st216" d="M511.8,1525.9l5.7,2.4c0.8,0.3,1.1,1.2,0.8,2l-11.4,27.2c-0.3,0.8-1.2,1.1-2,0.8l-5.7-2.4
					c-0.8-0.3-1.1-1.2-0.8-2l11.4-27.2C510.1,1525.9,511,1525.5,511.8,1525.9z"/>
				<path class="st216" d="M498.8,1520.4l6.2,2.6c0.6,0.3,0.9,1,0.7,1.6l-11.6,27.6c-0.3,0.6-1,0.9-1.6,0.7l-6.2-2.6
					c-0.6-0.3-0.9-1-0.7-1.6l11.6-27.6C497.4,1520.4,498.2,1520.2,498.8,1520.4z"/>
				<path class="st216" d="M486.2,1515.1l5.9,2.5c0.7,0.3,1,1.1,0.7,1.8l-11.5,27.4c-0.3,0.7-1.1,1-1.8,0.7l-5.9-2.5
					c-0.7-0.3-1-1.1-0.7-1.8l11.5-27.4C484.7,1515.1,485.5,1514.8,486.2,1515.1z"/>
				<path class="st217" d="M483.4,1430.2l113.9,47.9l3.1-7.4l23.1-12.8l7.1,3c2.1,0.9,4.5-0.1,5.4-2.2l20.5-50.2
					c0.9-2.1-0.2-4.5-2.3-5.4l-141-54.5l-12.9,28.7l6,10.6c0.7,1.3,0.8,2.8,0.3,4.2l-0.5,1.1c-0.4,0.8-1,1.6-1.7,2.1l-3.9,2.6
					c-3.1,2.1-5.6,5.1-7,8.6L483.4,1430.2z"/>
				<polygon class="st218" points="661.4,1469.9 635.8,1459.1 656.8,1407.8 682.9,1418.8 				"/>
				<path class="st219" d="M662.8,1471.9l13.8,5.8c2.5,1,5.3-0.1,6.4-2.6l18.9-45c1-2.5-0.1-5.3-2.6-6.4l-13.8-5.8
					c-1-0.4-2.2,0.1-2.7,1.1l-21.1,50.2C661.3,1470.2,661.7,1471.4,662.8,1471.9z"/>
				
					<rect x="691.1" y="1439.1" transform="matrix(-0.9217 -0.3879 0.3879 -0.9217 795.8124 3079.2432)" class="st218" width="35.3" height="40.4"/>
				<path class="st214" d="M740.7,1498.5l-22.4-9.4c-1.4-0.6-2.1-2.2-1.5-3.6l16.6-39.5c0.6-1.4,2.2-2.1,3.6-1.5l22.4,9.4
					L740.7,1498.5z"/>
				<path class="st218" d="M750.5,1497.1l-7.8-3.3l14-33.2l8.1,3.4c3.1,1.3,4.5,4.8,3.2,7.9l-9.2,21.8
					C757.5,1497,753.7,1498.5,750.5,1497.1z"/>
				<path class="st220" d="M741.3,1498.8l-0.6-0.2l18.7-44.5l0,0c3.4,1.4,5,5.3,3.5,8.7l-13.8,32.8
					C747.9,1498.6,744.3,1500.1,741.3,1498.8z"/>
				
					<ellipse transform="matrix(0.372 -0.9282 0.9282 0.372 -941.6688 1443.3894)" class="st221" cx="595.9" cy="1417.6" rx="25.5" ry="25.5"/>
				<path class="st222" d="M593.1,1438.9l-10.2-4.1c-0.8-0.3-1.2-1.2-0.9-2.1l14.4-35.9c0.3-0.8,1.2-1.2,2.1-0.9l10.2,4.1
					c0.8,0.3,1.2,1.2,0.9,2.1l-14.4,35.9C594.8,1438.8,593.9,1439.2,593.1,1438.9z"/>
				<path class="st220" d="M736.3,1453.2l15.2,6.4c1,0.4,2.2,0,2.6-1.1l0.3-0.7c0.4-1,0-2.2-1.1-2.6l-15.2-6.4c-1-0.4-2.2,0-2.6,1.1
					l-0.3,0.7C734.8,1451.6,735.3,1452.8,736.3,1453.2z"/>
				<path class="st220" d="M733.3,1460.3l15.2,6.4c1,0.4,2.2,0,2.6-1.1l0.3-0.7c0.4-1,0-2.2-1.1-2.6l-15.2-6.4c-1-0.4-2.2,0-2.6,1.1
					l-0.3,0.7C731.8,1458.7,732.3,1459.9,733.3,1460.3z"/>
				<path class="st220" d="M730.2,1467.3l15.2,6.4c1,0.4,2.2,0,2.6-1.1l0.3-0.7c0.4-1,0-2.2-1.1-2.6l-15.2-6.4c-1-0.4-2.2,0-2.6,1.1
					l-0.3,0.7C728.7,1465.7,729.2,1466.9,730.2,1467.3z"/>
				<path class="st220" d="M727.2,1474.4l15.2,6.4c1,0.4,2.2,0,2.6-1.1l0.3-0.7c0.4-1,0-2.2-1.1-2.6l-15.2-6.4c-1-0.4-2.2,0-2.6,1.1
					l-0.3,0.7C725.7,1472.8,726.2,1473.9,727.2,1474.4z"/>
				<path class="st220" d="M724.4,1481.5l15.2,6.4c1,0.4,2.2,0,2.6-1.1l0.3-0.7c0.4-1,0-2.2-1.1-2.6l-15.2-6.4c-1-0.4-2.2,0-2.6,1.1
					l-0.3,0.7C722.9,1479.9,723.4,1481.1,724.4,1481.5z"/>
				<path class="st220" d="M721.4,1488.6l15.2,6.4c1,0.4,2.2,0,2.6-1.1l0.3-0.7c0.4-1,0-2.2-1.1-2.6l-15.2-6.4c-1-0.4-2.2,0-2.6,1.1
					l-0.3,0.7C719.9,1487,720.4,1488.1,721.4,1488.6z"/>
				
					<rect x="762.9" y="1477.1" transform="matrix(0.9231 0.3846 -0.3846 0.9231 630.6779 -182.2254)" class="st223" width="16.1" height="17.2"/>
				<path class="st224" d="M1025.9,1593.5l-25.2,2.1c-2.4,0.2-4.8-0.1-6.9-1l-203.2-84.7c-6.2-2.6-11.5-7.1-15.4-13.2l0,0l6.6-15.9
					h0c7.3-1.4,14.3-0.8,20.7,1.9l202.9,84.5c2.2,0.9,4.1,2.3,5.7,4.2l16.1,19.3C1027.7,1591.6,1026.9,1593.4,1025.9,1593.5z"/>
			</g>
			<path class="st153" d="M407,1367l8.2-0.2c1.7,0.1,3.3,0.4,5,0.7l12.6,2.6c2,0.4,3.7,1.4,5,2.9l3.2,3.7c1.2,1.4,1.7,3.2,1.5,5
				l-0.5,3.7c-0.1,1.1,0.5,2.2,1.6,2.6l6,2.3c2.4,0.9,4.3,2.8,5,5.2l0.8,2.5c0.8,2.6,1.1,5.4,0.9,8.1l-0.3,3.7
				c-0.3,3.1-1.3,6.2-3.1,8.9l-1.1,1.7c-1.6,2.4-3.4,4.6-5.5,6.6l-2.6,2.5c-2.9,2.8-6.5,4.8-10.4,6l-2,0.6c-3.4,1-7,1.3-10.5,0.9
				l-3.2-0.3c-3.2-0.3-6.2-1.4-8.9-3.1l-8.5-5.5c-3.3-2.1-6.3-4.7-8.8-7.6l-8.7-9.9c-0.2-0.2-0.3-0.4-0.5-0.6l-9.9-14.4l2.5-1
				l4.1-1.8l3.9-2.1l3.7-2l4.2-3.5l3.5-3.1l2.6-2.6l2.2-2.2l2.9-3.1l2.6-3.1L407,1367z"/>
			<path class="st164" d="M204.3,1308.5l154,85.8c3.6,2,7.5,2.7,11.1,2l0,0c6.3-1.2,16.9-7.6,16.9-7.6c5.2-4.1,25.1-21.7,20.3-24.7
				L244,1263.9l-8.3-1.6l-7.8,0l-11.3,0.9l-9.7,2.7l-6.9,5.1l-4.6,4.7l-2,7.6l-0.2,6.9l2.6,9l3.7,5.8L204.3,1308.5z"/>
		</g>
	</g>
	<g id="right-arm_x5F_perf">
		<path id="second-right-arm_5_" class="st164" d="M316.6,1109.7l-10.5,7.3l-7.8,8.7l-98.1,137.1c-1.7,2.3-4.2,10.5-4.2,10.5l-1,8.8
			l1.4,9l5.7,8.6l7,4.5l6.7,3.1l9.2,1.7l6.6-0.1l6.4-1.6l5.2-3l105.9-144.6c4.4-6.1,10.3-16.1,12.8-20.6c0.9-1.5,1.5-3.1,1.9-4.7
			l0.2-0.9c1-4.1,0.5-8.1-1.2-11.5l-1.5-3c-0.9-1.8-2.1-3.4-3.5-4.7l-5.6-5.4l-5.1-3.8l-8.8-1.4l-11.6,1.9L316.6,1109.7z"/>
		<g id="first-right-arm_x5F_perf">
			<g id="perf">
				<path class="st214" d="M669.8,1397.9l-200.3-90.7c-0.7-0.3-1.5-0.5-2.2-0.6l-3.1-0.4c-0.8-0.1-1.7-0.1-2.5,0.1l-3.4,0.7
					c-0.9,0.2-1.8,0.6-2.6,1.1l-0.5,0.4c-1.2,0.8-2.2,1.9-2.8,3.2l0,0c-0.6,1.2-0.8,2.6-0.6,3.9l0.1,0.9c0.1,1.1,0.4,2.1,1,3
					l1.2,2.2c0.1,0.2,0.2,0.5,0.3,0.7l1.1,2.4c0.5,1.1,0.7,2.3,0.5,3.5h0c-0.2,1.5-0.8,2.9-1.8,4l-3.5,3.9l-9.5,6.6l-13.1,12.2
					l-13.2,17.2l-34,56.5c-0.6,1-0.9,2.1-0.8,3.2l0,0c0.1,2.2,1,4.3,2.5,5.8l0.9,0.9c0.8,0.8,1.7,1.4,2.6,1.9l18.8,8.5
					c1.2,0.6,2.6,0.7,3.9,0.5l0,0c1.3-0.2,2.5-0.8,3.5-1.6l3.5-2.7c0.7-0.6,1.4-1.3,1.9-2.1l38.2-62.9c0.6-0.9,1.4-1.7,2.3-2.2l0,0
					c2.1-1.1,4.6-1.6,7-1.2l2.1,0.3l18.9,8.9c0.9,0.4,1.8,0.9,2.5,1.6l9.8,7.7l21.2,17.2l30.9,19.5c1.2,0.7,2.4,1.4,3.6,1.9
					l41.5,18.2c2.5,1.1,5,1.9,7.6,2.6l10.8,2.6c9.4,2.3,19.2,2.1,28.5-0.5l0.4-0.1c2.2-0.6,4.2-1.6,6-2.9l1.1-0.8
					c2.4-1.7,4.2-4,5.4-6.6l17.5-38.7c0.5-1.1,0.7-2.3,0.5-3.5l-0.1-1c-0.1-0.7-0.3-1.3-0.5-2l0,0
					C672.4,1399.7,671.2,1398.6,669.8,1397.9z"/>
				<path class="st225" d="M516.7,1410.1l55-56.5l98,44.4c1.5,0.7,2.6,1.8,3.3,3.3l0,0c0.3,0.6,0.5,1.3,0.5,2l0.1,1
					c0.1,1.2-0.1,2.4-0.5,3.5l-18.2,40.2c-0.8,1.7-1.9,3.1-3.4,4.2l-3.4,2.4c-1.2,0.8-2.5,1.4-3.8,1.8l-4.9,1.4
					c-7.1,2-14.6,2.1-21.7,0.4l-14.2-3.4c-2.6-0.6-5.1-1.5-7.6-2.5l-39.9-17.4c-2.4-1-4.7-2.2-6.8-3.6l-29.4-18.5L516.7,1410.1z"/>
				<polygon class="st226" points="453.2,1320.1 558.1,1367.6 562,1363.6 451.6,1313.6 452.1,1318.2 				"/>
				<path class="st225" d="M450.7,1336.4l-13.9,18.5c-1.7,2.2-3.2,4.6-4.6,7l-7.9,13.9c-2.9,5.1-5,10.7-6.1,16.5l-0.8,4.2
					c-0.7,3.5-0.4,7.1,0.9,10.5l1.8,4.7c0.8,2.2,2,4.2,3.4,6l5.5,7l-11.2,18.4c-0.6,0.9-1.3,1.7-2.1,2.4l-3.6,2.8
					c-0.8,0.6-1.8,1.1-2.8,1.3l-0.6,0.1c-1.1,0.2-2.3,0.1-3.4-0.4l-18.9-8.6c-1.1-0.5-2.1-1.2-3-2.1l-1.7-1.7
					c-0.9-1-1.5-2.2-1.5-3.6l0-1.1c-0.1-1.3,0.3-2.6,1-3.7l31.9-53c1.3-2.2,2.8-4.3,4.3-6.3l7.7-10c2.1-2.7,4.4-5.3,7-7.6l7.9-7.3
					c1-0.9,2-1.7,3.1-2.5L450.7,1336.4z"/>
				
					<ellipse transform="matrix(0.4124 -0.911 0.911 0.4124 -990.3646 1214.2329)" class="st227" cx="446.1" cy="1374.9" rx="4.9" ry="4.9"/>
				<path class="st225" d="M458.6,1377.9l0.6-0.3c1.5-0.8,3.2-1.1,4.9-0.9l2.3,0.3c0.6,0.1,1.2,0.3,1.8,0.5l8.7,4.1l-5-1.2
					c-2-0.5-4.1-0.2-5.9,0.9l-1,0.6c-0.9,0.5-1.6,1.3-2.1,2.2l-10.8,17.6c-0.6,1-1.6,1.8-2.7,2.1h0c-0.8,0.3-1.7,0.2-2.5-0.1
					l-2.5-1.1c-0.9-0.4-1.2-1.5-0.7-2.3l11.9-19.7C456.4,1379.5,457.4,1378.6,458.6,1377.9z"/>
				<path class="st229" d="M466.8,1359.2l12,5.5c1.3,0.6,2.9,0,3.5-1.3l7.5-16.5c0.6-1.3,0-2.9-1.3-3.5l-12-5.5
					c-1.3-0.6-2.9,0-3.5,1.3l-7.5,16.5C464.9,1357,465.5,1358.6,466.8,1359.2z"/>
				<path class="st214" d="M468.8,1356.8l10.4,4.7c1,0.5,2.2,0,2.7-1l0.7-1.6c0.5-1,0-2.2-1-2.7l-10.4-4.7c-1-0.5-2.2,0-2.7,1
					l-0.7,1.6C467.4,1355.1,467.8,1356.3,468.8,1356.8z"/>
				
					<ellipse transform="matrix(0.4124 -0.911 0.911 0.4124 -935.8342 1390.353)" class="st230" cx="609.9" cy="1420.7" rx="22.6" ry="22.6"/>
				<path class="st229" d="M598.2,1435.5l8.5,3.9c0.8,0.4,1.7,0,2.1-0.8l14-30.9c0.4-0.8,0-1.7-0.8-2.1l-8.5-3.9
					c-0.8-0.4-1.7,0-2.1,0.8l-14,30.9C597.1,1434.2,597.4,1435.2,598.2,1435.5z"/>
				
					<rect x="663.7" y="1407.2" transform="matrix(-0.911 -0.4124 0.4124 -0.911 692.6498 3009.8511)" class="st230" width="14.9" height="46"/>
				
					<rect x="677.4" y="1414.2" transform="matrix(-0.911 -0.4124 0.4124 -0.911 710.8233 3023.9211)" class="st225" width="8.6" height="42.1"/>
				
					<rect x="684.7" y="1418.9" transform="matrix(-0.911 -0.4124 0.4124 -0.911 734.6822 3041.5994)" class="st230" width="21.8" height="45.2"/>
				<polygon class="st229" points="696.2,1466.6 706.9,1462.8 718.9,1436.3 714.8,1425.4 				"/>
				<polygon class="st225" points="706.9,1462.8 732.3,1470.3 736.7,1469 743.3,1454.6 741,1451 718.9,1436.3 				"/>
				
					<rect x="739.4" y="1459.2" transform="matrix(0.9161 0.401 -0.401 0.9161 650.1491 -176.6413)" class="st223" width="15.2" height="11.2"/>
				<path class="st224" d="M986,1570.4l-22.5-1.6c-2.2-0.2-4.3-0.7-6.3-1.5L766.9,1484c-5.8-2.5-11-6.3-15.1-11l0,0l4.5-10.2h0
					c6.4-0.1,12.8,1.2,18.7,3.8l190.1,83.2c2,0.9,3.9,2.1,5.5,3.6l16.2,15.4C987.4,1569.4,986.9,1570.5,986,1570.4z"/>
			</g>
			<path class="st153" d="M407,1367l8.2-0.2c1.7,0.1,3.3,0.4,5,0.7l12.6,2.6c2,0.4,3.7,1.4,5,2.9l3.2,3.7c1.2,1.4,1.7,3.2,1.5,5
				l-0.5,3.7c-0.1,1.1,0.5,2.2,1.6,2.6l6,2.3c2.4,0.9,4.3,2.8,5,5.2l0.8,2.5c0.8,2.6,1.1,5.4,0.9,8.1l-0.3,3.7
				c-0.3,3.1-1.3,6.2-3.1,8.9l-1.1,1.7c-1.6,2.4-3.4,4.6-5.5,6.6l-2.6,2.5c-2.9,2.8-6.5,4.8-10.4,6l-2,0.6c-3.4,1-7,1.3-10.5,0.9
				l-3.2-0.3c-3.2-0.3-6.2-1.4-8.9-3.1l-8.5-5.5c-3.3-2.1-6.3-4.7-8.8-7.6l-8.7-9.9c-0.2-0.2-0.3-0.4-0.5-0.6l-9.9-14.4l2.5-1
				l4.1-1.8l3.9-2.1l3.7-2l4.2-3.5l3.5-3.1l2.6-2.6l2.2-2.2l2.9-3.1l2.6-3.1L407,1367z"/>
			<path class="st164" d="M204.3,1308.5l154,85.8c3.6,2,7.5,2.7,11.1,2l0,0c6.3-1.2,16.9-7.6,16.9-7.6c5.2-4.1,25.1-21.7,20.3-24.7
				L244,1263.9l-8.3-1.6l-7.8,0l-11.3,0.9l-9.7,2.7l-6.9,5.1l-4.6,4.7l-2,7.6l-0.2,6.9l2.6,9l3.7,5.8L204.3,1308.5z"/>
		</g>
	</g>
	<g id="right-armpick_1_">
		<path id="second-right-arm_4_" class="st164" d="M330.2,1159.8l5.7,11.5l7.4,9.1l120.5,117.9c2.1,2,9.7,5.7,9.7,5.7l8.5,2.3h9.1
			l10-1.3l10-1.6l8.3-3.7l5.1-5.4l2.6-5.7v-6.7l-2.9-7l-139.8-139.6c-5.3-5.3-14.3-12.6-18.4-15.8c-1.4-1.1-2.9-2-4.4-2.6l-0.9-0.3
			c-3.9-1.6-8-1.8-11.5-0.5l-3.2,1.1c-1.9,0.6-3.6,1.6-5.2,2.8l-6.2,4.7l-4.6,4.4l-2.7,8.5l0.1,11.8L330.2,1159.8z"/>
		<g id="first-right-arm_x5F_pick3">
			<path class="st187" d="M571.4,1488c-4.6-3-3.9-9.9,1.2-11.9l371.6-146.4l115.1-51.2l66.5-26.5l10.1,0.4c2.8,0.1,5.5,0.8,7.9,2.1
				l4.5,2.4c3.5,1.9,5.7,5.6,5.5,9.6l0,0.1c-0.1,2.4-0.8,4.8-1.9,6.9l-1.1,2c-2.3,4.1-5.8,7.4-10,9.5l-23.9,11.8l-39.8,13.9l-32,7.9
				c-15.6,3.8-31,8.7-46.1,14.6l-408.3,158.8c-5.3,2-11.2,1.4-15.9-1.7L571.4,1488z"/>
			<path class="st153" d="M658.7,1413.2l8,1.7c1.6,0.5,3.2,1.1,4.7,1.9l11.6,5.5c1.8,0.9,3.3,2.3,4.2,4l2.2,4.4
				c0.8,1.6,0.9,3.5,0.3,5.2l-1.3,3.5c-0.4,1.1,0,2.3,1,2.9l5.3,3.6c2.1,1.5,3.5,3.8,3.7,6.3l0.2,2.6c0.2,2.7-0.1,5.5-1,8.1
				l-1.2,3.5c-1,3-2.7,5.7-5.1,7.9l-1.5,1.4c-2.1,2-4.4,3.7-6.9,5.1l-3.1,1.8c-3.5,2-7.5,3.2-11.5,3.4l-2.1,0.1
				c-3.5,0.2-7.1-0.4-10.4-1.5l-3-1.1c-3-1.1-5.7-2.8-7.9-5.1l-7-7.3c-2.7-2.8-5-6-6.8-9.4l-6.2-11.6c-0.1-0.2-0.2-0.5-0.4-0.7
				l-6.3-16.4l2.7-0.4l4.4-0.8l4.2-1.1l4-1.1l4.9-2.4l4.1-2.1l3.2-1.9l2.7-1.6l3.6-2.3l3.3-2.4L658.7,1413.2z"/>
			<path class="st164" d="M463.8,1298.3l141.1,130.1c3,2.8,6.7,4.4,10.3,4.6l0,0c6.5,0.3,18.2-3.5,18.2-3.5
				c6-2.7,29.5-15.2,25.5-19.2l-134.7-135.4l-7.1-2.4l-9.6-1.3l-10.6-0.7l-10.6,0.6l-9.1,2l-7.1,4.4l-4.3,4.6l-2.3,4.3l-1,4.3v3.6
				L463.8,1298.3z"/>
			<path class="st188" d="M1164.9,1327.8l-5.1-13.9c-4-10.9-9-21.5-14.9-31.5l-6.6-11.1c-1.5-2.5-2.6-5.1-3.3-7.9l-1.2-4.6
				c-4.3-16.5-10.1-32.6-17.3-48l-3.4-7.2c-5.9-12.7-13.1-24.8-21.4-36.1l-9.1-12.4c-7.7-10.5-16.2-20.3-25.4-29.5l-10.6-10.6
				c-5.7-5.7-11.8-11.1-18.2-16l-6.8-5.2c-9.2-7.2-19.2-13.3-29.8-18.2h0c-1.8-0.9-3.5,1.5-2.1,2.9l14.6,14.9
				c7.9,8.1,15.1,16.9,21.5,26.2l10.3,15.2c6.6,9.7,12.6,19.7,17.9,30.1l8.2,16c5.6,10.9,10,22.3,13.2,34.1l5.6,20.8
				c2,7.6,3.7,15.2,5.1,22.9l4.9,27.6c0.3,1.5,0.9,2.9,1.8,4.1l12.2,16.4c5.9,7.9,11.3,16.1,16.2,24.6l5.3,9.2
				c8.8,15.1,16,31.1,21.4,47.8l1.6,5c4.6,14.2,8.3,28.6,11.1,43.2l2.7,13.8c2.1,10.8,3.2,21.7,3.3,32.7l0.4,27.3
				c0,0.9,1.2,1,1.5,0.2l0,0c5.3-14.6,8.9-29.8,10.8-45.3l0.2-1.4c1.1-8.9,1.6-17.9,1.6-26.8v-10.5c0-15.1-1.2-30.2-3.5-45.2
				l-1.7-10.8C1173.8,1356.2,1170.1,1341.7,1164.9,1327.8z"/>
		</g>
		<g id="first-right-arm_x5F_pick2">
			<path class="st190" d="M571.4,1488c-4.6-3-3.9-9.9,1.2-11.9l371.6-146.4l115.1-51.2l66.5-26.5l10.1,0.4c2.8,0.1,5.5,0.8,7.9,2.1
				l4.5,2.4c3.5,1.9,5.7,5.6,5.5,9.6l0,0.1c-0.1,2.4-0.8,4.8-1.9,6.9l-1.1,2c-2.3,4.1-5.8,7.4-10,9.5l-23.9,11.8l-39.8,13.9l-32,7.9
				c-15.6,3.8-31,8.7-46.1,14.6l-408.3,158.8c-5.3,2-11.2,1.4-15.9-1.7L571.4,1488z"/>
			<path class="st153" d="M658.7,1413.2l8,1.7c1.6,0.5,3.2,1.1,4.7,1.9l11.6,5.5c1.8,0.9,3.3,2.3,4.2,4l2.2,4.4
				c0.8,1.6,0.9,3.5,0.3,5.2l-1.3,3.5c-0.4,1.1,0,2.3,1,2.9l5.3,3.6c2.1,1.5,3.5,3.8,3.7,6.3l0.2,2.6c0.2,2.7-0.1,5.5-1,8.1
				l-1.2,3.5c-1,3-2.7,5.7-5.1,7.9l-1.5,1.4c-2.1,2-4.4,3.7-6.9,5.1l-3.1,1.8c-3.5,2-7.5,3.2-11.5,3.4l-2.1,0.1
				c-3.5,0.2-7.1-0.4-10.4-1.5l-3-1.1c-3-1.1-5.7-2.8-7.9-5.1l-7-7.3c-2.7-2.8-5-6-6.8-9.4l-6.2-11.6c-0.1-0.2-0.2-0.5-0.4-0.7
				l-6.3-16.4l2.7-0.4l4.4-0.8l4.2-1.1l4-1.1l4.9-2.4l4.1-2.1l3.2-1.9l2.7-1.6l3.6-2.3l3.3-2.4L658.7,1413.2z"/>
			<path class="st164" d="M463.8,1298.3l141.1,130.1c3,2.8,6.7,4.4,10.3,4.6l0,0c6.5,0.3,18.2-3.5,18.2-3.5
				c6-2.7,29.5-15.2,25.5-19.2l-134.7-135.4l-7.1-2.4l-9.6-1.3l-10.6-0.7l-10.6,0.6l-9.1,2l-7.1,4.4l-4.3,4.6l-2.3,4.3l-1,4.3v3.6
				L463.8,1298.3z"/>
			<path class="st191" d="M1132.2,1267.1l17,33.4c3.4,6.6,6.2,13.6,8.4,20.8l10.3,34.2c2.8,9.1,4.6,18.6,5.4,28.1l3.4,40.2
				c0.7,7.9,0.8,15.9,0.3,23.8l-2.2,37.1c-0.1,1.8-2.5,2.1-2.9,0.3l-10.7-42.9c-1.7-6.9-3.6-13.7-5.8-20.4l-12.8-40
				c-4-12.5-8.7-24.6-14.2-36.4l-11.2-24.3l-19.5-38.9l-9.4-15.3c-14-22.8-31.1-43-50.8-60.1l-11.2-9.8c-2.2-1.9-2.1-5.7,0.3-7.4
				l21.4-15.9c4.8-3.5,10-6.2,15.6-7.8l28.7-8.5c2.6-0.8,5.2,1,5.8,3.8l4.5,21.3c4.3,20.4,10.6,40.2,18.8,59.1L1132.2,1267.1z"/>
		</g>
		<g id="first-right-arm_4_">
			<path class="st193" d="M571.4,1488c-4.6-3-3.9-9.9,1.2-11.9l371.6-146.4l115.1-51.2l66.5-26.5l14.3,0.5l14,7.5l-0.4,10.3
				l-6.4,11.5l-30.3,15l-39.8,13.9l-32,7.9c-15.6,3.8-31,8.7-46.1,14.6l-408.3,158.8c-5.3,2-11.2,1.4-15.9-1.7L571.4,1488z"/>
			<path class="st153" d="M658.7,1413.2l8,1.7c1.6,0.5,3.2,1.1,4.7,1.9l11.6,5.5c1.8,0.9,3.3,2.3,4.2,4l2.2,4.4
				c0.8,1.6,0.9,3.5,0.3,5.2l-1.3,3.5c-0.4,1.1,0,2.3,1,2.9l5.3,3.6c2.1,1.5,3.5,3.8,3.7,6.3l0.2,2.6c0.2,2.7-0.1,5.5-1,8.1
				l-1.2,3.5c-1,3-2.7,5.7-5.1,7.9l-1.5,1.4c-2.1,2-4.4,3.7-6.9,5.1l-3.1,1.8c-3.5,2-7.5,3.2-11.5,3.4l-2.1,0.1
				c-3.5,0.2-7.1-0.4-10.4-1.5l-3-1.1c-3-1.1-5.7-2.8-7.9-5.1l-7-7.3c-2.7-2.8-5-6-6.8-9.4l-6.2-11.6c-0.1-0.2-0.2-0.5-0.4-0.7
				l-6.3-16.4l2.7-0.4l4.4-0.8l4.2-1.1l4-1.1l4.9-2.4l4.1-2.1l3.2-1.9l2.7-1.6l3.6-2.3l3.3-2.4L658.7,1413.2z"/>
			<path class="st164" d="M463.8,1298.3l141.1,130.1c3,2.8,6.7,4.4,10.3,4.6l0,0c6.5,0.3,18.2-3.5,18.2-3.5
				c6-2.7,29.5-15.2,25.5-19.2l-134.7-135.4l-7.1-2.4l-9.6-1.3l-10.6-0.7l-10.6,0.6l-9.1,2l-7.1,4.4l-4.3,4.6l-2.3,4.3l-1,4.3v3.6
				L463.8,1298.3z"/>
			<path class="st194" d="M1061.4,1225.9l39.3-20.6c2.4-1.2,5.2,0,6.3,2.8l26.5,64.2c7.2,17.4,12.5,35.9,15.8,54.9l20.3,117.3
				c0.5,2.9-2.7,4.6-4.2,2.1l-61.4-100.3c-8.3-13.5-15.2-28.1-20.6-43.4l-24.5-69.1C1057.8,1230.7,1058.9,1227.2,1061.4,1225.9z"/>
		</g>
	</g>
	<g id="mouthsmile_3_">
		<path class="st195" d="M433.6,963.2l19.2,4.3c4.1,0.9,8.2,1.5,12.4,1.7l9.3,0.6c5.7,0.3,11.4,0.1,17-0.8l11.2-1.8
			c3.8-0.6,7.5-1.5,11.1-2.7l15.3-5c2.2-0.7,4.5-1.3,6.8-1.8l8.4-1.8c4.3-0.9,8.8-1,13.1-0.4l4.8,0.7c0.7,0.1,1.4,0.4,2,0.8l0,0
			c1.3,0.9,1.9,2.5,1.4,4l-3.4,11.3c-0.7,2.2-1.4,4.4-2.2,6.5l-3.4,9c-2,5.2-4.4,10.3-7.2,15.1l-5.6,9.6l-8.7,14.1
			c-1.4,2.3-3,4.6-4.6,6.8h0c-4.7,6.1-10.1,11.7-16.1,16.6l-1.4,1.2c-3.1,2.5-6.5,4.6-10.2,6.1l-5.7,2.4c-2.8,1.2-5.6,2.1-8.6,2.7
			l-7.9,1.5c-5.2,1-10.4,1.5-15.7,1.5h-6c-6.8,0-13.6-0.7-20.2-2l-1.7-0.3c-9.2-1.9-18.2-4.7-26.7-8.4l-8.3-3.7
			c-3.4-1.5-6.6-3.1-9.8-5l-5.3-3.1c-5.7-3.3-10.9-7.2-15.7-11.7l-3.9-3.6c-1.8-1.7-3.6-3.5-5.2-5.5l-11.7-14
			c-2-2.4-3.7-4.9-5.1-7.6l-3.3-6c-2.1-3.8-3.2-8.1-3.2-12.4v-1.8c0-3.5,1-6.9,3-9.8l0,0c2.3-3.5,5.5-6.4,9.2-8.4l3-1.6
			c3.2-1.8,6.7-3.1,10.3-3.9h0c7-1.6,14.2-2.4,21.5-2.4h6.6c5.5,0,11,0.6,16.3,1.8l6.8,1.5c1.2,0.3,2.3,0.6,3.4,1l6.5,2.2
			C428.2,961.9,430.9,962.6,433.6,963.2z"/>
		<path class="st153" d="M410.1,975l1.5-0.3c2.3-0.4,4.6-0.2,6.8,0.6l7.5,2.7c0.6,0.2,1.1,0.4,1.7,0.5l16.7,4.5
			c0.9,0.3,1.9,0.5,2.8,0.7l8.1,1.7c4,0.8,8.1,1.2,12.2,1.2h14.3c1.8,0,3.6-0.1,5.4-0.3l8-0.7c5-0.5,9.9-1.4,14.6-2.8l2.9-0.9
			c6.4-1.9,12.5-4.6,18.1-8l6-3.6l7-3.9c1.5-0.9,3.4-0.9,5-0.2l0,0c2.2,1,3.6,3,3.6,5.3v2.3c0,2.3-0.5,4.6-1.3,6.8l-4,9.7
			c-0.5,1.3-1.2,2.5-1.9,3.7l-8.4,13.7c-1,1.6-2.1,3-3.5,4.3l-7.3,7c-2.1,2-4.6,3.6-7.3,4.8l-15.5,6.5c-2.5,1.1-5.2,1.8-7.9,2.2
			l-12.1,1.8c-2.3,0.3-4.6,0.5-6.8,0.3l-14.4-0.7c-5-0.2-10-1.2-14.8-2.8l-8-2.7c-5-1.7-9.5-4.5-13.3-8l-3.1-2.9
			c-2.4-2.2-4.3-4.9-5.6-7.9l-5-11.3c-0.4-0.9-0.7-1.8-1-2.8l-3.3-11.2c-0.4-1.4-0.6-2.8-0.6-4.3v-1.3
			C407,976.9,408.3,975.3,410.1,975z"/>
		<path class="st196" d="M414,979.6L414,979.6c10.3,5.3,20.9,9,31.8,11l4.5,0.8c7.9,1.5,15.9,2.2,23.9,2.2h7.7
			c9.1,0,18.2-1.4,27.2-4l3.1-0.9c7-2.1,13.7-5.5,20.1-10l13.3-9.5c1.8-1.3,3.8,1.4,2.9,4.1v0c-2.9,8.8-6.8,17-11.3,24.3l-6.2,10
			c-3.1,4.9-6.9,8.5-11.3,10.6l-6.8,3.2c-5.3,2.5-10.7,4.2-16.2,5.1l-20.1,3.2c-6.2,1-12.4,0.8-18.6-0.6l-10.4-2.3
			c-8-1.8-15.6-6.8-21.7-14.4l-0.3-0.3c-4.4-5.5-7.8-12.4-10-20.1c0,0-2.2-7.8-2.9-10.4C412.2,980.4,413.1,979.2,414,979.6z"/>
		<path class="st197" d="M447.3,1026.9l5.4-5c6.3-5.9,13.1-10.2,20.4-12.9l0.7-0.3c4.8-1.8,9.9-0.4,13.9,3.7l0,0
			c2,2.1,4.9,1.6,6.5-1.2l0.5-0.8c2.8-4.8,7-7.5,11.3-7.5h1.8c5.6,0,11.1,1.1,16.4,3.3l5.9,2.4l0,0c-2.6,4.2-6,7.4-9.8,9.2l-9.7,4.6
			c-3.9,1.9-7.9,3.1-12,3.8l-24.1,3.9c-4.9,0.8-9.9,0.7-14.9-0.4L447.3,1026.9z"/>
		<path class="st159" d="M422.3,983.5l4.3,7.1l5.8,3.8c2.3,1.5,5,2.7,8.1,3.7l4.3,1.3c3,0.9,6.3,1.6,9.6,1.9l10.2,1.1
			c2.2,0.2,4.4,0.4,6.6,0.4h13c2.8,0,5.7-0.2,8.4-0.6l9.1-1.3c5.3-0.8,10.2-2.2,14.3-4.3l6.5-3.2c2.4-1.2,4.5-2.5,6.2-4l8.4-7.3
			c1.2-1.1,2.3-2.2,3.1-3.4l3-4.3l0.7-4.1l-4.7,3.4l-9.9,6.9c-1.1,0.7-2.2,1.4-3.5,2l-6.8,3.4c-1.9,0.9-4,1.7-6.3,2.3l-10.5,2.9
			c-2,0.5-4.1,1-6.2,1.3l-4.4,0.6c-2,0.3-4,0.4-6,0.4l-12,0.2c-1.7,0-3.4,0-5-0.2l-11-0.9c-1.7-0.1-3.5-0.4-5.1-0.7l-10.7-2.1
			c-1.9-0.4-3.7-0.8-5.4-1.4L422.3,983.5z"/>
		<path class="st159" d="M429.5,1016.7l7,0.3l6,2.6c2.2,1,4.6,1.8,7.1,2.4l3.1,0.7c3.9,0.9,8,1.4,12.3,1.4h6.7
			c3.1,0,6.2-0.3,9.2-0.8l11.2-1.9c1.4-0.2,2.7-0.5,4-0.9l10.3-2.7c2.3-0.6,4.4-1.3,6.4-2.2l5.1-2.3c2.2-1,4.2-2.1,5.9-3.4l6.7-5.2
			h2.1l-4,5.9c-0.6,0.9-1.4,1.8-2.4,2.6l-2.8,2.4c-0.8,0.7-1.7,1.3-2.7,1.9l-4.3,2.5c-0.7,0.4-1.4,0.7-2.1,1.1l-4.3,1.9
			c-1.7,0.8-3.6,1.4-5.6,1.8l-5.4,1.2c-0.7,0.2-1.4,0.3-2.2,0.4l-7.9,1.3l-6.7,1.1l-5.6,1c-1.5,0.3-3,0.4-4.5,0.5l0,0
			c-2.1,0.1-4.3,0.1-6.4-0.1l-2.9-0.3c-1.3-0.1-2.6-0.3-3.8-0.6l-6.1-1.3l-4.9-1.1c-1.7-0.4-3.3-0.9-4.8-1.5l-2.3-1
			c-1.4-0.6-2.6-1.2-3.7-2l-2.5-1.7c-0.7-0.4-1.3-0.9-1.9-1.4L429.5,1016.7z"/>
	</g>
	<g id="pupils_3_">
		<ellipse class="st198" cx="426" cy="872.9" rx="12.5" ry="12"/>
		<ellipse class="st198" cx="524.4" cy="872.9" rx="12.5" ry="12"/>
	</g>
</g>
</svg>
