<?xml version="1.0" encoding="utf-8"?>
<!-- Generator: Adobe Illustrator 21.1.0, SVG Export Plug-In . SVG Version: 6.00 Build 0)  -->
<svg version="1.1" id="game" xmlns="http://www.w3.org/2000/svg" xmlns:xlink="http://www.w3.org/1999/xlink" x="0px" y="0px"
	 viewBox="0 0 1668 2224" style="enable-background:new 0 0 1668 2224;" xml:space="preserve">
<style type="text/css">
	.st0{fill:#5C7552;}
	.st1{fill:#E2CA96;}
	.st2{fill:#6F8763;}
	.st3{fill:#EAD7A2;}
	.st4{fill:#F9F2EF;}
	.st5{fill:#382C26;}
	.st6{fill:#936F5F;}
	.st7{fill:#7C655C;}
	.st8{fill:#F9A182;}
	.st9{fill:#DBC697;}
	.st10{fill:#8C7857;}
	.st11{fill:#635872;}
	.st12{fill:#6B7F60;}
	.st13{fill:#755D3F;}
	.st14{fill:#C9B8A7;}
	.st15{fill:url(#gradient4_1_);}
	.st16{fill:url(#gradient5_1_);}
	.st17{fill:#66E2FF;}
	.st18{fill:none;stroke:#B28052;stroke-miterlimit:10;}
	.st19{fill:#96735C;}
	.st20{fill:#825D49;stroke:#BF8A5E;stroke-miterlimit:10;}
	.st21{fill:#AD7D5C;stroke:#B28052;stroke-miterlimit:10;}
	.st22{fill:#BC8864;stroke:#B28052;stroke-miterlimit:10;}
	.st23{fill:#A37B61;}
	.st24{fill:#BC8866;}
	.st25{fill:#E0A57E;stroke:#B28052;stroke-miterlimit:10;}
	.st26{fill:#D19A7C;stroke:#B28052;stroke-miterlimit:10;}
	.st27{fill:#F4DBCE;}
	.st28{fill:#DBC7BF;}
	.st29{fill:#8E684F;stroke:#BF8A5E;stroke-miterlimit:10;}
	.st30{fill:#AD753E;}
	.st31{fill:#966636;}
	.st32{fill:#A87339;}
	.st33{fill:#BC8651;}
	.st34{fill:#AA7A4F;}
	.st35{fill:#C99465;}
	.st36{fill:none;stroke:#634B2A;stroke-miterlimit:10;}
	.st37{fill:#B28052;}
	.st38{fill:#96674D;stroke:#A57758;stroke-width:3;stroke-miterlimit:10;}
	.st39{fill:none;stroke:#A57758;stroke-width:3;stroke-miterlimit:10;}
	.st40{fill:#00CFFF;}
	.st41{fill:#03CDE2;}
	.st42{fill:#00DBFF;}
	.st43{fill:#00E7FF;}
	.st44{fill:#00F3FF;}
	.st45{fill:#2EFFF9;}
	.st46{fill:#78FFF8;}
	.st47{fill:#FFF0BF;}
	.st48{fill:#F7E4A6;}
	.st49{fill:#BCCC60;}
	.st50{fill:url(#sea_1_);}
	.st51{fill:#D6C8A3;}
	.st52{fill:#D3C7A7;}
	.st53{fill:#DBCDAF;}
	.st54{fill:#98958C;}
	.st55{fill:#C2BEB5;}
	.st56{fill:#ACA7A1;}
	.st57{fill:#ADA8A2;}
	.st58{fill:#D3CAB2;}
	.st59{fill:#8D8880;}
	.st60{fill:#99968D;}
	.st61{fill:#C2BDB3;}
	.st62{fill:#DDCFAF;}
	.st63{fill:#CCBFA6;}
	.st64{fill:#9B988F;}
	.st65{fill:#8B877E;}
	.st66{fill:#B9B2AA;}
	.st67{fill:#C3BFB6;}
	.st68{fill:#CED18B;}
	.st69{fill:#C6BBA5;}
	.st70{fill:#CEC2AA;}
	.st71{fill:#CCC1AA;}
	.st72{fill:#C4BFB3;}
	.st73{fill:#99968B;}
	.st74{fill:#969089;}
	.st75{fill:#939189;}
	.st76{fill:#B7B5AB;}
	.st77{fill:#C9BDA6;}
	.st78{fill:#C6BBA7;}
	.st79{fill:#BAB3A6;}
	.st80{fill:#9E9C95;}
	.st81{fill:#CCC0A8;}
	.st82{fill:#A5A299;}
	.st83{fill:#C4BCA9;}
	.st84{fill:#B5AD9E;}
	.st85{fill:#9A978E;}
	.st86{fill:#8D877F;}
	.st87{fill:#B8B1AA;}
	.st88{fill:#C3BFB4;}
	.st89{fill:#C5BEB6;}
	.st90{fill:#B5B3AC;}
	.st91{fill:#D5D1C6;}
	.st92{fill:#BCB4B1;}
	.st93{fill:#999793;}
	.st94{fill:#8E8E87;}
	.st95{fill:#A3A19D;}
	.st96{fill:#B5B4B1;}
	.st97{fill:#A8A7A7;}
	.st98{fill:#A09D97;}
	.st99{fill:#D3CFC3;}
	.st100{fill:#ADAAA6;}
	.st101{fill:#B2B1AF;}
	.st102{fill:#9B978F;}
	.st103{fill:#AAA7A0;}
	.st104{fill:#CCC8C4;}
	.st105{fill:#D3D0CD;}
	.st106{fill:#C9C3BD;}
	.st107{fill:#B2AFA8;}
	.st108{fill:#999692;}
	.st109{fill:#898683;}
	.st110{fill:#A3A29B;}
	.st111{fill:#B2AEAA;}
	.st112{fill:#D6D0C9;}
	.st113{fill:#918D87;}
	.st114{fill:#DBD5C6;}
	.st115{fill:#B7B3AE;}
	.st116{fill:#C4C1BB;}
	.st117{fill:#9B9891;}
	.st118{fill:#D8D5CB;}
	.st119{fill:#939089;}
	.st120{fill:#A8A6A0;}
	.st121{fill:#D8D5D0;}
	.st122{fill:#A8A49B;}
	.st123{fill:#96928A;}
	.st124{fill:#CEC8C2;}
	.st125{fill:#C4996C;}
	.st126{fill:#B7845A;}
	.st127{fill:#D5A776;}
	.st128{fill:#477F16;}
	.st129{fill:#436818;}
	.st130{fill:#AA7B43;}
	.st131{fill:#B79056;}
	.st132{fill:#AD9655;}
	.st133{fill:#DD9D68;}
	.st134{fill:#C18B59;stroke:#A87848;stroke-miterlimit:10;}
	.st135{fill:#B28056;}
	.st136{fill:#AD7D59;}
	.st137{fill:#AA7D5C;}
	.st138{fill:#DDCBBF;}
	.st139{fill:#DBDAD9;}
	.st140{fill:#D8A380;}
	.st141{fill:#CE987A;}
	.st142{fill:#CC9D85;}
	.st143{fill:#C6977F;}
	.st144{fill:#C19784;}
	.st145{fill:#C69B8B;}
	.st146{fill:#B7958B;}
	.st147{fill:#AF8958;}
	.st148{fill:#967A60;}
	.st149{fill:#C9D1D3;}
	.st150{fill:#635C55;}
	.st151{fill:#65868F;}
	.st152{fill:#6CC1A0;}
	.st153{fill:#EFCE8E;}
	.st154{fill:#60523B;}
	.st155{fill:#EFC58E;}
	.st156{fill:#6D5D41;}
	.st157{fill:#E8C192;}
	.st158{fill:#EFCA7F;}
	.st159{fill:#FFFFFF;}
	.st160{fill:#E5C57C;}
	.st161{fill:#59585E;}
	.st162{fill:#6FC9A9;}
	.st163{fill:#686770;}
	.st164{fill:#86D1B1;}
	.st165{fill:#2D2924;}
	.st166{fill:none;stroke:#2D2924;stroke-width:18;stroke-miterlimit:10;}
	.st167{fill:none;stroke:#2D2924;stroke-width:18;stroke-miterlimit:10;stroke-dasharray:8.8394,8.8394;}
	.st168{fill:none;stroke:#2D2924;stroke-width:18;stroke-miterlimit:10;stroke-dasharray:9.9611,9.9611;}
	.st169{fill:#C0D3D7;}
	.st170{fill:#98A9B1;}
	.st171{fill:#E26B47;}
	.st172{fill:#FF8243;}
	.st173{fill:#47413F;}
	.st174{fill:#EF8424;}
	.st175{fill:#FDA83D;}
	.st176{fill:#994E22;}
	.st177{fill:#965F29;}
	.st178{fill:#7F7F7F;}
	.st179{fill:#D6D5D4;}
	.st180{fill:#C98235;}
	.st181{fill:#999999;}
	.st182{fill:#E2E1E0;}
	.st183{fill:#D98D31;}
	.st184{fill:#B5B5B5;}
	.st185{fill:#7F6752;}
	.st186{fill:#777770;}
	.st187{fill:#F29575;}
	.st188{fill:#3F3831;}
	.st189{fill:url(#gradient_1_);}
	.st190{fill:#997933;}
	.st191{fill:#937334;}
	.st192{fill:#A9DB52;}
	.st193{fill:#96C639;}
	.st194{fill:#82B71C;}
	.st195{fill:#B6E55C;}
	.st196{fill:#90C125;}
	.st197{fill:#A9D146;}
	.st198{fill:#8E7036;}
	.st199{fill:#846939;}
	.st200{fill:#78A038;stroke:#81AD2B;stroke-width:3;stroke-miterlimit:10;}
	.st201{fill:#658E30;}
	.st202{fill:#85AA44;}
	.st203{fill:#7EAF31;}
	.st204{fill:#018287;}
	.st205{fill:#161616;}
	.st206{fill:#00686B;}
	.st207{fill:#161616;stroke:#373737;stroke-miterlimit:10;}
	.st208{fill:none;stroke:#D98D31;stroke-miterlimit:10;}
	.st209{fill:#242424;}
	.st210{fill:#373737;}
	.st211{fill:#A3A3A3;}
	.st212{fill:#ACACAE;}
	.st213{fill:url(#gradient2_1_);}
	.st214{fill:url(#gradient3_1_);}
	.st215{fill:#B67D56;}
	.st216{fill:#83492A;}
	.st217{fill:#9C6038;}
	.st218{fill:#683920;}
	.st219{fill:#563119;}
	.st220{fill:#CC9E75;}
	.st221{fill:#633A23;}
	.st222{fill:#FFF980;stroke:#FFF980;stroke-miterlimit:10;}
	.st223{fill:#EDFF85;stroke:#EDFF85;stroke-miterlimit:10;}
	.st224{fill:none;stroke:#000000;stroke-miterlimit:10;}
	.st225{fill:#F9F6CD;}
	.st226{fill:#A59D58;}
	.st227{fill:#CCA962;}
	.st228{fill:none;stroke:#EFCF97;stroke-miterlimit:10;}
	.st229{fill:#EFCF97;}
	.st230{fill:#846431;}
	.st231{fill:#FFF980;stroke:#000000;stroke-miterlimit:10;}
	.st232{fill:#75634C;}
	.st233{fill:#7A6A59;}
	.st234{fill:none;}
	.st235{font-family:'ArialMT';}
	.st236{font-size:60px;}
	.st237{letter-spacing:12;}
	.st238{fill:#EDFF85;stroke:#000000;stroke-miterlimit:10;}
	.st239{fill:none;stroke:#2D2924;stroke-width:18;stroke-miterlimit:10;stroke-dasharray:9.9129,9.9129;}
</style>
<g id="menu_x5F_buy">
	<polyline class="st225" points="0,511.4 1668,511.4 1668,4115.7 0,4115.7 	"/>
	<g id="wood_x5F_buy">
		<line class="st224" x1="337.2" y1="510.5" x2="337.2" y2="961"/>
		<line class="st224" x1="904.1" y1="510.5" x2="904.1" y2="961"/>
		<line class="st224" x1="0" y1="961" x2="1522.5" y2="961"/>
		<rect x="45.8" y="834.5" class="st234" width="298.5" height="75"/>
		<text id="wood_3_" transform="matrix(1 0 0 1 45.7956 877.4674)" class="st235 st236 st237">WOOD</text>
		<rect x="1062.2" y="834.5" class="st234" width="277.6" height="75"/>
		<text id="money_3_" transform="matrix(1 0 0 1 1062.1803 877.4674)" class="st235 st236 st237">MONEY</text>
		<path id="wood_x5F_minus_1_" class="st226" d="M553.6,891.7H389.2c-8.8,0-16-7.2-16-16V839c0-8.8,7.2-16,16-16h164.5
			c8.8,0,16,7.2,16,16v36.6C569.7,884.5,562.5,891.7,553.6,891.7z"/>
		<path id="wood_x5F_plus_1_" class="st226" d="M858.5,823h-53.7v-47.3c0-8.8-6.3-16-14.2-16h-32.4c-7.8,0-14.2,7.2-14.2,16V823
			h-53.7c-7.8,0-14.2,7.2-14.2,16v36.6c0,8.8,6.3,16,14.2,16H744V939c0,8.8,6.3,16,14.2,16h32.4c7.8,0,14.2-7.2,14.2-16v-47.3h53.7
			c7.8,0,14.2-7.2,14.2-16V839C872.6,830.2,866.3,823,858.5,823z"/>
		<g id="wood_x5F_pick_1_">
			<ellipse class="st227" cx="95.9" cy="698.3" rx="65.6" ry="62.4"/>
			<ellipse class="st228" cx="95.9" cy="698.3" rx="58.2" ry="55.4"/>
			<ellipse class="st228" cx="95.9" cy="698.3" rx="50.1" ry="47.6"/>
			<ellipse class="st228" cx="95.9" cy="698.3" rx="42.3" ry="40.2"/>
			<ellipse class="st228" cx="95.9" cy="698.3" rx="34.7" ry="33"/>
			<ellipse class="st228" cx="95.9" cy="698.3" rx="26.7" ry="25.4"/>
			<ellipse class="st228" cx="95.9" cy="698.3" rx="20" ry="19"/>
			<ellipse class="st229" cx="95.9" cy="698.3" rx="11.1" ry="10.6"/>
			<polygon class="st230" points="82,637.9 266.2,575.5 277.6,578.3 287.8,585 296.6,595.5 299.3,610 299.3,624.4 295.3,635.9 
				136.4,747.3 147.2,737.1 155.7,723.9 160.8,707.5 161.5,698.3 159.9,684.6 154.5,670.4 147,659.3 139.1,651.4 129,644.5 
				117.9,639.6 105.5,636.6 95.9,635.9 			"/>
		</g>
		<g id="buy_x5F_btn_x5F_wood">
			<rect x="1522.5" y="510.5" class="st238" width="145.5" height="450.5"/>
			<rect x="1576.5" y="568.3" class="st234" width="72" height="483.7"/>
			<text id="sell_x5F_vertic_3_" transform="matrix(1 0 0 1 1576.5127 611.2549)"><tspan x="0" y="0" class="st235 st236 st237"> </tspan><tspan x="0" y="72" class="st235 st236 st237">B</tspan><tspan x="0" y="144" class="st235 st236 st237">U</tspan><tspan x="0" y="216" class="st235 st236 st237">Y</tspan></text>
		</g>
	</g>
	<g id="stone_x5F_buy">
		<line class="st224" x1="337.2" y1="962" x2="337.2" y2="1412.5"/>
		<line class="st224" x1="904.1" y1="962" x2="904.1" y2="1412.5"/>
		<line class="st224" x1="0" y1="1412.5" x2="1522.5" y2="1412.6"/>
		<rect x="37.6" y="1286" class="st234" width="298.5" height="75"/>
		<text id="wood_2_" transform="matrix(1 0 0 1 37.6145 1329.0021)" class="st235 st236 st237">STONE</text>
		<rect x="1062.2" y="1286" class="st234" width="277.6" height="75"/>
		<text id="money_2_" transform="matrix(1 0 0 1 1062.1803 1329.0021)" class="st235 st236 st237">MONEY</text>
		<path id="stone_x5F_minus_1_" class="st226" d="M553.6,1343.2H389.2c-8.8,0-16-7.2-16-16v-36.6c0-8.8,7.2-16,16-16h164.5
			c8.8,0,16,7.2,16,16v36.6C569.7,1336,562.5,1343.2,553.6,1343.2z"/>
		<path id="stone_x5F_plus_1_" class="st226" d="M858.5,1274.5h-53.7v-47.3c0-8.8-6.3-16-14.2-16h-32.4c-7.8,0-14.2,7.2-14.2,16
			v47.3h-53.7c-7.8,0-14.2,7.2-14.2,16v36.6c0,8.8,6.3,16,14.2,16H744v47.3c0,8.8,6.3,16,14.2,16h32.4c7.8,0,14.2-7.2,14.2-16v-47.3
			h53.7c7.8,0,14.2-7.2,14.2-16v-36.6C872.6,1281.7,866.3,1274.5,858.5,1274.5z"/>
		<g id="buy_x5F_btn_x5F_stone">
			<rect x="1522.5" y="962" class="st238" width="145.5" height="450.5"/>
			<rect x="1576.5" y="1017" class="st234" width="72" height="483.7"/>
			<text id="sell_x5F_vertic_2_" transform="matrix(1 0 0 1 1576.5127 1059.9885)"><tspan x="0" y="0" class="st235 st236 st237"> </tspan><tspan x="0" y="72" class="st235 st236 st237">B</tspan><tspan x="0" y="144" class="st235 st236 st237">U</tspan><tspan x="0" y="216" class="st235 st236 st237">Y</tspan></text>
		</g>
		<g id="stone_x5F_pick_1_">
			<path class="st232" d="M56.2,1185.7l16.1,9c13.7,7.6,28.3,12.6,43.3,14.7l1.3,0.2c13.8,2,27.7,2.1,41.6,0.4l13.5-1.7
				c20.6-2.5,40.7-8.5,59.8-17.9l32.5-15.9c2.2-1.1,3.1-4.1,2.1-6.6l-21-53.3c-7.8-19.6-19.1-36.9-33.2-50.6l-1.8-1.7
				c-15.5-15-33.9-25-53.6-28.9l-12.3-2.4c-11.1-2.2-22.4,2.2-30.3,11.8l-16.1,19.7l-22.5,30.7c-7.1,9.6-11.7,21.4-13.5,34
				l-7.6,54.7C54.4,1183.6,55,1185.1,56.2,1185.7z"/>
			<path class="st233" d="M129.2,1067l-27.1,33c-3.2,3.9-5.4,8.6-6.2,13.6l-7.7,45.5c-0.6,3.4,1.4,6.7,4.6,7.9l30.1,10.5
				c2.2,0.8,4.7-0.6,5.1-2.9l13.1-67.6l13-40l-7-3.8c-3.7-2-8.3-1.9-11.9,0.2L129.2,1067z"/>
		</g>
	</g>
	<g id="ex2_x5F_buy">
		<line class="st224" x1="904.1" y1="1412.5" x2="904.1" y2="1863.1"/>
		<line class="st224" x1="0" y1="1863.1" x2="1522.5" y2="1863.1"/>
		<rect x="1062.2" y="1736.6" class="st234" width="277.6" height="75"/>
		<text id="money_6_" transform="matrix(1 0 0 1 1062.1803 1779.5367)" class="st235 st236 st237">MONEY</text>
		<g id="buy_x5F_btn_x5F_ex2">
			<rect x="1522.5" y="1412.6" class="st238" width="145.5" height="450.5"/>
			<rect x="1576.5" y="1470.4" class="st234" width="72" height="483.7"/>
			<text id="sell_x5F_vertic_6_" transform="matrix(1 0 0 1 1576.5127 1513.3242)"><tspan x="0" y="0" class="st235 st236 st237"> </tspan><tspan x="0" y="72" class="st235 st236 st237">B</tspan><tspan x="0" y="144" class="st235 st236 st237">U</tspan><tspan x="0" y="216" class="st235 st236 st237">Y</tspan></text>
		</g>
		<g id="ex2_x5F_pick">
			<path class="st180" d="M87.8,1784.4c-4.6-3-3.9-9.9,1.2-11.9l371.6-146.4l115.1-51.2l66.5-26.5l14.3,0.5l14,7.5l-0.4,10.3
				l-6.4,11.5l-30.3,15l-39.8,13.9l-32,7.9c-15.6,3.8-31,8.7-46.1,14.6l-408.3,158.8c-5.3,2-11.2,1.4-15.9-1.7L87.8,1784.4z"/>
			<path class="st181" d="M617.1,1520.1l-6.3-4.1c-6.9-4.5-13.3-9.7-19.2-15.6l-15.9-15.9c-1.6-1.6-4.2-0.5-4.2,1.8v21.6
				c0,7.5-0.8,15-2.5,22.3l-1.3,5.8c-3,13.2-3.4,26.9-1.1,40.2l0,0c1.1,6.4,3,12.6,5.7,18.5v0c6.3,13.7,10.2,28.4,11.6,43.4l1,10.9
				c0.8,8.3,0.8,16.6,0.1,24.8l-1.2,14.1c-1.4,16.4-4.3,32.6-8.7,48.5l-13.6,49.5h48c16.2,0,32.4-2.1,48.1-6.2l16.1-4.2
				c15.7-4.1,30.8-10.3,44.9-18.2v0c19.8-11.2,37.4-25.8,51.9-43.2l15.8-18.9l-29.2-14c-18.7-9-35.6-21.2-50-36l-9.2-9.5
				c-7.8-8-14.8-16.7-21.1-25.9l-19.4-28.4l-16.7-34.5l-1.9-3.5C633.5,1534,626.1,1526,617.1,1520.1z"/>
			<path class="st182" d="M566.1,1769l-4.7,17.1h48c16.2,0,32.4-2.1,48.1-6.2l16.1-4.2c15.7-4.1,30.8-10.3,44.9-18.2v0
				c19.8-11.2,37.4-25.8,51.9-43.2l15.8-18.9l-13.9-6.7l-15,13.8c-4.9,4.5-10,8.7-15.4,12.6l-11.1,8c-6.3,4.6-13,8.7-19.9,12.3
				l-13,6.8c-10.6,5.6-21.8,10-33.3,13.2l-12.8,3.5c-7.4,2-15,3.6-22.7,4.5l-23.9,3.1c-4,0.5-8,0.9-12,1.1L566.1,1769z"/>
		</g>
	</g>
	<g id="ex3_x5F_buy">
		<line class="st224" x1="904.1" y1="1863.1" x2="904.1" y2="2313.6"/>
		<rect x="1062.2" y="2187.1" class="st234" width="277.6" height="75"/>
		<text id="money_1_" transform="matrix(1 0 0 1 1062.1803 2230.0713)" class="st235 st236 st237">MONEY</text>
		<g id="buy_x5F_btn_x5F_ex3">
			<rect x="1522.5" y="1863.1" class="st238" width="145.5" height="450.5"/>
			<rect x="1576.5" y="1918.1" class="st234" width="72" height="483.7"/>
			<text id="sell_x5F_vertic_1_" transform="matrix(1 0 0 1 1576.5127 1961.0579)"><tspan x="0" y="0" class="st235 st236 st237"> </tspan><tspan x="0" y="72" class="st235 st236 st237">B</tspan><tspan x="0" y="144" class="st235 st236 st237">U</tspan><tspan x="0" y="216" class="st235 st236 st237">Y</tspan></text>
		</g>
		<g id="ex3_x5F_pick">
			<path class="st177" d="M123.7,2293.6c-4.6-3-3.9-9.9,1.2-11.9l371.6-146.4l115.1-51.2l66.5-26.5l14.3,0.5l14,7.5l-0.4,10.3
				l-6.4,11.5l-30.3,15l-39.8,13.9l-32,7.9c-15.6,3.8-31,8.7-46.1,14.6L143,2297.4c-5.3,2-11.2,1.4-15.9-1.7L123.7,2293.6z"/>
			<path class="st178" d="M792.9,2190.5c-18.7-9-35.6-21.2-50-36l-9.2-9.5c-7.8-8-14.8-16.7-21.1-25.9l-19.4-28.4l-8.5-17.6
				l-5.5-18.8l-4.6-34.1c-1.5-11.1-2-22.2-1.6-33.4l0.5-13.2c0.7-20.7,5.1-41.1,13-60.3l12.3-30l-24.3-3.4
				c-22.5-3.2-45.3-2.3-67.5,2.7h0c-15.8,3.5-31.1,9.1-45.5,16.5l-14.8,7.7c-14.4,7.4-27.8,16.7-39.8,27.6l-35.6,32.2l43.3,27.6
				c13.9,8.9,26.9,18.9,39,30.2l10.3,9.6c6.1,5.7,11.6,11.8,16.6,18.5l6.6,8.7c7.2,9.6,13.1,20.2,17.4,31.4
				c0.9,3.4,2.1,6.8,3.5,10.1c1.2,3.4,2.6,6.8,4.2,10c4.2,11.2,6.9,22.9,8,34.8l1,10.9c0.8,8.3,0.8,16.6,0.1,24.8l-1.2,14.1
				c-1.4,16.4-4.3,32.6-8.7,48.5l-13.6,49.5h48c16.2,0,32.4-2.1,48.1-6.2l16.1-4.2c15.7-4.1,30.8-10.3,44.9-18.2h0
				c19.8-11.2,37.4-25.8,51.9-43.2l15.8-18.9L792.9,2190.5z"/>
			<path class="st179" d="M690.9,1902.2l7.7-18.8l-24.3-3.4c-22.5-3.2-45.3-2.3-67.5,2.7h0c-15.8,3.5-31.1,9.1-45.5,16.5l-14.8,7.7
				c-14.4,7.4-27.8,16.7-39.8,27.6l-35.6,32.2l19.2,12.2l12.9-11.2c9.3-8.1,19.3-15.3,30-21.5l10.2-5.9c4.9-2.8,9.9-5.5,15-7.9
				l18.1-8.6c8.8-4.2,17.9-7.7,27.2-10.5l8.1-2.4c11.9-3.6,24.1-6.1,36.5-7.3l4-0.4c7.3-0.8,14.6-1.1,21.9-1.1L690.9,1902.2z"/>
			<path class="st179" d="M604,2271.1l-6.7,24.2h48c16.2,0,32.4-2.1,48.1-6.2l16.1-4.2c15.7-4.1,30.8-10.3,44.9-18.2h0
				c19.8-11.2,37.4-25.8,51.9-43.2l15.8-18.9l-20.9-10l-18.8,15.2c-2.7,2.2-5.6,4.2-8.7,6l-19.3,11.1c-4.1,2.4-8.3,4.6-12.6,6.7
				l-18.4,8.9c-9.2,4.4-18.7,8.2-28.5,11.1l-12.8,3.9c-5.3,1.6-10.6,2.9-16,4.1l-20.3,4.3c-6.4,1.4-12.9,2.4-19.5,3.1L604,2271.1z"
				/>
		</g>
	</g>
</g>
</svg>
