<?xml version="1.0" encoding="utf-8"?>
<!-- Generator: Adobe Illustrator 21.1.0, SVG Export Plug-In . SVG Version: 6.00 Build 0)  -->
<svg version="1.1" id="game" xmlns="http://www.w3.org/2000/svg" xmlns:xlink="http://www.w3.org/1999/xlink" x="0px" y="0px"
	 viewBox="0 0 1668 4115.7" style="enable-background:new 0 0 1668 4115.7;" xml:space="preserve">
<style type="text/css">
	.st0{fill:#5C7552;}
	.st1{fill:#E2CA96;}
	.st2{fill:#6F8763;}
	.st3{fill:#EAD7A2;}
	.st4{fill:#F9F2EF;}
	.st5{fill:#382C26;}
	.st6{fill:#936F5F;}
	.st7{fill:#7C655C;}
	.st8{fill:#F9A182;}
	.st9{fill:#DBC697;}
	.st10{fill:#8C7857;}
	.st11{fill:#635872;}
	.st12{fill:#6B7F60;}
	.st13{fill:#755D3F;}
	.st14{fill:#C9B8A7;}
	.st15{fill:url(#gradient4_1_);}
	.st16{fill:url(#gradient5_1_);}
	.st17{fill:#66E2FF;}
	.st18{fill:none;stroke:#B28052;stroke-miterlimit:10;}
	.st19{fill:#96735C;}
	.st20{fill:#825D49;stroke:#BF8A5E;stroke-miterlimit:10;}
	.st21{fill:#AD7D5C;stroke:#B28052;stroke-miterlimit:10;}
	.st22{fill:#BC8864;stroke:#B28052;stroke-miterlimit:10;}
	.st23{fill:#A37B61;}
	.st24{fill:#BC8866;}
	.st25{fill:#E0A57E;stroke:#B28052;stroke-miterlimit:10;}
	.st26{fill:#D19A7C;stroke:#B28052;stroke-miterlimit:10;}
	.st27{fill:#F4DBCE;}
	.st28{fill:#DBC7BF;}
	.st29{fill:#8E684F;stroke:#BF8A5E;stroke-miterlimit:10;}
	.st30{fill:#AD753E;}
	.st31{fill:#966636;}
	.st32{fill:#A87339;}
	.st33{fill:#BC8651;}
	.st34{fill:#AA7A4F;}
	.st35{fill:#C99465;}
	.st36{fill:none;stroke:#634B2A;stroke-miterlimit:10;}
	.st37{fill:#B28052;}
	.st38{fill:#96674D;stroke:#A57758;stroke-width:3;stroke-miterlimit:10;}
	.st39{fill:none;stroke:#A57758;stroke-width:3;stroke-miterlimit:10;}
	.st40{fill:#00CFFF;}
	.st41{fill:#03CDE2;}
	.st42{fill:#00DBFF;}
	.st43{fill:#00E7FF;}
	.st44{fill:#00F3FF;}
	.st45{fill:#2EFFF9;}
	.st46{fill:#78FFF8;}
	.st47{fill:#FFF0BF;}
	.st48{fill:#F7E4A6;}
	.st49{fill:#BCCC60;}
	.st50{fill:url(#sea_1_);}
	.st51{fill:#D6C8A3;}
	.st52{fill:#D3C7A7;}
	.st53{fill:#DBCDAF;}
	.st54{fill:#98958C;}
	.st55{fill:#C2BEB5;}
	.st56{fill:#ACA7A1;}
	.st57{fill:#ADA8A2;}
	.st58{fill:#D3CAB2;}
	.st59{fill:#8D8880;}
	.st60{fill:#99968D;}
	.st61{fill:#C2BDB3;}
	.st62{fill:#DDCFAF;}
	.st63{fill:#CCBFA6;}
	.st64{fill:#9B988F;}
	.st65{fill:#8B877E;}
	.st66{fill:#B9B2AA;}
	.st67{fill:#C3BFB6;}
	.st68{fill:#CED18B;}
	.st69{fill:#C6BBA5;}
	.st70{fill:#CEC2AA;}
	.st71{fill:#CCC1AA;}
	.st72{fill:#C4BFB3;}
	.st73{fill:#99968B;}
	.st74{fill:#969089;}
	.st75{fill:#939189;}
	.st76{fill:#B7B5AB;}
	.st77{fill:#C9BDA6;}
	.st78{fill:#C6BBA7;}
	.st79{fill:#BAB3A6;}
	.st80{fill:#9E9C95;}
	.st81{fill:#CCC0A8;}
	.st82{fill:#A5A299;}
	.st83{fill:#C4BCA9;}
	.st84{fill:#B5AD9E;}
	.st85{fill:#9A978E;}
	.st86{fill:#8D877F;}
	.st87{fill:#B8B1AA;}
	.st88{fill:#C3BFB4;}
	.st89{fill:#C5BEB6;}
	.st90{fill:#B5B3AC;}
	.st91{fill:#D5D1C6;}
	.st92{fill:#BCB4B1;}
	.st93{fill:#999793;}
	.st94{fill:#8E8E87;}
	.st95{fill:#A3A19D;}
	.st96{fill:#B5B4B1;}
	.st97{fill:#A8A7A7;}
	.st98{fill:#A09D97;}
	.st99{fill:#D3CFC3;}
	.st100{fill:#ADAAA6;}
	.st101{fill:#B2B1AF;}
	.st102{fill:#9B978F;}
	.st103{fill:#AAA7A0;}
	.st104{fill:#CCC8C4;}
	.st105{fill:#D3D0CD;}
	.st106{fill:#C9C3BD;}
	.st107{fill:#B2AFA8;}
	.st108{fill:#999692;}
	.st109{fill:#898683;}
	.st110{fill:#A3A29B;}
	.st111{fill:#B2AEAA;}
	.st112{fill:#D6D0C9;}
	.st113{fill:#918D87;}
	.st114{fill:#DBD5C6;}
	.st115{fill:#B7B3AE;}
	.st116{fill:#C4C1BB;}
	.st117{fill:#9B9891;}
	.st118{fill:#D8D5CB;}
	.st119{fill:#939089;}
	.st120{fill:#A8A6A0;}
	.st121{fill:#D8D5D0;}
	.st122{fill:#A8A49B;}
	.st123{fill:#96928A;}
	.st124{fill:#CEC8C2;}
	.st125{fill:#C4996C;}
	.st126{fill:#B7845A;}
	.st127{fill:#D5A776;}
	.st128{fill:#477F16;}
	.st129{fill:#436818;}
	.st130{fill:#AA7B43;}
	.st131{fill:#B79056;}
	.st132{fill:#AD9655;}
	.st133{fill:#DD9D68;}
	.st134{fill:#C18B59;stroke:#A87848;stroke-miterlimit:10;}
	.st135{fill:#B28056;}
	.st136{fill:#AD7D59;}
	.st137{fill:#AA7D5C;}
	.st138{fill:#DDCBBF;}
	.st139{fill:#DBDAD9;}
	.st140{fill:#D8A380;}
	.st141{fill:#CE987A;}
	.st142{fill:#CC9D85;}
	.st143{fill:#C6977F;}
	.st144{fill:#C19784;}
	.st145{fill:#C69B8B;}
	.st146{fill:#B7958B;}
	.st147{fill:#AF8958;}
	.st148{fill:#967A60;}
	.st149{fill:#C9D1D3;}
	.st150{fill:#635C55;}
	.st151{fill:#65868F;}
	.st152{fill:#6CC1A0;}
	.st153{fill:#EFCE8E;}
	.st154{fill:#60523B;}
	.st155{fill:#EFC58E;}
	.st156{fill:#6D5D41;}
	.st157{fill:#E8C192;}
	.st158{fill:#EFCA7F;}
	.st159{fill:#FFFFFF;}
	.st160{fill:#E5C57C;}
	.st161{fill:#59585E;}
	.st162{fill:#6FC9A9;}
	.st163{fill:#686770;}
	.st164{fill:#86D1B1;}
	.st165{fill:#2D2924;}
	.st166{fill:none;stroke:#2D2924;stroke-width:18;stroke-miterlimit:10;}
	.st167{fill:none;stroke:#2D2924;stroke-width:18;stroke-miterlimit:10;stroke-dasharray:8.8394,8.8394;}
	.st168{fill:none;stroke:#2D2924;stroke-width:18;stroke-miterlimit:10;stroke-dasharray:9.9611,9.9611;}
	.st169{fill:#C0D3D7;}
	.st170{fill:#98A9B1;}
	.st171{fill:#E26B47;}
	.st172{fill:#FF8243;}
	.st173{fill:#47413F;}
	.st174{fill:#EF8424;}
	.st175{fill:#FDA83D;}
	.st176{fill:#994E22;}
	.st177{fill:#965F29;}
	.st178{fill:#7F7F7F;}
	.st179{fill:#D6D5D4;}
	.st180{fill:#C98235;}
	.st181{fill:#999999;}
	.st182{fill:#E2E1E0;}
	.st183{fill:#D98D31;}
	.st184{fill:#B5B5B5;}
	.st185{fill:#7F6752;}
	.st186{fill:#777770;}
	.st187{fill:#F29575;}
	.st188{fill:#3F3831;}
	.st189{fill:url(#gradient_1_);}
	.st190{fill:#997933;}
	.st191{fill:#937334;}
	.st192{fill:#A9DB52;}
	.st193{fill:#96C639;}
	.st194{fill:#82B71C;}
	.st195{fill:#B6E55C;}
	.st196{fill:#90C125;}
	.st197{fill:#A9D146;}
	.st198{fill:#8E7036;}
	.st199{fill:#846939;}
	.st200{fill:#78A038;stroke:#81AD2B;stroke-width:3;stroke-miterlimit:10;}
	.st201{fill:#658E30;}
	.st202{fill:#85AA44;}
	.st203{fill:#7EAF31;}
	.st204{fill:#018287;}
	.st205{fill:#161616;}
	.st206{fill:#00686B;}
	.st207{fill:#161616;stroke:#373737;stroke-miterlimit:10;}
	.st208{fill:none;stroke:#D98D31;stroke-miterlimit:10;}
	.st209{fill:#242424;}
	.st210{fill:#373737;}
	.st211{fill:#A3A3A3;}
	.st212{fill:#ACACAE;}
	.st213{fill:url(#gradient2_1_);}
	.st214{fill:url(#gradient3_1_);}
	.st215{fill:#B67D56;}
	.st216{fill:#83492A;}
	.st217{fill:#9C6038;}
	.st218{fill:#683920;}
	.st219{fill:#563119;}
	.st220{fill:#CC9E75;}
	.st221{fill:#633A23;}
	.st222{fill:#F9F6CD;}
	.st223{fill:none;stroke:#000000;stroke-miterlimit:10;}
	.st224{fill:#A59D58;}
	.st225{fill:#CCA962;}
	.st226{fill:none;stroke:#EFCF97;stroke-miterlimit:10;}
	.st227{fill:#EFCF97;}
	.st228{fill:#846431;}
	.st229{fill:#FFF980;stroke:#000000;stroke-miterlimit:10;}
	.st230{fill:#75634C;}
	.st231{fill:#7A6A59;}
	.st232{fill:#FFF980;stroke:#FFF980;stroke-miterlimit:10;}
	.st233{fill:#EDFF85;stroke:#EDFF85;stroke-miterlimit:10;}
	.st234{fill:none;}
	.st235{font-family:'ArialMT';}
	.st236{font-size:60px;}
	.st237{letter-spacing:12;}
	.st238{fill:#EDFF85;stroke:#000000;stroke-miterlimit:10;}
	.st239{font-family:'MyriadPro-Regular';}
	.st240{font-size:100px;}
	.st241{fill:none;stroke:#2D2924;stroke-width:18;stroke-miterlimit:10;stroke-dasharray:9.9129,9.9129;}
	.st242{fill:#F9F6CD;stroke:#000000;stroke-miterlimit:10;}
	.st243{fill:none;stroke:#2D2924;stroke-width:18;stroke-miterlimit:10;stroke-dasharray:12.5119,12.5119;}
	.st244{fill:none;stroke:#2D2924;stroke-width:18;stroke-miterlimit:10;stroke-dasharray:10.1077,10.1077;}
</style>
<g id="menu_x5F_buy">
	<polyline class="st222" points="0,511.4 1668,511.4 1668,4115.7 0,4115.7 	"/>
	<g id="wood_x5F_buy">
		<line class="st223" x1="337.2" y1="510.5" x2="337.2" y2="961"/>
		<line class="st223" x1="904.1" y1="510.5" x2="904.1" y2="961"/>
		<line class="st223" x1="0" y1="961" x2="1522.5" y2="961"/>
		<rect x="45.8" y="834.5" class="st234" width="298.5" height="75"/>
		<text id="wood_3_" transform="matrix(1 0 0 1 45.7956 877.4674)" class="st235 st236 st237">WOOD</text>
		<rect x="1062.2" y="834.5" class="st234" width="277.6" height="75"/>
		<text id="money_3_" transform="matrix(1 0 0 1 1062.1803 877.4674)" class="st235 st236 st237">MONEY</text>
		<path id="wood-minus_x5F_buy" class="st224" d="M553.6,891.7H389.2c-8.8,0-16-7.2-16-16V839c0-8.8,7.2-16,16-16h164.5
			c8.8,0,16,7.2,16,16v36.6C569.7,884.5,562.5,891.7,553.6,891.7z"/>
		<path id="wood-plus_x5F_buy" class="st224" d="M858.5,823h-53.7v-47.3c0-8.8-6.3-16-14.2-16h-32.4c-7.8,0-14.2,7.2-14.2,16V823
			h-53.7c-7.8,0-14.2,7.2-14.2,16v36.6c0,8.8,6.3,16,14.2,16H744V939c0,8.8,6.3,16,14.2,16h32.4c7.8,0,14.2-7.2,14.2-16v-47.3h53.7
			c7.8,0,14.2-7.2,14.2-16V839C872.6,830.2,866.3,823,858.5,823z"/>
		<g id="wood_x5F_pick_1_">
			<ellipse class="st225" cx="95.9" cy="698.3" rx="65.6" ry="62.4"/>
			<ellipse class="st226" cx="95.9" cy="698.3" rx="58.2" ry="55.4"/>
			<ellipse class="st226" cx="95.9" cy="698.3" rx="50.1" ry="47.6"/>
			<ellipse class="st226" cx="95.9" cy="698.3" rx="42.3" ry="40.2"/>
			<ellipse class="st226" cx="95.9" cy="698.3" rx="34.7" ry="33"/>
			<ellipse class="st226" cx="95.9" cy="698.3" rx="26.7" ry="25.4"/>
			<ellipse class="st226" cx="95.9" cy="698.3" rx="20" ry="19"/>
			<ellipse class="st227" cx="95.9" cy="698.3" rx="11.1" ry="10.6"/>
			<polygon class="st228" points="82,637.9 266.2,575.5 277.6,578.3 287.8,585 296.6,595.5 299.3,610 299.3,624.4 295.3,635.9 
				136.4,747.3 147.2,737.1 155.7,723.9 160.8,707.5 161.5,698.3 159.9,684.6 154.5,670.4 147,659.3 139.1,651.4 129,644.5 
				117.9,639.6 105.5,636.6 95.9,635.9 			"/>
		</g>
		<g id="buy-btn_x5F_wood">
			<rect x="1522.5" y="510.5" class="st238" width="145.5" height="450.5"/>
			<rect x="1576.5" y="568.3" class="st234" width="72" height="483.7"/>
			<text id="sell_x5F_vertic_3_" transform="matrix(1 0 0 1 1576.5127 611.2549)"><tspan x="0" y="0" class="st235 st236 st237"> </tspan><tspan x="0" y="72" class="st235 st236 st237">B</tspan><tspan x="0" y="144" class="st235 st236 st237">U</tspan><tspan x="0" y="216" class="st235 st236 st237">Y</tspan></text>
		</g>
		<rect x="377.6" y="571.6" class="st234" width="480" height="174"/>
		<text id="quantity-wood_x5F_buy" transform="matrix(1 0 0 1 591.9492 642.6075)" class="st239 st240">0</text>
		<rect x="942.8" y="571.5" class="st234" width="546.1" height="253.6"/>
		<text id="quantity-money-wood_x5F_buy" transform="matrix(1 0 0 1 1190.2112 642.517)" class="st239 st240">0</text>
	</g>
	<g id="stone_x5F_buy">
		<line class="st223" x1="337.2" y1="962" x2="337.2" y2="1412.5"/>
		<line class="st223" x1="904.1" y1="962" x2="904.1" y2="1412.5"/>
		<line class="st223" x1="0" y1="1412.5" x2="1522.5" y2="1412.6"/>
		<rect x="37.6" y="1286" class="st234" width="298.5" height="75"/>
		<text id="wood_2_" transform="matrix(1 0 0 1 37.6145 1329.0021)" class="st235 st236 st237">STONE</text>
		<rect x="1062.2" y="1286" class="st234" width="277.6" height="75"/>
		<text id="money_2_" transform="matrix(1 0 0 1 1062.1803 1329.0021)" class="st235 st236 st237">MONEY</text>
		<path id="stone-minus_x5F_buy" class="st224" d="M553.6,1343.2H389.2c-8.8,0-16-7.2-16-16v-36.6c0-8.8,7.2-16,16-16h164.5
			c8.8,0,16,7.2,16,16v36.6C569.7,1336,562.5,1343.2,553.6,1343.2z"/>
		<path id="stone-plus_x5F_buy" class="st224" d="M858.5,1274.5h-53.7v-47.3c0-8.8-6.3-16-14.2-16h-32.4c-7.8,0-14.2,7.2-14.2,16
			v47.3h-53.7c-7.8,0-14.2,7.2-14.2,16v36.6c0,8.8,6.3,16,14.2,16H744v47.3c0,8.8,6.3,16,14.2,16h32.4c7.8,0,14.2-7.2,14.2-16v-47.3
			h53.7c7.8,0,14.2-7.2,14.2-16v-36.6C872.6,1281.7,866.3,1274.5,858.5,1274.5z"/>
		<g id="buy-btn_x5F_stone">
			<rect x="1522.5" y="962" class="st238" width="145.5" height="450.5"/>
			<rect x="1576.5" y="1017" class="st234" width="72" height="483.7"/>
			<text id="sell_x5F_vertic_2_" transform="matrix(1 0 0 1 1576.5127 1059.9885)"><tspan x="0" y="0" class="st235 st236 st237"> </tspan><tspan x="0" y="72" class="st235 st236 st237">B</tspan><tspan x="0" y="144" class="st235 st236 st237">U</tspan><tspan x="0" y="216" class="st235 st236 st237">Y</tspan></text>
		</g>
		<g id="stone_x5F_pick_1_">
			<path class="st230" d="M56.2,1185.7l16.1,9c13.7,7.6,28.3,12.6,43.3,14.7l1.3,0.2c13.8,2,27.7,2.1,41.6,0.4l13.5-1.7
				c20.6-2.5,40.7-8.5,59.8-17.9l32.5-15.9c2.2-1.1,3.1-4.1,2.1-6.6l-21-53.3c-7.8-19.6-19.1-36.9-33.2-50.6l-1.8-1.7
				c-15.5-15-33.9-25-53.6-28.9l-12.3-2.4c-11.1-2.2-22.4,2.2-30.3,11.8l-16.1,19.7l-22.5,30.7c-7.1,9.6-11.7,21.4-13.5,34
				l-7.6,54.7C54.4,1183.6,55,1185.1,56.2,1185.7z"/>
			<path class="st231" d="M129.2,1067l-27.1,33c-3.2,3.9-5.4,8.6-6.2,13.6l-7.7,45.5c-0.6,3.4,1.4,6.7,4.6,7.9l30.1,10.5
				c2.2,0.8,4.7-0.6,5.1-2.9l13.1-67.6l13-40l-7-3.8c-3.7-2-8.3-1.9-11.9,0.2L129.2,1067z"/>
		</g>
		<rect x="377.6" y="1017" class="st234" width="480" height="174"/>
		<text id="quantity-stone_x5F_buy" transform="matrix(1 0 0 1 591.9492 1088.0286)" class="st239 st240">0</text>
		<rect x="942.8" y="1017" class="st234" width="546.1" height="253.6"/>
		<text id="quantity-money-stone_x5F_buy" transform="matrix(1 0 0 1 1190.2112 1088.0286)" class="st239 st240">0</text>
	</g>
	<g id="ex2_x5F_buy">
		<line class="st223" x1="904.1" y1="1412.5" x2="904.1" y2="1863.1"/>
		<line class="st223" x1="0" y1="1863.1" x2="1522.5" y2="1863.1"/>
		<rect x="1062.2" y="1736.6" class="st234" width="277.6" height="75"/>
		<text id="money_6_" transform="matrix(1 0 0 1 1062.1803 1779.5367)" class="st235 st236 st237">MONEY</text>
		<g id="buy-btn_x5F_ex2">
			<rect x="1522.5" y="1412.6" class="st238" width="145.5" height="450.5"/>
			<rect x="1576.5" y="1470.4" class="st234" width="72" height="483.7"/>
			<text id="sell_x5F_vertic_6_" transform="matrix(1 0 0 1 1576.5127 1513.3242)"><tspan x="0" y="0" class="st235 st236 st237"> </tspan><tspan x="0" y="72" class="st235 st236 st237">B</tspan><tspan x="0" y="144" class="st235 st236 st237">U</tspan><tspan x="0" y="216" class="st235 st236 st237">Y</tspan></text>
		</g>
		<g id="ex2_x5F_pick">
			<path class="st180" d="M87.8,1784.4c-4.6-3-3.9-9.9,1.2-11.9l371.6-146.4l115.1-51.2l66.5-26.5l14.3,0.5l14,7.5l-0.4,10.3
				l-6.4,11.5l-30.3,15l-39.8,13.9l-32,7.9c-15.6,3.8-31,8.7-46.1,14.6l-408.3,158.8c-5.3,2-11.2,1.4-15.9-1.7L87.8,1784.4z"/>
			<path class="st181" d="M617.1,1520.1l-6.3-4.1c-6.9-4.5-13.3-9.7-19.2-15.6l-15.9-15.9c-1.6-1.6-4.2-0.5-4.2,1.8v21.6
				c0,7.5-0.8,15-2.5,22.3l-1.3,5.8c-3,13.2-3.4,26.9-1.1,40.2l0,0c1.1,6.4,3,12.6,5.7,18.5v0c6.3,13.7,10.2,28.4,11.6,43.4l1,10.9
				c0.8,8.3,0.8,16.6,0.1,24.8l-1.2,14.1c-1.4,16.4-4.3,32.6-8.7,48.5l-13.6,49.5h48c16.2,0,32.4-2.1,48.1-6.2l16.1-4.2
				c15.7-4.1,30.8-10.3,44.9-18.2v0c19.8-11.2,37.4-25.8,51.9-43.2l15.8-18.9l-29.2-14c-18.7-9-35.6-21.2-50-36l-9.2-9.5
				c-7.8-8-14.8-16.7-21.1-25.9l-19.4-28.4l-16.7-34.5l-1.9-3.5C633.5,1534,626.1,1526,617.1,1520.1z"/>
			<path class="st182" d="M566.1,1769l-4.7,17.1h48c16.2,0,32.4-2.1,48.1-6.2l16.1-4.2c15.7-4.1,30.8-10.3,44.9-18.2v0
				c19.8-11.2,37.4-25.8,51.9-43.2l15.8-18.9l-13.9-6.7l-15,13.8c-4.9,4.5-10,8.7-15.4,12.6l-11.1,8c-6.3,4.6-13,8.7-19.9,12.3
				l-13,6.8c-10.6,5.6-21.8,10-33.3,13.2l-12.8,3.5c-7.4,2-15,3.6-22.7,4.5l-23.9,3.1c-4,0.5-8,0.9-12,1.1L566.1,1769z"/>
		</g>
		<rect x="942.8" y="1458.6" class="st234" width="546.1" height="253.6"/>
		<text id="quantity-money-ex2_x5F_buy" transform="matrix(1 0 0 1 1190.2112 1529.6409)" class="st239 st240">0</text>
	</g>
	<g id="ex3_x5F_buy">
		<line class="st223" x1="904.1" y1="1863.1" x2="904.1" y2="2313.6"/>
		<line class="st223" x1="0" y1="2313.6" x2="1509.4" y2="2313.6"/>
		<rect x="1062.2" y="2187.1" class="st234" width="277.6" height="75"/>
		<text id="money_1_" transform="matrix(1 0 0 1 1062.1803 2230.0713)" class="st235 st236 st237">MONEY</text>
		<g id="buy-btn_x5F_ex3">
			<rect x="1522.5" y="1863.1" class="st238" width="145.5" height="450.5"/>
			<rect x="1576.5" y="1918.1" class="st234" width="72" height="483.7"/>
			<text id="sell_x5F_vertic_1_" transform="matrix(1 0 0 1 1576.5127 1961.0579)"><tspan x="0" y="0" class="st235 st236 st237"> </tspan><tspan x="0" y="72" class="st235 st236 st237">B</tspan><tspan x="0" y="144" class="st235 st236 st237">U</tspan><tspan x="0" y="216" class="st235 st236 st237">Y</tspan></text>
		</g>
		<g id="ex3_x5F_pick">
			<path class="st177" d="M123.7,2293.6c-4.6-3-3.9-9.9,1.2-11.9l371.6-146.4l115.1-51.2l66.5-26.5l14.3,0.5l14,7.5l-0.4,10.3
				l-6.4,11.5l-30.3,15l-39.8,13.9l-32,7.9c-15.6,3.8-31,8.7-46.1,14.6L143,2297.4c-5.3,2-11.2,1.4-15.9-1.7L123.7,2293.6z"/>
			<path class="st178" d="M792.9,2190.5c-18.7-9-35.6-21.2-50-36l-9.2-9.5c-7.8-8-14.8-16.7-21.1-25.9l-19.4-28.4l-8.5-17.6
				l-5.5-18.8l-4.6-34.1c-1.5-11.1-2-22.2-1.6-33.4l0.5-13.2c0.7-20.7,5.1-41.1,13-60.3l12.3-30l-24.3-3.4
				c-22.5-3.2-45.3-2.3-67.5,2.7h0c-15.8,3.5-31.1,9.1-45.5,16.5l-14.8,7.7c-14.4,7.4-27.8,16.7-39.8,27.6l-35.6,32.2l43.3,27.6
				c13.9,8.9,26.9,18.9,39,30.2l10.3,9.6c6.1,5.7,11.6,11.8,16.6,18.5l6.6,8.7c7.2,9.6,13.1,20.2,17.4,31.4
				c0.9,3.4,2.1,6.8,3.5,10.1c1.2,3.4,2.6,6.8,4.2,10c4.2,11.2,6.9,22.9,8,34.8l1,10.9c0.8,8.3,0.8,16.6,0.1,24.8l-1.2,14.1
				c-1.4,16.4-4.3,32.6-8.7,48.5l-13.6,49.5h48c16.2,0,32.4-2.1,48.1-6.2l16.1-4.2c15.7-4.1,30.8-10.3,44.9-18.2h0
				c19.8-11.2,37.4-25.8,51.9-43.2l15.8-18.9L792.9,2190.5z"/>
			<path class="st179" d="M690.9,1902.2l7.7-18.8l-24.3-3.4c-22.5-3.2-45.3-2.3-67.5,2.7h0c-15.8,3.5-31.1,9.1-45.5,16.5l-14.8,7.7
				c-14.4,7.4-27.8,16.7-39.8,27.6l-35.6,32.2l19.2,12.2l12.9-11.2c9.3-8.1,19.3-15.3,30-21.5l10.2-5.9c4.9-2.8,9.9-5.5,15-7.9
				l18.1-8.6c8.8-4.2,17.9-7.7,27.2-10.5l8.1-2.4c11.9-3.6,24.1-6.1,36.5-7.3l4-0.4c7.3-0.8,14.6-1.1,21.9-1.1L690.9,1902.2z"/>
			<path class="st179" d="M604,2271.1l-6.7,24.2h48c16.2,0,32.4-2.1,48.1-6.2l16.1-4.2c15.7-4.1,30.8-10.3,44.9-18.2h0
				c19.8-11.2,37.4-25.8,51.9-43.2l15.8-18.9l-20.9-10l-18.8,15.2c-2.7,2.2-5.6,4.2-8.7,6l-19.3,11.1c-4.1,2.4-8.3,4.6-12.6,6.7
				l-18.4,8.9c-9.2,4.4-18.7,8.2-28.5,11.1l-12.8,3.9c-5.3,1.6-10.6,2.9-16,4.1l-20.3,4.3c-6.4,1.4-12.9,2.4-19.5,3.1L604,2271.1z"
				/>
		</g>
		<rect x="942.8" y="1906.4" class="st234" width="546.1" height="253.6"/>
		<text id="quantity-money-ex3_x5F_buy" transform="matrix(1 0 0 1 1190.2112 1977.3744)" class="st239 st240">0</text>
	</g>
	<g id="chainsaw_x5F_buy">
		<line class="st223" x1="904.1" y1="2313.6" x2="904.1" y2="2764.1"/>
		<line class="st223" x1="0" y1="2764.1" x2="1509.4" y2="2764.1"/>
		<rect x="1062.2" y="2637.6" class="st234" width="277.6" height="75"/>
		<text id="money_7_" transform="matrix(1 0 0 1 1062.1803 2680.606)" class="st235 st236 st237">MONEY</text>
		<g id="buy-btn_x5F_saw">
			<rect x="1522.5" y="2313.6" class="st238" width="145.5" height="450.5"/>
			<rect x="1576.5" y="2368.6" class="st234" width="72" height="483.7"/>
			<text id="sell_x5F_vertic_7_" transform="matrix(1 0 0 1 1576.5127 2411.5925)"><tspan x="0" y="0" class="st235 st236 st237"> </tspan><tspan x="0" y="72" class="st235 st236 st237">B</tspan><tspan x="0" y="144" class="st235 st236 st237">U</tspan><tspan x="0" y="216" class="st235 st236 st237">Y</tspan></text>
		</g>
		<g id="chainsaw_x5F_pick">
			<g>
				<path class="st165" d="M785.2,2537.2l-361.7,56l-13.7-88.5l361.8-56c24.3-3.8,47,12.9,50.8,37.2l0.1,0.4
					C826.2,2510.6,809.5,2533.4,785.2,2537.2z"/>
				<g>
					<polyline class="st166" points="428.5,2592.4 423.5,2593.2 422.8,2588.3 					"/>
					<line class="st167" x1="421.4" y1="2579.5" x2="411.3" y2="2514"/>
					<polyline class="st166" points="410.6,2509.6 409.8,2504.7 414.8,2503.9 					"/>
					<path class="st241" d="M424.6,2502.4l347-53.7c24.3-3.8,47,12.9,50.8,37.2l0.1,0.4c3.8,24.3-12.9,47.1-37.3,50.9l-351.8,54.5"
						/>
				</g>
			</g>
			<path class="st169" d="M782.8,2529.8l-348.7,54l-11.4-73.9l348.7-54c19.8-3.1,38.3,10.5,41.4,30.3l0.3,2.2
				C816.1,2508.2,802.6,2526.7,782.8,2529.8z"/>
			
				<ellipse transform="matrix(0.9882 -0.1531 0.1531 0.9882 -372.8544 146.4585)" class="st170" cx="764.8" cy="2494.9" rx="26.1" ry="20.7"/>
			<path class="st171" d="M342.5,2494.9l-105.6,16.4c-11.1,1.7-18.8,12.2-17.1,23.3l2.8,18.3l-31.8,7.3c-9.4,2.1-18.6,5.1-27.5,8.7
				L153,2573c-6.9,2.8-13.1,7.2-18,12.9l0,0c-4.5,5.2-8.1,11.2-10.5,17.7l-0.1,0.4c-2.2,6-2.8,12.4-1.9,18.7l0.2,1.6
				c0.4,2.6,1.5,5.1,3.3,7.1c5.3,6.1,12.1,10.6,19.8,12.9h0c9.5,2.9,19.4,4,29.3,3.3l20.4-1.4l57.8-5.9l-0.9-0.3
				c1.4,0.1,2.8,0,4.3-0.2l105.6-16.4c11.1-1.7,18.8-12.2,17.1-23.3l-13.6-88.1C364,2500.8,353.6,2493.1,342.5,2494.9z
				 M212.9,2625.4c-3.2,0.4-6.4,0.8-9.7,1l-15.6,1.2c-11.2,0.9-22.4,0-33.3-2.7h0c-2.6-0.6-5-1.7-7.3-3l-2.2-1.3
				c-2.6-1.6-4.2-4.3-4.3-7.3c-0.1-1.1,0.1-2.3,0.5-3.4l0.8-2.2c1.6-4.6,4.3-8.7,8-11.9c5-4.4,10.7-7.8,16.9-10.1l11.9-4.5
				c4.1-1.5,8.3-2.8,12.6-3.7l34.3-7.6l8.1,52.6c0.5,3.2,0,0,0,0L212.9,2625.4z M241.6,2635.9L241.6,2635.9
				C241.6,2635.9,241.6,2635.9,241.6,2635.9L241.6,2635.9z"/>
			<path class="st172" d="M366.7,2513.9l-146.9,22.8l0,0c-1.9-12.3,6.5-23.8,18.8-25.7l104.1-16.1c11.4-1.8,22,6,23.8,17.4
				L366.7,2513.9z"/>
			<path class="st173" d="M275.7,2512.3l-28.3,4.4c-2.7,0.4-5.3-1.4-5.7-4.2l0,0c-0.4-2.7,1.4-5.3,4.2-5.7l28.3-4.4
				c2.7-0.4,5.3,1.4,5.7,4.2l0,0C280.3,2509.3,278.5,2511.8,275.7,2512.3z"/>
			<path class="st174" d="M446.4,2544.5c-5-32.4-27.9-55.8-51.4-53.2c-1.4-0.1-2.8,0.1-4.2,0.5l-15.8,4.7
				c-5.2,1.5-10.4,3.3-15.5,5.3l-13.6,5.3c-3.2,1.3-6.4,2.6-9.6,4l-9.1,4.1c-15.1,6.8-29.2,15.5-42.1,25.8l0,0
				c-12.2,9.8-23.2,21-32.7,33.4c-2.5,3.2-4.2,6.9-5,10.9l-0.1,0.7c-1.2,5.6-1.3,11.4-0.5,17.1l0,0.1c0.3,2.1,1.1,4.1,2.2,5.8
				c1.5,2.5,3.7,4.5,6.2,6.1c4.1,2.5,8.7,4.1,13.4,4.8l8.5,1.3c7.2,1.1,14.4,1.5,21.6,1.3l25.3-0.7c5.5-0.2,10.9-0.5,16.4-1.1
				l35.6-3.9l35.9-5.6c0.1,0,0.2,0,0.4,0c0.1,0,0.2,0,0.4-0.1l1.8-0.3c0.4-0.1,0.8-0.2,1.2-0.4
				C437.5,2604.6,451.2,2576,446.4,2544.5z"/>
			<path class="st175" d="M252.5,2613.3l-1.9-6.8c-0.6-2.1-1-4.2-1.1-6.4l-0.2-3.1c-0.2-4.4,0.5-8.8,2.3-12.9l0,0
				c0.6-1.3,1.3-2.5,2.2-3.6l7.3-9.3c2.1-2.7,4.5-5.2,7-7.4l15.1-13.5c2-1.8,4.1-3.5,6.3-5l18.4-13c3.9-2.8,8.1-5.3,12.4-7.4
				l20.3-10.2c1.6-0.8,3.2-1.5,4.8-2.2l15.5-6c2.4-0.9,10.6-4.1,10.6-4.1l9.9-3.3l7.9-2l5.1-1.1l6.2-0.7l7.1,0.2l4.8,0.7l5.6,1.1
				l-4.8-2.6l-4.6-1.8l-4.4-1.1l-4.4-0.5l-3.5,0l-3.9,0.2c0,0-3.2,0.8-5.7,1.5l-12,3.5l-7.6,2.4l-7.9,2.9l-13.6,5.3l-16.1,7
				c-1.7,0.7-3.4,1.6-5.1,2.4l-15.4,8.1c-1.8,0.9-3.5,1.9-5.1,3l-10.8,7.2c-1.2,0.8-2.3,1.6-3.5,2.5l-6.4,5c-1.2,1-2.4,2-3.6,3.1
				l-8.7,7.9c-1.5,1.3-2.9,2.8-4.2,4.2l-8.7,9.5c-0.9,1-1.7,2-2.5,3l-2,2.6c-2.6,3.4-4.5,7.3-5.6,11.4l-1,3.5l-0.6,4.3
				c-0.4,2.9-0.4,5.7,0.1,8.6l0.2,1.2c0.5,3.4,1.9,6.7,4,9.4L252.5,2613.3z"/>
			<path class="st176" d="M332.2,2560.5l-44.6,6.9c-1.1,0.2-2.1-0.6-2.2-1.6l-0.3-2c-0.2-1.1,0.6-2.1,1.6-2.2l44.6-6.9
				c1.1-0.2,2.1,0.6,2.2,1.6l0.3,2C334,2559.4,333.2,2560.3,332.2,2560.5z"/>
			<path class="st176" d="M333.7,2570.6l-44.6,6.9c-1.1,0.2-2.1-0.6-2.2-1.6l-0.3-2c-0.2-1.1,0.6-2.1,1.6-2.2l44.6-6.9
				c1.1-0.2,2.1,0.6,2.2,1.6l0.3,2C335.5,2569.4,334.8,2570.4,333.7,2570.6z"/>
			<path class="st176" d="M335.3,2580.7l-44.6,6.9c-1.1,0.2-2.1-0.6-2.2-1.6l-0.3-2c-0.2-1.1,0.6-2.1,1.6-2.2l44.6-6.9
				c1.1-0.2,2.1,0.6,2.2,1.6l0.3,2C337.1,2579.5,336.4,2580.5,335.3,2580.7z"/>
			<path class="st176" d="M336.9,2591l-44.6,6.9c-1.1,0.2-2.1-0.6-2.2-1.6l-0.3-2c-0.2-1.1,0.6-2.1,1.6-2.2l44.6-6.9
				c1.1-0.2,2.1,0.6,2.2,1.6l0.3,2C338.7,2589.8,338,2590.8,336.9,2591z"/>
			<path class="st176" d="M338.4,2600.8l-44.6,6.9c-1.1,0.2-2.1-0.6-2.2-1.6l-0.3-2c-0.2-1.1,0.6-2.1,1.6-2.2l44.6-6.9
				c1.1-0.2,2.1,0.6,2.2,1.6l0.3,2C340.2,2599.7,339.5,2600.7,338.4,2600.8z"/>
			<path class="st173" d="M301.7,2511.3l0.9,0.3c1.6,0.5,3.2,0.5,4.7-0.1l0.6-0.2c1-0.4,1.9-1.3,2.3-2.5l0.7-1.7
				c0.3-0.6,0.3-1.3,0.2-2l-2.6-16.7c-0.2-1.5-0.3-3-0.3-4.5l0.1-11.4c0-3.8,0.8-7.5,2.3-10.7l1.3-2.9c2-4.3,5-7.6,8.8-9.5l4.7-2.4
				c1.6-0.8,3.2-1.3,5-1.6l7.9-1.2c3-0.5,6.1-0.1,9,1.1l0,0c4.1,1.7,7.7,4.9,10.3,9.1l2.3,3.8c1.2,1.9,2.1,4,2.7,6.2l3.1,10
				c0.4,1.3,0.7,2.6,0.9,4l2.7,17.5c0.1,0.7,0.4,1.4,0.8,1.9l0,0c0.8,1.1,1.9,1.8,3.1,2.1l1.2,0.2c1,0.2,2,0.2,3,0l0.1,0
				c1.7-0.3,3.1-1.5,3.9-3.3l0,0c0.1-0.3,0.2-0.6,0.1-0.9l-0.5-3.2l-2.8-17.8c-0.5-3-1.2-5.9-2.3-8.7l-3.9-10.4
				c-1.4-3.7-3.2-7.1-5.5-10.1l-1.4-1.9c-4-5.3-9.1-9.3-14.7-11.5l-1-0.4c-4.4-1.7-9-2.2-13.5-1.5l-9,1.4c-2.8,0.4-5.6,1.4-8.2,2.7
				l-6.3,3.4c-4.5,2.4-8.4,6.1-11.3,10.8l0,0c-2.7,4.4-4.5,9.6-5.3,15.1l-0.7,5.2c-0.3,2.6-0.5,5.3-0.3,7.9l0.6,11.8
				c0.1,1.5,0.2,3,0.5,4.6l1.9,12.1c0.2,1.5,0.8,3,1.6,4.2l0,0C300.2,2510.4,300.9,2511,301.7,2511.3z"/>
		</g>
		<rect x="942.8" y="2360.7" class="st234" width="546.1" height="253.6"/>
		<text id="quantity-money-saw_x5F_buy" transform="matrix(1 0 0 1 1190.2112 2431.71)" class="st239 st240">0</text>
	</g>
	<g id="pick2_x5F_buy">
		<line class="st223" x1="904.1" y1="2764.1" x2="904.1" y2="3214.7"/>
		<line class="st223" x1="0" y1="3214.7" x2="1522.5" y2="3214.7"/>
		<rect x="1062.2" y="3088.2" class="st234" width="277.6" height="75"/>
		<text id="money_10_" transform="matrix(1 0 0 1 1062.1803 3131.1406)" class="st235 st236 st237">MONEY</text>
		<g id="buy-btn_x5F_pick2">
			<rect x="1522.5" y="2764.2" class="st238" width="145.5" height="450.5"/>
			<rect x="1576.5" y="2822" class="st234" width="72" height="483.7"/>
			<text id="sell_x5F_vertic_10_" transform="matrix(1 0 0 1 1576.5127 2864.9282)"><tspan x="0" y="0" class="st235 st236 st237"> </tspan><tspan x="0" y="72" class="st235 st236 st237">B</tspan><tspan x="0" y="144" class="st235 st236 st237">U</tspan><tspan x="0" y="216" class="st235 st236 st237">Y</tspan></text>
		</g>
		<g id="pick2_x5F_pick">
			<path class="st180" d="M146,3152.3c-4.6-3-3.9-9.9,1.2-11.9l371.6-146.4l115.1-51.2l66.5-26.5l10.1,0.4c2.8,0.1,5.5,0.8,7.9,2.1
				l4.5,2.4c3.5,1.9,5.7,5.6,5.5,9.6l0,0.1c-0.1,2.4-0.8,4.8-1.9,6.9l-1.1,2c-2.3,4.1-5.8,7.4-10,9.5l-23.9,11.8l-39.8,13.9l-32,7.9
				c-15.6,3.8-31,8.7-46.1,14.6l-408.3,158.8c-5.3,2-11.2,1.4-15.9-1.7L146,3152.3z"/>
			<path class="st181" d="M706.7,2931.4l17,33.4c3.4,6.6,6.2,13.6,8.4,20.8l10.3,34.2c2.8,9.1,4.6,18.6,5.4,28.1l3.4,40.2
				c0.7,7.9,0.8,15.9,0.3,23.8l-2.2,37.1c-0.1,1.8-2.5,2.1-2.9,0.3l-10.7-42.9c-1.7-6.9-3.6-13.7-5.8-20.4l-12.8-40
				c-4-12.5-8.7-24.6-14.2-36.4l-11.2-24.3l-19.5-38.9l-9.4-15.3c-14-22.8-31.1-43-50.8-60.1l-11.2-9.8c-2.2-1.9-2.1-5.7,0.3-7.4
				l21.4-15.9c4.8-3.5,10-6.2,15.6-7.8l28.7-8.5c2.6-0.8,5.2,1,5.8,3.8l4.5,21.3c4.3,20.4,10.6,40.2,18.8,59.1L706.7,2931.4z"/>
		</g>
		<rect x="942.8" y="2810.2" class="st234" width="546.1" height="253.6"/>
		<text id="quantity-money-pick2_x5F_buy" transform="matrix(1 0 0 1 1190.2112 2881.2446)" class="st239 st240">0</text>
	</g>
	<g id="pick3_x5F_buy">
		<line class="st223" x1="904.1" y1="3214.7" x2="904.1" y2="3665.2"/>
		<line class="st223" x1="0" y1="3665.2" x2="1509.4" y2="3665.2"/>
		<rect x="1062.2" y="3538.7" class="st234" width="277.6" height="75"/>
		<text id="money_9_" transform="matrix(1 0 0 1 1062.1803 3581.6753)" class="st235 st236 st237">MONEY</text>
		<g id="buy-btn_x5F_pick3">
			<rect x="1522.5" y="3214.7" class="st238" width="145.5" height="450.5"/>
			<rect x="1576.5" y="3269.7" class="st234" width="72" height="483.7"/>
			<text id="sell_x5F_vertic_9_" transform="matrix(1 0 0 1 1576.5127 3312.6619)"><tspan x="0" y="0" class="st235 st236 st237"> </tspan><tspan x="0" y="72" class="st235 st236 st237">B</tspan><tspan x="0" y="144" class="st235 st236 st237">U</tspan><tspan x="0" y="216" class="st235 st236 st237">Y</tspan></text>
		</g>
		<g id="pick3_x5F_pick">
			<path class="st177" d="M168,3636.9c-4.6-3-3.9-9.9,1.2-11.9l371.6-146.4l115.1-51.2l66.5-26.5l10.1,0.4c2.8,0.1,5.5,0.8,7.9,2.1
				l4.5,2.4c3.5,1.9,5.7,5.6,5.5,9.6l0,0.1c-0.1,2.4-0.8,4.8-1.9,6.9l-1.1,2c-2.3,4.1-5.8,7.4-10,9.5l-23.9,11.8l-39.8,13.9l-32,7.9
				c-15.6,3.8-31,8.7-46.1,14.6l-408.3,158.8c-5.3,2-11.2,1.4-15.9-1.7L168,3636.9z"/>
			<path class="st178" d="M761.5,3476.7l-5.1-13.9c-4-10.9-9-21.5-14.9-31.5l-6.6-11.1c-1.5-2.5-2.6-5.1-3.3-7.9l-1.2-4.6
				c-4.3-16.5-10.1-32.6-17.3-48l-3.4-7.2c-5.9-12.7-13.1-24.8-21.4-36.1l-9.1-12.4c-7.7-10.5-16.2-20.3-25.4-29.5l-10.6-10.6
				c-5.7-5.7-11.8-11.1-18.2-16l-6.8-5.2c-9.2-7.2-19.2-13.3-29.8-18.2l0,0c-1.8-0.9-3.5,1.5-2.1,2.9l14.6,14.9
				c7.9,8.1,15.1,16.9,21.5,26.2l10.3,15.2c6.6,9.7,12.6,19.7,17.9,30.1l8.2,16c5.6,10.9,10,22.3,13.2,34.1l5.6,20.8
				c2,7.6,3.7,15.2,5.1,22.9l4.9,27.6c0.3,1.5,0.9,2.9,1.8,4.1l12.2,16.4c5.9,7.9,11.3,16.1,16.2,24.6l5.3,9.2
				c8.8,15.1,16,31.1,21.4,47.8l1.6,5c4.6,14.2,8.3,28.6,11.1,43.2l2.7,13.8c2.1,10.8,3.2,21.7,3.3,32.7l0.4,27.3
				c0,0.9,1.2,1,1.5,0.2l0,0c5.3-14.6,8.9-29.8,10.8-45.3l0.2-1.4c1.1-8.9,1.6-17.9,1.6-26.8v-10.5c0-15.1-1.2-30.2-3.5-45.2
				l-1.7-10.8C770.3,3505.1,766.6,3490.6,761.5,3476.7z"/>
		</g>
		<rect x="942.8" y="3258" class="st234" width="546.1" height="253.6"/>
		<text id="quantity-money-pick3_x5F_buy" transform="matrix(1 0 0 1 1190.2112 3328.9783)" class="st239 st240">0</text>
	</g>
	<g id="perforator_x5F_buy">
		<line class="st223" x1="904.1" y1="3665.2" x2="904.1" y2="4115.7"/>
		<line class="st223" x1="0" y1="4115.7" x2="1509.4" y2="4115.7"/>
		<rect x="1062.2" y="3989.3" class="st234" width="277.6" height="75"/>
		<text id="money_8_" transform="matrix(1 0 0 1 1062.1803 4032.21)" class="st235 st236 st237">MONEY</text>
		<g id="buy-btn_x5F_perf">
			<rect x="1522.5" y="3665.2" class="st238" width="145.5" height="450.5"/>
			<rect x="1576.5" y="3720.2" class="st234" width="72" height="483.7"/>
			<text id="sell_x5F_vertic_8_" transform="matrix(1 0 0 1 1576.5127 3763.1965)"><tspan x="0" y="0" class="st235 st236 st237"> </tspan><tspan x="0" y="72" class="st235 st236 st237">B</tspan><tspan x="0" y="144" class="st235 st236 st237">U</tspan><tspan x="0" y="216" class="st235 st236 st237">Y</tspan></text>
		</g>
		<g id="perforator_x5F_pick">
			<path class="st204" d="M424.6,3791.9L155,3825.8c-0.9,0.1-1.9,0.4-2.7,0.8l-3.5,1.6c-0.9,0.4-1.8,1-2.6,1.7l-3.1,2.9
				c-0.9,0.8-1.5,1.8-2,2.8l-0.3,0.7c-0.8,1.6-1.1,3.4-0.8,5.2l0,0c0.2,1.7,0.9,3.2,1.9,4.6l0.7,0.9c0.8,1,1.8,1.9,2.9,2.5l2.7,1.5
				c0.3,0.2,0.6,0.3,0.8,0.5l2.7,1.9c1.2,0.9,2.2,2,2.9,3.4l0,0c0.8,1.7,1.1,3.6,0.7,5.4l-1.2,6.4l-5.7,13l-5.9,21.3l-2.8,26.6
				l0.7,81.5c0,1.4,0.4,2.8,1.2,3.9l0,0c1.5,2.3,3.8,3.9,6.4,4.5l1.6,0.4c1.3,0.3,2.7,0.4,4,0.2l25.4-3.2c1.6-0.2,3.2-0.9,4.4-2l0,0
				c1.2-1.1,2.1-2.4,2.6-3.9l1.9-5.1c0.4-1.1,0.6-2.2,0.6-3.4l-0.4-91c0-1.3,0.4-2.7,1-3.8h0c1.5-2.6,3.8-4.6,6.5-5.8l2.4-1.1
				l25.7-2.9c1.2-0.1,2.5-0.1,3.7,0l15.2,1.7l33.4,4.4l45.2,0.5c1.7,0,3.4-0.1,5.1-0.3l55.5-7.7c3.3-0.5,6.5-1.2,9.7-2.2l13-4.2
				c11.3-3.7,21.6-10.2,29.7-18.9l0.3-0.3c1.9-2,3.4-4.4,4.5-6.9l0.7-1.5c1.4-3.3,1.9-6.9,1.5-10.5l-6.6-52.2
				c-0.2-1.5-0.8-2.8-1.7-4l-0.8-1c-0.5-0.7-1.1-1.2-1.8-1.7l0,0C428.5,3792.1,426.5,3791.6,424.6,3791.9z"/>
			<path class="st205" d="M271.2,3903.5l21.4-95.1l132-16.6c2-0.2,3.9,0.2,5.6,1.3l0,0c0.7,0.5,1.3,1.1,1.8,1.7l0.8,1
				c0.9,1.2,1.5,2.5,1.7,4l6.8,54.2c0.3,2.2,0,4.5-0.9,6.6l-2,4.8c-0.7,1.6-1.7,3.1-2.9,4.4l-4.3,4.6c-6.2,6.7-14,11.6-22.6,14.4
				l-17.2,5.6c-3.1,1-6.3,1.8-9.6,2.2l-53.3,7.4c-3.2,0.4-6.4,0.6-9.6,0.6l-42.9-0.5L271.2,3903.5z"/>
			<polygon class="st206" points="146.1,3849.9 287.3,3832.1 288.8,3825.4 140.3,3844.1 143.7,3848.6 			"/>
			<path class="st205" d="M154,3868.6l-2.7,28.5c-0.3,3.4-0.4,6.9-0.3,10.4l0.7,19.7c0.3,7.3,1.7,14.5,4.2,21.4l1.9,5
				c1.5,4.1,4.2,7.8,7.7,10.5l4.9,3.8c2.3,1.8,4.8,3.1,7.5,4.1l10.3,3.8l0.1,26.7c0,1.3-0.2,2.6-0.7,3.9l-2,5.3
				c-0.5,1.2-1.2,2.3-2.1,3.1l-0.6,0.5c-1.1,1-2.4,1.6-3.8,1.8l-25.5,3.2c-1.5,0.2-3,0.1-4.5-0.3l-2.9-0.7c-1.6-0.4-3-1.4-3.9-2.8
				l-0.7-1.1c-0.9-1.3-1.4-2.9-1.4-4.5l-0.6-76.5c0-3.1,0.1-6.3,0.5-9.4l1.6-15.6c0.4-4.2,1.2-8.4,2.4-12.5l3.6-12.8
				c0.4-1.6,1-3.1,1.6-4.6L154,3868.6z"/>
			
				<ellipse transform="matrix(0.9922 -0.1249 0.1249 0.9922 -487.2453 52.3736)" class="st207" cx="174.1" cy="3912.1" rx="6.1" ry="6.1"/>
			<path class="st205" d="M189.2,3907.3l0.4-0.7c1.1-1.8,2.7-3.2,4.6-4.1l2.6-1.2c0.7-0.3,1.4-0.5,2.2-0.6l11.8-1.3l-6.1,1.9
				c-2.4,0.8-4.5,2.5-5.6,4.8l-0.6,1.3c-0.6,1.1-0.9,2.4-0.9,3.6l0,25.5c0,1.4-0.5,2.9-1.4,4l0,0c-0.7,0.8-1.6,1.3-2.7,1.5l-3.4,0.4
				c-1.2,0.1-2.2-0.8-2.2-2l-0.1-28.4C187.9,3910.4,188.4,3908.7,189.2,3907.3z"/>
			<path class="st209" d="M185.1,3882.3l17.4-2.2c1.4-0.2,2.5-1.5,2.3-2.9l-3-23.5c-0.2-1.4-1.5-2.5-2.9-2.3l-17.4,2.2
				c-1.4,0.2-2.5,1.5-2.3,2.9l3,23.5C182.3,3881.5,183.7,3882.5,185.1,3882.3z"/>
			<path class="st204" d="M185.9,3878.5l15-1.9c1.1-0.1,1.9-1.2,1.8-2.3l-0.4-3c-0.1-1.1-1.2-1.9-2.3-1.8l-15,1.9
				c-1.1,0.1-1.9,1.2-1.8,2.3l0.4,3C183.7,3877.8,184.7,3878.6,185.9,3878.5z"/>
			
				<ellipse transform="matrix(0.9922 -0.1249 0.1249 0.9922 -478.4634 77.1698)" class="st210" cx="376.2" cy="3854.5" rx="28" ry="28"/>
			<path class="st209" d="M373.2,3877.8l12.2-1.5c0.9-0.1,1.5-0.9,1.4-1.8l-5.3-42.3c-0.1-0.9-0.9-1.5-1.8-1.4l-12.2,1.5
				c-0.9,0.1-1.5,0.9-1.4,1.8l5.3,42.3C371.5,3877.3,372.3,3877.9,373.2,3877.8z"/>
			
				<rect x="437.7" y="3796.6" transform="matrix(-0.9922 0.1249 -0.1249 -0.9922 1367.9504 7564.1753)" class="st210" width="18.4" height="56.8"/>
			
				<rect x="456" y="3797.5" transform="matrix(-0.9922 0.1249 -0.1249 -0.9922 1396.5521 7559.3628)" class="st205" width="10.6" height="52"/>
			
				<rect x="466.5" y="3793.2" transform="matrix(-0.9922 0.1249 -0.1249 -0.9922 1433.3655 7552.3657)" class="st210" width="26.9" height="55.9"/>
			<polygon class="st209" points="496.8,3847.2 505.7,3836.2 501.2,3800.5 489.8,3791.7 			"/>
			<polygon class="st205" points="505.7,3836.2 537.2,3827.8 541.1,3823.5 538.6,3804 533.9,3801.7 501.2,3800.5 			"/>
			
				<rect x="539.8" y="3805.5" transform="matrix(0.9905 -0.1373 0.1373 0.9905 -518.0786 111.4687)" class="st211" width="18.8" height="13.8"/>
			<path class="st212" d="M869.3,3769.2l-24.7,12.9c-2.4,1.2-5,2.1-7.6,2.4l-254.4,35.3c-7.8,1.1-15.6,0.4-23-1.9l0,0l-1.9-13.7l0,0
				c6.7-4.2,14.3-7,22.2-8.1l254-35.2c2.7-0.4,5.4-0.3,8.1,0.3l27,5.7C870.1,3767.1,870.3,3768.6,869.3,3769.2z"/>
		</g>
		<rect x="942.8" y="3705.7" class="st234" width="546.1" height="253.6"/>
		<text id="quantity-money-perf_x5F_buy" transform="matrix(1 0 0 1 1190.2112 3776.7119)" class="st239 st240">0</text>
	</g>
</g>
</svg>
