<?xml version="1.0" encoding="utf-8"?>
<!-- Generator: Adobe Illustrator 21.1.0, SVG Export Plug-In . SVG Version: 6.00 Build 0)  -->
<svg version="1.1" id="game" xmlns="http://www.w3.org/2000/svg" xmlns:xlink="http://www.w3.org/1999/xlink" x="0px" y="0px"
	 viewBox="0 0 1668 2224" style="enable-background:new 0 0 1668 2224;" xml:space="preserve">
<style type="text/css">
	.st0{fill:#5C7552;}
	.st1{fill:#E2CA96;}
	.st2{fill:#6F8763;}
	.st3{fill:#EAD7A2;}
	.st4{fill:#F9F2EF;}
	.st5{fill:#382C26;}
	.st6{fill:#936F5F;}
	.st7{fill:#7C655C;}
	.st8{fill:#F9A182;}
	.st9{fill:#DBC697;}
	.st10{fill:#8C7857;}
	.st11{fill:#635872;}
	.st12{fill:#6B7F60;}
	.st13{fill:#755D3F;}
	.st14{fill:#C9B8A7;}
	.st15{fill:url(#gradient4_1_);}
	.st16{fill:url(#gradient5_1_);}
	.st17{fill:#66E2FF;}
	.st18{fill:none;stroke:#B28052;stroke-miterlimit:10;}
	.st19{fill:#96735C;}
	.st20{fill:#825D49;stroke:#BF8A5E;stroke-miterlimit:10;}
	.st21{fill:#AD7D5C;stroke:#B28052;stroke-miterlimit:10;}
	.st22{fill:#BC8864;stroke:#B28052;stroke-miterlimit:10;}
	.st23{fill:#A37B61;}
	.st24{fill:#BC8866;}
	.st25{fill:#E0A57E;stroke:#B28052;stroke-miterlimit:10;}
	.st26{fill:#D19A7C;stroke:#B28052;stroke-miterlimit:10;}
	.st27{fill:#F4DBCE;}
	.st28{fill:#DBC7BF;}
	.st29{fill:#8E684F;stroke:#BF8A5E;stroke-miterlimit:10;}
	.st30{fill:#AD753E;}
	.st31{fill:#966636;}
	.st32{fill:#A87339;}
	.st33{fill:#BC8651;}
	.st34{fill:#AA7A4F;}
	.st35{fill:#C99465;}
	.st36{fill:none;stroke:#634B2A;stroke-miterlimit:10;}
	.st37{fill:#B28052;}
	.st38{fill:#96674D;stroke:#A57758;stroke-width:3;stroke-miterlimit:10;}
	.st39{fill:none;stroke:#A57758;stroke-width:3;stroke-miterlimit:10;}
	.st40{fill:#00CFFF;}
	.st41{fill:#03CDE2;}
	.st42{fill:#00DBFF;}
	.st43{fill:#00E7FF;}
	.st44{fill:#00F3FF;}
	.st45{fill:#2EFFF9;}
	.st46{fill:#78FFF8;}
	.st47{fill:#FFF0BF;}
	.st48{fill:#F7E4A6;}
	.st49{fill:#BCCC60;}
	.st50{fill:url(#sea_1_);}
	.st51{fill:#D6C8A3;}
	.st52{fill:#D3C7A7;}
	.st53{fill:#DBCDAF;}
	.st54{fill:#98958C;}
	.st55{fill:#C2BEB5;}
	.st56{fill:#ACA7A1;}
	.st57{fill:#ADA8A2;}
	.st58{fill:#D3CAB2;}
	.st59{fill:#8D8880;}
	.st60{fill:#99968D;}
	.st61{fill:#C2BDB3;}
	.st62{fill:#DDCFAF;}
	.st63{fill:#CCBFA6;}
	.st64{fill:#9B988F;}
	.st65{fill:#8B877E;}
	.st66{fill:#B9B2AA;}
	.st67{fill:#C3BFB6;}
	.st68{fill:#CED18B;}
	.st69{fill:#C6BBA5;}
	.st70{fill:#CEC2AA;}
	.st71{fill:#CCC1AA;}
	.st72{fill:#C4BFB3;}
	.st73{fill:#99968B;}
	.st74{fill:#969089;}
	.st75{fill:#939189;}
	.st76{fill:#B7B5AB;}
	.st77{fill:#C9BDA6;}
	.st78{fill:#C6BBA7;}
	.st79{fill:#BAB3A6;}
	.st80{fill:#9E9C95;}
	.st81{fill:#CCC0A8;}
	.st82{fill:#A5A299;}
	.st83{fill:#C4BCA9;}
	.st84{fill:#B5AD9E;}
	.st85{fill:#9A978E;}
	.st86{fill:#8D877F;}
	.st87{fill:#B8B1AA;}
	.st88{fill:#C3BFB4;}
	.st89{fill:#C5BEB6;}
	.st90{fill:#B5B3AC;}
	.st91{fill:#D5D1C6;}
	.st92{fill:#BCB4B1;}
	.st93{fill:#999793;}
	.st94{fill:#8E8E87;}
	.st95{fill:#A3A19D;}
	.st96{fill:#B5B4B1;}
	.st97{fill:#A8A7A7;}
	.st98{fill:#A09D97;}
	.st99{fill:#D3CFC3;}
	.st100{fill:#ADAAA6;}
	.st101{fill:#B2B1AF;}
	.st102{fill:#9B978F;}
	.st103{fill:#AAA7A0;}
	.st104{fill:#CCC8C4;}
	.st105{fill:#D3D0CD;}
	.st106{fill:#C9C3BD;}
	.st107{fill:#B2AFA8;}
	.st108{fill:#999692;}
	.st109{fill:#898683;}
	.st110{fill:#A3A29B;}
	.st111{fill:#B2AEAA;}
	.st112{fill:#D6D0C9;}
	.st113{fill:#918D87;}
	.st114{fill:#DBD5C6;}
	.st115{fill:#B7B3AE;}
	.st116{fill:#C4C1BB;}
	.st117{fill:#9B9891;}
	.st118{fill:#D8D5CB;}
	.st119{fill:#939089;}
	.st120{fill:#A8A6A0;}
	.st121{fill:#D8D5D0;}
	.st122{fill:#A8A49B;}
	.st123{fill:#96928A;}
	.st124{fill:#CEC8C2;}
	.st125{fill:#C4996C;}
	.st126{fill:#B7845A;}
	.st127{fill:#D5A776;}
	.st128{fill:#477F16;}
	.st129{fill:#436818;}
	.st130{fill:#AA7B43;}
	.st131{fill:#B79056;}
	.st132{fill:#AD9655;}
	.st133{fill:#DD9D68;}
	.st134{fill:#C18B59;stroke:#A87848;stroke-miterlimit:10;}
	.st135{fill:#B28056;}
	.st136{fill:#AD7D59;}
	.st137{fill:#AA7D5C;}
	.st138{fill:#DDCBBF;}
	.st139{fill:#DBDAD9;}
	.st140{fill:#D8A380;}
	.st141{fill:#CE987A;}
	.st142{fill:#CC9D85;}
	.st143{fill:#C6977F;}
	.st144{fill:#C19784;}
	.st145{fill:#C69B8B;}
	.st146{fill:#B7958B;}
	.st147{fill:#AF8958;}
	.st148{fill:#967A60;}
	.st149{fill:#C9D1D3;}
	.st150{fill:#635C55;}
	.st151{fill:#65868F;}
	.st152{fill:#6CC1A0;}
	.st153{fill:#EFCE8E;}
	.st154{fill:#60523B;}
	.st155{fill:#EFC58E;}
	.st156{fill:#6D5D41;}
	.st157{fill:#E8C192;}
	.st158{fill:#EFCA7F;}
	.st159{fill:#FFFFFF;}
	.st160{fill:#E5C57C;}
	.st161{fill:#59585E;}
	.st162{fill:#6FC9A9;}
	.st163{fill:#686770;}
	.st164{fill:#86D1B1;}
	.st165{fill:#2D2924;}
	.st166{fill:none;stroke:#2D2924;stroke-width:18;stroke-miterlimit:10;}
	.st167{fill:none;stroke:#2D2924;stroke-width:18;stroke-miterlimit:10;stroke-dasharray:8.8394,8.8394;}
	.st168{fill:none;stroke:#2D2924;stroke-width:18;stroke-miterlimit:10;stroke-dasharray:9.9611,9.9611;}
	.st169{fill:#C0D3D7;}
	.st170{fill:#98A9B1;}
	.st171{fill:#E26B47;}
	.st172{fill:#FF8243;}
	.st173{fill:#47413F;}
	.st174{fill:#EF8424;}
	.st175{fill:#FDA83D;}
	.st176{fill:#994E22;}
	.st177{fill:#965F29;}
	.st178{fill:#7F7F7F;}
	.st179{fill:#D6D5D4;}
	.st180{fill:#C98235;}
	.st181{fill:#999999;}
	.st182{fill:#E2E1E0;}
	.st183{fill:#D98D31;}
	.st184{fill:#B5B5B5;}
	.st185{fill:#7F6752;}
	.st186{fill:#777770;}
	.st187{fill:#F29575;}
	.st188{fill:#3F3831;}
	.st189{fill:url(#gradient_1_);}
	.st190{fill:#997933;}
	.st191{fill:#937334;}
	.st192{fill:#A9DB52;}
	.st193{fill:#96C639;}
	.st194{fill:#82B71C;}
	.st195{fill:#B6E55C;}
	.st196{fill:#90C125;}
	.st197{fill:#A9D146;}
	.st198{fill:#8E7036;}
	.st199{fill:#846939;}
	.st200{fill:#78A038;stroke:#81AD2B;stroke-width:3;stroke-miterlimit:10;}
	.st201{fill:#658E30;}
	.st202{fill:#85AA44;}
	.st203{fill:#7EAF31;}
	.st204{fill:#018287;}
	.st205{fill:#161616;}
	.st206{fill:#00686B;}
	.st207{fill:#161616;stroke:#373737;stroke-miterlimit:10;}
	.st208{fill:none;stroke:#D98D31;stroke-miterlimit:10;}
	.st209{fill:#242424;}
	.st210{fill:#373737;}
	.st211{fill:#A3A3A3;}
	.st212{fill:#ACACAE;}
	.st213{fill:url(#gradient2_1_);}
	.st214{fill:url(#gradient3_1_);}
	.st215{fill:#B67D56;}
	.st216{fill:#83492A;}
	.st217{fill:#9C6038;}
	.st218{fill:#683920;}
	.st219{fill:#563119;}
	.st220{fill:#CC9E75;}
	.st221{fill:#633A23;}
	.st222{fill:#FFF980;stroke:#FFF980;stroke-miterlimit:10;}
	.st223{fill:#EDFF85;stroke:#EDFF85;stroke-miterlimit:10;}
	.st224{fill:none;stroke:#000000;stroke-miterlimit:10;}
	.st225{fill:#F9F6CD;}
	.st226{fill:none;}
	.st227{font-family:'ArialMT';}
	.st228{font-size:60px;}
	.st229{letter-spacing:12;}
	.st230{fill:#A59D58;}
	.st231{fill:#CCA962;}
	.st232{fill:none;stroke:#EFCF97;stroke-miterlimit:10;}
	.st233{fill:#EFCF97;}
	.st234{fill:#846431;}
	.st235{fill:#FFF980;stroke:#000000;stroke-miterlimit:10;}
	.st236{fill:#75634C;}
	.st237{fill:#7A6A59;}
	.st238{fill:#EDFF85;stroke:#000000;stroke-miterlimit:10;}
	.st239{fill:none;stroke:#2D2924;stroke-width:18;stroke-miterlimit:10;stroke-dasharray:9.9129,9.9129;}
</style>
<g id="menu_x5F_sell_1_">
	<rect x="4.7" y="511.4" class="st225" width="1663.3" height="901.1"/>
	<g id="wood_x5F_sell_2_">
		<line class="st224" x1="341.9" y1="511.5" x2="341.9" y2="962"/>
		<line class="st224" x1="908.9" y1="511.5" x2="908.9" y2="962"/>
		<line class="st224" x1="4.7" y1="962" x2="1522.5" y2="962"/>
		<rect x="50.5" y="835.5" class="st226" width="298.5" height="75"/>
		<text id="wood_5_" transform="matrix(1 0 0 1 50.5463 878.4674)" class="st227 st228 st229">WOOD</text>
		<rect x="1060.9" y="835.5" class="st226" width="277.6" height="75"/>
		<text id="money_5_" transform="matrix(1 0 0 1 1060.9243 878.4674)" class="st227 st228 st229">MONEY</text>
		<path id="wood_x5F_minus_2_" class="st230" d="M558.4,892.7H393.9c-8.8,0-16-7.2-16-16V840c0-8.8,7.2-16,16-16h164.5
			c8.8,0,16,7.2,16,16v36.6C574.4,885.5,567.2,892.7,558.4,892.7z"/>
		<path id="wood_x5F_plus_2_" class="st230" d="M863.2,824h-53.7v-47.3c0-8.8-6.3-16-14.2-16h-32.4c-7.8,0-14.2,7.2-14.2,16V824
			h-53.7c-7.8,0-14.2,7.2-14.2,16v36.6c0,8.8,6.3,16,14.2,16h53.7V940c0,8.8,6.3,16,14.2,16h32.4c7.8,0,14.2-7.2,14.2-16v-47.3h53.7
			c7.8,0,14.2-7.2,14.2-16V840C877.4,831.2,871,824,863.2,824z"/>
		<g id="wood_x5F_pick_2_">
			<ellipse class="st231" cx="100.6" cy="698.6" rx="65.6" ry="62"/>
			<ellipse class="st232" cx="100.6" cy="698.6" rx="58.2" ry="55.1"/>
			<ellipse class="st232" cx="100.6" cy="698.6" rx="50.1" ry="47.3"/>
			<ellipse class="st232" cx="100.6" cy="698.6" rx="42.3" ry="40"/>
			<ellipse class="st232" cx="100.6" cy="698.6" rx="34.7" ry="32.8"/>
			<ellipse class="st232" cx="100.6" cy="698.6" rx="26.7" ry="25.3"/>
			<ellipse class="st232" cx="100.6" cy="698.6" rx="20" ry="18.9"/>
			<ellipse class="st233" cx="100.6" cy="698.6" rx="11.1" ry="10.5"/>
			<polygon class="st234" points="86.7,638.6 270.9,576.5 282.4,579.3 292.6,585.9 301.4,596.4 304,610.8 304,625.2 300.1,636.6 
				141.2,747.4 152,737.2 160.5,724.1 165.5,707.7 166.2,698.6 164.6,685 159.3,670.9 151.8,659.8 143.8,652 133.7,645.1 
				122.7,640.2 110.2,637.3 100.6,636.6 			"/>
		</g>
		<g id="sell_x5F_btn_x5F_wood_2_">
			<rect x="1522.5" y="511.5" class="st235" width="145.5" height="450.5"/>
			<rect x="1576.5" y="548.3" class="st226" width="72" height="483.7"/>
			<text id="sell_x5F_vertic_5_" transform="matrix(1 0 0 1 1576.5137 591.2564)"><tspan x="0" y="0" class="st227 st228 st229"> </tspan><tspan x="0" y="72" class="st227 st228 st229">S</tspan><tspan x="0" y="144" class="st227 st228 st229">E</tspan><tspan x="0" y="216" class="st227 st228 st229">L</tspan><tspan x="0" y="288" class="st227 st228 st229">L</tspan></text>
		</g>
	</g>
	<g id="stone_x5F_sell_2_">
		<line class="st224" x1="341.9" y1="962" x2="341.9" y2="1412.5"/>
		<line class="st224" x1="908.9" y1="962" x2="908.9" y2="1412.5"/>
		<line class="st224" x1="4.7" y1="1412.5" x2="1522.5" y2="1412.5"/>
		<rect x="42.4" y="1286" class="st226" width="298.5" height="75"/>
		<text id="wood_4_" transform="matrix(1 0 0 1 42.3661 1329.0021)" class="st227 st228 st229">STONE</text>
		<rect x="1060.9" y="1286" class="st226" width="277.6" height="75"/>
		<text id="money_4_" transform="matrix(1 0 0 1 1060.9243 1329.0021)" class="st227 st228 st229">MONEY</text>
		<path id="stone_x5F_minus_x5F_sell" class="st230" d="M558.4,1343.2H393.9c-8.8,0-16-7.2-16-16v-36.6c0-8.8,7.2-16,16-16h164.5
			c8.8,0,16,7.2,16,16v36.6C574.4,1336,567.2,1343.2,558.4,1343.2z"/>
		<path id="stone_x5F_plus" class="st230" d="M863.2,1274.5h-53.7v-47.3c0-8.8-6.3-16-14.2-16h-32.4c-7.8,0-14.2,7.2-14.2,16v47.3
			h-53.7c-7.8,0-14.2,7.2-14.2,16v36.6c0,8.8,6.3,16,14.2,16h53.7v47.3c0,8.8,6.3,16,14.2,16h32.4c7.8,0,14.2-7.2,14.2-16v-47.3
			h53.7c7.8,0,14.2-7.2,14.2-16v-36.6C877.4,1281.7,871,1274.5,863.2,1274.5z"/>
		<g id="sell_x5F_btn_1_">
			<rect x="1522.5" y="962" class="st235" width="145.5" height="450.5"/>
			<rect x="1576.5" y="998.8" class="st226" width="72" height="483.7"/>
			<text id="sell_x5F_vertic_4_" transform="matrix(1 0 0 1 1576.5137 1041.7911)"><tspan x="0" y="0" class="st227 st228 st229"> </tspan><tspan x="0" y="72" class="st227 st228 st229">S</tspan><tspan x="0" y="144" class="st227 st228 st229">E</tspan><tspan x="0" y="216" class="st227 st228 st229">L</tspan><tspan x="0" y="288" class="st227 st228 st229">L</tspan></text>
		</g>
		<g id="stone_x5F_pick_2_">
			<path class="st236" d="M60.9,1185.7l16.1,9c13.7,7.6,28.3,12.6,43.3,14.7l1.3,0.2c13.8,2,27.7,2.1,41.6,0.4l13.5-1.7
				c20.6-2.5,40.7-8.5,59.8-17.9l32.5-15.9c2.2-1.1,3.1-4.1,2.1-6.6l-21-53.3c-7.8-19.6-19.1-36.9-33.2-50.6l-1.8-1.7
				c-15.5-15-33.9-25-53.6-28.9l-12.3-2.4c-11.1-2.2-22.4,2.2-30.3,11.8l-16.1,19.7l-22.5,30.7c-7.1,9.6-11.7,21.4-13.5,34
				l-7.6,54.7C59.1,1183.6,59.8,1185.1,60.9,1185.7z"/>
			<path class="st237" d="M133.9,1067l-27.1,33c-3.2,3.9-5.4,8.6-6.2,13.6l-7.7,45.5c-0.6,3.4,1.4,6.7,4.6,7.9l30.1,10.5
				c2.2,0.8,4.7-0.6,5.1-2.9l13.1-67.6l13-40l-7-3.8c-3.7-2-8.3-1.9-11.9,0.2L133.9,1067z"/>
		</g>
	</g>
</g>
</svg>
