<?xml version="1.0" encoding="utf-8"?>
<!-- Generator: Adobe Illustrator 21.1.0, SVG Export Plug-In . SVG Version: 6.00 Build 0)  -->
<svg version="1.1" id="game" xmlns="http://www.w3.org/2000/svg" xmlns:xlink="http://www.w3.org/1999/xlink" x="0px" y="0px"
	 viewBox="0 0 1668 2224" style="enable-background:new 0 0 1668 2224;" xml:space="preserve">
<style type="text/css">
	.st0{fill:url(#gradient4_1_);}
	.st1{fill:url(#gradient5_1_);}
	.st2{fill:#66E2FF;}
	.st3{fill:none;stroke:#B28052;stroke-miterlimit:10;}
	.st4{fill:#96735C;}
	.st5{fill:#825D49;stroke:#BF8A5E;stroke-miterlimit:10;}
	.st6{fill:#AD7D5C;stroke:#B28052;stroke-miterlimit:10;}
	.st7{fill:#BC8864;stroke:#B28052;stroke-miterlimit:10;}
	.st8{fill:#A37B61;}
	.st9{fill:#BC8866;}
	.st10{fill:#E0A57E;stroke:#B28052;stroke-miterlimit:10;}
	.st11{fill:#D19A7C;stroke:#B28052;stroke-miterlimit:10;}
	.st12{fill:#F4DBCE;}
	.st13{fill:#DBC7BF;}
	.st14{fill:#8E684F;stroke:#BF8A5E;stroke-miterlimit:10;}
	.st15{fill:#AD753E;}
	.st16{fill:#966636;}
	.st17{fill:#A87339;}
	.st18{fill:#BC8651;}
	.st19{fill:#AA7A4F;}
	.st20{fill:#C99465;}
	.st21{fill:none;stroke:#634B2A;stroke-miterlimit:10;}
	.st22{fill:#B28052;}
	.st23{fill:#96674D;stroke:#A57758;stroke-width:3;stroke-miterlimit:10;}
	.st24{fill:none;stroke:#A57758;stroke-width:3;stroke-miterlimit:10;}
	.st25{fill:#5C7552;}
	.st26{fill:#E2CA96;}
	.st27{fill:#6F8763;}
	.st28{fill:#EAD7A2;}
	.st29{fill:#F9F2EF;}
	.st30{fill:#382C26;}
	.st31{fill:#936F5F;}
	.st32{fill:#7C655C;}
	.st33{fill:#F9A182;}
	.st34{fill:#DBC697;}
	.st35{fill:#8C7857;}
	.st36{fill:#635872;}
	.st37{fill:#6B7F60;}
	.st38{fill:#755D3F;}
	.st39{fill:#C9B8A7;}
	.st40{fill:#00CFFF;}
	.st41{fill:#03CDE2;}
	.st42{fill:#00DBFF;}
	.st43{fill:#00E7FF;}
	.st44{fill:#00F3FF;}
	.st45{fill:#2EFFF9;}
	.st46{fill:#78FFF8;}
	.st47{fill:#FFF0BF;}
	.st48{fill:#F7E4A6;}
	.st49{fill:#BCCC60;}
	.st50{fill:url(#sea_1_);}
	.st51{fill:#98958C;}
	.st52{fill:#ACA7A1;}
	.st53{fill:#C2BEB5;}
	.st54{fill:#D6C8A3;}
	.st55{fill:#D3C7A7;}
	.st56{fill:#DBCDAF;}
	.st57{fill:#ADA8A2;}
	.st58{fill:#99968D;}
	.st59{fill:#C2BDB3;}
	.st60{fill:#8D8880;}
	.st61{fill:#D3CAB2;}
	.st62{fill:#8B877E;}
	.st63{fill:#9B988F;}
	.st64{fill:#B9B2AA;}
	.st65{fill:#C3BFB6;}
	.st66{fill:#DDCFAF;}
	.st67{fill:#CCBFA6;}
	.st68{fill:#CED18B;}
	.st69{fill:#99968B;}
	.st70{fill:#969089;}
	.st71{fill:#C4BFB3;}
	.st72{fill:#939189;}
	.st73{fill:#B7B5AB;}
	.st74{fill:#C6BBA5;}
	.st75{fill:#CEC2AA;}
	.st76{fill:#CCC1AA;}
	.st77{fill:#9E9C95;}
	.st78{fill:#C9BDA6;}
	.st79{fill:#C6BBA7;}
	.st80{fill:#BAB3A6;}
	.st81{fill:#A5A299;}
	.st82{fill:#CCC0A8;}
	.st83{fill:#C3BFB4;}
	.st84{fill:#9A978E;}
	.st85{fill:#B8B1AA;}
	.st86{fill:#8D877F;}
	.st87{fill:#C4BCA9;}
	.st88{fill:#B5AD9E;}
	.st89{fill:#C5BEB6;}
	.st90{fill:#B5B3AC;}
	.st91{fill:#D5D1C6;}
	.st92{fill:#BCB4B1;}
	.st93{fill:#999793;}
	.st94{fill:#8E8E87;}
	.st95{fill:#A3A19D;}
	.st96{fill:#B5B4B1;}
	.st97{fill:#A8A7A7;}
	.st98{fill:#A09D97;}
	.st99{fill:#D3CFC3;}
	.st100{fill:#ADAAA6;}
	.st101{fill:#B2B1AF;}
	.st102{fill:#9B978F;}
	.st103{fill:#AAA7A0;}
	.st104{fill:#CCC8C4;}
	.st105{fill:#D3D0CD;}
	.st106{fill:#C9C3BD;}
	.st107{fill:#B2AFA8;}
	.st108{fill:#999692;}
	.st109{fill:#898683;}
	.st110{fill:#A3A29B;}
	.st111{fill:#B2AEAA;}
	.st112{fill:#D6D0C9;}
	.st113{fill:#918D87;}
	.st114{fill:#DBD5C6;}
	.st115{fill:#B7B3AE;}
	.st116{fill:#C4C1BB;}
	.st117{fill:#9B9891;}
	.st118{fill:#D8D5CB;}
	.st119{fill:#939089;}
	.st120{fill:#A8A6A0;}
	.st121{fill:#D8D5D0;}
	.st122{fill:#A8A49B;}
	.st123{fill:#96928A;}
	.st124{fill:#CEC8C2;}
	.st125{fill:#C4996C;}
	.st126{fill:#B7845A;}
	.st127{fill:#D5A776;}
	.st128{fill:#477F16;}
	.st129{fill:#436818;}
	.st130{fill:#AA7B43;}
	.st131{fill:#B79056;}
	.st132{fill:#AD9655;}
	.st133{fill:#DD9D68;}
	.st134{fill:#C18B59;stroke:#A87848;stroke-miterlimit:10;}
	.st135{fill:#B28056;}
	.st136{fill:#AD7D59;}
	.st137{fill:#AA7D5C;}
	.st138{fill:#DDCBBF;}
	.st139{fill:#DBDAD9;}
	.st140{fill:#D8A380;}
	.st141{fill:#CE987A;}
	.st142{fill:#CC9D85;}
	.st143{fill:#C6977F;}
	.st144{fill:#C19784;}
	.st145{fill:#C69B8B;}
	.st146{fill:#B7958B;}
	.st147{fill:#AF8958;}
	.st148{fill:#967A60;}
	.st149{fill:#C9D1D3;}
	.st150{fill:#635C55;}
	.st151{fill:#65868F;}
	.st152{fill:#6CC1A0;}
	.st153{fill:#EFCE8E;}
	.st154{fill:#60523B;}
	.st155{fill:#EFC58E;}
	.st156{fill:#6D5D41;}
	.st157{fill:#E8C192;}
	.st158{fill:#EFCA7F;}
	.st159{fill:#FFFFFF;}
	.st160{fill:#E5C57C;}
	.st161{fill:#59585E;}
	.st162{fill:#6FC9A9;}
	.st163{fill:#686770;}
	.st164{fill:#7F6752;}
	.st165{fill:#777770;}
	.st166{fill:#F29575;}
	.st167{fill:#CE6E6E;}
	.st168{fill:#3F3831;}
	.st169{fill:#86D1B1;}
	.st170{fill:#2D2924;}
	.st171{fill:none;stroke:#2D2924;stroke-width:24;stroke-miterlimit:10;}
	.st172{fill:none;stroke:#2D2924;stroke-width:24;stroke-miterlimit:10;stroke-dasharray:10.0234,10.0234;}
	.st173{fill:#C0D3D7;}
	.st174{fill:#98A9B1;}
	.st175{fill:#D8372D;}
	.st176{fill:#414143;}
	.st177{fill:#EE5547;}
	.st178{fill:#A22921;}
	.st179{fill:#9C271F;}
	.st180{fill:#D2C4A9;}
	.st181{fill:#ABABAB;}
	.st182{fill:#4F4F4F;}
	.st183{fill:none;stroke:#2D2924;stroke-width:18;stroke-miterlimit:10;}
	.st184{fill:none;stroke:#2D2924;stroke-width:18;stroke-miterlimit:10;stroke-dasharray:8.8394,8.8394;}
	.st185{fill:none;stroke:#2D2924;stroke-width:18;stroke-miterlimit:10;stroke-dasharray:9.9611,9.9611;}
	.st186{fill:#E26B47;}
	.st187{fill:#FF8243;}
	.st188{fill:#47413F;}
	.st189{fill:#EF8424;}
	.st190{fill:#FDA83D;}
	.st191{fill:#994E22;}
	.st192{fill:#965F29;}
	.st193{fill:#7F7F7F;}
	.st194{fill:#D6D5D4;}
	.st195{fill:#C98235;}
	.st196{fill:#999999;}
	.st197{fill:#E2E1E0;}
	.st198{fill:#D98D31;}
	.st199{fill:#B5B5B5;}
	.st200{fill:url(#gradient_1_);}
	.st201{fill:#997933;}
	.st202{fill:#937334;}
	.st203{fill:#A9DB52;}
	.st204{fill:#96C639;}
	.st205{fill:#82B71C;}
	.st206{fill:#B6E55C;}
	.st207{fill:#90C125;}
	.st208{fill:#A9D146;}
	.st209{fill:#8E7036;}
	.st210{fill:#846939;}
	.st211{fill:#78A038;stroke:#81AD2B;stroke-width:3;stroke-miterlimit:10;}
	.st212{fill:#658E30;}
	.st213{fill:#85AA44;}
	.st214{fill:#7EAF31;}
	.st215{fill:#018287;}
	.st216{fill:#0F0F0F;}
	.st217{fill:#303030;}
	.st218{fill:#333333;}
	.st219{fill:#1A1A1A;}
	.st220{fill:#424242;}
	.st221{fill:#00666A;}
	.st222{fill:#212121;}
	.st223{fill:#111111;}
	.st224{fill:#A3A3A3;}
	.st225{fill:#ACACAE;}
	.st226{fill:#161616;}
	.st227{fill:#00686B;}
	.st228{fill:#161616;stroke:#373737;stroke-miterlimit:10;}
	.st229{fill:none;stroke:#D98D31;stroke-miterlimit:10;}
	.st230{fill:#242424;}
	.st231{fill:#373737;}
	.st232{fill:url(#gradient2_1_);}
	.st233{fill:url(#gradient3_1_);}
	.st234{fill:#B67D56;}
	.st235{fill:#83492A;}
	.st236{fill:#9C6038;}
	.st237{fill:#683920;}
	.st238{fill:#563119;}
	.st239{fill:#CC9E75;}
	.st240{fill:#633A23;}
	.st241{fill:#F9F6CD;stroke:#000000;stroke-miterlimit:10;}
	.st242{fill:none;stroke:#2D2924;stroke-width:24;stroke-miterlimit:10;stroke-dasharray:9.8069,9.8069;}
	.st243{fill:none;stroke:#2D2924;stroke-width:18;stroke-miterlimit:10;stroke-dasharray:11.8613,11.8613;}
	.st244{fill:none;stroke:#2D2924;stroke-width:18;stroke-miterlimit:10;stroke-dasharray:10.2463,10.2463;}
	.st245{fill:#C4ED6B;stroke:#000000;stroke-miterlimit:10;}
	.st246{fill:#EAAB6C;stroke:#EAAB6C;stroke-miterlimit:10;}
	.st247{fill:none;stroke:#FFC088;stroke-miterlimit:10;}
	.st248{fill:#FFC088;stroke:#FFC088;stroke-miterlimit:10;}
	.st249{fill:#996531;}
	.st250{fill:#776947;}
	.st251{fill:#7F735C;}
	.st252{fill:#E1EA6C;stroke:#000000;stroke-miterlimit:10;}
	.st253{fill:#D6A3A3;}
	.st254{fill:#55B7BC;}
</style>
<g id="bag">
	<g id="perf2-pick_x5F_bag">
		<rect x="1318.7" y="630" class="st241" width="323.4" height="308"/>
		<g id="perf2-pick">
			<path class="st215" d="M1352.1,871c0.8,2.5,1.8,4.8,2.9,7.1l2.9,5.9c0.7,1.5,1.5,2.9,2.4,4.3l2.7,4.4c2.1,3.4,4.5,6.5,7.1,9.2
				l0.8,0.8c2.5,2.5,5.5,4.1,8.6,4.5c2.4,0.4,4.9,0.1,7.2-0.9l3.3-1.3c1.1-0.5,2.3-1.1,3.3-1.8l22.9-16.4l3.1-0.6l2.2,0.9l12,16.8
				c0.2,0.2,0.4,0.5,0.6,0.7c1.1,1,2.5,1,3.6,0.2l38.1-27.4c0.5-0.3,0.6-1.1,0.3-1.7l0,0c0.1-0.4,0.2-0.9,0.2-1.3l0-0.1
				c0-1-0.2-1.9-0.6-2.7l-28.4-57.8l1.8-16l3.1-2.3c1.1-0.8,1.5-2.5,0.8-3.9l-14-27.9c-0.7-1.3-2.1-1.8-3.2-0.9l-92.8,71.1
				c-0.5,0.4-0.9,0.8-1.2,1.3l-1,1.5c-0.2,0.3-0.4,0.7-0.6,1.1l-0.9,2c-0.4,0.9-0.6,2-0.6,3.1l0,0.1c0,1.2,0.3,2.3,0.8,3.3
				c0.5,1,1.2,1.8,2,2.3l4,2.7l2,2.1l1.3,2.6l0.1,0.8c0.5,4.3,1.4,8.6,2.8,12.6L1352.1,871z M1368.3,863.7l-2.1-5.5
				c-0.2-0.5-0.3-1-0.5-1.5l-1.1-4.4c-0.2-0.8-0.3-1.7-0.3-2.6l-0.1-2c0-0.7,0-1.3,0.1-1.9l0.1-1.2c0.1-1.2,0.5-2.3,0.9-3.4l0,0
				c0.6-1.3,1.4-2.5,2.3-3.4l1.5-1.4c0.3-0.3,0.6-0.6,1-0.8l8.9-6.4l5.9,0.8c0.9,0.1,1.7,0.7,2.1,1.7l0.1,0.3
				c0.3,0.6,0.4,1.2,0.4,1.9l-0.1,2.2c-0.1,2.6,0.4,5.3,1.6,7.5l14.8,30.1l-15.2,10.9c-0.2,0.2-0.5,0.3-0.8,0.4l-2.6,1.1
				c-1.1,0.4-2.2,0.4-3.2-0.2c-0.4-0.2-0.7-0.5-1.1-0.8l-2-2.1c-0.2-0.2-0.4-0.5-0.6-0.7l-4.4-6.7L1368.3,863.7z"/>
			<path class="st216" d="M1368.2,861.9l-2.1,0.9c-1.1,0.5-2.3,0.5-3.4,0l-0.4-0.2c-1-0.4-1.9-1.1-2.5-2.1l-3-4.5
				c-0.9-1.4-2.1-2.6-3.4-3.4l-1.8-1.2c-1.2-0.8-2.1-1.9-2.8-3.2l-0.9-1.7c-0.5-1.1-0.9-2.3-1-3.5l-1-11.1l-2.8,2.1
				c-0.5,0.4-0.9,0.8-1.2,1.3l-1,1.5c-0.2,0.3-0.4,0.7-0.6,1.1l-0.9,2c-0.4,0.9-0.6,2-0.6,3.1l0,0.1c0,1.2,0.3,2.3,0.8,3.3l0,0
				c0.5,1,1.2,1.8,2,2.3l3.4,2.3c0.4,0.3,0.8,0.6,1.1,1l0.6,0.7c0.6,0.6,1.1,1.3,1.4,2.1l0.5,0.9c0.2,0.3,0.3,0.7,0.3,1.1l0,0
				c0.5,4.5,1.5,8.8,2.9,13l0.4,1.1c0.8,2.5,1.9,5,3,7.3l2.8,5.7c0.8,1.5,1.6,3,2.4,4.4l5.3,8.6c0.3,0.4,0.8,0.5,1.2,0.2L1380,884
				l-1.2-1.3l-4.4-6.7c-0.2-0.2-0.3-0.5-0.4-0.8l-4.9-10c-0.5-1-1.3-3.1-1.3-3.1L1368.2,861.9z"/>
			<path class="st216" d="M1410,891.1l-5.5-11.2c-0.2-0.5,0-1.1,0.4-1.2l16.1-3.5c3.9-0.8,7.6-2.5,11-4.9l32.1-22.5l11.6,23.6
				c0.4,0.8,0.6,1.8,0.6,2.7l0,0.1c0,0.4-0.1,0.9-0.2,1.3l0,0c-0.3,1.1-0.9,2.1-1.8,2.7l-36.7,26.3c-0.7,0.5-1.5,0.7-2.2,0.5l0,0
				c-0.8-0.2-1.5-0.6-2-1.3l-11.2-15.6c-0.5-0.8-1.3-1.3-2-1.6l0,0c-0.7-0.3-1.4-0.3-2.1-0.2l-1.2,0.2c-0.6,0.1-1.1,0.3-1.6,0.7
				L1410,891.1z"/>
			<path class="st217" d="M1462.1,864l1.7-1.2c0.6-0.5,1.5-0.2,1.8,0.6l7,14.3c0.4,0.8,0.2,1.8-0.5,2.2l-1.7,1.2
				c-0.6,0.5-1.5,0.2-1.8-0.6l-7-14.3C1461.2,865.5,1461.4,864.5,1462.1,864z"/>
			<path class="st217" d="M1455.7,868.6l2-1.4c0.6-0.4,1.3-0.2,1.6,0.5l7.2,14.7c0.3,0.7,0.1,1.5-0.4,1.9l-2,1.4
				c-0.6,0.4-1.3,0.2-1.6-0.5l-7.2-14.7C1454.9,869.9,1455.1,869,1455.7,868.6z"/>
			<path class="st217" d="M1449.7,872.9l1.7-1.2c0.6-0.5,1.5-0.2,1.8,0.6l7,14.3c0.4,0.8,0.2,1.8-0.5,2.2l-1.7,1.2
				c-0.6,0.5-1.5,0.2-1.8-0.6l-7-14.3C1448.8,874.3,1449.1,873.3,1449.7,872.9z"/>
			<path class="st217" d="M1443.6,877.3l1.9-1.3c0.6-0.4,1.4-0.2,1.7,0.5l7.1,14.5c0.3,0.7,0.2,1.6-0.4,2.1l-1.9,1.3
				c-0.6,0.4-1.4,0.2-1.7-0.5l-7.1-14.5C1442.8,878.6,1443,877.7,1443.6,877.3z"/>
			<path class="st217" d="M1437.4,881.7l2.2-1.6c0.5-0.4,1.1-0.2,1.4,0.4l7.4,15c0.3,0.6,0.1,1.4-0.4,1.7l-2.2,1.6
				c-0.5,0.4-1.1,0.2-1.4-0.4l-7.4-15C1436.7,882.8,1436.9,882.1,1437.4,881.7z"/>
			<path class="st217" d="M1431.5,886l2.1-1.5c0.5-0.4,1.2-0.2,1.6,0.5l7.2,14.8c0.3,0.7,0.1,1.5-0.4,1.9l-2.1,1.5
				c-0.5,0.4-1.2,0.2-1.6-0.5l-7.2-14.8C1430.7,887.2,1430.9,886.4,1431.5,886z"/>
			<path class="st218" d="M1395.6,856.6l53.9-38.7l-2.1-4.2l1.8-16l3.4-2.4c1-0.7,1.3-2.3,0.7-3.5l-14.3-28.4
				c-0.6-1.2-1.9-1.6-2.9-0.8l-64.8,49.6l7.8,16.9l6.1,0.9c0.7,0.1,1.4,0.6,1.8,1.4l0.3,0.7c0.2,0.5,0.4,1,0.3,1.6l-0.1,2.9
				c-0.1,2.3,0.4,4.6,1.4,6.6L1395.6,856.6z"/>
			<polygon class="st219" points="1465.5,783.3 1453.4,792 1438.7,763 1451.1,754.1 			"/>
			<path class="st220" d="M1467.3,783l4.6-3.3c1.9-1.4,2.5-4.4,1.4-6.7l-11-22.5c-1.1-2.3-3.6-3.1-5.5-1.7l-4.6,3.3
				c-0.8,0.6-1.1,1.8-0.6,2.8l13.4,27.4C1465.4,783.2,1466.4,783.6,1467.3,783z"/>
			<polygon class="st219" points="1488.3,761.3 1472.9,772.3 1462.5,751 1477.9,740 			"/>
			<path class="st215" d="M1501.1,754.7l-9.9,7.1c-1.1,0.8-2.5,0.3-3.1-1l-10.2-20.8c-0.6-1.3-0.3-3,0.8-3.8l9.9-7.1L1501.1,754.7z"
				/>
			<path class="st219" d="M1501.7,750.6l-2,1.4l-9.3-19l2.2-1.6c2.4-1.7,5.4-0.8,6.8,2.1l4.1,8.4
				C1505,744.9,1504.2,748.8,1501.7,750.6z"/>
			<path class="st221" d="M1501.4,754.4l-0.3,0.2l-12.5-25.5l0.1-0.1c1.6-1.1,3.6-0.5,4.5,1.4l9.3,19
				C1503.3,751.2,1502.8,753.4,1501.4,754.4z"/>
			<path class="st222" d="M1435.4,788.4c3.8,7.4,1.9,17-4.2,21.6c-6.1,4.5-14.1,2.3-17.8-5.1s-1.9-17,4.2-21.6
				C1423.7,778.7,1431.7,781,1435.4,788.4z"/>
			<path class="st223" d="M1431.8,806l-3.9,2.9c-0.6,0.5-1.4,0.2-1.8-0.5l-9.8-19.2c-0.4-0.7-0.2-1.7,0.4-2.2l3.9-2.9
				c0.6-0.5,1.4-0.2,1.8,0.5l9.8,19.2C1432.6,804.6,1432.4,805.6,1431.8,806z"/>
			<path class="st221" d="M1481.4,740.2l6.9-5c0.6-0.4,0.7-1.3,0.4-2l0-0.1c-0.3-0.7-1.1-0.9-1.6-0.5l-6.9,5c-0.6,0.4-0.7,1.3-0.4,2
				l0,0.1C1480.1,740.4,1480.8,740.6,1481.4,740.2z"/>
			<path class="st221" d="M1483.4,744.3l6.9-5c0.6-0.4,0.7-1.3,0.4-2l0-0.1c-0.3-0.7-1.1-0.9-1.6-0.5l-6.9,5c-0.6,0.4-0.7,1.3-0.4,2
				l0,0.1C1482.1,744.4,1482.8,744.7,1483.4,744.3z"/>
			<path class="st221" d="M1485.3,748.4l6.9-5c0.6-0.4,0.7-1.3,0.4-2l0-0.1c-0.3-0.7-1.1-0.9-1.6-0.5l-6.9,5c-0.6,0.4-0.7,1.3-0.4,2
				l0,0.1C1484,748.5,1484.7,748.8,1485.3,748.4z"/>
			<path class="st221" d="M1487.3,752.4l6.9-5c0.6-0.4,0.7-1.3,0.4-2l0-0.1c-0.3-0.7-1.1-0.9-1.6-0.5l-6.9,5c-0.6,0.4-0.7,1.3-0.4,2
				l0,0.1C1486,752.6,1486.7,752.8,1487.3,752.4z"/>
			<path class="st221" d="M1489.4,756.4l6.9-5c0.6-0.4,0.7-1.3,0.4-2l0-0.1c-0.3-0.7-1.1-0.9-1.6-0.5l-6.9,5c-0.6,0.4-0.7,1.3-0.4,2
				l0,0.1C1488.1,756.6,1488.8,756.8,1489.4,756.4z"/>
			<path class="st221" d="M1491.3,760.4l6.9-5c0.6-0.4,0.7-1.3,0.4-2l0-0.1c-0.3-0.7-1.1-0.9-1.6-0.5l-6.9,5c-0.6,0.4-0.7,1.3-0.4,2
				l0,0.1C1490.1,760.6,1490.8,760.9,1491.3,760.4z"/>
			<polygon class="st224" points="1510.7,737.1 1503.7,742.2 1499.2,733.1 1506.2,728 			"/>
			<path class="st225" d="M1625.8,648.6l-6.7,13.2c-0.7,1.3-1.5,2.3-2.5,3l-95.8,69.4c-2.9,2.1-6.4,3.1-10,2.8l0,0l-4.5-9l0,0
				c1.6-4.1,4-7.3,7-9.5l95.7-69.2c1-0.7,2.2-1.2,3.4-1.2l12.7-0.9C1625.6,647.1,1626.1,648.1,1625.8,648.6z"/>
		</g>
	</g>
	<g id="perf-pick_x5F_bag">
		<rect x="995.3" y="630" class="st241" width="323.4" height="308"/>
		<g id="perforator-pick">
			<path class="st215" d="M1124.1,752.7l-98.8,68c-0.3,0.2-0.7,0.5-0.9,0.9l-1.1,1.4c-0.3,0.4-0.5,0.8-0.7,1.3l-0.7,2
				c-0.2,0.5-0.3,1.1-0.3,1.7l0,0.4c0,0.9,0.1,1.8,0.5,2.6l0,0c0.3,0.7,0.8,1.3,1.5,1.8l0.4,0.3c0.5,0.3,1,0.5,1.5,0.6l1.3,0.2
				c0.1,0,0.3,0,0.4,0.1l1.3,0.4c0.6,0.2,1.2,0.5,1.7,1l0,0c0.6,0.6,1,1.5,1.1,2.4l0.6,3.2l-0.1,7.2l1.1,11.1l3.2,13l13.3,38
				c0.2,0.7,0.6,1.2,1.1,1.6l0,0c0.9,0.8,2.1,1.1,3.2,0.9l0.7-0.1c0.6-0.1,1.1-0.3,1.6-0.7l9.3-6.4c0.6-0.4,1.1-1,1.4-1.8l0,0
				c0.3-0.7,0.4-1.5,0.4-2.3l-0.1-2.8c0-0.6-0.1-1.2-0.3-1.7l-14.7-42.5c-0.2-0.6-0.3-1.3-0.2-2l0,0c0.2-1.5,0.7-2.9,1.6-4l0.8-1
				l9.5-6.3c0.5-0.3,0.9-0.5,1.4-0.7l6.2-2.1l13.6-4.4l17.5-8.5c0.7-0.3,1.3-0.7,1.9-1.1l20.2-14.3c1.2-0.9,2.3-1.8,3.4-2.9l4.4-4.5
				c3.8-3.9,6.7-8.9,8.4-14.6l0.1-0.2c0.4-1.3,0.6-2.7,0.6-4.1l0-0.8c0-1.8-0.4-3.6-1.1-5.2l-10.9-23.1c-0.3-0.6-0.7-1.2-1.3-1.5
				l-0.4-0.3c-0.3-0.2-0.6-0.4-1-0.4l0,0C1125.6,752.1,1124.8,752.2,1124.1,752.7z"/>
			<path class="st226" d="M1082.6,834.6l-6.9-48.6l48.4-33.3c0.7-0.5,1.6-0.7,2.4-0.5l0,0c0.3,0.1,0.7,0.2,1,0.4l0.4,0.3
				c0.5,0.4,1,0.9,1.3,1.5l11.3,24c0.5,1,0.7,2.1,0.7,3.3l0,2.6c0,0.9-0.1,1.8-0.4,2.6l-0.9,3c-1.3,4.3-3.5,8.1-6.4,11.1l-5.8,5.9
				c-1,1.1-2.2,2-3.4,2.9l-19.4,13.8c-1.2,0.8-2.4,1.5-3.6,2.1l-16.7,8.1L1082.6,834.6z"/>
			<polygon class="st227" points="1025.6,833.7 1077.4,798.1 1076.9,794.7 1022.5,832.1 1024.5,833.6 			"/>
			<path class="st226" d="M1031.7,840.9l3.5,13.8c0.4,1.7,0.9,3.3,1.5,4.9l3.4,9.1c1.3,3.4,3,6.5,5.1,9.2l1.5,2
				c1.3,1.6,2.9,2.8,4.6,3.4l2.5,0.8c1.2,0.4,2.4,0.5,3.5,0.5l4.6-0.2l4.3,12.4c0.2,0.6,0.3,1.3,0.4,1.9l0.1,2.9
				c0,0.7-0.1,1.3-0.3,1.9l-0.1,0.4c-0.3,0.7-0.7,1.2-1.2,1.6l-9.3,6.4c-0.5,0.4-1.1,0.6-1.8,0.7l-1.2,0.2c-0.7,0.1-1.4-0.1-2-0.5
				l-0.5-0.4c-0.6-0.5-1-1.1-1.3-1.8l-12.5-35.6c-0.5-1.5-1-3-1.3-4.5l-1.9-7.6c-0.5-2.1-0.9-4.2-1.1-6.3l-0.7-6.7
				c-0.1-0.8-0.1-1.6-0.1-2.5L1031.7,840.9z"/>
			<path class="st228" d="M1044.2,858.9c0.7,1.5,2.3,2,3.5,1.2c1.2-0.8,1.7-2.7,1-4.2c-0.7-1.5-2.3-2-3.5-1.2
				C1043.9,855.6,1043.5,857.5,1044.2,858.9z"/>
			<path class="st226" d="M1051.5,852.2l0.1-0.4c0.1-1,0.5-2,1.1-2.8l0.8-1.1c0.2-0.3,0.5-0.5,0.7-0.7l4.4-2.9l-2,2.1
				c-0.8,0.8-1.3,2-1.4,3.3l0,0.7c0,0.6,0,1.3,0.3,1.9l4.1,11.9c0.2,0.7,0.3,1.4,0.1,2.1l0,0c-0.1,0.5-0.4,0.9-0.8,1.2l-1.2,0.8
				c-0.4,0.3-1,0.1-1.2-0.5l-4.6-13.3C1051.5,853.9,1051.4,853.1,1051.5,852.2z"/>
			<path class="st230" d="M1046.9,840.7l4.5-3.1c1-0.7,1.4-2.3,0.8-3.6l-3.8-8.1c-0.6-1.3-1.9-1.7-3-1l-4.5,3.1
				c-1,0.7-1.4,2.3-0.8,3.6l3.8,8.1C1044.5,841,1045.8,841.4,1046.9,840.7z"/>
			<path class="st215" d="M1046.2,839l4.4-3c0.7-0.5,1-1.6,0.6-2.5l0,0c-0.4-0.9-1.3-1.2-2-0.7l-4.4,3c-0.7,0.5-1,1.6-0.6,2.5l0,0
				C1044.5,839.2,1045.4,839.5,1046.2,839z"/>
			<path class="st231" d="M1105.2,798.4c3.2,6.8,10.3,9.2,16,5.3s7.6-12.5,4.4-19.3s-10.3-9.2-16-5.3
				C1104,782.9,1102,791.6,1105.2,798.4z"/>
			<path class="st230" d="M1118.5,802.5l3.4-2.3c0.6-0.4,0.8-1.4,0.5-2.2l-8.2-17.4c-0.4-0.8-1.2-1-1.8-0.6l-3.4,2.3
				c-0.6,0.4-0.8,1.4-0.5,2.2l8.2,17.4C1117.1,802.6,1117.9,802.9,1118.5,802.5z"/>
			<polygon class="st231" points="1135.5,749.1 1128.8,753.7 1140.5,778.7 1147.2,774.1 			"/>
			<polygon class="st226" points="1139.9,747.6 1136,750.3 1146.8,773.2 1150.7,770.5 			"/>
			<polygon class="st231" points="1149.3,740.1 1139.5,746.8 1151.1,771.4 1160.9,764.6 			"/>
			<polygon class="st230" points="1160.9,764.6 1162.5,757.8 1155.1,742 1149.3,740.1 			"/>
			<polygon class="st226" points="1162.5,757.8 1173.4,747.7 1174.2,745 1170.1,736.4 1167.9,736.2 1155.1,742 			"/>
			<polygon class="st224" points="1180.4,738.8 1173.6,743.6 1170.7,737.6 1177.5,732.8 			"/>
			<path class="st225" d="M1292.4,656.2L1285,667c-0.7,1-1.6,1.9-2.6,2.6l-92.8,65.7c-2.8,2-6,3.2-9.2,3.6l0,0l-2.9-6l0,0
				c1.9-3.3,4.4-6,7.3-8.1l92.6-65.6c1-0.7,2.1-1.2,3.2-1.4l11.4-2.6C1292.4,655,1292.7,655.7,1292.4,656.2z"/>
		</g>
	</g>
	<g id="pick3-pick_x5F_bag">
		<rect x="671.9" y="630" class="st241" width="323.4" height="308"/>
		<g id="pick3-pick">
			<path class="st192" d="M708.9,905.8c-2.1-1.1-2.3-4.6-0.4-6.1l143.6-107l44-36.1l25.7-19.3l4.2-0.7c1.2-0.2,2.3-0.1,3.5,0.4
				l2.1,0.8c1.6,0.6,2.8,2.3,3,4.3l0,0c0.1,1.2,0,2.5-0.3,3.6l-0.3,1.1c-0.6,2.3-1.8,4.2-3.4,5.7l-9.1,8.1l-15.5,10.6l-12.7,6.8
				c-6.2,3.3-12.3,7.2-18.1,11.5L717.2,906c-2,1.5-4.5,1.7-6.7,0.6L708.9,905.8z"/>
			<path class="st193" d="M943.7,771.9l-3.1-6.5c-2.5-5.1-5.3-10-8.6-14.5l-3.6-5c-0.8-1.1-1.4-2.3-1.9-3.7l-0.8-2.2
				c-3-7.9-6.6-15.5-10.8-22.6l-1.9-3.3c-3.4-5.8-7.3-11.3-11.6-16.2l-4.7-5.4c-4-4.6-8.2-8.8-12.8-12.5l-5.2-4.3
				c-2.8-2.3-5.7-4.5-8.8-6.4l-3.2-2c-4.4-2.8-9-4.9-13.7-6.5l0,0c-0.8-0.3-1.3,1.1-0.6,1.7l7.2,6.2c3.9,3.4,7.5,7.1,10.9,11.2
				l5.4,6.7c3.5,4.3,6.7,8.8,9.7,13.5l4.6,7.3c3.1,5,5.8,10.3,8,16l3.9,9.9c1.4,3.6,2.7,7.3,3.8,11.1l4.1,13.4
				c0.2,0.7,0.6,1.4,1.1,1.9l6.3,7.1c3,3.4,5.9,7.1,8.6,10.9l2.9,4.1c4.8,6.8,9,14.2,12.4,22.1l1.1,2.4c3,6.7,5.6,13.6,7.8,20.7
				l2.1,6.7c1.7,5.2,2.9,10.6,3.8,16.1l2.2,13.7c0.1,0.4,0.6,0.4,0.6,0l0,0c1.1-7.8,1.5-15.8,1.1-23.7l0-0.7
				c-0.2-4.6-0.6-9.1-1.3-13.6l-0.8-5.3c-1.1-7.6-2.7-15.1-4.8-22.4l-1.5-5.3C949.4,785.3,946.8,778.4,943.7,771.9z"/>
		</g>
	</g>
	<g id="pick2-pick_x5F_bag">
		<rect x="348.5" y="630" class="st241" width="323.4" height="308"/>
		<g id="pick2-pick">
			<path class="st195" d="M388.5,907.2c-2.3-0.8-2.9-4.5-1-6.3l139.9-131.7l42.6-43.8l25-23.8l4.3-1.3c1.2-0.4,2.4-0.4,3.6-0.1
				l2.2,0.6c1.7,0.4,3.1,2,3.5,4.1l0,0c0.3,1.3,0.3,2.6,0,3.8l-0.2,1.2c-0.5,2.5-1.5,4.7-3.1,6.4l-8.7,9.7l-15.2,13.2l-12.6,8.9
				c-6.2,4.4-12.1,9.2-17.8,14.5L397.2,906.3c-2,1.9-4.6,2.4-7,1.6L388.5,907.2z"/>
			<path class="st196" d="M599.6,708.4l11.4,14.6c2.3,2.9,4.3,6.1,6.2,9.5l8.7,16c2.3,4.3,4.3,8.9,5.8,13.7l6.5,20.2
				c1.3,4,2.3,8.1,3.1,12.2L645,814c0.2,1-0.8,1.5-1.2,0.6l-9.9-20.5c-1.6-3.3-3.3-6.5-5-9.6l-10.5-18.7
				c-3.3-5.8-6.8-11.3-10.6-16.6l-7.8-10.8l-13.2-17.1l-5.9-6.5c-8.8-9.6-18.7-17.4-29.2-23.2l-6-3.3c-1.2-0.7-1.6-2.6-0.8-3.8
				l7.1-11.4c1.6-2.5,3.5-4.7,5.6-6.4l11.2-8.7c1-0.8,2.4-0.3,3,1.1l4.6,10.3c4.4,9.8,9.5,19.1,15.4,27.6L599.6,708.4z"/>
		</g>
	</g>
	<g id="pick-pick_x5F_bag">
		<rect x="25.1" y="630" class="st241" width="323.4" height="308"/>
		<g id="pick-pick">
			<path class="st198" d="M54.6,914.9c-2.8-0.4-4-3.7-2.1-5.8l139.7-149.5l42-49l24.9-26.9l6.7-2.9l8.1,0.4l2.1,4.8l-0.4,6.7
				l-10.7,13.6l-15.4,15.2l-13.1,10.7c-6.4,5.2-12.4,10.9-18.1,16.9L64.4,912.4c-2,2.1-4.9,3.1-7.7,2.7L54.6,914.9z"/>
			<path class="st199" d="M223.6,685.8l13.6-18.2c0.8-1.1,2.4-1.1,3.5-0.1l26.4,23.9c7.2,6.5,13.7,13.8,19.4,21.9l35.2,49.8
				c0.9,1.2-0.2,2.7-1.4,1.9l-50.5-32.9c-6.8-4.4-13.2-9.6-19.1-15.5L224.1,690C223,688.9,222.7,687,223.6,685.8z"/>
		</g>
	</g>
	<g id="saw2-pick_x5F_bag_1_">
		<rect x="1318.7" y="322" class="st241" width="323.4" height="308"/>
		<g id="saw2-pick">
			<g>
				<path class="st170" d="M1443.1,464.1L1579.9,355c9.9-7.9,24.2-3.1,31.8,10.9l0.1,0.3c7.6,14,5.7,31.7-4.3,39.7l-136.8,109.1"/>
				<g>
					<line class="st171" x1="1443.1" y1="464.1" x2="1447" y2="461"/>
					<path class="st242" d="M1454.7,454.9l125.3-99.9c9.9-7.9,24.2-3.1,31.8,10.9l0.1,0.3c7.6,14,5.7,31.7-4.3,39.7l-129,102.9"/>
					<line class="st171" x1="1474.7" y1="511.7" x2="1470.8" y2="514.8"/>
				</g>
			</g>
			<path class="st173" d="M1449.8,464.6l132.1-105.3c8.1-6.5,19.7-2.5,25.9,8.8l0.7,1.3c6.2,11.3,4.6,25.8-3.5,32.2l-132.1,105.3"/>
			<path class="st174" d="M1599.6,375.6c3.5,6.5,2,15.2-3.4,19.6s-12.7,2.6-16.2-3.9c-3.5-6.5-2-15.2,3.4-19.6
				S1596.1,369.2,1599.6,375.6z"/>
			<path class="st175" d="M1439.3,446L1439.3,446c-2.9-1.6-6.2-2.2-9.4-1.6l0,0c-1.1,0.2-2.2,0.6-3.3,1.2l-7.7,4.1l-8.4,1.9
				c-0.7,0.2-1.4,0.4-2,0.6l-2.9,1.1c-3.2,1.2-6.3,3-9.2,5.2l-3,2.4c-1.9,1.5-3.6,3.2-5.2,5.1l-2.9,3.6c-2.6,3.2-4.7,6.9-6.3,10.9
				l-5,12.8c-1.3,3.3-1.7,6.9-1.4,10.5l2.7,25.2l-24.3,28.2c-3.4,3.9-6.1,8.6-8.1,13.7l-0.2,0.4c-1.3,3.5-2,7.3-1.8,11.2v0
				c0.1,3.4,1,6.8,2.6,9.6l4.2,7.6c1.8,3.3,4.5,5.7,7.7,6.8l0,0c2.2,0.8,4.5,0.6,6.6-0.5l0.3-0.2c3.7-1.9,7.3-4.2,10.7-6.9
				l25.4-20.2l33.7-26.7l2.4-10.3c0.3-1.5,1.1-2.7,2.1-3.6l36.2-29.6c0.6-0.5,0.9-1.3,1-2.1l0,0c0-0.7-0.1-1.4-0.5-2l-27.8-51.2
				c-0.5-0.9-1-1.7-1.6-2.4l-2.2-2.8C1441.1,447.3,1440.2,446.5,1439.3,446z M1367.5,590.8l-5.4,3.5c-0.8,0.5-1.7,0.8-2.6,0.7l0,0
				c-1.7-0.1-3.2-1.1-4-2.8l-2.7-5.3c-0.7-1.3-1.2-2.8-1.5-4.4l0,0c-0.5-2.6-0.3-5.4,0.6-7.9l0.4-1.2c0.9-2.6,2.3-4.9,3.9-6.9
				l22.6-26.3c0.6-0.7,1.5-0.5,1.9,0.3l12.8,27.5c0.3,0.7,0.2,1.6-0.4,2.1l-25.2,20.4C1367.8,590.7,1367.6,590.8,1367.5,590.8z"/>
			<path class="st176" d="M1432.3,552.2l12.3-9.8c1.4-1.1,2.1-3.1,1.8-5.1l-0.9-6l-10.1,8L1432.3,552.2z"/>
			<path class="st176" d="M1474.1,505.6l2.9,8.1c0.5,1.4,0.1,3-0.9,3.8l-5.1,4.1c-1.5,1.2-3.5,1.5-5.2,0.6l-6-2.9l12.5-10
				C1473.4,508.5,1474,507.1,1474.1,505.6L1474.1,505.6z"/>
			<path class="st177" d="M1372.9,504.3l6.7-5.3c1.5-1.2,2.9-2.7,4-4.3l0.5-0.8c0.8-1.1,1.4-2.3,2-3.5l3.1-6.9
				c0.2-0.5,0.5-1,0.7-1.4l2.5-4.3c0.9-1.6,2.1-3.1,3.5-4.2l2.6-2.1c1.4-1.1,2.9-1.8,4.5-2.3l0,0c1.4-0.4,2.9-0.4,4.3-0.2l0.6,0.1
				c1.9,0.3,3.7,1.1,5.3,2.3l2.3,1.8l1.8,1.3c0.8,0.6,1.6,1,2.5,1.2l0.7,0.2c1.2,0.3,2.5,0.1,3.6-0.8l23.3-18.5l-1.8-3.4
				c-0.4-0.8-0.9-1.5-1.5-2.2l-1.9-2.3c-1.1-1.3-2.3-2.4-3.7-3.2l-0.5-0.3c-2.2-1.2-4.6-1.6-7-1.2l-1.3,0.2
				c-1.1,0.2-2.2,0.6-3.2,1.1l-5.4,2.9c-1.5,0.8-3.1,1.4-4.8,1.8l-4.5,1c-1.7,0.4-3.3,0.9-4.9,1.5l-0.5,0.2c-3.9,1.4-7.6,3.6-11,6.2
				l-1.1,0.9c-2.6,2.1-5,4.4-7.1,7.1l-0.8,1c-3.4,4.2-6.1,9-8.2,14.3l-5.2,13.3c-0.7,1.7-0.9,3.6-0.7,5.4L1372.9,504.3z"/>
			<path class="st178" d="M1395.9,503.7l-0.3,17.7c0,0.8,0.1,1.5,0.3,2.2l0.4,1.2c0.4,1.2,1.1,2.3,2,3l0,0c1.1,0.9,2.4,1.2,3.7,0.9
				l1.2-0.3c0.7-0.1,1.3-0.5,1.9-0.9l15.6-12.4c1.1-0.8,1.9-2.1,2.2-3.6l4.1-15.5c0.4-1.5,1.2-2.8,2.3-3.7l26.3-20.9l-6.8-12.5
				l-51,40.5C1396.7,500.5,1395.9,502.1,1395.9,503.7z"/>
			<path class="st179" d="M1462,483.6l-25.7,20.4c-1,0.8-1.6,2.3-1.5,3.8l0.9,12.9c0.1,1,1,1.6,1.7,1l27.9-22.2
				c0.6-0.4,1-1.1,1.3-1.8l0.3-0.9c0.2-0.5,0.3-1.1,0.3-1.7l0-0.5c0-0.8-0.2-1.7-0.6-2.4L1462,483.6z"/>
			<path class="st180" d="M1449,503.3c1.3,2.5,0.8,5.8-1.3,7.4s-4.8,0.9-6.1-1.5c-1.3-2.5-0.8-5.8,1.3-7.4S1447.6,500.8,1449,503.3z
				"/>
			<path class="st180" d="M1459.6,494.8c1.3,2.5,0.8,5.8-1.3,7.4s-4.8,0.9-6.1-1.5c-1.3-2.5-0.8-5.8,1.3-7.4
				S1458.3,492.4,1459.6,494.8z"/>
			<path class="st176" d="M1383.1,474.8c1.4,0.9,0.7,6-1.7,11.4c-2.3,5.4-5.4,9.1-6.8,8.2s-0.7-6,1.7-11.4
				C1378.7,477.6,1381.7,473.9,1383.1,474.8z"/>
			<polygon class="st181" points="1418.1,539.2 1413.7,539.7 1410.1,543.6 1400.6,510 1406.6,506 			"/>
			<path class="st182" d="M1411.2,525.1c0.9,0.9,1,2.5,0.2,3.5c-0.7,1-2,1.2-2.9,0.3c-0.9-0.9-1-2.5-0.2-3.5
				C1409,524.3,1410.3,524.2,1411.2,525.1z"/>
			<path class="st182" d="M1413.9,533c0.9,0.9,1,2.5,0.2,3.5c-0.7,1-2,1.2-2.9,0.3c-0.9-0.9-1-2.5-0.2-3.5
				C1411.7,532.2,1413,532.1,1413.9,533z"/>
			<path class="st182" d="M1400.6,510l-24.7-71.7c-0.8-2.3-1-4.8-0.6-7.2v0c0.3-2.1,1.1-4,2.2-5.7l2.5-3.7c0.9-1.3,2-2.4,3.2-3.2
				l3.2-2.1c1.6-1.1,3.5-1.6,5.3-1.5l0.5,0c1.7,0.1,3.3,0.6,4.8,1.6l1.2,0.8c1.5,1,2.7,2.4,3.6,4.1l2.4,4.5c0.3,0.5,0.5,1,0.7,1.6
				l8.9,23.2l-5.5,1.4l-8.2-21.7c-0.2-0.5-0.5-1-0.8-1.5l-2.1-3.2c-1.2-1.8-3-2.9-4.9-3l0,0c-1.3-0.1-2.6,0.4-3.8,1.2l-1.6,1.2
				c-0.8,0.6-1.5,1.4-2,2.4l-0.4,0.7c-0.8,1.5-1.2,3.2-1.1,5l0,0.5c0,0.8,0.2,1.7,0.4,2.4l22.6,69.8L1400.6,510z"/>
		</g>
	</g>
	<g id="saw-pick_x5F_bag">
		<rect x="995.3" y="322" class="st241" width="323.4" height="308"/>
		<g id="saw-pick">
			<g>
				<path class="st170" d="M1280.7,414.4l-140.2,99l-19.8-41l140.2-99.1c8.5-6,19.4-2.5,24.4,7.7l1.8,3.7
					C1292.1,395.1,1289.2,408.3,1280.7,414.4z"/>
				<g>
					<polyline class="st183" points="1144.6,510.5 1140.5,513.4 1138.3,508.9 					"/>
					<line class="st243" x1="1133.1" y1="498.2" x2="1125.4" y2="482.2"/>
					<polyline class="st183" points="1122.8,476.9 1120.6,472.4 1124.7,469.5 					"/>
					<path class="st244" d="M1133.1,463.6l127.8-90.3c8.5-6,19.4-2.5,24.4,7.7l1.8,3.7c5,10.3,2.1,23.6-6.4,29.6l-131.9,93.2"/>
				</g>
			</g>
			<path class="st173" d="M1277.9,411.6l-134.6,95.1l-16.6-34.3l134.6-95.1c7.1-5,16.2-2.1,20.4,6.5l1.5,3.1
				C1287.4,395.5,1285,406.6,1277.9,411.6z"/>
			<path class="st174" d="M1274,391.5c2.5,5.2,0.2,12.6-5.3,16.5c-5.5,3.9-11.9,2.7-14.5-2.5c-2.5-5.2-0.2-12.6,5.3-16.5
				C1265,385.2,1271.4,386.3,1274,391.5z"/>
			<path class="st186" d="M1091.5,480.6l-40.5,28.6c-4.3,3-5.7,9.7-3.2,14.8l4.1,8.5l-11.8,9.8c-3.5,2.9-6.8,6.1-9.8,9.6l-3.5,4.1
				c-2.4,2.7-4.2,6.1-5.3,9.9l0,0c-1,3.5-1.5,7.1-1.4,10.8l0,0.2c0.1,3.4,0.8,6.7,2.2,9.6l0.4,0.7c0.6,1.2,1.4,2.2,2.5,2.9
				c3.1,2,6.7,2.9,10.2,2.5l0,0c4.3-0.4,8.6-1.8,12.5-4.1l8.1-4.7l22.6-14.2l-0.4,0c0.6-0.2,1.2-0.5,1.7-0.9l40.5-28.6
				c4.3-3,5.7-9.7,3.2-14.8l-19.7-40.8C1101.3,479.4,1095.8,477.6,1091.5,480.6z M1059.6,570.3c-1.2,0.8-2.5,1.6-3.8,2.4l-6.2,3.6
				c-4.4,2.6-9.2,4.4-14,5.2l0,0c-1.2,0.2-2.3,0.2-3.5-0.1l-1.1-0.2c-1.3-0.3-2.4-1.3-2.9-2.8c-0.2-0.6-0.3-1.2-0.4-1.8l0-1.2
				c-0.1-2.6,0.4-5.1,1.3-7.4c1.3-3.1,3.1-5.9,5.3-8.3l4.1-4.5c1.4-1.6,2.9-3,4.5-4.3l12.8-10.4l11.8,24.4c0.7,1.5,0,0,0,0
				L1059.6,570.3z M1073,569.9L1073,569.9C1073,569.9,1073,569.9,1073,569.9L1073,569.9z"/>
			<path class="st187" d="M1104.5,485.3l-56.3,39.8l-0.5-0.9c-2.5-5.2-1.1-11.8,3.2-14.8l41.4-29.3c4-2.8,9-1.2,11.4,3.6
				L1104.5,485.3z"/>
			<path class="st188" d="M1067.3,502.1l-11.2,7.9c-1,0.7-2.2,0.3-2.7-0.9l-0.2-0.4c-0.6-1.1-0.2-2.6,0.7-3.3l11.2-7.9
				c1-0.7,2.2-0.3,2.7,0.9l0.2,0.4C1068.5,499.9,1068.2,501.4,1067.3,502.1z"/>
			<path class="st189" d="M1142,484.9c-7.3-15-20.3-22.1-29.6-16.3c-0.6,0.2-1.1,0.6-1.6,1.1l-5.7,5.4c-1.9,1.8-3.7,3.7-5.5,5.6
				l-4.7,5.3c-1.1,1.2-2.2,2.5-3.3,3.8l-3.1,3.8c-5.1,6.3-9.5,13.3-13.1,20.9l0,0c-3.4,7.2-6.1,14.9-8,22.9
				c-0.5,2.1-0.6,4.2-0.3,6.4l0,0.4c0.4,3,1.3,5.9,2.6,8.5l0,0.1c0.5,1,1.1,1.8,1.8,2.5c1,0.9,2.2,1.5,3.5,1.8
				c2.1,0.4,4.2,0.3,6.3-0.2l3.7-1c3.1-0.9,6.1-2,9-3.6l10.2-5.3c2.2-1.1,4.4-2.4,6.5-3.7l13.9-8.8l13.8-9.7c0,0,0.1-0.1,0.1-0.1
				s0.1-0.1,0.1-0.1l0.7-0.5c0.2-0.1,0.3-0.2,0.4-0.4C1148,516.3,1149,499.6,1142,484.9z"/>
			<path class="st190" d="M1073.9,556.6l-1.9-3c-0.6-0.9-1.1-1.9-1.5-2.9l-0.6-1.5c-0.8-2.1-1.2-4.5-1.1-6.8l0,0
				c0-0.8,0.1-1.5,0.3-2.2l1.5-6c0.4-1.7,1-3.4,1.7-5l4-9.6c0.5-1.3,1.1-2.5,1.8-3.7l5.4-10c1.2-2.1,2.5-4.2,3.9-6.1l6.6-9
				c0.5-0.7,1.1-1.4,1.6-2l5.4-6c0.8-0.9,3.7-4.1,3.7-4.1l3.5-3.5l2.9-2.5l1.9-1.5l2.4-1.6l2.9-1.3l2.1-0.6l2.4-0.5l-2.4-0.4l-2.2,0
				l-2,0.3l-1.9,0.6l-1.4,0.7l-1.6,0.9c0,0-1.2,1-2.1,1.9l-4.3,4.1l-2.7,2.7l-2.8,2.9l-4.7,5.3l-5.5,6.6c-0.6,0.7-1.1,1.4-1.7,2.2
				l-5,7c-0.6,0.8-1.1,1.6-1.6,2.5l-3.2,5.6c-0.4,0.6-0.7,1.3-1,1.9l-1.8,3.7c-0.3,0.7-0.7,1.5-1,2.2l-2.3,5.6
				c-0.4,0.9-0.7,1.9-1,2.9l-2,6.4c-0.2,0.6-0.4,1.3-0.5,2l-0.4,1.7c-0.5,2.2-0.6,4.5-0.5,6.7l0.2,1.9l0.5,2.3
				c0.3,1.5,0.8,2.9,1.4,4.2l0.3,0.6c0.8,1.6,1.9,2.9,3.2,3.9L1073.9,556.6z"/>
			<path class="st191" d="M1097.6,515.2l-16.5,11.7c-0.6,0.4-1.3,0.2-1.6-0.5l-0.1-0.2c-0.3-0.7-0.1-1.5,0.4-1.9l16.5-11.7
				c0.6-0.4,1.3-0.2,1.6,0.5l0.1,0.2C1098.4,514,1098.2,514.8,1097.6,515.2z"/>
			<path class="st191" d="M1099.9,519.9l-16.5,11.7c-0.6,0.4-1.3,0.2-1.6-0.5l-0.1-0.2c-0.3-0.7-0.1-1.5,0.4-1.9l16.5-11.7
				c0.6-0.4,1.3-0.2,1.6,0.5l0.1,0.2C1100.6,518.6,1100.4,519.5,1099.9,519.9z"/>
			<path class="st191" d="M1102.1,524.6l-16.5,11.7c-0.6,0.4-1.3,0.2-1.6-0.5l-0.1-0.2c-0.3-0.7-0.1-1.5,0.4-1.9l16.5-11.7
				c0.6-0.4,1.3-0.2,1.6,0.5l0.1,0.2C1102.9,523.3,1102.7,524.2,1102.1,524.6z"/>
			<path class="st191" d="M1104.5,529.4l-16.5,11.7c-0.6,0.4-1.3,0.2-1.6-0.5l-0.1-0.2c-0.3-0.7-0.1-1.5,0.4-1.9l16.5-11.7
				c0.6-0.4,1.3-0.2,1.6,0.5l0.1,0.2C1105.2,528.1,1105,529,1104.5,529.4z"/>
			<path class="st191" d="M1106.7,533.9l-16.5,11.7c-0.6,0.4-1.3,0.2-1.6-0.5l-0.1-0.2c-0.3-0.7-0.1-1.5,0.4-1.9l16.5-11.7
				c0.6-0.4,1.3-0.2,1.6,0.5l0.1,0.2C1107.4,532.7,1107.2,533.6,1106.7,533.9z"/>
			<path class="st188" d="M1077.5,496.7l0.4,0c0.7,0,1.4-0.4,1.9-1l0.2-0.2c0.4-0.4,0.6-1,0.6-1.7l0-1c0-0.4-0.1-0.7-0.2-1l-3.7-7.8
				c-0.3-0.7-0.6-1.4-0.9-2.2l-1.8-5.6c-0.6-1.9-0.9-3.8-0.8-5.7l0.1-1.7c0.1-2.5,0.8-4.7,2.1-6.4l1.5-2.1c0.5-0.7,1.1-1.3,1.8-1.8
				l3-2.1c1.2-0.8,2.5-1.2,3.9-1.2l0,0c1.9,0,3.9,0.9,5.7,2.5l1.6,1.4c0.8,0.7,1.5,1.6,2.1,2.5l2.9,4.3c0.4,0.6,0.7,1.2,1,1.8
				l3.9,8.1c0.2,0.3,0.4,0.6,0.6,0.8l0,0c0.5,0.4,1.1,0.5,1.6,0.4l0.5-0.1c0.4-0.1,0.8-0.3,1.2-0.6l0.1,0c0.6-0.5,1-1.3,1.1-2.4l0,0
				c0-0.2,0-0.3-0.1-0.5l-0.7-1.5l-4-8.3c-0.7-1.4-1.5-2.7-2.3-3.9l-3.3-4.4c-1.2-1.5-2.5-2.9-3.9-3.9l-0.9-0.7
				c-2.5-1.9-5.2-2.8-7.8-2.8l-0.5,0c-2.1,0-4,0.7-5.7,1.9l-3.5,2.5c-1.1,0.8-2.1,1.8-2.9,2.9l-2,2.9c-1.5,2.1-2.4,4.6-2.9,7.5v0
				c-0.4,2.7-0.3,5.6,0.3,8.5l0.5,2.7c0.3,1.4,0.7,2.7,1.1,4l2.1,5.7c0.3,0.7,0.6,1.5,0.9,2.2l2.7,5.6c0.3,0.7,0.8,1.3,1.3,1.8l0,0
				C1076.8,496.5,1077.2,496.7,1077.5,496.7z"/>
		</g>
	</g>
	<g id="ex2-pick_x5F_bag_1_">
		<rect x="671.9" y="322" class="st241" width="323.4" height="308"/>
		<g id="ex3-pick">
			<path class="st192" d="M703,603.2c-2-1-2.3-4.3-0.5-5.7L835,492l40.6-35.4l23.7-19l5.6-1.2l6,2.1l0.7,4.9l-1.6,6l-10.6,10.1
				l-14.4,10.5l-11.8,6.9c-5.8,3.4-11.4,7.2-16.7,11.4l-145.8,115c-1.9,1.5-4.2,1.8-6.3,0.8L703,603.2z"/>
			<path class="st193" d="M954.7,488.7c-8-2.4-15.6-6.4-22.4-12l-4.3-3.5c-3.7-3-7.1-6.4-10.3-10.1l-9.9-11.4l-4.8-7.4l-3.7-8.3
				l-4.6-15.6c-1.5-5-2.6-10.2-3.4-15.5l-0.9-6.2c-1.4-9.8-1.4-19.8,0.1-29.6l2.3-15.3l-9.7,0.8c-9,0.7-17.8,3.4-26,7.9l0,0
				c-5.9,3.2-11.4,7.3-16.3,12.3l-5.1,5.1c-5,4.9-9.4,10.6-13.2,16.9l-11.2,18.6l19.1,8.7c6.1,2.8,12,6.3,17.6,10.3l4.8,3.5
				c2.8,2.1,5.5,4.4,8,7l3.3,3.5c3.6,3.8,6.7,8.2,9.3,13c0.6,1.5,1.4,3,2.2,4.4c0.7,1.5,1.5,2.9,2.4,4.3c2.5,4.8,4.6,10.1,5.9,15.6
				l1.3,5c1,3.8,1.7,7.7,2,11.7l0.7,6.7c0.8,7.8,1,15.8,0.6,23.7l-1.3,24.6l18.7-4.7c6.3-1.6,12.4-4.2,18.2-7.7l5.9-3.6
				c5.8-3.5,11.1-7.9,16-13l0,0c6.8-7.2,12.4-15.8,16.7-25.4l4.6-10.4L954.7,488.7z"/>
			<path class="st194" d="M891.5,363.3l1.5-9.6l-9.7,0.8c-9,0.7-17.8,3.4-26,7.9l0,0c-5.9,3.2-11.4,7.3-16.3,12.3l-5.1,5.1
				c-5,4.9-9.4,10.6-13.2,16.9l-11.2,18.6l8.4,3.9l4.1-6.5c3-4.7,6.3-9.1,9.9-13l3.5-3.8c1.7-1.8,3.4-3.5,5.2-5.2l6.3-5.8
				c3.1-2.8,6.3-5.4,9.7-7.6l2.9-1.9c4.3-2.9,8.9-5.2,13.6-7.1l1.5-0.6c2.8-1.1,5.6-2,8.4-2.7L891.5,363.3z"/>
			<path class="st194" d="M887.9,545.2l-0.6,12l18.7-4.7c6.3-1.6,12.4-4.2,18.2-7.7l5.9-3.6c5.8-3.5,11.1-7.9,16-13l0,0
				c6.8-7.2,12.4-15.8,16.7-25.4l4.6-10.4l-8.9-2.7l-6.1,9c-0.9,1.3-1.9,2.5-2.9,3.7l-6.6,7.1c-1.4,1.5-2.8,3-4.3,4.4l-6.4,6
				c-3.2,3-6.6,5.7-10.2,8l-4.7,3.1c-1.9,1.3-3.9,2.4-5.9,3.5l-7.5,4c-2.4,1.3-4.8,2.4-7.3,3.4L887.9,545.2z"/>
		</g>
	</g>
	<g id="ex2-pick_x5F_bag">
		<rect x="348.5" y="322" class="st241" width="323.4" height="308"/>
		<g id="ex2-pick">
			<path class="st195" d="M378.8,592.1c-2.3-0.6-3.1-4.1-1.4-6L503.1,443l38-47.2l22.5-25.8l5.8-2.5l6.8,0.9l1.5,5.1l-0.7,6.8
				l-9.8,13.2L553.4,408l-11.6,10c-5.7,4.9-11.1,10.2-16.2,16L387.1,590.2c-1.8,2-4.3,2.9-6.7,2.3L378.8,592.1z"/>
			<path class="st196" d="M549,361.2l-3.2-0.8c-3.5-0.8-6.9-2.1-10.2-3.8l-8.9-4.6c-0.9-0.5-1.8,0.6-1.4,1.7l3.5,10.5
				c1.2,3.7,2.1,7.5,2.6,11.3l0.4,3.1c0.9,7,2.9,13.7,6,19.8v0c1.5,2.9,3.2,5.6,5.3,7.9l0,0c4.7,5.4,8.6,11.8,11.6,18.8l2.1,5.1
				c1.6,3.9,3,7.9,4,12l1.8,7.1c2.1,8.2,3.5,16.7,4.3,25.2l2.5,26.7l19.3-9.3c6.5-3.1,12.7-7.3,18.3-12.3l5.8-5.2
				c5.6-5,10.7-10.9,15.1-17.5v0c6.1-9.3,10.9-19.8,13.9-31l3.3-12.2l-14-1.2c-8.9-0.7-17.7-3.4-25.9-7.8l-5.2-2.8
				c-4.4-2.4-8.6-5.2-12.6-8.5l-12.4-10l-12.2-13.5l-1.3-1.4C557.8,364.8,553.6,362.3,549,361.2z"/>
			<path class="st197" d="M568.4,492l0.9,9.2l19.3-9.3c6.5-3.1,12.7-7.3,18.3-12.3l5.8-5.2c5.6-5,10.7-10.9,15.1-17.5v0
				c6.1-9.3,10.9-19.8,13.9-31l3.3-12.2l-6.7-0.6l-3.8,9.6c-1.2,3.1-2.6,6.2-4.2,9.1l-3.2,6c-1.8,3.4-3.8,6.7-6,9.8l-4.1,5.8
				c-3.4,4.8-7.2,9.1-11.3,12.8l-4.6,4.2c-2.7,2.4-5.5,4.6-8.4,6.6l-9.1,6.1c-1.5,1-3.1,2-4.6,2.9L568.4,492z"/>
		</g>
	</g>
	<g id="ex-pick_x5F_bag">
		<rect x="25.1" y="322" class="st241" width="323.4" height="308"/>
		<g id="ex-pick">
			<path class="st198" d="M44.6,597.1c-2.6-0.4-3.6-3.7-1.8-5.5l137.3-137.3l41.4-45.1l24.5-24.7l6.5-2.5l7.7,0.6l1.8,4.7l-0.6,6.3
				l-10.6,12.6L235.6,420l-12.7,9.7c-6.2,4.7-12.1,9.9-17.7,15.4L54,595.1c-2,1.9-4.7,2.8-7.4,2.4L44.6,597.1z"/>
			<path class="st199" d="M224.3,400.5l11.1-12.8c1.7-2,4.4-3,7.3-2.8h0c3.1,0.2,6.1,1.3,8.6,3.1l6.5,4.6c7,5,14.7,9.1,22.8,12.2
				l6.5,2.5c7,2.7,14.4,4.3,21.8,5l20.7,1.8c1.6,0.1,2.7,1.7,2,2.9l-7.1,14.7c-2.5,5.2-5.6,10.2-9.3,14.8v0
				c-4.4,5.5-9.5,10.4-15.2,14.8l-12.8,9.7c-0.8,0.6-2.1,0.3-2.6-0.6l-9-15.4c-5.3-9.1-11.9-17.5-19.5-25.2l-2.5-2.5
				c-2.8-2.8-5.8-5.3-9.2-7.5l-11.8-7.7c-3.4-2.3-6.4-5.1-8.5-8.4l0,0C223.4,402.7,223.5,401.4,224.3,400.5z"/>
		</g>
	</g>
</g>
</svg>
