<?xml version="1.0" encoding="utf-8"?>
<!-- Generator: Adobe Illustrator 21.1.0, SVG Export Plug-In . SVG Version: 6.00 Build 0)  -->
<svg version="1.1" id="game" xmlns="http://www.w3.org/2000/svg" xmlns:xlink="http://www.w3.org/1999/xlink" x="0px" y="0px"
	 viewBox="0 0 200 200" enable-background="new 0 0 200 200" xml:space="preserve">
<g id="outwater">
	<path fill="#49DBEA" d="M61.319,34.363L47.922,56.088c-2.656,4.307-5.438,8.534-8.345,12.676L26.582,87.285
		c-1.834,2.613-3.348,5.436-4.512,8.409l-6.507,16.617c-1.395,3.563-2.273,7.308-2.607,11.121l-0.933,10.659
		c-0.47,5.364,0.146,10.767,1.81,15.887l0,0c2.163,6.657,6.031,12.631,11.22,17.329l1.535,1.39
		c4.79,4.337,10.558,7.452,16.811,9.079l8.819,2.295c3.297,0.858,6.69,1.292,10.097,1.292h9.545c4.414,0,8.797-0.729,12.974-2.157
		l5.822-1.991c6.832-2.337,12.907-6.476,17.582-11.979l2.21-2.602c4.013-4.725,6.876-10.316,8.364-16.334l2.155-8.716
		c1.135-4.593,1.449-9.35,0.926-14.052l-1.563-14.048c-0.392-3.523-1.249-6.979-2.55-10.276l-5.723-14.512
		c-1.251-3.173-2.902-6.173-4.913-8.927L92.263,55.382l-14.87-21.948c-1.042-1.538-2.215-2.982-3.507-4.318l-0.586-0.606
		c-1.984-2.051-5.261-2.083-7.285-0.071l0,0C64.223,30.222,62.646,32.21,61.319,34.363z"/>
	<path fill="#49DBEA" d="M150.549,23.125l-7.705,14.462c-2.267,4.255-4.652,8.447-7.151,12.57l-7.09,11.696
		c-1.113,1.835-2.021,3.787-2.709,5.82L121.67,80.16c-0.789,2.331-1.282,4.752-1.467,7.206l-0.666,8.798
		c-0.259,3.422,0.083,6.863,1.011,10.168l0.24,0.855c1.3,4.631,3.717,8.873,7.037,12.353l0,0c3.513,3.682,7.922,6.389,12.794,7.857
		l2.914,0.878c2.751,0.829,5.609,1.25,8.482,1.25h3.335c3.706,0,7.379-0.7,10.824-2.065l0.95-0.376
		c5.145-2.037,9.611-5.484,12.885-9.945l0.871-1.186c2.461-3.353,4.182-7.19,5.051-11.257l1.55-7.256
		c0.628-2.941,0.801-5.961,0.514-8.955l-1.069-11.119c-0.218-2.272-0.7-4.511-1.437-6.672l-3.728-10.941
		c-0.741-2.176-1.735-4.257-2.961-6.202l-9.295-14.739l-9.474-16.186c-0.499-0.853-1.069-1.663-1.703-2.421l-0.279-0.334
		c-1.355-1.622-3.841-1.646-5.227-0.051v0C151.943,20.832,151.18,21.941,150.549,23.125z"/>
</g>
</svg>
