<?xml version="1.0" encoding="utf-8"?>
<!-- Generator: Adobe Illustrator 21.1.0, SVG Export Plug-In . SVG Version: 6.00 Build 0)  -->
<svg version="1.1" id="game" xmlns="http://www.w3.org/2000/svg" xmlns:xlink="http://www.w3.org/1999/xlink" x="0px" y="0px"
	 viewBox="0 0 200 200" enable-background="new 0 0 200 200" xml:space="preserve">
<g id="outmoney">
	<ellipse fill="#EDC500" cx="89.839" cy="100" rx="39.083" ry="80.258"/>
	<path fill="#D1AF02" d="M89.839,19.742h11.952c8.665,0,17.063,2.995,23.773,8.478l0.117,0.096
		c4.107,3.356,7.457,7.544,9.829,12.288l7.129,14.259c2.075,4.15,3.363,8.648,3.8,13.268l2.638,27.931
		c0.247,2.618,0.219,5.255-0.084,7.867l-3.007,25.886c-0.408,3.514-1.311,6.954-2.681,10.216l-7.23,17.211
		c-2.203,5.244-5.568,9.919-9.841,13.673l0,0c-6.856,6.023-15.669,9.344-24.794,9.344h-11.6l11.746-3.692l11.282-11.356
		l6.978-13.794l5.651-18.557l2.81-18.69l0.616-23.253l-2.489-19.131l-4.778-18.371L114.41,37.59l-8.114-10.386l-7.396-5.27
		L89.839,19.742z"/>
</g>
</svg>
