<?xml version="1.0" encoding="utf-8"?>
<!-- Generator: Adobe Illustrator 21.1.0, SVG Export Plug-In . SVG Version: 6.00 Build 0)  -->
<svg version="1.1" id="game" xmlns="http://www.w3.org/2000/svg" xmlns:xlink="http://www.w3.org/1999/xlink" x="0px" y="0px"
	 viewBox="0 0 1668 2224" style="enable-background:new 0 0 1668 2224;" xml:space="preserve">
<style type="text/css">
	.st0{fill:#5C7552;}
	.st1{fill:#E2CA96;}
	.st2{fill:#6F8763;}
	.st3{fill:#EAD7A2;}
	.st4{fill:#F9F2EF;}
	.st5{fill:#382C26;}
	.st6{fill:#936F5F;}
	.st7{fill:#7C655C;}
	.st8{fill:#F9A182;}
	.st9{fill:#DBC697;}
	.st10{fill:#8C7857;}
	.st11{fill:#635872;}
	.st12{fill:#6B7F60;}
	.st13{fill:#755D3F;}
	.st14{fill:#C9B8A7;}
	.st15{fill:url(#gradient4_1_);}
	.st16{fill:url(#gradient5_1_);}
	.st17{fill:#66E2FF;}
	.st18{fill:none;stroke:#B28052;stroke-miterlimit:10;}
	.st19{fill:#96735C;}
	.st20{fill:#825D49;stroke:#BF8A5E;stroke-miterlimit:10;}
	.st21{fill:#AD7D5C;stroke:#B28052;stroke-miterlimit:10;}
	.st22{fill:#BC8864;stroke:#B28052;stroke-miterlimit:10;}
	.st23{fill:#A37B61;}
	.st24{fill:#BC8866;}
	.st25{fill:#E0A57E;stroke:#B28052;stroke-miterlimit:10;}
	.st26{fill:#D19A7C;stroke:#B28052;stroke-miterlimit:10;}
	.st27{fill:#F4DBCE;}
	.st28{fill:#DBC7BF;}
	.st29{fill:#8E684F;stroke:#BF8A5E;stroke-miterlimit:10;}
	.st30{fill:#AD753E;}
	.st31{fill:#966636;}
	.st32{fill:#A87339;}
	.st33{fill:#BC8651;}
	.st34{fill:#AA7A4F;}
	.st35{fill:#C99465;}
	.st36{fill:none;stroke:#634B2A;stroke-miterlimit:10;}
	.st37{fill:#B28052;}
	.st38{fill:#96674D;stroke:#A57758;stroke-width:3;stroke-miterlimit:10;}
	.st39{fill:none;stroke:#A57758;stroke-width:3;stroke-miterlimit:10;}
	.st40{fill:#00CFFF;}
	.st41{fill:#03CDE2;}
	.st42{fill:#00DBFF;}
	.st43{fill:#00E7FF;}
	.st44{fill:#00F3FF;}
	.st45{fill:#2EFFF9;}
	.st46{fill:#78FFF8;}
	.st47{fill:#FFF0BF;}
	.st48{fill:#F7E4A6;}
	.st49{fill:#BCCC60;}
	.st50{fill:url(#sea_1_);}
	.st51{fill:#D6C8A3;}
	.st52{fill:#D3C7A7;}
	.st53{fill:#DBCDAF;}
	.st54{fill:#98958C;}
	.st55{fill:#C2BEB5;}
	.st56{fill:#ACA7A1;}
	.st57{fill:#ADA8A2;}
	.st58{fill:#D3CAB2;}
	.st59{fill:#8D8880;}
	.st60{fill:#99968D;}
	.st61{fill:#C2BDB3;}
	.st62{fill:#DDCFAF;}
	.st63{fill:#CCBFA6;}
	.st64{fill:#9B988F;}
	.st65{fill:#8B877E;}
	.st66{fill:#B9B2AA;}
	.st67{fill:#C3BFB6;}
	.st68{fill:#CED18B;}
	.st69{fill:#C6BBA5;}
	.st70{fill:#CEC2AA;}
	.st71{fill:#CCC1AA;}
	.st72{fill:#C4BFB3;}
	.st73{fill:#99968B;}
	.st74{fill:#969089;}
	.st75{fill:#939189;}
	.st76{fill:#B7B5AB;}
	.st77{fill:#C9BDA6;}
	.st78{fill:#C6BBA7;}
	.st79{fill:#BAB3A6;}
	.st80{fill:#9E9C95;}
	.st81{fill:#CCC0A8;}
	.st82{fill:#A5A299;}
	.st83{fill:#C4BCA9;}
	.st84{fill:#B5AD9E;}
	.st85{fill:#9A978E;}
	.st86{fill:#8D877F;}
	.st87{fill:#B8B1AA;}
	.st88{fill:#C3BFB4;}
	.st89{fill:#C5BEB6;}
	.st90{fill:#B5B3AC;}
	.st91{fill:#D5D1C6;}
	.st92{fill:#BCB4B1;}
	.st93{fill:#999793;}
	.st94{fill:#8E8E87;}
	.st95{fill:#A3A19D;}
	.st96{fill:#B5B4B1;}
	.st97{fill:#A8A7A7;}
	.st98{fill:#A09D97;}
	.st99{fill:#D3CFC3;}
	.st100{fill:#ADAAA6;}
	.st101{fill:#B2B1AF;}
	.st102{fill:#9B978F;}
	.st103{fill:#AAA7A0;}
	.st104{fill:#CCC8C4;}
	.st105{fill:#D3D0CD;}
	.st106{fill:#C9C3BD;}
	.st107{fill:#B2AFA8;}
	.st108{fill:#999692;}
	.st109{fill:#898683;}
	.st110{fill:#A3A29B;}
	.st111{fill:#B2AEAA;}
	.st112{fill:#D6D0C9;}
	.st113{fill:#918D87;}
	.st114{fill:#DBD5C6;}
	.st115{fill:#B7B3AE;}
	.st116{fill:#C4C1BB;}
	.st117{fill:#9B9891;}
	.st118{fill:#D8D5CB;}
	.st119{fill:#939089;}
	.st120{fill:#A8A6A0;}
	.st121{fill:#D8D5D0;}
	.st122{fill:#A8A49B;}
	.st123{fill:#96928A;}
	.st124{fill:#CEC8C2;}
	.st125{fill:#C4996C;}
	.st126{fill:#B7845A;}
	.st127{fill:#D5A776;}
	.st128{fill:#477F16;}
	.st129{fill:#436818;}
	.st130{fill:#AA7B43;}
	.st131{fill:#B79056;}
	.st132{fill:#AD9655;}
	.st133{fill:#DD9D68;}
	.st134{fill:#C18B59;stroke:#A87848;stroke-miterlimit:10;}
	.st135{fill:#B28056;}
	.st136{fill:#AD7D59;}
	.st137{fill:#AA7D5C;}
	.st138{fill:#DDCBBF;}
	.st139{fill:#DBDAD9;}
	.st140{fill:#D8A380;}
	.st141{fill:#CE987A;}
	.st142{fill:#CC9D85;}
	.st143{fill:#C6977F;}
	.st144{fill:#C19784;}
	.st145{fill:#C69B8B;}
	.st146{fill:#B7958B;}
	.st147{fill:#AF8958;}
	.st148{fill:#967A60;}
	.st149{fill:#C9D1D3;}
	.st150{fill:#635C55;}
	.st151{fill:#65868F;}
	.st152{fill:#6CC1A0;}
	.st153{fill:#EFCE8E;}
	.st154{fill:#60523B;}
	.st155{fill:#EFC58E;}
	.st156{fill:#6D5D41;}
	.st157{fill:#E8C192;}
	.st158{fill:#EFCA7F;}
	.st159{fill:#FFFFFF;}
	.st160{fill:#E5C57C;}
	.st161{fill:#59585E;}
	.st162{fill:#6FC9A9;}
	.st163{fill:#686770;}
	.st164{fill:#86D1B1;}
	.st165{fill:#2D2924;}
	.st166{fill:none;stroke:#2D2924;stroke-width:18;stroke-miterlimit:10;}
	.st167{fill:none;stroke:#2D2924;stroke-width:18;stroke-miterlimit:10;stroke-dasharray:8.8394,8.8394;}
	.st168{fill:none;stroke:#2D2924;stroke-width:18;stroke-miterlimit:10;stroke-dasharray:9.9611,9.9611;}
	.st169{fill:#C0D3D7;}
	.st170{fill:#98A9B1;}
	.st171{fill:#E26B47;}
	.st172{fill:#FF8243;}
	.st173{fill:#47413F;}
	.st174{fill:#EF8424;}
	.st175{fill:#FDA83D;}
	.st176{fill:#994E22;}
	.st177{fill:#965F29;}
	.st178{fill:#7F7F7F;}
	.st179{fill:#D6D5D4;}
	.st180{fill:#C98235;}
	.st181{fill:#999999;}
	.st182{fill:#E2E1E0;}
	.st183{fill:#D98D31;}
	.st184{fill:#B5B5B5;}
	.st185{fill:#7F6752;}
	.st186{fill:#777770;}
	.st187{fill:#F29575;}
	.st188{fill:#3F3831;}
	.st189{fill:url(#gradient_1_);}
	.st190{fill:#997933;}
	.st191{fill:#937334;}
	.st192{fill:#A9DB52;}
	.st193{fill:#96C639;}
	.st194{fill:#82B71C;}
	.st195{fill:#B6E55C;}
	.st196{fill:#90C125;}
	.st197{fill:#A9D146;}
	.st198{fill:#8E7036;}
	.st199{fill:#846939;}
	.st200{fill:#78A038;stroke:#81AD2B;stroke-width:3;stroke-miterlimit:10;}
	.st201{fill:#658E30;}
	.st202{fill:#85AA44;}
	.st203{fill:#7EAF31;}
	.st204{fill:#018287;}
	.st205{fill:#161616;}
	.st206{fill:#00686B;}
	.st207{fill:#161616;stroke:#373737;stroke-miterlimit:10;}
	.st208{fill:none;stroke:#D98D31;stroke-miterlimit:10;}
	.st209{fill:#242424;}
	.st210{fill:#373737;}
	.st211{fill:#A3A3A3;}
	.st212{fill:#ACACAE;}
	.st213{fill:url(#gradient2_1_);}
	.st214{fill:url(#gradient3_1_);}
	.st215{fill:#B67D56;}
	.st216{fill:#83492A;}
	.st217{fill:#9C6038;}
	.st218{fill:#683920;}
	.st219{fill:#563119;}
	.st220{fill:#CC9E75;}
	.st221{fill:#633A23;}
	.st222{fill:#F9F6CD;}
	.st223{fill:none;stroke:#000000;stroke-miterlimit:10;}
	.st224{fill:#A59D58;}
	.st225{fill:#CCA962;}
	.st226{fill:none;stroke:#EFCF97;stroke-miterlimit:10;}
	.st227{fill:#EFCF97;}
	.st228{fill:#846431;}
	.st229{fill:#FFF980;stroke:#000000;stroke-miterlimit:10;}
	.st230{fill:#75634C;}
	.st231{fill:#7A6A59;}
	.st232{fill:#FFF980;stroke:#FFF980;stroke-miterlimit:10;}
	.st233{fill:#EDFF85;stroke:#EDFF85;stroke-miterlimit:10;}
	.st234{fill:#EDFF85;stroke:#000000;stroke-miterlimit:10;}
	.st235{fill:none;stroke:#2D2924;stroke-width:18;stroke-miterlimit:10;stroke-dasharray:9.9129,9.9129;}
	.st236{fill:#F9F6CD;stroke:#000000;stroke-miterlimit:10;}
	.st237{fill:none;stroke:#2D2924;stroke-width:18;stroke-miterlimit:10;stroke-dasharray:12.5119,12.5119;}
	.st238{fill:none;stroke:#2D2924;stroke-width:18;stroke-miterlimit:10;stroke-dasharray:10.1077,10.1077;}
</style>
<g id="bag">
	<rect x="1229.1" y="630" class="st236" width="391" height="308"/>
	<g id="perf_x5F_bag">
		<rect x="838.1" y="630" class="st236" width="391" height="308"/>
		<g id="perforator-pick">
			<path class="st204" d="M993.8,752.7l-119.5,68c-0.4,0.2-0.8,0.5-1.1,0.9l-1.3,1.4c-0.4,0.4-0.7,0.8-0.9,1.3l-0.9,2
				c-0.2,0.5-0.4,1.1-0.4,1.7l0,0.4c0,0.9,0.2,1.8,0.6,2.6l0,0c0.4,0.7,1,1.3,1.8,1.8l0.5,0.3c0.6,0.3,1.2,0.5,1.9,0.6l1.5,0.2
				c0.2,0,0.3,0,0.5,0.1l1.6,0.4c0.7,0.2,1.4,0.5,2,1l0,0c0.7,0.6,1.2,1.5,1.4,2.4l0.7,3.2l-0.2,7.2l1.3,11.1l3.8,13l16.1,38
				c0.3,0.7,0.7,1.2,1.3,1.6l0,0c1.1,0.8,2.5,1.1,3.9,0.9l0.8-0.1c0.7-0.1,1.3-0.3,1.9-0.7l11.2-6.4c0.7-0.4,1.3-1,1.7-1.8l0,0
				c0.3-0.7,0.5-1.5,0.5-2.3l-0.1-2.8c0-0.6-0.1-1.2-0.4-1.7l-17.8-42.5c-0.3-0.6-0.3-1.3-0.3-2l0,0c0.2-1.5,0.9-2.9,1.9-4l0.9-1
				l11.5-6.3c0.5-0.3,1.1-0.5,1.7-0.7l7.5-2.1L946,834l21.2-8.5c0.8-0.3,1.6-0.7,2.3-1.1l24.4-14.3c1.5-0.9,2.8-1.8,4.1-2.9l5.3-4.5
				c4.6-3.9,8.1-8.9,10.2-14.6l0.1-0.2c0.5-1.3,0.7-2.7,0.8-4.1l0-0.8c0-1.8-0.4-3.6-1.3-5.2l-13.2-23.1c-0.4-0.6-0.9-1.2-1.6-1.5
				l-0.5-0.3c-0.4-0.2-0.8-0.4-1.2-0.4l0,0C995.7,752.1,994.7,752.2,993.8,752.7z"/>
			<path class="st205" d="M943.7,834.6l-8.4-48.6l58.5-33.3c0.9-0.5,1.9-0.7,2.9-0.5l0,0c0.4,0.1,0.8,0.2,1.2,0.4l0.5,0.3
				c0.6,0.4,1.2,0.9,1.6,1.5l13.7,24c0.6,1,0.9,2.1,0.8,3.3l0,2.6c0,0.9-0.2,1.8-0.5,2.6l-1.1,3c-1.6,4.3-4.3,8.1-7.8,11.1l-7,5.9
				c-1.3,1.1-2.6,2-4.1,2.9l-23.5,13.8c-1.4,0.8-2.9,1.5-4.4,2.1L946,834L943.7,834.6z"/>
			<polygon class="st206" points="874.8,833.7 937.4,798.1 936.8,794.7 871,832.1 873.5,833.6 			"/>
			<path class="st205" d="M882.2,840.9l4.3,13.8c0.5,1.7,1.1,3.3,1.9,4.9l4.1,9.1c1.5,3.4,3.6,6.5,6.1,9.2l1.8,2
				c1.5,1.6,3.5,2.8,5.6,3.4l3,0.8c1.4,0.4,2.8,0.5,4.3,0.5l5.6-0.2l5.2,12.4c0.3,0.6,0.4,1.3,0.4,1.9l0.1,2.9
				c0,0.7-0.1,1.3-0.4,1.9l-0.2,0.4c-0.3,0.7-0.8,1.2-1.5,1.6l-11.3,6.4c-0.7,0.4-1.4,0.6-2.1,0.7l-1.5,0.2
				c-0.8,0.1-1.7-0.1-2.4-0.5l-0.6-0.4c-0.7-0.5-1.2-1.1-1.5-1.8l-15.1-35.6c-0.6-1.5-1.2-3-1.6-4.5l-2.2-7.6
				c-0.6-2.1-1-4.2-1.3-6.3l-0.8-6.7c-0.1-0.8-0.1-1.6-0.1-2.5L882.2,840.9z"/>
			
				<ellipse transform="matrix(0.8692 -0.4945 0.4945 0.8692 -306.263 557.2173)" class="st207" cx="899.9" cy="857.4" rx="3.1" ry="3.1"/>
			<path class="st205" d="M906.1,852.2l0.1-0.4c0.2-1,0.6-2,1.3-2.8l1-1.1c0.3-0.3,0.6-0.5,0.9-0.7l5.3-2.9l-2.5,2.1
				c-1,0.8-1.6,2-1.7,3.3l-0.1,0.7c0,0.6,0.1,1.3,0.3,1.9l5,11.9c0.3,0.7,0.3,1.4,0.1,2.1l0,0c-0.2,0.5-0.5,0.9-1,1.2l-1.5,0.8
				c-0.5,0.3-1.2,0.1-1.4-0.5l-5.6-13.3C906.1,853.9,906,853.1,906.1,852.2z"/>
			<path class="st209" d="M900.5,840.7l5.5-3.1c1.3-0.7,1.7-2.3,1-3.6l-4.6-8.1c-0.7-1.3-2.3-1.7-3.6-1l-5.5,3.1
				c-1.3,0.7-1.7,2.3-1,3.6l4.6,8.1C897.6,841,899.2,841.4,900.5,840.7z"/>
			<path class="st204" d="M899.6,839l5.3-3c0.9-0.5,1.2-1.6,0.7-2.5l0,0c-0.5-0.9-1.6-1.2-2.5-0.7l-5.3,3c-0.9,0.5-1.2,1.6-0.7,2.5
				l0,0C897.7,839.2,898.8,839.5,899.6,839z"/>
			
				<ellipse transform="matrix(0.8692 -0.4945 0.4945 0.8692 -262.6976 589.8119)" class="st210" cx="983.3" cy="791.4" rx="14.1" ry="14.1"/>
			<path class="st209" d="M987.1,802.5l4.1-2.3c0.8-0.4,1-1.4,0.6-2.2l-9.9-17.4c-0.4-0.8-1.4-1-2.2-0.6l-4.1,2.3
				c-0.8,0.4-1,1.4-0.6,2.2l9.9,17.4C985.3,802.6,986.3,802.9,987.1,802.5z"/>
			
				<rect x="1006" y="749.5" transform="matrix(-0.8692 0.4945 -0.4945 -0.8692 2266.844 928.0898)" class="st210" width="9.3" height="28.7"/>
			
				<rect x="1014.4" y="747.3" transform="matrix(-0.8692 0.4945 -0.4945 -0.8692 2277.199 918.3502)" class="st205" width="5.4" height="26.3"/>
			
				<rect x="1018.6" y="741.6" transform="matrix(-0.8692 0.4945 -0.4945 -0.8692 2290.3086 905.4868)" class="st210" width="13.6" height="28.3"/>
			<polygon class="st209" points="1038.3,764.6 1040.3,757.8 1031.3,742 1024.3,740.1 			"/>
			<polygon class="st205" points="1040.3,757.8 1053.4,747.7 1054.4,745 1049.5,736.4 1046.9,736.2 1031.3,742 			"/>
			
				<rect x="1051.3" y="734.7" transform="matrix(0.8629 -0.5053 0.5053 0.8629 -228.284 634.843)" class="st211" width="9.5" height="7"/>
			<path class="st212" d="M1197.4,656.2l-9,10.8c-0.9,1-1.9,1.9-3.1,2.6l-112.1,65.7c-3.4,2-7.2,3.2-11.1,3.6l0,0l-3.5-6h0
				c2.3-3.3,5.3-6,8.8-8.1l112-65.6c1.2-0.7,2.5-1.2,3.8-1.4l13.7-2.6C1197.4,655,1197.8,655.7,1197.4,656.2z"/>
		</g>
	</g>
	<g id="pick3-pick_x5F_bag">
		<rect x="447.1" y="630" class="st236" width="391" height="308"/>
		<g id="pick3-pick">
			<path class="st177" d="M491.8,905.8c-2.6-1.1-2.8-4.6-0.5-6.1l173.6-107l53.2-36.1l31-19.3l5.1-0.7c1.4-0.2,2.8-0.1,4.2,0.4
				l2.5,0.8c1.9,0.6,3.4,2.3,3.6,4.3l0,0c0.2,1.2,0,2.5-0.4,3.6l-0.4,1.1c-0.8,2.3-2.2,4.2-4.2,5.7l-10.9,8.1L730,771.1l-15.4,6.8
				c-7.5,3.3-14.8,7.2-21.8,11.5L501.8,906c-2.5,1.5-5.5,1.7-8.2,0.6L491.8,905.8z"/>
			<path class="st178" d="M775.7,771.9l-3.8-6.5c-3-5.1-6.5-10-10.3-14.5l-4.3-5c-1-1.1-1.7-2.3-2.4-3.7l-1-2.2
				c-3.6-7.9-8-15.5-13-22.6l-2.3-3.3c-4.1-5.8-8.8-11.3-14-16.2l-5.7-5.4c-4.8-4.6-10-8.8-15.4-12.5l-6.3-4.3
				c-3.4-2.3-6.9-4.5-10.6-6.4l-3.9-2c-5.3-2.8-10.9-4.9-16.6-6.5h0c-1-0.3-1.6,1.1-0.8,1.7l8.7,6.2c4.7,3.4,9.1,7.1,13.2,11.2
				l6.6,6.7c4.2,4.3,8.1,8.8,11.7,13.5l5.6,7.3c3.8,5,7,10.3,9.7,16l4.7,9.9c1.7,3.6,3.2,7.3,4.6,11.1l5,13.4
				c0.3,0.7,0.7,1.4,1.3,1.9l7.6,7.1c3.7,3.4,7.1,7.1,10.4,10.9l3.5,4.1c5.8,6.8,10.8,14.2,15,22.1l1.3,2.4
				c3.6,6.7,6.8,13.6,9.5,20.7l2.6,6.7c2,5.2,3.6,10.6,4.6,16.1l2.6,13.7c0.1,0.4,0.7,0.4,0.8,0l0,0c1.3-7.8,1.8-15.8,1.3-23.7
				l0-0.7c-0.3-4.6-0.8-9.1-1.6-13.6l-0.9-5.3c-1.4-7.6-3.3-15.1-5.8-22.4l-1.8-5.3C782.7,785.3,779.5,778.4,775.7,771.9z"/>
		</g>
	</g>
	<g id="pick2-pick_x5F_bag">
		<rect x="56.1" y="630" class="st236" width="391" height="308"/>
		<g id="pick2-pick">
			<path class="st180" d="M104.5,907.2c-2.8-0.8-3.5-4.5-1.2-6.3l169.1-131.7l51.5-43.8l30.2-23.8l5.2-1.3c1.4-0.4,2.9-0.4,4.4-0.1
				l2.7,0.6c2.1,0.4,3.8,2,4.3,4.1l0,0c0.3,1.3,0.3,2.6,0,3.8l-0.3,1.2c-0.6,2.5-1.8,4.7-3.7,6.4l-10.5,9.7l-18.4,13.2l-15.3,8.9
				c-7.5,4.4-14.7,9.2-21.5,14.5L115,906.3c-2.4,1.9-5.5,2.4-8.5,1.6L104.5,907.2z"/>
			<path class="st181" d="M359.7,708.4l13.8,14.6c2.7,2.9,5.2,6.1,7.5,9.5l10.5,16c2.8,4.3,5.2,8.9,7,13.7l7.9,20.2
				c1.6,4,2.8,8.1,3.8,12.2l4.5,19.4c0.2,1-1,1.5-1.5,0.6l-12-20.5c-1.9-3.3-3.9-6.5-6.1-9.6l-12.6-18.7
				c-3.9-5.8-8.2-11.3-12.8-16.6l-9.5-10.8l-15.9-17.1l-7.2-6.5c-10.7-9.6-22.6-17.4-35.3-23.2l-7.3-3.3c-1.4-0.7-1.9-2.6-1-3.8
				l8.6-11.4c1.9-2.5,4.2-4.7,6.8-6.4l13.5-8.7c1.2-0.8,2.8-0.3,3.6,1.1l5.5,10.3c5.3,9.8,11.5,19.1,18.6,27.6L359.7,708.4z"/>
		</g>
	</g>
	<rect x="1229.1" y="322" class="st236" width="391" height="308"/>
	<g id="saw-pick_x5F_bag">
		<rect x="838.1" y="322" class="st236" width="391" height="308"/>
		<g id="saw-pick">
			<g>
				<path class="st165" d="M1183.1,414.4l-169.5,99l-24-41l169.5-99.1c10.3-6,23.5-2.5,29.5,7.7l2.2,3.7
					C1196.9,395.1,1193.5,408.3,1183.1,414.4z"/>
				<g>
					<polyline class="st166" points="1018,510.9 1013.7,513.4 1011.1,509.1 					"/>
					<line class="st237" x1="1004.8" y1="498.3" x2="995.3" y2="482.1"/>
					<polyline class="st166" points="992.2,476.7 989.7,472.4 994,469.9 					"/>
					<path class="st238" d="M1002.7,464.8l156.5-91.5c10.3-6,23.5-2.5,29.5,7.7l2.2,3.7c6,10.3,2.6,23.6-7.8,29.6l-160.8,94"/>
				</g>
			</g>
			<path class="st169" d="M1179.8,411.6L1017,506.7l-20-34.3l162.8-95.1c8.6-5,19.6-2.1,24.7,6.5l1.8,3.1
				C1191.3,395.5,1188.4,406.6,1179.8,411.6z"/>
			
				<ellipse transform="matrix(0.8634 -0.5046 0.5046 0.8634 -42.1635 641.2796)" class="st170" cx="1163.1" cy="398.5" rx="13.8" ry="11"/>
			<path class="st171" d="M954.5,480.6l-49,28.6c-5.2,3-6.9,9.7-3.9,14.8l5,8.5l-14.3,9.8c-4.2,2.9-8.2,6.1-11.9,9.6l-4.3,4.1
				c-2.9,2.7-5,6.1-6.4,9.9l0,0c-1.2,3.5-1.8,7.1-1.7,10.8l0,0.2c0.1,3.4,1,6.7,2.7,9.6l0.4,0.7c0.7,1.2,1.7,2.2,3,2.9
				c3.8,2,8.1,2.9,12.3,2.5l0,0c5.2-0.4,10.4-1.8,15.1-4.1l9.8-4.7l27.4-14.2l-0.5,0c0.7-0.2,1.4-0.5,2.1-0.9l49-28.6
				c5.2-3,6.9-9.7,3.9-14.8l-23.9-40.8C966.3,479.4,959.6,477.6,954.5,480.6z M915.9,570.3c-1.5,0.8-3,1.6-4.6,2.4l-7.5,3.6
				c-5.3,2.6-11.1,4.4-17,5.2h0c-1.4,0.2-2.8,0.2-4.2-0.1l-1.3-0.2c-1.6-0.3-2.9-1.3-3.6-2.8c-0.3-0.6-0.4-1.2-0.4-1.8l-0.1-1.2
				c-0.1-2.6,0.4-5.1,1.6-7.4c1.6-3.1,3.8-5.9,6.4-8.3l5-4.5c1.7-1.6,3.6-3,5.5-4.3l15.5-10.4l14.3,24.4c0.9,1.5,0,0,0,0
				L915.9,570.3z M932.1,569.9L932.1,569.9C932.1,569.9,932.1,569.9,932.1,569.9L932.1,569.9z"/>
			<path class="st172" d="M970.2,485.3L902,525.1l-0.5-0.9c-3-5.2-1.3-11.8,3.9-14.8l50.1-29.3c4.8-2.8,10.9-1.2,13.7,3.6
				L970.2,485.3z"/>
			<path class="st173" d="M925.1,502.1l-13.6,7.9c-1.1,0.7-2.6,0.3-3.3-0.9l-0.2-0.4c-0.7-1.1-0.3-2.6,0.9-3.3l13.6-7.9
				c1.1-0.7,2.6-0.3,3.3,0.9l0.2,0.4C926.7,499.9,926.3,501.4,925.1,502.1z"/>
			<path class="st174" d="M1015.5,484.9c-8.8-15-24.6-22.1-35.8-16.3c-0.7,0.2-1.4,0.6-2,1.1l-6.9,5.4c-2.3,1.8-4.5,3.7-6.6,5.6
				l-5.7,5.3c-1.4,1.2-2.7,2.5-4,3.8l-3.7,3.8c-6.1,6.3-11.4,13.3-15.8,20.9l0,0c-4.1,7.2-7.4,14.9-9.7,22.9
				c-0.6,2.1-0.7,4.2-0.4,6.4l0.1,0.4c0.5,3,1.5,5.9,3.1,8.5l0,0.1c0.6,1,1.3,1.8,2.2,2.5c1.2,0.9,2.7,1.5,4.2,1.8
				c2.5,0.4,5.1,0.3,7.6-0.2l4.4-1c3.7-0.9,7.4-2,10.9-3.6l12.3-5.3c2.7-1.1,5.3-2.4,7.9-3.7l16.8-8.8l16.6-9.7
				c0.1,0,0.1-0.1,0.2-0.1c0.1,0,0.1-0.1,0.2-0.1l0.8-0.5c0.2-0.1,0.4-0.2,0.5-0.4C1022.7,516.3,1024,499.6,1015.5,484.9z"/>
			<path class="st175" d="M933.1,556.6l-2.3-3c-0.7-0.9-1.3-1.9-1.8-2.9l-0.7-1.5c-1-2.1-1.4-4.5-1.4-6.8l0,0c0-0.8,0.1-1.5,0.4-2.2
				l1.8-6c0.5-1.7,1.2-3.4,2-5l4.8-9.6c0.6-1.3,1.4-2.5,2.2-3.7l6.6-10c1.4-2.1,3-4.2,4.7-6.1l8-9c0.6-0.7,1.3-1.4,2-2l6.5-6
				c1-0.9,4.4-4.1,4.4-4.1l4.2-3.5l3.5-2.5l2.3-1.5l2.9-1.6l3.5-1.3l2.5-0.6l3-0.5l-2.9-0.4l-2.6,0l-2.4,0.3l-2.3,0.6l-1.7,0.7
				l-1.9,0.9c0,0-1.4,1-2.5,1.9l-5.2,4.1l-3.3,2.7l-3.3,2.9l-5.7,5.3l-6.6,6.6c-0.7,0.7-1.4,1.4-2,2.2l-6,7
				c-0.7,0.8-1.3,1.6-1.9,2.5l-3.9,5.6c-0.4,0.6-0.8,1.3-1.2,1.9l-2.2,3.7c-0.4,0.7-0.8,1.5-1.2,2.2l-2.7,5.6
				c-0.5,0.9-0.9,1.9-1.3,2.9l-2.4,6.4c-0.2,0.6-0.5,1.3-0.6,2l-0.5,1.7c-0.6,2.2-0.8,4.5-0.6,6.7l0.2,1.9l0.5,2.3
				c0.4,1.5,0.9,2.9,1.7,4.2l0.3,0.6c0.9,1.6,2.2,2.9,3.8,3.9L933.1,556.6z"/>
			<path class="st176" d="M961.8,515.2l-20,11.7c-0.7,0.4-1.5,0.2-1.9-0.5l-0.1-0.2c-0.4-0.7-0.2-1.5,0.5-1.9l20-11.7
				c0.7-0.4,1.5-0.2,1.9,0.5l0.1,0.2C962.7,514,962.5,514.8,961.8,515.2z"/>
			<path class="st176" d="M964.6,519.9l-20,11.7c-0.7,0.4-1.5,0.2-1.9-0.5l-0.1-0.2c-0.4-0.7-0.2-1.5,0.5-1.9l20-11.7
				c0.7-0.4,1.5-0.2,1.9,0.5l0.1,0.2C965.5,518.6,965.2,519.5,964.6,519.9z"/>
			<path class="st176" d="M967.3,524.6l-20,11.7c-0.7,0.4-1.5,0.2-1.9-0.5l-0.1-0.2c-0.4-0.7-0.2-1.5,0.5-1.9l20-11.7
				c0.7-0.4,1.5-0.2,1.9,0.5l0.1,0.2C968.2,523.3,968,524.2,967.3,524.6z"/>
			<path class="st176" d="M970.1,529.4l-20,11.7c-0.7,0.4-1.5,0.2-1.9-0.5l-0.1-0.2c-0.4-0.7-0.2-1.5,0.5-1.9l20-11.7
				c0.7-0.4,1.5-0.2,1.9,0.5l0.1,0.2C971,528.1,970.8,529,970.1,529.4z"/>
			<path class="st176" d="M972.8,533.9l-20,11.7c-0.7,0.4-1.5,0.2-1.9-0.5l-0.1-0.2c-0.4-0.7-0.2-1.5,0.5-1.9l20-11.7
				c0.7-0.4,1.5-0.2,1.9,0.5l0.1,0.2C973.7,532.7,973.4,533.6,972.8,533.9z"/>
			<path class="st173" d="M937.6,496.7l0.5,0c0.9,0,1.7-0.4,2.3-1l0.2-0.2c0.4-0.4,0.7-1,0.7-1.7l0-1c0-0.4-0.1-0.7-0.3-1l-4.5-7.8
				c-0.4-0.7-0.8-1.4-1-2.2l-2.2-5.6c-0.7-1.9-1-3.8-0.9-5.7l0.1-1.7c0.1-2.5,1-4.7,2.5-6.4l1.9-2.1c0.6-0.7,1.3-1.3,2.1-1.8
				l3.7-2.1c1.4-0.8,3-1.2,4.7-1.2l0,0c2.3,0,4.8,0.9,6.8,2.5l1.9,1.4c0.9,0.7,1.8,1.6,2.6,2.5l3.5,4.3c0.4,0.6,0.9,1.2,1.2,1.8
				l4.7,8.1c0.2,0.3,0.5,0.6,0.8,0.8l0,0c0.6,0.4,1.3,0.5,1.9,0.4l0.6-0.1c0.5-0.1,1-0.3,1.5-0.6l0.1,0c0.8-0.5,1.3-1.3,1.3-2.4l0,0
				c0-0.2,0-0.3-0.1-0.5l-0.9-1.5l-4.8-8.3c-0.8-1.4-1.8-2.7-2.8-3.9l-3.9-4.4c-1.4-1.5-3-2.9-4.7-3.9l-1.1-0.7
				c-3-1.9-6.3-2.8-9.5-2.8l-0.6,0c-2.5,0-4.9,0.7-6.9,1.9l-4.2,2.5c-1.3,0.8-2.5,1.8-3.5,2.9l-2.5,2.9c-1.8,2.1-2.9,4.6-3.5,7.5v0
				c-0.5,2.7-0.4,5.6,0.3,8.5l0.7,2.7c0.3,1.4,0.8,2.7,1.4,4l2.6,5.7c0.3,0.7,0.7,1.5,1.1,2.2l3.3,5.6c0.4,0.7,1,1.3,1.6,1.8l0,0
				C936.6,496.5,937.1,496.7,937.6,496.7z"/>
		</g>
	</g>
	<g id="ex2-pick_x5F_bag_1_">
		<rect x="447.1" y="322" class="st236" width="391" height="308"/>
		<g id="ex3-pick">
			<path class="st177" d="M484.7,603.2c-2.4-1-2.8-4.3-0.6-5.7L644.3,492l49-35.4l28.6-19l6.8-1.2l7.3,2.1l0.8,4.9l-1.9,6
				l-12.8,10.1l-17.4,10.5l-14.3,6.9c-7,3.4-13.7,7.2-20.2,11.4l-176.3,115c-2.3,1.5-5.1,1.8-7.7,0.8L484.7,603.2z"/>
			<path class="st178" d="M789.1,488.7c-9.7-2.4-18.8-6.4-27.1-12l-5.2-3.5c-4.4-3-8.6-6.4-12.5-10.1l-11.9-11.4l-5.8-7.4l-4.4-8.3
				l-5.5-15.6c-1.8-5-3.2-10.2-4.1-15.5l-1.1-6.2c-1.7-9.8-1.6-19.8,0.2-29.6l2.8-15.3l-11.8,0.8c-10.9,0.7-21.5,3.4-31.5,7.9l0,0
				c-7.1,3.2-13.7,7.3-19.8,12.3l-6.2,5.1c-6,4.9-11.4,10.6-16,16.9l-13.6,18.6l23.1,8.7c7.4,2.8,14.5,6.3,21.3,10.3l5.8,3.5
				c3.4,2.1,6.6,4.4,9.6,7l3.9,3.5c4.3,3.8,8.1,8.2,11.3,13c0.8,1.5,1.7,3,2.7,4.4c0.9,1.5,1.9,2.9,3,4.3c3.1,4.8,5.5,10.1,7.2,15.6
				l1.5,5c1.2,3.8,2,7.7,2.5,11.7l0.8,6.7c0.9,7.8,1.2,15.8,0.7,23.7l-1.5,24.6l22.6-4.7c7.6-1.6,15-4.2,22-7.7l7.2-3.6
				c7-3.5,13.4-7.9,19.3-13l0,0c8.2-7.2,15-15.8,20.1-25.4l5.6-10.4L789.1,488.7z"/>
			<path class="st179" d="M712.7,363.3l1.8-9.6l-11.8,0.8c-10.9,0.7-21.5,3.4-31.5,7.9l0,0c-7.1,3.2-13.7,7.3-19.8,12.3l-6.2,5.1
				c-6,4.9-11.4,10.6-16,16.9l-13.6,18.6l10.2,3.9l5-6.5c3.6-4.7,7.6-9.1,12-13l4.2-3.8c2-1.8,4.1-3.5,6.3-5.2l7.7-5.8
				c3.7-2.8,7.7-5.4,11.8-7.6l3.6-1.9c5.2-2.9,10.7-5.2,16.4-7.1l1.8-0.6c3.3-1.1,6.7-2,10.2-2.7L712.7,363.3z"/>
			<path class="st179" d="M708.2,545.2l-0.7,12l22.6-4.7c7.6-1.6,15-4.2,22-7.7l7.2-3.6c7-3.5,13.4-7.9,19.3-13l0,0
				c8.2-7.2,15-15.8,20.1-25.4l5.6-10.4l-10.8-2.7l-7.3,9c-1.1,1.3-2.2,2.5-3.5,3.7l-8,7.1c-1.7,1.5-3.4,3-5.2,4.4l-7.8,6
				c-3.9,3-8,5.7-12.3,8l-5.6,3.1c-2.3,1.3-4.7,2.4-7.1,3.5l-9.1,4c-2.9,1.3-5.8,2.4-8.9,3.4L708.2,545.2z"/>
		</g>
	</g>
	<g id="ex2-pick_x5F_bag">
		<rect x="56.1" y="322" class="st236" width="391" height="308"/>
		<g id="ex2-pick">
			<path class="st180" d="M92.7,592.1c-2.8-0.6-3.8-4.1-1.7-6L243,443l46-47.2l27.2-25.8l7-2.5l8.2,0.9l1.8,5.1l-0.9,6.8l-11.8,13.2
				L303.9,408l-14,10c-6.9,4.9-13.4,10.2-19.5,16L102.8,590.2c-2.2,2-5.2,2.9-8.1,2.3L92.7,592.1z"/>
			<path class="st181" d="M298.5,361.2l-3.8-0.8c-4.2-0.8-8.4-2.1-12.3-3.8l-10.8-4.6c-1.1-0.5-2.2,0.6-1.7,1.7l4.2,10.5
				c1.5,3.7,2.5,7.5,3.1,11.3l0.5,3.1c1.1,7,3.6,13.7,7.2,19.8v0c1.8,2.9,3.9,5.6,6.4,7.9h0c5.7,5.4,10.5,11.8,14,18.8l2.6,5.1
				c2,3.9,3.6,7.9,4.8,12l2.1,7.1c2.5,8.2,4.2,16.7,5.2,25.2l3,26.7l23.3-9.3c7.9-3.1,15.3-7.3,22.1-12.3l7-5.2
				c6.8-5,12.9-10.9,18.3-17.5v0c7.4-9.3,13.1-19.8,16.8-31l4-12.2l-16.9-1.2c-10.8-0.7-21.4-3.4-31.3-7.8l-6.3-2.8
				c-5.3-2.4-10.4-5.2-15.3-8.5l-14.9-10l-14.8-13.5l-1.6-1.4C309.2,364.8,304.1,362.3,298.5,361.2z"/>
			<path class="st182" d="M322,492l1,9.2l23.3-9.3c7.9-3.1,15.3-7.3,22.1-12.3l7-5.2c6.8-5,12.9-10.9,18.3-17.5v0
				c7.4-9.3,13.1-19.8,16.8-31l4-12.2l-8.1-0.6l-4.6,9.6c-1.5,3.1-3.2,6.2-5,9.1l-3.8,6c-2.2,3.4-4.6,6.7-7.3,9.8l-5,5.8
				c-4.1,4.8-8.6,9.1-13.6,12.8l-5.5,4.2c-3.2,2.4-6.6,4.6-10.1,6.6l-11,6.1c-1.8,1-3.7,2-5.6,2.9L322,492z"/>
		</g>
	</g>
</g>
</svg>
