<?xml version="1.0" encoding="utf-8"?>
<!-- Generator: Adobe Illustrator 21.1.0, SVG Export Plug-In . SVG Version: 6.00 Build 0)  -->
<svg version="1.1" id="game" xmlns="http://www.w3.org/2000/svg" xmlns:xlink="http://www.w3.org/1999/xlink" x="0px" y="0px"
	 viewBox="0 0 1448.5 2224" style="enable-background:new 0 0 1448.5 2224;" xml:space="preserve">
<style type="text/css">
	.st0{fill:url(#gradient4_1_);}
	.st1{fill:url(#gradient5_1_);}
	.st2{fill:#66E2FF;}
	.st3{fill:none;stroke:#B28052;stroke-miterlimit:10;}
	.st4{fill:#96735C;}
	.st5{fill:#825D49;stroke:#BF8A5E;stroke-miterlimit:10;}
	.st6{fill:#AD7D5C;stroke:#B28052;stroke-miterlimit:10;}
	.st7{fill:#BC8864;stroke:#B28052;stroke-miterlimit:10;}
	.st8{fill:#A37B61;}
	.st9{fill:#BC8866;}
	.st10{fill:#E0A57E;stroke:#B28052;stroke-miterlimit:10;}
	.st11{fill:#D19A7C;stroke:#B28052;stroke-miterlimit:10;}
	.st12{fill:#F4DBCE;}
	.st13{fill:#DBC7BF;}
	.st14{fill:#8E684F;stroke:#BF8A5E;stroke-miterlimit:10;}
	.st15{fill:#AD753E;}
	.st16{fill:#966636;}
	.st17{fill:#A87339;}
	.st18{fill:#BC8651;}
	.st19{fill:#AA7A4F;}
	.st20{fill:#C99465;}
	.st21{fill:none;stroke:#634B2A;stroke-miterlimit:10;}
	.st22{fill:#B28052;}
	.st23{fill:#96674D;stroke:#A57758;stroke-width:3;stroke-miterlimit:10;}
	.st24{fill:none;stroke:#A57758;stroke-width:3;stroke-miterlimit:10;}
	.st25{fill:#5C7552;}
	.st26{fill:#E2CA96;}
	.st27{fill:#6F8763;}
	.st28{fill:#EAD7A2;}
	.st29{fill:#F9F2EF;}
	.st30{fill:#382C26;}
	.st31{fill:#936F5F;}
	.st32{fill:#7C655C;}
	.st33{fill:#F9A182;}
	.st34{fill:#DBC697;}
	.st35{fill:#8C7857;}
	.st36{fill:#635872;}
	.st37{fill:#6B7F60;}
	.st38{fill:#755D3F;}
	.st39{fill:#C9B8A7;}
	.st40{fill:#00CFFF;}
	.st41{fill:#03CDE2;}
	.st42{fill:#00DBFF;}
	.st43{fill:#00E7FF;}
	.st44{fill:#00F3FF;}
	.st45{fill:#2EFFF9;}
	.st46{fill:#78FFF8;}
	.st47{fill:#FFF0BF;}
	.st48{fill:#F7E4A6;}
	.st49{fill:#BCCC60;}
	.st50{fill:url(#sea_1_);}
	.st51{fill:#98958C;}
	.st52{fill:#ACA7A1;}
	.st53{fill:#C2BEB5;}
	.st54{fill:#D6C8A3;}
	.st55{fill:#D3C7A7;}
	.st56{fill:#DBCDAF;}
	.st57{fill:#ADA8A2;}
	.st58{fill:#99968D;}
	.st59{fill:#C2BDB3;}
	.st60{fill:#8D8880;}
	.st61{fill:#D3CAB2;}
	.st62{fill:#8B877E;}
	.st63{fill:#9B988F;}
	.st64{fill:#B9B2AA;}
	.st65{fill:#C3BFB6;}
	.st66{fill:#DDCFAF;}
	.st67{fill:#CCBFA6;}
	.st68{fill:#CED18B;}
	.st69{fill:#99968B;}
	.st70{fill:#969089;}
	.st71{fill:#C4BFB3;}
	.st72{fill:#939189;}
	.st73{fill:#B7B5AB;}
	.st74{fill:#C6BBA5;}
	.st75{fill:#CEC2AA;}
	.st76{fill:#CCC1AA;}
	.st77{fill:#9E9C95;}
	.st78{fill:#C9BDA6;}
	.st79{fill:#C6BBA7;}
	.st80{fill:#BAB3A6;}
	.st81{fill:#A5A299;}
	.st82{fill:#CCC0A8;}
	.st83{fill:#C3BFB4;}
	.st84{fill:#9A978E;}
	.st85{fill:#B8B1AA;}
	.st86{fill:#8D877F;}
	.st87{fill:#C4BCA9;}
	.st88{fill:#B5AD9E;}
	.st89{fill:#C5BEB6;}
	.st90{fill:#B5B3AC;}
	.st91{fill:#D5D1C6;}
	.st92{fill:#BCB4B1;}
	.st93{fill:#999793;}
	.st94{fill:#8E8E87;}
	.st95{fill:#A3A19D;}
	.st96{fill:#B5B4B1;}
	.st97{fill:#A8A7A7;}
	.st98{fill:#A09D97;}
	.st99{fill:#D3CFC3;}
	.st100{fill:#ADAAA6;}
	.st101{fill:#B2B1AF;}
	.st102{fill:#9B978F;}
	.st103{fill:#AAA7A0;}
	.st104{fill:#CCC8C4;}
	.st105{fill:#D3D0CD;}
	.st106{fill:#C9C3BD;}
	.st107{fill:#B2AFA8;}
	.st108{fill:#999692;}
	.st109{fill:#898683;}
	.st110{fill:#A3A29B;}
	.st111{fill:#B2AEAA;}
	.st112{fill:#D6D0C9;}
	.st113{fill:#918D87;}
	.st114{fill:#DBD5C6;}
	.st115{fill:#B7B3AE;}
	.st116{fill:#C4C1BB;}
	.st117{fill:#9B9891;}
	.st118{fill:#D8D5CB;}
	.st119{fill:#939089;}
	.st120{fill:#A8A6A0;}
	.st121{fill:#D8D5D0;}
	.st122{fill:#A8A49B;}
	.st123{fill:#96928A;}
	.st124{fill:#CEC8C2;}
	.st125{fill:#C4996C;}
	.st126{fill:#B7845A;}
	.st127{fill:#D5A776;}
	.st128{fill:#477F16;}
	.st129{fill:#436818;}
	.st130{fill:#AA7B43;}
	.st131{fill:#B79056;}
	.st132{fill:#AD9655;}
	.st133{fill:#DD9D68;}
	.st134{fill:#C18B59;stroke:#A87848;stroke-miterlimit:10;}
	.st135{fill:#B28056;}
	.st136{fill:#AD7D59;}
	.st137{fill:#AA7D5C;}
	.st138{fill:#DDCBBF;}
	.st139{fill:#DBDAD9;}
	.st140{fill:#D8A380;}
	.st141{fill:#CE987A;}
	.st142{fill:#CC9D85;}
	.st143{fill:#C6977F;}
	.st144{fill:#C19784;}
	.st145{fill:#C69B8B;}
	.st146{fill:#B7958B;}
	.st147{fill:#AF8958;}
	.st148{fill:#967A60;}
	.st149{fill:#C9D1D3;}
	.st150{fill:#635C55;}
	.st151{fill:#65868F;}
	.st152{fill:#6CC1A0;}
	.st153{fill:#EFCE8E;}
	.st154{fill:#60523B;}
	.st155{fill:#EFC58E;}
	.st156{fill:#6D5D41;}
	.st157{fill:#E8C192;}
	.st158{fill:#EFCA7F;}
	.st159{fill:#FFFFFF;}
	.st160{fill:#E5C57C;}
	.st161{fill:#59585E;}
	.st162{fill:#6FC9A9;}
	.st163{fill:#686770;}
	.st164{fill:#7F6752;}
	.st165{fill:#777770;}
	.st166{fill:#F29575;}
	.st167{fill:#CE6E6E;}
	.st168{fill:#3F3831;}
	.st169{fill:#86D1B1;}
	.st170{fill:#2D2924;}
	.st171{fill:none;stroke:#2D2924;stroke-width:24;stroke-miterlimit:10;}
	.st172{fill:none;stroke:#2D2924;stroke-width:24;stroke-miterlimit:10;stroke-dasharray:10.0234,10.0234;}
	.st173{fill:#C0D3D7;}
	.st174{fill:#98A9B1;}
	.st175{fill:#D8372D;}
	.st176{fill:#414143;}
	.st177{fill:#EE5547;}
	.st178{fill:#A22921;}
	.st179{fill:#9C271F;}
	.st180{fill:#D2C4A9;}
	.st181{fill:#ABABAB;}
	.st182{fill:#4F4F4F;}
	.st183{fill:none;stroke:#2D2924;stroke-width:18;stroke-miterlimit:10;}
	.st184{fill:none;stroke:#2D2924;stroke-width:18;stroke-miterlimit:10;stroke-dasharray:8.8394,8.8394;}
	.st185{fill:none;stroke:#2D2924;stroke-width:18;stroke-miterlimit:10;stroke-dasharray:9.9611,9.9611;}
	.st186{fill:#E26B47;}
	.st187{fill:#FF8243;}
	.st188{fill:#47413F;}
	.st189{fill:#EF8424;}
	.st190{fill:#FDA83D;}
	.st191{fill:#994E22;}
	.st192{fill:#965F29;}
	.st193{fill:#7F7F7F;}
	.st194{fill:#D6D5D4;}
	.st195{fill:#C98235;}
	.st196{fill:#999999;}
	.st197{fill:#E2E1E0;}
	.st198{fill:#D98D31;}
	.st199{fill:#B5B5B5;}
	.st200{fill:url(#gradient_1_);}
	.st201{fill:#997933;}
	.st202{fill:#937334;}
	.st203{fill:#A9DB52;}
	.st204{fill:#96C639;}
	.st205{fill:#82B71C;}
	.st206{fill:#B6E55C;}
	.st207{fill:#90C125;}
	.st208{fill:#A9D146;}
	.st209{fill:#8E7036;}
	.st210{fill:#846939;}
	.st211{fill:#78A038;stroke:#81AD2B;stroke-width:3;stroke-miterlimit:10;}
	.st212{fill:#658E30;}
	.st213{fill:#85AA44;}
	.st214{fill:#7EAF31;}
	.st215{fill:#018287;}
	.st216{fill:#0F0F0F;}
	.st217{fill:#303030;}
	.st218{fill:#333333;}
	.st219{fill:#1A1A1A;}
	.st220{fill:#424242;}
	.st221{fill:#00666A;}
	.st222{fill:#212121;}
	.st223{fill:#111111;}
	.st224{fill:#A3A3A3;}
	.st225{fill:#ACACAE;}
	.st226{fill:#161616;}
	.st227{fill:#00686B;}
	.st228{fill:#161616;stroke:#373737;stroke-miterlimit:10;}
	.st229{fill:none;stroke:#D98D31;stroke-miterlimit:10;}
	.st230{fill:#242424;}
	.st231{fill:#373737;}
	.st232{fill:url(#gradient2_1_);}
	.st233{fill:url(#gradient3_1_);}
	.st234{fill:#B67D56;}
	.st235{fill:#83492A;}
	.st236{fill:#9C6038;}
	.st237{fill:#683920;}
	.st238{fill:#563119;}
	.st239{fill:#CC9E75;}
	.st240{fill:#633A23;}
	.st241{fill:#F9F6CD;stroke:#000000;stroke-miterlimit:10;}
	.st242{fill:none;stroke:#2D2924;stroke-width:24;stroke-miterlimit:10;stroke-dasharray:9.8069,9.8069;}
	.st243{fill:none;stroke:#2D2924;stroke-width:18;stroke-miterlimit:10;stroke-dasharray:11.8613,11.8613;}
	.st244{fill:none;stroke:#2D2924;stroke-width:18;stroke-miterlimit:10;stroke-dasharray:10.2463,10.2463;}
	.st245{fill:#C4ED6B;stroke:#000000;stroke-miterlimit:10;}
	.st246{fill:#EAAB6C;stroke:#EAAB6C;stroke-miterlimit:10;}
	.st247{fill:none;stroke:#FFC088;stroke-miterlimit:10;}
	.st248{fill:#FFC088;stroke:#FFC088;stroke-miterlimit:10;}
	.st249{fill:#996531;}
	.st250{fill:#776947;}
	.st251{fill:#7F735C;}
	.st252{fill:#E1EA6C;stroke:#000000;stroke-miterlimit:10;}
	.st253{fill:#D6A3A3;}
	.st254{fill:#55B7BC;}
</style>
<g id="dealer_2_">
	<g id="body_x5F_dealer_1_">
		<path class="st25" d="M406.6,1130.8l-7.2,1.6c-9.2,2.1-17.9,6-25.5,11.5l-14.2,10.2l38.8,28.2l48.9,21.7l44-18.3l24-31.6l-16-11.4
			c-7.4-5.3-15.6-9.3-24.3-12l0,0H406.6z"/>
		<polygon class="st26" points="407.3,1081.2 407.3,1125.2 404,1154.1 476.9,1154.1 474.4,1121.9 474.2,1083.2 		"/>
		<path class="st26" d="M380.6,1146.5l-7.6,4.3c-1.9,1.1-1.9,5.7,0,6.9l21.8,13.4c3.4,2.1,7,3.6,10.6,4.5l34,8.2
			c5.5,1.3,11.1,1.4,16.6,0.3l15.4-3.2c10.7-2.2,20.9-9.3,29.5-20.5h0c2-2.6,1.5-8.1-0.9-9.5l-10.3-6c-1.4-0.8-2.7-1.4-4.1-2
			l-40.6-6.8l-54.3,6.6C387.3,1143.3,383.9,1144.6,380.6,1146.5z"/>
		<path class="st27" d="M359.8,1154.1l-42.2,20.1l-15,22.5l-9.2,35.4l-4.8,116.3c-0.6,14.7-3,29.3-7.1,43.4l-3.9,13.4
			c-3.9,13.3-6.7,27-8.4,40.8l-2.7,22c-0.7,5.9-0.7,11.8,0.2,17.7l0,0c2.2,15.3,8.6,29.6,18.6,41.4l2.4,2.9l36.7,12.9l62.8,11.3
			l17.2,1.8c28.6,3.1,57.5,2.4,85.9-1.8l10.8-1.6l45.3-8.1c5.9-1.1,11.7-3.2,16.9-6.2l0,0c18.2-10.7,33.8-25.4,45.7-42.8v0
			c1.1-1.6,1.7-3.5,1.7-5.4v-23.4c0-5.6-0.4-11.1-1.2-16.6l-3.4-24.7c-1.1-7.7-2.7-15.2-4.8-22.7l-3.6-12.5
			c-4.4-15.1-7-30.7-7.7-46.4l-6.1-127.7l-7.2-30.3l-17.4-18.1l-43.7-13.5l-13.7,18.1c-6.7,8.9-15.7,15.8-26,20.1l-14,5.8
			c-9.1,3.8-19.4,3.7-28.4-0.4l-30.4-13.5c-2.9-1.3-5.6-2.9-8.2-4.7L359.8,1154.1z"/>
		<g id="headdealer_2_">
			<path class="st28" d="M333.6,874v-40.5l2.5-41.3l11.5-41.3l18.1-26.3c0,0,21.1-18.4,22.6-18.4c1.5,0,29-8.8,29-8.8l30.2-4.4
				l30.2,5.3l27,14.1l23.1,21.1l11,20.2l8,34.2l2.5,44.8l-2,77.3l5.5,42.3c1,7.5,1.5,15.2,1.5,22.9v17.7c0,11.1-1,22.2-3.1,32.8
				l-2,10.4c-2.6,13.5-6.8,25.9-12.3,36.4l-5.8,11c-5.6,10.8-12.6,19.3-20.2,25l-9.5,7c-4,3-8.2,5.2-12.5,6.5l-18.8,6
				c-3.5,1.1-6.9,2.7-10.2,4.9l-7.3,4.8c-3.5,2.3-7.2,3.4-10.9,3.4h-4.8c-2.4,0-4.7-1.1-6.8-3.2h0c-5-5.1-10.6-8.4-16.3-9.7l-5-1.1
				c-7.1-1.6-14.2-4.2-21.1-7.7l-3.2-1.6c-7.7-3.9-15.1-9.5-22-16.6l-5.8-6c-6.2-6.4-11.7-14.7-16.2-24.6l-1.7-3.7
				c-6.1-13.3-10.4-28.8-12.7-45.4l-0.5-3.8c-1.6-11.4-2.2-23.2-1.8-34.9l0.9-24.6c0.3-7.8,1.1-15.5,2.6-22.9l6-30.4V874z"/>
			<ellipse class="st29" cx="406.4" cy="874" rx="27.1" ry="26.5"/>
			<ellipse class="st30" cx="406.4" cy="874" rx="10.9" ry="19.1"/>
			<ellipse class="st29" cx="488.7" cy="874" rx="27.1" ry="26.5"/>
			<ellipse class="st30" cx="488.7" cy="874" rx="10.9" ry="19.1"/>
			<path class="st31" d="M370.7,815.3l1.2,10.5c0.2,1.8,1.2,2.9,2.2,2.4l14.3-6.9c1.6-0.8,3.3-1.4,4.9-1.7l14.6-3.1
				c1.5-0.3,3.1-0.4,4.6-0.1l21.1,3.8l7.2,1.6c0.5,0.1,0.9-1.1,0.4-1.7l-3.6-5.5c-1.5-2.3-3.2-4-5.1-5.1l-11.1-6.8
				c-3.6-2.2-7.4-3.3-11.2-3.3h-13c-3.9,0-7.7,1.1-11.4,3.1l-13.2,7.4C371.2,810.5,370.4,812.9,370.7,815.3z"/>
			<path class="st31" d="M522.8,813.5l-1.3,12.9c-0.1,1.2-0.8,2-1.5,1.7l-15.1-6.7c-1.6-0.7-3.2-1.2-4.8-1.5l-13.9-2.5
				c-2-0.4-4.1-0.3-6.1,0.1l-20.3,4.3l-6.8,1.7c-0.7,0.2-1-1.3-0.5-2l2.7-4.3c1.8-2.9,4-5.2,6.3-6.7l11.6-7.6
				c2.7-1.7,5.5-2.7,8.4-2.8l14.9-0.5c3.6-0.1,7.1,0.7,10.6,2.5l14.4,7.6C522.4,810.3,522.9,811.9,522.8,813.5z"/>
			<path class="st26" d="M442.9,906.7l-3,19.5c-0.4,2.8-1.2,5.5-2.1,7.9l-5.3,12.9c-1,2.4-2.2,4.5-3.6,6.3l-3.8,4.8
				c-1.6,2-2.8,4.8-3.5,8l-0.2,0.8c-0.6,2.7-0.3,5.8,0.7,8.2h0c1.3,3,3.2,5.1,5.4,5.9l6,2.3l8.9,2.3c0.7,0.2,1.5,0.3,2.2,0.3h6.7
				c1.2,0,2.3-0.2,3.5-0.5l4.8-1.5c2.1-0.7,4.2-2.2,5.9-4.5l0.5-0.6c1.4-1.9,2.4-4.5,2.8-7.5l0,0c0.4-3,0.1-6.1-0.8-8.7l-1.7-4.8
				c-0.4-1.2-0.9-2.2-1.5-3.2l-4.6-8.1c-0.9-1.5-1.6-3.3-2.1-5.2l-3.6-13.3c-0.6-2.1-1-4.2-1.3-6.5l-1.7-13.5c-0.3-2.5-1-4.8-2-6.6
				l0,0c-0.9-1.7-2.4-2.1-3.6-1l0,0C444.4,901.6,443.3,903.9,442.9,906.7z"/>
			<polygon class="st32" points="394.2,1009.5 410,1023.6 432.6,1033.2 457.5,1033.2 478.8,1024.9 495.6,1013 484.1,1054.3 
				465.2,1073.6 442.4,1082.4 422.8,1076.3 405.8,1059.1 399.1,1038.5 			"/>
			<path class="st29" d="M404.8,1019l5.2,4.6l22.6,9.7h24.9l21.3-8.3l6.4-4.5l-1.8,7.6c-0.8,3.3-2.4,5.9-4.4,7l-11.2,6.2l-13.3,4.4
				c-0.9,0.3-1.9,0.5-2.9,0.5h-15.9l-13-2.4c-1.5-0.3-3-1-4.4-2l-8.8-6.7c-1.9-1.5-3.4-4.5-3.8-8.2L404.8,1019z"/>
			<path class="st29" d="M409.3,1062.7l13.5,13.6l19.6,6.1l22.8-8.8l15.5-15.9l-1.6-3.2c-0.8-1.6-2.2-2.1-3.2-1l-8.8,8.2
				c-1.3,1.3-2.8,2.1-4.3,2.6l-17.8,5.7c-1.7,0.6-3.5,0.6-5.2,0.3l-12.1-2.5c-2.2-0.5-4.4-1.7-6.4-3.6l-6.5-6.2
				c-1.1-1-2.4-0.7-3.3,0.7L409.3,1062.7z"/>
			<path class="st33" d="M424.5,1067l18.1,3.7l22.6-7.2l-4-3.7c-2.6-2.3-5.4-3.6-8.3-3.6h-4.3h-10.9H435c-3.6,0-6.9,2.8-9.1,7.7
				L424.5,1067z"/>
			<ellipse class="st28" cx="326.4" cy="893.1" rx="12.2" ry="43.6"/>
			<ellipse class="st34" cx="325.4" cy="889.2" rx="6.6" ry="27.7"/>
			<ellipse class="st28" cx="554.5" cy="893.1" rx="12.2" ry="43.6"/>
			<ellipse class="st34" cx="556.3" cy="889.2" rx="5.9" ry="27.7"/>
			<path class="st35" d="M329.6,851l4,6.9l2.3,16.1l2.8,19.1l8.3,3.6l-2-35.2l0.3-26.3l3.8-35.5l10-28.2l16.6-12.3h9l7.8,12.3
				l-1-12.3l-3-7l10,2.2l10.3,7l1.5-9.2v-7l11,1.8l19.2,4.8l-3.3-9.2l18.6,2.2l13.4,7.5l5.7,10.1v-11l-1-8.8l8.8,5.3l8.3,8.8l6,12.7
				l2.9-13.2l5.4-4l6.3,2.2l8.5,12.7l7.5,15.4l4,17.2l2-10.2l2.5,19.3l1.8,19.4l2.3,29.8v18.4l6.5-4.8l2.4-16.8l1.5-7.4l1.8-19.3
				l4.1-21.6l-1.8-15.4l-5.3-34.2l5.3,5.7l-8.5-22l-12.8-14.1l9.1-11l-12.4-4.4l-10-16.2l-2.5,7.9l-6.8-20.6l-8,4.4L491,672.7
				l-23.8,2.2l-10.3-18.9l1.3,19.8L436,653l9,14.5v7.5l-13.8-6.6c0,0-8.7,4.8-10.1,6.1s-24.5,7.5-24.5,7.5l4-11l-12.6,5.3l-5.5,12.7
				H362l-11.5,7.5l11,1.3l6.3,2.6l-10.8,12.7l-12.8,14.9L332,746.5l-2.4,14.5l6.5-9.7l6.5-3.1l-5.8,15.8l-4.8,21.5l-4.2,19.3
				l-1.4,19.8L329.6,851z"/>
		</g>
		<path class="st36" d="M287.7,1530.1l2.9,91.2l4.3,81.6l4.9,63.3l3.1,29l22.1,7.5h33.1h22.7l12.9-5.4l10.1-67.6
			c3.1-20.7,7.8-41.2,14.1-61.2l6.7-21.3c4.8-15.1,10.5-29.9,17.2-44.2l6.7-14.2c1.1-2.4,4.6-2.4,5.8,0l11.3,23.8
			c2.4,5.1,4.6,10.4,6.4,15.7l13.6,39.9c5.4,16,9.4,32.4,11.9,49.1l11,74.7l6.9,6.4l21.3,4.3h28.2l25.8-7.5l3.1-30.1l4.3-65.5
			l3.7-92.3l-4.8-96.5l-17.2,14.7c-16,11.5-34.3,19.2-53.7,22.7l-24.9,4.4l-0.5,0.1c-35.3,5.3-71.1,6.1-106.6,2.3l-6.8-0.7l-51-9.2
			c-7.8-1.4-15.5-3.4-22.9-6L287.7,1530.1z"/>
		<path class="st37" d="M317.1,1174.3l-15.2,7.5l-17,29.4l-19.7,48.5l-21.6,60.5l-20.7,76.3l-16.2,74.9c-1.6,7.2-1,15.3,1.6,21.6
			l0,0c2.8,7,6.9,12,11.7,14.2l5.6,2.6c4.5,2.2,9.2,3.2,13.9,3.2l0,0c1.9,0,3.7-2.1,4.4-5.2l12-53.5l13.1-58.7l16.9-52l22.5-40.3
			l14.1-43.7l10.3-53.5v-24.3L317.1,1174.3z"/>
		<path class="st38" d="M295.6,1815l3.5-6.7c3.8-7.4,8.9-12.8,14.4-15.2l5-2.2c2.4-1.1,4.9-1.6,7.4-1.6h17.9h21.6h10.7
			c4.9,0,9.6,3.2,13.2,9.1l1.2,1.9c2.5,4,4.6,8.7,6.2,13.9l0.8,2.6c1.3,4.3,2.3,9,2.9,13.8l3.1,26.8l-15.7,6.8l-23.3,5.8
			c-2.8,0.7-5.7,1-8.5,1h-20.9c-2.2,0-4.5-0.4-6.7-1.1l-23.2-7.5l-16.4-6.8l1.7-21.3C291,1827.2,292.8,1820.4,295.6,1815z"/>
		<path class="st39" d="M288.7,1855.7v15.3l22.7,8.1c13.5,4.8,27.2,7.2,40.9,7.2h0c7.4,0,14.8-1.4,22-4.2l29.1-11.2v-13.6
			l-37.5,11.8c-3.9,1.2-7.8,1.8-11.7,1.8h-12.6c-6.7,0-13.3-1.2-19.8-3.5L288.7,1855.7z"/>
		<path class="st38" d="M602.5,1815.5l-4.1-7.7c-3.4-6.4-7.8-10.9-12.7-13l-5.9-2.5c-2.5-1.1-5.2-1.6-7.8-1.5l-17.7,0.5l-21.6,0.6
			l-10.6,0.3c-5,0.1-9.8,3.6-13.4,9.6l-2,3.3c-1.8,3.1-3.4,6.7-4.5,10.6l-1.7,5.8c-1.1,3.6-1.8,7.5-2.3,11.5l-3,28.2l15.8,6.4
			l22.3,4.9c3.6,0.8,7.1,1.1,10.7,1l16.5-0.4c4.4-0.1,8.8-0.9,13.1-2.4l20-7l16.3-7.2l-1.9-20.8C607.4,1828,605.5,1821,602.5,1815.5
			z"/>
		<path class="st39" d="M609.9,1856.3l0.1,15.3l-27.7,10.7c-10,3.9-20.2,5.9-30.5,6.2h0c-10.9,0.3-21.8-1.5-32.4-5.3l-24.1-8.6
			l-0.1-13.6l37.5,10.8c3.9,1.1,7.9,1.7,11.9,1.6l14.8-0.4c5.2-0.1,10.3-1.2,15.3-3.1L609.9,1856.3z"/>
		<path class="st28" d="M239.4,1513.1l3.1,27.5c0.1,2.9,0.2,5.7,0.4,8.5l1.7,23.1c0.3,3.6-0.1,7.3-1.1,10.7l-0.4,1.3
			c-0.5,1.6-1.6,2.3-2.6,1.5l0,0c-2.2-1.6-3.9-4.6-4.8-8.2l-2.7-11.2l-1.4,30.2c-0.1,3.2-1.1,6.2-2.6,8.3l0,0
			c-3.7,5.2-8.7,7.2-13.4,5.4l-4-1.5c-5.8-2.2-11-7.4-14.9-15l-4.6-9.1c-2.7-5.3-3.8-12.3-3.1-19.1l2.9-28.6
			c0.6-5.9,1.8-11.6,3.4-16.8l12.8-27.1l6,8.9l7.7,6.3l10.9,4.3L239.4,1513.1z"/>
	</g>
	<g id="arm_x5F_dealer_2_">
		<g id="first-arm-dealer_2_">
			<path class="st37" d="M653.7,1301.1l-13.4-11.7l-10.7,4.8l-5.3,9.4l0.6,12.7l4,19.2l10.4,20.6l19.3,30.6l18.6,26.3l21.8,28.4
				l15,17.8c0,0,6.5-5.6,8.3-8.5l1.3-2c0.8-1.3,1.5-2.7,2.2-4.2l0,0c2.8-6.7,6.5-14.7,6.1-23.9l-25.5-42.7l-26.2-41.1L653.7,1301.1z
				"/>
			<path class="st28" d="M731.5,1423.6l18.3,5.6c1.7,1.3,3.4,2.4,5.1,3.4l14.1,8.4c2.2,1.3,4.3,3.6,6,6.6l0.7,1.2
				c0.8,1.4,1,3.5,0.3,4.6h0c-1.5,2.5-3.6,3.6-6,3.2l-7.2-1.2l17.5,16.4c1.9,1.8,3.4,4.6,4.3,7.8l0,0c2.2,8,2.1,16.4-0.1,22.6
				l-6.6,9.4c-5.1,7.3-11.3,12.5-18.3,15.4l-7.3,3c-2.4,1-5.4-0.8-7.5-4.5l-5.9-10.6l-8.2-15.9c0,0-4.7-10.1-6.7-15.6l-8.8-25
				l4.9-5.4l5.6-8.5l5.2-14.2L731.5,1423.6z"/>
		</g>
		<polygon id="second-arm-dealer_2_" class="st37" points="575.4,1178.2 589.1,1192.1 608.1,1217.3 633.2,1256.1 651.4,1291.3 
			651.9,1317.5 644.4,1333.3 634,1339.1 617.1,1325.6 592.7,1300.8 564,1258 543.6,1224.3 538.3,1209 538.3,1198.5 541.5,1191.8 
			546.6,1184.7 557.6,1178.7 569,1176.4 		"/>
	</g>
</g>
</svg>
