<?xml version="1.0" encoding="utf-8"?>
<!-- Generator: Adobe Illustrator 21.1.0, SVG Export Plug-In . SVG Version: 6.00 Build 0)  -->
<svg version="1.1" id="game" xmlns="http://www.w3.org/2000/svg" xmlns:xlink="http://www.w3.org/1999/xlink" x="0px" y="0px"
	 viewBox="0 0 1668 2906.6" style="enable-background:new 0 0 1668 2906.6;" xml:space="preserve">
<style type="text/css">
	.st0{fill:url(#gradient4_1_);}
	.st1{fill:url(#gradient5_1_);}
	.st2{fill:#66E2FF;}
	.st3{fill:none;stroke:#B28052;stroke-miterlimit:10;}
	.st4{fill:#96735C;}
	.st5{fill:#825D49;stroke:#BF8A5E;stroke-miterlimit:10;}
	.st6{fill:#AD7D5C;stroke:#B28052;stroke-miterlimit:10;}
	.st7{fill:#BC8864;stroke:#B28052;stroke-miterlimit:10;}
	.st8{fill:#A37B61;}
	.st9{fill:#BC8866;}
	.st10{fill:#E0A57E;stroke:#B28052;stroke-miterlimit:10;}
	.st11{fill:#D19A7C;stroke:#B28052;stroke-miterlimit:10;}
	.st12{fill:#F4DBCE;}
	.st13{fill:#DBC7BF;}
	.st14{fill:#8E684F;stroke:#BF8A5E;stroke-miterlimit:10;}
	.st15{fill:#AD753E;}
	.st16{fill:#966636;}
	.st17{fill:#A87339;}
	.st18{fill:#BC8651;}
	.st19{fill:#AA7A4F;}
	.st20{fill:#C99465;}
	.st21{fill:none;stroke:#634B2A;stroke-miterlimit:10;}
	.st22{fill:#B28052;}
	.st23{fill:#96674D;stroke:#A57758;stroke-width:3;stroke-miterlimit:10;}
	.st24{fill:none;stroke:#A57758;stroke-width:3;stroke-miterlimit:10;}
	.st25{fill:#5C7552;}
	.st26{fill:#E2CA96;}
	.st27{fill:#6F8763;}
	.st28{fill:#EAD7A2;}
	.st29{fill:#F9F2EF;}
	.st30{fill:#382C26;}
	.st31{fill:#936F5F;}
	.st32{fill:#7C655C;}
	.st33{fill:#F9A182;}
	.st34{fill:#DBC697;}
	.st35{fill:#8C7857;}
	.st36{fill:#635872;}
	.st37{fill:#6B7F60;}
	.st38{fill:#755D3F;}
	.st39{fill:#C9B8A7;}
	.st40{fill:#00CFFF;}
	.st41{fill:#03CDE2;}
	.st42{fill:#00DBFF;}
	.st43{fill:#00E7FF;}
	.st44{fill:#00F3FF;}
	.st45{fill:#2EFFF9;}
	.st46{fill:#78FFF8;}
	.st47{fill:#FFF0BF;}
	.st48{fill:#F7E4A6;}
	.st49{fill:#BCCC60;}
	.st50{fill:url(#sea_1_);}
	.st51{fill:#98958C;}
	.st52{fill:#ACA7A1;}
	.st53{fill:#C2BEB5;}
	.st54{fill:#D6C8A3;}
	.st55{fill:#D3C7A7;}
	.st56{fill:#DBCDAF;}
	.st57{fill:#ADA8A2;}
	.st58{fill:#99968D;}
	.st59{fill:#C2BDB3;}
	.st60{fill:#8D8880;}
	.st61{fill:#D3CAB2;}
	.st62{fill:#8B877E;}
	.st63{fill:#9B988F;}
	.st64{fill:#B9B2AA;}
	.st65{fill:#C3BFB6;}
	.st66{fill:#DDCFAF;}
	.st67{fill:#CCBFA6;}
	.st68{fill:#CED18B;}
	.st69{fill:#99968B;}
	.st70{fill:#969089;}
	.st71{fill:#C4BFB3;}
	.st72{fill:#939189;}
	.st73{fill:#B7B5AB;}
	.st74{fill:#C6BBA5;}
	.st75{fill:#CEC2AA;}
	.st76{fill:#CCC1AA;}
	.st77{fill:#9E9C95;}
	.st78{fill:#C9BDA6;}
	.st79{fill:#C6BBA7;}
	.st80{fill:#BAB3A6;}
	.st81{fill:#A5A299;}
	.st82{fill:#CCC0A8;}
	.st83{fill:#C3BFB4;}
	.st84{fill:#9A978E;}
	.st85{fill:#B8B1AA;}
	.st86{fill:#8D877F;}
	.st87{fill:#C4BCA9;}
	.st88{fill:#B5AD9E;}
	.st89{fill:#C5BEB6;}
	.st90{fill:#B5B3AC;}
	.st91{fill:#D5D1C6;}
	.st92{fill:#BCB4B1;}
	.st93{fill:#999793;}
	.st94{fill:#8E8E87;}
	.st95{fill:#A3A19D;}
	.st96{fill:#B5B4B1;}
	.st97{fill:#A8A7A7;}
	.st98{fill:#A09D97;}
	.st99{fill:#D3CFC3;}
	.st100{fill:#ADAAA6;}
	.st101{fill:#B2B1AF;}
	.st102{fill:#9B978F;}
	.st103{fill:#AAA7A0;}
	.st104{fill:#CCC8C4;}
	.st105{fill:#D3D0CD;}
	.st106{fill:#C9C3BD;}
	.st107{fill:#B2AFA8;}
	.st108{fill:#999692;}
	.st109{fill:#898683;}
	.st110{fill:#A3A29B;}
	.st111{fill:#B2AEAA;}
	.st112{fill:#D6D0C9;}
	.st113{fill:#918D87;}
	.st114{fill:#DBD5C6;}
	.st115{fill:#B7B3AE;}
	.st116{fill:#C4C1BB;}
	.st117{fill:#9B9891;}
	.st118{fill:#D8D5CB;}
	.st119{fill:#939089;}
	.st120{fill:#A8A6A0;}
	.st121{fill:#D8D5D0;}
	.st122{fill:#A8A49B;}
	.st123{fill:#96928A;}
	.st124{fill:#CEC8C2;}
	.st125{fill:#C4996C;}
	.st126{fill:#B7845A;}
	.st127{fill:#D5A776;}
	.st128{fill:#477F16;}
	.st129{fill:#436818;}
	.st130{fill:#AA7B43;}
	.st131{fill:#B79056;}
	.st132{fill:#AD9655;}
	.st133{fill:#DD9D68;}
	.st134{fill:#C18B59;stroke:#A87848;stroke-miterlimit:10;}
	.st135{fill:#B28056;}
	.st136{fill:#AD7D59;}
	.st137{fill:#AA7D5C;}
	.st138{fill:#DDCBBF;}
	.st139{fill:#DBDAD9;}
	.st140{fill:#D8A380;}
	.st141{fill:#CE987A;}
	.st142{fill:#CC9D85;}
	.st143{fill:#C6977F;}
	.st144{fill:#C19784;}
	.st145{fill:#C69B8B;}
	.st146{fill:#B7958B;}
	.st147{fill:#AF8958;}
	.st148{fill:#967A60;}
	.st149{fill:#C9D1D3;}
	.st150{fill:#635C55;}
	.st151{fill:#65868F;}
	.st152{fill:#6CC1A0;}
	.st153{fill:#EFCE8E;}
	.st154{fill:#60523B;}
	.st155{fill:#EFC58E;}
	.st156{fill:#6D5D41;}
	.st157{fill:#E8C192;}
	.st158{fill:#EFCA7F;}
	.st159{fill:#FFFFFF;}
	.st160{fill:#E5C57C;}
	.st161{fill:#59585E;}
	.st162{fill:#6FC9A9;}
	.st163{fill:#686770;}
	.st164{fill:#7F6752;}
	.st165{fill:#777770;}
	.st166{fill:#F29575;}
	.st167{fill:#CE6E6E;}
	.st168{fill:#3F3831;}
	.st169{fill:#86D1B1;}
	.st170{fill:#2D2924;}
	.st171{fill:none;stroke:#2D2924;stroke-width:24;stroke-miterlimit:10;}
	.st172{fill:none;stroke:#2D2924;stroke-width:24;stroke-miterlimit:10;stroke-dasharray:10.0234,10.0234;}
	.st173{fill:#C0D3D7;}
	.st174{fill:#98A9B1;}
	.st175{fill:#D8372D;}
	.st176{fill:#414143;}
	.st177{fill:#EE5547;}
	.st178{fill:#A22921;}
	.st179{fill:#9C271F;}
	.st180{fill:#D2C4A9;}
	.st181{fill:#ABABAB;}
	.st182{fill:#4F4F4F;}
	.st183{fill:none;stroke:#2D2924;stroke-width:18;stroke-miterlimit:10;}
	.st184{fill:none;stroke:#2D2924;stroke-width:18;stroke-miterlimit:10;stroke-dasharray:8.8394,8.8394;}
	.st185{fill:none;stroke:#2D2924;stroke-width:18;stroke-miterlimit:10;stroke-dasharray:9.9611,9.9611;}
	.st186{fill:#E26B47;}
	.st187{fill:#FF8243;}
	.st188{fill:#47413F;}
	.st189{fill:#EF8424;}
	.st190{fill:#FDA83D;}
	.st191{fill:#994E22;}
	.st192{fill:#965F29;}
	.st193{fill:#7F7F7F;}
	.st194{fill:#D6D5D4;}
	.st195{fill:#C98235;}
	.st196{fill:#999999;}
	.st197{fill:#E2E1E0;}
	.st198{fill:#D98D31;}
	.st199{fill:#B5B5B5;}
	.st200{fill:url(#gradient_1_);}
	.st201{fill:#997933;}
	.st202{fill:#937334;}
	.st203{fill:#A9DB52;}
	.st204{fill:#96C639;}
	.st205{fill:#82B71C;}
	.st206{fill:#B6E55C;}
	.st207{fill:#90C125;}
	.st208{fill:#A9D146;}
	.st209{fill:#8E7036;}
	.st210{fill:#846939;}
	.st211{fill:#78A038;stroke:#81AD2B;stroke-width:3;stroke-miterlimit:10;}
	.st212{fill:#658E30;}
	.st213{fill:#85AA44;}
	.st214{fill:#7EAF31;}
	.st215{fill:#018287;}
	.st216{fill:#0F0F0F;}
	.st217{fill:#303030;}
	.st218{fill:#333333;}
	.st219{fill:#1A1A1A;}
	.st220{fill:#424242;}
	.st221{fill:#00666A;}
	.st222{fill:#212121;}
	.st223{fill:#111111;}
	.st224{fill:#A3A3A3;}
	.st225{fill:#ACACAE;}
	.st226{fill:#161616;}
	.st227{fill:#00686B;}
	.st228{fill:#161616;stroke:#373737;stroke-miterlimit:10;}
	.st229{fill:none;stroke:#D98D31;stroke-miterlimit:10;}
	.st230{fill:#242424;}
	.st231{fill:#373737;}
	.st232{fill:url(#gradient2_1_);}
	.st233{fill:url(#gradient3_1_);}
	.st234{fill:#B67D56;}
	.st235{fill:#83492A;}
	.st236{fill:#9C6038;}
	.st237{fill:#683920;}
	.st238{fill:#563119;}
	.st239{fill:#CC9E75;}
	.st240{fill:#633A23;}
	.st241{fill:#C4ED6B;stroke:#000000;stroke-miterlimit:10;}
	.st242{fill:#435E60;}
	.st243{fill:#E1EA6C;stroke:#000000;stroke-miterlimit:10;}
	.st244{fill:#D6A3A3;}
	.st245{fill:#F94848;}
	.st246{fill:#F9F6CD;stroke:#000000;stroke-miterlimit:10;}
	.st247{fill:#EAAB6C;stroke:#EAAB6C;stroke-miterlimit:10;}
	.st248{fill:none;stroke:#FFC088;stroke-miterlimit:10;}
	.st249{fill:#FFC088;stroke:#FFC088;stroke-miterlimit:10;}
	.st250{fill:#996531;}
	.st251{fill:#EDC500;}
	.st252{fill:#D1AF02;}
	.st253{font-family:'MyriadPro-Regular';}
	.st254{font-size:56px;}
	.st255{letter-spacing:5;}
	.st256{font-size:46px;}
	.st257{letter-spacing:4;}
	.st258{fill:none;stroke:#2D2924;stroke-width:18;stroke-miterlimit:10;stroke-dasharray:11.8613,11.8613;}
	.st259{fill:none;stroke:#2D2924;stroke-width:18;stroke-miterlimit:10;stroke-dasharray:10.2463,10.2463;}
	.st260{fill:none;stroke:#2D2924;stroke-width:24;stroke-miterlimit:10;stroke-dasharray:9.8069,9.8069;}
	.st261{fill:#776947;}
	.st262{fill:#7F735C;}
	.st263{font-size:72px;}
	.st264{letter-spacing:7;}
	.st265{fill:#FFFFFF;stroke:#000000;stroke-miterlimit:10;}
	.st266{fill:#5D91ED;}
</style>
<g id="menu_x5F_dealer">
	<g id="btn-buy_x5F_menu">
		<path class="st241" d="M1658,460.1H930.4V271.2h687c22.5,0,40.7,18.2,40.7,40.7V460.1z"/>
		<g id="buy">
			<g>
				<g>
					<path class="st242" d="M1094.4,303.5c-1.4,21.1-2.4,42.2-4.1,63.2c-0.8,9.9-2.7,19.4-6.2,28.7c-1.7,4.6-3.5,9.2-4.4,14.1
						c-0.8,4-0.5,9-3.6,12.1c-4.1,4.1,2.3,10.5,6.4,6.4c6.4-6.4,5.6-17.1,8.5-25.2c3.6-10.2,6.5-19.8,7.7-30.6
						c2.6-22.7,3.2-45.8,4.7-68.7C1103.8,297.8,1094.8,297.8,1094.4,303.5L1094.4,303.5z"/>
				</g>
			</g>
			<g>
				<g>
					<path class="st242" d="M1103.9,305.1c3.8-3.4,9.4-2.9,14.2-2.5c4.9,0.4,9.9,1,14.8,2.2c4.7,1.2,9.4,2.9,13.1,6.2
						c4.2,3.8,6.2,9.8,7.4,15.2c1.5,6.7-0.6,10.9-6.2,14.5c-4.4,2.9-9.2,5.4-14.1,7.7c-11,5-22.9,8.3-34.9,9.6
						c-4.6,0.5-6.7,7.9-1.2,8.8c15.3,2.7,30.9-1.8,46.1,1.4c5.9,1.2,11.9,3.6,15.8,8.5c4.8,6.1,5,14.9,4.1,22.3
						c-1.9,15.7-22.8,18.7-35.4,19.3c-8.1,0.4-16.3,0.2-24.4,1c-3.9,0.4-7.6,1-11.4,1.8c-1.9,0.4-3.7,0.8-5.6,1.1
						c-1.5,0.3-2.9,0.5-4.4,0.6c-2-0.1-2.5,0-1.5,0.3c0.7,0.9,1.4,1.8,2.1,2.7c-0.1-0.3-0.1-0.6-0.2-0.9c-0.4,1.5-0.8,2.9-1.2,4.4
						c0.2-0.2,0.4-0.4,0.6-0.5c4.4-3.8-2-10.1-6.4-6.4c-0.2,0.2-0.4,0.4-0.6,0.5c-1.2,1.1-1.5,2.9-1.2,4.4
						c1.6,6.7,10.2,4.5,15.1,3.7c8.4-1.4,16.4-2.9,24.9-3.1c14.3-0.4,29.2-0.1,42.3-6.7c5.5-2.7,10.9-6.9,13.8-12.5
						c3.1-6,3.2-14.1,2.6-20.7c-1.3-13.3-9.2-22.9-21.8-27.1c-16.6-5.5-34,0.3-50.8-2.7c-0.4,2.9-0.8,5.9-1.2,8.8
						c15.7-1.8,30.8-6.2,44.9-13.5c5.6-2.9,12-6.3,16-11.3c4.7-5.9,4.4-13.2,2.5-20.1c-3.8-13.9-12.3-22.5-26.3-26
						c-11.4-2.8-28.1-6-37.7,2.7C1093.2,302.6,1099.6,309,1103.9,305.1L1103.9,305.1z"/>
				</g>
			</g>
			<g>
				<g>
					<path class="st242" d="M1251.9,299.9c-4.9,22.3-8.3,44.9-10.1,67.6c-1.6,19.1-3.7,41.1,10.2,56.4c13,14.3,32.8,11.9,46.6,0.3
						c7.4-6.2,12.5-14.8,16.9-23.2c5-9.4,10.3-18.6,15.1-28.1c10.9-21.7,16.2-46,18.1-70.2c-3,0-6,0-9,0c1,23.1-5.3,45.3-9.7,67.8
						c-3.6,18.4-7.1,39.5,4,56.1c3.2,4.8,11,0.3,7.8-4.5c-11.1-16.6-5.4-38.6-1.6-56.6c4.4-20.7,9.4-41.4,8.5-62.7
						c-0.2-5.8-8.5-5.7-9,0c-1.5,19-5.3,38.1-12.4,55.8c-3.5,8.7-8.2,16.7-12.7,24.9c-4.3,7.8-8,15.9-12.8,23.4
						c-8.7,13.2-26.9,25.8-41.4,12.8c-13.8-12.4-11.1-33.7-9.8-50.2c1.8-22.6,5.1-45,10-67.2
						C1261.8,296.7,1253.1,294.3,1251.9,299.9L1251.9,299.9z"/>
				</g>
			</g>
			<g>
				<g>
					<path class="st242" d="M1410.2,305.8c17.2,15.6,31.2,34,41.5,54.8c1.9,3.9,8.8,2.1,8.4-2.3c-0.3-3.1,2.2-5.2,4.2-7.3
						c2.4-2.6,4.9-5.2,7.3-7.8c4.5-4.7,9.2-9.4,13.9-13.9c9.3-8.9,19-17.3,29-25.3c4.5-3.6-1.9-9.9-6.4-6.4
						c-11.5,9.2-22.5,18.9-33,29.1c-5.5,5.3-10.7,10.9-16,16.4c-4,4.3-8.7,8.7-8.2,15.1c2.8-0.8,5.6-1.5,8.4-2.3
						c-10.6-21.4-25.2-40.6-42.9-56.6C1412.3,295.6,1405.9,301.9,1410.2,305.8L1410.2,305.8z"/>
				</g>
			</g>
			<g>
				<g>
					<path class="st242" d="M1451.4,358.2c-2.3,21.1,3.5,42.9-3.6,63.4c-1.9,5.5,6.8,7.8,8.7,2.4c7.3-21.3,1.5-43.9,3.9-65.8
						C1461,352.4,1452,352.5,1451.4,358.2L1451.4,358.2z"/>
				</g>
			</g>
		</g>
	</g>
	<g id="btn-sell_x5F_menu">
		<path class="st243" d="M930.4,460.1H202.7V311.9c0-22.4,18.2-40.6,40.6-40.6h687V460.1z"/>
		<g id="sell">
			<g>
				<g>
					<path class="st242" d="M419.3,304.7c-21.5-7-48.5-7.6-68.5,4.1c-8,4.7-15.1,12.1-16.6,21.6c-1.8,10.6,5.8,17.1,14.8,20.6
						c22.8,8.9,49.7,7.1,71.1,19.6c10.9,6.4,9.7,23.5,6.9,34.1c-1.4,5.3-3.7,11.1-8.2,14.5c-4.9,3.7-11.9,4.1-17.8,4.6
						c-27.8,2.3-55.9-3.8-80.3-17.2c-5.1-2.8-9.6,5-4.5,7.8c21.2,11.6,44.9,18.2,69.2,18.8c10.9,0.3,23.8,0.4,34-4
						c10.3-4.5,15.2-15.2,17.3-25.7c2.1-10.5,2.4-24.8-4-34c-6.3-9-20-12.5-30-15.1c-12-3.1-24.3-4.8-36.3-7.7
						c-9.3-2.2-28.2-5.5-21.9-19.1c4.9-10.5,17.6-15.1,28.2-17.2c14.8-3,30.1-1.8,44.4,2.9C422.4,315.2,424.8,306.5,419.3,304.7
						L419.3,304.7z"/>
				</g>
			</g>
			<g>
				<g>
					<path class="st242" d="M499.5,363.2c3.9,4.8,9.7,5.5,15.5,6.1c8.5,0.9,17.2,1.3,25.7,1.3c12.8-0.1,26.7-1.1,37.8-8.2
						c10.7-6.9,18.1-19.5,15.8-32.4c-2.4-13.6-15.6-21.4-27.3-26.2c-11.7-4.7-30-9.9-40.6-0.5c-5,4.4-8.4,10.9-11.5,16.8
						c-3.5,6.7-6.5,13.7-8.8,20.9c-4.6,14-7.1,29.1-6.9,43.8c0.1,12.3,2.4,25.7,10.2,35.6c9.2,11.5,25.1,14.3,39.1,14.6
						c14.7,0.2,29.2-4,39.8-14.6c4.1-4.1-2.3-10.5-6.4-6.4c-7.6,7.6-17.6,11.3-28.2,11.9c-10.1,0.6-22.3-0.3-31.1-5.6
						c-18.6-11.3-15.6-41.9-12.2-59.9c2.2-11.8,6-23.4,11.5-34.2c2.4-4.7,5-9.7,8.3-13.8c4.8-5.9,11.1-5.5,18-4.5
						c11,1.6,23.7,6,31.8,13.9c8.7,8.6,6.5,21.3-1.7,29.4c-8.4,8.2-20.9,10-32.1,10.3c-7.1,0.2-14.2,0.1-21.3-0.3
						c-5.6-0.3-15.1,0.5-19-4.3C502.2,352.3,495.9,358.7,499.5,363.2L499.5,363.2z"/>
				</g>
			</g>
			<g>
				<g>
					<path class="st242" d="M656.6,304.3c1,10.7-1.6,20.9-4.3,31.2c-2.6,9.9-4.5,19.7-5.6,29.9c-2.2,20.7-2.1,41.7-9.1,61.5
						c-0.7,2.1,0.9,5.2,3.1,5.5c13.4,2,26.5-0.1,39.6-2.5c13.5-2.5,27.3-4.9,40.7-0.7c5.5,1.7,7.9-7,2.4-8.7
						c-26.9-8.4-53.4,7.3-80.4,3.2c1,1.8,2.1,3.7,3.1,5.5c7-20,7.1-41.2,9.2-62.1c1.1-10.6,3.2-20.8,5.9-31.1
						c2.7-10.4,5.2-20.9,4.2-31.8C665.1,298.6,656.1,298.5,656.6,304.3L656.6,304.3z"/>
				</g>
			</g>
			<g>
				<g>
					<path class="st242" d="M796.6,303.4c2.1,10.8,0.8,21.7-0.8,32.5c-1.6,10.5-3.3,20.9-5.3,31.4c-3.9,20.8-8.6,41.5-14.1,62
						c-0.9,3.5,2.2,6.2,5.5,5.5c11.6-2.4,23.4-5.7,35.2-7c11.3-1.2,21.7,4.6,32.9,3.5c5.7-0.5,5.8-9.6,0-9
						c-6.2,0.6-11.8-1.2-17.7-2.5c-5.5-1.2-10.8-1.6-16.4-0.9c-12.2,1.5-24.3,4.7-36.4,7.2c1.8,1.8,3.7,3.7,5.5,5.5
						c5.8-21.7,10.7-43.7,14.8-65.8c3.8-20.8,9.5-43.7,5.3-64.8C804.2,295.3,795.5,297.7,796.6,303.4L796.6,303.4z"/>
				</g>
			</g>
		</g>
	</g>
	<g id="btn-close_x5F_menu">
		<path class="st244" d="M159.1,586.9H42.8c-19.1,0-34.6-15.5-34.6-34.6V305.9c0-19.1,15.5-34.6,34.6-34.6h116.3
			c19.1,0,34.6,15.5,34.6,34.6v246.4C193.7,571.4,178.2,586.9,159.1,586.9z"/>
		<path class="st245" d="M171.8,533.9l-52.4-105.5L171,322.7c2.7-5.4-0.6-11.6-7.2-13.8l-8-2.6c-6.6-2.2-14.2,0.5-16.8,5.9
			l-38.3,78.5l-38.9-78.3c-2.7-5.4-10.2-8-16.9-5.8l-8,2.7c-6.6,2.2-9.8,8.4-7.1,13.8l52.4,105.5L30.6,534.3
			c-2.7,5.4,0.6,11.6,7.2,13.8l8,2.6c6.6,2.2,14.2-0.5,16.8-5.9l38.3-78.5l38.9,78.3c2.7,5.4,10.2,8,16.9,5.8l8-2.7
			C171.3,545.5,174.5,539.3,171.8,533.9z"/>
	</g>
	<g id="menu_x5F_buy">
		<g id="ex2_x5F_buy">
			<rect x="202.8" y="954.6" class="st246" width="485.1" height="636.2"/>
			<g id="btn-buy_x5F_ex2">
				<rect x="202.5" y="1470.7" class="st241" width="485.1" height="120.2"/>
				<g id="buy_2_">
					<g>
						<g>
							<path class="st242" d="M321.5,1493.1c-0.8,13.1-1.5,26.3-2.6,39.4c-0.5,6.1-1.7,11.9-3.8,17.7c-1,2.8-2.1,5.5-2.6,8.4
								c-0.4,2.2-0.3,5.4-1.9,7.2c-3.9,4.2,2.4,10.6,6.4,6.4c3.8-4.2,3.5-9.4,5.1-14.5c2-6.6,4.4-12.6,5.3-19.5
								c1.9-14.9,2.2-30.1,3.2-45C330.9,1487.3,321.9,1487.3,321.5,1493.1L321.5,1493.1z"/>
						</g>
					</g>
					<g>
						<g>
							<path class="st242" d="M330.4,1495.2c3.6-3.1,12.5-0.8,16.6,0.3c6.4,1.6,9.9,5.1,11.4,11.6c1.6,7.1-6,9.8-11.4,12.3
								c-6.7,3.1-14,5.1-21.3,5.9c-4.5,0.5-6.7,7.9-1.2,8.8c13.8,2.3,43.2-6.1,40,17.7c-1.3,9.9-14.5,11-22.4,11.3
								c-4.8,0.2-9.7,0.1-14.5,0.6c-3.9,0.4-9.7,2.9-13.5,2c1,1,2.1,2.1,3.1,3.1c0-0.2-0.1-0.4-0.1-0.6c-0.4,1.5-0.8,2.9-1.2,4.4
								c0.1-0.1,0.3-0.2,0.4-0.3c4.4-3.8-2-10.1-6.4-6.4c-0.1,0.1-0.3,0.2-0.4,0.3c-1.2,1.1-1.5,2.9-1.2,4.4c0,0.2,0.1,0.4,0.1,0.6
								c0.3,1.5,1.7,2.8,3.1,3.1c5.7,1.4,11.9-1.3,17.6-1.8c6.4-0.6,12.9-0.2,19.4-0.9c10.1-1.2,22.5-5.7,24.4-17.1
								c1.7-10.5-1.2-21.4-11.4-26.2c-11.2-5.3-23.2-1-34.9-2.9c-0.4,2.9-0.8,5.9-1.2,8.8c10.7-1.3,21.1-4.3,30.5-9.6
								c3.8-2.1,7.8-4.5,10-8.3c2.4-4.1,1.8-9,0.4-13.4c-2.6-8.7-8.4-14.1-17.2-16.4c-8.1-2-18.5-3.7-25.3,2.1
								C319.6,1492.6,326,1499,330.4,1495.2L330.4,1495.2z"/>
						</g>
					</g>
					<g>
						<g>
							<path class="st242" d="M420.1,1490.4c-4,18.2-7.3,37.6-7.1,56.3c0.1,14,7.7,31.2,24.5,29.6c17.2-1.6,23.9-19,31.1-31.9
								c9.1-16.2,13.8-33.3,15.4-51.7c-3,0-6,0-9,0c0.5,14.8-3.6,28.9-6.3,43.3c-2.2,11.7-3.9,24.4,3,34.9c3.1,4.8,10.9,0.3,7.8-4.5
								c-6.8-10.4-2.9-24.1-0.5-35.4c2.7-12.7,5.6-25.3,5.1-38.3c-0.2-5.9-8.5-5.7-9,0c-1.2,15-4.8,30-12,43.3
								c-3.1,5.7-6.1,11.6-9.3,17.2c-3.3,5.8-7.6,11.7-14.4,13.7c-16,4.6-17.6-16.8-17-27.1c0.9-15.8,3.2-31.5,6.6-47
								C430,1487.1,421.3,1484.7,420.1,1490.4L420.1,1490.4z"/>
						</g>
					</g>
					<g>
						<g>
							<path class="st242" d="M519.5,1495.7c10.6,9.7,19.2,21,25.7,33.9c2.1,4.1,8.4,2,8.4-2.3c0-2.8,6-7.5,7.9-9.5
								c2.7-2.8,5.4-5.5,8.2-8.1c5.6-5.3,11.5-10.4,17.5-15.2c4.5-3.6-1.9-10-6.4-6.4c-7.4,6-14.6,12.2-21.4,18.9
								c-5.3,5.2-14.8,12.1-14.9,20.2c2.8-0.8,5.6-1.5,8.4-2.3c-6.7-13.5-15.9-25.6-27.1-35.7
								C521.6,1485.5,515.2,1491.8,519.5,1495.7L519.5,1495.7z"/>
						</g>
					</g>
					<g>
						<g>
							<path class="st242" d="M544.8,1527.3c-1.3,13,2.1,26.5-2.2,39.2c-1.8,5.5,6.9,7.9,8.7,2.4c4.5-13.5,1-27.7,2.5-41.6
								C554.4,1521.5,545.4,1521.5,544.8,1527.3L544.8,1527.3z"/>
						</g>
					</g>
				</g>
			</g>
			<g id="ex2-pick_1_">
				<path class="st195" d="M320.7,1207.4c-2.3-0.6-3.1-4.1-1.4-6l125.8-143.1l38-47.2l22.5-25.8l5.8-2.5l6.8,0.9l1.5,5.1l-0.7,6.8
					l-9.8,13.2l-13.8,14.5l-11.6,10c-5.7,4.9-11.1,10.2-16.2,16l-138.5,156.3c-1.8,2-4.3,2.9-6.7,2.3L320.7,1207.4z"/>
				<path class="st196" d="M491,976.5l-3.2-0.8c-3.5-0.8-6.9-2.1-10.2-3.8l-8.9-4.6c-0.9-0.5-1.8,0.6-1.4,1.7l3.5,10.5
					c1.2,3.7,2.1,7.5,2.6,11.3l0.4,3.1c0.9,7,2.9,13.7,6,19.8h0c1.5,2.9,3.2,5.6,5.3,7.9l0,0c4.7,5.4,8.6,11.8,11.6,18.8l2.1,5.1
					c1.6,3.9,3,7.9,4,12l1.8,7.1c2.1,8.2,3.5,16.7,4.3,25.2l2.5,26.7l19.3-9.3c6.5-3.1,12.7-7.3,18.3-12.3l5.8-5.2
					c5.6-5,10.7-10.9,15.1-17.5l0,0c6.1-9.3,10.9-19.8,13.9-31.1l3.3-12.2l-14-1.2c-8.9-0.7-17.7-3.4-25.9-7.8l-5.2-2.8
					c-4.4-2.4-8.6-5.2-12.6-8.5l-12.4-10L504.7,985l-1.3-1.4C499.8,980,495.5,977.6,491,976.5z"/>
				<path class="st197" d="M510.3,1107.2l0.9,9.2l19.3-9.3c6.5-3.1,12.7-7.3,18.3-12.3l5.8-5.2c5.6-5,10.7-10.9,15.1-17.5l0,0
					c6.1-9.3,10.9-19.8,13.9-31.1l3.3-12.2l-6.7-0.6l-3.8,9.6c-1.2,3.1-2.6,6.2-4.2,9.1l-3.2,6c-1.8,3.4-3.8,6.7-6,9.8l-4.1,5.8
					c-3.4,4.8-7.2,9.1-11.3,12.8l-4.6,4.2c-2.7,2.4-5.5,4.6-8.4,6.6l-9.1,6.1c-1.5,1-3.1,2-4.6,2.9L510.3,1107.2z"/>
			</g>
			<g id="wood-pick_2_">
				<circle class="st247" cx="410.2" cy="1375.8" r="16.6"/>
				<circle class="st248" cx="410.2" cy="1375.8" r="12"/>
				<circle class="st248" cx="410.2" cy="1375.8" r="6.8"/>
				<circle class="st249" cx="410.2" cy="1375.8" r="2.8"/>
				<path class="st250" d="M403.4,1360.6l32.5-16.7c0.9-0.4,1.8-0.7,2.8-0.7h1.9c1,0,1.9,0.2,2.8,0.6l1.2,0.6c0.9,0.5,1.7,1.1,2.3,2
					l0.3,0.4c0.7,1,1.1,2.3,1.1,3.5v0.6c0,1.3-0.4,2.6-1.2,3.7l-23.6,31.3l2.4-4.3l1.1-3.5l-0.1-4.1l-1-4.2l-1.8-3.5l-3.5-3.7
					l-4.2-2.4l-4.8-1.1l-4.1,0.2L403.4,1360.6z"/>
			</g>
			<g id="money-pick">
				<ellipse class="st251" cx="233.8" cy="1437.4" rx="12" ry="24.6"/>
				<path class="st252" d="M233.8,1412.8h3.7c2.7,0,5.2,0.9,7.3,2.6l0,0c1.3,1,2.3,2.3,3,3.8l2.2,4.4c0.6,1.3,1,2.7,1.2,4.1l0.8,8.6
					c0.1,0.8,0.1,1.6,0,2.4l-0.9,7.9c-0.1,1.1-0.4,2.1-0.8,3.1l-2.2,5.3c-0.7,1.6-1.7,3-3,4.2h0c-2.1,1.8-4.8,2.9-7.6,2.9h-3.6
					l3.6-1.1l3.5-3.5l2.1-4.2l1.7-5.7l0.9-5.7l0.2-7.1l-0.8-5.9l-1.5-5.6l-2.2-4.8l-2.5-3.2l-2.3-1.6L233.8,1412.8z"/>
			</g>
			<text transform="matrix(1 0 0 1 467.2207 1383.0853)" class="st253 st254 st255">60      </text>
			<text transform="matrix(1 0 0 1 271.7799 1456.0853)" class="st253 st254 st255">10      </text>
			<text transform="matrix(1 0 0 1 221.78 1383.0853)" class="st253 st254 st255">Price:      </text>
			<text transform="matrix(1 0 0 1 215.779 1278.0746)" class="st253 st256 st257">Status need:  Str 3</text>
		</g>
		<g id="ex3_x5F_buy">
			<rect x="687.9" y="954.6" class="st246" width="485.1" height="636.2"/>
			<g id="btn-buy_x5F_ex3">
				<rect x="687.6" y="1470.7" class="st241" width="485.1" height="120.2"/>
				<g id="buy_1_">
					<g>
						<g>
							<path class="st242" d="M803.4,1493.1c-0.8,13.1-1.5,26.3-2.6,39.4c-0.5,6.1-1.7,11.9-3.8,17.7c-1,2.8-2.1,5.5-2.6,8.4
								c-0.4,2.2-0.3,5.4-1.9,7.2c-3.9,4.2,2.4,10.6,6.4,6.4c3.8-4.2,3.5-9.4,5.1-14.5c2-6.6,4.4-12.6,5.3-19.5
								c1.9-14.9,2.2-30.1,3.2-45C812.8,1487.3,803.8,1487.3,803.4,1493.1L803.4,1493.1z"/>
						</g>
					</g>
					<g>
						<g>
							<path class="st242" d="M812.2,1495.2c3.6-3.1,12.5-0.8,16.6,0.3c6.4,1.6,9.9,5.1,11.4,11.6c1.6,7.1-6,9.8-11.4,12.3
								c-6.7,3.1-14,5.1-21.3,5.9c-4.5,0.5-6.7,7.9-1.2,8.8c13.8,2.3,43.2-6.1,40,17.7c-1.3,9.9-14.5,11-22.4,11.3
								c-4.8,0.2-9.7,0.1-14.5,0.6c-3.9,0.4-9.7,2.9-13.5,2c1,1,2.1,2.1,3.1,3.1c0-0.2-0.1-0.4-0.1-0.6c-0.4,1.5-0.8,2.9-1.2,4.4
								c0.1-0.1,0.3-0.2,0.4-0.3c4.4-3.8-2-10.1-6.4-6.4c-0.1,0.1-0.3,0.2-0.4,0.3c-1.2,1.1-1.5,2.9-1.2,4.4c0,0.2,0.1,0.4,0.1,0.6
								c0.3,1.5,1.7,2.8,3.1,3.1c5.7,1.4,11.9-1.3,17.6-1.8c6.4-0.6,12.9-0.2,19.4-0.9c10.1-1.2,22.5-5.7,24.4-17.1
								c1.7-10.5-1.2-21.4-11.4-26.2c-11.2-5.3-23.2-1-34.9-2.9c-0.4,2.9-0.8,5.9-1.2,8.8c10.7-1.3,21.1-4.3,30.5-9.6
								c3.8-2.1,7.8-4.5,10-8.3c2.4-4.1,1.8-9,0.4-13.4c-2.6-8.7-8.4-14.1-17.2-16.4c-8.1-2-18.5-3.7-25.3,2.1
								C801.4,1492.6,807.8,1499,812.2,1495.2L812.2,1495.2z"/>
						</g>
					</g>
					<g>
						<g>
							<path class="st242" d="M901.9,1490.4c-4,18.2-7.3,37.6-7.1,56.3c0.1,14,7.7,31.2,24.5,29.6c17.2-1.6,23.9-19,31.1-31.9
								c9.1-16.2,13.8-33.3,15.4-51.7c-3,0-6,0-9,0c0.5,14.8-3.6,28.9-6.3,43.3c-2.2,11.7-3.9,24.4,3,34.9c3.1,4.8,10.9,0.3,7.8-4.5
								c-6.8-10.4-2.9-24.1-0.5-35.4c2.7-12.7,5.6-25.3,5.1-38.3c-0.2-5.9-8.5-5.7-9,0c-1.2,15-4.8,30-12,43.3
								c-3.1,5.7-6.1,11.6-9.3,17.2c-3.3,5.8-7.6,11.7-14.4,13.7c-16,4.6-17.6-16.8-17-27.1c0.9-15.8,3.2-31.5,6.6-47
								C911.8,1487.1,903.2,1484.7,901.9,1490.4L901.9,1490.4z"/>
						</g>
					</g>
					<g>
						<g>
							<path class="st242" d="M1001.3,1495.7c10.6,9.7,19.2,21,25.7,33.9c2.1,4.1,8.4,2,8.4-2.3c0-2.8,6-7.5,7.9-9.5
								c2.7-2.8,5.4-5.5,8.2-8.1c5.6-5.3,11.5-10.4,17.5-15.2c4.5-3.6-1.9-10-6.4-6.4c-7.4,6-14.6,12.2-21.4,18.9
								c-5.3,5.2-14.8,12.1-14.9,20.2c2.8-0.8,5.6-1.5,8.4-2.3c-6.7-13.5-15.9-25.6-27.1-35.7
								C1003.4,1485.5,997,1491.8,1001.3,1495.7L1001.3,1495.7z"/>
						</g>
					</g>
					<g>
						<g>
							<path class="st242" d="M1026.6,1527.3c-1.3,13,2.1,26.5-2.2,39.2c-1.8,5.5,6.9,7.9,8.7,2.4c4.5-13.5,1-27.7,2.5-41.6
								C1036.2,1521.5,1027.2,1521.5,1026.6,1527.3L1026.6,1527.3z"/>
						</g>
					</g>
				</g>
			</g>
			<g id="ex3-pick_1_">
				<path class="st192" d="M799.2,1219.5c-2-1-2.3-4.3-0.5-5.7l132.5-105.5l40.6-35.4l23.7-19l5.6-1.2l6,2.1l0.7,4.9l-1.6,6
					l-10.6,10.1l-14.4,10.5l-11.8,6.9c-5.8,3.4-11.4,7.2-16.7,11.4l-145.8,115c-1.9,1.5-4.2,1.8-6.3,0.8L799.2,1219.5z"/>
				<path class="st193" d="M1050.9,1105c-8-2.4-15.6-6.4-22.4-12l-4.3-3.5c-3.7-3-7.1-6.4-10.3-10.1l-9.9-11.4l-4.8-7.4l-3.7-8.3
					l-4.6-15.6c-1.5-5-2.6-10.2-3.4-15.5l-0.9-6.2c-1.4-9.8-1.4-19.8,0.1-29.6l2.3-15.3l-9.7,0.8c-9,0.7-17.8,3.4-26,7.9h0
					c-5.9,3.2-11.4,7.3-16.3,12.3l-5.1,5.1c-5,4.9-9.4,10.6-13.2,16.9l-11.2,18.6l19.1,8.7c6.1,2.8,12,6.3,17.6,10.3l4.8,3.5
					c2.8,2.1,5.5,4.4,8,7l3.3,3.5c3.6,3.8,6.7,8.2,9.3,13c0.6,1.5,1.4,3,2.2,4.4c0.7,1.5,1.5,2.9,2.4,4.3c2.5,4.8,4.6,10.1,5.9,15.6
					l1.3,5c1,3.8,1.7,7.7,2,11.7l0.7,6.7c0.8,7.8,1,15.8,0.6,23.7l-1.3,24.6l18.7-4.7c6.3-1.6,12.4-4.2,18.2-7.7l5.9-3.6
					c5.8-3.5,11.1-7.9,16-13h0c6.8-7.2,12.4-15.8,16.7-25.4l4.6-10.4L1050.9,1105z"/>
				<path class="st194" d="M987.7,979.6l1.5-9.6l-9.7,0.8c-9,0.7-17.8,3.4-26,7.9h0c-5.9,3.2-11.4,7.3-16.3,12.3l-5.1,5.1
					c-5,4.9-9.4,10.6-13.2,16.9l-11.2,18.6l8.4,3.9l4.1-6.5c3-4.7,6.3-9.1,9.9-13l3.5-3.8c1.7-1.8,3.4-3.5,5.2-5.2l6.3-5.8
					c3.1-2.8,6.3-5.4,9.7-7.6l2.9-1.9c4.3-2.9,8.9-5.2,13.6-7.1l1.5-0.6c2.8-1.1,5.6-2,8.4-2.7L987.7,979.6z"/>
				<path class="st194" d="M984,1161.5l-0.6,12l18.7-4.7c6.3-1.6,12.4-4.2,18.2-7.7l5.9-3.6c5.8-3.5,11.1-7.9,16-13h0
					c6.8-7.2,12.4-15.8,16.7-25.4l4.6-10.4l-8.9-2.7l-6.1,9c-0.9,1.3-1.9,2.5-2.9,3.7l-6.6,7.1c-1.4,1.5-2.8,3-4.3,4.4l-6.4,6
					c-3.2,3-6.6,5.7-10.2,8l-4.7,3.1c-1.9,1.3-3.9,2.4-5.9,3.5l-7.5,4c-2.4,1.3-4.8,2.4-7.3,3.4L984,1161.5z"/>
			</g>
			<g id="wood-pick_3_">
				<circle class="st247" cx="893.4" cy="1375.8" r="16.6"/>
				<circle class="st248" cx="893.4" cy="1375.8" r="12"/>
				<circle class="st248" cx="893.4" cy="1375.8" r="6.8"/>
				<circle class="st249" cx="893.4" cy="1375.8" r="2.8"/>
				<path class="st250" d="M886.5,1360.6l32.5-16.7c0.9-0.4,1.8-0.7,2.8-0.7h1.9c1,0,1.9,0.2,2.8,0.6l1.2,0.6c0.9,0.5,1.7,1.1,2.3,2
					l0.3,0.4c0.7,1,1.1,2.3,1.1,3.5v0.6c0,1.3-0.4,2.6-1.2,3.7l-23.6,31.3l2.4-4.3l1.1-3.5l-0.1-4.1l-1-4.2l-1.8-3.5l-3.5-3.7
					l-4.2-2.4l-4.8-1.1l-4.1,0.2L886.5,1360.6z"/>
			</g>
			<g id="money-pick_3_">
				<ellipse class="st251" cx="716.9" cy="1437.4" rx="12" ry="24.6"/>
				<path class="st252" d="M716.9,1412.8h3.7c2.7,0,5.2,0.9,7.3,2.6l0,0c1.3,1,2.3,2.3,3,3.8l2.2,4.4c0.6,1.3,1,2.7,1.2,4.1l0.8,8.6
					c0.1,0.8,0.1,1.6,0,2.4l-0.9,7.9c-0.1,1.1-0.4,2.1-0.8,3.1l-2.2,5.3c-0.7,1.6-1.7,3-3,4.2l0,0c-2.1,1.8-4.8,2.9-7.6,2.9h-3.6
					l3.6-1.1l3.5-3.5l2.1-4.2l1.7-5.7l0.9-5.7l0.2-7.1l-0.8-5.9l-1.5-5.6l-2.2-4.8l-2.5-3.2l-2.3-1.6L716.9,1412.8z"/>
			</g>
			<text transform="matrix(1 0 0 1 950.4004 1383.0853)" class="st253 st254 st255">100      </text>
			<text transform="matrix(1 0 0 1 754.9597 1456.0853)" class="st253 st254 st255">50      </text>
			<text transform="matrix(1 0 0 1 704.9597 1383.0853)" class="st253 st254 st255">Price:      </text>
			<text transform="matrix(1 0 0 1 698.9587 1278.0746)"><tspan x="0" y="0" class="st253 st256 st257">Status need: Str 6</tspan><tspan x="0" y="44" class="st253 st256 st257">  Agi 2</tspan></text>
		</g>
		<g id="saw_x5F_buy">
			<rect x="1173" y="954.6" class="st246" width="485.1" height="636.2"/>
			<g id="btn-buy_x5F_saw">
				<rect x="1173" y="1470.7" class="st241" width="485.1" height="120.2"/>
				<g id="buy_3_">
					<g>
						<g>
							<path class="st242" d="M1288.8,1493.1c-0.8,13.1-1.5,26.3-2.6,39.4c-0.5,6.1-1.7,11.9-3.8,17.7c-1,2.8-2.1,5.5-2.6,8.4
								c-0.4,2.2-0.3,5.4-1.9,7.2c-3.9,4.2,2.4,10.6,6.4,6.4c3.8-4.2,3.5-9.4,5.1-14.5c2-6.6,4.4-12.6,5.3-19.5
								c1.9-14.9,2.2-30.1,3.2-45C1298.1,1487.3,1289.1,1487.3,1288.8,1493.1L1288.8,1493.1z"/>
						</g>
					</g>
					<g>
						<g>
							<path class="st242" d="M1297.6,1495.2c3.6-3.1,12.5-0.8,16.6,0.3c6.4,1.6,9.9,5.1,11.4,11.6c1.6,7.1-6,9.8-11.4,12.3
								c-6.7,3.1-14,5.1-21.3,5.9c-4.5,0.5-6.7,7.9-1.2,8.8c13.8,2.3,43.2-6.1,40,17.7c-1.3,9.9-14.5,11-22.4,11.3
								c-4.8,0.2-9.7,0.1-14.5,0.6c-3.9,0.4-9.7,2.9-13.5,2c1,1,2.1,2.1,3.1,3.1c0-0.2-0.1-0.4-0.1-0.6c-0.4,1.5-0.8,2.9-1.2,4.4
								c0.1-0.1,0.3-0.2,0.4-0.3c4.4-3.8-2-10.1-6.4-6.4c-0.1,0.1-0.3,0.2-0.4,0.3c-1.2,1.1-1.5,2.9-1.2,4.4c0,0.2,0.1,0.4,0.1,0.6
								c0.3,1.5,1.7,2.8,3.1,3.1c5.7,1.4,11.9-1.3,17.6-1.8c6.4-0.6,12.9-0.2,19.4-0.9c10.1-1.2,22.5-5.7,24.4-17.1
								c1.7-10.5-1.2-21.4-11.4-26.2c-11.2-5.3-23.2-1-34.9-2.9c-0.4,2.9-0.8,5.9-1.2,8.8c10.7-1.3,21.1-4.3,30.5-9.6
								c3.8-2.1,7.8-4.5,10-8.3c2.4-4.1,1.8-9,0.4-13.4c-2.6-8.7-8.4-14.1-17.2-16.4c-8.1-2-18.5-3.7-25.3,2.1
								C1286.8,1492.6,1293.2,1499,1297.6,1495.2L1297.6,1495.2z"/>
						</g>
					</g>
					<g>
						<g>
							<path class="st242" d="M1387.3,1490.4c-4,18.2-7.3,37.6-7.1,56.3c0.1,14,7.7,31.2,24.5,29.6c17.2-1.6,23.9-19,31.1-31.9
								c9.1-16.2,13.8-33.3,15.4-51.7c-3,0-6,0-9,0c0.5,14.8-3.6,28.9-6.3,43.3c-2.2,11.7-3.9,24.4,3,34.9c3.1,4.8,10.9,0.3,7.8-4.5
								c-6.8-10.4-2.9-24.1-0.5-35.4c2.7-12.7,5.6-25.3,5.1-38.3c-0.2-5.9-8.5-5.7-9,0c-1.2,15-4.8,30-12,43.3
								c-3.1,5.7-6.1,11.6-9.3,17.2c-3.3,5.8-7.6,11.7-14.4,13.7c-16,4.6-17.6-16.8-17-27.1c0.9-15.8,3.2-31.5,6.6-47
								C1397.2,1487.1,1388.5,1484.7,1387.3,1490.4L1387.3,1490.4z"/>
						</g>
					</g>
					<g>
						<g>
							<path class="st242" d="M1486.7,1495.7c10.6,9.7,19.2,21,25.7,33.9c2.1,4.1,8.4,2,8.4-2.3c0-2.8,6-7.5,7.9-9.5
								c2.7-2.8,5.4-5.5,8.2-8.1c5.6-5.3,11.5-10.4,17.5-15.2c4.5-3.6-1.9-10-6.4-6.4c-7.4,6-14.6,12.2-21.4,18.9
								c-5.3,5.2-14.8,12.1-14.9,20.2c2.8-0.8,5.6-1.5,8.4-2.3c-6.7-13.5-15.9-25.6-27.1-35.7
								C1488.8,1485.5,1482.4,1491.8,1486.7,1495.7L1486.7,1495.7z"/>
						</g>
					</g>
					<g>
						<g>
							<path class="st242" d="M1512,1527.3c-1.3,13,2.1,26.5-2.2,39.2c-1.8,5.5,6.9,7.9,8.7,2.4c4.5-13.5,1-27.7,2.5-41.6
								C1521.6,1521.5,1512.6,1521.5,1512,1527.3L1512,1527.3z"/>
						</g>
					</g>
				</g>
			</g>
			<g id="saw-pick_1_">
				<g>
					<path class="st170" d="M1545.1,1045.9l-140.2,99l-19.8-41l140.2-99.1c8.5-6,19.4-2.5,24.4,7.7l1.8,3.7
						C1556.5,1026.7,1553.6,1039.9,1545.1,1045.9z"/>
					<g>
						<polyline class="st183" points="1409,1142.1 1404.9,1145 1402.7,1140.5 						"/>
						<line class="st258" x1="1397.6" y1="1129.8" x2="1389.8" y2="1113.8"/>
						<polyline class="st183" points="1387.2,1108.5 1385.1,1104 1389.2,1101.1 						"/>
						<path class="st259" d="M1397.5,1095.2l127.8-90.3c8.5-6,19.4-2.5,24.4,7.7l1.8,3.7c5,10.3,2.1,23.6-6.4,29.6l-131.9,93.2"/>
					</g>
				</g>
				<path class="st173" d="M1542.3,1043.2l-134.6,95.1l-16.6-34.3l134.6-95.1c7.1-5,16.2-2.1,20.4,6.5l1.5,3.1
					C1551.8,1027.1,1549.4,1038.2,1542.3,1043.2z"/>
				<path class="st174" d="M1538.4,1023.1c2.5,5.2,0.2,12.6-5.3,16.5c-5.5,3.9-11.9,2.7-14.5-2.5c-2.5-5.2-0.2-12.6,5.3-16.5
					C1529.4,1016.7,1535.9,1017.9,1538.4,1023.1z"/>
				<path class="st186" d="M1356,1112.2l-40.5,28.6c-4.3,3-5.7,9.7-3.2,14.8l4.1,8.5l-11.8,9.8c-3.5,2.9-6.8,6.1-9.8,9.6l-3.5,4.1
					c-2.4,2.7-4.2,6.1-5.3,9.9l0,0c-1,3.5-1.5,7.1-1.4,10.8l0,0.2c0.1,3.4,0.8,6.7,2.2,9.6l0.4,0.7c0.6,1.2,1.4,2.2,2.5,2.9
					c3.1,2,6.7,2.9,10.2,2.5l0,0c4.3-0.4,8.6-1.8,12.5-4.1l8.1-4.7l22.6-14.2l-0.4,0c0.6-0.2,1.2-0.5,1.7-0.9l40.5-28.6
					c4.3-3,5.7-9.7,3.2-14.8l-19.7-40.8C1365.7,1110.9,1360.2,1109.2,1356,1112.2z M1324,1201.9c-1.2,0.8-2.5,1.6-3.8,2.4l-6.2,3.6
					c-4.4,2.6-9.2,4.4-14,5.2l0,0c-1.2,0.2-2.3,0.2-3.5-0.1l-1.1-0.2c-1.3-0.3-2.4-1.3-2.9-2.8c-0.2-0.6-0.3-1.2-0.4-1.8l0-1.2
					c-0.1-2.6,0.4-5.1,1.3-7.4c1.3-3.1,3.1-5.9,5.3-8.3l4.1-4.5c1.4-1.6,2.9-3,4.5-4.3l12.8-10.4l11.8,24.4c0.7,1.5,0,0,0,0
					L1324,1201.9z M1337.5,1201.5L1337.5,1201.5C1337.4,1201.5,1337.5,1201.5,1337.5,1201.5L1337.5,1201.5z"/>
				<path class="st187" d="M1368.9,1116.9l-56.3,39.8l-0.5-0.9c-2.5-5.2-1.1-11.8,3.2-14.8l41.4-29.3c4-2.8,9-1.2,11.4,3.6
					L1368.9,1116.9z"/>
				<path class="st188" d="M1331.7,1133.6l-11.2,7.9c-1,0.7-2.2,0.3-2.7-0.9l-0.2-0.4c-0.6-1.2-0.2-2.6,0.7-3.3l11.2-7.9
					c1-0.7,2.2-0.3,2.7,0.9l0.2,0.4C1333,1131.5,1332.6,1133,1331.7,1133.6z"/>
				<path class="st189" d="M1406.4,1116.5c-7.3-15-20.3-22.1-29.6-16.3c-0.6,0.2-1.1,0.6-1.6,1.1l-5.7,5.4c-1.9,1.8-3.7,3.7-5.5,5.6
					l-4.7,5.3c-1.1,1.2-2.2,2.5-3.3,3.8l-3.1,3.8c-5.1,6.3-9.5,13.3-13.1,20.9l0,0c-3.4,7.2-6.1,14.9-8,22.9
					c-0.5,2.1-0.6,4.2-0.3,6.4l0,0.4c0.4,3,1.3,5.9,2.6,8.5l0,0.1c0.5,1,1.1,1.8,1.8,2.5c1,0.9,2.2,1.5,3.5,1.8
					c2.1,0.4,4.2,0.3,6.3-0.2l3.7-1c3.1-0.9,6.1-2,9-3.6l10.2-5.3c2.2-1.1,4.4-2.4,6.5-3.7l13.9-8.8l13.8-9.7c0,0,0.1-0.1,0.1-0.1
					c0,0,0.1-0.1,0.1-0.1l0.7-0.5c0.2-0.1,0.3-0.2,0.4-0.4C1412.4,1147.9,1413.5,1131.1,1406.4,1116.5z"/>
				<path class="st190" d="M1338.3,1188.2l-1.9-3c-0.6-0.9-1.1-1.9-1.5-2.9l-0.6-1.5c-0.8-2.1-1.2-4.5-1.1-6.8l0,0
					c0-0.8,0.1-1.5,0.3-2.2l1.5-6c0.4-1.7,1-3.4,1.7-5l4-9.6c0.5-1.3,1.1-2.5,1.8-3.7l5.4-10c1.2-2.1,2.5-4.2,3.9-6.1l6.6-9
					c0.5-0.7,1.1-1.4,1.6-2l5.4-6c0.8-0.9,3.7-4.1,3.7-4.1l3.5-3.5l2.9-2.5l1.9-1.5l2.4-1.6l2.9-1.3l2.1-0.6l2.4-0.5l-2.4-0.4
					l-2.2,0l-2,0.3l-1.9,0.6l-1.4,0.7l-1.6,0.9c0,0-1.2,1-2.1,1.9l-4.3,4.1l-2.7,2.7l-2.8,2.9l-4.7,5.3l-5.5,6.6
					c-0.6,0.7-1.1,1.4-1.7,2.2l-5,7c-0.6,0.8-1.1,1.6-1.6,2.5l-3.2,5.6c-0.4,0.6-0.7,1.3-1,1.9l-1.8,3.7c-0.3,0.7-0.7,1.5-1,2.2
					l-2.3,5.6c-0.4,0.9-0.7,1.9-1,2.9l-2,6.4c-0.2,0.6-0.4,1.3-0.5,2l-0.4,1.7c-0.5,2.2-0.6,4.5-0.5,6.7l0.2,1.9l0.5,2.3
					c0.3,1.5,0.8,2.9,1.4,4.2l0.3,0.6c0.8,1.6,1.9,2.9,3.2,3.9L1338.3,1188.2z"/>
				<path class="st191" d="M1362.1,1146.8l-16.5,11.7c-0.6,0.4-1.3,0.2-1.6-0.5l-0.1-0.2c-0.3-0.7-0.1-1.5,0.4-1.9l16.5-11.7
					c0.6-0.4,1.3-0.2,1.6,0.5l0.1,0.2C1362.8,1145.5,1362.6,1146.4,1362.1,1146.8z"/>
				<path class="st191" d="M1364.3,1151.5l-16.5,11.7c-0.6,0.4-1.3,0.2-1.6-0.5l-0.1-0.2c-0.3-0.7-0.1-1.5,0.4-1.9l16.5-11.7
					c0.6-0.4,1.3-0.2,1.6,0.5l0.1,0.2C1365.1,1150.2,1364.9,1151.1,1364.3,1151.5z"/>
				<path class="st191" d="M1366.6,1156.2l-16.5,11.7c-0.6,0.4-1.3,0.2-1.6-0.5l-0.1-0.2c-0.3-0.7-0.1-1.5,0.4-1.9l16.5-11.7
					c0.6-0.4,1.3-0.2,1.6,0.5l0.1,0.2C1367.3,1154.9,1367.1,1155.8,1366.6,1156.2z"/>
				<path class="st191" d="M1368.9,1161l-16.5,11.7c-0.6,0.4-1.3,0.2-1.6-0.5l-0.1-0.2c-0.3-0.7-0.1-1.5,0.4-1.9l16.5-11.7
					c0.6-0.4,1.3-0.2,1.6,0.5l0.1,0.2C1369.6,1159.7,1369.5,1160.6,1368.9,1161z"/>
				<path class="st191" d="M1371.1,1165.5l-16.5,11.7c-0.6,0.4-1.3,0.2-1.6-0.5l-0.1-0.2c-0.3-0.7-0.1-1.5,0.4-1.9l16.5-11.7
					c0.6-0.4,1.3-0.2,1.6,0.5l0.1,0.2C1371.8,1164.3,1371.7,1165.1,1371.1,1165.5z"/>
				<path class="st188" d="M1342,1128.2l0.4,0c0.7,0,1.4-0.4,1.9-1l0.2-0.2c0.4-0.4,0.6-1,0.6-1.7l0-1c0-0.4-0.1-0.7-0.2-1l-3.7-7.8
					c-0.3-0.7-0.6-1.4-0.9-2.2l-1.8-5.6c-0.6-1.9-0.9-3.8-0.8-5.7l0.1-1.7c0.1-2.5,0.8-4.7,2.1-6.4l1.5-2.1c0.5-0.7,1.1-1.3,1.8-1.8
					l3-2.2c1.2-0.8,2.5-1.2,3.9-1.2l0,0c1.9,0,3.9,0.9,5.7,2.5l1.6,1.4c0.8,0.7,1.5,1.6,2.1,2.5l2.9,4.3c0.4,0.6,0.7,1.2,1,1.8
					l3.9,8.1c0.2,0.3,0.4,0.6,0.6,0.8l0,0c0.5,0.4,1.1,0.5,1.6,0.4l0.5-0.1c0.4-0.1,0.8-0.3,1.2-0.6l0.1,0c0.6-0.5,1-1.3,1.1-2.4
					l0,0c0-0.2,0-0.3-0.1-0.5l-0.7-1.5l-4-8.3c-0.7-1.4-1.5-2.7-2.3-3.9l-3.3-4.4c-1.2-1.5-2.5-2.9-3.9-3.9l-0.9-0.7
					c-2.5-1.9-5.2-2.8-7.8-2.8l-0.5,0c-2.1,0-4,0.7-5.7,1.9l-3.5,2.5c-1.1,0.8-2.1,1.8-2.9,2.9l-2,2.9c-1.5,2.1-2.4,4.6-2.9,7.5l0,0
					c-0.4,2.7-0.3,5.6,0.3,8.5l0.5,2.7c0.3,1.4,0.7,2.7,1.1,4l2.1,5.7c0.3,0.7,0.6,1.5,0.9,2.2l2.7,5.6c0.3,0.7,0.8,1.3,1.3,1.8l0,0
					C1341.2,1128.1,1341.6,1128.2,1342,1128.2z"/>
			</g>
			<g id="wood-pick_4_">
				<circle class="st247" cx="1379.6" cy="1375.8" r="16.6"/>
				<circle class="st248" cx="1379.6" cy="1375.8" r="12"/>
				<circle class="st248" cx="1379.6" cy="1375.8" r="6.8"/>
				<circle class="st249" cx="1379.6" cy="1375.8" r="2.8"/>
				<path class="st250" d="M1372.8,1360.6l32.5-16.7c0.9-0.4,1.8-0.7,2.8-0.7h1.9c1,0,1.9,0.2,2.8,0.6l1.2,0.6
					c0.9,0.5,1.7,1.1,2.3,2l0.3,0.4c0.7,1,1.1,2.3,1.1,3.5v0.6c0,1.3-0.4,2.6-1.2,3.7l-23.6,31.3l2.4-4.3l1.1-3.5l-0.1-4.1l-1-4.2
					l-1.8-3.5l-3.5-3.7l-4.2-2.4l-4.8-1.1l-4.1,0.2L1372.8,1360.6z"/>
			</g>
			<g id="money-pick_4_">
				<ellipse class="st251" cx="1203.2" cy="1437.4" rx="12" ry="24.6"/>
				<path class="st252" d="M1203.2,1412.8h3.7c2.7,0,5.2,0.9,7.3,2.6l0,0c1.3,1,2.3,2.3,3,3.8l2.2,4.4c0.6,1.3,1,2.7,1.2,4.1
					l0.8,8.6c0.1,0.8,0.1,1.6,0,2.4l-0.9,7.9c-0.1,1.1-0.4,2.1-0.8,3.1l-2.2,5.3c-0.7,1.6-1.7,3-3,4.2h0c-2.1,1.8-4.8,2.9-7.6,2.9
					h-3.6l3.6-1.1l3.5-3.5l2.1-4.2l1.7-5.7l0.9-5.7l0.2-7.1l-0.8-5.9l-1.5-5.6l-2.2-4.8l-2.5-3.2l-2.3-1.6L1203.2,1412.8z"/>
			</g>
			<text transform="matrix(1 0 0 1 1436.6306 1383.0853)" class="st253 st254 st255">100      </text>
			<text transform="matrix(1 0 0 1 1241.1899 1456.0853)" class="st253 st254 st255">50      </text>
			<text transform="matrix(1 0 0 1 1191.1899 1383.0853)" class="st253 st254 st255">Price:      </text>
			<text transform="matrix(1 0 0 1 1185.189 1278.0746)"><tspan x="0" y="0" class="st253 st256 st257">Status need: Str 6</tspan><tspan x="0" y="44" class="st253 st256 st257">  Agi 7  Int 3</tspan></text>
		</g>
		<g id="saw2_x5F_buy">
			<rect x="202.5" y="1590.8" class="st246" width="485.1" height="635.2"/>
			<g id="btn-buy_x5F_saw2">
				<rect x="202.5" y="2105.9" class="st241" width="485.1" height="120.2"/>
				<g id="buy_4_">
					<g>
						<g>
							<path class="st242" d="M322,2128.1c-0.8,13.1-1.5,26.3-2.6,39.4c-0.5,6.1-1.7,11.9-3.8,17.7c-1,2.8-2.1,5.5-2.6,8.4
								c-0.4,2.2-0.3,5.4-1.9,7.2c-3.9,4.2,2.4,10.6,6.4,6.4c3.8-4.2,3.5-9.4,5.1-14.5c2-6.6,4.4-12.6,5.3-19.5
								c1.9-14.9,2.2-30.1,3.2-45C331.3,2122.4,322.3,2122.4,322,2128.1L322,2128.1z"/>
						</g>
					</g>
					<g>
						<g>
							<path class="st242" d="M330.8,2130.3c3.6-3.1,12.5-0.8,16.6,0.3c6.4,1.6,9.9,5.1,11.4,11.6c1.6,7.1-6,9.8-11.4,12.3
								c-6.7,3.1-14,5.1-21.3,5.9c-4.5,0.5-6.7,7.9-1.2,8.8c13.8,2.3,43.2-6.1,40,17.7c-1.3,9.9-14.5,11-22.4,11.3
								c-4.8,0.2-9.7,0.1-14.5,0.6c-3.9,0.4-9.7,2.9-13.5,2c1,1,2.1,2.1,3.1,3.1c0-0.2-0.1-0.4-0.1-0.6c-0.4,1.5-0.8,2.9-1.2,4.4
								c0.1-0.1,0.3-0.2,0.4-0.3c4.4-3.8-2-10.1-6.4-6.4c-0.1,0.1-0.3,0.2-0.4,0.3c-1.2,1.1-1.5,2.9-1.2,4.4c0,0.2,0.1,0.4,0.1,0.6
								c0.3,1.5,1.7,2.8,3.1,3.1c5.7,1.4,11.9-1.3,17.6-1.8c6.4-0.6,12.9-0.2,19.4-0.9c10.1-1.2,22.5-5.7,24.4-17.1
								c1.7-10.5-1.2-21.4-11.4-26.2c-11.2-5.3-23.2-1-34.9-2.9c-0.4,2.9-0.8,5.9-1.2,8.8c10.7-1.3,21.1-4.3,30.5-9.6
								c3.8-2.1,7.8-4.5,10-8.3c2.4-4.1,1.8-9,0.4-13.4c-2.6-8.7-8.4-14.1-17.2-16.4c-8.1-2-18.5-3.7-25.3,2.1
								C320,2127.7,326.4,2134,330.8,2130.3L330.8,2130.3z"/>
						</g>
					</g>
					<g>
						<g>
							<path class="st242" d="M420.5,2125.4c-4,18.2-7.3,37.6-7.1,56.3c0.1,14,7.7,31.2,24.5,29.6c17.2-1.6,23.9-19,31.1-31.9
								c9.1-16.2,13.8-33.3,15.4-51.7c-3,0-6,0-9,0c0.5,14.8-3.6,28.9-6.3,43.3c-2.2,11.7-3.9,24.4,3,34.9c3.1,4.8,10.9,0.3,7.8-4.5
								c-6.8-10.4-2.9-24.1-0.5-35.4c2.7-12.7,5.6-25.3,5.1-38.3c-0.2-5.9-8.5-5.7-9,0c-1.2,15-4.8,30-12,43.3
								c-3.1,5.7-6.1,11.6-9.3,17.2c-3.3,5.8-7.6,11.7-14.4,13.7c-16,4.6-17.6-16.8-17-27.1c0.9-15.8,3.2-31.5,6.6-47
								C430.4,2122.2,421.7,2119.8,420.5,2125.4L420.5,2125.4z"/>
						</g>
					</g>
					<g>
						<g>
							<path class="st242" d="M519.9,2130.8c10.6,9.7,19.2,21,25.7,33.9c2.1,4.1,8.4,2,8.4-2.3c0-2.8,6-7.5,7.9-9.5
								c2.7-2.8,5.4-5.5,8.2-8.1c5.6-5.3,11.5-10.4,17.5-15.2c4.5-3.6-1.9-10-6.4-6.4c-7.4,6-14.6,12.2-21.4,18.9
								c-5.3,5.2-14.8,12.1-14.9,20.2c2.8-0.8,5.6-1.5,8.4-2.3c-6.7-13.5-15.9-25.6-27.1-35.7C522,2120.5,515.6,2126.9,519.9,2130.8
								L519.9,2130.8z"/>
						</g>
					</g>
					<g>
						<g>
							<path class="st242" d="M545.2,2162.3c-1.3,13,2.1,26.5-2.2,39.2c-1.8,5.5,6.9,7.9,8.7,2.4c4.5-13.5,1-27.7,2.5-41.6
								C554.8,2156.6,545.8,2156.6,545.2,2162.3L545.2,2162.3z"/>
						</g>
					</g>
				</g>
			</g>
			<g id="saw2-pick_1_">
				<g>
					<path class="st170" d="M414.2,1726.6l136.8-109.1c9.9-7.9,24.2-3.1,31.8,10.9l0.1,0.3c7.6,14,5.7,31.7-4.3,39.7l-136.8,109.1"
						/>
					<g>
						<line class="st171" x1="414.2" y1="1726.6" x2="418.2" y2="1723.5"/>
						<path class="st260" d="M425.8,1717.4l125.3-99.9c9.9-7.9,24.2-3.1,31.8,10.9l0.1,0.3c7.6,14,5.7,31.7-4.3,39.7l-129,102.9"/>
						<line class="st171" x1="445.8" y1="1774.2" x2="441.9" y2="1777.4"/>
					</g>
				</g>
				<path class="st173" d="M420.9,1727.1L553,1621.8c8.1-6.5,19.7-2.5,25.9,8.8l0.7,1.3c6.2,11.3,4.6,25.8-3.5,32.2L444,1769.4"/>
				<path class="st174" d="M570.7,1638.1c3.5,6.5,2,15.2-3.4,19.6c-5.4,4.3-12.7,2.6-16.2-3.9c-3.5-6.5-2-15.2,3.4-19.6
					C559.9,1629.9,567.2,1631.7,570.7,1638.1z"/>
				<path class="st175" d="M410.4,1708.5L410.4,1708.5c-2.9-1.6-6.2-2.2-9.4-1.6l0,0c-1.1,0.2-2.2,0.6-3.3,1.2l-7.7,4.1l-8.4,1.9
					c-0.7,0.2-1.4,0.4-2,0.6l-2.9,1.1c-3.2,1.2-6.3,3-9.2,5.2l-3,2.4c-1.9,1.5-3.6,3.2-5.2,5.1l-2.9,3.6c-2.6,3.2-4.7,6.9-6.3,10.9
					l-5,12.8c-1.3,3.3-1.7,6.9-1.4,10.5l2.7,25.2l-24.3,28.2c-3.4,3.9-6.1,8.6-8.1,13.7l-0.2,0.4c-1.3,3.5-2,7.3-1.8,11.2l0,0
					c0.1,3.4,1,6.8,2.6,9.6l4.2,7.6c1.8,3.3,4.5,5.7,7.7,6.8l0,0c2.2,0.8,4.5,0.6,6.6-0.5l0.3-0.2c3.7-1.9,7.3-4.2,10.7-6.9
					l25.4-20.2l33.7-26.7l2.4-10.3c0.3-1.5,1.1-2.7,2.1-3.6l36.2-29.6c0.6-0.5,0.9-1.3,1-2.1l0,0c0-0.7-0.1-1.4-0.5-2l-27.8-51.2
					c-0.5-0.9-1-1.7-1.6-2.4l-2.2-2.8C412.3,1709.8,411.4,1709.1,410.4,1708.5z M338.6,1853.4l-5.4,3.5c-0.8,0.5-1.7,0.8-2.6,0.7
					l0,0c-1.7-0.1-3.2-1.1-4-2.8l-2.7-5.3c-0.7-1.3-1.2-2.8-1.5-4.4l0,0c-0.5-2.6-0.3-5.4,0.6-7.9l0.4-1.2c0.9-2.6,2.3-4.9,3.9-6.9
					l22.6-26.3c0.6-0.7,1.5-0.5,1.9,0.3l12.8,27.5c0.3,0.7,0.2,1.6-0.4,2.1l-25.2,20.4C338.9,1853.2,338.8,1853.3,338.6,1853.4z"/>
				<path class="st176" d="M403.4,1814.7l12.3-9.8c1.4-1.1,2.1-3.1,1.8-5.1l-0.9-6l-10.1,8L403.4,1814.7z"/>
				<path class="st176" d="M445.2,1768.1l2.9,8.1c0.5,1.4,0.1,3-0.9,3.8l-5.1,4.1c-1.5,1.2-3.5,1.5-5.2,0.6l-6-2.9l12.5-10
					C444.5,1771,445.2,1769.6,445.2,1768.1L445.2,1768.1z"/>
				<path class="st177" d="M344,1766.9l6.7-5.3c1.5-1.2,2.9-2.7,4-4.3l0.5-0.8c0.8-1.1,1.4-2.3,2-3.5l3.1-6.9c0.2-0.5,0.5-1,0.7-1.4
					l2.5-4.3c0.9-1.6,2.1-3.1,3.5-4.2l2.6-2.1c1.4-1.1,2.9-1.8,4.5-2.3l0,0c1.4-0.4,2.9-0.4,4.3-0.2l0.6,0.1
					c1.9,0.3,3.7,1.1,5.3,2.3l2.3,1.8l1.8,1.3c0.8,0.6,1.6,1,2.5,1.2l0.7,0.2c1.2,0.3,2.5,0.1,3.6-0.8l23.3-18.5l-1.8-3.4
					c-0.4-0.8-0.9-1.5-1.5-2.2l-1.9-2.3c-1.1-1.3-2.3-2.4-3.7-3.2l-0.5-0.3c-2.2-1.2-4.6-1.6-7-1.2l-1.3,0.2
					c-1.1,0.2-2.2,0.6-3.2,1.1l-5.4,2.9c-1.5,0.8-3.1,1.4-4.8,1.8l-4.5,1c-1.7,0.4-3.3,0.9-4.9,1.5l-0.5,0.2
					c-3.9,1.4-7.6,3.6-11,6.2l-1.1,0.9c-2.6,2.1-5,4.4-7.1,7.1l-0.8,1c-3.4,4.2-6.1,9-8.2,14.3l-5.2,13.3c-0.7,1.7-0.9,3.6-0.7,5.4
					L344,1766.9z"/>
				<path class="st178" d="M367.1,1766.3l-0.3,17.7c0,0.8,0.1,1.5,0.3,2.2l0.4,1.2c0.4,1.2,1.1,2.3,2,3l0,0c1.1,0.9,2.4,1.2,3.7,0.9
					l1.2-0.3c0.7-0.1,1.3-0.5,1.9-0.9l15.6-12.4c1.1-0.8,1.9-2.1,2.2-3.6l4.1-15.5c0.4-1.5,1.2-2.8,2.3-3.7l26.3-20.9l-6.8-12.5
					l-51,40.5C367.8,1763,367.1,1764.6,367.1,1766.3z"/>
				<path class="st179" d="M433.2,1746.1l-25.7,20.4c-1,0.8-1.6,2.3-1.5,3.8l0.9,12.9c0.1,1,1,1.6,1.7,1l27.9-22.2
					c0.6-0.4,1-1.1,1.3-1.8l0.3-0.9c0.2-0.5,0.3-1.1,0.3-1.7l0-0.5c0-0.8-0.2-1.7-0.6-2.4L433.2,1746.1z"/>
				<path class="st180" d="M420.1,1765.8c1.3,2.5,0.8,5.8-1.3,7.4c-2,1.6-4.8,0.9-6.1-1.5c-1.3-2.5-0.8-5.8,1.3-7.4
					C416,1762.6,418.8,1763.3,420.1,1765.8z"/>
				<path class="st180" d="M430.7,1757.3c1.3,2.5,0.8,5.8-1.3,7.4c-2,1.6-4.8,0.9-6.1-1.5c-1.3-2.5-0.8-5.8,1.3-7.4
					C426.7,1754.2,429.4,1754.9,430.7,1757.3z"/>
				<path class="st176" d="M354.2,1737.3c1.4,0.9,0.7,6-1.7,11.4s-5.4,9.1-6.8,8.2s-0.7-6,1.7-11.4
					C349.8,1740.1,352.8,1736.5,354.2,1737.3z"/>
				<polygon class="st181" points="389.2,1801.7 384.8,1802.3 381.3,1806.1 371.8,1772.6 377.7,1768.6 				"/>
				<path class="st182" d="M382.3,1787.6c0.9,0.9,1,2.5,0.2,3.5c-0.7,1-2,1.2-2.9,0.3c-0.9-0.9-1-2.5-0.2-3.5
					C380.2,1786.9,381.5,1786.7,382.3,1787.6z"/>
				<path class="st182" d="M385,1795.5c0.9,0.9,1,2.5,0.2,3.5c-0.7,1-2,1.2-2.9,0.3c-0.9-0.9-1-2.5-0.2-3.5
					C382.9,1794.8,384.2,1794.6,385,1795.5z"/>
				<path class="st182" d="M371.8,1772.6l-24.7-71.7c-0.8-2.3-1-4.8-0.6-7.2l0,0c0.3-2.1,1.1-4,2.2-5.7l2.5-3.7
					c0.9-1.3,2-2.4,3.2-3.2l3.2-2.1c1.6-1.1,3.5-1.6,5.3-1.5l0.5,0c1.7,0.1,3.3,0.6,4.8,1.6l1.2,0.8c1.5,1,2.7,2.4,3.6,4.1l2.4,4.5
					c0.3,0.5,0.5,1,0.7,1.6l8.9,23.2l-5.5,1.4l-8.2-21.7c-0.2-0.5-0.5-1-0.8-1.5l-2.1-3.2c-1.2-1.8-3-2.9-4.9-3l0,0
					c-1.3-0.1-2.6,0.4-3.8,1.2l-1.6,1.2c-0.8,0.6-1.5,1.4-2,2.4l-0.4,0.7c-0.8,1.5-1.2,3.2-1.1,5l0,0.5c0,0.8,0.2,1.7,0.4,2.4
					l22.6,69.8L371.8,1772.6z"/>
			</g>
			<g id="wood-pick_5_">
				<circle class="st247" cx="410.2" cy="2009.1" r="16.6"/>
				<circle class="st248" cx="410.2" cy="2009.1" r="12"/>
				<circle class="st248" cx="410.2" cy="2009.1" r="6.8"/>
				<circle class="st249" cx="410.2" cy="2009.1" r="2.8"/>
				<path class="st250" d="M403.4,1994l32.5-16.7c0.9-0.4,1.8-0.7,2.8-0.7h1.9c1,0,1.9,0.2,2.8,0.6l1.2,0.6c0.9,0.5,1.7,1.1,2.3,2
					l0.3,0.4c0.7,1,1.1,2.3,1.1,3.5v0.6c0,1.3-0.4,2.6-1.2,3.7l-23.6,31.3l2.4-4.3l1.1-3.5l-0.1-4.1l-1-4.2l-1.8-3.5l-3.5-3.7
					l-4.2-2.4l-4.8-1.1l-4.1,0.2L403.4,1994z"/>
			</g>
			<g id="money-pick_5_">
				<ellipse class="st251" cx="233.8" cy="2070.7" rx="12" ry="24.6"/>
				<path class="st252" d="M233.8,2046.1h3.7c2.7,0,5.2,0.9,7.3,2.6l0,0c1.3,1,2.3,2.3,3,3.8l2.2,4.4c0.6,1.3,1,2.7,1.2,4.1l0.8,8.6
					c0.1,0.8,0.1,1.6,0,2.4l-0.9,7.9c-0.1,1.1-0.4,2.1-0.8,3.1l-2.2,5.3c-0.7,1.6-1.7,3-3,4.2l0,0c-2.1,1.8-4.8,2.9-7.6,2.9h-3.6
					l3.6-1.1l3.5-3.5l2.1-4.2l1.7-5.7l0.9-5.7l0.2-7.1l-0.8-5.9l-1.5-5.6l-2.2-4.8l-2.5-3.2l-2.3-1.6L233.8,2046.1z"/>
			</g>
			<text transform="matrix(1 0 0 1 467.2208 2016.3958)" class="st253 st254 st255">100      </text>
			<text transform="matrix(1 0 0 1 271.7801 2089.3958)" class="st253 st254 st255">50      </text>
			<text transform="matrix(1 0 0 1 221.7801 2016.3958)" class="st253 st254 st255">Price:      </text>
			<text transform="matrix(1 0 0 1 215.7791 1911.385)"><tspan x="0" y="0" class="st253 st256 st257">Status need: Str 8</tspan><tspan x="0" y="44" class="st253 st256 st257">  Agi 10  Int 6</tspan></text>
		</g>
		<g id="pick2_x5F_buy">
			<rect x="687.9" y="1590.8" class="st246" width="485.1" height="635.2"/>
			<g id="btn-buy_x5F_pick2">
				<rect x="687.9" y="2105.7" class="st241" width="485.1" height="120.2"/>
				<g id="buy_5_">
					<g>
						<g>
							<path class="st242" d="M805.2,2128.1c-0.8,13.1-1.5,26.3-2.6,39.4c-0.5,6.1-1.7,11.9-3.8,17.7c-1,2.8-2.1,5.5-2.6,8.4
								c-0.4,2.2-0.3,5.4-1.9,7.2c-3.9,4.2,2.4,10.6,6.4,6.4c3.8-4.2,3.5-9.4,5.1-14.5c2-6.6,4.4-12.6,5.3-19.5
								c1.9-14.9,2.2-30.1,3.2-45C814.6,2122.4,805.6,2122.4,805.2,2128.1L805.2,2128.1z"/>
						</g>
					</g>
					<g>
						<g>
							<path class="st242" d="M814.1,2130.3c3.6-3.1,12.5-0.8,16.6,0.3c6.4,1.6,9.9,5.1,11.4,11.6c1.6,7.1-6,9.8-11.4,12.3
								c-6.7,3.1-14,5.1-21.3,5.9c-4.5,0.5-6.7,7.9-1.2,8.8c13.8,2.3,43.2-6.1,40,17.7c-1.3,9.9-14.5,11-22.4,11.3
								c-4.8,0.2-9.7,0.1-14.5,0.6c-3.9,0.4-9.7,2.9-13.5,2c1,1,2.1,2.1,3.1,3.1c0-0.2-0.1-0.4-0.1-0.6c-0.4,1.5-0.8,2.9-1.2,4.4
								c0.1-0.1,0.3-0.2,0.4-0.3c4.4-3.8-2-10.1-6.4-6.4c-0.1,0.1-0.3,0.2-0.4,0.3c-1.2,1.1-1.5,2.9-1.2,4.4c0,0.2,0.1,0.4,0.1,0.6
								c0.3,1.5,1.7,2.8,3.1,3.1c5.7,1.4,11.9-1.3,17.6-1.8c6.4-0.6,12.9-0.2,19.4-0.9c10.1-1.2,22.5-5.7,24.4-17.1
								c1.7-10.5-1.2-21.4-11.4-26.2c-11.2-5.3-23.2-1-34.9-2.9c-0.4,2.9-0.8,5.9-1.2,8.8c10.7-1.3,21.1-4.3,30.5-9.6
								c3.8-2.1,7.8-4.5,10-8.3c2.4-4.1,1.8-9,0.4-13.4c-2.6-8.7-8.4-14.1-17.2-16.4c-8.1-2-18.5-3.7-25.3,2.1
								C803.3,2127.7,809.7,2134,814.1,2130.3L814.1,2130.3z"/>
						</g>
					</g>
					<g>
						<g>
							<path class="st242" d="M903.8,2125.4c-4,18.2-7.3,37.6-7.1,56.3c0.1,14,7.7,31.2,24.5,29.6c17.2-1.6,23.9-19,31.1-31.9
								c9.1-16.2,13.8-33.3,15.4-51.7c-3,0-6,0-9,0c0.5,14.8-3.6,28.9-6.3,43.3c-2.2,11.7-3.9,24.4,3,34.9c3.1,4.8,10.9,0.3,7.8-4.5
								c-6.8-10.4-2.9-24.1-0.5-35.4c2.7-12.7,5.6-25.3,5.1-38.3c-0.2-5.9-8.5-5.7-9,0c-1.2,15-4.8,30-12,43.3
								c-3.1,5.7-6.1,11.6-9.3,17.2c-3.3,5.8-7.6,11.7-14.4,13.7c-16,4.6-17.6-16.8-17-27.1c0.9-15.8,3.2-31.5,6.6-47
								C913.7,2122.2,905,2119.8,903.8,2125.4L903.8,2125.4z"/>
						</g>
					</g>
					<g>
						<g>
							<path class="st242" d="M1003.2,2130.8c10.6,9.7,19.2,21,25.7,33.9c2.1,4.1,8.4,2,8.4-2.3c0-2.8,6-7.5,7.9-9.5
								c2.7-2.8,5.4-5.5,8.2-8.1c5.6-5.3,11.5-10.4,17.5-15.2c4.5-3.6-1.9-10-6.4-6.4c-7.4,6-14.6,12.2-21.4,18.9
								c-5.3,5.2-14.8,12.1-14.9,20.2c2.8-0.8,5.6-1.5,8.4-2.3c-6.7-13.5-15.9-25.6-27.1-35.7
								C1005.3,2120.5,998.9,2126.9,1003.2,2130.8L1003.2,2130.8z"/>
						</g>
					</g>
					<g>
						<g>
							<path class="st242" d="M1028.5,2162.3c-1.3,13,2.1,26.5-2.2,39.2c-1.8,5.5,6.9,7.9,8.7,2.4c4.5-13.5,1-27.7,2.5-41.6
								C1038.1,2156.6,1029.1,2156.6,1028.5,2162.3L1028.5,2162.3z"/>
						</g>
					</g>
				</g>
			</g>
			<g id="pick2-pick_1_">
				<path class="st195" d="M794.5,1861.5c-2.3-0.8-2.9-4.5-1-6.3l139.9-131.7l42.6-43.8l25-23.8l4.3-1.3c1.2-0.4,2.4-0.4,3.6-0.1
					l2.2,0.6c1.7,0.4,3.1,2,3.5,4.1l0,0c0.3,1.3,0.3,2.6,0,3.8l-0.2,1.2c-0.5,2.5-1.5,4.7-3.1,6.4l-8.7,9.7l-15.2,13.2l-12.6,8.9
					c-6.2,4.4-12.1,9.2-17.8,14.5l-153.9,143.7c-2,1.9-4.6,2.4-7,1.6L794.5,1861.5z"/>
				<path class="st196" d="M1005.5,1662.7l11.4,14.6c2.3,2.9,4.3,6.1,6.2,9.5l8.7,16c2.3,4.3,4.3,8.9,5.8,13.7l6.5,20.2
					c1.3,4,2.3,8.1,3.1,12.2l3.7,19.4c0.2,1-0.8,1.5-1.2,0.6l-9.9-20.5c-1.6-3.3-3.3-6.5-5-9.6l-10.5-18.7
					c-3.3-5.8-6.8-11.3-10.6-16.6l-7.8-10.8l-13.2-17.1l-5.9-6.5c-8.8-9.6-18.7-17.4-29.2-23.2l-6-3.3c-1.2-0.7-1.6-2.6-0.8-3.8
					l7.1-11.4c1.6-2.5,3.5-4.7,5.6-6.4l11.2-8.7c1-0.8,2.4-0.3,3,1.1l4.6,10.3c4.4,9.8,9.5,19.1,15.4,27.6L1005.5,1662.7z"/>
			</g>
			<g id="stone-pick_2_">
				<path class="st261" d="M873,2016.2l1.6-9.1c0.5-2.9,1.5-5.8,2.8-8.5l3.9-7.7c2.4-4.8,6.3-8.7,11-11.3l7.3-4
					c3.1-1.7,6.6-2.4,10.1-2l7.9,1c3.7,0.4,7.1,2.1,9.7,4.7l2.6,2.6c2.7,2.7,4.3,6.4,4.3,10.3v22.4l-6,2.5c-5.9,2.5-12.2,4-18.6,4.4
					l-11.1,0.7c-7.3,0.5-14.6-0.9-21.3-4L873,2016.2z"/>
				<path class="st262" d="M902.1,1977.2l-8.2,4.8c-3.1,1.8-5.6,4.3-7.3,7.4l-5.1,9.2c-1,1.8-1.7,3.6-2.1,5.6l-1.9,8.4l5.9,3.3
					c2.5,1.4,5.4,2.2,8.3,2.2h3.6v-13.6c0-3,0.7-5.9,2-8.6l3-6.2c0.9-1.8,2-3.4,3.4-4.8l9.9-9.9h-3.4
					C907.3,1975,904.5,1975.8,902.1,1977.2z"/>
			</g>
			<g id="money-pick_6_">
				<ellipse class="st251" cx="716.9" cy="2070.7" rx="12" ry="24.6"/>
				<path class="st252" d="M716.9,2046.1h3.7c2.7,0,5.2,0.9,7.3,2.6l0,0c1.3,1,2.3,2.3,3,3.8l2.2,4.4c0.6,1.3,1,2.7,1.2,4.1l0.8,8.6
					c0.1,0.8,0.1,1.6,0,2.4l-0.9,7.9c-0.1,1.1-0.4,2.1-0.8,3.1l-2.2,5.3c-0.7,1.6-1.7,3-3,4.2l0,0c-2.1,1.8-4.8,2.9-7.6,2.9h-3.6
					l3.6-1.1l3.5-3.5l2.1-4.2l1.7-5.7l0.9-5.7l0.2-7.1l-0.8-5.9l-1.5-5.6l-2.2-4.8l-2.5-3.2l-2.3-1.6L716.9,2046.1z"/>
			</g>
			<text transform="matrix(1 0 0 1 950.4006 2016.3958)" class="st253 st254 st255">100      </text>
			<text transform="matrix(1 0 0 1 754.9598 2089.3958)" class="st253 st254 st255">50      </text>
			<text transform="matrix(1 0 0 1 704.9599 2016.3958)" class="st253 st254 st255">Price:      </text>
			<text transform="matrix(1 0 0 1 698.9589 1911.385)" class="st253 st256 st257">Status need: Str 3</text>
		</g>
		<g id="pick3_x5F_buy">
			<rect x="1173" y="1590.8" class="st246" width="485.1" height="635.2"/>
			<g id="btn-buy_x5F_pick3">
				<rect x="1173" y="2105.7" class="st241" width="485.1" height="120.2"/>
				<g id="buy_6_">
					<g>
						<g>
							<path class="st242" d="M1288.8,2128.1c-0.8,13.1-1.5,26.3-2.6,39.4c-0.5,6.1-1.7,11.9-3.8,17.7c-1,2.8-2.1,5.5-2.6,8.4
								c-0.4,2.2-0.3,5.4-1.9,7.2c-3.9,4.2,2.4,10.6,6.4,6.4c3.8-4.2,3.5-9.4,5.1-14.5c2-6.6,4.4-12.6,5.3-19.5
								c1.9-14.9,2.2-30.1,3.2-45C1298.1,2122.4,1289.1,2122.4,1288.8,2128.1L1288.8,2128.1z"/>
						</g>
					</g>
					<g>
						<g>
							<path class="st242" d="M1297.6,2130.3c3.6-3.1,12.5-0.8,16.6,0.3c6.4,1.6,9.9,5.1,11.4,11.6c1.6,7.1-6,9.8-11.4,12.3
								c-6.7,3.1-14,5.1-21.3,5.9c-4.5,0.5-6.7,7.9-1.2,8.8c13.8,2.3,43.2-6.1,40,17.7c-1.3,9.9-14.5,11-22.4,11.3
								c-4.8,0.2-9.7,0.1-14.5,0.6c-3.9,0.4-9.7,2.9-13.5,2c1,1,2.1,2.1,3.1,3.1c0-0.2-0.1-0.4-0.1-0.6c-0.4,1.5-0.8,2.9-1.2,4.4
								c0.1-0.1,0.3-0.2,0.4-0.3c4.4-3.8-2-10.1-6.4-6.4c-0.1,0.1-0.3,0.2-0.4,0.3c-1.2,1.1-1.5,2.9-1.2,4.4c0,0.2,0.1,0.4,0.1,0.6
								c0.3,1.5,1.7,2.8,3.1,3.1c5.7,1.4,11.9-1.3,17.6-1.8c6.4-0.6,12.9-0.2,19.4-0.9c10.1-1.2,22.5-5.7,24.4-17.1
								c1.7-10.5-1.2-21.4-11.4-26.2c-11.2-5.3-23.2-1-34.9-2.9c-0.4,2.9-0.8,5.9-1.2,8.8c10.7-1.3,21.1-4.3,30.5-9.6
								c3.8-2.1,7.8-4.5,10-8.3c2.4-4.1,1.8-9,0.4-13.4c-2.6-8.7-8.4-14.1-17.2-16.4c-8.1-2-18.5-3.7-25.3,2.1
								C1286.8,2127.7,1293.2,2134,1297.6,2130.3L1297.6,2130.3z"/>
						</g>
					</g>
					<g>
						<g>
							<path class="st242" d="M1387.3,2125.4c-4,18.2-7.3,37.6-7.1,56.3c0.1,14,7.7,31.2,24.5,29.6c17.2-1.6,23.9-19,31.1-31.9
								c9.1-16.2,13.8-33.3,15.4-51.7c-3,0-6,0-9,0c0.5,14.8-3.6,28.9-6.3,43.3c-2.2,11.7-3.9,24.4,3,34.9c3.1,4.8,10.9,0.3,7.8-4.5
								c-6.8-10.4-2.9-24.1-0.5-35.4c2.7-12.7,5.6-25.3,5.1-38.3c-0.2-5.9-8.5-5.7-9,0c-1.2,15-4.8,30-12,43.3
								c-3.1,5.7-6.1,11.6-9.3,17.2c-3.3,5.8-7.6,11.7-14.4,13.7c-16,4.6-17.6-16.8-17-27.1c0.9-15.8,3.2-31.5,6.6-47
								C1397.2,2122.2,1388.5,2119.8,1387.3,2125.4L1387.3,2125.4z"/>
						</g>
					</g>
					<g>
						<g>
							<path class="st242" d="M1486.7,2130.8c10.6,9.7,19.2,21,25.7,33.9c2.1,4.1,8.4,2,8.4-2.3c0-2.8,6-7.5,7.9-9.5
								c2.7-2.8,5.4-5.5,8.2-8.1c5.6-5.3,11.5-10.4,17.5-15.2c4.5-3.6-1.9-10-6.4-6.4c-7.4,6-14.6,12.2-21.4,18.9
								c-5.3,5.2-14.8,12.1-14.9,20.2c2.8-0.8,5.6-1.5,8.4-2.3c-6.7-13.5-15.9-25.6-27.1-35.7
								C1488.8,2120.5,1482.4,2126.9,1486.7,2130.8L1486.7,2130.8z"/>
						</g>
					</g>
					<g>
						<g>
							<path class="st242" d="M1512,2162.3c-1.3,13,2.1,26.5-2.2,39.2c-1.8,5.5,6.9,7.9,8.7,2.4c4.5-13.5,1-27.7,2.5-41.6
								C1521.6,2156.6,1512.6,2156.6,1512,2162.3L1512,2162.3z"/>
						</g>
					</g>
				</g>
			</g>
			<g id="pick3-pick_1_">
				<path class="st192" d="M1272.9,1858.5c-2.1-1.1-2.3-4.6-0.4-6.1l143.6-107l44-36.1l25.7-19.3l4.2-0.7c1.2-0.2,2.3-0.1,3.5,0.4
					l2.1,0.8c1.6,0.6,2.8,2.3,3,4.3l0,0c0.1,1.2,0,2.5-0.3,3.6l-0.3,1.1c-0.6,2.3-1.8,4.2-3.4,5.7l-9.1,8.1l-15.5,10.6l-12.7,6.8
					c-6.2,3.3-12.3,7.2-18.1,11.5l-157.9,116.6c-2,1.5-4.5,1.7-6.7,0.6L1272.9,1858.5z"/>
				<path class="st193" d="M1507.7,1724.5l-3.1-6.5c-2.5-5.1-5.3-10-8.6-14.5l-3.6-5c-0.8-1.1-1.4-2.3-1.9-3.7l-0.8-2.2
					c-3-7.9-6.6-15.5-10.8-22.6l-1.9-3.3c-3.4-5.8-7.3-11.3-11.6-16.2l-4.7-5.4c-4-4.6-8.2-8.8-12.8-12.5l-5.2-4.3
					c-2.8-2.3-5.7-4.5-8.8-6.4l-3.2-2c-4.4-2.8-9-4.9-13.7-6.5l0,0c-0.8-0.3-1.3,1.1-0.6,1.7l7.2,6.2c3.9,3.4,7.5,7.1,10.9,11.2
					l5.4,6.7c3.5,4.3,6.7,8.8,9.7,13.5l4.6,7.3c3.1,5,5.8,10.3,8,16l3.9,9.9c1.4,3.6,2.7,7.3,3.8,11.1l4.1,13.4
					c0.2,0.7,0.6,1.4,1.1,1.9l6.3,7.1c3,3.4,5.9,7.1,8.6,10.9l2.9,4.1c4.8,6.8,9,14.2,12.4,22.1l1.1,2.4c3,6.7,5.6,13.6,7.8,20.7
					l2.1,6.7c1.7,5.2,2.9,10.6,3.8,16.1l2.2,13.7c0.1,0.4,0.6,0.4,0.6,0l0,0c1.1-7.8,1.5-15.8,1.1-23.7l0-0.7
					c-0.2-4.6-0.6-9.1-1.3-13.6l-0.8-5.3c-1.1-7.6-2.7-15.1-4.8-22.4l-1.5-5.3C1513.4,1738,1510.8,1731.1,1507.7,1724.5z"/>
			</g>
			<g id="stone-pick_3_">
				<path class="st261" d="M1359.2,2016.2l1.6-9.1c0.5-2.9,1.5-5.8,2.8-8.5l3.9-7.7c2.4-4.8,6.3-8.7,11-11.3l7.3-4
					c3.1-1.7,6.6-2.4,10.1-2l7.9,1c3.7,0.4,7.1,2.1,9.7,4.7l2.6,2.6c2.7,2.7,4.3,6.4,4.3,10.3v22.4l-6,2.5c-5.9,2.5-12.2,4-18.6,4.4
					l-11.1,0.7c-7.3,0.5-14.6-0.9-21.3-4L1359.2,2016.2z"/>
				<path class="st262" d="M1388.3,1977.2l-8.2,4.8c-3.1,1.8-5.6,4.3-7.3,7.4l-5.1,9.2c-1,1.8-1.7,3.6-2.1,5.6l-1.9,8.4l5.9,3.3
					c2.5,1.4,5.4,2.2,8.3,2.2h3.6v-13.6c0-3,0.7-5.9,2-8.6l3-6.2c0.9-1.8,2-3.4,3.4-4.8l9.9-9.9h-3.4
					C1393.6,1975,1390.8,1975.8,1388.3,1977.2z"/>
			</g>
			<g id="money-pick_7_">
				<ellipse class="st251" cx="1203.2" cy="2070.7" rx="12" ry="24.6"/>
				<path class="st252" d="M1203.2,2046.1h3.7c2.7,0,5.2,0.9,7.3,2.6l0,0c1.3,1,2.3,2.3,3,3.8l2.2,4.4c0.6,1.3,1,2.7,1.2,4.1
					l0.8,8.6c0.1,0.8,0.1,1.6,0,2.4l-0.9,7.9c-0.1,1.1-0.4,2.1-0.8,3.1l-2.2,5.3c-0.7,1.6-1.7,3-3,4.2l0,0c-2.1,1.8-4.8,2.9-7.6,2.9
					h-3.6l3.6-1.1l3.5-3.5l2.1-4.2l1.7-5.7l0.9-5.7l0.2-7.1l-0.8-5.9l-1.5-5.6l-2.2-4.8l-2.5-3.2l-2.3-1.6L1203.2,2046.1z"/>
			</g>
			<text transform="matrix(1 0 0 1 1436.6302 2016.3958)" class="st253 st254 st255">100      </text>
			<text transform="matrix(1 0 0 1 1241.1896 2089.3958)" class="st253 st254 st255">50      </text>
			<text transform="matrix(1 0 0 1 1191.1896 2016.3958)" class="st253 st254 st255">Price:      </text>
			<text transform="matrix(1 0 0 1 1185.1886 1911.385)" class="st253 st256 st257">Status need: Str 8</text>
		</g>
		<g id="perf_x5F_buy">
			<rect x="202.4" y="2226" class="st246" width="485.1" height="635.2"/>
			<g id="btn-buy_x5F_perf">
				<rect x="202.4" y="2740.9" class="st241" width="485.1" height="120.2"/>
				<g id="buy_7_">
					<g>
						<g>
							<path class="st242" d="M316.2,2763.2c-0.8,13.1-1.5,26.3-2.6,39.4c-0.5,6.1-1.7,11.9-3.8,17.7c-1,2.8-2.1,5.5-2.6,8.4
								c-0.4,2.2-0.3,5.4-1.9,7.2c-3.9,4.2,2.4,10.6,6.4,6.4c3.8-4.2,3.5-9.4,5.1-14.5c2-6.6,4.4-12.6,5.3-19.5
								c1.9-14.9,2.2-30.1,3.2-45C325.6,2757.4,316.6,2757.4,316.2,2763.2L316.2,2763.2z"/>
						</g>
					</g>
					<g>
						<g>
							<path class="st242" d="M325,2765.3c3.6-3.1,12.5-0.8,16.6,0.3c6.4,1.6,9.9,5.1,11.4,11.6c1.6,7.1-6,9.8-11.4,12.3
								c-6.7,3.1-14,5.1-21.3,5.9c-4.5,0.5-6.7,7.9-1.2,8.8c13.8,2.3,43.2-6.1,40,17.7c-1.3,9.9-14.5,11-22.4,11.3
								c-4.8,0.2-9.7,0.1-14.5,0.6c-3.9,0.4-9.7,2.9-13.5,2c1,1,2.1,2.1,3.1,3.1c0-0.2-0.1-0.4-0.1-0.6c-0.4,1.5-0.8,2.9-1.2,4.4
								c0.1-0.1,0.3-0.2,0.4-0.3c4.4-3.8-2-10.1-6.4-6.4c-0.1,0.1-0.3,0.2-0.4,0.3c-1.2,1.1-1.5,2.9-1.2,4.4c0,0.2,0.1,0.4,0.1,0.6
								c0.3,1.5,1.7,2.8,3.1,3.1c5.7,1.4,11.9-1.3,17.6-1.8c6.4-0.6,12.9-0.2,19.4-0.9c10.1-1.2,22.5-5.7,24.4-17.1
								c1.7-10.5-1.2-21.4-11.4-26.2c-11.2-5.3-23.2-1-34.9-2.9c-0.4,2.9-0.8,5.9-1.2,8.8c10.7-1.3,21.1-4.3,30.5-9.6
								c3.8-2.1,7.8-4.5,10-8.3c2.4-4.1,1.8-9,0.4-13.4c-2.6-8.7-8.4-14.1-17.2-16.4c-8.1-2-18.5-3.7-25.3,2.1
								C314.2,2762.7,320.6,2769.1,325,2765.3L325,2765.3z"/>
						</g>
					</g>
					<g>
						<g>
							<path class="st242" d="M414.7,2760.5c-4,18.2-7.3,37.6-7.1,56.3c0.1,14,7.7,31.2,24.5,29.6c17.2-1.6,23.9-19,31.1-31.9
								c9.1-16.2,13.8-33.3,15.4-51.7c-3,0-6,0-9,0c0.5,14.8-3.6,28.9-6.3,43.3c-2.2,11.7-3.9,24.4,3,34.9c3.1,4.8,10.9,0.3,7.8-4.5
								c-6.8-10.4-2.9-24.1-0.5-35.4c2.7-12.7,5.6-25.3,5.1-38.3c-0.2-5.9-8.5-5.7-9,0c-1.2,15-4.8,30-12,43.3
								c-3.1,5.7-6.1,11.6-9.3,17.2c-3.3,5.8-7.6,11.7-14.4,13.7c-16,4.6-17.6-16.8-17-27.1c0.9-15.8,3.2-31.5,6.6-47
								C424.6,2757.2,416,2754.8,414.7,2760.5L414.7,2760.5z"/>
						</g>
					</g>
					<g>
						<g>
							<path class="st242" d="M514.1,2765.8c10.6,9.7,19.2,21,25.7,33.9c2.1,4.1,8.4,2,8.4-2.3c0-2.8,6-7.5,7.9-9.5
								c2.7-2.8,5.4-5.5,8.2-8.1c5.6-5.3,11.5-10.4,17.5-15.2c4.5-3.6-1.9-10-6.4-6.4c-7.4,6-14.6,12.2-21.4,18.9
								c-5.3,5.2-14.8,12.1-14.9,20.2c2.8-0.8,5.6-1.5,8.4-2.3c-6.7-13.5-15.9-25.6-27.1-35.7
								C516.2,2755.6,509.9,2761.9,514.1,2765.8L514.1,2765.8z"/>
						</g>
					</g>
					<g>
						<g>
							<path class="st242" d="M539.4,2797.4c-1.3,13,2.1,26.5-2.2,39.2c-1.8,5.5,6.9,7.9,8.7,2.4c4.5-13.5,1-27.7,2.5-41.6
								C549,2791.6,540,2791.7,539.4,2797.4L539.4,2797.4z"/>
						</g>
					</g>
				</g>
			</g>
			<g id="perforator-pick_1_">
				<path class="st215" d="M412,2347.2l-98.8,68c-0.3,0.2-0.7,0.5-0.9,0.9l-1.1,1.4c-0.3,0.4-0.5,0.8-0.7,1.3l-0.7,2
					c-0.2,0.5-0.3,1.1-0.3,1.7l0,0.4c0,0.9,0.1,1.8,0.5,2.6l0,0c0.3,0.7,0.8,1.3,1.5,1.8l0.4,0.3c0.5,0.3,1,0.5,1.5,0.6l1.3,0.2
					c0.1,0,0.3,0,0.4,0.1l1.3,0.4c0.6,0.2,1.2,0.5,1.7,1l0,0c0.6,0.6,1,1.5,1.1,2.4l0.6,3.2l-0.1,7.2l1.1,11.1l3.2,13l13.3,38
					c0.2,0.7,0.6,1.2,1.1,1.6l0,0c0.9,0.8,2.1,1.1,3.2,0.9l0.7-0.1c0.6-0.1,1.1-0.3,1.6-0.7l9.3-6.4c0.6-0.4,1.1-1,1.4-1.8l0,0
					c0.3-0.7,0.4-1.5,0.4-2.3l-0.1-2.8c0-0.6-0.1-1.2-0.3-1.7l-14.7-42.5c-0.2-0.6-0.3-1.3-0.2-2v0c0.2-1.5,0.7-2.9,1.6-4l0.8-1
					l9.5-6.3c0.5-0.3,0.9-0.5,1.4-0.7l6.2-2.1l13.6-4.4l17.5-8.5c0.7-0.3,1.3-0.7,1.9-1.1l20.2-14.3c1.2-0.9,2.3-1.8,3.4-2.9
					l4.4-4.5c3.8-3.9,6.7-8.9,8.4-14.6l0.1-0.2c0.4-1.3,0.6-2.7,0.6-4.1l0-0.8c0-1.8-0.4-3.6-1.1-5.2l-10.9-23.1
					c-0.3-0.6-0.7-1.2-1.3-1.5l-0.4-0.3c-0.3-0.2-0.6-0.4-1-0.4l0,0C413.5,2346.6,412.7,2346.7,412,2347.2z"/>
				<path class="st226" d="M370.5,2429.1l-6.9-48.6l48.4-33.3c0.7-0.5,1.6-0.7,2.4-0.5l0,0c0.3,0.1,0.7,0.2,1,0.4l0.4,0.3
					c0.5,0.4,1,0.9,1.3,1.5l11.3,24c0.5,1,0.7,2.1,0.7,3.3l0,2.6c0,0.9-0.1,1.8-0.4,2.6l-0.9,3c-1.3,4.3-3.5,8.1-6.4,11.1l-5.8,5.9
					c-1,1.1-2.2,2-3.4,2.9l-19.4,13.8c-1.2,0.8-2.4,1.5-3.6,2.1l-16.7,8.1L370.5,2429.1z"/>
				<polygon class="st227" points="313.5,2428.2 365.3,2392.6 364.8,2389.1 310.4,2426.6 312.4,2428 				"/>
				<path class="st226" d="M319.6,2435.4l3.5,13.8c0.4,1.7,0.9,3.3,1.5,4.9l3.4,9.1c1.3,3.4,3,6.5,5.1,9.2l1.5,2
					c1.3,1.6,2.9,2.8,4.6,3.4l2.5,0.8c1.2,0.4,2.4,0.5,3.5,0.5l4.6-0.2l4.3,12.4c0.2,0.6,0.3,1.3,0.4,1.9l0.1,2.9
					c0,0.7-0.1,1.3-0.3,1.9l-0.1,0.4c-0.3,0.7-0.7,1.2-1.2,1.6l-9.3,6.4c-0.5,0.4-1.1,0.6-1.8,0.7l-1.2,0.2c-0.7,0.1-1.4-0.1-2-0.5
					l-0.5-0.4c-0.6-0.5-1-1.1-1.3-1.8l-12.5-35.6c-0.5-1.5-1-3-1.3-4.5l-1.9-7.6c-0.5-2.1-0.9-4.2-1.1-6.3l-0.7-6.7
					c-0.1-0.8-0.1-1.6-0.1-2.5L319.6,2435.4z"/>
				<path class="st228" d="M332.1,2453.4c0.7,1.5,2.3,2,3.5,1.2c1.2-0.8,1.7-2.7,1-4.2c-0.7-1.5-2.3-2-3.5-1.2
					C331.8,2450.1,331.4,2451.9,332.1,2453.4z"/>
				<path class="st226" d="M339.4,2446.7l0.1-0.4c0.1-1,0.5-2,1.1-2.8l0.8-1.1c0.2-0.3,0.5-0.5,0.7-0.7l4.4-2.9l-2,2.1
					c-0.8,0.8-1.3,2-1.4,3.3l0,0.7c0,0.6,0,1.3,0.3,1.9l4.1,11.9c0.2,0.7,0.3,1.4,0.1,2.1l0,0c-0.1,0.5-0.4,0.9-0.8,1.2l-1.2,0.8
					c-0.4,0.3-1,0.1-1.2-0.5l-4.6-13.3C339.4,2448.4,339.3,2447.5,339.4,2446.7z"/>
				<path class="st230" d="M334.8,2435.2l4.5-3.1c1-0.7,1.4-2.3,0.8-3.6l-3.8-8.1c-0.6-1.3-1.9-1.7-3-1l-4.5,3.1
					c-1,0.7-1.4,2.3-0.8,3.6l3.8,8.1C332.4,2435.5,333.7,2435.9,334.8,2435.2z"/>
				<path class="st215" d="M334.1,2433.5l4.4-3c0.7-0.5,1-1.6,0.6-2.5l0,0c-0.4-0.9-1.3-1.2-2-0.7l-4.4,3c-0.7,0.5-1,1.6-0.6,2.5
					l0,0C332.4,2433.7,333.3,2434,334.1,2433.5z"/>
				<path class="st231" d="M393.1,2392.9c3.2,6.8,10.3,9.2,16,5.3s7.6-12.5,4.4-19.3s-10.3-9.2-16-5.3S389.9,2386.1,393.1,2392.9z"
					/>
				<path class="st230" d="M406.4,2397l3.4-2.3c0.6-0.4,0.8-1.4,0.5-2.2l-8.2-17.4c-0.4-0.8-1.2-1-1.8-0.6l-3.4,2.3
					c-0.6,0.4-0.8,1.4-0.5,2.2l8.2,17.4C405,2397.1,405.8,2397.4,406.4,2397z"/>
				<polygon class="st231" points="423.4,2343.6 416.7,2348.2 428.4,2373.2 435.1,2368.6 				"/>
				<polygon class="st226" points="427.8,2342.1 423.9,2344.8 434.7,2367.7 438.6,2365 				"/>
				<polygon class="st231" points="437.2,2334.5 427.4,2341.3 439,2365.9 448.7,2359.1 				"/>
				<polygon class="st230" points="448.7,2359.1 450.4,2352.3 443,2336.5 437.2,2334.5 				"/>
				<polygon class="st226" points="450.4,2352.3 461.3,2342.2 462.1,2339.5 458,2330.9 455.8,2330.7 443,2336.5 				"/>
				<polygon class="st224" points="468.3,2333.3 461.5,2338.1 458.6,2332.1 465.4,2327.3 				"/>
				<path class="st225" d="M580.3,2250.6l-7.5,10.8c-0.7,1-1.6,1.9-2.6,2.6l-92.8,65.7c-2.8,2-6,3.2-9.2,3.6h0l-2.9-6l0,0
					c1.9-3.3,4.4-6,7.3-8.1l92.6-65.6c1-0.7,2.1-1.2,3.2-1.4l11.4-2.6C580.3,2249.5,580.6,2250.2,580.3,2250.6z"/>
			</g>
			<g id="stone-pick_4_">
				<path class="st261" d="M388.7,2648.6l1.6-9.1c0.5-2.9,1.5-5.8,2.8-8.5l3.9-7.7c2.4-4.8,6.3-8.7,11-11.3l7.3-4
					c3.1-1.7,6.6-2.4,10.1-2l7.9,1c3.7,0.4,7.1,2.1,9.7,4.7l2.6,2.6c2.7,2.7,4.3,6.4,4.3,10.3v22.4l-6,2.5c-5.9,2.5-12.2,4-18.6,4.4
					l-11.1,0.7c-7.3,0.5-14.6-0.9-21.3-4L388.7,2648.6z"/>
				<path class="st262" d="M417.8,2609.6l-8.2,4.8c-3.1,1.8-5.6,4.3-7.3,7.4l-5.1,9.2c-1,1.8-1.7,3.6-2.1,5.6l-1.9,8.4l5.9,3.3
					c2.5,1.4,5.4,2.2,8.3,2.2h3.6v-13.6c0-3,0.7-5.9,2-8.6l3-6.2c0.9-1.8,2-3.4,3.4-4.8l9.9-9.9h-3.4
					C423,2607.4,420.3,2608.2,417.8,2609.6z"/>
			</g>
			<g id="money-pick_8_">
				<ellipse class="st251" cx="232.6" cy="2703" rx="12" ry="24.6"/>
				<path class="st252" d="M232.6,2678.4h3.7c2.7,0,5.2,0.9,7.3,2.6l0,0c1.3,1,2.3,2.3,3,3.8l2.2,4.4c0.6,1.3,1,2.7,1.2,4.1l0.8,8.6
					c0.1,0.8,0.1,1.6,0,2.4l-0.9,7.9c-0.1,1.1-0.4,2.1-0.8,3.1l-2.2,5.3c-0.7,1.6-1.7,3-3,4.2h0c-2.1,1.8-4.8,2.9-7.6,2.9h-3.6
					l3.6-1.1l3.5-3.5l2.1-4.2l1.7-5.7l0.9-5.7l0.2-7.1l-0.8-5.9l-1.5-5.6l-2.2-4.8l-2.5-3.2l-2.3-1.6L232.6,2678.4z"/>
			</g>
			<text transform="matrix(1 0 0 1 466.1062 2648.6243)" class="st253 st254 st255">100      </text>
			<text transform="matrix(1 0 0 1 270.6655 2721.6243)" class="st253 st254 st255">50      </text>
			<text transform="matrix(1 0 0 1 220.6655 2648.6243)" class="st253 st254 st255">Price:      </text>
			<text transform="matrix(1 0 0 1 214.6645 2543.6135)"><tspan x="0" y="0" class="st253 st256 st257">Status need: Str 7</tspan><tspan x="0" y="44" class="st253 st256 st257">  Agi 6  Int 3</tspan></text>
		</g>
		<g id="perf2_x5F_buy">
			<rect x="687.9" y="2225.9" class="st246" width="485.1" height="635.2"/>
			<g id="btn-buy_x5F_perf2">
				<rect x="687.9" y="2740.8" class="st241" width="485.1" height="120.2"/>
				<g id="buy_8_">
					<g>
						<g>
							<path class="st242" d="M802,2763.2c-0.8,13.1-1.5,26.3-2.6,39.4c-0.5,6.1-1.7,11.9-3.8,17.7c-1,2.8-2.1,5.5-2.6,8.4
								c-0.4,2.2-0.3,5.4-1.9,7.2c-3.9,4.2,2.4,10.6,6.4,6.4c3.8-4.2,3.5-9.4,5.1-14.5c2-6.6,4.4-12.6,5.3-19.5
								c1.9-14.9,2.2-30.1,3.2-45C811.3,2757.4,802.3,2757.4,802,2763.2L802,2763.2z"/>
						</g>
					</g>
					<g>
						<g>
							<path class="st242" d="M810.8,2765.3c3.6-3.1,12.5-0.8,16.6,0.3c6.4,1.6,9.9,5.1,11.4,11.6c1.6,7.1-6,9.8-11.4,12.3
								c-6.7,3.1-14,5.1-21.3,5.9c-4.5,0.5-6.7,7.9-1.2,8.8c13.8,2.3,43.2-6.1,40,17.7c-1.3,9.9-14.5,11-22.4,11.3
								c-4.8,0.2-9.7,0.1-14.5,0.6c-3.9,0.4-9.7,2.9-13.5,2c1,1,2.1,2.1,3.1,3.1c0-0.2-0.1-0.4-0.1-0.6c-0.4,1.5-0.8,2.9-1.2,4.4
								c0.1-0.1,0.3-0.2,0.4-0.3c4.4-3.8-2-10.1-6.4-6.4c-0.1,0.1-0.3,0.2-0.4,0.3c-1.2,1.1-1.5,2.9-1.2,4.4c0,0.2,0.1,0.4,0.1,0.6
								c0.3,1.5,1.7,2.8,3.1,3.1c5.7,1.4,11.9-1.3,17.6-1.8c6.4-0.6,12.9-0.2,19.4-0.9c10.1-1.2,22.5-5.7,24.4-17.1
								c1.7-10.5-1.2-21.4-11.4-26.2c-11.2-5.3-23.2-1-34.9-2.9c-0.4,2.9-0.8,5.9-1.2,8.8c10.7-1.3,21.1-4.3,30.5-9.6
								c3.8-2.1,7.8-4.5,10-8.3c2.4-4.1,1.8-9,0.4-13.4c-2.6-8.7-8.4-14.1-17.2-16.4c-8.1-2-18.5-3.7-25.3,2.1
								C800,2762.7,806.4,2769.1,810.8,2765.3L810.8,2765.3z"/>
						</g>
					</g>
					<g>
						<g>
							<path class="st242" d="M900.5,2760.5c-4,18.2-7.3,37.6-7.1,56.3c0.1,14,7.7,31.2,24.5,29.6c17.2-1.6,23.9-19,31.1-31.9
								c9.1-16.2,13.8-33.3,15.4-51.7c-3,0-6,0-9,0c0.5,14.8-3.6,28.9-6.3,43.3c-2.2,11.7-3.9,24.4,3,34.9c3.1,4.8,10.9,0.3,7.8-4.5
								c-6.8-10.4-2.9-24.1-0.5-35.4c2.7-12.7,5.6-25.3,5.1-38.3c-0.2-5.9-8.5-5.7-9,0c-1.2,15-4.8,30-12,43.3
								c-3.1,5.7-6.1,11.6-9.3,17.2c-3.3,5.8-7.6,11.7-14.4,13.7c-16,4.6-17.6-16.8-17-27.1c0.9-15.8,3.2-31.5,6.6-47
								C910.4,2757.2,901.7,2754.8,900.5,2760.5L900.5,2760.5z"/>
						</g>
					</g>
					<g>
						<g>
							<path class="st242" d="M999.9,2765.8c10.6,9.7,19.2,21,25.7,33.9c2.1,4.1,8.4,2,8.4-2.3c0-2.8,6-7.5,7.9-9.5
								c2.7-2.8,5.4-5.5,8.2-8.1c5.6-5.3,11.5-10.4,17.5-15.2c4.5-3.6-1.9-10-6.4-6.4c-7.4,6-14.6,12.2-21.4,18.9
								c-5.3,5.2-14.8,12.1-14.9,20.2c2.8-0.8,5.6-1.5,8.4-2.3c-6.7-13.5-15.9-25.6-27.1-35.7
								C1002,2755.6,995.6,2761.9,999.9,2765.8L999.9,2765.8z"/>
						</g>
					</g>
					<g>
						<g>
							<path class="st242" d="M1025.2,2797.4c-1.3,13,2.1,26.5-2.2,39.2c-1.8,5.5,6.9,7.9,8.7,2.4c4.5-13.5,1-27.7,2.5-41.6
								C1034.8,2791.6,1025.8,2791.7,1025.2,2797.4L1025.2,2797.4z"/>
						</g>
					</g>
				</g>
			</g>
			<g id="perf2-pick_1_">
				<path class="st215" d="M791.3,2468.1c0.8,2.5,1.8,4.8,2.9,7.1l2.9,5.9c0.7,1.5,1.5,2.9,2.4,4.3l2.7,4.4c2.1,3.4,4.5,6.5,7.1,9.2
					l0.8,0.8c2.5,2.5,5.5,4.1,8.6,4.5c2.4,0.4,4.9,0.1,7.2-0.9l3.3-1.3c1.1-0.5,2.3-1.1,3.3-1.8l22.9-16.4l3.1-0.6l2.2,0.9l12,16.8
					c0.2,0.2,0.4,0.5,0.6,0.7c1.1,1,2.5,1,3.6,0.2l38.1-27.4c0.5-0.3,0.6-1.1,0.3-1.7l0,0c0.1-0.4,0.2-0.9,0.2-1.3l0-0.1
					c0-1-0.2-1.9-0.6-2.7l-28.4-57.8l1.8-16l3.1-2.3c1.1-0.8,1.5-2.5,0.8-3.9l-14-27.9c-0.7-1.3-2.1-1.8-3.2-0.9l-92.8,71.1
					c-0.5,0.4-0.9,0.8-1.2,1.3l-1,1.5c-0.2,0.3-0.4,0.7-0.6,1.1l-0.9,2c-0.4,0.9-0.6,2-0.6,3.1l0,0.1c0,1.2,0.3,2.3,0.8,3.3
					c0.5,1,1.2,1.8,2,2.3l4,2.7l2,2.1l1.3,2.6l0.1,0.8c0.5,4.3,1.4,8.6,2.8,12.6L791.3,2468.1z M807.5,2460.7l-2.1-5.5
					c-0.2-0.5-0.3-1-0.5-1.5l-1.1-4.4c-0.2-0.8-0.3-1.7-0.3-2.6l-0.1-2c0-0.7,0-1.3,0.1-1.9l0.1-1.2c0.1-1.2,0.5-2.3,0.9-3.4l0,0
					c0.6-1.3,1.4-2.5,2.3-3.4l1.5-1.4c0.3-0.3,0.6-0.6,1-0.8l8.9-6.4l5.9,0.8c0.9,0.1,1.7,0.7,2.1,1.7l0.1,0.3
					c0.3,0.6,0.4,1.2,0.4,1.9l-0.1,2.2c-0.1,2.6,0.4,5.3,1.6,7.5l14.8,30.1l-15.2,10.9c-0.2,0.2-0.5,0.3-0.8,0.4l-2.6,1.1
					c-1.1,0.4-2.2,0.4-3.2-0.2c-0.4-0.2-0.7-0.5-1.1-0.8l-2-2.1c-0.2-0.2-0.4-0.5-0.6-0.7l-4.4-6.7L807.5,2460.7z"/>
				<path class="st216" d="M807.4,2458.9l-2.1,0.9c-1.1,0.5-2.3,0.5-3.4,0l-0.4-0.2c-1-0.4-1.9-1.1-2.5-2.1l-3-4.5
					c-0.9-1.4-2.1-2.6-3.4-3.4l-1.8-1.2c-1.2-0.8-2.1-1.9-2.8-3.2l-0.9-1.7c-0.5-1.1-0.9-2.3-1-3.5l-1-11.1l-2.8,2.1
					c-0.5,0.4-0.9,0.8-1.2,1.3l-1,1.5c-0.2,0.3-0.4,0.7-0.6,1.1l-0.9,2c-0.4,0.9-0.6,2-0.6,3.1l0,0.1c0,1.2,0.3,2.3,0.8,3.3l0,0
					c0.5,1,1.2,1.8,2,2.3l3.4,2.3c0.4,0.3,0.8,0.6,1.1,1l0.6,0.7c0.6,0.6,1.1,1.3,1.4,2.1l0.5,0.9c0.2,0.3,0.3,0.7,0.3,1.1l0,0
					c0.5,4.5,1.5,8.8,2.9,13l0.4,1.1c0.8,2.5,1.9,5,3,7.3l2.8,5.7c0.8,1.5,1.6,3,2.4,4.4l5.3,8.6c0.3,0.4,0.8,0.5,1.2,0.2l13.3-13.2
					l-1.2-1.3l-4.4-6.7c-0.2-0.2-0.3-0.5-0.4-0.8l-4.9-10c-0.5-1-1.3-3.1-1.3-3.1L807.4,2458.9z"/>
				<path class="st216" d="M849.3,2488.2l-5.5-11.2c-0.2-0.5,0-1.1,0.4-1.2l16.1-3.5c3.9-0.8,7.6-2.5,11-4.9l32.1-22.5l11.6,23.6
					c0.4,0.8,0.6,1.8,0.6,2.7l0,0.1c0,0.4-0.1,0.9-0.2,1.3l0,0c-0.3,1.1-0.9,2.1-1.8,2.7l-36.7,26.3c-0.7,0.5-1.5,0.7-2.2,0.5l0,0
					c-0.8-0.2-1.5-0.6-2-1.3l-11.2-15.6c-0.5-0.8-1.3-1.3-2-1.6l0,0c-0.7-0.3-1.4-0.3-2.1-0.2l-1.2,0.2c-0.6,0.1-1.1,0.3-1.6,0.7
					L849.3,2488.2z"/>
				<path class="st217" d="M901.3,2461.1l1.7-1.2c0.6-0.5,1.5-0.2,1.8,0.6l7,14.3c0.4,0.8,0.2,1.8-0.5,2.2l-1.7,1.2
					c-0.6,0.5-1.5,0.2-1.8-0.6l-7-14.3C900.4,2462.5,900.7,2461.5,901.3,2461.1z"/>
				<path class="st217" d="M894.9,2465.6l2-1.4c0.6-0.4,1.3-0.2,1.6,0.5l7.2,14.7c0.3,0.7,0.1,1.5-0.4,1.9l-2,1.4
					c-0.6,0.4-1.3,0.2-1.6-0.5l-7.2-14.7C894.2,2466.9,894.3,2466,894.9,2465.6z"/>
				<path class="st217" d="M888.9,2469.9l1.7-1.2c0.6-0.5,1.5-0.2,1.8,0.6l7,14.3c0.4,0.8,0.2,1.8-0.5,2.2l-1.7,1.2
					c-0.6,0.5-1.5,0.2-1.8-0.6l-7-14.3C888.1,2471.4,888.3,2470.4,888.9,2469.9z"/>
				<path class="st217" d="M882.8,2474.3l1.9-1.3c0.6-0.4,1.4-0.2,1.7,0.5l7.1,14.5c0.3,0.7,0.2,1.6-0.4,2.1l-1.9,1.3
					c-0.6,0.4-1.4,0.2-1.7-0.5l-7.1-14.5C882,2475.7,882.2,2474.8,882.8,2474.3z"/>
				<path class="st217" d="M876.6,2478.8l2.2-1.6c0.5-0.4,1.1-0.2,1.4,0.4l7.4,15c0.3,0.6,0.1,1.4-0.4,1.7l-2.2,1.6
					c-0.5,0.4-1.1,0.2-1.4-0.4l-7.4-15C876,2479.9,876.1,2479.1,876.6,2478.8z"/>
				<path class="st217" d="M870.7,2483l2.1-1.5c0.5-0.4,1.2-0.2,1.6,0.5l7.2,14.8c0.3,0.7,0.1,1.5-0.4,1.9l-2.1,1.5
					c-0.5,0.4-1.2,0.2-1.6-0.5l-7.2-14.8C870,2484.3,870.1,2483.4,870.7,2483z"/>
				<path class="st218" d="M834.8,2453.7l53.9-38.7l-2.1-4.2l1.8-16l3.4-2.4c1-0.7,1.3-2.3,0.7-3.5l-14.3-28.4
					c-0.6-1.2-1.9-1.6-2.9-0.8l-64.8,49.6l7.8,16.9l6.1,0.9c0.7,0.1,1.4,0.6,1.8,1.4l0.3,0.7c0.2,0.5,0.4,1,0.3,1.6l-0.1,2.9
					c-0.1,2.3,0.4,4.6,1.4,6.6L834.8,2453.7z"/>
				<polygon class="st219" points="904.7,2380.4 892.6,2389.1 878,2360 890.3,2351.1 				"/>
				<path class="st220" d="M906.5,2380l4.6-3.3c1.9-1.4,2.5-4.4,1.4-6.7l-11-22.5c-1.1-2.3-3.6-3.1-5.5-1.7l-4.6,3.3
					c-0.8,0.6-1.1,1.8-0.6,2.8l13.4,27.4C904.6,2380.3,905.7,2380.6,906.5,2380z"/>
				<polygon class="st219" points="927.6,2358.3 912.2,2369.4 901.7,2348.1 917.1,2337 				"/>
				<path class="st215" d="M940.3,2351.7l-9.9,7.1c-1.1,0.8-2.5,0.3-3.1-1l-10.2-20.8c-0.6-1.3-0.3-3,0.8-3.8l9.9-7.1L940.3,2351.7z
					"/>
				<path class="st219" d="M940.9,2347.6l-2,1.4l-9.3-19l2.2-1.6c2.4-1.7,5.4-0.8,6.8,2.1l4.1,8.4
					C944.3,2342,943.4,2345.8,940.9,2347.6z"/>
				<path class="st221" d="M940.6,2351.5l-0.3,0.2l-12.5-25.5l0.1-0.1c1.6-1.1,3.6-0.5,4.5,1.4l9.3,19
					C942.5,2348.3,942.1,2350.5,940.6,2351.5z"/>
				<path class="st222" d="M874.6,2385.4c3.8,7.4,1.9,17-4.2,21.6s-14.1,2.3-17.8-5.1c-3.8-7.4-1.9-17,4.2-21.6
					S870.9,2378.1,874.6,2385.4z"/>
				<path class="st223" d="M871,2403.1l-3.9,2.9c-0.6,0.5-1.4,0.2-1.8-0.5l-9.8-19.2c-0.4-0.7-0.2-1.7,0.4-2.2l3.9-2.9
					c0.6-0.5,1.4-0.2,1.8,0.5l9.8,19.2C871.8,2401.7,871.6,2402.6,871,2403.1z"/>
				<path class="st221" d="M920.6,2337.3l6.9-5c0.6-0.4,0.7-1.3,0.4-2l0-0.1c-0.3-0.7-1.1-0.9-1.6-0.5l-6.9,5
					c-0.6,0.4-0.7,1.3-0.4,2l0,0.1C919.3,2337.5,920.1,2337.7,920.6,2337.3z"/>
				<path class="st221" d="M922.6,2341.3l6.9-5c0.6-0.4,0.7-1.3,0.4-2l0-0.1c-0.3-0.7-1.1-0.9-1.6-0.5l-6.9,5
					c-0.6,0.4-0.7,1.3-0.4,2l0,0.1C921.3,2341.5,922.1,2341.7,922.6,2341.3z"/>
				<path class="st221" d="M924.5,2345.4l6.9-5c0.6-0.4,0.7-1.3,0.4-2l0-0.1c-0.3-0.7-1.1-0.9-1.6-0.5l-6.9,5
					c-0.6,0.4-0.7,1.3-0.4,2l0,0.1C923.2,2345.6,924,2345.8,924.5,2345.4z"/>
				<path class="st221" d="M926.5,2349.5l6.9-5c0.6-0.4,0.7-1.3,0.4-2l0-0.1c-0.3-0.7-1.1-0.9-1.6-0.5l-6.9,5
					c-0.6,0.4-0.7,1.3-0.4,2l0,0.1C925.2,2349.6,926,2349.9,926.5,2349.5z"/>
				<path class="st221" d="M928.6,2353.5l6.9-5c0.6-0.4,0.7-1.3,0.4-2l0-0.1c-0.3-0.7-1.1-0.9-1.6-0.5l-6.9,5
					c-0.6,0.4-0.7,1.3-0.4,2l0,0.1C927.3,2353.6,928,2353.9,928.6,2353.5z"/>
				<path class="st221" d="M930.6,2357.5l6.9-5c0.6-0.4,0.7-1.3,0.4-2l0-0.1c-0.3-0.7-1.1-0.9-1.6-0.5l-6.9,5
					c-0.6,0.4-0.7,1.3-0.4,2l0,0.1C929.3,2357.7,930,2357.9,930.6,2357.5z"/>
				<polygon class="st224" points="949.9,2334.1 942.9,2339.2 938.4,2330.2 945.4,2325.1 				"/>
				<path class="st225" d="M1065,2245.7l-6.7,13.2c-0.7,1.3-1.5,2.3-2.5,3l-95.8,69.4c-2.9,2.1-6.4,3.1-10,2.8l0,0l-4.5-9l0,0
					c1.6-4.1,4-7.3,7-9.5l95.7-69.2c1-0.7,2.2-1.2,3.4-1.2l12.7-0.9C1064.8,2244.1,1065.3,2245.2,1065,2245.7z"/>
			</g>
			<g id="stone-pick_5_">
				<path class="st261" d="M873,2647.3l1.6-9.1c0.5-2.9,1.5-5.8,2.8-8.5l3.9-7.7c2.4-4.8,6.3-8.7,11-11.3l7.3-4
					c3.1-1.7,6.6-2.4,10.1-2l7.9,1c3.7,0.4,7.1,2.1,9.7,4.7l2.6,2.6c2.7,2.7,4.3,6.4,4.3,10.3v22.4l-6,2.5c-5.9,2.5-12.2,4-18.6,4.4
					l-11.1,0.7c-7.3,0.5-14.6-0.9-21.3-4L873,2647.3z"/>
				<path class="st262" d="M902.1,2608.3l-8.2,4.8c-3.1,1.8-5.6,4.3-7.3,7.4l-5.1,9.2c-1,1.8-1.7,3.6-2.1,5.6l-1.9,8.4l5.9,3.3
					c2.5,1.4,5.4,2.2,8.3,2.2h3.6v-13.6c0-3,0.7-5.9,2-8.6l3-6.2c0.9-1.8,2-3.4,3.4-4.8l9.9-9.9h-3.4
					C907.3,2606.1,904.5,2606.8,902.1,2608.3z"/>
			</g>
			<g id="money-pick_9_">
				<ellipse class="st251" cx="716.9" cy="2703" rx="12" ry="24.6"/>
				<path class="st252" d="M716.9,2678.4h3.7c2.7,0,5.2,0.9,7.3,2.6l0,0c1.3,1,2.3,2.3,3,3.8l2.2,4.4c0.6,1.3,1,2.7,1.2,4.1l0.8,8.6
					c0.1,0.8,0.1,1.6,0,2.4l-0.9,7.9c-0.1,1.1-0.4,2.1-0.8,3.1l-2.2,5.3c-0.7,1.6-1.7,3-3,4.2l0,0c-2.1,1.8-4.8,2.9-7.6,2.9h-3.6
					l3.6-1.1l3.5-3.5l2.1-4.2l1.7-5.7l0.9-5.7l0.2-7.1l-0.8-5.9l-1.5-5.6l-2.2-4.8l-2.5-3.2l-2.3-1.6L716.9,2678.4z"/>
			</g>
			<text transform="matrix(1 0 0 1 950.4003 2648.6243)" class="st253 st254 st255">100      </text>
			<text transform="matrix(1 0 0 1 754.9597 2721.6243)" class="st253 st254 st255">50      </text>
			<text transform="matrix(1 0 0 1 704.9597 2648.6243)" class="st253 st254 st255">Price:      </text>
			<text transform="matrix(1 0 0 1 698.9587 2543.6135)"><tspan x="0" y="0" class="st253 st256 st257">Status need: Str 10</tspan><tspan x="0" y="44" class="st253 st256 st257">  Agi 8  Int 5h</tspan></text>
		</g>
		<g id="wood_x5F_buy">
			<rect x="202.7" y="460.1" class="st246" width="727.7" height="494.5"/>
			<path id="minus-wood_x5F_buy" class="st241" d="M628.2,657.4h-88c-5.5,0-10-4.5-10-10v-13c0-5.5,4.5-10,10-10h88
				c5.5,0,10,4.5,10,10v13C638.2,652.9,633.7,657.4,628.2,657.4z"/>
			<path id="plus-wood_x5F_buy" class="st241" d="M832.2,624.4h-27.5v-27.5c0-5.5-4.5-10-10-10h-13c-5.5,0-10,4.5-10,10v27.5h-27.5
				c-5.5,0-10,4.5-10,10v13c0,5.5,4.5,10,10,10h27.5v27.5c0,5.5,4.5,10,10,10h13c5.5,0,10-4.5,10-10v-27.5h27.5c5.5,0,10-4.5,10-10
				v-13C842.2,628.8,837.7,624.4,832.2,624.4z"/>
			<g id="wood-pick">
				<circle class="st247" cx="316.2" cy="635.3" r="56.7"/>
				<circle class="st248" cx="316.2" cy="635.3" r="41"/>
				<circle class="st248" cx="316.2" cy="635.3" r="23.3"/>
				<circle class="st249" cx="316.2" cy="635.3" r="9.5"/>
				<path class="st250" d="M292.7,583.6l111.1-57.2c3-1.5,6.3-2.3,9.6-2.3h6.4c3.3,0,6.5,0.8,9.4,2.2l4,2c3.1,1.6,5.8,3.8,7.8,6.7
					l1,1.4c2.5,3.5,3.8,7.8,3.8,12.1v2.1c0,4.6-1.5,9-4.2,12.6L361.1,670l8.1-14.5l3.7-11.9l-0.3-13.9l-3.4-14.5l-6.2-11.9
					l-11.9-12.7l-14.2-8.1l-16.5-3.9l-13.9,0.8L292.7,583.6z"/>
			</g>
			<g id="btn-buy_x5F_wood">
				<rect x="202.6" y="834.5" class="st241" width="727.7" height="120.2"/>
				<g id="buy_9_">
					<g>
						<g>
							<path class="st242" d="M445.8,856.9c-0.8,13.1-1.5,26.3-2.6,39.4c-0.5,6.1-1.7,11.9-3.8,17.7c-1,2.8-2.1,5.5-2.6,8.4
								c-0.4,2.2-0.3,5.4-1.9,7.2c-3.9,4.2,2.4,10.6,6.4,6.4c3.8-4.2,3.5-9.4,5.1-14.5c2-6.6,4.4-12.6,5.3-19.5
								c1.9-14.9,2.2-30.1,3.2-45C455.2,851.1,446.2,851.1,445.8,856.9L445.8,856.9z"/>
						</g>
					</g>
					<g>
						<g>
							<path class="st242" d="M454.7,859c3.6-3.1,12.5-0.8,16.6,0.3c6.4,1.6,9.9,5.1,11.4,11.6c1.6,7.1-6,9.8-11.4,12.3
								c-6.7,3.1-14,5.1-21.3,5.9c-4.5,0.5-6.7,7.9-1.2,8.8c13.8,2.3,43.2-6.1,40,17.7c-1.3,9.9-14.5,11-22.4,11.3
								c-4.8,0.2-9.7,0.1-14.5,0.6c-3.9,0.4-9.7,2.9-13.5,2c1,1,2.1,2.1,3.1,3.1c0-0.2-0.1-0.4-0.1-0.6c-0.4,1.5-0.8,2.9-1.2,4.4
								c0.1-0.1,0.3-0.2,0.4-0.3c4.4-3.8-2-10.1-6.4-6.4c-0.1,0.1-0.3,0.2-0.4,0.3c-1.2,1.1-1.5,2.9-1.2,4.4c0,0.2,0.1,0.4,0.1,0.6
								c0.3,1.5,1.7,2.8,3.1,3.1c5.7,1.4,11.9-1.3,17.6-1.8c6.4-0.6,12.9-0.2,19.4-0.9c10.1-1.2,22.5-5.7,24.4-17.1
								c1.7-10.5-1.2-21.4-11.4-26.2c-11.2-5.3-23.2-1-34.9-2.9c-0.4,2.9-0.8,5.9-1.2,8.8c10.7-1.3,21.1-4.3,30.5-9.6
								c3.8-2.1,7.8-4.5,10-8.3c2.4-4.1,1.8-9,0.4-13.4c-2.6-8.7-8.4-14.1-17.2-16.4c-8.1-2-18.5-3.7-25.3,2.1
								C443.9,856.4,450.3,862.8,454.7,859L454.7,859z"/>
						</g>
					</g>
					<g>
						<g>
							<path class="st242" d="M544.4,854.2c-4,18.2-7.3,37.6-7.1,56.3c0.1,14,7.7,31.2,24.5,29.6c17.2-1.6,23.9-19,31.1-31.9
								c9.1-16.2,13.8-33.3,15.4-51.7c-3,0-6,0-9,0c0.5,14.8-3.6,28.9-6.3,43.3c-2.2,11.7-3.9,24.4,3,34.9c3.1,4.8,10.9,0.3,7.8-4.5
								c-6.8-10.4-2.9-24.1-0.5-35.4c2.7-12.7,5.6-25.3,5.1-38.3c-0.2-5.9-8.5-5.7-9,0c-1.2,15-4.8,30-12,43.3
								c-3.1,5.7-6.1,11.6-9.3,17.2c-3.3,5.8-7.6,11.7-14.4,13.7c-16,4.6-17.6-16.8-17-27.1c0.9-15.8,3.2-31.5,6.6-47
								C554.3,850.9,545.6,848.5,544.4,854.2L544.4,854.2z"/>
						</g>
					</g>
					<g>
						<g>
							<path class="st242" d="M643.8,859.5c10.6,9.7,19.2,21,25.7,33.9c2.1,4.1,8.4,2,8.4-2.3c0-2.8,6-7.5,7.9-9.5
								c2.7-2.8,5.4-5.5,8.2-8.1c5.6-5.3,11.5-10.4,17.5-15.2c4.5-3.6-1.9-10-6.4-6.4c-7.4,6-14.6,12.2-21.4,18.9
								c-5.3,5.2-14.8,12.1-14.9,20.2c2.8-0.8,5.6-1.5,8.4-2.3c-6.7-13.5-15.9-25.6-27.1-35.7C645.9,849.3,639.5,855.6,643.8,859.5
								L643.8,859.5z"/>
						</g>
					</g>
					<g>
						<g>
							<path class="st242" d="M669.1,891.1c-1.3,13,2.1,26.5-2.2,39.2c-1.8,5.5,6.9,7.9,8.7,2.4c4.5-13.5,1-27.7,2.5-41.6
								C678.7,885.3,669.7,885.3,669.1,891.1L669.1,891.1z"/>
						</g>
					</g>
				</g>
			</g>
			<text id="quantity-wood_x5F_buy" transform="matrix(1 0 0 1 587.7557 548.4442)" class="st253 st263 st264">6</text>
			<g id="money-pick_10_">
				<ellipse class="st251" cx="283.1" cy="780.5" rx="19.1" ry="39.2"/>
				<path class="st252" d="M283.1,741.3h5.8c4.2,0,8.3,1.5,11.6,4.1l0.1,0c2,1.6,3.6,3.7,4.8,6l3.5,7c1,2,1.6,4.2,1.9,6.5l1.3,13.6
					c0.1,1.3,0.1,2.6,0,3.8l-1.5,12.6c-0.2,1.7-0.6,3.4-1.3,5l-3.5,8.4c-1.1,2.6-2.7,4.8-4.8,6.7l0,0c-3.3,2.9-7.7,4.6-12.1,4.6
					h-5.7l5.7-1.8l5.5-5.5l3.4-6.7l2.8-9.1l1.4-9.1l0.3-11.4l-1.2-9.3l-2.3-9l-3.5-7.7l-4-5.1l-3.6-2.6L283.1,741.3z"/>
			</g>
			<text id="money-wood_x5F_buy" transform="matrix(1 0 0 1 349.2591 800.468)" class="st253 st263 st264">1</text>
		</g>
		<g id="stone_x5F_buy">
			<rect x="930.4" y="460.1" class="st246" width="727.7" height="494.5"/>
			<path id="minus-stone_x5F_buy" class="st241" d="M1355.9,657.4h-88c-5.5,0-10-4.5-10-10v-13c0-5.5,4.5-10,10-10h88
				c5.5,0,10,4.5,10,10v13C1365.9,652.9,1361.4,657.4,1355.9,657.4z"/>
			<path id="plus-stone_x5F_buy" class="st241" d="M1559.9,624.4h-27.5v-27.5c0-5.5-4.5-10-10-10h-13c-5.5,0-10,4.5-10,10v27.5
				h-27.5c-5.5,0-10,4.5-10,10v13c0,5.5,4.5,10,10,10h27.5v27.5c0,5.5,4.5,10,10,10h13c5.5,0,10-4.5,10-10v-27.5h27.5
				c5.5,0,10-4.5,10-10v-13C1569.9,628.8,1565.4,624.4,1559.9,624.4z"/>
			<g id="stone-pick">
				<path class="st261" d="M988.3,668.1l5-28c1.6-9,4.5-17.7,8.7-25.9l12.1-23.6c7.5-14.6,19.2-26.7,33.5-34.6l22.2-12.3
					c9.4-5.2,20.3-7.3,31-6l24.2,2.9c11.2,1.4,21.6,6.4,29.6,14.3l7.9,7.9c8.4,8.3,13.1,19.7,13.1,31.5v68.6l-18.4,7.8
					c-18,7.6-37.2,12.2-56.8,13.4l-33.8,2.1c-22.4,1.4-44.7-2.8-65.1-12.1L988.3,668.1z"/>
				<path class="st262" d="M1077.3,548.8l-25.2,14.6c-9.3,5.4-17.1,13.3-22.3,22.8l-15.6,28.1c-3,5.4-5.2,11.1-6.5,17.1l-5.8,25.7
					l18,10.1c7.7,4.3,16.5,6.6,25.3,6.6h11.1v-41.5c0-9.1,2.1-18,6.1-26.2l9.3-18.9c2.6-5.4,6.2-10.4,10.4-14.6l30.3-30.4H1102
					C1093.3,542.1,1084.8,544.4,1077.3,548.8z"/>
			</g>
			<g id="btn-buy_x5F_stone">
				<rect x="930.2" y="834.5" class="st241" width="727.7" height="120.2"/>
				<g id="buy_10_">
					<g>
						<g>
							<path class="st242" d="M1154.2,856.9c-0.8,13.1-1.5,26.3-2.6,39.4c-0.5,6.1-1.7,11.9-3.8,17.7c-1,2.8-2.1,5.5-2.6,8.4
								c-0.4,2.2-0.3,5.4-1.9,7.2c-3.9,4.2,2.4,10.6,6.4,6.4c3.8-4.2,3.5-9.4,5.1-14.5c2-6.6,4.4-12.6,5.3-19.5
								c1.9-14.9,2.2-30.1,3.2-45C1163.6,851.1,1154.6,851.1,1154.2,856.9L1154.2,856.9z"/>
						</g>
					</g>
					<g>
						<g>
							<path class="st242" d="M1163.1,859c3.6-3.1,12.5-0.8,16.6,0.3c6.4,1.6,9.9,5.1,11.4,11.6c1.6,7.1-6,9.8-11.4,12.3
								c-6.7,3.1-14,5.1-21.3,5.9c-4.5,0.5-6.7,7.9-1.2,8.8c13.8,2.3,43.2-6.1,40,17.7c-1.3,9.9-14.5,11-22.4,11.3
								c-4.8,0.2-9.7,0.1-14.5,0.6c-3.9,0.4-9.7,2.9-13.5,2c1,1,2.1,2.1,3.1,3.1c0-0.2-0.1-0.4-0.1-0.6c-0.4,1.5-0.8,2.9-1.2,4.4
								c0.1-0.1,0.3-0.2,0.4-0.3c4.4-3.8-2-10.1-6.4-6.4c-0.1,0.1-0.3,0.2-0.4,0.3c-1.2,1.1-1.5,2.9-1.2,4.4c0,0.2,0.1,0.4,0.1,0.6
								c0.3,1.5,1.7,2.8,3.1,3.1c5.7,1.4,11.9-1.3,17.6-1.8c6.4-0.6,12.9-0.2,19.4-0.9c10.1-1.2,22.5-5.7,24.4-17.1
								c1.7-10.5-1.2-21.4-11.4-26.2c-11.2-5.3-23.2-1-34.9-2.9c-0.4,2.9-0.8,5.9-1.2,8.8c10.7-1.3,21.1-4.3,30.5-9.6
								c3.8-2.1,7.8-4.5,10-8.3c2.4-4.1,1.8-9,0.4-13.4c-2.6-8.7-8.4-14.1-17.2-16.4c-8.1-2-18.5-3.7-25.3,2.1
								C1152.3,856.4,1158.7,862.8,1163.1,859L1163.1,859z"/>
						</g>
					</g>
					<g>
						<g>
							<path class="st242" d="M1252.8,854.2c-4,18.2-7.3,37.6-7.1,56.3c0.1,14,7.7,31.2,24.5,29.6c17.2-1.6,23.9-19,31.1-31.9
								c9.1-16.2,13.8-33.3,15.4-51.7c-3,0-6,0-9,0c0.5,14.8-3.6,28.9-6.3,43.3c-2.2,11.7-3.9,24.4,3,34.9c3.1,4.8,10.9,0.3,7.8-4.5
								c-6.8-10.4-2.9-24.1-0.5-35.4c2.7-12.7,5.6-25.3,5.1-38.3c-0.2-5.9-8.5-5.7-9,0c-1.2,15-4.8,30-12,43.3
								c-3.1,5.7-6.1,11.6-9.3,17.2c-3.3,5.8-7.6,11.7-14.4,13.7c-16,4.6-17.6-16.8-17-27.1c0.9-15.8,3.2-31.5,6.6-47
								C1262.7,850.9,1254,848.5,1252.8,854.2L1252.8,854.2z"/>
						</g>
					</g>
					<g>
						<g>
							<path class="st242" d="M1352.2,859.5c10.6,9.7,19.2,21,25.7,33.9c2.1,4.1,8.4,2,8.4-2.3c0-2.8,6-7.5,7.9-9.5
								c2.7-2.8,5.4-5.5,8.2-8.1c5.6-5.3,11.5-10.4,17.5-15.2c4.5-3.6-1.9-10-6.4-6.4c-7.4,6-14.6,12.2-21.4,18.9
								c-5.3,5.2-14.8,12.1-14.9,20.2c2.8-0.8,5.6-1.5,8.4-2.3c-6.7-13.5-15.9-25.6-27.1-35.7
								C1354.3,849.3,1347.9,855.6,1352.2,859.5L1352.2,859.5z"/>
						</g>
					</g>
					<g>
						<g>
							<path class="st242" d="M1377.5,891.1c-1.3,13,2.1,26.5-2.2,39.2c-1.8,5.5,6.9,7.9,8.7,2.4c4.5-13.5,1-27.7,2.5-41.6
								C1387.1,885.3,1378.1,885.3,1377.5,891.1L1377.5,891.1z"/>
						</g>
					</g>
				</g>
			</g>
			<text id="quantity-stone_x5F_buy" transform="matrix(1 0 0 1 1311.8708 548.4444)" class="st253 st263 st264">6</text>
			<g id="money-pick_11_">
				<ellipse class="st251" cx="1000" cy="780.5" rx="19.1" ry="39.2"/>
				<path class="st252" d="M1000,741.3h5.8c4.2,0,8.3,1.5,11.6,4.1l0.1,0c2,1.6,3.6,3.7,4.8,6l3.5,7c1,2,1.6,4.2,1.9,6.5l1.3,13.6
					c0.1,1.3,0.1,2.6,0,3.8l-1.5,12.6c-0.2,1.7-0.6,3.4-1.3,5l-3.5,8.4c-1.1,2.6-2.7,4.8-4.8,6.7l0,0c-3.3,2.9-7.7,4.6-12.1,4.6
					h-5.7l5.7-1.8l5.5-5.5l3.4-6.7l2.8-9.1l1.4-9.1l0.3-11.4l-1.2-9.3l-2.3-9l-3.5-7.7l-4-5.1l-3.6-2.6L1000,741.3z"/>
			</g>
			<text id="money-stone_x5F_buy" transform="matrix(1 0 0 1 1066.1434 800.468)" class="st253 st263 st264">1</text>
		</g>
	</g>
	<g id="menu_x5F_sell">
		<g id="wood_x5F_sell">
			<rect x="202.7" y="460.1" class="st246" width="727.7" height="494.5"/>
			<path id="minus-wood_x5F_sell" class="st243" d="M628.2,657.4h-88c-5.5,0-10-4.5-10-10v-13c0-5.5,4.5-10,10-10h88
				c5.5,0,10,4.5,10,10v13C638.2,652.9,633.7,657.4,628.2,657.4z"/>
			<path id="plus-wood_x5F_sell" class="st243" d="M832.2,624.4h-27.5v-27.5c0-5.5-4.5-10-10-10h-13c-5.5,0-10,4.5-10,10v27.5h-27.5
				c-5.5,0-10,4.5-10,10v13c0,5.5,4.5,10,10,10h27.5v27.5c0,5.5,4.5,10,10,10h13c5.5,0,10-4.5,10-10v-27.5h27.5c5.5,0,10-4.5,10-10
				v-13C842.2,628.8,837.7,624.4,832.2,624.4z"/>
			<g id="wood-pick_1_">
				<circle class="st247" cx="316.2" cy="635.3" r="56.7"/>
				<circle class="st248" cx="316.2" cy="635.3" r="41"/>
				<circle class="st248" cx="316.2" cy="635.3" r="23.3"/>
				<circle class="st249" cx="316.2" cy="635.3" r="9.5"/>
				<path class="st250" d="M292.7,583.6l111.1-57.2c3-1.5,6.3-2.3,9.6-2.3h6.4c3.3,0,6.5,0.8,9.4,2.2l4,2c3.1,1.6,5.8,3.8,7.8,6.7
					l1,1.4c2.5,3.5,3.8,7.8,3.8,12.1v2.1c0,4.6-1.5,9-4.2,12.6L361.1,670l8.1-14.5l3.7-11.9l-0.3-13.9l-3.4-14.5l-6.2-11.9
					l-11.9-12.7l-14.2-8.1l-16.5-3.9l-13.9,0.8L292.7,583.6z"/>
			</g>
			<g id="btn-sell_x5F_wood">
				<rect x="202.7" y="834.5" class="st243" width="727.7" height="120.2"/>
				<g id="sell_1_">
					<g>
						<g>
							<path class="st242" d="M486.5,856.1c-13-4.2-28.3-4.4-40.7,1.8c-9.1,4.6-18.2,17.7-8.1,26.1c4.9,4.1,12.4,5.4,18.5,6.7
								c7.4,1.6,15,2.6,22.2,5c2.9,0.9,6.9,2,9,4.3c2.4,2.6,2.4,7.5,2.3,10.8c-0.3,7.7-3,14.5-11.2,15.8
								c-17.1,2.6-35.3-1.4-50.4-9.6c-5.1-2.8-9.6,5-4.5,7.8c12.8,6.9,26.9,11,41.5,11.4c6.7,0.2,14.6,0.2,20.9-2.3
								c5.9-2.3,9.3-7.5,11.1-13.4c2-6.3,2.3-13.7,0.5-20.1c-1.8-6.2-6.3-9.3-11.9-11.6c-7-2.9-14.5-4.4-21.9-5.8
								c-3.4-0.7-6.9-1.3-10.3-2.2c-3-0.8-8.2-1.5-10.3-4.1c-5.1-6.2,9.2-12.2,13.3-13.2c9.2-2.3,18.7-1.6,27.6,1.3
								C489.6,866.6,492,857.9,486.5,856.1L486.5,856.1z"/>
						</g>
					</g>
					<g>
						<g>
							<path class="st242" d="M532.5,893.9c2.6,2.8,5.7,3.6,9.3,4.1c5.6,0.7,11.3,0.9,17,0.9c8.2-0.1,17-0.9,23.9-5.8
								c6.4-4.5,10.8-12.6,9.3-20.6c-1.6-8.5-9.4-13.5-16.8-16.6c-7.4-3.1-18.6-6.2-25.7-0.9c-6.6,5-10.4,14.9-13.1,22.5
								c-5.1,14.5-8.7,36.3,1.2,49.7c5.8,7.8,15.6,9.9,24.8,10.1c9.5,0.2,18.6-2.5,25.4-9.2c4.2-4.1-2.2-10.4-6.4-6.4
								c-9.8,9.6-33.9,10.2-39.1-4.7c-4.9-14.1-0.4-32.5,6.2-45.4c1.4-2.8,3.7-8.2,6.6-9.8c3.4-1.9,9.4-0.1,12.8,1
								c6.9,2,17.3,6.8,14.9,15.6c-2.1,7.8-10.6,10.6-17.8,11.3c-4,0.4-8,0.3-12,0.2c-3.7-0.1-11.5,0.7-14.3-2.2
								C534.9,883.3,528.5,889.7,532.5,893.9L532.5,893.9z"/>
						</g>
					</g>
					<g>
						<g>
							<path class="st242" d="M625.5,857.6c0.5,6.6-1.1,12.7-2.8,19c-1.5,5.7-2.5,11.5-3.2,17.4c-1.3,12.2-1.3,24.4-5.3,36.2
								c-0.7,2.1,0.8,5.2,3.1,5.5c16,2.3,32.3-6.6,47.9-1.9c5.6,1.7,7.9-7,2.4-8.7c-16.2-4.8-31.7,4.2-47.9,1.9
								c1,1.8,2.1,3.7,3.1,5.5c4.1-11.9,4.3-24.4,5.5-36.7c1.2-12.8,7.1-25.3,6.1-38.2C634.1,851.8,625.1,851.8,625.5,857.6
								L625.5,857.6z"/>
						</g>
					</g>
					<g>
						<g>
							<path class="st242" d="M709,857.5c2.3,12.1-1.5,25.7-3.7,37.6c-2.3,12.2-5.1,24.4-8.3,36.4c-0.9,3.5,2.2,6.2,5.5,5.5
								c7-1.4,14.1-3.6,21.2-4.2c6.4-0.5,12.4,2.6,18.8,2.2c5.7-0.4,5.8-9.4,0-9c-7,0.5-13.4-2.8-20.5-2c-7.4,0.9-14.7,2.8-21.9,4.4
								c1.8,1.8,3.7,3.7,5.5,5.5c3.5-13.3,6.5-26.6,9-40.1c2.3-12.6,5.4-25.9,3-38.6C716.6,849.5,707.9,851.9,709,857.5L709,857.5z"
								/>
						</g>
					</g>
				</g>
			</g>
			<text id="quantity-wood_x5F_sell" transform="matrix(1 0 0 1 587.8804 546.976)" class="st253 st263 st264">3</text>
			<g id="money-pick_1_">
				<ellipse class="st251" cx="275.6" cy="773.1" rx="19.1" ry="39.2"/>
				<path class="st252" d="M275.6,733.9h5.8c4.2,0,8.3,1.5,11.6,4.1l0.1,0c2,1.6,3.6,3.7,4.8,6l3.5,7c1,2,1.6,4.2,1.9,6.5l1.3,13.6
					c0.1,1.3,0.1,2.6,0,3.8l-1.5,12.6c-0.2,1.7-0.6,3.4-1.3,5l-3.5,8.4c-1.1,2.6-2.7,4.8-4.8,6.7v0c-3.3,2.9-7.7,4.6-12.1,4.6h-5.7
					l5.7-1.8l5.5-5.5l3.4-6.7l2.8-9.1l1.4-9.1l0.3-11.4l-1.2-9.3l-2.3-9l-3.5-7.7l-4-5.1l-3.6-2.6L275.6,733.9z"/>
			</g>
			<text id="money-wood_x5F_sell" transform="matrix(1 0 0 1 341.7496 793)" class="st253 st263 st264">1</text>
		</g>
		<g id="stone_x5F_sell">
			<rect x="930.3" y="460.1" class="st246" width="727.7" height="494.5"/>
			<path id="minus-stone_x5F_sell" class="st243" d="M1355.8,657.4h-88c-5.5,0-10-4.5-10-10v-13c0-5.5,4.5-10,10-10h88
				c5.5,0,10,4.5,10,10v13C1365.8,652.9,1361.3,657.4,1355.8,657.4z"/>
			<path id="plus-stone_x5F_sell" class="st243" d="M1559.8,624.4h-27.5v-27.5c0-5.5-4.5-10-10-10h-13c-5.5,0-10,4.5-10,10v27.5
				h-27.5c-5.5,0-10,4.5-10,10v13c0,5.5,4.5,10,10,10h27.5v27.5c0,5.5,4.5,10,10,10h13c5.5,0,10-4.5,10-10v-27.5h27.5
				c5.5,0,10-4.5,10-10v-13C1569.8,628.8,1565.3,624.4,1559.8,624.4z"/>
			<g id="stone-pick_1_">
				<path class="st261" d="M988.2,668.1l5-28c1.6-9,4.5-17.7,8.7-25.9l12.1-23.6c7.5-14.6,19.2-26.7,33.5-34.6l22.2-12.3
					c9.4-5.2,20.3-7.3,31-6l24.2,2.9c11.2,1.4,21.6,6.4,29.6,14.3l7.9,7.9c8.4,8.3,13.1,19.7,13.1,31.5v68.6l-18.4,7.8
					c-18,7.6-37.2,12.2-56.8,13.4l-33.8,2.1c-22.4,1.4-44.7-2.8-65.1-12.1L988.2,668.1z"/>
				<path class="st262" d="M1077.2,548.8l-25.2,14.6c-9.3,5.4-17.1,13.3-22.3,22.8l-15.6,28.1c-3,5.4-5.2,11.1-6.5,17.1l-5.8,25.7
					l18,10.1c7.7,4.3,16.5,6.6,25.3,6.6h11.1v-41.5c0-9.1,2.1-18,6.1-26.2l9.3-18.9c2.6-5.4,6.2-10.4,10.4-14.6l30.3-30.4h-10.3
					C1093.2,542.1,1084.7,544.4,1077.2,548.8z"/>
			</g>
			<g id="btn-sell_x5F_stone">
				<rect x="930.2" y="834.5" class="st243" width="727.7" height="120.2"/>
				<g id="sell_2_">
					<g>
						<g>
							<path class="st242" d="M1197,856.1c-13-4.2-28.3-4.4-40.7,1.8c-9.1,4.6-18.2,17.7-8.1,26.1c4.9,4.1,12.4,5.4,18.5,6.7
								c7.4,1.6,15,2.6,22.2,5c2.9,0.9,6.9,2,9,4.3c2.4,2.6,2.4,7.5,2.3,10.8c-0.3,7.7-3,14.5-11.2,15.8
								c-17.1,2.6-35.3-1.4-50.4-9.6c-5.1-2.8-9.6,5-4.5,7.8c12.8,6.9,26.9,11,41.5,11.4c6.7,0.2,14.6,0.2,20.9-2.3
								c5.9-2.3,9.3-7.5,11.1-13.4c2-6.3,2.3-13.7,0.5-20.1c-1.8-6.2-6.3-9.3-11.9-11.6c-7-2.9-14.5-4.4-21.9-5.8
								c-3.4-0.7-6.9-1.3-10.3-2.2c-3-0.8-8.2-1.5-10.3-4.1c-5.1-6.2,9.2-12.2,13.3-13.2c9.2-2.3,18.7-1.6,27.6,1.3
								C1200.1,866.6,1202.5,857.9,1197,856.1L1197,856.1z"/>
						</g>
					</g>
					<g>
						<g>
							<path class="st242" d="M1243,893.9c2.6,2.8,5.7,3.6,9.3,4.1c5.6,0.7,11.3,0.9,17,0.9c8.2-0.1,17-0.9,23.9-5.8
								c6.4-4.5,10.8-12.6,9.3-20.6c-1.6-8.5-9.4-13.5-16.8-16.6c-7.4-3.1-18.6-6.2-25.7-0.9c-6.6,5-10.4,14.9-13.1,22.5
								c-5.1,14.5-8.7,36.3,1.2,49.7c5.8,7.8,15.6,9.9,24.8,10.1c9.5,0.2,18.6-2.5,25.4-9.2c4.2-4.1-2.2-10.4-6.4-6.4
								c-9.8,9.6-33.9,10.2-39.1-4.7c-4.9-14.1-0.4-32.5,6.2-45.4c1.4-2.8,3.7-8.2,6.6-9.8c3.4-1.9,9.4-0.1,12.8,1
								c6.9,2,17.3,6.8,14.9,15.6c-2.1,7.8-10.6,10.6-17.8,11.3c-4,0.4-8,0.3-12,0.2c-3.7-0.1-11.5,0.7-14.3-2.2
								C1245.4,883.3,1239.1,889.7,1243,893.9L1243,893.9z"/>
						</g>
					</g>
					<g>
						<g>
							<path class="st242" d="M1336,857.6c0.5,6.6-1.1,12.7-2.8,19c-1.5,5.7-2.5,11.5-3.2,17.4c-1.3,12.2-1.3,24.4-5.3,36.2
								c-0.7,2.1,0.8,5.2,3.1,5.5c16,2.3,32.3-6.6,47.9-1.9c5.6,1.7,7.9-7,2.4-8.7c-16.2-4.8-31.7,4.2-47.9,1.9
								c1,1.8,2.1,3.7,3.1,5.5c4.1-11.9,4.3-24.4,5.5-36.7c1.2-12.8,7.1-25.3,6.1-38.2C1344.6,851.8,1335.6,851.8,1336,857.6
								L1336,857.6z"/>
						</g>
					</g>
					<g>
						<g>
							<path class="st242" d="M1419.5,857.5c2.3,12.1-1.5,25.7-3.7,37.6c-2.3,12.2-5.1,24.4-8.3,36.4c-0.9,3.5,2.2,6.2,5.5,5.5
								c7-1.4,14.1-3.6,21.2-4.2c6.4-0.5,12.4,2.6,18.8,2.2c5.7-0.4,5.8-9.4,0-9c-7,0.5-13.4-2.8-20.5-2c-7.4,0.9-14.7,2.8-21.9,4.4
								c1.8,1.8,3.7,3.7,5.5,5.5c3.5-13.3,6.5-26.6,9-40.1c2.3-12.6,5.4-25.9,3-38.6C1427.1,849.5,1418.4,851.9,1419.5,857.5
								L1419.5,857.5z"/>
						</g>
					</g>
				</g>
			</g>
			<text id="quantity-stone_x5F_sell" transform="matrix(1 0 0 1 1311.097 546.9758)" class="st253 st263 st264">3</text>
			<g id="money-pick_2_">
				<ellipse class="st251" cx="1000.1" cy="773.1" rx="19.1" ry="39.2"/>
				<path class="st252" d="M1000.1,733.9h5.8c4.2,0,8.3,1.5,11.6,4.1l0.1,0c2,1.6,3.6,3.7,4.8,6l3.5,7c1,2,1.6,4.2,1.9,6.5l1.3,13.6
					c0.1,1.3,0.1,2.6,0,3.8l-1.5,12.6c-0.2,1.7-0.6,3.4-1.3,5l-3.5,8.4c-1.1,2.6-2.7,4.8-4.8,6.7v0c-3.3,2.9-7.7,4.6-12.1,4.6h-5.7
					l5.7-1.8l5.5-5.5l3.4-6.7l2.8-9.1l1.4-9.1l0.3-11.4l-1.2-9.3l-2.3-9l-3.5-7.7l-4-5.1l-3.6-2.6L1000.1,733.9z"/>
			</g>
			<text id="money-stone_x5F_sell" transform="matrix(1 0 0 1 1066.2062 793)" class="st253 st263 st264">1</text>
		</g>
	</g>
</g>
</svg>
